<svg width="360" height="56" viewBox="0 0 360 56" fill="none" xmlns="http://www.w3.org/2000/svg">
<rect width="360" height="56" fill="#0C131F"/>
<path d="M47.6937 24.884C46.9464 21.1206 44.8717 17.751 41.8477 15.3895C38.8236 13.028 35.0517 11.8319 31.2194 12.0191C27.3871 12.2063 23.7497 13.7644 20.9702 16.4094C18.1907 19.0544 16.4543 22.6101 16.0774 26.4284C15.7005 30.2467 16.7083 34.0733 18.9171 37.2107C21.1258 40.348 24.3884 42.5872 28.1102 43.52C31.8319 44.4528 35.765 44.0171 39.1923 42.2924C42.6197 40.5676 45.3131 37.6687 46.7817 34.124C47.9923 31.2018 48.3097 27.9864 47.6937 24.884ZM38.1497 28.628C37.9875 28.7874 37.7691 28.8766 37.5417 28.876L28.9097 28.876L32.2697 32.156C32.3501 32.2353 32.4128 32.3307 32.4537 32.436C32.5391 32.6463 32.5391 32.8817 32.4537 33.092C32.3572 33.2956 32.1933 33.4595 31.9897 33.556C31.8852 33.5972 31.774 33.6189 31.6617 33.62C31.5485 33.6195 31.4367 33.5949 31.3337 33.548C31.2284 33.5071 31.133 33.4444 31.0537 33.364L25.5977 28.004L30.8937 22.652C30.973 22.5716 31.0684 22.5089 31.1737 22.468C31.384 22.3826 31.6193 22.3826 31.8297 22.468C31.9354 22.5081 32.0315 22.5702 32.1114 22.6502C32.1914 22.7302 32.2535 22.8262 32.2937 22.932C32.3791 23.1423 32.3791 23.3777 32.2937 23.588C32.2528 23.6933 32.1901 23.7887 32.1097 23.868L28.8697 27.148H37.5417C37.7118 27.1469 37.8783 27.1965 38.0201 27.2905C38.1619 27.3845 38.2724 27.5186 38.3377 27.6757C38.4029 27.8327 38.4199 28.0057 38.3864 28.1725C38.3529 28.3392 38.2705 28.4923 38.1497 28.612V28.628Z" fill="#F3F3F8"/>
<path d="M68.032 23.308H64.126V21.256H74.206V23.308H70.3V34H68.032V23.308ZM81.7916 34H79.7396V32.614H79.7036C79.4996 33.046 79.1876 33.424 78.7676 33.748C78.3476 34.06 77.7776 34.216 77.0576 34.216C76.4816 34.216 75.9896 34.126 75.5816 33.946C75.1856 33.754 74.8616 33.502 74.6096 33.19C74.3576 32.866 74.1776 32.5 74.0696 32.092C73.9616 31.684 73.9076 31.258 73.9076 30.814V25.36H76.0676V29.734C76.0676 29.974 76.0796 30.244 76.1036 30.544C76.1276 30.832 76.1876 31.108 76.2836 31.372C76.3916 31.624 76.5476 31.84 76.7516 32.02C76.9676 32.188 77.2676 32.272 77.6516 32.272C78.0116 32.272 78.3116 32.212 78.5516 32.092C78.8036 31.972 79.0076 31.81 79.1636 31.606C79.3316 31.402 79.4516 31.168 79.5236 30.904C79.5956 30.64 79.6316 30.364 79.6316 30.076V25.36H81.7916V34ZM83.2355 27.196V25.36H85.0175V22.858H87.1775V25.36H89.5535V27.196H87.1775V30.976C87.1775 31.408 87.2555 31.75 87.4115 32.002C87.5795 32.254 87.9035 32.38 88.3835 32.38C88.5755 32.38 88.7855 32.362 89.0135 32.326C89.2415 32.278 89.4215 32.206 89.5535 32.11V33.928C89.3255 34.036 89.0435 34.108 88.7075 34.144C88.3835 34.192 88.0955 34.216 87.8435 34.216C87.2675 34.216 86.7935 34.15 86.4215 34.018C86.0615 33.898 85.7735 33.712 85.5575 33.46C85.3535 33.196 85.2095 32.872 85.1255 32.488C85.0535 32.104 85.0175 31.66 85.0175 31.156V27.196H83.2355ZM90.8076 29.68C90.8076 28.996 90.9276 28.378 91.1676 27.826C91.4196 27.262 91.7556 26.782 92.1756 26.386C92.5956 25.99 93.0936 25.684 93.6696 25.468C94.2456 25.252 94.8576 25.144 95.5056 25.144C96.1536 25.144 96.7656 25.252 97.3416 25.468C97.9176 25.684 98.4156 25.99 98.8356 26.386C99.2556 26.782 99.5856 27.262 99.8256 27.826C100.078 28.378 100.204 28.996 100.204 29.68C100.204 30.364 100.078 30.988 99.8256 31.552C99.5856 32.104 99.2556 32.578 98.8356 32.974C98.4156 33.37 97.9176 33.676 97.3416 33.892C96.7656 34.108 96.1536 34.216 95.5056 34.216C94.8576 34.216 94.2456 34.108 93.6696 33.892C93.0936 33.676 92.5956 33.37 92.1756 32.974C91.7556 32.578 91.4196 32.104 91.1676 31.552C90.9276 30.988 90.8076 30.364 90.8076 29.68ZM92.9676 29.68C92.9676 30.016 93.0216 30.34 93.1296 30.652C93.2496 30.964 93.4176 31.24 93.6336 31.48C93.8616 31.72 94.1316 31.912 94.4436 32.056C94.7556 32.2 95.1096 32.272 95.5056 32.272C95.9016 32.272 96.2556 32.2 96.5676 32.056C96.8796 31.912 97.1436 31.72 97.3596 31.48C97.5876 31.24 97.7556 30.964 97.8636 30.652C97.9836 30.34 98.0436 30.016 98.0436 29.68C98.0436 29.344 97.9836 29.02 97.8636 28.708C97.7556 28.396 97.5876 28.12 97.3596 27.88C97.1436 27.64 96.8796 27.448 96.5676 27.304C96.2556 27.16 95.9016 27.088 95.5056 27.088C95.1096 27.088 94.7556 27.16 94.4436 27.304C94.1316 27.448 93.8616 27.64 93.6336 27.88C93.4176 28.12 93.2496 28.396 93.1296 28.708C93.0216 29.02 92.9676 29.344 92.9676 29.68ZM102.226 25.36H104.386V26.728H104.422C104.662 26.224 105.004 25.834 105.448 25.558C105.892 25.282 106.402 25.144 106.978 25.144C107.11 25.144 107.236 25.156 107.356 25.18C107.488 25.204 107.62 25.234 107.752 25.27V27.358C107.572 27.31 107.392 27.274 107.212 27.25C107.044 27.214 106.876 27.196 106.708 27.196C106.204 27.196 105.796 27.292 105.484 27.484C105.184 27.664 104.95 27.874 104.782 28.114C104.626 28.354 104.518 28.594 104.458 28.834C104.41 29.074 104.386 29.254 104.386 29.374V34H102.226V25.36ZM109.258 25.36H111.418V34H109.258V25.36ZM108.952 22.426C108.952 22.078 109.078 21.778 109.33 21.526C109.594 21.262 109.924 21.13 110.32 21.13C110.716 21.13 111.046 21.256 111.31 21.508C111.586 21.748 111.724 22.054 111.724 22.426C111.724 22.798 111.586 23.11 111.31 23.362C111.046 23.602 110.716 23.722 110.32 23.722C109.924 23.722 109.594 23.596 109.33 23.344C109.078 23.08 108.952 22.774 108.952 22.426ZM115.626 30.436C115.698 31.084 115.95 31.588 116.382 31.948C116.814 32.308 117.336 32.488 117.948 32.488C118.488 32.488 118.938 32.38 119.298 32.164C119.67 31.936 119.994 31.654 120.27 31.318L121.818 32.488C121.314 33.112 120.75 33.556 120.126 33.82C119.502 34.084 118.848 34.216 118.164 34.216C117.516 34.216 116.904 34.108 116.328 33.892C115.752 33.676 115.254 33.37 114.834 32.974C114.414 32.578 114.078 32.104 113.826 31.552C113.586 30.988 113.466 30.364 113.466 29.68C113.466 28.996 113.586 28.378 113.826 27.826C114.078 27.262 114.414 26.782 114.834 26.386C115.254 25.99 115.752 25.684 116.328 25.468C116.904 25.252 117.516 25.144 118.164 25.144C118.764 25.144 119.31 25.252 119.802 25.468C120.306 25.672 120.732 25.972 121.08 26.368C121.44 26.764 121.716 27.256 121.908 27.844C122.112 28.42 122.214 29.086 122.214 29.842V30.436H115.626ZM120.054 28.816C120.042 28.18 119.844 27.682 119.46 27.322C119.076 26.95 118.542 26.764 117.858 26.764C117.21 26.764 116.694 26.95 116.31 27.322C115.938 27.694 115.71 28.192 115.626 28.816H120.054ZM124.27 20.392H126.43V34H124.27V20.392ZM133.518 27.754C133.098 27.166 132.534 26.872 131.826 26.872C131.538 26.872 131.256 26.944 130.98 27.088C130.704 27.232 130.566 27.466 130.566 27.79C130.566 28.054 130.68 28.246 130.908 28.366C131.136 28.486 131.424 28.588 131.772 28.672C132.12 28.756 132.492 28.846 132.888 28.942C133.296 29.026 133.674 29.164 134.022 29.356C134.37 29.536 134.658 29.788 134.886 30.112C135.114 30.436 135.228 30.88 135.228 31.444C135.228 31.96 135.114 32.398 134.886 32.758C134.67 33.106 134.382 33.388 134.022 33.604C133.674 33.82 133.278 33.976 132.834 34.072C132.39 34.168 131.946 34.216 131.502 34.216C130.83 34.216 130.212 34.12 129.648 33.928C129.084 33.736 128.58 33.388 128.136 32.884L129.576 31.534C129.852 31.846 130.146 32.104 130.458 32.308C130.782 32.5 131.172 32.596 131.628 32.596C131.784 32.596 131.946 32.578 132.114 32.542C132.282 32.506 132.438 32.446 132.582 32.362C132.726 32.278 132.84 32.176 132.924 32.056C133.02 31.924 133.068 31.774 133.068 31.606C133.068 31.306 132.954 31.084 132.726 30.94C132.498 30.796 132.21 30.682 131.862 30.598C131.514 30.502 131.136 30.418 130.728 30.346C130.332 30.262 129.96 30.136 129.612 29.968C129.264 29.788 128.976 29.542 128.748 29.23C128.52 28.918 128.406 28.486 128.406 27.934C128.406 27.454 128.502 27.04 128.694 26.692C128.898 26.332 129.162 26.038 129.486 25.81C129.81 25.582 130.182 25.414 130.602 25.306C131.022 25.198 131.448 25.144 131.88 25.144C132.456 25.144 133.026 25.246 133.59 25.45C134.154 25.642 134.61 25.978 134.958 26.458L133.518 27.754Z" fill="#F3F3F8"/>
<path d="M311.5 56L359.5 56L359.5 9.9427e-06L311.5 7.53252e-06L311.5 56Z" fill="url(#paint0_linear_110_31006)"/>
<defs>
<linearGradient id="paint0_linear_110_31006" x1="344.929" y1="28" x2="311.5" y2="28" gradientUnits="userSpaceOnUse">
<stop stop-color="#0C131F"/>
<stop offset="1" stop-color="#0C131F" stop-opacity="0"/>
</linearGradient>
</defs>
</svg>
