<svg width="328" height="96" viewBox="0 0 328 96" fill="none" xmlns="http://www.w3.org/2000/svg">
<path d="M1.422 5.256H6.444C7.284 5.256 8.094 5.388 8.874 5.652C9.654 5.904 10.344 6.294 10.944 6.822C11.544 7.35 12.024 8.016 12.384 8.82C12.744 9.612 12.924 10.548 12.924 11.628C12.924 12.72 12.714 13.668 12.294 14.472C11.886 15.264 11.352 15.924 10.692 16.452C10.044 16.968 9.318 17.358 8.514 17.622C7.722 17.874 6.942 18 6.174 18H1.422V5.256ZM5.382 15.948C6.09 15.948 6.756 15.87 7.38 15.714C8.016 15.546 8.568 15.294 9.036 14.958C9.504 14.61 9.87 14.166 10.134 13.626C10.41 13.074 10.548 12.408 10.548 11.628C10.548 10.86 10.428 10.2 10.188 9.648C9.948 9.096 9.612 8.652 9.18 8.316C8.76 7.968 8.256 7.716 7.668 7.56C7.092 7.392 6.456 7.308 5.76 7.308H3.69V15.948H5.382ZM16.6102 14.436C16.6822 15.084 16.9342 15.588 17.3662 15.948C17.7982 16.308 18.3202 16.488 18.9322 16.488C19.4722 16.488 19.9222 16.38 20.2822 16.164C20.6542 15.936 20.9782 15.654 21.2542 15.318L22.8022 16.488C22.2982 17.112 21.7342 17.556 21.1102 17.82C20.4862 18.084 19.8322 18.216 19.1482 18.216C18.5002 18.216 17.8882 18.108 17.3122 17.892C16.7362 17.676 16.2382 17.37 15.8182 16.974C15.3982 16.578 15.0622 16.104 14.8102 15.552C14.5702 14.988 14.4502 14.364 14.4502 13.68C14.4502 12.996 14.5702 12.378 14.8102 11.826C15.0622 11.262 15.3982 10.782 15.8182 10.386C16.2382 9.99 16.7362 9.684 17.3122 9.468C17.8882 9.252 18.5002 9.144 19.1482 9.144C19.7482 9.144 20.2942 9.252 20.7862 9.468C21.2902 9.672 21.7162 9.972 22.0642 10.368C22.4242 10.764 22.7002 11.256 22.8922 11.844C23.0962 12.42 23.1982 13.086 23.1982 13.842V14.436H16.6102ZM21.0382 12.816C21.0262 12.18 20.8282 11.682 20.4442 11.322C20.0602 10.95 19.5262 10.764 18.8422 10.764C18.1942 10.764 17.6782 10.95 17.2942 11.322C16.9222 11.694 16.6942 12.192 16.6102 12.816H21.0382ZM19.7602 5.256H22.2082L19.6702 7.848H17.9782L19.7602 5.256ZM27.4141 9.36V18.522C27.4141 19.062 27.3781 19.56 27.3061 20.016C27.2341 20.484 27.0901 20.886 26.8741 21.222C26.6701 21.57 26.3761 21.84 25.9921 22.032C25.6081 22.224 25.1101 22.32 24.4981 22.32C24.2941 22.32 24.0961 22.308 23.9041 22.284C23.7121 22.26 23.5201 22.218 23.3281 22.158L23.4901 20.286C23.6101 20.31 23.7241 20.328 23.8321 20.34C23.9401 20.364 24.0541 20.376 24.1741 20.376C24.4381 20.376 24.6421 20.316 24.7861 20.196C24.9421 20.088 25.0501 19.944 25.1101 19.764C25.1821 19.584 25.2241 19.386 25.2361 19.17C25.2481 18.954 25.2541 18.744 25.2541 18.54V9.36H27.4141ZM24.9481 6.426C24.9481 6.078 25.0741 5.778 25.3261 5.526C25.5901 5.262 25.9201 5.13 26.3161 5.13C26.7121 5.13 27.0421 5.256 27.3061 5.508C27.5821 5.748 27.7201 6.054 27.7201 6.426C27.7201 6.798 27.5821 7.11 27.3061 7.362C27.0421 7.602 26.7121 7.722 26.3161 7.722C25.9201 7.722 25.5901 7.596 25.3261 7.344C25.0741 7.08 24.9481 6.774 24.9481 6.426ZM35.2939 16.812H35.2399C34.9279 17.304 34.5319 17.664 34.0519 17.892C33.5719 18.108 33.0439 18.216 32.4679 18.216C32.0719 18.216 31.6819 18.162 31.2979 18.054C30.9259 17.946 30.5899 17.784 30.2899 17.568C30.0019 17.352 29.7679 17.082 29.5879 16.758C29.4079 16.434 29.3179 16.056 29.3179 15.624C29.3179 15.156 29.4019 14.76 29.5699 14.436C29.7379 14.1 29.9599 13.824 30.2359 13.608C30.5239 13.38 30.8539 13.2 31.2259 13.068C31.5979 12.936 31.9819 12.84 32.3779 12.78C32.7859 12.708 33.1939 12.666 33.6019 12.654C34.0099 12.63 34.3939 12.618 34.7539 12.618H35.2939V12.384C35.2939 11.844 35.1079 11.442 34.7359 11.178C34.3639 10.902 33.8899 10.764 33.3139 10.764C32.8579 10.764 32.4319 10.848 32.0359 11.016C31.6399 11.172 31.2979 11.388 31.0099 11.664L29.8759 10.53C30.3559 10.038 30.9139 9.684 31.5499 9.468C32.1979 9.252 32.8639 9.144 33.5479 9.144C34.1599 9.144 34.6759 9.216 35.0959 9.36C35.5159 9.492 35.8639 9.666 36.1399 9.882C36.4159 10.098 36.6259 10.35 36.7699 10.638C36.9259 10.914 37.0339 11.196 37.0939 11.484C37.1659 11.772 37.2079 12.054 37.2199 12.33C37.2319 12.594 37.2379 12.828 37.2379 13.032V18H35.2939V16.812ZM35.1679 14.13H34.7179C34.4179 14.13 34.0819 14.142 33.7099 14.166C33.3379 14.19 32.9839 14.25 32.6479 14.346C32.3239 14.43 32.0479 14.562 31.8199 14.742C31.5919 14.91 31.4779 15.15 31.4779 15.462C31.4779 15.666 31.5199 15.84 31.6039 15.984C31.6999 16.116 31.8199 16.23 31.9639 16.326C32.1079 16.422 32.2699 16.494 32.4499 16.542C32.6299 16.578 32.8099 16.596 32.9899 16.596C33.7339 16.596 34.2799 16.422 34.6279 16.074C34.9879 15.714 35.1679 15.228 35.1679 14.616V14.13ZM34.3579 7.848H32.6659L30.1279 5.256H32.5759L34.3579 7.848ZM43.7181 9.36H46.0761L48.3801 15.408H48.4161L50.7381 9.36H52.9521L49.5501 18H47.2461L43.7181 9.36ZM54.258 9.36H56.418V18H54.258V9.36ZM53.952 6.426C53.952 6.078 54.078 5.778 54.33 5.526C54.594 5.262 54.924 5.13 55.32 5.13C55.716 5.13 56.046 5.256 56.31 5.508C56.586 5.748 56.724 6.054 56.724 6.426C56.724 6.798 56.586 7.11 56.31 7.362C56.046 7.602 55.716 7.722 55.32 7.722C54.924 7.722 54.594 7.596 54.33 7.344C54.078 7.08 53.952 6.774 53.952 6.426ZM63.5058 11.754C63.0858 11.166 62.5218 10.872 61.8138 10.872C61.5258 10.872 61.2438 10.944 60.9678 11.088C60.6918 11.232 60.5538 11.466 60.5538 11.79C60.5538 12.054 60.6678 12.246 60.8958 12.366C61.1238 12.486 61.4118 12.588 61.7598 12.672C62.1078 12.756 62.4798 12.846 62.8758 12.942C63.2838 13.026 63.6618 13.164 64.0098 13.356C64.3578 13.536 64.6458 13.788 64.8738 14.112C65.1018 14.436 65.2158 14.88 65.2158 15.444C65.2158 15.96 65.1018 16.398 64.8738 16.758C64.6578 17.106 64.3698 17.388 64.0098 17.604C63.6618 17.82 63.2658 17.976 62.8218 18.072C62.3778 18.168 61.9338 18.216 61.4898 18.216C60.8178 18.216 60.1998 18.12 59.6358 17.928C59.0718 17.736 58.5678 17.388 58.1238 16.884L59.5638 15.534C59.8398 15.846 60.1338 16.104 60.4458 16.308C60.7698 16.5 61.1598 16.596 61.6158 16.596C61.7718 16.596 61.9338 16.578 62.1018 16.542C62.2698 16.506 62.4258 16.446 62.5698 16.362C62.7138 16.278 62.8278 16.176 62.9118 16.056C63.0078 15.924 63.0558 15.774 63.0558 15.606C63.0558 15.306 62.9418 15.084 62.7138 14.94C62.4858 14.796 62.1978 14.682 61.8498 14.598C61.5018 14.502 61.1238 14.418 60.7158 14.346C60.3198 14.262 59.9478 14.136 59.5998 13.968C59.2518 13.788 58.9638 13.542 58.7358 13.23C58.5078 12.918 58.3938 12.486 58.3938 11.934C58.3938 11.454 58.4898 11.04 58.6818 10.692C58.8858 10.332 59.1498 10.038 59.4738 9.81C59.7978 9.582 60.1698 9.414 60.5898 9.306C61.0098 9.198 61.4358 9.144 61.8678 9.144C62.4438 9.144 63.0138 9.246 63.5778 9.45C64.1418 9.642 64.5978 9.978 64.9458 10.458L63.5058 11.754ZM66.9319 9.36H69.0919V18H66.9319V9.36ZM66.6259 6.426C66.6259 6.078 66.7519 5.778 67.0039 5.526C67.2679 5.262 67.5979 5.13 67.9939 5.13C68.3899 5.13 68.7199 5.256 68.9839 5.508C69.2599 5.748 69.3979 6.054 69.3979 6.426C69.3979 6.798 69.2599 7.11 68.9839 7.362C68.7199 7.602 68.3899 7.722 67.9939 7.722C67.5979 7.722 67.2679 7.596 67.0039 7.344C66.7519 7.08 66.6259 6.774 66.6259 6.426ZM71.1397 13.68C71.1397 12.996 71.2597 12.378 71.4997 11.826C71.7517 11.262 72.0877 10.782 72.5077 10.386C72.9277 9.99 73.4257 9.684 74.0017 9.468C74.5777 9.252 75.1897 9.144 75.8377 9.144C76.4857 9.144 77.0977 9.252 77.6737 9.468C78.2497 9.684 78.7477 9.99 79.1677 10.386C79.5877 10.782 79.9177 11.262 80.1577 11.826C80.4097 12.378 80.5357 12.996 80.5357 13.68C80.5357 14.364 80.4097 14.988 80.1577 15.552C79.9177 16.104 79.5877 16.578 79.1677 16.974C78.7477 17.37 78.2497 17.676 77.6737 17.892C77.0977 18.108 76.4857 18.216 75.8377 18.216C75.1897 18.216 74.5777 18.108 74.0017 17.892C73.4257 17.676 72.9277 17.37 72.5077 16.974C72.0877 16.578 71.7517 16.104 71.4997 15.552C71.2597 14.988 71.1397 14.364 71.1397 13.68ZM73.2997 13.68C73.2997 14.016 73.3537 14.34 73.4617 14.652C73.5817 14.964 73.7497 15.24 73.9657 15.48C74.1937 15.72 74.4637 15.912 74.7757 16.056C75.0877 16.2 75.4417 16.272 75.8377 16.272C76.2337 16.272 76.5877 16.2 76.8997 16.056C77.2117 15.912 77.4757 15.72 77.6917 15.48C77.9197 15.24 78.0877 14.964 78.1957 14.652C78.3157 14.34 78.3757 14.016 78.3757 13.68C78.3757 13.344 78.3157 13.02 78.1957 12.708C78.0877 12.396 77.9197 12.12 77.6917 11.88C77.4757 11.64 77.2117 11.448 76.8997 11.304C76.5877 11.16 76.2337 11.088 75.8377 11.088C75.4417 11.088 75.0877 11.16 74.7757 11.304C74.4637 11.448 74.1937 11.64 73.9657 11.88C73.7497 12.12 73.5817 12.396 73.4617 12.708C73.3537 13.02 73.2997 13.344 73.2997 13.68ZM82.558 9.36H84.61V10.746H84.646C84.85 10.314 85.162 9.942 85.582 9.63C86.002 9.306 86.572 9.144 87.292 9.144C87.868 9.144 88.354 9.24 88.75 9.432C89.158 9.624 89.488 9.876 89.74 10.188C89.992 10.5 90.172 10.86 90.28 11.268C90.388 11.676 90.442 12.102 90.442 12.546V18H88.282V13.626C88.282 13.386 88.27 13.122 88.246 12.834C88.222 12.534 88.156 12.258 88.048 12.006C87.952 11.742 87.796 11.526 87.58 11.358C87.364 11.178 87.07 11.088 86.698 11.088C86.338 11.088 86.032 11.148 85.78 11.268C85.54 11.388 85.336 11.55 85.168 11.754C85.012 11.958 84.898 12.192 84.826 12.456C84.754 12.72 84.718 12.996 84.718 13.284V18H82.558V9.36ZM92.8939 9.36H94.9459V10.746H94.9819C95.1859 10.314 95.4979 9.942 95.9179 9.63C96.3379 9.306 96.9079 9.144 97.6279 9.144C98.2039 9.144 98.6899 9.24 99.0859 9.432C99.4939 9.624 99.8239 9.876 100.076 10.188C100.328 10.5 100.508 10.86 100.616 11.268C100.724 11.676 100.778 12.102 100.778 12.546V18H98.6179V13.626C98.6179 13.386 98.6059 13.122 98.5819 12.834C98.5579 12.534 98.4919 12.258 98.3839 12.006C98.2879 11.742 98.1319 11.526 97.9159 11.358C97.6999 11.178 97.4059 11.088 97.0339 11.088C96.6739 11.088 96.3679 11.148 96.1159 11.268C95.8759 11.388 95.6719 11.55 95.5039 11.754C95.3479 11.958 95.2339 12.192 95.1619 12.456C95.0899 12.72 95.0539 12.996 95.0539 13.284V18H92.8939V9.36ZM104.958 14.436C105.03 15.084 105.282 15.588 105.714 15.948C106.146 16.308 106.668 16.488 107.28 16.488C107.82 16.488 108.27 16.38 108.63 16.164C109.002 15.936 109.326 15.654 109.602 15.318L111.15 16.488C110.646 17.112 110.082 17.556 109.458 17.82C108.834 18.084 108.18 18.216 107.496 18.216C106.848 18.216 106.236 18.108 105.66 17.892C105.084 17.676 104.586 17.37 104.166 16.974C103.746 16.578 103.41 16.104 103.158 15.552C102.918 14.988 102.798 14.364 102.798 13.68C102.798 12.996 102.918 12.378 103.158 11.826C103.41 11.262 103.746 10.782 104.166 10.386C104.586 9.99 105.084 9.684 105.66 9.468C106.236 9.252 106.848 9.144 107.496 9.144C108.096 9.144 108.642 9.252 109.134 9.468C109.638 9.672 110.064 9.972 110.412 10.368C110.772 10.764 111.048 11.256 111.24 11.844C111.444 12.42 111.546 13.086 111.546 13.842V14.436H104.958ZM109.386 12.816C109.374 12.18 109.176 11.682 108.792 11.322C108.408 10.95 107.874 10.764 107.19 10.764C106.542 10.764 106.026 10.95 105.642 11.322C105.27 11.694 105.042 12.192 104.958 12.816H109.386ZM108.108 5.256H110.556L108.018 7.848H106.326L108.108 5.256ZM118.174 11.754C117.754 11.166 117.19 10.872 116.482 10.872C116.194 10.872 115.912 10.944 115.636 11.088C115.36 11.232 115.222 11.466 115.222 11.79C115.222 12.054 115.336 12.246 115.564 12.366C115.792 12.486 116.08 12.588 116.428 12.672C116.776 12.756 117.148 12.846 117.544 12.942C117.952 13.026 118.33 13.164 118.678 13.356C119.026 13.536 119.314 13.788 119.542 14.112C119.77 14.436 119.884 14.88 119.884 15.444C119.884 15.96 119.77 16.398 119.542 16.758C119.326 17.106 119.038 17.388 118.678 17.604C118.33 17.82 117.934 17.976 117.49 18.072C117.046 18.168 116.602 18.216 116.158 18.216C115.486 18.216 114.868 18.12 114.304 17.928C113.74 17.736 113.236 17.388 112.792 16.884L114.232 15.534C114.508 15.846 114.802 16.104 115.114 16.308C115.438 16.5 115.828 16.596 116.284 16.596C116.44 16.596 116.602 16.578 116.77 16.542C116.938 16.506 117.094 16.446 117.238 16.362C117.382 16.278 117.496 16.176 117.58 16.056C117.676 15.924 117.724 15.774 117.724 15.606C117.724 15.306 117.61 15.084 117.382 14.94C117.154 14.796 116.866 14.682 116.518 14.598C116.17 14.502 115.792 14.418 115.384 14.346C114.988 14.262 114.616 14.136 114.268 13.968C113.92 13.788 113.632 13.542 113.404 13.23C113.176 12.918 113.062 12.486 113.062 11.934C113.062 11.454 113.158 11.04 113.35 10.692C113.554 10.332 113.818 10.038 114.142 9.81C114.466 9.582 114.838 9.414 115.258 9.306C115.678 9.198 116.104 9.144 116.536 9.144C117.112 9.144 117.682 9.246 118.246 9.45C118.81 9.642 119.266 9.978 119.614 10.458L118.174 11.754Z" fill="#F3F3F8"/>
<rect y="40" width="328" height="56" rx="14" fill="#242B35"/>
<path d="M20.928 61.672H22.672L27.552 73H25.248L24.192 70.408H19.28L18.256 73H16L20.928 61.672ZM23.488 68.68L21.744 64.072L19.968 68.68H23.488ZM30.5869 65.32V73.464C30.5869 73.944 30.5549 74.3867 30.4909 74.792C30.4269 75.208 30.2989 75.5653 30.1069 75.864C29.9255 76.1733 29.6642 76.4133 29.3229 76.584C28.9815 76.7547 28.5389 76.84 27.9949 76.84C27.8135 76.84 27.6375 76.8293 27.4669 76.808C27.2962 76.7867 27.1255 76.7493 26.9549 76.696L27.0989 75.032C27.2055 75.0533 27.3069 75.0693 27.4029 75.08C27.4989 75.1013 27.6002 75.112 27.7069 75.112C27.9415 75.112 28.1229 75.0587 28.2509 74.952C28.3895 74.856 28.4855 74.728 28.5389 74.568C28.6029 74.408 28.6402 74.232 28.6509 74.04C28.6615 73.848 28.6669 73.6613 28.6669 73.48V65.32H30.5869ZM28.3949 62.712C28.3949 62.4027 28.5069 62.136 28.7309 61.912C28.9655 61.6773 29.2589 61.56 29.6109 61.56C29.9629 61.56 30.2562 61.672 30.4909 61.896C30.7362 62.1093 30.8589 62.3813 30.8589 62.712C30.8589 63.0427 30.7362 63.32 30.4909 63.544C30.2562 63.7573 29.9629 63.864 29.6109 63.864C29.2589 63.864 28.9655 63.752 28.7309 63.528C28.5069 63.2933 28.3949 63.0213 28.3949 62.712ZM32.4071 69.16C32.4071 68.552 32.5138 68.0027 32.7271 67.512C32.9511 67.0107 33.2498 66.584 33.6231 66.232C33.9965 65.88 34.4391 65.608 34.9511 65.416C35.4631 65.224 36.0071 65.128 36.5831 65.128C37.1591 65.128 37.7031 65.224 38.2151 65.416C38.7271 65.608 39.1698 65.88 39.5431 66.232C39.9165 66.584 40.2098 67.0107 40.4231 67.512C40.6471 68.0027 40.7591 68.552 40.7591 69.16C40.7591 69.768 40.6471 70.3227 40.4231 70.824C40.2098 71.3147 39.9165 71.736 39.5431 72.088C39.1698 72.44 38.7271 72.712 38.2151 72.904C37.7031 73.096 37.1591 73.192 36.5831 73.192C36.0071 73.192 35.4631 73.096 34.9511 72.904C34.4391 72.712 33.9965 72.44 33.6231 72.088C33.2498 71.736 32.9511 71.3147 32.7271 70.824C32.5138 70.3227 32.4071 69.768 32.4071 69.16ZM34.3271 69.16C34.3271 69.4587 34.3751 69.7467 34.4711 70.024C34.5778 70.3013 34.7271 70.5467 34.9191 70.76C35.1218 70.9733 35.3618 71.144 35.6391 71.272C35.9165 71.4 36.2311 71.464 36.5831 71.464C36.9351 71.464 37.2498 71.4 37.5271 71.272C37.8045 71.144 38.0391 70.9733 38.2311 70.76C38.4338 70.5467 38.5831 70.3013 38.6791 70.024C38.7858 69.7467 38.8391 69.4587 38.8391 69.16C38.8391 68.8613 38.7858 68.5733 38.6791 68.296C38.5831 68.0187 38.4338 67.7733 38.2311 67.56C38.0391 67.3467 37.8045 67.176 37.5271 67.048C37.2498 66.92 36.9351 66.856 36.5831 66.856C36.2311 66.856 35.9165 66.92 35.6391 67.048C35.3618 67.176 35.1218 67.3467 34.9191 67.56C34.7271 67.7733 34.5778 68.0187 34.4711 68.296C34.3751 68.5733 34.3271 68.8613 34.3271 69.16ZM49.5648 73H47.7408V71.768H47.7088C47.5274 72.152 47.2501 72.488 46.8768 72.776C46.5034 73.0533 45.9968 73.192 45.3568 73.192C44.8448 73.192 44.4074 73.112 44.0448 72.952C43.6928 72.7813 43.4048 72.5573 43.1808 72.28C42.9568 71.992 42.7968 71.6667 42.7008 71.304C42.6048 70.9413 42.5568 70.5627 42.5568 70.168V65.32H44.4768V69.208C44.4768 69.4213 44.4874 69.6613 44.5088 69.928C44.5301 70.184 44.5834 70.4293 44.6688 70.664C44.7648 70.888 44.9034 71.08 45.0848 71.24C45.2768 71.3893 45.5434 71.464 45.8848 71.464C46.2048 71.464 46.4714 71.4107 46.6848 71.304C46.9088 71.1973 47.0901 71.0533 47.2288 70.872C47.3781 70.6907 47.4848 70.4827 47.5488 70.248C47.6128 70.0133 47.6448 69.768 47.6448 69.512V65.32H49.5648V73ZM50.8483 66.952V65.32H52.4323V63.096H54.3523V65.32H56.4643V66.952H54.3523V70.312C54.3523 70.696 54.4216 71 54.5603 71.224C54.7096 71.448 54.9976 71.56 55.4243 71.56C55.5949 71.56 55.7816 71.544 55.9843 71.512C56.1869 71.4693 56.3469 71.4053 56.4643 71.32V72.936C56.2616 73.032 56.0109 73.096 55.7123 73.128C55.4243 73.1707 55.1683 73.192 54.9443 73.192C54.4323 73.192 54.0109 73.1333 53.6803 73.016C53.3603 72.9093 53.1043 72.744 52.9123 72.52C52.7309 72.2853 52.6029 71.9973 52.5283 71.656C52.4643 71.3147 52.4323 70.92 52.4323 70.472V66.952H50.8483ZM59.499 69.832C59.563 70.408 59.787 70.856 60.171 71.176C60.555 71.496 61.019 71.656 61.563 71.656C62.043 71.656 62.443 71.56 62.763 71.368C63.0937 71.1653 63.3817 70.9147 63.627 70.616L65.003 71.656C64.555 72.2107 64.0537 72.6053 63.499 72.84C62.9443 73.0747 62.363 73.192 61.755 73.192C61.179 73.192 60.635 73.096 60.123 72.904C59.611 72.712 59.1683 72.44 58.795 72.088C58.4217 71.736 58.123 71.3147 57.899 70.824C57.6857 70.3227 57.579 69.768 57.579 69.16C57.579 68.552 57.6857 68.0027 57.899 67.512C58.123 67.0107 58.4217 66.584 58.795 66.232C59.1683 65.88 59.611 65.608 60.123 65.416C60.635 65.224 61.179 65.128 61.755 65.128C62.2883 65.128 62.7737 65.224 63.211 65.416C63.659 65.5973 64.0377 65.864 64.347 66.216C64.667 66.568 64.9123 67.0053 65.083 67.528C65.2643 68.04 65.355 68.632 65.355 69.304V69.832H59.499ZM63.435 68.392C63.4243 67.8267 63.2483 67.384 62.907 67.064C62.5657 66.7333 62.091 66.568 61.483 66.568C60.907 66.568 60.4483 66.7333 60.107 67.064C59.7763 67.3947 59.5737 67.8373 59.499 68.392H63.435ZM67.1505 65.32H69.0705V66.536H69.1025C69.3158 66.088 69.6198 65.7413 70.0145 65.496C70.4092 65.2507 70.8625 65.128 71.3745 65.128C71.4918 65.128 71.6038 65.1387 71.7105 65.16C71.8278 65.1813 71.9452 65.208 72.0625 65.24V67.096C71.9025 67.0533 71.7425 67.0213 71.5825 67C71.4332 66.968 71.2838 66.952 71.1345 66.952C70.6865 66.952 70.3238 67.0373 70.0465 67.208C69.7798 67.368 69.5718 67.5547 69.4225 67.768C69.2838 67.9813 69.1878 68.1947 69.1345 68.408C69.0918 68.6213 69.0705 68.7813 69.0705 68.888V73H67.1505V65.32ZM85.1116 73H83.2876V71.768H83.2556C83.0743 72.152 82.797 72.488 82.4236 72.776C82.0503 73.0533 81.5436 73.192 80.9036 73.192C80.3916 73.192 79.9543 73.112 79.5916 72.952C79.2396 72.7813 78.9516 72.5573 78.7276 72.28C78.5036 71.992 78.3436 71.6667 78.2476 71.304C78.1516 70.9413 78.1036 70.5627 78.1036 70.168V65.32H80.0236V69.208C80.0236 69.4213 80.0343 69.6613 80.0556 69.928C80.077 70.184 80.1303 70.4293 80.2156 70.664C80.3116 70.888 80.4503 71.08 80.6316 71.24C80.8236 71.3893 81.0903 71.464 81.4316 71.464C81.7516 71.464 82.0183 71.4107 82.2316 71.304C82.4556 71.1973 82.637 71.0533 82.7756 70.872C82.925 70.6907 83.0316 70.4827 83.0956 70.248C83.1596 70.0133 83.1916 69.768 83.1916 69.512V65.32H85.1116V73ZM87.2911 65.32H89.1151V66.552H89.1471C89.3285 66.168 89.6058 65.8373 89.9791 65.56C90.3525 65.272 90.8591 65.128 91.4991 65.128C92.0111 65.128 92.4431 65.2133 92.7951 65.384C93.1578 65.5547 93.4511 65.7787 93.6751 66.056C93.8991 66.3333 94.0591 66.6533 94.1551 67.016C94.2511 67.3787 94.2991 67.7573 94.2991 68.152V73H92.3791V69.112C92.3791 68.8987 92.3685 68.664 92.3471 68.408C92.3258 68.1413 92.2671 67.896 92.1711 67.672C92.0858 67.4373 91.9471 67.2453 91.7551 67.096C91.5631 66.936 91.3018 66.856 90.9711 66.856C90.6511 66.856 90.3791 66.9093 90.1551 67.016C89.9418 67.1227 89.7605 67.2667 89.6111 67.448C89.4725 67.6293 89.3711 67.8373 89.3071 68.072C89.2431 68.3067 89.2111 68.552 89.2111 68.808V73H87.2911V65.32ZM106.461 67.624C106.237 67.3893 106.002 67.2027 105.757 67.064C105.512 66.9253 105.261 66.856 105.005 66.856C104.653 66.856 104.338 66.92 104.061 67.048C103.784 67.176 103.544 67.3467 103.341 67.56C103.149 67.7733 103 68.0187 102.893 68.296C102.797 68.5733 102.749 68.8613 102.749 69.16C102.749 69.4587 102.797 69.7467 102.893 70.024C103 70.3013 103.149 70.5467 103.341 70.76C103.544 70.9733 103.784 71.144 104.061 71.272C104.338 71.4 104.653 71.464 105.005 71.464C105.304 71.464 105.581 71.4053 105.837 71.288C106.093 71.16 106.312 70.9787 106.493 70.744L107.773 72.12C107.581 72.312 107.357 72.4773 107.101 72.616C106.856 72.7547 106.605 72.8667 106.349 72.952C106.093 73.0373 105.848 73.096 105.613 73.128C105.378 73.1707 105.176 73.192 105.005 73.192C104.429 73.192 103.885 73.096 103.373 72.904C102.861 72.712 102.418 72.44 102.045 72.088C101.672 71.736 101.373 71.3147 101.149 70.824C100.936 70.3227 100.829 69.768 100.829 69.16C100.829 68.552 100.936 68.0027 101.149 67.512C101.373 67.0107 101.672 66.584 102.045 66.232C102.418 65.88 102.861 65.608 103.373 65.416C103.885 65.224 104.429 65.128 105.005 65.128C105.496 65.128 105.986 65.224 106.477 65.416C106.978 65.5973 107.416 65.8907 107.789 66.296L106.461 67.624ZM108.548 69.16C108.548 68.552 108.654 68.0027 108.868 67.512C109.092 67.0107 109.39 66.584 109.764 66.232C110.137 65.88 110.58 65.608 111.092 65.416C111.604 65.224 112.148 65.128 112.724 65.128C113.3 65.128 113.844 65.224 114.356 65.416C114.868 65.608 115.31 65.88 115.684 66.232C116.057 66.584 116.35 67.0107 116.564 67.512C116.788 68.0027 116.9 68.552 116.9 69.16C116.9 69.768 116.788 70.3227 116.564 70.824C116.35 71.3147 116.057 71.736 115.684 72.088C115.31 72.44 114.868 72.712 114.356 72.904C113.844 73.096 113.3 73.192 112.724 73.192C112.148 73.192 111.604 73.096 111.092 72.904C110.58 72.712 110.137 72.44 109.764 72.088C109.39 71.736 109.092 71.3147 108.868 70.824C108.654 70.3227 108.548 69.768 108.548 69.16ZM110.468 69.16C110.468 69.4587 110.516 69.7467 110.612 70.024C110.718 70.3013 110.868 70.5467 111.06 70.76C111.262 70.9733 111.502 71.144 111.78 71.272C112.057 71.4 112.372 71.464 112.724 71.464C113.076 71.464 113.39 71.4 113.668 71.272C113.945 71.144 114.18 70.9733 114.372 70.76C114.574 70.5467 114.724 70.3013 114.82 70.024C114.926 69.7467 114.98 69.4587 114.98 69.16C114.98 68.8613 114.926 68.5733 114.82 68.296C114.724 68.0187 114.574 67.7733 114.372 67.56C114.18 67.3467 113.945 67.176 113.668 67.048C113.39 66.92 113.076 66.856 112.724 66.856C112.372 66.856 112.057 66.92 111.78 67.048C111.502 67.176 111.262 67.3467 111.06 67.56C110.868 67.7733 110.718 68.0187 110.612 68.296C110.516 68.5733 110.468 68.8613 110.468 69.16ZM124.777 71.848H124.745C124.468 72.3173 124.095 72.6587 123.625 72.872C123.156 73.0853 122.649 73.192 122.105 73.192C121.508 73.192 120.975 73.0907 120.505 72.888C120.047 72.6747 119.652 72.3867 119.321 72.024C118.991 71.6613 118.74 71.2347 118.569 70.744C118.399 70.2533 118.313 69.7253 118.313 69.16C118.313 68.5947 118.404 68.0667 118.585 67.576C118.767 67.0853 119.017 66.6587 119.337 66.296C119.668 65.9333 120.063 65.6507 120.521 65.448C120.98 65.2347 121.481 65.128 122.025 65.128C122.388 65.128 122.708 65.1653 122.985 65.24C123.263 65.3147 123.508 65.4107 123.721 65.528C123.935 65.6453 124.116 65.7733 124.265 65.912C124.415 66.04 124.537 66.168 124.633 66.296H124.681V60.904H126.601V73H124.777V71.848ZM120.233 69.16C120.233 69.4587 120.281 69.7467 120.377 70.024C120.484 70.3013 120.633 70.5467 120.825 70.76C121.028 70.9733 121.268 71.144 121.545 71.272C121.823 71.4 122.137 71.464 122.489 71.464C122.841 71.464 123.156 71.4 123.433 71.272C123.711 71.144 123.945 70.9733 124.137 70.76C124.34 70.5467 124.489 70.3013 124.585 70.024C124.692 69.7467 124.745 69.4587 124.745 69.16C124.745 68.8613 124.692 68.5733 124.585 68.296C124.489 68.0187 124.34 67.7733 124.137 67.56C123.945 67.3467 123.711 67.176 123.433 67.048C123.156 66.92 122.841 66.856 122.489 66.856C122.137 66.856 121.823 66.92 121.545 67.048C121.268 67.176 121.028 67.3467 120.825 67.56C120.633 67.7733 120.484 68.0187 120.377 68.296C120.281 68.5733 120.233 68.8613 120.233 69.16ZM130.312 69.832C130.376 70.408 130.6 70.856 130.984 71.176C131.368 71.496 131.832 71.656 132.376 71.656C132.856 71.656 133.256 71.56 133.576 71.368C133.906 71.1653 134.194 70.9147 134.44 70.616L135.816 71.656C135.368 72.2107 134.866 72.6053 134.312 72.84C133.757 73.0747 133.176 73.192 132.568 73.192C131.992 73.192 131.448 73.096 130.936 72.904C130.424 72.712 129.981 72.44 129.608 72.088C129.234 71.736 128.936 71.3147 128.712 70.824C128.498 70.3227 128.392 69.768 128.392 69.16C128.392 68.552 128.498 68.0027 128.712 67.512C128.936 67.0107 129.234 66.584 129.608 66.232C129.981 65.88 130.424 65.608 130.936 65.416C131.448 65.224 131.992 65.128 132.568 65.128C133.101 65.128 133.586 65.224 134.024 65.416C134.472 65.5973 134.85 65.864 135.16 66.216C135.48 66.568 135.725 67.0053 135.896 67.528C136.077 68.04 136.168 68.632 136.168 69.304V69.832H130.312ZM134.248 68.392C134.237 67.8267 134.061 67.384 133.72 67.064C133.378 66.7333 132.904 66.568 132.296 66.568C131.72 66.568 131.261 66.7333 130.92 67.064C130.589 67.3947 130.386 67.8373 130.312 68.392H134.248ZM144.233 69.832C144.297 70.408 144.521 70.856 144.905 71.176C145.289 71.496 145.753 71.656 146.297 71.656C146.777 71.656 147.177 71.56 147.497 71.368C147.828 71.1653 148.116 70.9147 148.361 70.616L149.737 71.656C149.289 72.2107 148.788 72.6053 148.233 72.84C147.679 73.0747 147.097 73.192 146.489 73.192C145.913 73.192 145.369 73.096 144.857 72.904C144.345 72.712 143.903 72.44 143.529 72.088C143.156 71.736 142.857 71.3147 142.633 70.824C142.42 70.3227 142.313 69.768 142.313 69.16C142.313 68.552 142.42 68.0027 142.633 67.512C142.857 67.0107 143.156 66.584 143.529 66.232C143.903 65.88 144.345 65.608 144.857 65.416C145.369 65.224 145.913 65.128 146.489 65.128C147.023 65.128 147.508 65.224 147.945 65.416C148.393 65.5973 148.772 65.864 149.081 66.216C149.401 66.568 149.647 67.0053 149.817 67.528C149.999 68.04 150.089 68.632 150.089 69.304V69.832H144.233ZM148.169 68.392C148.159 67.8267 147.983 67.384 147.641 67.064C147.3 66.7333 146.825 66.568 146.217 66.568C145.641 66.568 145.183 66.7333 144.841 67.064C144.511 67.3947 144.308 67.8373 144.233 68.392H148.169ZM151.885 65.32H153.709V66.552H153.741C153.922 66.168 154.2 65.8373 154.573 65.56C154.946 65.272 155.453 65.128 156.093 65.128C156.605 65.128 157.037 65.2133 157.389 65.384C157.752 65.5547 158.045 65.7787 158.269 66.056C158.493 66.3333 158.653 66.6533 158.749 67.016C158.845 67.3787 158.893 67.7573 158.893 68.152V73H156.973V69.112C156.973 68.8987 156.962 68.664 156.941 68.408C156.92 68.1413 156.861 67.896 156.765 67.672C156.68 67.4373 156.541 67.2453 156.349 67.096C156.157 66.936 155.896 66.856 155.565 66.856C155.245 66.856 154.973 66.9093 154.749 67.016C154.536 67.1227 154.354 67.2667 154.205 67.448C154.066 67.6293 153.965 67.8373 153.901 68.072C153.837 68.3067 153.805 68.552 153.805 68.808V73H151.885V65.32ZM160.176 66.952V65.32H161.76V63.096H163.68V65.32H165.792V66.952H163.68V70.312C163.68 70.696 163.75 71 163.888 71.224C164.038 71.448 164.326 71.56 164.752 71.56C164.923 71.56 165.11 71.544 165.312 71.512C165.515 71.4693 165.675 71.4053 165.792 71.32V72.936C165.59 73.032 165.339 73.096 165.04 73.128C164.752 73.1707 164.496 73.192 164.272 73.192C163.76 73.192 163.339 73.1333 163.008 73.016C162.688 72.9093 162.432 72.744 162.24 72.52C162.059 72.2853 161.931 71.9973 161.856 71.656C161.792 71.3147 161.76 70.92 161.76 70.472V66.952H160.176ZM167.291 65.32H169.211V66.536H169.243C169.456 66.088 169.76 65.7413 170.155 65.496C170.55 65.2507 171.003 65.128 171.515 65.128C171.632 65.128 171.744 65.1387 171.851 65.16C171.968 65.1813 172.086 65.208 172.203 65.24V67.096C172.043 67.0533 171.883 67.0213 171.723 67C171.574 66.968 171.424 66.952 171.275 66.952C170.827 66.952 170.464 67.0373 170.187 67.208C169.92 67.368 169.712 67.5547 169.563 67.768C169.424 67.9813 169.328 68.1947 169.275 68.408C169.232 68.6213 169.211 68.7813 169.211 68.888V73H167.291V65.32ZM174.765 69.832C174.829 70.408 175.053 70.856 175.437 71.176C175.821 71.496 176.285 71.656 176.829 71.656C177.309 71.656 177.709 71.56 178.029 71.368C178.359 71.1653 178.647 70.9147 178.893 70.616L180.269 71.656C179.821 72.2107 179.319 72.6053 178.765 72.84C178.21 73.0747 177.629 73.192 177.021 73.192C176.445 73.192 175.901 73.096 175.389 72.904C174.877 72.712 174.434 72.44 174.061 72.088C173.687 71.736 173.389 71.3147 173.165 70.824C172.951 70.3227 172.845 69.768 172.845 69.16C172.845 68.552 172.951 68.0027 173.165 67.512C173.389 67.0107 173.687 66.584 174.061 66.232C174.434 65.88 174.877 65.608 175.389 65.416C175.901 65.224 176.445 65.128 177.021 65.128C177.554 65.128 178.039 65.224 178.477 65.416C178.925 65.5973 179.303 65.864 179.613 66.216C179.933 66.568 180.178 67.0053 180.349 67.528C180.53 68.04 180.621 68.632 180.621 69.304V69.832H174.765ZM178.701 68.392C178.69 67.8267 178.514 67.384 178.173 67.064C177.831 66.7333 177.357 66.568 176.749 66.568C176.173 66.568 175.714 66.7333 175.373 67.064C175.042 67.3947 174.839 67.8373 174.765 68.392H178.701ZM182.416 65.32H184.24V66.472H184.272C184.549 66.0027 184.923 65.6613 185.392 65.448C185.861 65.2347 186.368 65.128 186.912 65.128C187.499 65.128 188.027 65.2347 188.496 65.448C188.965 65.6507 189.365 65.9333 189.696 66.296C190.027 66.6587 190.277 67.0853 190.448 67.576C190.619 68.0667 190.704 68.5947 190.704 69.16C190.704 69.7253 190.613 70.2533 190.432 70.744C190.251 71.2347 189.995 71.6613 189.664 72.024C189.344 72.3867 188.955 72.6747 188.496 72.888C188.037 73.0907 187.536 73.192 186.992 73.192C186.629 73.192 186.309 73.1547 186.032 73.08C185.755 73.0053 185.509 72.9093 185.296 72.792C185.083 72.6747 184.901 72.552 184.752 72.424C184.603 72.2853 184.48 72.152 184.384 72.024H184.336V76.648H182.416V65.32ZM188.784 69.16C188.784 68.8613 188.731 68.5733 188.624 68.296C188.528 68.0187 188.379 67.7733 188.176 67.56C187.984 67.3467 187.749 67.176 187.472 67.048C187.195 66.92 186.88 66.856 186.528 66.856C186.176 66.856 185.861 66.92 185.584 67.048C185.307 67.176 185.067 67.3467 184.864 67.56C184.672 67.7733 184.523 68.0187 184.416 68.296C184.32 68.5733 184.272 68.8613 184.272 69.16C184.272 69.4587 184.32 69.7467 184.416 70.024C184.523 70.3013 184.672 70.5467 184.864 70.76C185.067 70.9733 185.307 71.144 185.584 71.272C185.861 71.4 186.176 71.464 186.528 71.464C186.88 71.464 187.195 71.4 187.472 71.272C187.749 71.144 187.984 70.9733 188.176 70.76C188.379 70.5467 188.528 70.3013 188.624 70.024C188.731 69.7467 188.784 69.4587 188.784 69.16ZM192.494 65.32H194.414V66.536H194.446C194.66 66.088 194.964 65.7413 195.358 65.496C195.753 65.2507 196.206 65.128 196.718 65.128C196.836 65.128 196.948 65.1387 197.054 65.16C197.172 65.1813 197.289 65.208 197.406 65.24V67.096C197.246 67.0533 197.086 67.0213 196.926 67C196.777 66.968 196.628 66.952 196.478 66.952C196.03 66.952 195.668 67.0373 195.39 67.208C195.124 67.368 194.916 67.5547 194.766 67.768C194.628 67.9813 194.532 68.1947 194.478 68.408C194.436 68.6213 194.414 68.7813 194.414 68.888V73H192.494V65.32ZM198.745 65.32H200.665V73H198.745V65.32ZM198.473 62.712C198.473 62.4027 198.585 62.136 198.809 61.912C199.044 61.6773 199.337 61.56 199.689 61.56C200.041 61.56 200.334 61.672 200.569 61.896C200.814 62.1093 200.937 62.3813 200.937 62.712C200.937 63.0427 200.814 63.32 200.569 63.544C200.334 63.7573 200.041 63.864 199.689 63.864C199.337 63.864 199.044 63.752 198.809 63.528C198.585 63.2933 198.473 63.0213 198.473 62.712ZM206.965 67.448C206.592 66.9253 206.091 66.664 205.461 66.664C205.205 66.664 204.955 66.728 204.709 66.856C204.464 66.984 204.341 67.192 204.341 67.48C204.341 67.7147 204.443 67.8853 204.645 67.992C204.848 68.0987 205.104 68.1893 205.413 68.264C205.723 68.3387 206.053 68.4187 206.405 68.504C206.768 68.5787 207.104 68.7013 207.413 68.872C207.723 69.032 207.979 69.256 208.181 69.544C208.384 69.832 208.485 70.2267 208.485 70.728C208.485 71.1867 208.384 71.576 208.181 71.896C207.989 72.2053 207.733 72.456 207.413 72.648C207.104 72.84 206.752 72.9787 206.357 73.064C205.963 73.1493 205.568 73.192 205.173 73.192C204.576 73.192 204.027 73.1067 203.525 72.936C203.024 72.7653 202.576 72.456 202.181 72.008L203.461 70.808C203.707 71.0853 203.968 71.3147 204.245 71.496C204.533 71.6667 204.88 71.752 205.285 71.752C205.424 71.752 205.568 71.736 205.717 71.704C205.867 71.672 206.005 71.6187 206.133 71.544C206.261 71.4693 206.363 71.3787 206.437 71.272C206.523 71.1547 206.565 71.0213 206.565 70.872C206.565 70.6053 206.464 70.408 206.261 70.28C206.059 70.152 205.803 70.0507 205.493 69.976C205.184 69.8907 204.848 69.816 204.485 69.752C204.133 69.6773 203.803 69.5653 203.493 69.416C203.184 69.256 202.928 69.0373 202.725 68.76C202.523 68.4827 202.421 68.0987 202.421 67.608C202.421 67.1813 202.507 66.8133 202.677 66.504C202.859 66.184 203.093 65.9227 203.381 65.72C203.669 65.5173 204 65.368 204.373 65.272C204.747 65.176 205.125 65.128 205.509 65.128C206.021 65.128 206.528 65.2187 207.029 65.4C207.531 65.5707 207.936 65.8693 208.245 66.296L206.965 67.448ZM211.515 69.832C211.579 70.408 211.803 70.856 212.187 71.176C212.571 71.496 213.035 71.656 213.579 71.656C214.059 71.656 214.459 71.56 214.779 71.368C215.109 71.1653 215.397 70.9147 215.643 70.616L217.019 71.656C216.571 72.2107 216.069 72.6053 215.515 72.84C214.96 73.0747 214.379 73.192 213.771 73.192C213.195 73.192 212.651 73.096 212.139 72.904C211.627 72.712 211.184 72.44 210.811 72.088C210.437 71.736 210.139 71.3147 209.915 70.824C209.701 70.3227 209.595 69.768 209.595 69.16C209.595 68.552 209.701 68.0027 209.915 67.512C210.139 67.0107 210.437 66.584 210.811 66.232C211.184 65.88 211.627 65.608 212.139 65.416C212.651 65.224 213.195 65.128 213.771 65.128C214.304 65.128 214.789 65.224 215.227 65.416C215.675 65.5973 216.053 65.864 216.363 66.216C216.683 66.568 216.928 67.0053 217.099 67.528C217.28 68.04 217.371 68.632 217.371 69.304V69.832H211.515ZM215.451 68.392C215.44 67.8267 215.264 67.384 214.923 67.064C214.581 66.7333 214.107 66.568 213.499 66.568C212.923 66.568 212.464 66.7333 212.123 67.064C211.792 67.3947 211.589 67.8373 211.515 68.392H215.451Z" fill="#F3F3F4"/>
<path d="M296.794 62.6659C296.366 63.0617 296.366 63.7383 296.794 64.1341L300.973 68L296.794 71.8659C296.366 72.2617 296.366 72.9383 296.794 73.3341L296.834 73.3719C297.218 73.7264 297.809 73.7264 298.193 73.3719L303.206 68.7341C303.634 68.3383 303.634 67.6617 303.206 67.2659L298.193 62.6281C297.809 62.2736 297.218 62.2736 296.834 62.6281L296.794 62.6659Z" fill="#8DE8FE"/>
</svg>
