<svg width="146" height="26" viewBox="0 0 146 26" fill="none" xmlns="http://www.w3.org/2000/svg">
<rect width="146" height="26" rx="8" fill="#1253A0"/>
<path d="M13.6451 16.1668C13.6274 16.1255 13.601 16.0885 13.5676 16.0584C12.98 15.5596 12.5598 14.8924 12.3637 14.147C12.1676 13.4016 12.2052 12.614 12.4713 11.8907C12.7373 11.1673 13.2191 10.5431 13.8515 10.1024C14.4838 9.66174 15.2362 9.42587 16.007 9.42669C16.7777 9.42752 17.5296 9.66499 18.161 10.107C18.7924 10.549 19.2729 11.1743 19.5374 11.8982C19.802 12.6221 19.8378 13.4099 19.6401 14.1548C19.4425 14.8998 19.0208 15.5661 18.4322 16.0637C18.4001 16.0935 18.3749 16.1299 18.3583 16.1705C18.3416 16.211 18.334 16.2546 18.3358 16.2984L18.3358 16.4491C18.3349 16.7096 18.2653 16.9653 18.134 17.1902C18.0026 17.4152 17.8142 17.6015 17.5878 17.7304L17.5878 18.1122C17.5868 18.4156 17.4746 18.7082 17.2726 18.9346C17.0705 19.161 16.7925 19.3055 16.4911 19.3408C16.4508 19.4368 16.3833 19.5188 16.2969 19.5767C16.2104 19.6347 16.1089 19.666 16.0049 19.6669C15.9008 19.6677 15.7988 19.638 15.7115 19.5815C15.6241 19.525 15.5553 19.4441 15.5134 19.3488C15.1965 19.332 14.8981 19.1944 14.6794 18.9645C14.4607 18.7345 14.3383 18.4295 14.3375 18.1122L14.3375 17.6864C14.1326 17.5514 13.9644 17.3677 13.8479 17.1518C13.7314 16.9358 13.6704 16.6944 13.6701 16.449L13.6701 16.2977C13.6714 16.2528 13.6628 16.2081 13.6451 16.1668ZM16.752 18.5198C16.8601 18.4117 16.9209 18.2651 16.9211 18.1122L16.9211 17.9267C16.9105 17.9272 16.9002 17.9287 16.8899 17.9301C16.8771 17.9319 16.8643 17.9338 16.8511 17.9338L15.1548 17.9338C15.1044 17.9313 15.0541 17.9262 15.0041 17.9185L15.0041 18.1122C15.0043 18.2651 15.0651 18.4117 15.1733 18.5198C15.2814 18.628 15.428 18.6888 15.5809 18.689L16.3443 18.689C16.4972 18.6888 16.6438 18.628 16.752 18.5198ZM10.8854 8.83378C10.903 8.8742 10.9284 8.91072 10.9602 8.94124L11.9989 9.9595C12.0301 9.99046 12.0671 10.015 12.1078 10.0316C12.1484 10.0482 12.192 10.0566 12.236 10.0563C12.2799 10.056 12.3234 10.047 12.3638 10.0299C12.4043 10.0127 12.441 9.98777 12.4717 9.95639C12.5025 9.92502 12.5268 9.88787 12.5431 9.84708C12.5595 9.80629 12.5676 9.76267 12.5671 9.71872C12.5665 9.67478 12.5573 9.63138 12.5399 9.59102C12.5225 9.55066 12.4973 9.51414 12.4657 9.48356L11.427 8.46533C11.3959 8.43411 11.3589 8.40938 11.3181 8.39256C11.2774 8.37574 11.2337 8.36718 11.1896 8.36736C11.1455 8.36754 11.1019 8.37647 11.0613 8.39362C11.0207 8.41077 10.9839 8.43581 10.953 8.46728C10.9221 8.49875 10.8978 8.53604 10.8814 8.57697C10.8651 8.61791 10.857 8.66169 10.8577 8.70577C10.8583 8.74985 10.8678 8.79336 10.8854 8.83378ZM19.4579 9.8461C19.4743 9.8867 19.4985 9.92367 19.5292 9.95492C19.5598 9.98617 19.5963 10.0111 19.6366 10.0282C19.6769 10.0454 19.7201 10.0544 19.7639 10.0549C19.8077 10.0553 19.8511 10.0471 19.8917 10.0307C19.9323 10.0143 19.9693 9.99015 20.0005 9.9595L21.0389 8.94126C21.1009 8.87911 21.1359 8.79504 21.1362 8.70727C21.1366 8.61951 21.1023 8.53515 21.0409 8.47249C20.9794 8.40983 20.8957 8.37394 20.808 8.37261C20.7202 8.37127 20.6355 8.40459 20.5721 8.46535L19.5337 9.48358C19.5025 9.51423 19.4776 9.55073 19.4604 9.591C19.4433 9.63128 19.4342 9.67453 19.4338 9.7183C19.4334 9.76207 19.4416 9.8055 19.4579 9.8461ZM15.6457 6.66683L15.6457 8.1333C15.6457 8.22171 15.6808 8.30649 15.7433 8.369C15.8059 8.43152 15.8906 8.46664 15.979 8.46664C16.0675 8.46664 16.1522 8.43152 16.2147 8.369C16.2773 8.30649 16.3124 8.22171 16.3124 8.1333L16.3124 6.66683C16.3124 6.57842 16.2773 6.49364 16.2147 6.43113C16.1522 6.36861 16.0675 6.3335 15.979 6.3335C15.8906 6.3335 15.8059 6.36861 15.7433 6.43113C15.6808 6.49364 15.6457 6.57842 15.6457 6.66683ZM17.8889 12.5557C17.8889 12.7398 18.0381 12.8891 18.2222 12.8891C18.4063 12.8891 18.5556 12.7398 18.5556 12.5557C18.5556 11.5047 17.7158 10.4447 16.4445 10.4446C16.2604 10.4446 16.1111 10.5938 16.1111 10.7779C16.1111 10.962 16.2603 11.1113 16.4444 11.1113C17.3052 11.1114 17.8889 11.829 17.8889 12.5557Z" fill="white"/>
<path d="M37.408 17.234C36.706 17.234 36.0603 17.1127 35.471 16.87C34.8817 16.6187 34.3747 16.2763 33.95 15.843C33.534 15.4097 33.2047 14.8983 32.962 14.309C32.728 13.7197 32.611 13.0827 32.611 12.398C32.611 11.7133 32.728 11.0763 32.962 10.487C33.2047 9.89767 33.534 9.38633 33.95 8.953C34.3747 8.51967 34.8817 8.18167 35.471 7.939C36.0603 7.68767 36.706 7.562 37.408 7.562C38.11 7.562 38.7557 7.68767 39.345 7.939C39.9343 8.18167 40.437 8.51967 40.853 8.953C41.2777 9.38633 41.607 9.89767 41.841 10.487C42.0837 11.0763 42.205 11.7133 42.205 12.398C42.205 13.0827 42.0837 13.7197 41.841 14.309C41.607 14.8983 41.2777 15.4097 40.853 15.843C40.437 16.2763 39.9343 16.6187 39.345 16.87C38.7557 17.1127 38.11 17.234 37.408 17.234ZM37.408 16.064C37.9367 16.064 38.4133 15.9687 38.838 15.778C39.2627 15.5787 39.6267 15.3143 39.93 14.985C40.2333 14.6557 40.4673 14.27 40.632 13.828C40.7967 13.3773 40.879 12.9007 40.879 12.398C40.879 11.8953 40.7967 11.423 40.632 10.981C40.4673 10.5303 40.2333 10.1403 39.93 9.811C39.6267 9.48167 39.2627 9.22167 38.838 9.031C38.4133 8.83167 37.9367 8.732 37.408 8.732C36.8793 8.732 36.4027 8.83167 35.978 9.031C35.5533 9.22167 35.1893 9.48167 34.886 9.811C34.5827 10.1403 34.3487 10.5303 34.184 10.981C34.0193 11.423 33.937 11.8953 33.937 12.398C33.937 12.9007 34.0193 13.3773 34.184 13.828C34.3487 14.27 34.5827 14.6557 34.886 14.985C35.1893 15.3143 35.5533 15.5787 35.978 15.778C36.4027 15.9687 36.8793 16.064 37.408 16.064ZM43.7004 10.838H44.8704V11.787H44.8964C45.0437 11.4577 45.2994 11.1933 45.6634 10.994C46.0274 10.786 46.4477 10.682 46.9244 10.682C47.2191 10.682 47.5007 10.7297 47.7694 10.825C48.0467 10.9117 48.2851 11.0503 48.4844 11.241C48.6924 11.4317 48.8571 11.6787 48.9784 11.982C49.0997 12.2767 49.1604 12.6277 49.1604 13.035V17H47.9904V13.36C47.9904 13.074 47.9514 12.8313 47.8734 12.632C47.7954 12.424 47.6914 12.2593 47.5614 12.138C47.4314 12.008 47.2797 11.917 47.1064 11.865C46.9417 11.8043 46.7684 11.774 46.5864 11.774C46.3437 11.774 46.1184 11.813 45.9104 11.891C45.7024 11.969 45.5204 12.0947 45.3644 12.268C45.2084 12.4327 45.0871 12.645 45.0004 12.905C44.9137 13.165 44.8704 13.4727 44.8704 13.828V17H43.7004V10.838ZM53.8012 10.838H55.1532L56.9992 15.557L58.7672 10.838H60.0152L57.5972 17H56.3102L53.8012 10.838ZM61.9912 13.919C61.9912 14.231 62.0389 14.5213 62.1342 14.79C62.2295 15.05 62.3639 15.2753 62.5372 15.466C62.7105 15.648 62.9229 15.7953 63.1742 15.908C63.4255 16.012 63.7072 16.064 64.0192 16.064C64.3312 16.064 64.6129 16.012 64.8642 15.908C65.1155 15.7953 65.3279 15.648 65.5012 15.466C65.6745 15.2753 65.8089 15.05 65.9042 14.79C65.9995 14.5213 66.0472 14.231 66.0472 13.919C66.0472 13.607 65.9995 13.321 65.9042 13.061C65.8089 12.7923 65.6745 12.567 65.5012 12.385C65.3279 12.1943 65.1155 12.047 64.8642 11.943C64.6129 11.8303 64.3312 11.774 64.0192 11.774C63.7072 11.774 63.4255 11.8303 63.1742 11.943C62.9229 12.047 62.7105 12.1943 62.5372 12.385C62.3639 12.567 62.2295 12.7923 62.1342 13.061C62.0389 13.321 61.9912 13.607 61.9912 13.919ZM60.7432 13.919C60.7432 13.4683 60.8255 13.048 60.9902 12.658C61.1635 12.268 61.3975 11.9257 61.6922 11.631C61.9869 11.3363 62.3335 11.1067 62.7322 10.942C63.1309 10.7687 63.5599 10.682 64.0192 10.682C64.4785 10.682 64.9075 10.7687 65.3062 10.942C65.7049 11.1067 66.0515 11.3363 66.3462 11.631C66.6409 11.9257 66.8705 12.268 67.0352 12.658C67.2085 13.048 67.2952 13.4683 67.2952 13.919C67.2952 14.3697 67.2085 14.7943 67.0352 15.193C66.8705 15.583 66.6409 15.9253 66.3462 16.22C66.0515 16.506 65.7049 16.7357 65.3062 16.909C64.9075 17.0737 64.4785 17.156 64.0192 17.156C63.5599 17.156 63.1309 17.0737 62.7322 16.909C62.3335 16.7357 61.9869 16.506 61.6922 16.22C61.3975 15.9253 61.1635 15.583 60.9902 15.193C60.8255 14.7943 60.7432 14.3697 60.7432 13.919ZM74.221 17H73.051V16.051H73.025C72.8776 16.3803 72.622 16.649 72.258 16.857C71.894 17.0563 71.4736 17.156 70.997 17.156C70.6936 17.156 70.4076 17.1083 70.139 17.013C69.8703 16.9263 69.632 16.7877 69.424 16.597C69.2246 16.4063 69.0643 16.1637 68.943 15.869C68.8216 15.5657 68.761 15.2103 68.761 14.803V10.838H69.931V14.478C69.931 14.764 69.97 15.011 70.048 15.219C70.126 15.4183 70.23 15.583 70.36 15.713C70.49 15.8343 70.6373 15.9253 70.802 15.986C70.9753 16.038 71.153 16.064 71.335 16.064C71.5776 16.064 71.803 16.025 72.011 15.947C72.219 15.869 72.401 15.7477 72.557 15.583C72.713 15.4097 72.8343 15.193 72.921 14.933C73.0076 14.673 73.051 14.3653 73.051 14.01V10.838H74.221V17ZM79.2606 12.385C79.1219 12.2117 78.9486 12.0687 78.7406 11.956C78.5413 11.8347 78.2943 11.774 77.9996 11.774C77.7223 11.774 77.4796 11.8347 77.2716 11.956C77.0723 12.0687 76.9726 12.2377 76.9726 12.463C76.9726 12.645 77.0289 12.7923 77.1416 12.905C77.2629 13.0177 77.4016 13.1087 77.5576 13.178C77.7223 13.2473 77.8956 13.2993 78.0776 13.334C78.2596 13.3687 78.4156 13.399 78.5456 13.425C78.7969 13.4857 79.0309 13.5593 79.2476 13.646C79.4729 13.7327 79.6636 13.8453 79.8196 13.984C79.9843 14.1227 80.1099 14.2917 80.1966 14.491C80.2919 14.6903 80.3396 14.933 80.3396 15.219C80.3396 15.5657 80.2659 15.8647 80.1186 16.116C79.9713 16.3587 79.7806 16.558 79.5466 16.714C79.3126 16.87 79.0439 16.9827 78.7406 17.052C78.4459 17.1213 78.1469 17.156 77.8436 17.156C77.3323 17.156 76.8816 17.078 76.4916 16.922C76.1103 16.766 75.7679 16.48 75.4646 16.064L76.3486 15.336C76.5393 15.5267 76.7516 15.6957 76.9856 15.843C77.2196 15.9903 77.5056 16.064 77.8436 16.064C77.9909 16.064 78.1383 16.051 78.2856 16.025C78.4416 15.9903 78.5759 15.9427 78.6886 15.882C78.8099 15.8127 78.9053 15.7303 78.9746 15.635C79.0526 15.531 79.0916 15.414 79.0916 15.284C79.0916 15.1107 79.0353 14.9677 78.9226 14.855C78.8186 14.7423 78.6886 14.6557 78.5326 14.595C78.3853 14.5257 78.2249 14.4737 78.0516 14.439C77.8869 14.3957 77.7396 14.361 77.6096 14.335C77.3583 14.2743 77.1199 14.205 76.8946 14.127C76.6693 14.049 76.4699 13.945 76.2966 13.815C76.1233 13.685 75.9846 13.5203 75.8806 13.321C75.7766 13.1217 75.7246 12.8747 75.7246 12.58C75.7246 12.2593 75.7896 11.982 75.9196 11.748C76.0583 11.5053 76.2359 11.306 76.4526 11.15C76.6779 10.994 76.9293 10.877 77.2066 10.799C77.4926 10.721 77.7786 10.682 78.0646 10.682C78.4806 10.682 78.8793 10.76 79.2606 10.916C79.6419 11.072 79.9453 11.332 80.1706 11.696L79.2606 12.385ZM85.3791 10.838H86.4711V11.8H86.4971C86.5231 11.7133 86.5881 11.605 86.6921 11.475C86.8048 11.345 86.9435 11.2237 87.1081 11.111C87.2815 10.9897 87.4808 10.89 87.7061 10.812C87.9401 10.7253 88.1958 10.682 88.4731 10.682C88.9325 10.682 89.3181 10.7773 89.6301 10.968C89.9421 11.1587 90.1978 11.4447 90.3971 11.826C90.5965 11.4447 90.8781 11.1587 91.2421 10.968C91.6061 10.7773 91.9745 10.682 92.3471 10.682C92.8238 10.682 93.2138 10.76 93.5171 10.916C93.8205 11.072 94.0588 11.28 94.2321 11.54C94.4055 11.7913 94.5225 12.0817 94.5831 12.411C94.6525 12.7317 94.6871 13.0653 94.6871 13.412V17H93.5171V13.568C93.5171 13.334 93.4998 13.1087 93.4651 12.892C93.4391 12.6753 93.3785 12.4847 93.2831 12.32C93.1878 12.1553 93.0535 12.0253 92.8801 11.93C92.7068 11.826 92.4771 11.774 92.1911 11.774C91.6278 11.774 91.2248 11.9473 90.9821 12.294C90.7395 12.6407 90.6181 13.087 90.6181 13.633V17H89.4481V13.776C89.4481 13.4813 89.4308 13.2127 89.3961 12.97C89.3701 12.7273 89.3095 12.5193 89.2141 12.346C89.1275 12.164 88.9975 12.0253 88.8241 11.93C88.6595 11.826 88.4341 11.774 88.1481 11.774C87.9401 11.774 87.7365 11.8173 87.5371 11.904C87.3465 11.982 87.1775 12.1033 87.0301 12.268C86.8828 12.4327 86.7658 12.645 86.6791 12.905C86.5925 13.1563 86.5491 13.4553 86.5491 13.802V17H85.3791V10.838ZM97.3984 13.919C97.3984 14.231 97.4461 14.5213 97.5414 14.79C97.6368 15.05 97.7711 15.2753 97.9444 15.466C98.1178 15.648 98.3301 15.7953 98.5814 15.908C98.8328 16.012 99.1144 16.064 99.4264 16.064C99.7384 16.064 100.02 16.012 100.271 15.908C100.523 15.7953 100.735 15.648 100.908 15.466C101.082 15.2753 101.216 15.05 101.311 14.79C101.407 14.5213 101.454 14.231 101.454 13.919C101.454 13.607 101.407 13.321 101.311 13.061C101.216 12.7923 101.082 12.567 100.908 12.385C100.735 12.1943 100.523 12.047 100.271 11.943C100.02 11.8303 99.7384 11.774 99.4264 11.774C99.1144 11.774 98.8328 11.8303 98.5814 11.943C98.3301 12.047 98.1178 12.1943 97.9444 12.385C97.7711 12.567 97.6368 12.7923 97.5414 13.061C97.4461 13.321 97.3984 13.607 97.3984 13.919ZM96.1504 13.919C96.1504 13.4683 96.2328 13.048 96.3974 12.658C96.5708 12.268 96.8048 11.9257 97.0994 11.631C97.3941 11.3363 97.7408 11.1067 98.1394 10.942C98.5381 10.7687 98.9671 10.682 99.4264 10.682C99.8858 10.682 100.315 10.7687 100.713 10.942C101.112 11.1067 101.459 11.3363 101.753 11.631C102.048 11.9257 102.278 12.268 102.442 12.658C102.616 13.048 102.702 13.4683 102.702 13.919C102.702 14.3697 102.616 14.7943 102.442 15.193C102.278 15.583 102.048 15.9253 101.753 16.22C101.459 16.506 101.112 16.7357 100.713 16.909C100.315 17.0737 99.8858 17.156 99.4264 17.156C98.9671 17.156 98.5381 17.0737 98.1394 16.909C97.7408 16.7357 97.3941 16.506 97.0994 16.22C96.8048 15.9253 96.5708 15.583 96.3974 15.193C96.2328 14.7943 96.1504 14.3697 96.1504 13.919ZM104.168 10.838H105.338V11.787H105.364C105.512 11.4577 105.767 11.1933 106.131 10.994C106.495 10.786 106.916 10.682 107.392 10.682C107.687 10.682 107.969 10.7297 108.237 10.825C108.515 10.9117 108.753 11.0503 108.952 11.241C109.16 11.4317 109.325 11.6787 109.446 11.982C109.568 12.2767 109.628 12.6277 109.628 13.035V17H108.458V13.36C108.458 13.074 108.419 12.8313 108.341 12.632C108.263 12.424 108.159 12.2593 108.029 12.138C107.899 12.008 107.748 11.917 107.574 11.865C107.41 11.8043 107.236 11.774 107.054 11.774C106.812 11.774 106.586 11.813 106.378 11.891C106.17 11.969 105.988 12.0947 105.832 12.268C105.676 12.4327 105.555 12.645 105.468 12.905C105.382 13.165 105.338 13.4727 105.338 13.828V17H104.168V10.838ZM114.694 11.852H113.017V14.647C113.017 14.8203 113.021 14.9937 113.03 15.167C113.038 15.3317 113.069 15.4833 113.121 15.622C113.181 15.752 113.268 15.8603 113.381 15.947C113.502 16.025 113.675 16.064 113.901 16.064C114.039 16.064 114.182 16.051 114.33 16.025C114.477 15.999 114.611 15.9513 114.733 15.882V16.948C114.594 17.026 114.412 17.078 114.187 17.104C113.97 17.1387 113.801 17.156 113.68 17.156C113.229 17.156 112.878 17.0953 112.627 16.974C112.384 16.844 112.202 16.6793 112.081 16.48C111.968 16.2807 111.899 16.0597 111.873 15.817C111.855 15.5657 111.847 15.3143 111.847 15.063V11.852H110.495V10.838H111.847V9.109H113.017V10.838H114.694V11.852ZM116.203 10.838H117.373V11.787H117.399C117.477 11.6223 117.581 11.475 117.711 11.345C117.841 11.2063 117.984 11.0893 118.14 10.994C118.305 10.8987 118.483 10.825 118.673 10.773C118.864 10.7123 119.055 10.682 119.245 10.682C119.436 10.682 119.609 10.708 119.765 10.76L119.713 12.021C119.618 11.995 119.523 11.9733 119.427 11.956C119.332 11.9387 119.237 11.93 119.141 11.93C118.569 11.93 118.132 12.0903 117.828 12.411C117.525 12.7317 117.373 13.23 117.373 13.906V17H116.203V10.838ZM121.67 14.348C121.67 14.6167 121.727 14.8637 121.839 15.089C121.961 15.3057 122.117 15.492 122.307 15.648C122.498 15.804 122.719 15.9253 122.97 16.012C123.222 16.0987 123.482 16.142 123.75 16.142C124.114 16.142 124.431 16.0597 124.699 15.895C124.968 15.7217 125.215 15.4963 125.44 15.219L126.324 15.895C125.674 16.7357 124.764 17.156 123.594 17.156C123.109 17.156 122.667 17.0737 122.268 16.909C121.878 16.7443 121.545 16.519 121.267 16.233C120.999 15.9383 120.791 15.596 120.643 15.206C120.496 14.8073 120.422 14.3783 120.422 13.919C120.422 13.4597 120.5 13.035 120.656 12.645C120.821 12.2463 121.042 11.904 121.319 11.618C121.605 11.3233 121.943 11.0937 122.333 10.929C122.723 10.7643 123.148 10.682 123.607 10.682C124.153 10.682 124.613 10.7773 124.985 10.968C125.367 11.1587 125.679 11.41 125.921 11.722C126.164 12.0253 126.337 12.372 126.441 12.762C126.554 13.1433 126.61 13.5333 126.61 13.932V14.348H121.67ZM125.362 13.412C125.354 13.152 125.31 12.9137 125.232 12.697C125.163 12.4803 125.055 12.294 124.907 12.138C124.76 11.9733 124.574 11.8477 124.348 11.761C124.132 11.6657 123.876 11.618 123.581 11.618C123.295 11.618 123.031 11.6743 122.788 11.787C122.554 11.891 122.355 12.0297 122.19 12.203C122.026 12.3763 121.896 12.5713 121.8 12.788C121.714 12.996 121.67 13.204 121.67 13.412H125.362ZM133.474 14.426V13.633C133.474 13.399 133.491 13.204 133.526 13.048C133.561 12.892 133.613 12.7533 133.682 12.632C133.751 12.502 133.842 12.3807 133.955 12.268C134.076 12.1467 134.224 12.0037 134.397 11.839C134.536 11.709 134.674 11.579 134.813 11.449C134.952 11.3103 135.077 11.1717 135.19 11.033C135.303 10.8857 135.394 10.734 135.463 10.578C135.541 10.4133 135.58 10.2313 135.58 10.032C135.58 9.83267 135.541 9.65067 135.463 9.486C135.394 9.31267 135.298 9.16533 135.177 9.044C135.056 8.92267 134.908 8.82733 134.735 8.758C134.57 8.68867 134.393 8.654 134.202 8.654C133.777 8.654 133.431 8.78833 133.162 9.057C132.902 9.32567 132.746 9.67667 132.694 10.11L131.368 9.98C131.481 9.226 131.793 8.63667 132.304 8.212C132.824 7.77867 133.465 7.562 134.228 7.562C134.592 7.562 134.93 7.61833 135.242 7.731C135.563 7.835 135.84 7.991 136.074 8.199C136.308 8.39833 136.49 8.64967 136.62 8.953C136.759 9.24767 136.828 9.58567 136.828 9.967C136.828 10.2963 136.78 10.5867 136.685 10.838C136.59 11.0807 136.455 11.3103 136.282 11.527L135.502 12.333L135.372 12.45C135.233 12.58 135.121 12.6927 135.034 12.788C134.956 12.8747 134.891 12.97 134.839 13.074C134.796 13.1693 134.765 13.2777 134.748 13.399C134.731 13.5203 134.722 13.672 134.722 13.854V14.426H133.474ZM133.227 16.22C133.227 15.986 133.309 15.7867 133.474 15.622C133.647 15.4487 133.851 15.362 134.085 15.362C134.319 15.362 134.518 15.4487 134.683 15.622C134.856 15.7867 134.943 15.986 134.943 16.22C134.943 16.454 134.856 16.6577 134.683 16.831C134.518 16.9957 134.319 17.078 134.085 17.078C133.851 17.078 133.647 16.9957 133.474 16.831C133.309 16.6577 133.227 16.454 133.227 16.22Z" fill="white"/>
</svg>
