<svg width="360" height="64" viewBox="0 0 360 64" fill="none" xmlns="http://www.w3.org/2000/svg">
<rect width="360" height="64" fill="#1468CB"/>
<rect x="16" y="16" width="32" height="32" rx="16" fill="#F3F3F4"/>
<path d="M37.3333 31.2699C38.1235 31.7261 38.1235 32.8665 37.3333 33.3227L29.7778 37.6849C28.9877 38.1411 28 37.5709 28 36.6585L28 27.9341C28 27.0218 28.9877 26.4515 29.7778 26.9077L37.3333 31.2699Z" fill="#1253A0"/>
<path d="M59.264 26.172H66.768V27.996H61.28V30.78H66.48V32.604H61.28V35.676H67.056V37.5H59.264V26.172ZM68.8693 29.82H70.6933V31.052H70.7253C70.9066 30.668 71.1839 30.3373 71.5573 30.06C71.9306 29.772 72.4373 29.628 73.0773 29.628C73.5893 29.628 74.0213 29.7133 74.3733 29.884C74.7359 30.0547 75.0293 30.2787 75.2533 30.556C75.4773 30.8333 75.6373 31.1533 75.7333 31.516C75.8293 31.8787 75.8773 32.2573 75.8773 32.652V37.5H73.9573V33.612C73.9573 33.3987 73.9466 33.164 73.9253 32.908C73.9039 32.6413 73.8453 32.396 73.7493 32.172C73.6639 31.9373 73.5253 31.7453 73.3333 31.596C73.1413 31.436 72.8799 31.356 72.5493 31.356C72.2293 31.356 71.9573 31.4093 71.7333 31.516C71.5199 31.6227 71.3386 31.7667 71.1893 31.948C71.0506 32.1293 70.9493 32.3373 70.8853 32.572C70.8213 32.8067 70.7893 33.052 70.7893 33.308V37.5H68.8693V29.82ZM82.8231 25.404H84.7431V37.5H82.8231V25.404ZM88.4834 34.332C88.5474 34.908 88.7714 35.356 89.1554 35.676C89.5394 35.996 90.0034 36.156 90.5474 36.156C91.0274 36.156 91.4274 36.06 91.7474 35.868C92.078 35.6653 92.366 35.4147 92.6114 35.116L93.9874 36.156C93.5394 36.7107 93.038 37.1053 92.4834 37.34C91.9287 37.5747 91.3474 37.692 90.7394 37.692C90.1634 37.692 89.6194 37.596 89.1074 37.404C88.5954 37.212 88.1527 36.94 87.7794 36.588C87.406 36.236 87.1074 35.8147 86.8834 35.324C86.67 34.8227 86.5634 34.268 86.5634 33.66C86.5634 33.052 86.67 32.5027 86.8834 32.012C87.1074 31.5107 87.406 31.084 87.7794 30.732C88.1527 30.38 88.5954 30.108 89.1074 29.916C89.6194 29.724 90.1634 29.628 90.7394 29.628C91.2727 29.628 91.758 29.724 92.1954 29.916C92.6434 30.0973 93.022 30.364 93.3314 30.716C93.6514 31.068 93.8967 31.5053 94.0674 32.028C94.2487 32.54 94.3394 33.132 94.3394 33.804V34.332H88.4834ZM92.4194 32.892C92.4087 32.3267 92.2327 31.884 91.8914 31.564C91.55 31.2333 91.0754 31.068 90.4674 31.068C89.8914 31.068 89.4327 31.2333 89.0914 31.564C88.7607 31.8947 88.558 32.3373 88.4834 32.892H92.4194ZM101.383 32.124C101.159 31.8893 100.924 31.7027 100.679 31.564C100.434 31.4253 100.183 31.356 99.9269 31.356C99.5749 31.356 99.2602 31.42 98.9829 31.548C98.7055 31.676 98.4655 31.8467 98.2629 32.06C98.0709 32.2733 97.9215 32.5187 97.8149 32.796C97.7189 33.0733 97.6709 33.3613 97.6709 33.66C97.6709 33.9587 97.7189 34.2467 97.8149 34.524C97.9215 34.8013 98.0709 35.0467 98.2629 35.26C98.4655 35.4733 98.7055 35.644 98.9829 35.772C99.2602 35.9 99.5749 35.964 99.9269 35.964C100.226 35.964 100.503 35.9053 100.759 35.788C101.015 35.66 101.234 35.4787 101.415 35.244L102.695 36.62C102.503 36.812 102.279 36.9773 102.023 37.116C101.778 37.2547 101.527 37.3667 101.271 37.452C101.015 37.5373 100.77 37.596 100.535 37.628C100.3 37.6707 100.098 37.692 99.9269 37.692C99.3509 37.692 98.8069 37.596 98.2949 37.404C97.7829 37.212 97.3402 36.94 96.9669 36.588C96.5935 36.236 96.2949 35.8147 96.0709 35.324C95.8575 34.8227 95.7509 34.268 95.7509 33.66C95.7509 33.052 95.8575 32.5027 96.0709 32.012C96.2949 31.5107 96.5935 31.084 96.9669 30.732C97.3402 30.38 97.7829 30.108 98.2949 29.916C98.8069 29.724 99.3509 29.628 99.9269 29.628C100.418 29.628 100.908 29.724 101.399 29.916C101.9 30.0973 102.338 30.3907 102.711 30.796L101.383 32.124ZM102.958 31.452V29.82H104.542V27.596H106.462V29.82H108.574V31.452H106.462V34.812C106.462 35.196 106.531 35.5 106.67 35.724C106.819 35.948 107.107 36.06 107.534 36.06C107.704 36.06 107.891 36.044 108.094 36.012C108.296 35.9693 108.456 35.9053 108.574 35.82V37.436C108.371 37.532 108.12 37.596 107.822 37.628C107.534 37.6707 107.278 37.692 107.054 37.692C106.542 37.692 106.12 37.6333 105.79 37.516C105.47 37.4093 105.214 37.244 105.022 37.02C104.84 36.7853 104.712 36.4973 104.638 36.156C104.574 35.8147 104.542 35.42 104.542 34.972V31.452H102.958ZM117.08 37.5H115.256V36.268H115.224C115.043 36.652 114.766 36.988 114.392 37.276C114.019 37.5533 113.512 37.692 112.872 37.692C112.36 37.692 111.923 37.612 111.56 37.452C111.208 37.2813 110.92 37.0573 110.696 36.78C110.472 36.492 110.312 36.1667 110.216 35.804C110.12 35.4413 110.072 35.0627 110.072 34.668V29.82H111.992V33.708C111.992 33.9213 112.003 34.1613 112.024 34.428C112.046 34.684 112.099 34.9293 112.184 35.164C112.28 35.388 112.419 35.58 112.6 35.74C112.792 35.8893 113.059 35.964 113.4 35.964C113.72 35.964 113.987 35.9107 114.2 35.804C114.424 35.6973 114.606 35.5533 114.744 35.372C114.894 35.1907 115 34.9827 115.064 34.748C115.128 34.5133 115.16 34.268 115.16 34.012V29.82H117.08V37.5ZM119.26 29.82H121.18V31.036H121.212C121.425 30.588 121.729 30.2413 122.124 29.996C122.519 29.7507 122.972 29.628 123.484 29.628C123.601 29.628 123.713 29.6387 123.82 29.66C123.937 29.6813 124.055 29.708 124.172 29.74V31.596C124.012 31.5533 123.852 31.5213 123.692 31.5C123.543 31.468 123.393 31.452 123.244 31.452C122.796 31.452 122.433 31.5373 122.156 31.708C121.889 31.868 121.681 32.0547 121.532 32.268C121.393 32.4813 121.297 32.6947 121.244 32.908C121.201 33.1213 121.18 33.2813 121.18 33.388V37.5H119.26V29.82ZM126.733 34.332C126.797 34.908 127.021 35.356 127.405 35.676C127.789 35.996 128.253 36.156 128.797 36.156C129.277 36.156 129.677 36.06 129.997 35.868C130.328 35.6653 130.616 35.4147 130.861 35.116L132.237 36.156C131.789 36.7107 131.288 37.1053 130.733 37.34C130.179 37.5747 129.597 37.692 128.989 37.692C128.413 37.692 127.869 37.596 127.357 37.404C126.845 37.212 126.403 36.94 126.029 36.588C125.656 36.236 125.357 35.8147 125.133 35.324C124.92 34.8227 124.813 34.268 124.813 33.66C124.813 33.052 124.92 32.5027 125.133 32.012C125.357 31.5107 125.656 31.084 126.029 30.732C126.403 30.38 126.845 30.108 127.357 29.916C127.869 29.724 128.413 29.628 128.989 29.628C129.523 29.628 130.008 29.724 130.445 29.916C130.893 30.0973 131.272 30.364 131.581 30.716C131.901 31.068 132.147 31.5053 132.317 32.028C132.499 32.54 132.589 33.132 132.589 33.804V34.332H126.733ZM130.669 32.892C130.659 32.3267 130.483 31.884 130.141 31.564C129.8 31.2333 129.325 31.068 128.717 31.068C128.141 31.068 127.683 31.2333 127.341 31.564C127.011 31.8947 126.808 32.3373 126.733 32.892H130.669Z" fill="white"/>
<path d="M337.918 34.5215C337.349 34.5234 336.788 34.6559 336.278 34.9089C335.767 35.1619 335.322 35.5286 334.976 35.9807L329.563 33.2457C329.885 32.4536 329.907 31.571 329.624 30.7641L335.063 28.1259C335.669 28.8336 336.521 29.2849 337.447 29.3886C338.373 29.4923 339.304 29.2408 340.051 28.6848C340.799 28.1288 341.308 27.3098 341.475 26.3933C341.642 25.4767 341.455 24.5309 340.951 23.7469C340.448 22.9629 339.666 22.3992 338.763 22.1696C337.86 21.94 336.904 22.0616 336.087 22.5099C335.27 22.9583 334.654 23.6998 334.363 24.5849C334.072 25.4699 334.128 26.4324 334.519 27.2779L329.203 29.8563C328.767 29.1869 328.129 28.674 327.382 28.3925C326.635 28.1111 325.817 28.0757 325.048 28.2916C324.279 28.5075 323.6 28.9634 323.108 29.5928C322.616 30.2222 322.339 30.9922 322.316 31.7904C322.292 32.5887 322.525 33.3735 322.979 34.0303C323.433 34.6872 324.085 35.1818 324.84 35.4421C325.595 35.7023 326.414 35.7145 327.176 35.4769C327.939 35.2393 328.605 34.7644 329.079 34.1213L334.463 36.8416C334.159 37.583 334.101 38.4024 334.299 39.1789C334.496 39.9555 334.938 40.648 335.558 41.1544C336.179 41.6609 336.947 41.9543 337.747 41.9916C338.547 42.0288 339.338 41.8078 340.004 41.3612C340.669 40.9146 341.173 40.266 341.441 39.5112C341.71 38.7563 341.729 37.9351 341.495 37.1687C341.261 36.4023 340.788 35.7313 340.144 35.2547C339.5 34.7781 338.72 34.521 337.918 34.5215L337.918 34.5215ZM337.918 23C338.388 22.9982 338.85 23.1169 339.26 23.3449C339.67 23.573 340.015 23.9026 340.262 24.3022C340.508 24.7018 340.647 25.158 340.667 25.6271C340.686 26.0961 340.584 26.5622 340.372 26.9807C340.159 27.3992 339.843 27.7561 339.452 28.0171C339.062 28.2781 338.612 28.4344 338.144 28.4712C337.676 28.5079 337.206 28.4237 336.78 28.2268C336.354 28.0299 335.985 27.7268 335.71 27.3465C335.706 27.3193 335.699 27.2926 335.689 27.2666C335.657 27.2018 335.611 27.1447 335.555 27.0996C335.311 26.6877 335.182 26.2186 335.179 25.7403C335.18 25.0139 335.469 24.3175 335.982 23.8038C336.496 23.2901 337.192 23.0011 337.918 23V23ZM326.082 34.6465C325.6 34.649 325.125 34.5241 324.707 34.2845C324.288 34.045 323.94 33.6991 323.698 33.282C323.456 32.8649 323.329 32.3913 323.328 31.9091C323.328 31.4269 323.455 30.9531 323.697 30.5357C323.938 30.1182 324.285 29.772 324.704 29.5318C325.122 29.2917 325.596 29.1662 326.078 29.168C326.56 29.1698 327.034 29.2989 327.45 29.5422C327.866 29.7856 328.211 30.1345 328.449 30.5537C328.451 30.6231 328.468 30.6914 328.498 30.7539C328.53 30.807 328.572 30.8533 328.621 30.8903C328.79 31.3055 328.853 31.7558 328.807 32.2015C328.76 32.6472 328.604 33.0745 328.353 33.4458C328.103 33.817 327.764 34.1208 327.368 34.3302C326.972 34.5396 326.53 34.6482 326.082 34.6465V34.6465ZM337.918 41C337.377 41 336.847 40.8394 336.396 40.5384C335.946 40.2374 335.595 39.8096 335.388 39.309C335.18 38.8085 335.126 38.2577 335.232 37.7264C335.337 37.195 335.598 36.7069 335.981 36.3238C336.364 35.9407 336.853 35.6798 337.384 35.5741C337.915 35.4684 338.466 35.5227 338.967 35.73C339.467 35.9374 339.895 36.2884 340.196 36.7389C340.497 37.1894 340.658 37.719 340.658 38.2608C340.657 38.987 340.368 39.6833 339.854 40.1968C339.341 40.7104 338.645 40.9992 337.918 41V41Z" fill="white"/>
</svg>
