<svg width="358" height="90" viewBox="0 0 358 90" fill="none" xmlns="http://www.w3.org/2000/svg">
<path d="M30.71 52.22C30.21 51.2 29.61 50.43 28.91 49.91C28.21 49.37 27.26 49.1 26.06 49.1C24.9 49.1 23.91 49.33 23.09 49.79C22.29 50.23 21.64 50.83 21.14 51.59C20.64 52.33 20.28 53.19 20.06 54.17C19.84 55.13 19.73 56.13 19.73 57.17C19.73 58.27 19.84 59.31 20.06 60.29C20.28 61.27 20.65 62.13 21.17 62.87C21.69 63.59 22.38 64.16 23.24 64.58C24.12 65 25.2 65.21 26.48 65.21C27.7 65.21 28.74 65.03 29.6 64.67C30.48 64.31 31.29 63.91 32.03 63.47L33.47 66.62C32.87 66.9 32.28 67.15 31.7 67.37C31.12 67.59 30.53 67.78 29.93 67.94C29.33 68.08 28.7 68.18 28.04 68.24C27.4 68.32 26.7 68.36 25.94 68.36C24.48 68.36 23.11 68.14 21.83 67.7C20.55 67.24 19.43 66.56 18.47 65.66C17.51 64.76 16.75 63.63 16.19 62.27C15.63 60.89 15.35 59.27 15.35 57.41C15.35 55.69 15.6 54.14 16.1 52.76C16.6 51.36 17.31 50.17 18.23 49.19C19.17 48.21 20.31 47.45 21.65 46.91C22.99 46.37 24.5 46.1 26.18 46.1C27 46.1 27.79 46.17 28.55 46.31C29.31 46.43 30.03 46.65 30.71 46.97C31.41 47.27 32.07 47.69 32.69 48.23C33.31 48.77 33.89 49.46 34.43 50.3L30.71 52.22ZM47.2208 60.44C47.2208 58.84 46.9108 57.6 46.2908 56.72C45.6908 55.84 44.8508 55.4 43.7708 55.4C42.7308 55.4 41.8908 55.84 41.2508 56.72C40.6308 57.6 40.3208 58.84 40.3208 60.44C40.3208 61.2 40.4008 61.9 40.5608 62.54C40.7408 63.16 40.9808 63.7 41.2808 64.16C41.5808 64.62 41.9408 64.98 42.3608 65.24C42.7808 65.48 43.2508 65.6 43.7708 65.6C44.8308 65.6 45.6708 65.12 46.2908 64.16C46.9108 63.2 47.2208 61.96 47.2208 60.44ZM51.3308 60.32C51.3308 61.46 51.1508 62.52 50.7908 63.5C50.4508 64.48 49.9508 65.33 49.2908 66.05C48.6308 66.77 47.8208 67.34 46.8608 67.76C45.9208 68.16 44.8408 68.36 43.6208 68.36C42.5208 68.36 41.5108 68.18 40.5908 67.82C39.6908 67.44 38.9108 66.91 38.2508 66.23C37.6108 65.55 37.1108 64.73 36.7508 63.77C36.3908 62.81 36.2108 61.73 36.2108 60.53C36.2108 59.29 36.4008 58.19 36.7808 57.23C37.1608 56.25 37.6808 55.42 38.3408 54.74C39.0208 54.06 39.8308 53.54 40.7708 53.18C41.7308 52.82 42.7808 52.64 43.9208 52.64C45.0408 52.64 46.0608 52.82 46.9808 53.18C47.9008 53.54 48.6808 54.06 49.3208 54.74C49.9608 55.4 50.4508 56.2 50.7908 57.14C51.1508 58.08 51.3308 59.14 51.3308 60.32ZM64.7005 68V58.91C64.7005 58.49 64.6605 58.11 64.5805 57.77C64.5205 57.41 64.4005 57.1 64.2205 56.84C64.0605 56.56 63.8305 56.35 63.5305 56.21C63.2305 56.05 62.8505 55.97 62.3905 55.97C61.5905 55.97 60.9605 56.15 60.5005 56.51C60.0405 56.87 59.6905 57.35 59.4505 57.95C59.2505 58.41 59.1105 58.89 59.0305 59.39C58.9705 59.87 58.9405 60.36 58.9405 60.86V68H54.9505V53H58.9405V55.76H59.0005C59.3805 54.88 59.9505 54.14 60.7105 53.54C61.4705 52.94 62.3905 52.64 63.4705 52.64C64.2305 52.64 64.8905 52.73 65.4505 52.91C66.0105 53.09 66.4805 53.34 66.8605 53.66C67.2605 53.98 67.5805 54.36 67.8205 54.8C68.0605 55.22 68.2505 55.68 68.3905 56.18C68.6105 55.76 68.8605 55.34 69.1405 54.92C69.4205 54.48 69.7505 54.1 70.1305 53.78C70.5305 53.44 70.9805 53.17 71.4805 52.97C71.9805 52.75 72.5605 52.64 73.2205 52.64C74.3005 52.64 75.1805 52.81 75.8605 53.15C76.5405 53.49 77.0705 53.95 77.4505 54.53C77.8305 55.09 78.0905 55.74 78.2305 56.48C78.3705 57.22 78.4405 58 78.4405 58.82V68H74.4505V58.91C74.4505 58.49 74.4105 58.11 74.3305 57.77C74.2705 57.41 74.1505 57.1 73.9705 56.84C73.8105 56.56 73.5805 56.35 73.2805 56.21C72.9805 56.05 72.6005 55.97 72.1405 55.97C71.3405 55.97 70.7105 56.15 70.2505 56.51C69.7905 56.87 69.4405 57.35 69.2005 57.95C69.0005 58.41 68.8605 58.89 68.7805 59.39C68.7205 59.87 68.6905 60.36 68.6905 60.86V68H64.7005ZM93.2225 60.08C93.2225 59.52 93.1725 58.99 93.0725 58.49C92.9925 57.99 92.8325 57.55 92.5925 57.17C92.3725 56.79 92.0625 56.49 91.6625 56.27C91.2825 56.05 90.7925 55.94 90.1925 55.94C89.6125 55.94 89.1325 56.04 88.7525 56.24C88.3725 56.42 88.0425 56.68 87.7625 57.02C87.4025 57.48 87.1425 58.03 86.9825 58.67C86.8425 59.29 86.7725 59.94 86.7725 60.62V65.18C87.5525 65.44 88.3725 65.57 89.2325 65.57C90.0125 65.57 90.6525 65.44 91.1525 65.18C91.6725 64.9 92.0825 64.52 92.3825 64.04C92.7025 63.54 92.9225 62.96 93.0425 62.3C93.1625 61.62 93.2225 60.88 93.2225 60.08ZM82.7825 74.54V53H86.7725V55.76H86.8325C87.2525 54.88 87.8325 54.14 88.5725 53.54C89.3325 52.94 90.2825 52.64 91.4225 52.64C92.4225 52.64 93.2925 52.83 94.0325 53.21C94.7725 53.59 95.3925 54.11 95.8925 54.77C96.3925 55.41 96.7625 56.17 97.0025 57.05C97.2425 57.91 97.3625 58.84 97.3625 59.84C97.3625 62.56 96.6325 64.66 95.1725 66.14C93.7325 67.62 91.6825 68.36 89.0225 68.36C88.6225 68.36 88.2325 68.34 87.8525 68.3C87.4725 68.28 87.1125 68.25 86.7725 68.21V74.54H82.7825ZM111.625 67.52C110.785 67.88 110.005 68.11 109.285 68.21C108.585 68.31 107.925 68.36 107.305 68.36C106.205 68.36 105.295 68.19 104.575 67.85C103.855 67.51 103.275 67.06 102.835 66.5C102.415 65.94 102.115 65.29 101.935 64.55C101.775 63.79 101.695 63.01 101.695 62.21V55.85H99.2352V53.12H101.695V49.88L105.685 47.93V53.12H110.905V55.85H105.685V62.39C105.685 62.67 105.705 62.98 105.745 63.32C105.785 63.64 105.885 63.95 106.045 64.25C106.205 64.53 106.435 64.77 106.735 64.97C107.055 65.15 107.495 65.24 108.055 65.24C108.455 65.24 108.815 65.19 109.135 65.09C109.475 64.99 109.905 64.78 110.425 64.46L111.625 67.52ZM127.273 60.86H117.163C117.163 62.28 117.503 63.39 118.183 64.19C118.863 64.99 119.953 65.39 121.453 65.39C122.253 65.39 122.963 65.31 123.583 65.15C124.223 64.99 124.893 64.74 125.593 64.4L126.613 67.25C125.553 67.71 124.603 68.01 123.763 68.15C122.923 68.29 122.033 68.36 121.093 68.36C119.873 68.36 118.773 68.19 117.793 67.85C116.813 67.49 115.983 66.98 115.303 66.32C114.623 65.66 114.103 64.86 113.743 63.92C113.383 62.96 113.203 61.87 113.203 60.65C113.203 59.51 113.363 58.45 113.683 57.47C114.023 56.49 114.513 55.65 115.153 54.95C115.813 54.23 116.623 53.67 117.583 53.27C118.563 52.85 119.693 52.64 120.973 52.64C122.113 52.64 123.083 52.82 123.883 53.18C124.683 53.54 125.333 54.03 125.833 54.65C126.333 55.25 126.693 55.96 126.913 56.78C127.153 57.6 127.273 58.48 127.273 59.42V60.86ZM123.403 58.34C123.403 58 123.353 57.66 123.253 57.32C123.153 56.96 123.003 56.64 122.803 56.36C122.603 56.08 122.343 55.85 122.023 55.67C121.703 55.49 121.323 55.4 120.883 55.4C119.923 55.4 119.153 55.67 118.573 56.21C117.993 56.73 117.593 57.44 117.373 58.34H123.403Z" fill="#F3F3F8"/>
</svg>
