<svg width="328" height="128" viewBox="0 0 328 128" fill="none" xmlns="http://www.w3.org/2000/svg">
<circle cx="20" cy="20" r="20" fill="#F3BB67"/>
<path d="M7.83544 14.172H10.9074L13.9314 22.108L16.9874 14.172H20.0274V25.5H18.1074V16.092H18.0754L14.6354 25.5H13.2274L9.78744 16.092H9.75544V25.5H7.83544V14.172ZM22.5999 14.172H27.0639C27.8106 14.172 28.5306 14.2893 29.2239 14.524C29.9173 14.748 30.5306 15.0947 31.0639 15.564C31.5973 16.0333 32.0239 16.6253 32.3439 17.34C32.6639 18.044 32.8239 18.876 32.8239 19.836C32.8239 20.8067 32.6373 21.6493 32.2639 22.364C31.9013 23.068 31.4266 23.6547 30.8399 24.124C30.2639 24.5827 29.6186 24.9293 28.9039 25.164C28.1999 25.388 27.5066 25.5 26.8239 25.5H22.5999V14.172ZM26.1199 23.676C26.7493 23.676 27.3413 23.6067 27.8959 23.468C28.4613 23.3187 28.9519 23.0947 29.3679 22.796C29.7839 22.4867 30.1093 22.092 30.3439 21.612C30.5893 21.1213 30.7119 20.5293 30.7119 19.836C30.7119 19.1533 30.6053 18.5667 30.3919 18.076C30.1786 17.5853 29.8799 17.1907 29.4959 16.892C29.1226 16.5827 28.6746 16.3587 28.1519 16.22C27.6399 16.0707 27.0746 15.996 26.4559 15.996H24.6159V23.676H26.1199Z" fill="#0C131F"/>
<path d="M49.312 13.672H52.384L55.408 21.608L58.464 13.672H61.504V25H59.584V15.592H59.552L56.112 25H54.704L51.264 15.592H51.232V25H49.312V13.672ZM68.7005 23.944H68.6525C68.3752 24.3813 68.0232 24.7013 67.5965 24.904C67.1698 25.096 66.7005 25.192 66.1885 25.192C65.8365 25.192 65.4898 25.144 65.1485 25.048C64.8178 24.952 64.5192 24.808 64.2525 24.616C63.9965 24.424 63.7885 24.184 63.6285 23.896C63.4685 23.608 63.3885 23.272 63.3885 22.888C63.3885 22.472 63.4632 22.12 63.6125 21.832C63.7618 21.5333 63.9592 21.288 64.2045 21.096C64.4605 20.8933 64.7538 20.7333 65.0845 20.616C65.4152 20.4987 65.7565 20.4133 66.1085 20.36C66.4712 20.296 66.8338 20.2587 67.1965 20.248C67.5592 20.2267 67.9005 20.216 68.2205 20.216H68.7005V20.008C68.7005 19.528 68.5352 19.1707 68.2045 18.936C67.8738 18.6907 67.4525 18.568 66.9405 18.568C66.5352 18.568 66.1565 18.6427 65.8045 18.792C65.4525 18.9307 65.1485 19.1227 64.8925 19.368L63.8845 18.36C64.3112 17.9227 64.8072 17.608 65.3725 17.416C65.9485 17.224 66.5405 17.128 67.1485 17.128C67.6925 17.128 68.1512 17.192 68.5245 17.32C68.8978 17.4373 69.2072 17.592 69.4525 17.784C69.6978 17.976 69.8845 18.2 70.0125 18.456C70.1512 18.7013 70.2472 18.952 70.3005 19.208C70.3645 19.464 70.4018 19.7147 70.4125 19.96C70.4232 20.1947 70.4285 20.4027 70.4285 20.584V25H68.7005V23.944ZM68.5885 21.56H68.1885C67.9218 21.56 67.6232 21.5707 67.2925 21.592C66.9618 21.6133 66.6472 21.6667 66.3485 21.752C66.0605 21.8267 65.8152 21.944 65.6125 22.104C65.4098 22.2533 65.3085 22.4667 65.3085 22.744C65.3085 22.9253 65.3458 23.08 65.4205 23.208C65.5058 23.3253 65.6125 23.4267 65.7405 23.512C65.8685 23.5973 66.0125 23.6613 66.1725 23.704C66.3325 23.736 66.4925 23.752 66.6525 23.752C67.3138 23.752 67.7992 23.5973 68.1085 23.288C68.4285 22.968 68.5885 22.536 68.5885 21.992V21.56ZM72.4943 17.32H74.4143V18.536H74.4463C74.6596 18.088 74.9636 17.7413 75.3583 17.496C75.7529 17.2507 76.2063 17.128 76.7183 17.128C76.8356 17.128 76.9476 17.1387 77.0543 17.16C77.1716 17.1813 77.2889 17.208 77.4063 17.24V19.096C77.2463 19.0533 77.0863 19.0213 76.9263 19C76.7769 18.968 76.6276 18.952 76.4783 18.952C76.0303 18.952 75.6676 19.0373 75.3903 19.208C75.1236 19.368 74.9156 19.5547 74.7663 19.768C74.6276 19.9813 74.5316 20.1947 74.4783 20.408C74.4356 20.6213 74.4143 20.7813 74.4143 20.888V25H72.4943V17.32ZM78.745 17.32H80.665V25H78.745V17.32ZM78.473 14.712C78.473 14.4027 78.585 14.136 78.809 13.912C79.0437 13.6773 79.337 13.56 79.689 13.56C80.041 13.56 80.3343 13.672 80.569 13.896C80.8143 14.1093 80.937 14.3813 80.937 14.712C80.937 15.0427 80.8143 15.32 80.569 15.544C80.3343 15.7573 80.041 15.864 79.689 15.864C79.337 15.864 79.0437 15.752 78.809 15.528C78.585 15.2933 78.473 15.0213 78.473 14.712ZM84.4053 21.832C84.4693 22.408 84.6933 22.856 85.0773 23.176C85.4613 23.496 85.9253 23.656 86.4693 23.656C86.9493 23.656 87.3493 23.56 87.6693 23.368C87.9999 23.1653 88.2879 22.9147 88.5333 22.616L89.9093 23.656C89.4613 24.2107 88.9599 24.6053 88.4053 24.84C87.8506 25.0747 87.2693 25.192 86.6613 25.192C86.0853 25.192 85.5413 25.096 85.0293 24.904C84.5173 24.712 84.0746 24.44 83.7013 24.088C83.3279 23.736 83.0293 23.3147 82.8053 22.824C82.5919 22.3227 82.4853 21.768 82.4853 21.16C82.4853 20.552 82.5919 20.0027 82.8053 19.512C83.0293 19.0107 83.3279 18.584 83.7013 18.232C84.0746 17.88 84.5173 17.608 85.0293 17.416C85.5413 17.224 86.0853 17.128 86.6613 17.128C87.1946 17.128 87.6799 17.224 88.1173 17.416C88.5653 17.5973 88.9439 17.864 89.2533 18.216C89.5733 18.568 89.8186 19.0053 89.9893 19.528C90.1706 20.04 90.2613 20.632 90.2613 21.304V21.832H84.4053ZM88.3413 20.392C88.3306 19.8267 88.1546 19.384 87.8133 19.064C87.4719 18.7333 86.9973 18.568 86.3893 18.568C85.8133 18.568 85.3546 18.7333 85.0133 19.064C84.6826 19.3947 84.4799 19.8373 84.4053 20.392H88.3413ZM95.4648 21.88H91.5128V20.248H95.4648V21.88ZM100.944 13.672H102.688L107.568 25H105.264L104.208 22.408H99.2956L98.2716 25H96.0156L100.944 13.672ZM103.504 20.68L101.76 16.072L99.9836 20.68H103.504ZM108.651 17.32H110.475V18.552H110.507C110.688 18.168 110.965 17.8373 111.339 17.56C111.712 17.272 112.219 17.128 112.859 17.128C113.371 17.128 113.803 17.2133 114.155 17.384C114.517 17.5547 114.811 17.7787 115.035 18.056C115.259 18.3333 115.419 18.6533 115.515 19.016C115.611 19.3787 115.659 19.7573 115.659 20.152V25H113.739V21.112C113.739 20.8987 113.728 20.664 113.707 20.408C113.685 20.1413 113.627 19.896 113.531 19.672C113.445 19.4373 113.307 19.2453 113.115 19.096C112.923 18.936 112.661 18.856 112.331 18.856C112.011 18.856 111.739 18.9093 111.515 19.016C111.301 19.1227 111.12 19.2667 110.971 19.448C110.832 19.6293 110.731 19.8373 110.667 20.072C110.603 20.3067 110.571 20.552 110.571 20.808V25H108.651V17.32ZM117.838 17.32H119.662V18.552H119.694C119.875 18.168 120.153 17.8373 120.526 17.56C120.899 17.272 121.406 17.128 122.046 17.128C122.558 17.128 122.99 17.2133 123.342 17.384C123.705 17.5547 123.998 17.7787 124.222 18.056C124.446 18.3333 124.606 18.6533 124.702 19.016C124.798 19.3787 124.846 19.7573 124.846 20.152V25H122.926V21.112C122.926 20.8987 122.915 20.664 122.894 20.408C122.873 20.1413 122.814 19.896 122.718 19.672C122.633 19.4373 122.494 19.2453 122.302 19.096C122.11 18.936 121.849 18.856 121.518 18.856C121.198 18.856 120.926 18.9093 120.702 19.016C120.489 19.1227 120.307 19.2667 120.158 19.448C120.019 19.6293 119.918 19.8373 119.854 20.072C119.79 20.3067 119.758 20.552 119.758 20.808V25H117.838V17.32ZM128.562 21.832C128.626 22.408 128.85 22.856 129.234 23.176C129.618 23.496 130.082 23.656 130.626 23.656C131.106 23.656 131.506 23.56 131.826 23.368C132.156 23.1653 132.444 22.9147 132.69 22.616L134.066 23.656C133.618 24.2107 133.116 24.6053 132.562 24.84C132.007 25.0747 131.426 25.192 130.818 25.192C130.242 25.192 129.698 25.096 129.186 24.904C128.674 24.712 128.231 24.44 127.858 24.088C127.484 23.736 127.186 23.3147 126.962 22.824C126.748 22.3227 126.642 21.768 126.642 21.16C126.642 20.552 126.748 20.0027 126.962 19.512C127.186 19.0107 127.484 18.584 127.858 18.232C128.231 17.88 128.674 17.608 129.186 17.416C129.698 17.224 130.242 17.128 130.818 17.128C131.351 17.128 131.836 17.224 132.274 17.416C132.722 17.5973 133.1 17.864 133.41 18.216C133.73 18.568 133.975 19.0053 134.146 19.528C134.327 20.04 134.418 20.632 134.418 21.304V21.832H128.562ZM132.498 20.392C132.487 19.8267 132.311 19.384 131.97 19.064C131.628 18.7333 131.154 18.568 130.546 18.568C129.97 18.568 129.511 18.7333 129.17 19.064C128.839 19.3947 128.636 19.8373 128.562 20.392H132.498ZM141.123 13.672H145.587C146.334 13.672 147.054 13.7893 147.747 14.024C148.441 14.248 149.054 14.5947 149.587 15.064C150.121 15.5333 150.547 16.1253 150.867 16.84C151.187 17.544 151.347 18.376 151.347 19.336C151.347 20.3067 151.161 21.1493 150.787 21.864C150.425 22.568 149.95 23.1547 149.363 23.624C148.787 24.0827 148.142 24.4293 147.427 24.664C146.723 24.888 146.03 25 145.347 25H141.123V13.672ZM144.643 23.176C145.273 23.176 145.865 23.1067 146.419 22.968C146.985 22.8187 147.475 22.5947 147.891 22.296C148.307 21.9867 148.633 21.592 148.867 21.112C149.113 20.6213 149.235 20.0293 149.235 19.336C149.235 18.6533 149.129 18.0667 148.915 17.576C148.702 17.0853 148.403 16.6907 148.019 16.392C147.646 16.0827 147.198 15.8587 146.675 15.72C146.163 15.5707 145.598 15.496 144.979 15.496H143.139V23.176H144.643ZM160.096 25H158.272V23.768H158.24C158.059 24.152 157.781 24.488 157.408 24.776C157.035 25.0533 156.528 25.192 155.888 25.192C155.376 25.192 154.939 25.112 154.576 24.952C154.224 24.7813 153.936 24.5573 153.712 24.28C153.488 23.992 153.328 23.6667 153.232 23.304C153.136 22.9413 153.088 22.5627 153.088 22.168V17.32H155.008V21.208C155.008 21.4213 155.019 21.6613 155.04 21.928C155.061 22.184 155.115 22.4293 155.2 22.664C155.296 22.888 155.435 23.08 155.616 23.24C155.808 23.3893 156.075 23.464 156.416 23.464C156.736 23.464 157.003 23.4107 157.216 23.304C157.44 23.1973 157.621 23.0533 157.76 22.872C157.909 22.6907 158.016 22.4827 158.08 22.248C158.144 22.0133 158.176 21.768 158.176 21.512V17.32H160.096V25ZM162.276 12.904H164.196V18.296H164.244C164.34 18.168 164.462 18.04 164.612 17.912C164.761 17.7733 164.942 17.6453 165.156 17.528C165.369 17.4107 165.614 17.3147 165.891 17.24C166.169 17.1653 166.489 17.128 166.852 17.128C167.396 17.128 167.897 17.2347 168.356 17.448C168.814 17.6507 169.204 17.9333 169.524 18.296C169.854 18.6587 170.11 19.0853 170.292 19.576C170.473 20.0667 170.564 20.5947 170.564 21.16C170.564 21.7253 170.478 22.2533 170.308 22.744C170.137 23.2347 169.886 23.6613 169.556 24.024C169.225 24.3867 168.825 24.6747 168.356 24.888C167.886 25.0907 167.358 25.192 166.772 25.192C166.228 25.192 165.721 25.0853 165.252 24.872C164.782 24.6587 164.409 24.3173 164.132 23.848H164.1V25H162.276V12.904ZM168.644 21.16C168.644 20.8613 168.59 20.5733 168.484 20.296C168.388 20.0187 168.238 19.7733 168.036 19.56C167.844 19.3467 167.609 19.176 167.332 19.048C167.054 18.92 166.74 18.856 166.388 18.856C166.036 18.856 165.721 18.92 165.444 19.048C165.166 19.176 164.926 19.3467 164.724 19.56C164.532 19.7733 164.382 20.0187 164.276 20.296C164.18 20.5733 164.132 20.8613 164.132 21.16C164.132 21.4587 164.18 21.7467 164.276 22.024C164.382 22.3013 164.532 22.5467 164.724 22.76C164.926 22.9733 165.166 23.144 165.444 23.272C165.721 23.4 166.036 23.464 166.388 23.464C166.74 23.464 167.054 23.4 167.332 23.272C167.609 23.144 167.844 22.9733 168.036 22.76C168.238 22.5467 168.388 22.3013 168.484 22.024C168.59 21.7467 168.644 21.4587 168.644 21.16ZM171.97 21.16C171.97 20.552 172.076 20.0027 172.29 19.512C172.514 19.0107 172.812 18.584 173.186 18.232C173.559 17.88 174.002 17.608 174.514 17.416C175.026 17.224 175.57 17.128 176.146 17.128C176.722 17.128 177.266 17.224 177.778 17.416C178.29 17.608 178.732 17.88 179.106 18.232C179.479 18.584 179.772 19.0107 179.986 19.512C180.21 20.0027 180.322 20.552 180.322 21.16C180.322 21.768 180.21 22.3227 179.986 22.824C179.772 23.3147 179.479 23.736 179.106 24.088C178.732 24.44 178.29 24.712 177.778 24.904C177.266 25.096 176.722 25.192 176.146 25.192C175.57 25.192 175.026 25.096 174.514 24.904C174.002 24.712 173.559 24.44 173.186 24.088C172.812 23.736 172.514 23.3147 172.29 22.824C172.076 22.3227 171.97 21.768 171.97 21.16ZM173.89 21.16C173.89 21.4587 173.938 21.7467 174.034 22.024C174.14 22.3013 174.29 22.5467 174.482 22.76C174.684 22.9733 174.924 23.144 175.202 23.272C175.479 23.4 175.794 23.464 176.146 23.464C176.498 23.464 176.812 23.4 177.09 23.272C177.367 23.144 177.602 22.9733 177.794 22.76C177.996 22.5467 178.146 22.3013 178.242 22.024C178.348 21.7467 178.402 21.4587 178.402 21.16C178.402 20.8613 178.348 20.5733 178.242 20.296C178.146 20.0187 177.996 19.7733 177.794 19.56C177.602 19.3467 177.367 19.176 177.09 19.048C176.812 18.92 176.498 18.856 176.146 18.856C175.794 18.856 175.479 18.92 175.202 19.048C174.924 19.176 174.684 19.3467 174.482 19.56C174.29 19.7733 174.14 20.0187 174.034 20.296C173.938 20.5733 173.89 20.8613 173.89 21.16ZM182.151 17.32H184.071V25H182.151V17.32ZM181.879 14.712C181.879 14.4027 181.991 14.136 182.215 13.912C182.45 13.6773 182.743 13.56 183.095 13.56C183.447 13.56 183.741 13.672 183.975 13.896C184.221 14.1093 184.343 14.3813 184.343 14.712C184.343 15.0427 184.221 15.32 183.975 15.544C183.741 15.7573 183.447 15.864 183.095 15.864C182.743 15.864 182.45 15.752 182.215 15.528C181.991 15.2933 181.879 15.0213 181.879 14.712ZM190.372 19.448C189.998 18.9253 189.497 18.664 188.868 18.664C188.612 18.664 188.361 18.728 188.116 18.856C187.87 18.984 187.748 19.192 187.748 19.48C187.748 19.7147 187.849 19.8853 188.052 19.992C188.254 20.0987 188.51 20.1893 188.82 20.264C189.129 20.3387 189.46 20.4187 189.812 20.504C190.174 20.5787 190.51 20.7013 190.82 20.872C191.129 21.032 191.385 21.256 191.588 21.544C191.79 21.832 191.892 22.2267 191.892 22.728C191.892 23.1867 191.79 23.576 191.588 23.896C191.396 24.2053 191.14 24.456 190.82 24.648C190.51 24.84 190.158 24.9787 189.764 25.064C189.369 25.1493 188.974 25.192 188.58 25.192C187.982 25.192 187.433 25.1067 186.932 24.936C186.43 24.7653 185.982 24.456 185.588 24.008L186.868 22.808C187.113 23.0853 187.374 23.3147 187.652 23.496C187.94 23.6667 188.286 23.752 188.692 23.752C188.83 23.752 188.974 23.736 189.124 23.704C189.273 23.672 189.412 23.6187 189.54 23.544C189.668 23.4693 189.769 23.3787 189.844 23.272C189.929 23.1547 189.972 23.0213 189.972 22.872C189.972 22.6053 189.87 22.408 189.668 22.28C189.465 22.152 189.209 22.0507 188.9 21.976C188.59 21.8907 188.254 21.816 187.892 21.752C187.54 21.6773 187.209 21.5653 186.9 21.416C186.59 21.256 186.334 21.0373 186.132 20.76C185.929 20.4827 185.828 20.0987 185.828 19.608C185.828 19.1813 185.913 18.8133 186.084 18.504C186.265 18.184 186.5 17.9227 186.788 17.72C187.076 17.5173 187.406 17.368 187.78 17.272C188.153 17.176 188.532 17.128 188.916 17.128C189.428 17.128 189.934 17.2187 190.436 17.4C190.937 17.5707 191.342 17.8693 191.652 18.296L190.372 19.448Z" fill="#F3F3F4"/>
<rect y="56" width="328" height="72" rx="14" fill="#242B35"/>
<path d="M15.952 76.672H18.272L21.36 85.232L24.544 76.672H26.72L22.144 88H20.4L15.952 76.672ZM26.5009 84.16C26.5009 83.552 26.6075 83.0027 26.8209 82.512C27.0449 82.0107 27.3435 81.584 27.7169 81.232C28.0902 80.88 28.5329 80.608 29.0449 80.416C29.5569 80.224 30.1009 80.128 30.6769 80.128C31.2529 80.128 31.7969 80.224 32.3089 80.416C32.8209 80.608 33.2635 80.88 33.6369 81.232C34.0102 81.584 34.3035 82.0107 34.5169 82.512C34.7409 83.0027 34.8529 83.552 34.8529 84.16C34.8529 84.768 34.7409 85.3227 34.5169 85.824C34.3035 86.3147 34.0102 86.736 33.6369 87.088C33.2635 87.44 32.8209 87.712 32.3089 87.904C31.7969 88.096 31.2529 88.192 30.6769 88.192C30.1009 88.192 29.5569 88.096 29.0449 87.904C28.5329 87.712 28.0902 87.44 27.7169 87.088C27.3435 86.736 27.0449 86.3147 26.8209 85.824C26.6075 85.3227 26.5009 84.768 26.5009 84.16ZM28.4209 84.16C28.4209 84.4587 28.4689 84.7467 28.5649 85.024C28.6715 85.3013 28.8209 85.5467 29.0129 85.76C29.2155 85.9733 29.4555 86.144 29.7329 86.272C30.0102 86.4 30.3249 86.464 30.6769 86.464C31.0289 86.464 31.3435 86.4 31.6209 86.272C31.8982 86.144 32.1329 85.9733 32.3249 85.76C32.5275 85.5467 32.6769 85.3013 32.7729 85.024C32.8795 84.7467 32.9329 84.4587 32.9329 84.16C32.9329 83.8613 32.8795 83.5733 32.7729 83.296C32.6769 83.0187 32.5275 82.7733 32.3249 82.56C32.1329 82.3467 31.8982 82.176 31.6209 82.048C31.3435 81.92 31.0289 81.856 30.6769 81.856C30.3249 81.856 30.0102 81.92 29.7329 82.048C29.4555 82.176 29.2155 82.3467 29.0129 82.56C28.8209 82.7733 28.6715 83.0187 28.5649 83.296C28.4689 83.5733 28.4209 83.8613 28.4209 84.16ZM40.7465 82.448C40.3732 81.9253 39.8718 81.664 39.2425 81.664C38.9865 81.664 38.7358 81.728 38.4905 81.856C38.2452 81.984 38.1225 82.192 38.1225 82.48C38.1225 82.7147 38.2238 82.8853 38.4265 82.992C38.6292 83.0987 38.8852 83.1893 39.1945 83.264C39.5038 83.3387 39.8345 83.4187 40.1865 83.504C40.5492 83.5787 40.8852 83.7013 41.1945 83.872C41.5038 84.032 41.7598 84.256 41.9625 84.544C42.1652 84.832 42.2665 85.2267 42.2665 85.728C42.2665 86.1867 42.1652 86.576 41.9625 86.896C41.7705 87.2053 41.5145 87.456 41.1945 87.648C40.8852 87.84 40.5332 87.9787 40.1385 88.064C39.7438 88.1493 39.3492 88.192 38.9545 88.192C38.3572 88.192 37.8078 88.1067 37.3065 87.936C36.8052 87.7653 36.3572 87.456 35.9625 87.008L37.2425 85.808C37.4878 86.0853 37.7492 86.3147 38.0265 86.496C38.3145 86.6667 38.6612 86.752 39.0665 86.752C39.2052 86.752 39.3492 86.736 39.4985 86.704C39.6478 86.672 39.7865 86.6187 39.9145 86.544C40.0425 86.4693 40.1438 86.3787 40.2185 86.272C40.3038 86.1547 40.3465 86.0213 40.3465 85.872C40.3465 85.6053 40.2452 85.408 40.0425 85.28C39.8398 85.152 39.5838 85.0507 39.2745 84.976C38.9652 84.8907 38.6292 84.816 38.2665 84.752C37.9145 84.6773 37.5838 84.5653 37.2745 84.416C36.9652 84.256 36.7092 84.0373 36.5065 83.76C36.3038 83.4827 36.2025 83.0987 36.2025 82.608C36.2025 82.1813 36.2878 81.8133 36.4585 81.504C36.6398 81.184 36.8745 80.9227 37.1625 80.72C37.4505 80.5173 37.7812 80.368 38.1545 80.272C38.5278 80.176 38.9065 80.128 39.2905 80.128C39.8025 80.128 40.3092 80.2187 40.8105 80.4C41.3118 80.5707 41.7172 80.8693 42.0265 81.296L40.7465 82.448ZM48.5263 80.32H50.4463V88H48.5263V80.32ZM48.2543 77.712C48.2543 77.4027 48.3663 77.136 48.5903 76.912C48.8249 76.6773 49.1183 76.56 49.4703 76.56C49.8223 76.56 50.1156 76.672 50.3503 76.896C50.5956 77.1093 50.7183 77.3813 50.7183 77.712C50.7183 78.0427 50.5956 78.32 50.3503 78.544C50.1156 78.7573 49.8223 78.864 49.4703 78.864C49.1183 78.864 48.8249 78.752 48.5903 78.528C48.3663 78.2933 48.2543 78.0213 48.2543 77.712ZM52.6505 80.32H54.4745V81.552H54.5065C54.6878 81.168 54.9652 80.8373 55.3385 80.56C55.7118 80.272 56.2185 80.128 56.8585 80.128C57.3705 80.128 57.8025 80.2133 58.1545 80.384C58.5172 80.5547 58.8105 80.7787 59.0345 81.056C59.2585 81.3333 59.4185 81.6533 59.5145 82.016C59.6105 82.3787 59.6585 82.7573 59.6585 83.152V88H57.7385V84.112C57.7385 83.8987 57.7278 83.664 57.7065 83.408C57.6852 83.1413 57.6265 82.896 57.5305 82.672C57.4452 82.4373 57.3065 82.2453 57.1145 82.096C56.9225 81.936 56.6612 81.856 56.3305 81.856C56.0105 81.856 55.7385 81.9093 55.5145 82.016C55.3012 82.1227 55.1198 82.2667 54.9705 82.448C54.8318 82.6293 54.7305 82.8373 54.6665 83.072C54.6025 83.3067 54.5705 83.552 54.5705 83.808V88H52.6505V80.32ZM62.526 81.952H60.942V80.32H62.526V79.232C62.526 78.6987 62.5633 78.2187 62.638 77.792C62.7127 77.3547 62.8513 76.9813 63.054 76.672C63.2673 76.3627 63.5607 76.128 63.934 75.968C64.3073 75.7973 64.7927 75.712 65.39 75.712C65.8273 75.712 66.2327 75.7493 66.606 75.824L66.478 77.456C66.3393 77.424 66.206 77.3973 66.078 77.376C65.95 77.3547 65.8167 77.344 65.678 77.344C65.4113 77.344 65.198 77.3867 65.038 77.472C64.878 77.5573 64.75 77.6747 64.654 77.824C64.5687 77.9627 64.51 78.128 64.478 78.32C64.4567 78.512 64.446 78.7147 64.446 78.928V80.32H66.222V81.952H64.446V88H62.526V81.952ZM67.079 84.16C67.079 83.552 67.1857 83.0027 67.399 82.512C67.623 82.0107 67.9217 81.584 68.295 81.232C68.6683 80.88 69.111 80.608 69.623 80.416C70.135 80.224 70.679 80.128 71.255 80.128C71.831 80.128 72.375 80.224 72.887 80.416C73.399 80.608 73.8417 80.88 74.215 81.232C74.5883 81.584 74.8817 82.0107 75.095 82.512C75.319 83.0027 75.431 83.552 75.431 84.16C75.431 84.768 75.319 85.3227 75.095 85.824C74.8817 86.3147 74.5883 86.736 74.215 87.088C73.8417 87.44 73.399 87.712 72.887 87.904C72.375 88.096 71.831 88.192 71.255 88.192C70.679 88.192 70.135 88.096 69.623 87.904C69.111 87.712 68.6683 87.44 68.295 87.088C67.9217 86.736 67.623 86.3147 67.399 85.824C67.1857 85.3227 67.079 84.768 67.079 84.16ZM68.999 84.16C68.999 84.4587 69.047 84.7467 69.143 85.024C69.2497 85.3013 69.399 85.5467 69.591 85.76C69.7937 85.9733 70.0337 86.144 70.311 86.272C70.5883 86.4 70.903 86.464 71.255 86.464C71.607 86.464 71.9217 86.4 72.199 86.272C72.4763 86.144 72.711 85.9733 72.903 85.76C73.1057 85.5467 73.255 85.3013 73.351 85.024C73.4577 84.7467 73.511 84.4587 73.511 84.16C73.511 83.8613 73.4577 83.5733 73.351 83.296C73.255 83.0187 73.1057 82.7733 72.903 82.56C72.711 82.3467 72.4763 82.176 72.199 82.048C71.9217 81.92 71.607 81.856 71.255 81.856C70.903 81.856 70.5883 81.92 70.311 82.048C70.0337 82.176 69.7937 82.3467 69.591 82.56C69.399 82.7733 69.2497 83.0187 69.143 83.296C69.047 83.5733 68.999 83.8613 68.999 84.16ZM77.2286 80.32H79.1486V81.536H79.1806C79.394 81.088 79.698 80.7413 80.0926 80.496C80.4873 80.2507 80.9406 80.128 81.4526 80.128C81.57 80.128 81.682 80.1387 81.7886 80.16C81.906 80.1813 82.0233 80.208 82.1406 80.24V82.096C81.9806 82.0533 81.8206 82.0213 81.6606 82C81.5113 81.968 81.362 81.952 81.2126 81.952C80.7646 81.952 80.402 82.0373 80.1246 82.208C79.858 82.368 79.65 82.5547 79.5006 82.768C79.362 82.9813 79.266 83.1947 79.2126 83.408C79.17 83.6213 79.1486 83.7813 79.1486 83.888V88H77.2286V80.32ZM83.6486 80.32H85.4726V81.52H85.5046C85.6753 81.1573 85.9473 80.8373 86.3206 80.56C86.7046 80.272 87.2166 80.128 87.8566 80.128C89.062 80.128 89.862 80.6027 90.2566 81.552C90.534 81.0613 90.8806 80.704 91.2966 80.48C91.7126 80.2453 92.2086 80.128 92.7846 80.128C93.2966 80.128 93.7286 80.2133 94.0806 80.384C94.4326 80.5547 94.7153 80.7893 94.9286 81.088C95.1526 81.3867 95.3126 81.7387 95.4086 82.144C95.5046 82.5387 95.5526 82.9653 95.5526 83.424V88H93.6326V83.648C93.6326 83.4133 93.6113 83.1893 93.5686 82.976C93.526 82.752 93.4513 82.56 93.3446 82.4C93.238 82.2293 93.094 82.096 92.9126 82C92.7313 81.904 92.4966 81.856 92.2086 81.856C91.91 81.856 91.654 81.9147 91.4406 82.032C91.238 82.1387 91.0673 82.288 90.9286 82.48C90.8006 82.6613 90.7046 82.8747 90.6406 83.12C90.5873 83.3547 90.5606 83.5947 90.5606 83.84V88H88.6406V83.424C88.6406 82.944 88.5393 82.5653 88.3366 82.288C88.134 82 87.798 81.856 87.3286 81.856C87.0086 81.856 86.7366 81.9093 86.5126 82.016C86.2993 82.1227 86.118 82.2667 85.9686 82.448C85.83 82.6293 85.7286 82.8373 85.6646 83.072C85.6006 83.3067 85.5686 83.552 85.5686 83.808V88H83.6486V80.32ZM102.451 86.944H102.403C102.125 87.3813 101.773 87.7013 101.347 87.904C100.92 88.096 100.451 88.192 99.9385 88.192C99.5865 88.192 99.2398 88.144 98.8985 88.048C98.5678 87.952 98.2692 87.808 98.0025 87.616C97.7465 87.424 97.5385 87.184 97.3785 86.896C97.2185 86.608 97.1385 86.272 97.1385 85.888C97.1385 85.472 97.2132 85.12 97.3625 84.832C97.5118 84.5333 97.7092 84.288 97.9545 84.096C98.2105 83.8933 98.5038 83.7333 98.8345 83.616C99.1652 83.4987 99.5065 83.4133 99.8585 83.36C100.221 83.296 100.584 83.2587 100.947 83.248C101.309 83.2267 101.651 83.216 101.971 83.216H102.451V83.008C102.451 82.528 102.285 82.1707 101.955 81.936C101.624 81.6907 101.203 81.568 100.691 81.568C100.285 81.568 99.9065 81.6427 99.5545 81.792C99.2025 81.9307 98.8985 82.1227 98.6425 82.368L97.6345 81.36C98.0612 80.9227 98.5572 80.608 99.1225 80.416C99.6985 80.224 100.291 80.128 100.899 80.128C101.443 80.128 101.901 80.192 102.275 80.32C102.648 80.4373 102.957 80.592 103.203 80.784C103.448 80.976 103.635 81.2 103.763 81.456C103.901 81.7013 103.997 81.952 104.051 82.208C104.115 82.464 104.152 82.7147 104.163 82.96C104.173 83.1947 104.179 83.4027 104.179 83.584V88H102.451V86.944ZM102.339 84.56H101.939C101.672 84.56 101.373 84.5707 101.043 84.592C100.712 84.6133 100.397 84.6667 100.099 84.752C99.8105 84.8267 99.5652 84.944 99.3625 85.104C99.1598 85.2533 99.0585 85.4667 99.0585 85.744C99.0585 85.9253 99.0958 86.08 99.1705 86.208C99.2558 86.3253 99.3625 86.4267 99.4905 86.512C99.6185 86.5973 99.7625 86.6613 99.9225 86.704C100.083 86.736 100.243 86.752 100.403 86.752C101.064 86.752 101.549 86.5973 101.859 86.288C102.179 85.968 102.339 85.536 102.339 84.992V84.56ZM105.348 81.952V80.32H106.932V78.096H108.852V80.32H110.964V81.952H108.852V85.312C108.852 85.696 108.922 86 109.06 86.224C109.21 86.448 109.498 86.56 109.924 86.56C110.095 86.56 110.282 86.544 110.484 86.512C110.687 86.4693 110.847 86.4053 110.964 86.32V87.936C110.762 88.032 110.511 88.096 110.212 88.128C109.924 88.1707 109.668 88.192 109.444 88.192C108.932 88.192 108.511 88.1333 108.18 88.016C107.86 87.9093 107.604 87.744 107.412 87.52C107.231 87.2853 107.103 86.9973 107.028 86.656C106.964 86.3147 106.932 85.92 106.932 85.472V81.952H105.348ZM112.511 80.32H114.431V88H112.511V80.32ZM112.239 77.712C112.239 77.4027 112.351 77.136 112.575 76.912C112.809 76.6773 113.103 76.56 113.455 76.56C113.807 76.56 114.1 76.672 114.335 76.896C114.58 77.1093 114.703 77.3813 114.703 77.712C114.703 78.0427 114.58 78.32 114.335 78.544C114.1 78.7573 113.807 78.864 113.455 78.864C113.103 78.864 112.809 78.752 112.575 78.528C112.351 78.2933 112.239 78.0213 112.239 77.712ZM116.251 84.16C116.251 83.552 116.358 83.0027 116.571 82.512C116.795 82.0107 117.094 81.584 117.467 81.232C117.84 80.88 118.283 80.608 118.795 80.416C119.307 80.224 119.851 80.128 120.427 80.128C121.003 80.128 121.547 80.224 122.059 80.416C122.571 80.608 123.014 80.88 123.387 81.232C123.76 81.584 124.054 82.0107 124.267 82.512C124.491 83.0027 124.603 83.552 124.603 84.16C124.603 84.768 124.491 85.3227 124.267 85.824C124.054 86.3147 123.76 86.736 123.387 87.088C123.014 87.44 122.571 87.712 122.059 87.904C121.547 88.096 121.003 88.192 120.427 88.192C119.851 88.192 119.307 88.096 118.795 87.904C118.283 87.712 117.84 87.44 117.467 87.088C117.094 86.736 116.795 86.3147 116.571 85.824C116.358 85.3227 116.251 84.768 116.251 84.16ZM118.171 84.16C118.171 84.4587 118.219 84.7467 118.315 85.024C118.422 85.3013 118.571 85.5467 118.763 85.76C118.966 85.9733 119.206 86.144 119.483 86.272C119.76 86.4 120.075 86.464 120.427 86.464C120.779 86.464 121.094 86.4 121.371 86.272C121.648 86.144 121.883 85.9733 122.075 85.76C122.278 85.5467 122.427 85.3013 122.523 85.024C122.63 84.7467 122.683 84.4587 122.683 84.16C122.683 83.8613 122.63 83.5733 122.523 83.296C122.427 83.0187 122.278 82.7733 122.075 82.56C121.883 82.3467 121.648 82.176 121.371 82.048C121.094 81.92 120.779 81.856 120.427 81.856C120.075 81.856 119.76 81.92 119.483 82.048C119.206 82.176 118.966 82.3467 118.763 82.56C118.571 82.7733 118.422 83.0187 118.315 83.296C118.219 83.5733 118.171 83.8613 118.171 84.16ZM126.401 80.32H128.225V81.552H128.257C128.438 81.168 128.715 80.8373 129.089 80.56C129.462 80.272 129.969 80.128 130.609 80.128C131.121 80.128 131.553 80.2133 131.905 80.384C132.267 80.5547 132.561 80.7787 132.785 81.056C133.009 81.3333 133.169 81.6533 133.265 82.016C133.361 82.3787 133.409 82.7573 133.409 83.152V88H131.489V84.112C131.489 83.8987 131.478 83.664 131.457 83.408C131.435 83.1413 131.377 82.896 131.281 82.672C131.195 82.4373 131.057 82.2453 130.865 82.096C130.673 81.936 130.411 81.856 130.081 81.856C129.761 81.856 129.489 81.9093 129.265 82.016C129.051 82.1227 128.87 82.2667 128.721 82.448C128.582 82.6293 128.481 82.8373 128.417 83.072C128.353 83.3067 128.321 83.552 128.321 83.808V88H126.401V80.32ZM139.684 82.448C139.311 81.9253 138.809 81.664 138.18 81.664C137.924 81.664 137.673 81.728 137.428 81.856C137.183 81.984 137.06 82.192 137.06 82.48C137.06 82.7147 137.161 82.8853 137.364 82.992C137.567 83.0987 137.823 83.1893 138.132 83.264C138.441 83.3387 138.772 83.4187 139.124 83.504C139.487 83.5787 139.823 83.7013 140.132 83.872C140.441 84.032 140.697 84.256 140.9 84.544C141.103 84.832 141.204 85.2267 141.204 85.728C141.204 86.1867 141.103 86.576 140.9 86.896C140.708 87.2053 140.452 87.456 140.132 87.648C139.823 87.84 139.471 87.9787 139.076 88.064C138.681 88.1493 138.287 88.192 137.892 88.192C137.295 88.192 136.745 88.1067 136.244 87.936C135.743 87.7653 135.295 87.456 134.9 87.008L136.18 85.808C136.425 86.0853 136.687 86.3147 136.964 86.496C137.252 86.6667 137.599 86.752 138.004 86.752C138.143 86.752 138.287 86.736 138.436 86.704C138.585 86.672 138.724 86.6187 138.852 86.544C138.98 86.4693 139.081 86.3787 139.156 86.272C139.241 86.1547 139.284 86.0213 139.284 85.872C139.284 85.6053 139.183 85.408 138.98 85.28C138.777 85.152 138.521 85.0507 138.212 84.976C137.903 84.8907 137.567 84.816 137.204 84.752C136.852 84.6773 136.521 84.5653 136.212 84.416C135.903 84.256 135.647 84.0373 135.444 83.76C135.241 83.4827 135.14 83.0987 135.14 82.608C135.14 82.1813 135.225 81.8133 135.396 81.504C135.577 81.184 135.812 80.9227 136.1 80.72C136.388 80.5173 136.719 80.368 137.092 80.272C137.465 80.176 137.844 80.128 138.228 80.128C138.74 80.128 139.247 80.2187 139.748 80.4C140.249 80.5707 140.655 80.8693 140.964 81.296L139.684 82.448Z" fill="#F3F3F4"/>
<path d="M17.183 97.796H18.821L23.891 105.362H23.917V97.796H25.165V107H23.579L18.457 99.434H18.431V107H17.183V97.796ZM28.1797 103.919C28.1797 104.231 28.2273 104.521 28.3227 104.79C28.418 105.05 28.5523 105.275 28.7257 105.466C28.899 105.648 29.1113 105.795 29.3627 105.908C29.614 106.012 29.8957 106.064 30.2077 106.064C30.5197 106.064 30.8013 106.012 31.0527 105.908C31.304 105.795 31.5163 105.648 31.6897 105.466C31.863 105.275 31.9973 105.05 32.0927 104.79C32.188 104.521 32.2357 104.231 32.2357 103.919C32.2357 103.607 32.188 103.321 32.0927 103.061C31.9973 102.792 31.863 102.567 31.6897 102.385C31.5163 102.194 31.304 102.047 31.0527 101.943C30.8013 101.83 30.5197 101.774 30.2077 101.774C29.8957 101.774 29.614 101.83 29.3627 101.943C29.1113 102.047 28.899 102.194 28.7257 102.385C28.5523 102.567 28.418 102.792 28.3227 103.061C28.2273 103.321 28.1797 103.607 28.1797 103.919ZM26.9317 103.919C26.9317 103.468 27.014 103.048 27.1787 102.658C27.352 102.268 27.586 101.926 27.8807 101.631C28.1753 101.336 28.522 101.107 28.9207 100.942C29.3193 100.769 29.7483 100.682 30.2077 100.682C30.667 100.682 31.096 100.769 31.4947 100.942C31.8933 101.107 32.24 101.336 32.5347 101.631C32.8293 101.926 33.059 102.268 33.2237 102.658C33.397 103.048 33.4837 103.468 33.4837 103.919C33.4837 104.37 33.397 104.794 33.2237 105.193C33.059 105.583 32.8293 105.925 32.5347 106.22C32.24 106.506 31.8933 106.736 31.4947 106.909C31.096 107.074 30.667 107.156 30.2077 107.156C29.7483 107.156 29.3193 107.074 28.9207 106.909C28.522 106.736 28.1753 106.506 27.8807 106.22C27.586 105.925 27.352 105.583 27.1787 105.193C27.014 104.794 26.9317 104.37 26.9317 103.919ZM34.9494 100.838H36.0414V101.8H36.0674C36.0934 101.713 36.1584 101.605 36.2624 101.475C36.3751 101.345 36.5138 101.224 36.6784 101.111C36.8518 100.99 37.0511 100.89 37.2764 100.812C37.5104 100.725 37.7661 100.682 38.0434 100.682C38.5028 100.682 38.8884 100.777 39.2004 100.968C39.5124 101.159 39.7681 101.445 39.9674 101.826C40.1668 101.445 40.4484 101.159 40.8124 100.968C41.1764 100.777 41.5448 100.682 41.9174 100.682C42.3941 100.682 42.7841 100.76 43.0874 100.916C43.3908 101.072 43.6291 101.28 43.8024 101.54C43.9758 101.791 44.0928 102.082 44.1534 102.411C44.2228 102.732 44.2574 103.065 44.2574 103.412V107H43.0874V103.568C43.0874 103.334 43.0701 103.109 43.0354 102.892C43.0094 102.675 42.9488 102.485 42.8534 102.32C42.7581 102.155 42.6238 102.025 42.4504 101.93C42.2771 101.826 42.0474 101.774 41.7614 101.774C41.1981 101.774 40.7951 101.947 40.5524 102.294C40.3098 102.641 40.1884 103.087 40.1884 103.633V107H39.0184V103.776C39.0184 103.481 39.0011 103.213 38.9664 102.97C38.9404 102.727 38.8798 102.519 38.7844 102.346C38.6978 102.164 38.5678 102.025 38.3944 101.93C38.2298 101.826 38.0044 101.774 37.7184 101.774C37.5104 101.774 37.3068 101.817 37.1074 101.904C36.9168 101.982 36.7478 102.103 36.6004 102.268C36.4531 102.433 36.3361 102.645 36.2494 102.905C36.1628 103.156 36.1194 103.455 36.1194 103.802V107H34.9494V100.838ZM46.8257 108.716H45.7597L46.6567 105.518H47.9177L46.8257 108.716ZM53.2561 100.838H54.4261V101.722H54.4521C54.6774 101.393 54.9851 101.137 55.3751 100.955C55.7737 100.773 56.1811 100.682 56.5971 100.682C57.0737 100.682 57.5027 100.764 57.8841 100.929C58.2741 101.094 58.6034 101.323 58.8721 101.618C59.1494 101.913 59.3617 102.259 59.5091 102.658C59.6564 103.048 59.7301 103.468 59.7301 103.919C59.7301 104.378 59.6564 104.807 59.5091 105.206C59.3617 105.596 59.1494 105.938 58.8721 106.233C58.6034 106.519 58.2741 106.744 57.8841 106.909C57.5027 107.074 57.0737 107.156 56.5971 107.156C56.1551 107.156 55.7391 107.065 55.3491 106.883C54.9591 106.692 54.6601 106.437 54.4521 106.116H54.4261V110.666H53.2561V100.838ZM56.4541 101.774C56.1421 101.774 55.8604 101.83 55.6091 101.943C55.3577 102.047 55.1454 102.194 54.9721 102.385C54.7987 102.567 54.6644 102.792 54.5691 103.061C54.4737 103.321 54.4261 103.607 54.4261 103.919C54.4261 104.231 54.4737 104.521 54.5691 104.79C54.6644 105.05 54.7987 105.275 54.9721 105.466C55.1454 105.648 55.3577 105.795 55.6091 105.908C55.8604 106.012 56.1421 106.064 56.4541 106.064C56.7661 106.064 57.0477 106.012 57.2991 105.908C57.5504 105.795 57.7627 105.648 57.9361 105.466C58.1094 105.275 58.2437 105.05 58.3391 104.79C58.4344 104.521 58.4821 104.231 58.4821 103.919C58.4821 103.607 58.4344 103.321 58.3391 103.061C58.2437 102.792 58.1094 102.567 57.9361 102.385C57.7627 102.194 57.5504 102.047 57.2991 101.943C57.0477 101.83 56.7661 101.774 56.4541 101.774ZM61.2033 100.838H62.3733V101.787H62.3993C62.4773 101.622 62.5813 101.475 62.7113 101.345C62.8413 101.206 62.9843 101.089 63.1403 100.994C63.305 100.899 63.4827 100.825 63.6733 100.773C63.864 100.712 64.0547 100.682 64.2453 100.682C64.436 100.682 64.6093 100.708 64.7653 100.76L64.7133 102.021C64.618 101.995 64.5227 101.973 64.4273 101.956C64.332 101.939 64.2367 101.93 64.1413 101.93C63.5693 101.93 63.1317 102.09 62.8283 102.411C62.525 102.732 62.3733 103.23 62.3733 103.906V107H61.2033V100.838ZM66.6703 104.348C66.6703 104.617 66.7267 104.864 66.8393 105.089C66.9607 105.306 67.1167 105.492 67.3073 105.648C67.498 105.804 67.719 105.925 67.9703 106.012C68.2217 106.099 68.4817 106.142 68.7503 106.142C69.1143 106.142 69.4307 106.06 69.6993 105.895C69.968 105.722 70.215 105.496 70.4403 105.219L71.3243 105.895C70.6743 106.736 69.7643 107.156 68.5943 107.156C68.109 107.156 67.667 107.074 67.2683 106.909C66.8783 106.744 66.5447 106.519 66.2673 106.233C65.9987 105.938 65.7907 105.596 65.6433 105.206C65.496 104.807 65.4223 104.378 65.4223 103.919C65.4223 103.46 65.5003 103.035 65.6563 102.645C65.821 102.246 66.042 101.904 66.3193 101.618C66.6053 101.323 66.9433 101.094 67.3333 100.929C67.7233 100.764 68.148 100.682 68.6073 100.682C69.1533 100.682 69.6127 100.777 69.9853 100.968C70.3667 101.159 70.6787 101.41 70.9213 101.722C71.164 102.025 71.3373 102.372 71.4413 102.762C71.554 103.143 71.6103 103.533 71.6103 103.932V104.348H66.6703ZM70.3623 103.412C70.3537 103.152 70.3103 102.914 70.2323 102.697C70.163 102.48 70.0547 102.294 69.9073 102.138C69.76 101.973 69.5737 101.848 69.3483 101.761C69.1317 101.666 68.876 101.618 68.5813 101.618C68.2953 101.618 68.031 101.674 67.7883 101.787C67.5543 101.891 67.355 102.03 67.1903 102.203C67.0257 102.376 66.8957 102.571 66.8003 102.788C66.7137 102.996 66.6703 103.204 66.6703 103.412H70.3623ZM69.0103 97.796H70.6743L68.7373 99.668H67.6583L69.0103 97.796ZM73.01 100.838H74.18V101.787H74.206C74.3533 101.458 74.609 101.193 74.973 100.994C75.337 100.786 75.7573 100.682 76.234 100.682C76.5286 100.682 76.8103 100.73 77.079 100.825C77.3563 100.912 77.5946 101.05 77.794 101.241C78.002 101.432 78.1666 101.679 78.288 101.982C78.4093 102.277 78.47 102.628 78.47 103.035V107H77.3V103.36C77.3 103.074 77.261 102.831 77.183 102.632C77.105 102.424 77.001 102.259 76.871 102.138C76.741 102.008 76.5893 101.917 76.416 101.865C76.2513 101.804 76.078 101.774 75.896 101.774C75.6533 101.774 75.428 101.813 75.22 101.891C75.012 101.969 74.83 102.095 74.674 102.268C74.518 102.433 74.3966 102.645 74.31 102.905C74.2233 103.165 74.18 103.473 74.18 103.828V107H73.01V100.838ZM81.1826 103.919C81.1826 104.231 81.2303 104.521 81.3256 104.79C81.4209 105.05 81.5553 105.275 81.7286 105.466C81.9019 105.648 82.1143 105.795 82.3656 105.908C82.6169 106.012 82.8986 106.064 83.2106 106.064C83.5226 106.064 83.8043 106.012 84.0556 105.908C84.3069 105.795 84.5193 105.648 84.6926 105.466C84.8659 105.275 85.0003 105.05 85.0956 104.79C85.1909 104.521 85.2386 104.231 85.2386 103.919C85.2386 103.607 85.1909 103.321 85.0956 103.061C85.0003 102.792 84.8659 102.567 84.6926 102.385C84.5193 102.194 84.3069 102.047 84.0556 101.943C83.8043 101.83 83.5226 101.774 83.2106 101.774C82.8986 101.774 82.6169 101.83 82.3656 101.943C82.1143 102.047 81.9019 102.194 81.7286 102.385C81.5553 102.567 81.4209 102.792 81.3256 103.061C81.2303 103.321 81.1826 103.607 81.1826 103.919ZM79.9346 103.919C79.9346 103.468 80.0169 103.048 80.1816 102.658C80.3549 102.268 80.5889 101.926 80.8836 101.631C81.1783 101.336 81.5249 101.107 81.9236 100.942C82.3223 100.769 82.7513 100.682 83.2106 100.682C83.6699 100.682 84.0989 100.769 84.4976 100.942C84.8963 101.107 85.2429 101.336 85.5376 101.631C85.8323 101.926 86.0619 102.268 86.2266 102.658C86.3999 103.048 86.4866 103.468 86.4866 103.919C86.4866 104.37 86.3999 104.794 86.2266 105.193C86.0619 105.583 85.8323 105.925 85.5376 106.22C85.2429 106.506 84.8963 106.736 84.4976 106.909C84.0989 107.074 83.6699 107.156 83.2106 107.156C82.7513 107.156 82.3223 107.074 81.9236 106.909C81.5249 106.736 81.1783 106.506 80.8836 106.22C80.5889 105.925 80.3549 105.583 80.1816 105.193C80.0169 104.794 79.9346 104.37 79.9346 103.919ZM87.9524 100.838H89.0444V101.8H89.0704C89.0964 101.713 89.1614 101.605 89.2654 101.475C89.378 101.345 89.5167 101.224 89.6814 101.111C89.8547 100.99 90.054 100.89 90.2794 100.812C90.5134 100.725 90.769 100.682 91.0464 100.682C91.5057 100.682 91.8914 100.777 92.2034 100.968C92.5154 101.159 92.771 101.445 92.9704 101.826C93.1697 101.445 93.4514 101.159 93.8154 100.968C94.1794 100.777 94.5477 100.682 94.9204 100.682C95.397 100.682 95.787 100.76 96.0904 100.916C96.3937 101.072 96.632 101.28 96.8054 101.54C96.9787 101.791 97.0957 102.082 97.1564 102.411C97.2257 102.732 97.2604 103.065 97.2604 103.412V107H96.0904V103.568C96.0904 103.334 96.073 103.109 96.0384 102.892C96.0124 102.675 95.9517 102.485 95.8564 102.32C95.761 102.155 95.6267 102.025 95.4534 101.93C95.28 101.826 95.0504 101.774 94.7644 101.774C94.201 101.774 93.798 101.947 93.5554 102.294C93.3127 102.641 93.1914 103.087 93.1914 103.633V107H92.0214V103.776C92.0214 103.481 92.004 103.213 91.9694 102.97C91.9434 102.727 91.8827 102.519 91.7874 102.346C91.7007 102.164 91.5707 102.025 91.3974 101.93C91.2327 101.826 91.0074 101.774 90.7214 101.774C90.5134 101.774 90.3097 101.817 90.1104 101.904C89.9197 101.982 89.7507 102.103 89.6034 102.268C89.456 102.433 89.339 102.645 89.2524 102.905C89.1657 103.156 89.1224 103.455 89.1224 103.802V107H87.9524V100.838ZM99.8287 108.716H98.7627L99.6597 105.518H100.921L99.8287 108.716ZM107.143 104.348C107.143 104.617 107.199 104.864 107.312 105.089C107.433 105.306 107.589 105.492 107.78 105.648C107.971 105.804 108.192 105.925 108.443 106.012C108.694 106.099 108.954 106.142 109.223 106.142C109.587 106.142 109.903 106.06 110.172 105.895C110.441 105.722 110.688 105.496 110.913 105.219L111.797 105.895C111.147 106.736 110.237 107.156 109.067 107.156C108.582 107.156 108.14 107.074 107.741 106.909C107.351 106.744 107.017 106.519 106.74 106.233C106.471 105.938 106.263 105.596 106.116 105.206C105.969 104.807 105.895 104.378 105.895 103.919C105.895 103.46 105.973 103.035 106.129 102.645C106.294 102.246 106.515 101.904 106.792 101.618C107.078 101.323 107.416 101.094 107.806 100.929C108.196 100.764 108.621 100.682 109.08 100.682C109.626 100.682 110.085 100.777 110.458 100.968C110.839 101.159 111.151 101.41 111.394 101.722C111.637 102.025 111.81 102.372 111.914 102.762C112.027 103.143 112.083 103.533 112.083 103.932V104.348H107.143ZM110.835 103.412C110.826 103.152 110.783 102.914 110.705 102.697C110.636 102.48 110.527 102.294 110.38 102.138C110.233 101.973 110.046 101.848 109.821 101.761C109.604 101.666 109.349 101.618 109.054 101.618C108.768 101.618 108.504 101.674 108.261 101.787C108.027 101.891 107.828 102.03 107.663 102.203C107.498 102.376 107.368 102.571 107.273 102.788C107.186 102.996 107.143 103.204 107.143 103.412H110.835ZM116.252 104.4H113.054V103.308H116.252V104.4ZM117.596 100.838H118.688V101.8H118.714C118.74 101.713 118.805 101.605 118.909 101.475C119.022 101.345 119.16 101.224 119.325 101.111C119.498 100.99 119.698 100.89 119.923 100.812C120.157 100.725 120.413 100.682 120.69 100.682C121.149 100.682 121.535 100.777 121.847 100.968C122.159 101.159 122.415 101.445 122.614 101.826C122.813 101.445 123.095 101.159 123.459 100.968C123.823 100.777 124.191 100.682 124.564 100.682C125.041 100.682 125.431 100.76 125.734 100.916C126.037 101.072 126.276 101.28 126.449 101.54C126.622 101.791 126.739 102.082 126.8 102.411C126.869 102.732 126.904 103.065 126.904 103.412V107H125.734V103.568C125.734 103.334 125.717 103.109 125.682 102.892C125.656 102.675 125.595 102.485 125.5 102.32C125.405 102.155 125.27 102.025 125.097 101.93C124.924 101.826 124.694 101.774 124.408 101.774C123.845 101.774 123.442 101.947 123.199 102.294C122.956 102.641 122.835 103.087 122.835 103.633V107H121.665V103.776C121.665 103.481 121.648 103.213 121.613 102.97C121.587 102.727 121.526 102.519 121.431 102.346C121.344 102.164 121.214 102.025 121.041 101.93C120.876 101.826 120.651 101.774 120.365 101.774C120.157 101.774 119.953 101.817 119.754 101.904C119.563 101.982 119.394 102.103 119.247 102.268C119.1 102.433 118.983 102.645 118.896 102.905C118.809 103.156 118.766 103.455 118.766 103.802V107H117.596V100.838ZM128.692 101.592C129.022 101.289 129.403 101.063 129.836 100.916C130.27 100.76 130.703 100.682 131.136 100.682C131.587 100.682 131.973 100.738 132.293 100.851C132.623 100.964 132.891 101.115 133.099 101.306C133.307 101.497 133.459 101.718 133.554 101.969C133.658 102.212 133.71 102.467 133.71 102.736V105.882C133.71 106.099 133.715 106.298 133.723 106.48C133.732 106.662 133.745 106.835 133.762 107H132.722C132.696 106.688 132.683 106.376 132.683 106.064H132.657C132.397 106.463 132.09 106.744 131.734 106.909C131.379 107.074 130.967 107.156 130.499 107.156C130.213 107.156 129.94 107.117 129.68 107.039C129.42 106.961 129.191 106.844 128.991 106.688C128.801 106.532 128.649 106.341 128.536 106.116C128.424 105.882 128.367 105.613 128.367 105.31C128.367 104.911 128.454 104.578 128.627 104.309C128.809 104.04 129.052 103.824 129.355 103.659C129.667 103.486 130.027 103.364 130.434 103.295C130.85 103.217 131.292 103.178 131.76 103.178H132.618V102.918C132.618 102.762 132.588 102.606 132.527 102.45C132.467 102.294 132.376 102.155 132.254 102.034C132.133 101.904 131.981 101.804 131.799 101.735C131.617 101.657 131.401 101.618 131.149 101.618C130.924 101.618 130.725 101.64 130.551 101.683C130.387 101.726 130.235 101.783 130.096 101.852C129.958 101.913 129.832 101.986 129.719 102.073C129.607 102.16 129.498 102.242 129.394 102.32L128.692 101.592ZM131.994 104.036C131.717 104.036 131.431 104.053 131.136 104.088C130.85 104.114 130.586 104.17 130.343 104.257C130.109 104.344 129.914 104.465 129.758 104.621C129.611 104.777 129.537 104.976 129.537 105.219C129.537 105.574 129.654 105.83 129.888 105.986C130.131 106.142 130.456 106.22 130.863 106.22C131.184 106.22 131.457 106.168 131.682 106.064C131.908 105.951 132.09 105.808 132.228 105.635C132.367 105.462 132.467 105.271 132.527 105.063C132.588 104.846 132.618 104.634 132.618 104.426V104.036H131.994ZM135.498 100.838H136.668V107H135.498V100.838ZM135.225 98.628C135.225 98.394 135.308 98.1947 135.472 98.03C135.646 97.8567 135.849 97.77 136.083 97.77C136.317 97.77 136.517 97.8567 136.681 98.03C136.855 98.1947 136.941 98.394 136.941 98.628C136.941 98.862 136.855 99.0657 136.681 99.239C136.517 99.4037 136.317 99.486 136.083 99.486C135.849 99.486 135.646 99.4037 135.472 99.239C135.308 99.0657 135.225 98.862 135.225 98.628ZM138.621 97.172H139.791V107H138.621V97.172ZM142.46 108.716H141.394L142.291 105.518H143.552L142.46 108.716ZM148.89 100.838H149.982V101.8H150.008C150.034 101.713 150.099 101.605 150.203 101.475C150.316 101.345 150.454 101.224 150.619 101.111C150.792 100.99 150.992 100.89 151.217 100.812C151.451 100.725 151.707 100.682 151.984 100.682C152.443 100.682 152.829 100.777 153.141 100.968C153.453 101.159 153.709 101.445 153.908 101.826C154.107 101.445 154.389 101.159 154.753 100.968C155.117 100.777 155.485 100.682 155.858 100.682C156.335 100.682 156.725 100.76 157.028 100.916C157.331 101.072 157.57 101.28 157.743 101.54C157.916 101.791 158.033 102.082 158.094 102.411C158.163 102.732 158.198 103.065 158.198 103.412V107H157.028V103.568C157.028 103.334 157.011 103.109 156.976 102.892C156.95 102.675 156.889 102.485 156.794 102.32C156.699 102.155 156.564 102.025 156.391 101.93C156.218 101.826 155.988 101.774 155.702 101.774C155.139 101.774 154.736 101.947 154.493 102.294C154.25 102.641 154.129 103.087 154.129 103.633V107H152.959V103.776C152.959 103.481 152.942 103.213 152.907 102.97C152.881 102.727 152.82 102.519 152.725 102.346C152.638 102.164 152.508 102.025 152.335 101.93C152.17 101.826 151.945 101.774 151.659 101.774C151.451 101.774 151.247 101.817 151.048 101.904C150.857 101.982 150.688 102.103 150.541 102.268C150.394 102.433 150.277 102.645 150.19 102.905C150.103 103.156 150.06 103.455 150.06 103.802V107H148.89V100.838ZM160.909 103.919C160.909 104.231 160.957 104.521 161.052 104.79C161.148 105.05 161.282 105.275 161.455 105.466C161.629 105.648 161.841 105.795 162.092 105.908C162.344 106.012 162.625 106.064 162.937 106.064C163.249 106.064 163.531 106.012 163.782 105.908C164.034 105.795 164.246 105.648 164.419 105.466C164.593 105.275 164.727 105.05 164.822 104.79C164.918 104.521 164.965 104.231 164.965 103.919C164.965 103.607 164.918 103.321 164.822 103.061C164.727 102.792 164.593 102.567 164.419 102.385C164.246 102.194 164.034 102.047 163.782 101.943C163.531 101.83 163.249 101.774 162.937 101.774C162.625 101.774 162.344 101.83 162.092 101.943C161.841 102.047 161.629 102.194 161.455 102.385C161.282 102.567 161.148 102.792 161.052 103.061C160.957 103.321 160.909 103.607 160.909 103.919ZM159.661 103.919C159.661 103.468 159.744 103.048 159.908 102.658C160.082 102.268 160.316 101.926 160.61 101.631C160.905 101.336 161.252 101.107 161.65 100.942C162.049 100.769 162.478 100.682 162.937 100.682C163.397 100.682 163.826 100.769 164.224 100.942C164.623 101.107 164.97 101.336 165.264 101.631C165.559 101.926 165.789 102.268 165.953 102.658C166.127 103.048 166.213 103.468 166.213 103.919C166.213 104.37 166.127 104.794 165.953 105.193C165.789 105.583 165.559 105.925 165.264 106.22C164.97 106.506 164.623 106.736 164.224 106.909C163.826 107.074 163.397 107.156 162.937 107.156C162.478 107.156 162.049 107.074 161.65 106.909C161.252 106.736 160.905 106.506 160.61 106.22C160.316 105.925 160.082 105.583 159.908 105.193C159.744 104.794 159.661 104.37 159.661 103.919ZM170.981 101.852H169.304V104.647C169.304 104.82 169.308 104.994 169.317 105.167C169.326 105.332 169.356 105.483 169.408 105.622C169.469 105.752 169.555 105.86 169.668 105.947C169.789 106.025 169.963 106.064 170.188 106.064C170.327 106.064 170.47 106.051 170.617 106.025C170.764 105.999 170.899 105.951 171.02 105.882V106.948C170.881 107.026 170.699 107.078 170.474 107.104C170.257 107.139 170.088 107.156 169.967 107.156C169.516 107.156 169.165 107.095 168.914 106.974C168.671 106.844 168.489 106.679 168.368 106.48C168.255 106.281 168.186 106.06 168.16 105.817C168.143 105.566 168.134 105.314 168.134 105.063V101.852H166.782V100.838H168.134V99.109H169.304V100.838H170.981V101.852ZM182.284 107H181.114V106.116H181.088C180.862 106.445 180.55 106.701 180.152 106.883C179.762 107.065 179.359 107.156 178.943 107.156C178.466 107.156 178.033 107.074 177.643 106.909C177.261 106.744 176.932 106.515 176.655 106.22C176.386 105.925 176.178 105.583 176.031 105.193C175.883 104.803 175.81 104.378 175.81 103.919C175.81 103.46 175.883 103.035 176.031 102.645C176.178 102.246 176.386 101.904 176.655 101.618C176.932 101.323 177.261 101.094 177.643 100.929C178.033 100.764 178.466 100.682 178.943 100.682C179.385 100.682 179.801 100.777 180.191 100.968C180.581 101.15 180.88 101.401 181.088 101.722H181.114V97.172H182.284V107ZM179.086 106.064C179.398 106.064 179.679 106.012 179.931 105.908C180.182 105.795 180.394 105.648 180.568 105.466C180.741 105.275 180.875 105.05 180.971 104.79C181.066 104.521 181.114 104.231 181.114 103.919C181.114 103.607 181.066 103.321 180.971 103.061C180.875 102.792 180.741 102.567 180.568 102.385C180.394 102.194 180.182 102.047 179.931 101.943C179.679 101.83 179.398 101.774 179.086 101.774C178.774 101.774 178.492 101.83 178.241 101.943C177.989 102.047 177.777 102.194 177.604 102.385C177.43 102.567 177.296 102.792 177.201 103.061C177.105 103.321 177.058 103.607 177.058 103.919C177.058 104.231 177.105 104.521 177.201 104.79C177.296 105.05 177.43 105.275 177.604 105.466C177.777 105.648 177.989 105.795 178.241 105.908C178.492 106.012 178.774 106.064 179.086 106.064ZM184.94 104.348C184.94 104.617 184.996 104.864 185.109 105.089C185.23 105.306 185.386 105.492 185.577 105.648C185.768 105.804 185.989 105.925 186.24 106.012C186.491 106.099 186.751 106.142 187.02 106.142C187.384 106.142 187.7 106.06 187.969 105.895C188.238 105.722 188.485 105.496 188.71 105.219L189.594 105.895C188.944 106.736 188.034 107.156 186.864 107.156C186.379 107.156 185.937 107.074 185.538 106.909C185.148 106.744 184.814 106.519 184.537 106.233C184.268 105.938 184.06 105.596 183.913 105.206C183.766 104.807 183.692 104.378 183.692 103.919C183.692 103.46 183.77 103.035 183.926 102.645C184.091 102.246 184.312 101.904 184.589 101.618C184.875 101.323 185.213 101.094 185.603 100.929C185.993 100.764 186.418 100.682 186.877 100.682C187.423 100.682 187.882 100.777 188.255 100.968C188.636 101.159 188.948 101.41 189.191 101.722C189.434 102.025 189.607 102.372 189.711 102.762C189.824 103.143 189.88 103.533 189.88 103.932V104.348H184.94ZM188.632 103.412C188.623 103.152 188.58 102.914 188.502 102.697C188.433 102.48 188.324 102.294 188.177 102.138C188.03 101.973 187.843 101.848 187.618 101.761C187.401 101.666 187.146 101.618 186.851 101.618C186.565 101.618 186.301 101.674 186.058 101.787C185.824 101.891 185.625 102.03 185.46 102.203C185.295 102.376 185.165 102.571 185.07 102.788C184.983 102.996 184.94 103.204 184.94 103.412H188.632ZM194.898 100.838H196.068V101.722H196.094C196.319 101.393 196.627 101.137 197.017 100.955C197.415 100.773 197.823 100.682 198.239 100.682C198.715 100.682 199.144 100.764 199.526 100.929C199.916 101.094 200.245 101.323 200.514 101.618C200.791 101.913 201.003 102.259 201.151 102.658C201.298 103.048 201.372 103.468 201.372 103.919C201.372 104.378 201.298 104.807 201.151 105.206C201.003 105.596 200.791 105.938 200.514 106.233C200.245 106.519 199.916 106.744 199.526 106.909C199.144 107.074 198.715 107.156 198.239 107.156C197.797 107.156 197.381 107.065 196.991 106.883C196.601 106.692 196.302 106.437 196.094 106.116H196.068V110.666H194.898V100.838ZM198.096 101.774C197.784 101.774 197.502 101.83 197.251 101.943C196.999 102.047 196.787 102.194 196.614 102.385C196.44 102.567 196.306 102.792 196.211 103.061C196.115 103.321 196.068 103.607 196.068 103.919C196.068 104.231 196.115 104.521 196.211 104.79C196.306 105.05 196.44 105.275 196.614 105.466C196.787 105.648 196.999 105.795 197.251 105.908C197.502 106.012 197.784 106.064 198.096 106.064C198.408 106.064 198.689 106.012 198.941 105.908C199.192 105.795 199.404 105.648 199.578 105.466C199.751 105.275 199.885 105.05 199.981 104.79C200.076 104.521 200.124 104.231 200.124 103.919C200.124 103.607 200.076 103.321 199.981 103.061C199.885 102.792 199.751 102.567 199.578 102.385C199.404 102.194 199.192 102.047 198.941 101.943C198.689 101.83 198.408 101.774 198.096 101.774ZM202.871 101.592C203.2 101.289 203.582 101.063 204.015 100.916C204.448 100.76 204.882 100.682 205.315 100.682C205.766 100.682 206.151 100.738 206.472 100.851C206.801 100.964 207.07 101.115 207.278 101.306C207.486 101.497 207.638 101.718 207.733 101.969C207.837 102.212 207.889 102.467 207.889 102.736V105.882C207.889 106.099 207.893 106.298 207.902 106.48C207.911 106.662 207.924 106.835 207.941 107H206.901C206.875 106.688 206.862 106.376 206.862 106.064H206.836C206.576 106.463 206.268 106.744 205.913 106.909C205.558 107.074 205.146 107.156 204.678 107.156C204.392 107.156 204.119 107.117 203.859 107.039C203.599 106.961 203.369 106.844 203.17 106.688C202.979 106.532 202.828 106.341 202.715 106.116C202.602 105.882 202.546 105.613 202.546 105.31C202.546 104.911 202.633 104.578 202.806 104.309C202.988 104.04 203.231 103.824 203.534 103.659C203.846 103.486 204.206 103.364 204.613 103.295C205.029 103.217 205.471 103.178 205.939 103.178H206.797V102.918C206.797 102.762 206.767 102.606 206.706 102.45C206.645 102.294 206.554 102.155 206.433 102.034C206.312 101.904 206.16 101.804 205.978 101.735C205.796 101.657 205.579 101.618 205.328 101.618C205.103 101.618 204.903 101.64 204.73 101.683C204.565 101.726 204.414 101.783 204.275 101.852C204.136 101.913 204.011 101.986 203.898 102.073C203.785 102.16 203.677 102.242 203.573 102.32L202.871 101.592ZM206.173 104.036C205.896 104.036 205.61 104.053 205.315 104.088C205.029 104.114 204.765 104.17 204.522 104.257C204.288 104.344 204.093 104.465 203.937 104.621C203.79 104.777 203.716 104.976 203.716 105.219C203.716 105.574 203.833 105.83 204.067 105.986C204.31 106.142 204.635 106.22 205.042 106.22C205.363 106.22 205.636 106.168 205.861 106.064C206.086 105.951 206.268 105.808 206.407 105.635C206.546 105.462 206.645 105.271 206.706 105.063C206.767 104.846 206.797 104.634 206.797 104.426V104.036H206.173ZM212.862 102.385C212.723 102.212 212.55 102.069 212.342 101.956C212.143 101.835 211.896 101.774 211.601 101.774C211.324 101.774 211.081 101.835 210.873 101.956C210.674 102.069 210.574 102.238 210.574 102.463C210.574 102.645 210.63 102.792 210.743 102.905C210.864 103.018 211.003 103.109 211.159 103.178C211.324 103.247 211.497 103.299 211.679 103.334C211.861 103.369 212.017 103.399 212.147 103.425C212.398 103.486 212.632 103.559 212.849 103.646C213.074 103.733 213.265 103.845 213.421 103.984C213.586 104.123 213.711 104.292 213.798 104.491C213.893 104.69 213.941 104.933 213.941 105.219C213.941 105.566 213.867 105.865 213.72 106.116C213.573 106.359 213.382 106.558 213.148 106.714C212.914 106.87 212.645 106.983 212.342 107.052C212.047 107.121 211.748 107.156 211.445 107.156C210.934 107.156 210.483 107.078 210.093 106.922C209.712 106.766 209.369 106.48 209.066 106.064L209.95 105.336C210.141 105.527 210.353 105.696 210.587 105.843C210.821 105.99 211.107 106.064 211.445 106.064C211.592 106.064 211.74 106.051 211.887 106.025C212.043 105.99 212.177 105.943 212.29 105.882C212.411 105.813 212.507 105.73 212.576 105.635C212.654 105.531 212.693 105.414 212.693 105.284C212.693 105.111 212.637 104.968 212.524 104.855C212.42 104.742 212.29 104.656 212.134 104.595C211.987 104.526 211.826 104.474 211.653 104.439C211.488 104.396 211.341 104.361 211.211 104.335C210.96 104.274 210.721 104.205 210.496 104.127C210.271 104.049 210.071 103.945 209.898 103.815C209.725 103.685 209.586 103.52 209.482 103.321C209.378 103.122 209.326 102.875 209.326 102.58C209.326 102.259 209.391 101.982 209.521 101.748C209.66 101.505 209.837 101.306 210.054 101.15C210.279 100.994 210.531 100.877 210.808 100.799C211.094 100.721 211.38 100.682 211.666 100.682C212.082 100.682 212.481 100.76 212.862 100.916C213.243 101.072 213.547 101.332 213.772 101.696L212.862 102.385ZM218.639 102.385C218.5 102.212 218.327 102.069 218.119 101.956C217.919 101.835 217.672 101.774 217.378 101.774C217.1 101.774 216.858 101.835 216.65 101.956C216.45 102.069 216.351 102.238 216.351 102.463C216.351 102.645 216.407 102.792 216.52 102.905C216.641 103.018 216.78 103.109 216.936 103.178C217.1 103.247 217.274 103.299 217.456 103.334C217.638 103.369 217.794 103.399 217.924 103.425C218.175 103.486 218.409 103.559 218.626 103.646C218.851 103.733 219.042 103.845 219.198 103.984C219.362 104.123 219.488 104.292 219.575 104.491C219.67 104.69 219.718 104.933 219.718 105.219C219.718 105.566 219.644 105.865 219.497 106.116C219.349 106.359 219.159 106.558 218.925 106.714C218.691 106.87 218.422 106.983 218.119 107.052C217.824 107.121 217.525 107.156 217.222 107.156C216.71 107.156 216.26 107.078 215.87 106.922C215.488 106.766 215.146 106.48 214.843 106.064L215.727 105.336C215.917 105.527 216.13 105.696 216.364 105.843C216.598 105.99 216.884 106.064 217.222 106.064C217.369 106.064 217.516 106.051 217.664 106.025C217.82 105.99 217.954 105.943 218.067 105.882C218.188 105.813 218.283 105.73 218.353 105.635C218.431 105.531 218.47 105.414 218.47 105.284C218.47 105.111 218.413 104.968 218.301 104.855C218.197 104.742 218.067 104.656 217.911 104.595C217.763 104.526 217.603 104.474 217.43 104.439C217.265 104.396 217.118 104.361 216.988 104.335C216.736 104.274 216.498 104.205 216.273 104.127C216.047 104.049 215.848 103.945 215.675 103.815C215.501 103.685 215.363 103.52 215.259 103.321C215.155 103.122 215.103 102.875 215.103 102.58C215.103 102.259 215.168 101.982 215.298 101.748C215.436 101.505 215.614 101.306 215.831 101.15C216.056 100.994 216.307 100.877 216.585 100.799C216.871 100.721 217.157 100.682 217.443 100.682C217.859 100.682 218.257 100.76 218.639 100.916C219.02 101.072 219.323 101.332 219.549 101.696L218.639 102.385ZM222.023 104.348C222.023 104.617 222.079 104.864 222.192 105.089C222.313 105.306 222.469 105.492 222.66 105.648C222.851 105.804 223.072 105.925 223.323 106.012C223.574 106.099 223.834 106.142 224.103 106.142C224.467 106.142 224.783 106.06 225.052 105.895C225.321 105.722 225.568 105.496 225.793 105.219L226.677 105.895C226.027 106.736 225.117 107.156 223.947 107.156C223.462 107.156 223.02 107.074 222.621 106.909C222.231 106.744 221.897 106.519 221.62 106.233C221.351 105.938 221.143 105.596 220.996 105.206C220.849 104.807 220.775 104.378 220.775 103.919C220.775 103.46 220.853 103.035 221.009 102.645C221.174 102.246 221.395 101.904 221.672 101.618C221.958 101.323 222.296 101.094 222.686 100.929C223.076 100.764 223.501 100.682 223.96 100.682C224.506 100.682 224.965 100.777 225.338 100.968C225.719 101.159 226.031 101.41 226.274 101.722C226.517 102.025 226.69 102.372 226.794 102.762C226.907 103.143 226.963 103.533 226.963 103.932V104.348H222.023ZM225.715 103.412C225.706 103.152 225.663 102.914 225.585 102.697C225.516 102.48 225.407 102.294 225.26 102.138C225.113 101.973 224.926 101.848 224.701 101.761C224.484 101.666 224.229 101.618 223.934 101.618C223.648 101.618 223.384 101.674 223.141 101.787C222.907 101.891 222.708 102.03 222.543 102.203C222.378 102.376 222.248 102.571 222.153 102.788C222.066 102.996 222.023 103.204 222.023 103.412H225.715ZM229.286 107.078C229.052 107.078 228.848 106.996 228.675 106.831C228.51 106.658 228.428 106.454 228.428 106.22C228.428 105.986 228.51 105.787 228.675 105.622C228.848 105.449 229.052 105.362 229.286 105.362C229.52 105.362 229.719 105.449 229.884 105.622C230.057 105.787 230.144 105.986 230.144 106.22C230.144 106.454 230.057 106.658 229.884 106.831C229.719 106.996 229.52 107.078 229.286 107.078ZM232.904 107.078C232.67 107.078 232.466 106.996 232.293 106.831C232.128 106.658 232.046 106.454 232.046 106.22C232.046 105.986 232.128 105.787 232.293 105.622C232.466 105.449 232.67 105.362 232.904 105.362C233.138 105.362 233.337 105.449 233.502 105.622C233.675 105.787 233.762 105.986 233.762 106.22C233.762 106.454 233.675 106.658 233.502 106.831C233.337 106.996 233.138 107.078 232.904 107.078ZM236.522 107.078C236.288 107.078 236.084 106.996 235.911 106.831C235.746 106.658 235.664 106.454 235.664 106.22C235.664 105.986 235.746 105.787 235.911 105.622C236.084 105.449 236.288 105.362 236.522 105.362C236.756 105.362 236.955 105.449 237.12 105.622C237.293 105.787 237.38 105.986 237.38 106.22C237.38 106.454 237.293 106.658 237.12 106.831C236.955 106.996 236.756 107.078 236.522 107.078Z" fill="#9DA0A5"/>
<path d="M296.794 86.6659C296.366 87.0617 296.366 87.7383 296.794 88.1341L300.973 92L296.794 95.8659C296.366 96.2617 296.366 96.9383 296.794 97.3341L296.834 97.3719C297.218 97.7264 297.809 97.7264 298.193 97.3719L303.206 92.7341C303.634 92.3383 303.634 91.6617 303.206 91.2659L298.193 86.6281C297.809 86.2736 297.218 86.2736 296.834 86.6281L296.794 86.6659Z" fill="#8DE8FE"/>
</svg>
