<svg width="328" height="224" viewBox="0 0 328 224" fill="none" xmlns="http://www.w3.org/2000/svg">
<path d="M5.544 5.256H7.506L12.996 18H10.404L9.216 15.084H3.69L2.538 18H0L5.544 5.256ZM8.424 13.14L6.462 7.956L4.464 13.14H8.424ZM20.1182 11.952C19.8662 11.688 19.6022 11.478 19.3262 11.322C19.0502 11.166 18.7682 11.088 18.4802 11.088C18.0842 11.088 17.7302 11.16 17.4182 11.304C17.1062 11.448 16.8362 11.64 16.6082 11.88C16.3922 12.12 16.2242 12.396 16.1042 12.708C15.9962 13.02 15.9422 13.344 15.9422 13.68C15.9422 14.016 15.9962 14.34 16.1042 14.652C16.2242 14.964 16.3922 15.24 16.6082 15.48C16.8362 15.72 17.1062 15.912 17.4182 16.056C17.7302 16.2 18.0842 16.272 18.4802 16.272C18.8162 16.272 19.1282 16.206 19.4162 16.074C19.7042 15.93 19.9502 15.726 20.1542 15.462L21.5942 17.01C21.3782 17.226 21.1262 17.412 20.8382 17.568C20.5622 17.724 20.2802 17.85 19.9922 17.946C19.7042 18.042 19.4282 18.108 19.1642 18.144C18.9002 18.192 18.6722 18.216 18.4802 18.216C17.8322 18.216 17.2202 18.108 16.6442 17.892C16.0682 17.676 15.5702 17.37 15.1502 16.974C14.7302 16.578 14.3942 16.104 14.1422 15.552C13.9022 14.988 13.7822 14.364 13.7822 13.68C13.7822 12.996 13.9022 12.378 14.1422 11.826C14.3942 11.262 14.7302 10.782 15.1502 10.386C15.5702 9.99 16.0682 9.684 16.6442 9.468C17.2202 9.252 17.8322 9.144 18.4802 9.144C19.0322 9.144 19.5842 9.252 20.1362 9.468C20.7002 9.672 21.1922 10.002 21.6122 10.458L20.1182 11.952ZM28.8018 11.952C28.5498 11.688 28.2858 11.478 28.0098 11.322C27.7338 11.166 27.4518 11.088 27.1638 11.088C26.7678 11.088 26.4138 11.16 26.1018 11.304C25.7898 11.448 25.5198 11.64 25.2918 11.88C25.0758 12.12 24.9078 12.396 24.7878 12.708C24.6798 13.02 24.6258 13.344 24.6258 13.68C24.6258 14.016 24.6798 14.34 24.7878 14.652C24.9078 14.964 25.0758 15.24 25.2918 15.48C25.5198 15.72 25.7898 15.912 26.1018 16.056C26.4138 16.2 26.7678 16.272 27.1638 16.272C27.4998 16.272 27.8118 16.206 28.0998 16.074C28.3878 15.93 28.6338 15.726 28.8378 15.462L30.2778 17.01C30.0618 17.226 29.8098 17.412 29.5218 17.568C29.2458 17.724 28.9638 17.85 28.6758 17.946C28.3878 18.042 28.1118 18.108 27.8478 18.144C27.5838 18.192 27.3558 18.216 27.1638 18.216C26.5158 18.216 25.9038 18.108 25.3278 17.892C24.7518 17.676 24.2538 17.37 23.8338 16.974C23.4138 16.578 23.0778 16.104 22.8258 15.552C22.5858 14.988 22.4658 14.364 22.4658 13.68C22.4658 12.996 22.5858 12.378 22.8258 11.826C23.0778 11.262 23.4138 10.782 23.8338 10.386C24.2538 9.99 24.7518 9.684 25.3278 9.468C25.9038 9.252 26.5158 9.144 27.1638 9.144C27.7158 9.144 28.2678 9.252 28.8198 9.468C29.3838 9.672 29.8758 10.002 30.2958 10.458L28.8018 11.952ZM33.3094 14.436C33.3814 15.084 33.6334 15.588 34.0654 15.948C34.4974 16.308 35.0194 16.488 35.6314 16.488C36.1714 16.488 36.6214 16.38 36.9814 16.164C37.3534 15.936 37.6774 15.654 37.9534 15.318L39.5014 16.488C38.9974 17.112 38.4334 17.556 37.8094 17.82C37.1854 18.084 36.5314 18.216 35.8474 18.216C35.1994 18.216 34.5874 18.108 34.0114 17.892C33.4354 17.676 32.9374 17.37 32.5174 16.974C32.0974 16.578 31.7614 16.104 31.5094 15.552C31.2694 14.988 31.1494 14.364 31.1494 13.68C31.1494 12.996 31.2694 12.378 31.5094 11.826C31.7614 11.262 32.0974 10.782 32.5174 10.386C32.9374 9.99 33.4354 9.684 34.0114 9.468C34.5874 9.252 35.1994 9.144 35.8474 9.144C36.4474 9.144 36.9934 9.252 37.4854 9.468C37.9894 9.672 38.4154 9.972 38.7634 10.368C39.1234 10.764 39.3994 11.256 39.5914 11.844C39.7954 12.42 39.8974 13.086 39.8974 13.842V14.436H33.3094ZM37.7374 12.816C37.7254 12.18 37.5274 11.682 37.1434 11.322C36.7594 10.95 36.2254 10.764 35.5414 10.764C34.8934 10.764 34.3774 10.95 33.9934 11.322C33.6214 11.694 33.3934 12.192 33.3094 12.816H37.7374ZM46.5254 11.754C46.1054 11.166 45.5414 10.872 44.8334 10.872C44.5454 10.872 44.2634 10.944 43.9874 11.088C43.7114 11.232 43.5734 11.466 43.5734 11.79C43.5734 12.054 43.6874 12.246 43.9154 12.366C44.1434 12.486 44.4314 12.588 44.7794 12.672C45.1274 12.756 45.4994 12.846 45.8954 12.942C46.3034 13.026 46.6814 13.164 47.0294 13.356C47.3774 13.536 47.6654 13.788 47.8934 14.112C48.1214 14.436 48.2354 14.88 48.2354 15.444C48.2354 15.96 48.1214 16.398 47.8934 16.758C47.6774 17.106 47.3894 17.388 47.0294 17.604C46.6814 17.82 46.2854 17.976 45.8414 18.072C45.3974 18.168 44.9534 18.216 44.5094 18.216C43.8374 18.216 43.2194 18.12 42.6554 17.928C42.0914 17.736 41.5874 17.388 41.1434 16.884L42.5834 15.534C42.8594 15.846 43.1534 16.104 43.4654 16.308C43.7894 16.5 44.1794 16.596 44.6354 16.596C44.7914 16.596 44.9534 16.578 45.1214 16.542C45.2894 16.506 45.4454 16.446 45.5894 16.362C45.7334 16.278 45.8474 16.176 45.9314 16.056C46.0274 15.924 46.0754 15.774 46.0754 15.606C46.0754 15.306 45.9614 15.084 45.7334 14.94C45.5054 14.796 45.2174 14.682 44.8694 14.598C44.5214 14.502 44.1434 14.418 43.7354 14.346C43.3394 14.262 42.9674 14.136 42.6194 13.968C42.2714 13.788 41.9834 13.542 41.7554 13.23C41.5274 12.918 41.4134 12.486 41.4134 11.934C41.4134 11.454 41.5094 11.04 41.7014 10.692C41.9054 10.332 42.1694 10.038 42.4934 9.81C42.8174 9.582 43.1894 9.414 43.6094 9.306C44.0294 9.198 44.4554 9.144 44.8874 9.144C45.4634 9.144 46.0334 9.246 46.5974 9.45C47.1614 9.642 47.6174 9.978 47.9654 10.458L46.5254 11.754ZM54.5234 11.754C54.1034 11.166 53.5394 10.872 52.8314 10.872C52.5434 10.872 52.2614 10.944 51.9854 11.088C51.7094 11.232 51.5714 11.466 51.5714 11.79C51.5714 12.054 51.6854 12.246 51.9134 12.366C52.1414 12.486 52.4294 12.588 52.7774 12.672C53.1254 12.756 53.4974 12.846 53.8934 12.942C54.3014 13.026 54.6794 13.164 55.0274 13.356C55.3754 13.536 55.6634 13.788 55.8914 14.112C56.1194 14.436 56.2334 14.88 56.2334 15.444C56.2334 15.96 56.1194 16.398 55.8914 16.758C55.6754 17.106 55.3874 17.388 55.0274 17.604C54.6794 17.82 54.2834 17.976 53.8394 18.072C53.3954 18.168 52.9514 18.216 52.5074 18.216C51.8354 18.216 51.2174 18.12 50.6534 17.928C50.0894 17.736 49.5854 17.388 49.1414 16.884L50.5814 15.534C50.8574 15.846 51.1514 16.104 51.4634 16.308C51.7874 16.5 52.1774 16.596 52.6334 16.596C52.7894 16.596 52.9514 16.578 53.1194 16.542C53.2874 16.506 53.4434 16.446 53.5874 16.362C53.7314 16.278 53.8454 16.176 53.9294 16.056C54.0254 15.924 54.0734 15.774 54.0734 15.606C54.0734 15.306 53.9594 15.084 53.7314 14.94C53.5034 14.796 53.2154 14.682 52.8674 14.598C52.5194 14.502 52.1414 14.418 51.7334 14.346C51.3374 14.262 50.9654 14.136 50.6174 13.968C50.2694 13.788 49.9814 13.542 49.7534 13.23C49.5254 12.918 49.4114 12.486 49.4114 11.934C49.4114 11.454 49.5074 11.04 49.6994 10.692C49.9034 10.332 50.1674 10.038 50.4914 9.81C50.8154 9.582 51.1874 9.414 51.6074 9.306C52.0274 9.198 52.4534 9.144 52.8854 9.144C53.4614 9.144 54.0314 9.246 54.5954 9.45C55.1594 9.642 55.6154 9.978 55.9634 10.458L54.5234 11.754ZM57.9495 9.36H60.1095V18H57.9495V9.36ZM57.6435 6.426C57.6435 6.078 57.7695 5.778 58.0215 5.526C58.2855 5.262 58.6155 5.13 59.0115 5.13C59.4075 5.13 59.7375 5.256 60.0015 5.508C60.2775 5.748 60.4155 6.054 60.4155 6.426C60.4155 6.798 60.2775 7.11 60.0015 7.362C59.7375 7.602 59.4075 7.722 59.0115 7.722C58.6155 7.722 58.2855 7.596 58.0215 7.344C57.7695 7.08 57.6435 6.774 57.6435 6.426ZM62.5892 4.392H64.7492V10.458H64.8032C64.9112 10.314 65.0492 10.17 65.2172 10.026C65.3852 9.87 65.5892 9.726 65.8292 9.594C66.0692 9.462 66.3452 9.354 66.6572 9.27C66.9692 9.186 67.3292 9.144 67.7372 9.144C68.3492 9.144 68.9132 9.264 69.4292 9.504C69.9452 9.732 70.3832 10.05 70.7432 10.458C71.1152 10.866 71.4032 11.346 71.6072 11.898C71.8112 12.45 71.9132 13.044 71.9132 13.68C71.9132 14.316 71.8172 14.91 71.6252 15.462C71.4332 16.014 71.1512 16.494 70.7792 16.902C70.4072 17.31 69.9572 17.634 69.4292 17.874C68.9012 18.102 68.3072 18.216 67.6472 18.216C67.0352 18.216 66.4652 18.096 65.9372 17.856C65.4092 17.616 64.9892 17.232 64.6772 16.704H64.6412V18H62.5892V4.392ZM69.7532 13.68C69.7532 13.344 69.6932 13.02 69.5732 12.708C69.4652 12.396 69.2972 12.12 69.0692 11.88C68.8532 11.64 68.5892 11.448 68.2772 11.304C67.9652 11.16 67.6112 11.088 67.2152 11.088C66.8192 11.088 66.4652 11.16 66.1532 11.304C65.8412 11.448 65.5712 11.64 65.3432 11.88C65.1272 12.12 64.9592 12.396 64.8392 12.708C64.7312 13.02 64.6772 13.344 64.6772 13.68C64.6772 14.016 64.7312 14.34 64.8392 14.652C64.9592 14.964 65.1272 15.24 65.3432 15.48C65.5712 15.72 65.8412 15.912 66.1532 16.056C66.4652 16.2 66.8192 16.272 67.2152 16.272C67.6112 16.272 67.9652 16.2 68.2772 16.056C68.5892 15.912 68.8532 15.72 69.0692 15.48C69.2972 15.24 69.4652 14.964 69.5732 14.652C69.6932 14.34 69.7532 14.016 69.7532 13.68ZM73.9631 9.36H76.1231V18H73.9631V9.36ZM73.6571 6.426C73.6571 6.078 73.7831 5.778 74.0351 5.526C74.2991 5.262 74.6291 5.13 75.0251 5.13C75.4211 5.13 75.7511 5.256 76.0151 5.508C76.2911 5.748 76.4291 6.054 76.4291 6.426C76.4291 6.798 76.2911 7.11 76.0151 7.362C75.7511 7.602 75.4211 7.722 75.0251 7.722C74.6291 7.722 74.2991 7.596 74.0351 7.344C73.7831 7.08 73.6571 6.774 73.6571 6.426ZM78.6389 4.392H80.7989V18H78.6389V4.392ZM83.3323 9.36H85.4923V18H83.3323V9.36ZM83.0263 6.426C83.0263 6.078 83.1523 5.778 83.4043 5.526C83.6683 5.262 83.9983 5.13 84.3943 5.13C84.7903 5.13 85.1203 5.256 85.3843 5.508C85.6603 5.748 85.7983 6.054 85.7983 6.426C85.7983 6.798 85.6603 7.11 85.3843 7.362C85.1203 7.602 84.7903 7.722 84.3943 7.722C83.9983 7.722 83.6683 7.596 83.4043 7.344C83.1523 7.08 83.0263 6.774 83.0263 6.426ZM86.964 11.196V9.36H88.746V6.858H90.906V9.36H93.282V11.196H90.906V14.976C90.906 15.408 90.984 15.75 91.14 16.002C91.308 16.254 91.632 16.38 92.112 16.38C92.304 16.38 92.514 16.362 92.742 16.326C92.97 16.278 93.15 16.206 93.282 16.11V17.928C93.054 18.036 92.772 18.108 92.436 18.144C92.112 18.192 91.824 18.216 91.572 18.216C90.996 18.216 90.522 18.15 90.15 18.018C89.79 17.898 89.502 17.712 89.286 17.46C89.082 17.196 88.938 16.872 88.854 16.488C88.782 16.104 88.746 15.66 88.746 15.156V11.196H86.964ZM96.6961 14.436C96.7681 15.084 97.0201 15.588 97.4521 15.948C97.8841 16.308 98.4061 16.488 99.0181 16.488C99.5581 16.488 100.008 16.38 100.368 16.164C100.74 15.936 101.064 15.654 101.34 15.318L102.888 16.488C102.384 17.112 101.82 17.556 101.196 17.82C100.572 18.084 99.9181 18.216 99.2341 18.216C98.5861 18.216 97.9741 18.108 97.3981 17.892C96.8221 17.676 96.3241 17.37 95.9041 16.974C95.4841 16.578 95.1481 16.104 94.8961 15.552C94.6561 14.988 94.5361 14.364 94.5361 13.68C94.5361 12.996 94.6561 12.378 94.8961 11.826C95.1481 11.262 95.4841 10.782 95.9041 10.386C96.3241 9.99 96.8221 9.684 97.3981 9.468C97.9741 9.252 98.5861 9.144 99.2341 9.144C99.8341 9.144 100.38 9.252 100.872 9.468C101.376 9.672 101.802 9.972 102.15 10.368C102.51 10.764 102.786 11.256 102.978 11.844C103.182 12.42 103.284 13.086 103.284 13.842V14.436H96.6961ZM101.124 12.816C101.112 12.18 100.914 11.682 100.53 11.322C100.146 10.95 99.6121 10.764 98.9281 10.764C98.2801 10.764 97.7641 10.95 97.3801 11.322C97.0081 11.694 96.7801 12.192 96.6961 12.816H101.124ZM99.8461 5.256H102.294L99.7561 7.848H98.0641L99.8461 5.256Z" fill="#F3F3F8"/>
<rect y="40" width="328" height="56" rx="14" fill="#242B35"/>
<path d="M20.928 61.672H22.672L27.552 73H25.248L24.192 70.408H19.28L18.256 73H16L20.928 61.672ZM23.488 68.68L21.744 64.072L19.968 68.68H23.488ZM33.8829 67.624C33.6589 67.3893 33.4242 67.2027 33.1789 67.064C32.9335 66.9253 32.6829 66.856 32.4269 66.856C32.0749 66.856 31.7602 66.92 31.4829 67.048C31.2055 67.176 30.9655 67.3467 30.7629 67.56C30.5709 67.7733 30.4215 68.0187 30.3149 68.296C30.2189 68.5733 30.1709 68.8613 30.1709 69.16C30.1709 69.4587 30.2189 69.7467 30.3149 70.024C30.4215 70.3013 30.5709 70.5467 30.7629 70.76C30.9655 70.9733 31.2055 71.144 31.4829 71.272C31.7602 71.4 32.0749 71.464 32.4269 71.464C32.7255 71.464 33.0029 71.4053 33.2589 71.288C33.5149 71.16 33.7335 70.9787 33.9149 70.744L35.1949 72.12C35.0029 72.312 34.7789 72.4773 34.5229 72.616C34.2775 72.7547 34.0269 72.8667 33.7709 72.952C33.5149 73.0373 33.2695 73.096 33.0349 73.128C32.8002 73.1707 32.5975 73.192 32.4269 73.192C31.8509 73.192 31.3069 73.096 30.7949 72.904C30.2829 72.712 29.8402 72.44 29.4669 72.088C29.0935 71.736 28.7949 71.3147 28.5709 70.824C28.3575 70.3227 28.2509 69.768 28.2509 69.16C28.2509 68.552 28.3575 68.0027 28.5709 67.512C28.7949 67.0107 29.0935 66.584 29.4669 66.232C29.8402 65.88 30.2829 65.608 30.7949 65.416C31.3069 65.224 31.8509 65.128 32.4269 65.128C32.9175 65.128 33.4082 65.224 33.8989 65.416C34.4002 65.5973 34.8375 65.8907 35.2109 66.296L33.8829 67.624ZM41.6016 67.624C41.3776 67.3893 41.143 67.2027 40.8976 67.064C40.6523 66.9253 40.4016 66.856 40.1456 66.856C39.7936 66.856 39.479 66.92 39.2016 67.048C38.9243 67.176 38.6843 67.3467 38.4816 67.56C38.2896 67.7733 38.1403 68.0187 38.0336 68.296C37.9376 68.5733 37.8896 68.8613 37.8896 69.16C37.8896 69.4587 37.9376 69.7467 38.0336 70.024C38.1403 70.3013 38.2896 70.5467 38.4816 70.76C38.6843 70.9733 38.9243 71.144 39.2016 71.272C39.479 71.4 39.7936 71.464 40.1456 71.464C40.4443 71.464 40.7216 71.4053 40.9776 71.288C41.2336 71.16 41.4523 70.9787 41.6336 70.744L42.9136 72.12C42.7216 72.312 42.4976 72.4773 42.2416 72.616C41.9963 72.7547 41.7456 72.8667 41.4896 72.952C41.2336 73.0373 40.9883 73.096 40.7536 73.128C40.519 73.1707 40.3163 73.192 40.1456 73.192C39.5696 73.192 39.0256 73.096 38.5136 72.904C38.0016 72.712 37.559 72.44 37.1856 72.088C36.8123 71.736 36.5136 71.3147 36.2896 70.824C36.0763 70.3227 35.9696 69.768 35.9696 69.16C35.9696 68.552 36.0763 68.0027 36.2896 67.512C36.5136 67.0107 36.8123 66.584 37.1856 66.232C37.559 65.88 38.0016 65.608 38.5136 65.416C39.0256 65.224 39.5696 65.128 40.1456 65.128C40.6363 65.128 41.127 65.224 41.6176 65.416C42.119 65.5973 42.5563 65.8907 42.9296 66.296L41.6016 67.624ZM45.6084 69.832C45.6724 70.408 45.8964 70.856 46.2804 71.176C46.6644 71.496 47.1284 71.656 47.6724 71.656C48.1524 71.656 48.5524 71.56 48.8724 71.368C49.203 71.1653 49.491 70.9147 49.7364 70.616L51.1124 71.656C50.6644 72.2107 50.163 72.6053 49.6084 72.84C49.0537 73.0747 48.4724 73.192 47.8644 73.192C47.2884 73.192 46.7444 73.096 46.2324 72.904C45.7204 72.712 45.2777 72.44 44.9044 72.088C44.531 71.736 44.2324 71.3147 44.0084 70.824C43.795 70.3227 43.6884 69.768 43.6884 69.16C43.6884 68.552 43.795 68.0027 44.0084 67.512C44.2324 67.0107 44.531 66.584 44.9044 66.232C45.2777 65.88 45.7204 65.608 46.2324 65.416C46.7444 65.224 47.2884 65.128 47.8644 65.128C48.3977 65.128 48.883 65.224 49.3204 65.416C49.7684 65.5973 50.147 65.864 50.4564 66.216C50.7764 66.568 51.0217 67.0053 51.1924 67.528C51.3737 68.04 51.4644 68.632 51.4644 69.304V69.832H45.6084ZM49.5444 68.392C49.5337 67.8267 49.3577 67.384 49.0164 67.064C48.675 66.7333 48.2004 66.568 47.5924 66.568C47.0164 66.568 46.5577 66.7333 46.2164 67.064C45.8857 67.3947 45.683 67.8373 45.6084 68.392H49.5444ZM48.3284 63.976H46.8244L44.5684 61.672H46.7444L48.3284 63.976ZM57.3559 67.448C56.9825 66.9253 56.4812 66.664 55.8519 66.664C55.5959 66.664 55.3452 66.728 55.0999 66.856C54.8545 66.984 54.7319 67.192 54.7319 67.48C54.7319 67.7147 54.8332 67.8853 55.0359 67.992C55.2385 68.0987 55.4945 68.1893 55.8039 68.264C56.1132 68.3387 56.4439 68.4187 56.7959 68.504C57.1585 68.5787 57.4945 68.7013 57.8039 68.872C58.1132 69.032 58.3692 69.256 58.5719 69.544C58.7745 69.832 58.8759 70.2267 58.8759 70.728C58.8759 71.1867 58.7745 71.576 58.5719 71.896C58.3799 72.2053 58.1239 72.456 57.8039 72.648C57.4945 72.84 57.1425 72.9787 56.7479 73.064C56.3532 73.1493 55.9585 73.192 55.5639 73.192C54.9665 73.192 54.4172 73.1067 53.9159 72.936C53.4145 72.7653 52.9665 72.456 52.5719 72.008L53.8519 70.808C54.0972 71.0853 54.3585 71.3147 54.6359 71.496C54.9239 71.6667 55.2705 71.752 55.6759 71.752C55.8145 71.752 55.9585 71.736 56.1079 71.704C56.2572 71.672 56.3959 71.6187 56.5239 71.544C56.6519 71.4693 56.7532 71.3787 56.8279 71.272C56.9132 71.1547 56.9559 71.0213 56.9559 70.872C56.9559 70.6053 56.8545 70.408 56.6519 70.28C56.4492 70.152 56.1932 70.0507 55.8839 69.976C55.5745 69.8907 55.2385 69.816 54.8759 69.752C54.5239 69.6773 54.1932 69.5653 53.8839 69.416C53.5745 69.256 53.3185 69.0373 53.1159 68.76C52.9132 68.4827 52.8119 68.0987 52.8119 67.608C52.8119 67.1813 52.8972 66.8133 53.0679 66.504C53.2492 66.184 53.4839 65.9227 53.7719 65.72C54.0599 65.5173 54.3905 65.368 54.7639 65.272C55.1372 65.176 55.5159 65.128 55.8999 65.128C56.4119 65.128 56.9185 65.2187 57.4199 65.4C57.9212 65.5707 58.3265 65.8693 58.6359 66.296L57.3559 67.448ZM65.2796 61.672H69.0876C69.6316 61.672 70.1543 61.7253 70.6556 61.832C71.1676 61.9387 71.6156 62.12 71.9996 62.376C72.3836 62.6213 72.6876 62.9573 72.9116 63.384C73.1463 63.8 73.2636 64.3227 73.2636 64.952C73.2636 65.6667 73.141 66.2427 72.8956 66.68C72.6503 67.1173 72.3196 67.4587 71.9036 67.704C71.4876 67.9387 71.0023 68.0987 70.4476 68.184C69.9036 68.2693 69.333 68.312 68.7356 68.312H67.2956V73H65.2796V61.672ZM68.5116 66.584C68.7996 66.584 69.0983 66.5733 69.4076 66.552C69.717 66.5307 69.9996 66.4667 70.2556 66.36C70.5223 66.2533 70.7356 66.0933 70.8956 65.88C71.0663 65.6667 71.1516 65.368 71.1516 64.984C71.1516 64.632 71.077 64.3547 70.9276 64.152C70.7783 63.9387 70.5863 63.7787 70.3516 63.672C70.117 63.5547 69.8556 63.48 69.5676 63.448C69.2796 63.416 69.0023 63.4 68.7356 63.4H67.2956V66.584H68.5116ZM74.9169 60.904H76.8369V73H74.9169V60.904ZM86.0491 73H84.2251V71.768H84.1931C84.0118 72.152 83.7345 72.488 83.3611 72.776C82.9878 73.0533 82.4811 73.192 81.8411 73.192C81.3291 73.192 80.8918 73.112 80.5291 72.952C80.1771 72.7813 79.8891 72.5573 79.6651 72.28C79.4411 71.992 79.2811 71.6667 79.1851 71.304C79.0891 70.9413 79.0411 70.5627 79.0411 70.168V65.32H80.9611V69.208C80.9611 69.4213 80.9718 69.6613 80.9931 69.928C81.0145 70.184 81.0678 70.4293 81.1531 70.664C81.2491 70.888 81.3878 71.08 81.5691 71.24C81.7611 71.3893 82.0278 71.464 82.3691 71.464C82.6891 71.464 82.9558 71.4107 83.1691 71.304C83.3931 71.1973 83.5745 71.0533 83.7131 70.872C83.8625 70.6907 83.9691 70.4827 84.0331 70.248C84.0971 70.0133 84.1291 69.768 84.1291 69.512V65.32H86.0491V73ZM92.3246 67.448C91.9513 66.9253 91.45 66.664 90.8206 66.664C90.5646 66.664 90.314 66.728 90.0686 66.856C89.8233 66.984 89.7006 67.192 89.7006 67.48C89.7006 67.7147 89.802 67.8853 90.0046 67.992C90.2073 68.0987 90.4633 68.1893 90.7726 68.264C91.082 68.3387 91.4126 68.4187 91.7646 68.504C92.1273 68.5787 92.4633 68.7013 92.7726 68.872C93.082 69.032 93.338 69.256 93.5406 69.544C93.7433 69.832 93.8446 70.2267 93.8446 70.728C93.8446 71.1867 93.7433 71.576 93.5406 71.896C93.3486 72.2053 93.0926 72.456 92.7726 72.648C92.4633 72.84 92.1113 72.9787 91.7166 73.064C91.322 73.1493 90.9273 73.192 90.5326 73.192C89.9353 73.192 89.386 73.1067 88.8846 72.936C88.3833 72.7653 87.9353 72.456 87.5406 72.008L88.8206 70.808C89.066 71.0853 89.3273 71.3147 89.6046 71.496C89.8926 71.6667 90.2393 71.752 90.6446 71.752C90.7833 71.752 90.9273 71.736 91.0766 71.704C91.226 71.672 91.3646 71.6187 91.4926 71.544C91.6206 71.4693 91.722 71.3787 91.7966 71.272C91.882 71.1547 91.9246 71.0213 91.9246 70.872C91.9246 70.6053 91.8233 70.408 91.6206 70.28C91.418 70.152 91.162 70.0507 90.8526 69.976C90.5433 69.8907 90.2073 69.816 89.8446 69.752C89.4926 69.6773 89.162 69.5653 88.8526 69.416C88.5433 69.256 88.2873 69.0373 88.0846 68.76C87.882 68.4827 87.7806 68.0987 87.7806 67.608C87.7806 67.1813 87.866 66.8133 88.0366 66.504C88.218 66.184 88.4526 65.9227 88.7406 65.72C89.0286 65.5173 89.3593 65.368 89.7326 65.272C90.106 65.176 90.4846 65.128 90.8686 65.128C91.3806 65.128 91.8873 65.2187 92.3886 65.4C92.89 65.5707 93.2953 65.8693 93.6046 66.296L92.3246 67.448Z" fill="#F3F3F4"/>
<path d="M296.794 62.6659C296.366 63.0617 296.366 63.7383 296.794 64.1341L300.973 68L296.794 71.8659C296.366 72.2617 296.366 72.9383 296.794 73.3341L296.834 73.3719C297.218 73.7264 297.809 73.7264 298.193 73.3719L303.206 68.7341C303.634 68.3383 303.634 67.6617 303.206 67.2659L298.193 62.6281C297.809 62.2736 297.218 62.2736 296.834 62.6281L296.794 62.6659Z" fill="#8DE8FE"/>
<rect y="104" width="328" height="56" rx="14" fill="#242B35"/>
<path d="M20.928 125.672H22.672L27.552 137H25.248L24.192 134.408H19.28L18.256 137H16L20.928 125.672ZM23.488 132.68L21.744 128.072L19.968 132.68H23.488ZM33.8829 131.624C33.6589 131.389 33.4242 131.203 33.1789 131.064C32.9335 130.925 32.6829 130.856 32.4269 130.856C32.0749 130.856 31.7602 130.92 31.4829 131.048C31.2055 131.176 30.9655 131.347 30.7629 131.56C30.5709 131.773 30.4215 132.019 30.3149 132.296C30.2189 132.573 30.1709 132.861 30.1709 133.16C30.1709 133.459 30.2189 133.747 30.3149 134.024C30.4215 134.301 30.5709 134.547 30.7629 134.76C30.9655 134.973 31.2055 135.144 31.4829 135.272C31.7602 135.4 32.0749 135.464 32.4269 135.464C32.7255 135.464 33.0029 135.405 33.2589 135.288C33.5149 135.16 33.7335 134.979 33.9149 134.744L35.1949 136.12C35.0029 136.312 34.7789 136.477 34.5229 136.616C34.2775 136.755 34.0269 136.867 33.7709 136.952C33.5149 137.037 33.2695 137.096 33.0349 137.128C32.8002 137.171 32.5975 137.192 32.4269 137.192C31.8509 137.192 31.3069 137.096 30.7949 136.904C30.2829 136.712 29.8402 136.44 29.4669 136.088C29.0935 135.736 28.7949 135.315 28.5709 134.824C28.3575 134.323 28.2509 133.768 28.2509 133.16C28.2509 132.552 28.3575 132.003 28.5709 131.512C28.7949 131.011 29.0935 130.584 29.4669 130.232C29.8402 129.88 30.2829 129.608 30.7949 129.416C31.3069 129.224 31.8509 129.128 32.4269 129.128C32.9175 129.128 33.4082 129.224 33.8989 129.416C34.4002 129.597 34.8375 129.891 35.2109 130.296L33.8829 131.624ZM41.6016 131.624C41.3776 131.389 41.143 131.203 40.8976 131.064C40.6523 130.925 40.4016 130.856 40.1456 130.856C39.7936 130.856 39.479 130.92 39.2016 131.048C38.9243 131.176 38.6843 131.347 38.4816 131.56C38.2896 131.773 38.1403 132.019 38.0336 132.296C37.9376 132.573 37.8896 132.861 37.8896 133.16C37.8896 133.459 37.9376 133.747 38.0336 134.024C38.1403 134.301 38.2896 134.547 38.4816 134.76C38.6843 134.973 38.9243 135.144 39.2016 135.272C39.479 135.4 39.7936 135.464 40.1456 135.464C40.4443 135.464 40.7216 135.405 40.9776 135.288C41.2336 135.16 41.4523 134.979 41.6336 134.744L42.9136 136.12C42.7216 136.312 42.4976 136.477 42.2416 136.616C41.9963 136.755 41.7456 136.867 41.4896 136.952C41.2336 137.037 40.9883 137.096 40.7536 137.128C40.519 137.171 40.3163 137.192 40.1456 137.192C39.5696 137.192 39.0256 137.096 38.5136 136.904C38.0016 136.712 37.559 136.44 37.1856 136.088C36.8123 135.736 36.5136 135.315 36.2896 134.824C36.0763 134.323 35.9696 133.768 35.9696 133.16C35.9696 132.552 36.0763 132.003 36.2896 131.512C36.5136 131.011 36.8123 130.584 37.1856 130.232C37.559 129.88 38.0016 129.608 38.5136 129.416C39.0256 129.224 39.5696 129.128 40.1456 129.128C40.6363 129.128 41.127 129.224 41.6176 129.416C42.119 129.597 42.5563 129.891 42.9296 130.296L41.6016 131.624ZM45.6084 133.832C45.6724 134.408 45.8964 134.856 46.2804 135.176C46.6644 135.496 47.1284 135.656 47.6724 135.656C48.1524 135.656 48.5524 135.56 48.8724 135.368C49.203 135.165 49.491 134.915 49.7364 134.616L51.1124 135.656C50.6644 136.211 50.163 136.605 49.6084 136.84C49.0537 137.075 48.4724 137.192 47.8644 137.192C47.2884 137.192 46.7444 137.096 46.2324 136.904C45.7204 136.712 45.2777 136.44 44.9044 136.088C44.531 135.736 44.2324 135.315 44.0084 134.824C43.795 134.323 43.6884 133.768 43.6884 133.16C43.6884 132.552 43.795 132.003 44.0084 131.512C44.2324 131.011 44.531 130.584 44.9044 130.232C45.2777 129.88 45.7204 129.608 46.2324 129.416C46.7444 129.224 47.2884 129.128 47.8644 129.128C48.3977 129.128 48.883 129.224 49.3204 129.416C49.7684 129.597 50.147 129.864 50.4564 130.216C50.7764 130.568 51.0217 131.005 51.1924 131.528C51.3737 132.04 51.4644 132.632 51.4644 133.304V133.832H45.6084ZM49.5444 132.392C49.5337 131.827 49.3577 131.384 49.0164 131.064C48.675 130.733 48.2004 130.568 47.5924 130.568C47.0164 130.568 46.5577 130.733 46.2164 131.064C45.8857 131.395 45.683 131.837 45.6084 132.392H49.5444ZM48.3284 127.976H46.8244L44.5684 125.672H46.7444L48.3284 127.976ZM57.3559 131.448C56.9825 130.925 56.4812 130.664 55.8519 130.664C55.5959 130.664 55.3452 130.728 55.0999 130.856C54.8545 130.984 54.7319 131.192 54.7319 131.48C54.7319 131.715 54.8332 131.885 55.0359 131.992C55.2385 132.099 55.4945 132.189 55.8039 132.264C56.1132 132.339 56.4439 132.419 56.7959 132.504C57.1585 132.579 57.4945 132.701 57.8039 132.872C58.1132 133.032 58.3692 133.256 58.5719 133.544C58.7745 133.832 58.8759 134.227 58.8759 134.728C58.8759 135.187 58.7745 135.576 58.5719 135.896C58.3799 136.205 58.1239 136.456 57.8039 136.648C57.4945 136.84 57.1425 136.979 56.7479 137.064C56.3532 137.149 55.9585 137.192 55.5639 137.192C54.9665 137.192 54.4172 137.107 53.9159 136.936C53.4145 136.765 52.9665 136.456 52.5719 136.008L53.8519 134.808C54.0972 135.085 54.3585 135.315 54.6359 135.496C54.9239 135.667 55.2705 135.752 55.6759 135.752C55.8145 135.752 55.9585 135.736 56.1079 135.704C56.2572 135.672 56.3959 135.619 56.5239 135.544C56.6519 135.469 56.7532 135.379 56.8279 135.272C56.9132 135.155 56.9559 135.021 56.9559 134.872C56.9559 134.605 56.8545 134.408 56.6519 134.28C56.4492 134.152 56.1932 134.051 55.8839 133.976C55.5745 133.891 55.2385 133.816 54.8759 133.752C54.5239 133.677 54.1932 133.565 53.8839 133.416C53.5745 133.256 53.3185 133.037 53.1159 132.76C52.9132 132.483 52.8119 132.099 52.8119 131.608C52.8119 131.181 52.8972 130.813 53.0679 130.504C53.2492 130.184 53.4839 129.923 53.7719 129.72C54.0599 129.517 54.3905 129.368 54.7639 129.272C55.1372 129.176 55.5159 129.128 55.8999 129.128C56.4119 129.128 56.9185 129.219 57.4199 129.4C57.9212 129.571 58.3265 129.869 58.6359 130.296L57.3559 131.448ZM67.5996 127.496H64.1276V125.672H73.0876V127.496H69.6156V137H67.5996V127.496ZM74.4671 125.672H81.9711V127.496H76.4831V130.28H81.6831V132.104H76.4831V135.176H82.2591V137H74.4671V125.672ZM84.2484 125.672H88.1844C88.7284 125.672 89.251 125.725 89.7524 125.832C90.2644 125.928 90.7177 126.099 91.1124 126.344C91.507 126.589 91.8217 126.92 92.0564 127.336C92.291 127.752 92.4084 128.28 92.4084 128.92C92.4084 129.741 92.179 130.429 91.7204 130.984C91.2724 131.539 90.627 131.875 89.7844 131.992L92.7924 137H90.3604L87.7364 132.2H86.2644V137H84.2484V125.672ZM87.8324 130.472C88.1204 130.472 88.4084 130.461 88.6964 130.44C88.9844 130.408 89.2457 130.344 89.4804 130.248C89.7257 130.141 89.923 129.987 90.0724 129.784C90.2217 129.571 90.2964 129.277 90.2964 128.904C90.2964 128.573 90.227 128.307 90.0884 128.104C89.9497 127.901 89.7684 127.752 89.5444 127.656C89.3204 127.549 89.0697 127.48 88.7924 127.448C88.5257 127.416 88.2644 127.4 88.0084 127.4H86.2644V130.472H87.8324Z" fill="#F3F3F4"/>
<path d="M296.794 126.666C296.366 127.062 296.366 127.738 296.794 128.134L300.973 132L296.794 135.866C296.366 136.262 296.366 136.938 296.794 137.334L296.834 137.372C297.218 137.726 297.809 137.726 298.193 137.372L303.206 132.734C303.634 132.338 303.634 131.662 303.206 131.266L298.193 126.628C297.809 126.274 297.218 126.274 296.834 126.628L296.794 126.666Z" fill="#8DE8FE"/>
<rect y="168" width="328" height="56" rx="14" fill="#242B35"/>
<path d="M17.264 189.672H21.728C22.4747 189.672 23.1947 189.789 23.888 190.024C24.5813 190.248 25.1947 190.595 25.728 191.064C26.2613 191.533 26.688 192.125 27.008 192.84C27.328 193.544 27.488 194.376 27.488 195.336C27.488 196.307 27.3013 197.149 26.928 197.864C26.5653 198.568 26.0907 199.155 25.504 199.624C24.928 200.083 24.2827 200.429 23.568 200.664C22.864 200.888 22.1707 201 21.488 201H17.264V189.672ZM20.784 199.176C21.4133 199.176 22.0053 199.107 22.56 198.968C23.1253 198.819 23.616 198.595 24.032 198.296C24.448 197.987 24.7733 197.592 25.008 197.112C25.2533 196.621 25.376 196.029 25.376 195.336C25.376 194.653 25.2693 194.067 25.056 193.576C24.8427 193.085 24.544 192.691 24.16 192.392C23.7867 192.083 23.3387 191.859 22.816 191.72C22.304 191.571 21.7387 191.496 21.12 191.496H19.28V199.176H20.784ZM30.7646 197.832C30.8286 198.408 31.0526 198.856 31.4366 199.176C31.8206 199.496 32.2846 199.656 32.8286 199.656C33.3086 199.656 33.7086 199.56 34.0286 199.368C34.3593 199.165 34.6473 198.915 34.8926 198.616L36.2686 199.656C35.8206 200.211 35.3193 200.605 34.7646 200.84C34.21 201.075 33.6286 201.192 33.0206 201.192C32.4446 201.192 31.9006 201.096 31.3886 200.904C30.8766 200.712 30.434 200.44 30.0606 200.088C29.6873 199.736 29.3886 199.315 29.1646 198.824C28.9513 198.323 28.8446 197.768 28.8446 197.16C28.8446 196.552 28.9513 196.003 29.1646 195.512C29.3886 195.011 29.6873 194.584 30.0606 194.232C30.434 193.88 30.8766 193.608 31.3886 193.416C31.9006 193.224 32.4446 193.128 33.0206 193.128C33.554 193.128 34.0393 193.224 34.4766 193.416C34.9246 193.597 35.3033 193.864 35.6126 194.216C35.9326 194.568 36.178 195.005 36.3486 195.528C36.53 196.04 36.6206 196.632 36.6206 197.304V197.832H30.7646ZM34.7006 196.392C34.69 195.827 34.514 195.384 34.1726 195.064C33.8313 194.733 33.3566 194.568 32.7486 194.568C32.1726 194.568 31.714 194.733 31.3726 195.064C31.042 195.395 30.8393 195.837 30.7646 196.392H34.7006ZM33.5646 189.672H35.7406L33.4846 191.976H31.9806L33.5646 189.672ZM43.6641 195.624C43.4401 195.389 43.2055 195.203 42.9601 195.064C42.7148 194.925 42.4641 194.856 42.2081 194.856C41.8561 194.856 41.5415 194.92 41.2641 195.048C40.9868 195.176 40.7468 195.347 40.5441 195.56C40.3521 195.773 40.2028 196.019 40.0961 196.296C40.0001 196.573 39.9521 196.861 39.9521 197.16C39.9521 197.459 40.0001 197.747 40.0961 198.024C40.2028 198.301 40.3521 198.547 40.5441 198.76C40.7468 198.973 40.9868 199.144 41.2641 199.272C41.5415 199.4 41.8561 199.464 42.2081 199.464C42.5068 199.464 42.7841 199.405 43.0401 199.288C43.2961 199.16 43.5148 198.979 43.6961 198.744L44.9761 200.12C44.7841 200.312 44.5601 200.477 44.3041 200.616C44.0588 200.755 43.8081 200.867 43.5521 200.952C43.2961 201.037 43.0508 201.096 42.8161 201.128C42.5815 201.171 42.3788 201.192 42.2081 201.192C41.6321 201.192 41.0881 201.096 40.5761 200.904C40.0641 200.712 39.6215 200.44 39.2481 200.088C38.8748 199.736 38.5761 199.315 38.3521 198.824C38.1388 198.323 38.0321 197.768 38.0321 197.16C38.0321 196.552 38.1388 196.003 38.3521 195.512C38.5761 195.011 38.8748 194.584 39.2481 194.232C39.6215 193.88 40.0641 193.608 40.5761 193.416C41.0881 193.224 41.6321 193.128 42.2081 193.128C42.6988 193.128 43.1895 193.224 43.6801 193.416C44.1815 193.597 44.6188 193.891 44.9921 194.296L43.6641 195.624ZM46.1669 188.904H48.0869V201H46.1669V188.904ZM55.0911 199.944H55.0431C54.7658 200.381 54.4138 200.701 53.9871 200.904C53.5605 201.096 53.0911 201.192 52.5791 201.192C52.2271 201.192 51.8805 201.144 51.5391 201.048C51.2085 200.952 50.9098 200.808 50.6431 200.616C50.3871 200.424 50.1791 200.184 50.0191 199.896C49.8591 199.608 49.7791 199.272 49.7791 198.888C49.7791 198.472 49.8538 198.12 50.0031 197.832C50.1525 197.533 50.3498 197.288 50.5951 197.096C50.8511 196.893 51.1445 196.733 51.4751 196.616C51.8058 196.499 52.1471 196.413 52.4991 196.36C52.8618 196.296 53.2245 196.259 53.5871 196.248C53.9498 196.227 54.2911 196.216 54.6111 196.216H55.0911V196.008C55.0911 195.528 54.9258 195.171 54.5951 194.936C54.2645 194.691 53.8431 194.568 53.3311 194.568C52.9258 194.568 52.5471 194.643 52.1951 194.792C51.8431 194.931 51.5391 195.123 51.2831 195.368L50.2751 194.36C50.7018 193.923 51.1978 193.608 51.7631 193.416C52.3391 193.224 52.9311 193.128 53.5391 193.128C54.0831 193.128 54.5418 193.192 54.9151 193.32C55.2885 193.437 55.5978 193.592 55.8431 193.784C56.0885 193.976 56.2751 194.2 56.4031 194.456C56.5418 194.701 56.6378 194.952 56.6911 195.208C56.7551 195.464 56.7925 195.715 56.8031 195.96C56.8138 196.195 56.8191 196.403 56.8191 196.584V201H55.0911V199.944ZM54.9791 197.56H54.5791C54.3125 197.56 54.0138 197.571 53.6831 197.592C53.3525 197.613 53.0378 197.667 52.7391 197.752C52.4511 197.827 52.2058 197.944 52.0031 198.104C51.8005 198.253 51.6991 198.467 51.6991 198.744C51.6991 198.925 51.7365 199.08 51.8111 199.208C51.8965 199.325 52.0031 199.427 52.1311 199.512C52.2591 199.597 52.4031 199.661 52.5631 199.704C52.7231 199.736 52.8831 199.752 53.0431 199.752C53.7045 199.752 54.1898 199.597 54.4991 199.288C54.8191 198.968 54.9791 198.536 54.9791 197.992V197.56ZM58.8849 193.32H60.8049V194.536H60.8369C61.0502 194.088 61.3542 193.741 61.7489 193.496C62.1435 193.251 62.5969 193.128 63.1089 193.128C63.2262 193.128 63.3382 193.139 63.4449 193.16C63.5622 193.181 63.6795 193.208 63.7969 193.24V195.096C63.6369 195.053 63.4769 195.021 63.3169 195C63.1675 194.968 63.0182 194.952 62.8689 194.952C62.4209 194.952 62.0582 195.037 61.7809 195.208C61.5142 195.368 61.3062 195.555 61.1569 195.768C61.0182 195.981 60.9222 196.195 60.8689 196.408C60.8262 196.621 60.8049 196.781 60.8049 196.888V201H58.8849V193.32ZM69.9036 199.944H69.8556C69.5783 200.381 69.2263 200.701 68.7996 200.904C68.373 201.096 67.9036 201.192 67.3916 201.192C67.0396 201.192 66.693 201.144 66.3516 201.048C66.021 200.952 65.7223 200.808 65.4556 200.616C65.1996 200.424 64.9916 200.184 64.8316 199.896C64.6716 199.608 64.5916 199.272 64.5916 198.888C64.5916 198.472 64.6663 198.12 64.8156 197.832C64.965 197.533 65.1623 197.288 65.4076 197.096C65.6636 196.893 65.957 196.733 66.2876 196.616C66.6183 196.499 66.9596 196.413 67.3116 196.36C67.6743 196.296 68.037 196.259 68.3996 196.248C68.7623 196.227 69.1036 196.216 69.4236 196.216H69.9036V196.008C69.9036 195.528 69.7383 195.171 69.4076 194.936C69.077 194.691 68.6556 194.568 68.1436 194.568C67.7383 194.568 67.3596 194.643 67.0076 194.792C66.6556 194.931 66.3516 195.123 66.0956 195.368L65.0876 194.36C65.5143 193.923 66.0103 193.608 66.5756 193.416C67.1516 193.224 67.7436 193.128 68.3516 193.128C68.8956 193.128 69.3543 193.192 69.7276 193.32C70.101 193.437 70.4103 193.592 70.6556 193.784C70.901 193.976 71.0876 194.2 71.2156 194.456C71.3543 194.701 71.4503 194.952 71.5036 195.208C71.5676 195.464 71.605 195.715 71.6156 195.96C71.6263 196.195 71.6316 196.403 71.6316 196.584V201H69.9036V199.944ZM69.7916 197.56H69.3916C69.125 197.56 68.8263 197.571 68.4956 197.592C68.165 197.613 67.8503 197.667 67.5516 197.752C67.2636 197.827 67.0183 197.944 66.8156 198.104C66.613 198.253 66.5116 198.467 66.5116 198.744C66.5116 198.925 66.549 199.08 66.6236 199.208C66.709 199.325 66.8156 199.427 66.9436 199.512C67.0716 199.597 67.2156 199.661 67.3756 199.704C67.5356 199.736 67.6956 199.752 67.8556 199.752C68.517 199.752 69.0023 199.597 69.3116 199.288C69.6316 198.968 69.7916 198.536 69.7916 197.992V197.56ZM72.8014 194.952V193.32H74.3854V191.096H76.3054V193.32H78.4174V194.952H76.3054V198.312C76.3054 198.696 76.3747 199 76.5134 199.224C76.6627 199.448 76.9507 199.56 77.3774 199.56C77.548 199.56 77.7347 199.544 77.9374 199.512C78.14 199.469 78.3 199.405 78.4174 199.32V200.936C78.2147 201.032 77.964 201.096 77.6654 201.128C77.3774 201.171 77.1214 201.192 76.8974 201.192C76.3854 201.192 75.964 201.133 75.6334 201.016C75.3134 200.909 75.0574 200.744 74.8654 200.52C74.684 200.285 74.556 199.997 74.4814 199.656C74.4174 199.315 74.3854 198.92 74.3854 198.472V194.952H72.8014ZM79.9638 193.32H81.8838V201H79.9638V193.32ZM79.6918 190.712C79.6918 190.403 79.8038 190.136 80.0278 189.912C80.2624 189.677 80.5558 189.56 80.9078 189.56C81.2598 189.56 81.5531 189.672 81.7878 189.896C82.0331 190.109 82.1558 190.381 82.1558 190.712C82.1558 191.043 82.0331 191.32 81.7878 191.544C81.5531 191.757 81.2598 191.864 80.9078 191.864C80.5558 191.864 80.2624 191.752 80.0278 191.528C79.8038 191.293 79.6918 191.021 79.6918 190.712ZM83.704 197.16C83.704 196.552 83.8107 196.003 84.024 195.512C84.248 195.011 84.5467 194.584 84.92 194.232C85.2933 193.88 85.736 193.608 86.248 193.416C86.76 193.224 87.304 193.128 87.88 193.128C88.456 193.128 89 193.224 89.512 193.416C90.024 193.608 90.4667 193.88 90.84 194.232C91.2133 194.584 91.5067 195.011 91.72 195.512C91.944 196.003 92.056 196.552 92.056 197.16C92.056 197.768 91.944 198.323 91.72 198.824C91.5067 199.315 91.2133 199.736 90.84 200.088C90.4667 200.44 90.024 200.712 89.512 200.904C89 201.096 88.456 201.192 87.88 201.192C87.304 201.192 86.76 201.096 86.248 200.904C85.736 200.712 85.2933 200.44 84.92 200.088C84.5467 199.736 84.248 199.315 84.024 198.824C83.8107 198.323 83.704 197.768 83.704 197.16ZM85.624 197.16C85.624 197.459 85.672 197.747 85.768 198.024C85.8747 198.301 86.024 198.547 86.216 198.76C86.4187 198.973 86.6587 199.144 86.936 199.272C87.2133 199.4 87.528 199.464 87.88 199.464C88.232 199.464 88.5467 199.4 88.824 199.272C89.1013 199.144 89.336 198.973 89.528 198.76C89.7307 198.547 89.88 198.301 89.976 198.024C90.0827 197.747 90.136 197.459 90.136 197.16C90.136 196.861 90.0827 196.573 89.976 196.296C89.88 196.019 89.7307 195.773 89.528 195.56C89.336 195.347 89.1013 195.176 88.824 195.048C88.5467 194.92 88.232 194.856 87.88 194.856C87.528 194.856 87.2133 194.92 86.936 195.048C86.6587 195.176 86.4187 195.347 86.216 195.56C86.024 195.773 85.8747 196.019 85.768 196.296C85.672 196.573 85.624 196.861 85.624 197.16ZM93.8536 193.32H95.6776V194.552H95.7096C95.891 194.168 96.1683 193.837 96.5416 193.56C96.915 193.272 97.4216 193.128 98.0616 193.128C98.5736 193.128 99.0056 193.213 99.3576 193.384C99.7203 193.555 100.014 193.779 100.238 194.056C100.462 194.333 100.622 194.653 100.718 195.016C100.814 195.379 100.862 195.757 100.862 196.152V201H98.9416V197.112C98.9416 196.899 98.931 196.664 98.9096 196.408C98.8883 196.141 98.8296 195.896 98.7336 195.672C98.6483 195.437 98.5096 195.245 98.3176 195.096C98.1256 194.936 97.8643 194.856 97.5336 194.856C97.2136 194.856 96.9416 194.909 96.7176 195.016C96.5043 195.123 96.323 195.267 96.1736 195.448C96.035 195.629 95.9336 195.837 95.8696 196.072C95.8056 196.307 95.7736 196.552 95.7736 196.808V201H93.8536V193.32ZM113.856 199.848H113.824C113.546 200.317 113.173 200.659 112.704 200.872C112.234 201.085 111.728 201.192 111.184 201.192C110.586 201.192 110.053 201.091 109.584 200.888C109.125 200.675 108.73 200.387 108.4 200.024C108.069 199.661 107.818 199.235 107.648 198.744C107.477 198.253 107.392 197.725 107.392 197.16C107.392 196.595 107.482 196.067 107.664 195.576C107.845 195.085 108.096 194.659 108.416 194.296C108.746 193.933 109.141 193.651 109.6 193.448C110.058 193.235 110.56 193.128 111.104 193.128C111.466 193.128 111.786 193.165 112.064 193.24C112.341 193.315 112.586 193.411 112.8 193.528C113.013 193.645 113.194 193.773 113.344 193.912C113.493 194.04 113.616 194.168 113.712 194.296H113.76V188.904H115.68V201H113.856V199.848ZM109.312 197.16C109.312 197.459 109.36 197.747 109.456 198.024C109.562 198.301 109.712 198.547 109.904 198.76C110.106 198.973 110.346 199.144 110.624 199.272C110.901 199.4 111.216 199.464 111.568 199.464C111.92 199.464 112.234 199.4 112.512 199.272C112.789 199.144 113.024 198.973 113.216 198.76C113.418 198.547 113.568 198.301 113.664 198.024C113.77 197.747 113.824 197.459 113.824 197.16C113.824 196.861 113.77 196.573 113.664 196.296C113.568 196.019 113.418 195.773 113.216 195.56C113.024 195.347 112.789 195.176 112.512 195.048C112.234 194.92 111.92 194.856 111.568 194.856C111.216 194.856 110.901 194.92 110.624 195.048C110.346 195.176 110.106 195.347 109.904 195.56C109.712 195.773 109.562 196.019 109.456 196.296C109.36 196.573 109.312 196.861 109.312 197.16ZM118.733 189.672H120.685L119.325 193.896H117.613L118.733 189.672ZM127.404 199.944H127.356C127.078 200.381 126.726 200.701 126.3 200.904C125.873 201.096 125.404 201.192 124.892 201.192C124.54 201.192 124.193 201.144 123.852 201.048C123.521 200.952 123.222 200.808 122.956 200.616C122.7 200.424 122.492 200.184 122.332 199.896C122.172 199.608 122.092 199.272 122.092 198.888C122.092 198.472 122.166 198.12 122.316 197.832C122.465 197.533 122.662 197.288 122.908 197.096C123.164 196.893 123.457 196.733 123.788 196.616C124.118 196.499 124.46 196.413 124.812 196.36C125.174 196.296 125.537 196.259 125.9 196.248C126.262 196.227 126.604 196.216 126.924 196.216H127.404V196.008C127.404 195.528 127.238 195.171 126.908 194.936C126.577 194.691 126.156 194.568 125.644 194.568C125.238 194.568 124.86 194.643 124.508 194.792C124.156 194.931 123.852 195.123 123.596 195.368L122.588 194.36C123.014 193.923 123.51 193.608 124.076 193.416C124.652 193.224 125.244 193.128 125.852 193.128C126.396 193.128 126.854 193.192 127.228 193.32C127.601 193.437 127.91 193.592 128.156 193.784C128.401 193.976 128.588 194.2 128.716 194.456C128.854 194.701 128.95 194.952 129.004 195.208C129.068 195.464 129.105 195.715 129.116 195.96C129.126 196.195 129.132 196.403 129.132 196.584V201H127.404V199.944ZM127.292 197.56H126.892C126.625 197.56 126.326 197.571 125.996 197.592C125.665 197.613 125.35 197.667 125.052 197.752C124.764 197.827 124.518 197.944 124.316 198.104C124.113 198.253 124.012 198.467 124.012 198.744C124.012 198.925 124.049 199.08 124.124 199.208C124.209 199.325 124.316 199.427 124.444 199.512C124.572 199.597 124.716 199.661 124.876 199.704C125.036 199.736 125.196 199.752 125.356 199.752C126.017 199.752 126.502 199.597 126.812 199.288C127.132 198.968 127.292 198.536 127.292 197.992V197.56ZM136.445 195.624C136.221 195.389 135.987 195.203 135.741 195.064C135.496 194.925 135.245 194.856 134.989 194.856C134.637 194.856 134.323 194.92 134.045 195.048C133.768 195.176 133.528 195.347 133.325 195.56C133.133 195.773 132.984 196.019 132.877 196.296C132.781 196.573 132.733 196.861 132.733 197.16C132.733 197.459 132.781 197.747 132.877 198.024C132.984 198.301 133.133 198.547 133.325 198.76C133.528 198.973 133.768 199.144 134.045 199.272C134.323 199.4 134.637 199.464 134.989 199.464C135.288 199.464 135.565 199.405 135.821 199.288C136.077 199.16 136.296 198.979 136.477 198.744L137.757 200.12C137.565 200.312 137.341 200.477 137.085 200.616C136.84 200.755 136.589 200.867 136.333 200.952C136.077 201.037 135.832 201.096 135.597 201.128C135.363 201.171 135.16 201.192 134.989 201.192C134.413 201.192 133.869 201.096 133.357 200.904C132.845 200.712 132.403 200.44 132.029 200.088C131.656 199.736 131.357 199.315 131.133 198.824C130.92 198.323 130.813 197.768 130.813 197.16C130.813 196.552 130.92 196.003 131.133 195.512C131.357 195.011 131.656 194.584 132.029 194.232C132.403 193.88 132.845 193.608 133.357 193.416C133.869 193.224 134.413 193.128 134.989 193.128C135.48 193.128 135.971 193.224 136.461 193.416C136.963 193.597 137.4 193.891 137.773 194.296L136.445 195.624ZM144.164 195.624C143.94 195.389 143.705 195.203 143.46 195.064C143.215 194.925 142.964 194.856 142.708 194.856C142.356 194.856 142.041 194.92 141.764 195.048C141.487 195.176 141.247 195.347 141.044 195.56C140.852 195.773 140.703 196.019 140.596 196.296C140.5 196.573 140.452 196.861 140.452 197.16C140.452 197.459 140.5 197.747 140.596 198.024C140.703 198.301 140.852 198.547 141.044 198.76C141.247 198.973 141.487 199.144 141.764 199.272C142.041 199.4 142.356 199.464 142.708 199.464C143.007 199.464 143.284 199.405 143.54 199.288C143.796 199.16 144.015 198.979 144.196 198.744L145.476 200.12C145.284 200.312 145.06 200.477 144.804 200.616C144.559 200.755 144.308 200.867 144.052 200.952C143.796 201.037 143.551 201.096 143.316 201.128C143.081 201.171 142.879 201.192 142.708 201.192C142.132 201.192 141.588 201.096 141.076 200.904C140.564 200.712 140.121 200.44 139.748 200.088C139.375 199.736 139.076 199.315 138.852 198.824C138.639 198.323 138.532 197.768 138.532 197.16C138.532 196.552 138.639 196.003 138.852 195.512C139.076 195.011 139.375 194.584 139.748 194.232C140.121 193.88 140.564 193.608 141.076 193.416C141.588 193.224 142.132 193.128 142.708 193.128C143.199 193.128 143.689 193.224 144.18 193.416C144.681 193.597 145.119 193.891 145.492 194.296L144.164 195.624ZM148.171 197.832C148.235 198.408 148.459 198.856 148.843 199.176C149.227 199.496 149.691 199.656 150.235 199.656C150.715 199.656 151.115 199.56 151.435 199.368C151.766 199.165 152.054 198.915 152.299 198.616L153.675 199.656C153.227 200.211 152.726 200.605 152.171 200.84C151.616 201.075 151.035 201.192 150.427 201.192C149.851 201.192 149.307 201.096 148.795 200.904C148.283 200.712 147.84 200.44 147.467 200.088C147.094 199.736 146.795 199.315 146.571 198.824C146.358 198.323 146.251 197.768 146.251 197.16C146.251 196.552 146.358 196.003 146.571 195.512C146.795 195.011 147.094 194.584 147.467 194.232C147.84 193.88 148.283 193.608 148.795 193.416C149.307 193.224 149.851 193.128 150.427 193.128C150.96 193.128 151.446 193.224 151.883 193.416C152.331 193.597 152.71 193.864 153.019 194.216C153.339 194.568 153.584 195.005 153.755 195.528C153.936 196.04 154.027 196.632 154.027 197.304V197.832H148.171ZM152.107 196.392C152.096 195.827 151.92 195.384 151.579 195.064C151.238 194.733 150.763 194.568 150.155 194.568C149.579 194.568 149.12 194.733 148.779 195.064C148.448 195.395 148.246 195.837 148.171 196.392H152.107ZM159.918 195.448C159.545 194.925 159.044 194.664 158.414 194.664C158.158 194.664 157.908 194.728 157.662 194.856C157.417 194.984 157.294 195.192 157.294 195.48C157.294 195.715 157.396 195.885 157.598 195.992C157.801 196.099 158.057 196.189 158.366 196.264C158.676 196.339 159.006 196.419 159.358 196.504C159.721 196.579 160.057 196.701 160.366 196.872C160.676 197.032 160.932 197.256 161.134 197.544C161.337 197.832 161.438 198.227 161.438 198.728C161.438 199.187 161.337 199.576 161.134 199.896C160.942 200.205 160.686 200.456 160.366 200.648C160.057 200.84 159.705 200.979 159.31 201.064C158.916 201.149 158.521 201.192 158.126 201.192C157.529 201.192 156.98 201.107 156.478 200.936C155.977 200.765 155.529 200.456 155.134 200.008L156.414 198.808C156.66 199.085 156.921 199.315 157.198 199.496C157.486 199.667 157.833 199.752 158.238 199.752C158.377 199.752 158.521 199.736 158.67 199.704C158.82 199.672 158.958 199.619 159.086 199.544C159.214 199.469 159.316 199.379 159.39 199.272C159.476 199.155 159.518 199.021 159.518 198.872C159.518 198.605 159.417 198.408 159.214 198.28C159.012 198.152 158.756 198.051 158.446 197.976C158.137 197.891 157.801 197.816 157.438 197.752C157.086 197.677 156.756 197.565 156.446 197.416C156.137 197.256 155.881 197.037 155.678 196.76C155.476 196.483 155.374 196.099 155.374 195.608C155.374 195.181 155.46 194.813 155.63 194.504C155.812 194.184 156.046 193.923 156.334 193.72C156.622 193.517 156.953 193.368 157.326 193.272C157.7 193.176 158.078 193.128 158.462 193.128C158.974 193.128 159.481 193.219 159.982 193.4C160.484 193.571 160.889 193.869 161.198 194.296L159.918 195.448ZM167.028 195.448C166.654 194.925 166.153 194.664 165.524 194.664C165.268 194.664 165.017 194.728 164.772 194.856C164.526 194.984 164.404 195.192 164.404 195.48C164.404 195.715 164.505 195.885 164.708 195.992C164.91 196.099 165.166 196.189 165.476 196.264C165.785 196.339 166.116 196.419 166.468 196.504C166.83 196.579 167.166 196.701 167.476 196.872C167.785 197.032 168.041 197.256 168.244 197.544C168.446 197.832 168.548 198.227 168.548 198.728C168.548 199.187 168.446 199.576 168.244 199.896C168.052 200.205 167.796 200.456 167.476 200.648C167.166 200.84 166.814 200.979 166.42 201.064C166.025 201.149 165.63 201.192 165.236 201.192C164.638 201.192 164.089 201.107 163.588 200.936C163.086 200.765 162.638 200.456 162.244 200.008L163.524 198.808C163.769 199.085 164.03 199.315 164.308 199.496C164.596 199.667 164.942 199.752 165.348 199.752C165.486 199.752 165.63 199.736 165.78 199.704C165.929 199.672 166.068 199.619 166.196 199.544C166.324 199.469 166.425 199.379 166.5 199.272C166.585 199.155 166.628 199.021 166.628 198.872C166.628 198.605 166.526 198.408 166.324 198.28C166.121 198.152 165.865 198.051 165.556 197.976C165.246 197.891 164.91 197.816 164.548 197.752C164.196 197.677 163.865 197.565 163.556 197.416C163.246 197.256 162.99 197.037 162.788 196.76C162.585 196.483 162.484 196.099 162.484 195.608C162.484 195.181 162.569 194.813 162.74 194.504C162.921 194.184 163.156 193.923 163.444 193.72C163.732 193.517 164.062 193.368 164.436 193.272C164.809 193.176 165.188 193.128 165.572 193.128C166.084 193.128 166.59 193.219 167.092 193.4C167.593 193.571 167.998 193.869 168.308 194.296L167.028 195.448ZM170.073 193.32H171.993V201H170.073V193.32ZM169.801 190.712C169.801 190.403 169.913 190.136 170.137 189.912C170.372 189.677 170.665 189.56 171.017 189.56C171.369 189.56 171.662 189.672 171.897 189.896C172.142 190.109 172.265 190.381 172.265 190.712C172.265 191.043 172.142 191.32 171.897 191.544C171.662 191.757 171.369 191.864 171.017 191.864C170.665 191.864 170.372 191.752 170.137 191.528C169.913 191.293 169.801 191.021 169.801 190.712ZM174.197 188.904H176.117V194.296H176.165C176.261 194.168 176.384 194.04 176.533 193.912C176.683 193.773 176.864 193.645 177.077 193.528C177.291 193.411 177.536 193.315 177.813 193.24C178.091 193.165 178.411 193.128 178.773 193.128C179.317 193.128 179.819 193.235 180.277 193.448C180.736 193.651 181.125 193.933 181.445 194.296C181.776 194.659 182.032 195.085 182.213 195.576C182.395 196.067 182.485 196.595 182.485 197.16C182.485 197.725 182.4 198.253 182.229 198.744C182.059 199.235 181.808 199.661 181.477 200.024C181.147 200.387 180.747 200.675 180.277 200.888C179.808 201.091 179.28 201.192 178.693 201.192C178.149 201.192 177.643 201.085 177.173 200.872C176.704 200.659 176.331 200.317 176.053 199.848H176.021V201H174.197V188.904ZM180.565 197.16C180.565 196.861 180.512 196.573 180.405 196.296C180.309 196.019 180.16 195.773 179.957 195.56C179.765 195.347 179.531 195.176 179.253 195.048C178.976 194.92 178.661 194.856 178.309 194.856C177.957 194.856 177.643 194.92 177.365 195.048C177.088 195.176 176.848 195.347 176.645 195.56C176.453 195.773 176.304 196.019 176.197 196.296C176.101 196.573 176.053 196.861 176.053 197.16C176.053 197.459 176.101 197.747 176.197 198.024C176.304 198.301 176.453 198.547 176.645 198.76C176.848 198.973 177.088 199.144 177.365 199.272C177.643 199.4 177.957 199.464 178.309 199.464C178.661 199.464 178.976 199.4 179.253 199.272C179.531 199.144 179.765 198.973 179.957 198.76C180.16 198.547 180.309 198.301 180.405 198.024C180.512 197.747 180.565 197.459 180.565 197.16ZM184.308 193.32H186.228V201H184.308V193.32ZM184.036 190.712C184.036 190.403 184.148 190.136 184.372 189.912C184.606 189.677 184.9 189.56 185.252 189.56C185.604 189.56 185.897 189.672 186.132 189.896C186.377 190.109 186.5 190.381 186.5 190.712C186.5 191.043 186.377 191.32 186.132 191.544C185.897 191.757 185.604 191.864 185.252 191.864C184.9 191.864 184.606 191.752 184.372 191.528C184.148 191.293 184.036 191.021 184.036 190.712ZM188.464 188.904H190.384V201H188.464V188.904ZM192.636 193.32H194.556V201H192.636V193.32ZM192.364 190.712C192.364 190.403 192.476 190.136 192.7 189.912C192.934 189.677 193.228 189.56 193.58 189.56C193.932 189.56 194.225 189.672 194.46 189.896C194.705 190.109 194.828 190.381 194.828 190.712C194.828 191.043 194.705 191.32 194.46 191.544C194.225 191.757 193.932 191.864 193.58 191.864C193.228 191.864 192.934 191.752 192.7 191.528C192.476 191.293 192.364 191.021 192.364 190.712ZM195.864 194.952V193.32H197.448V191.096H199.368V193.32H201.48V194.952H199.368V198.312C199.368 198.696 199.437 199 199.576 199.224C199.725 199.448 200.013 199.56 200.44 199.56C200.611 199.56 200.797 199.544 201 199.512C201.203 199.469 201.363 199.405 201.48 199.32V200.936C201.277 201.032 201.027 201.096 200.728 201.128C200.44 201.171 200.184 201.192 199.96 201.192C199.448 201.192 199.027 201.133 198.696 201.016C198.376 200.909 198.12 200.744 197.928 200.52C197.747 200.285 197.619 199.997 197.544 199.656C197.48 199.315 197.448 198.92 197.448 198.472V194.952H195.864ZM204.515 197.832C204.579 198.408 204.803 198.856 205.187 199.176C205.571 199.496 206.035 199.656 206.579 199.656C207.059 199.656 207.459 199.56 207.779 199.368C208.109 199.165 208.397 198.915 208.643 198.616L210.019 199.656C209.571 200.211 209.069 200.605 208.515 200.84C207.96 201.075 207.379 201.192 206.771 201.192C206.195 201.192 205.651 201.096 205.139 200.904C204.627 200.712 204.184 200.44 203.811 200.088C203.437 199.736 203.139 199.315 202.915 198.824C202.701 198.323 202.595 197.768 202.595 197.16C202.595 196.552 202.701 196.003 202.915 195.512C203.139 195.011 203.437 194.584 203.811 194.232C204.184 193.88 204.627 193.608 205.139 193.416C205.651 193.224 206.195 193.128 206.771 193.128C207.304 193.128 207.789 193.224 208.227 193.416C208.675 193.597 209.053 193.864 209.363 194.216C209.683 194.568 209.928 195.005 210.099 195.528C210.28 196.04 210.371 196.632 210.371 197.304V197.832H204.515ZM208.451 196.392C208.44 195.827 208.264 195.384 207.923 195.064C207.581 194.733 207.107 194.568 206.499 194.568C205.923 194.568 205.464 194.733 205.123 195.064C204.792 195.395 204.589 195.837 204.515 196.392H208.451ZM207.315 189.672H209.491L207.235 191.976H205.731L207.315 189.672Z" fill="#F3F3F4"/>
<path d="M296.794 190.666C296.366 191.062 296.366 191.738 296.794 192.134L300.973 196L296.794 199.866C296.366 200.262 296.366 200.938 296.794 201.334L296.834 201.372C297.218 201.726 297.809 201.726 298.193 201.372L303.206 196.734C303.634 196.338 303.634 195.662 303.206 195.266L298.193 190.628C297.809 190.274 297.218 190.274 296.834 190.628L296.794 190.666Z" fill="#8DE8FE"/>
</svg>
