<svg width="328" height="304" viewBox="0 0 328 304" fill="none" xmlns="http://www.w3.org/2000/svg">
<path d="M5.544 5.256H7.506L12.996 18H10.404L9.216 15.084H3.69L2.538 18H0L5.544 5.256ZM8.424 13.14L6.462 7.956L4.464 13.14H8.424ZM14.2502 9.36H16.4102V18H14.2502V9.36ZM13.9442 6.426C13.9442 6.078 14.0702 5.778 14.3222 5.526C14.5862 5.262 14.9162 5.13 15.3122 5.13C15.7082 5.13 16.0382 5.256 16.3022 5.508C16.5782 5.748 16.7162 6.054 16.7162 6.426C16.7162 6.798 16.5782 7.11 16.3022 7.362C16.0382 7.602 15.7082 7.722 15.3122 7.722C14.9162 7.722 14.5862 7.596 14.3222 7.344C14.0702 7.08 13.9442 6.774 13.9442 6.426ZM25.73 16.704H25.694C25.382 17.232 24.962 17.616 24.434 17.856C23.906 18.096 23.336 18.216 22.724 18.216C22.052 18.216 21.452 18.102 20.924 17.874C20.408 17.634 19.964 17.31 19.592 16.902C19.22 16.494 18.938 16.014 18.746 15.462C18.554 14.91 18.458 14.316 18.458 13.68C18.458 13.044 18.56 12.45 18.764 11.898C18.968 11.346 19.25 10.866 19.61 10.458C19.982 10.05 20.426 9.732 20.942 9.504C21.458 9.264 22.022 9.144 22.634 9.144C23.042 9.144 23.402 9.186 23.714 9.27C24.026 9.354 24.302 9.462 24.542 9.594C24.782 9.726 24.986 9.87 25.154 10.026C25.322 10.17 25.46 10.314 25.568 10.458H25.622V4.392H27.782V18H25.73V16.704ZM20.618 13.68C20.618 14.016 20.672 14.34 20.78 14.652C20.9 14.964 21.068 15.24 21.284 15.48C21.512 15.72 21.782 15.912 22.094 16.056C22.406 16.2 22.76 16.272 23.156 16.272C23.552 16.272 23.906 16.2 24.218 16.056C24.53 15.912 24.794 15.72 25.01 15.48C25.238 15.24 25.406 14.964 25.514 14.652C25.634 14.34 25.694 14.016 25.694 13.68C25.694 13.344 25.634 13.02 25.514 12.708C25.406 12.396 25.238 12.12 25.01 11.88C24.794 11.64 24.53 11.448 24.218 11.304C23.906 11.16 23.552 11.088 23.156 11.088C22.76 11.088 22.406 11.16 22.094 11.304C21.782 11.448 21.512 11.64 21.284 11.88C21.068 12.12 20.9 12.396 20.78 12.708C20.672 13.02 20.618 13.344 20.618 13.68ZM31.9559 14.436C32.0279 15.084 32.2799 15.588 32.7119 15.948C33.1439 16.308 33.6659 16.488 34.2779 16.488C34.8179 16.488 35.2679 16.38 35.6279 16.164C35.9999 15.936 36.3239 15.654 36.5999 15.318L38.1479 16.488C37.6439 17.112 37.0799 17.556 36.4559 17.82C35.8319 18.084 35.1779 18.216 34.4939 18.216C33.8459 18.216 33.2339 18.108 32.6579 17.892C32.0819 17.676 31.5839 17.37 31.1639 16.974C30.7439 16.578 30.4079 16.104 30.1559 15.552C29.9159 14.988 29.7959 14.364 29.7959 13.68C29.7959 12.996 29.9159 12.378 30.1559 11.826C30.4079 11.262 30.7439 10.782 31.1639 10.386C31.5839 9.99 32.0819 9.684 32.6579 9.468C33.2339 9.252 33.8459 9.144 34.4939 9.144C35.0939 9.144 35.6399 9.252 36.1319 9.468C36.6359 9.672 37.0619 9.972 37.4099 10.368C37.7699 10.764 38.0459 11.256 38.2379 11.844C38.4419 12.42 38.5439 13.086 38.5439 13.842V14.436H31.9559ZM36.3839 12.816C36.3719 12.18 36.1739 11.682 35.7899 11.322C35.4059 10.95 34.8719 10.764 34.1879 10.764C33.5399 10.764 33.0239 10.95 32.6399 11.322C32.2679 11.694 32.0399 12.192 31.9559 12.816H36.3839Z" fill="#F3F3F8"/>
<rect y="40" width="328" height="56" rx="14" fill="#242B35"/>
<path d="M27.328 72.168C25.9307 72.9147 24.368 73.288 22.64 73.288C21.7653 73.288 20.96 73.1493 20.224 72.872C19.4987 72.584 18.8693 72.184 18.336 71.672C17.8133 71.1493 17.4027 70.5253 17.104 69.8C16.8053 69.0747 16.656 68.2693 16.656 67.384C16.656 66.4773 16.8053 65.656 17.104 64.92C17.4027 64.1733 17.8133 63.5387 18.336 63.016C18.8693 62.4933 19.4987 62.0933 20.224 61.816C20.96 61.528 21.7653 61.384 22.64 61.384C23.504 61.384 24.3147 61.4907 25.072 61.704C25.8293 61.9067 26.5067 62.2747 27.104 62.808L25.616 64.312C25.2533 63.96 24.8107 63.688 24.288 63.496C23.776 63.304 23.232 63.208 22.656 63.208C22.0693 63.208 21.536 63.3147 21.056 63.528C20.5867 63.7307 20.1813 64.0187 19.84 64.392C19.4987 64.7547 19.232 65.1813 19.04 65.672C18.8587 66.1627 18.768 66.6907 18.768 67.256C18.768 67.864 18.8587 68.424 19.04 68.936C19.232 69.448 19.4987 69.8907 19.84 70.264C20.1813 70.6373 20.5867 70.9307 21.056 71.144C21.536 71.3573 22.0693 71.464 22.656 71.464C23.168 71.464 23.648 71.416 24.096 71.32C24.5547 71.224 24.96 71.0747 25.312 70.872V68.2H22.992V66.376H27.328V72.168ZM34.3411 71.944H34.2931C34.0158 72.3813 33.6638 72.7013 33.2371 72.904C32.8105 73.096 32.3411 73.192 31.8291 73.192C31.4771 73.192 31.1305 73.144 30.7891 73.048C30.4585 72.952 30.1598 72.808 29.8931 72.616C29.6371 72.424 29.4291 72.184 29.2691 71.896C29.1091 71.608 29.0291 71.272 29.0291 70.888C29.0291 70.472 29.1038 70.12 29.2531 69.832C29.4025 69.5333 29.5998 69.288 29.8451 69.096C30.1011 68.8933 30.3945 68.7333 30.7251 68.616C31.0558 68.4987 31.3971 68.4133 31.7491 68.36C32.1118 68.296 32.4745 68.2587 32.8371 68.248C33.1998 68.2267 33.5411 68.216 33.8611 68.216H34.3411V68.008C34.3411 67.528 34.1758 67.1707 33.8451 66.936C33.5145 66.6907 33.0931 66.568 32.5811 66.568C32.1758 66.568 31.7971 66.6427 31.4451 66.792C31.0931 66.9307 30.7891 67.1227 30.5331 67.368L29.5251 66.36C29.9518 65.9227 30.4478 65.608 31.0131 65.416C31.5891 65.224 32.1811 65.128 32.7891 65.128C33.3331 65.128 33.7918 65.192 34.1651 65.32C34.5385 65.4373 34.8478 65.592 35.0931 65.784C35.3385 65.976 35.5251 66.2 35.6531 66.456C35.7918 66.7013 35.8878 66.952 35.9411 67.208C36.0051 67.464 36.0425 67.7147 36.0531 67.96C36.0638 68.1947 36.0691 68.4027 36.0691 68.584V73H34.3411V71.944ZM34.2291 69.56H33.8291C33.5625 69.56 33.2638 69.5707 32.9331 69.592C32.6025 69.6133 32.2878 69.6667 31.9891 69.752C31.7011 69.8267 31.4558 69.944 31.2531 70.104C31.0505 70.2533 30.9491 70.4667 30.9491 70.744C30.9491 70.9253 30.9865 71.08 31.0611 71.208C31.1465 71.3253 31.2531 71.4267 31.3811 71.512C31.5091 71.5973 31.6531 71.6613 31.8131 71.704C31.9731 71.736 32.1331 71.752 32.2931 71.752C32.9545 71.752 33.4398 71.5973 33.7491 71.288C34.0691 70.968 34.2291 70.536 34.2291 69.992V69.56ZM38.1349 65.32H40.0549V66.536H40.0869C40.3002 66.088 40.6042 65.7413 40.9989 65.496C41.3935 65.2507 41.8469 65.128 42.3589 65.128C42.4762 65.128 42.5882 65.1387 42.6949 65.16C42.8122 65.1813 42.9295 65.208 43.0469 65.24V67.096C42.8869 67.0533 42.7269 67.0213 42.5669 67C42.4175 66.968 42.2682 66.952 42.1189 66.952C41.6709 66.952 41.3082 67.0373 41.0309 67.208C40.7642 67.368 40.5562 67.5547 40.4069 67.768C40.2682 67.9813 40.1722 68.1947 40.1189 68.408C40.0762 68.6213 40.0549 68.7813 40.0549 68.888V73H38.1349V65.32ZM49.1536 71.944H49.1056C48.8283 72.3813 48.4763 72.7013 48.0496 72.904C47.623 73.096 47.1536 73.192 46.6416 73.192C46.2896 73.192 45.943 73.144 45.6016 73.048C45.271 72.952 44.9723 72.808 44.7056 72.616C44.4496 72.424 44.2416 72.184 44.0816 71.896C43.9216 71.608 43.8416 71.272 43.8416 70.888C43.8416 70.472 43.9163 70.12 44.0656 69.832C44.215 69.5333 44.4123 69.288 44.6576 69.096C44.9136 68.8933 45.207 68.7333 45.5376 68.616C45.8683 68.4987 46.2096 68.4133 46.5616 68.36C46.9243 68.296 47.287 68.2587 47.6496 68.248C48.0123 68.2267 48.3536 68.216 48.6736 68.216H49.1536V68.008C49.1536 67.528 48.9883 67.1707 48.6576 66.936C48.327 66.6907 47.9056 66.568 47.3936 66.568C46.9883 66.568 46.6096 66.6427 46.2576 66.792C45.9056 66.9307 45.6016 67.1227 45.3456 67.368L44.3376 66.36C44.7643 65.9227 45.2603 65.608 45.8256 65.416C46.4016 65.224 46.9936 65.128 47.6016 65.128C48.1456 65.128 48.6043 65.192 48.9776 65.32C49.351 65.4373 49.6603 65.592 49.9056 65.784C50.151 65.976 50.3376 66.2 50.4656 66.456C50.6043 66.7013 50.7003 66.952 50.7536 67.208C50.8176 67.464 50.855 67.7147 50.8656 67.96C50.8763 68.1947 50.8816 68.4027 50.8816 68.584V73H49.1536V71.944ZM49.0416 69.56H48.6416C48.375 69.56 48.0763 69.5707 47.7456 69.592C47.415 69.6133 47.1003 69.6667 46.8016 69.752C46.5136 69.8267 46.2683 69.944 46.0656 70.104C45.863 70.2533 45.7616 70.4667 45.7616 70.744C45.7616 70.9253 45.799 71.08 45.8736 71.208C45.959 71.3253 46.0656 71.4267 46.1936 71.512C46.3216 71.5973 46.4656 71.6613 46.6256 71.704C46.7856 71.736 46.9456 71.752 47.1056 71.752C47.767 71.752 48.2523 71.5973 48.5616 71.288C48.8816 70.968 49.0416 70.536 49.0416 69.992V69.56ZM52.9474 65.32H54.7714V66.552H54.8034C54.9847 66.168 55.262 65.8373 55.6354 65.56C56.0087 65.272 56.5154 65.128 57.1554 65.128C57.6674 65.128 58.0994 65.2133 58.4514 65.384C58.814 65.5547 59.1074 65.7787 59.3314 66.056C59.5554 66.3333 59.7154 66.6533 59.8114 67.016C59.9074 67.3787 59.9554 67.7573 59.9554 68.152V73H58.0354V69.112C58.0354 68.8987 58.0247 68.664 58.0034 68.408C57.982 68.1413 57.9234 67.896 57.8274 67.672C57.742 67.4373 57.6034 67.2453 57.4114 67.096C57.2194 66.936 56.958 66.856 56.6274 66.856C56.3074 66.856 56.0354 66.9093 55.8114 67.016C55.598 67.1227 55.4167 67.2667 55.2674 67.448C55.1287 67.6293 55.0274 67.8373 54.9634 68.072C54.8994 68.3067 54.8674 68.552 54.8674 68.808V73H52.9474V65.32ZM61.2389 66.952V65.32H62.8229V63.096H64.7429V65.32H66.8549V66.952H64.7429V70.312C64.7429 70.696 64.8122 71 64.9509 71.224C65.1002 71.448 65.3882 71.56 65.8149 71.56C65.9855 71.56 66.1722 71.544 66.3749 71.512C66.5775 71.4693 66.7375 71.4053 66.8549 71.32V72.936C66.6522 73.032 66.4015 73.096 66.1029 73.128C65.8149 73.1707 65.5589 73.192 65.3349 73.192C64.8229 73.192 64.4015 73.1333 64.0709 73.016C63.7509 72.9093 63.4949 72.744 63.3029 72.52C63.1215 72.2853 62.9935 71.9973 62.9189 71.656C62.8549 71.3147 62.8229 70.92 62.8229 70.472V66.952H61.2389ZM68.4013 65.32H70.3213V73H68.4013V65.32ZM68.1293 62.712C68.1293 62.4027 68.2413 62.136 68.4653 61.912C68.6999 61.6773 68.9933 61.56 69.3453 61.56C69.6973 61.56 69.9906 61.672 70.2253 61.896C70.4706 62.1093 70.5933 62.3813 70.5933 62.712C70.5933 63.0427 70.4706 63.32 70.2253 63.544C69.9906 63.7573 69.6973 63.864 69.3453 63.864C68.9933 63.864 68.6999 63.752 68.4653 63.528C68.2413 63.2933 68.1293 63.0213 68.1293 62.712ZM74.0615 69.832C74.1255 70.408 74.3495 70.856 74.7335 71.176C75.1175 71.496 75.5815 71.656 76.1255 71.656C76.6055 71.656 77.0055 71.56 77.3255 71.368C77.6562 71.1653 77.9442 70.9147 78.1895 70.616L79.5655 71.656C79.1175 72.2107 78.6162 72.6053 78.0615 72.84C77.5068 73.0747 76.9255 73.192 76.3175 73.192C75.7415 73.192 75.1975 73.096 74.6855 72.904C74.1735 72.712 73.7308 72.44 73.3575 72.088C72.9842 71.736 72.6855 71.3147 72.4615 70.824C72.2482 70.3227 72.1415 69.768 72.1415 69.16C72.1415 68.552 72.2482 68.0027 72.4615 67.512C72.6855 67.0107 72.9842 66.584 73.3575 66.232C73.7308 65.88 74.1735 65.608 74.6855 65.416C75.1975 65.224 75.7415 65.128 76.3175 65.128C76.8508 65.128 77.3362 65.224 77.7735 65.416C78.2215 65.5973 78.6002 65.864 78.9095 66.216C79.2295 66.568 79.4748 67.0053 79.6455 67.528C79.8268 68.04 79.9175 68.632 79.9175 69.304V69.832H74.0615ZM77.9975 68.392C77.9868 67.8267 77.8108 67.384 77.4695 67.064C77.1282 66.7333 76.6535 66.568 76.0455 66.568C75.4695 66.568 75.0108 66.7333 74.6695 67.064C74.3388 67.3947 74.1362 67.8373 74.0615 68.392H77.9975ZM96.6874 72.168C95.29 72.9147 93.7274 73.288 91.9994 73.288C91.1247 73.288 90.3194 73.1493 89.5834 72.872C88.858 72.584 88.2287 72.184 87.6954 71.672C87.1727 71.1493 86.762 70.5253 86.4634 69.8C86.1647 69.0747 86.0154 68.2693 86.0154 67.384C86.0154 66.4773 86.1647 65.656 86.4634 64.92C86.762 64.1733 87.1727 63.5387 87.6954 63.016C88.2287 62.4933 88.858 62.0933 89.5834 61.816C90.3194 61.528 91.1247 61.384 91.9994 61.384C92.8634 61.384 93.674 61.4907 94.4314 61.704C95.1887 61.9067 95.866 62.2747 96.4634 62.808L94.9754 64.312C94.6127 63.96 94.17 63.688 93.6474 63.496C93.1354 63.304 92.5914 63.208 92.0154 63.208C91.4287 63.208 90.8954 63.3147 90.4154 63.528C89.946 63.7307 89.5407 64.0187 89.1994 64.392C88.858 64.7547 88.5914 65.1813 88.3994 65.672C88.218 66.1627 88.1274 66.6907 88.1274 67.256C88.1274 67.864 88.218 68.424 88.3994 68.936C88.5914 69.448 88.858 69.8907 89.1994 70.264C89.5407 70.6373 89.946 70.9307 90.4154 71.144C90.8954 71.3573 91.4287 71.464 92.0154 71.464C92.5274 71.464 93.0074 71.416 93.4554 71.32C93.914 71.224 94.3194 71.0747 94.6714 70.872V68.2H92.3514V66.376H96.6874V72.168ZM101.365 66.232H101.861C102.138 66.232 102.405 66.216 102.661 66.184C102.927 66.152 103.162 66.0827 103.365 65.976C103.578 65.8693 103.749 65.7147 103.877 65.512C104.005 65.3093 104.069 65.0373 104.069 64.696C104.069 64.2587 103.919 63.9013 103.621 63.624C103.322 63.3467 102.933 63.208 102.453 63.208C102.069 63.208 101.722 63.32 101.413 63.544C101.114 63.7573 100.895 64.0613 100.757 64.456L98.7245 63.912C98.8525 63.496 99.0338 63.1333 99.2685 62.824C99.5032 62.5147 99.7805 62.264 100.101 62.072C100.421 61.8693 100.773 61.72 101.157 61.624C101.541 61.528 101.941 61.48 102.357 61.48C102.847 61.48 103.311 61.544 103.749 61.672C104.186 61.8 104.57 61.992 104.901 62.248C105.231 62.4933 105.493 62.808 105.685 63.192C105.887 63.5653 105.989 64.0027 105.989 64.504C105.989 65.112 105.818 65.656 105.477 66.136C105.135 66.6053 104.661 66.9147 104.053 67.064V67.096C104.778 67.2027 105.327 67.512 105.701 68.024C106.074 68.536 106.26 69.144 106.26 69.848C106.26 70.392 106.154 70.872 105.941 71.288C105.738 71.704 105.461 72.056 105.109 72.344C104.757 72.6213 104.346 72.8347 103.877 72.984C103.418 73.1227 102.938 73.192 102.437 73.192C101.967 73.192 101.525 73.1387 101.109 73.032C100.693 72.936 100.314 72.7813 99.9725 72.568C99.6418 72.3547 99.3538 72.0827 99.1085 71.752C98.8632 71.4107 98.6765 71.0053 98.5485 70.536L100.597 69.992C100.714 70.4613 100.922 70.824 101.221 71.08C101.519 71.336 101.925 71.464 102.437 71.464C102.693 71.464 102.933 71.4213 103.157 71.336C103.391 71.2507 103.594 71.1333 103.765 70.984C103.946 70.824 104.085 70.6373 104.181 70.424C104.287 70.2 104.341 69.9547 104.341 69.688C104.341 69.3253 104.261 69.032 104.101 68.808C103.951 68.5733 103.754 68.3973 103.509 68.28C103.274 68.152 103.007 68.0667 102.709 68.024C102.41 67.9813 102.117 67.96 101.829 67.96H101.365V66.232ZM107.921 67.336C107.921 66.44 107.991 65.6773 108.129 65.048C108.279 64.408 108.471 63.8747 108.705 63.448C108.94 63.0107 109.201 62.664 109.489 62.408C109.788 62.1413 110.087 61.944 110.385 61.816C110.695 61.6773 110.988 61.5867 111.265 61.544C111.553 61.5013 111.804 61.48 112.017 61.48C112.231 61.48 112.476 61.5013 112.753 61.544C113.041 61.5867 113.335 61.6773 113.633 61.816C113.943 61.944 114.241 62.1413 114.529 62.408C114.828 62.664 115.095 63.0107 115.329 63.448C115.564 63.8747 115.751 64.408 115.889 65.048C116.039 65.6773 116.113 66.44 116.113 67.336C116.113 68.232 116.039 69 115.889 69.64C115.751 70.2693 115.564 70.8027 115.329 71.24C115.095 71.6667 114.828 72.0133 114.529 72.28C114.241 72.536 113.943 72.7333 113.633 72.872C113.335 73 113.041 73.0853 112.753 73.128C112.476 73.1707 112.231 73.192 112.017 73.192C111.804 73.192 111.553 73.1707 111.265 73.128C110.988 73.0853 110.695 73 110.385 72.872C110.087 72.7333 109.788 72.536 109.489 72.28C109.201 72.0133 108.94 71.6667 108.705 71.24C108.471 70.8027 108.279 70.2693 108.129 69.64C107.991 69 107.921 68.232 107.921 67.336ZM109.841 67.336C109.841 67.688 109.863 68.0987 109.905 68.568C109.959 69.0267 110.06 69.464 110.209 69.88C110.359 70.296 110.577 70.648 110.865 70.936C111.153 71.224 111.537 71.368 112.017 71.368C112.497 71.368 112.881 71.224 113.169 70.936C113.457 70.648 113.676 70.296 113.825 69.88C113.975 69.464 114.071 69.0267 114.113 68.568C114.167 68.0987 114.193 67.688 114.193 67.336C114.193 66.984 114.167 66.5787 114.113 66.12C114.071 65.6507 113.975 65.208 113.825 64.792C113.676 64.376 113.457 64.024 113.169 63.736C112.881 63.448 112.497 63.304 112.017 63.304C111.537 63.304 111.153 63.448 110.865 63.736C110.577 64.024 110.359 64.376 110.209 64.792C110.06 65.208 109.959 65.6507 109.905 66.12C109.863 66.5787 109.841 66.984 109.841 67.336Z" fill="#F3F3F4"/>
<path d="M296.794 62.6659C296.366 63.0617 296.366 63.7383 296.794 64.1341L300.973 68L296.794 71.8659C296.366 72.2617 296.366 72.9383 296.794 73.3341L296.834 73.3719C297.218 73.7264 297.809 73.7264 298.193 73.3719L303.206 68.7341C303.634 68.3383 303.634 67.6617 303.206 67.2659L298.193 62.6281C297.809 62.2736 297.218 62.2736 296.834 62.6281L296.794 62.6659Z" fill="#8DE8FE"/>
<rect y="104" width="328" height="56" rx="14" fill="#242B35"/>
<path d="M17.264 125.672H21.68C22.1067 125.672 22.528 125.725 22.944 125.832C23.36 125.928 23.728 126.093 24.048 126.328C24.3787 126.552 24.6453 126.845 24.848 127.208C25.0507 127.571 25.152 128.008 25.152 128.52C25.152 129.16 24.9707 129.688 24.608 130.104C24.2453 130.52 23.7707 130.819 23.184 131V131.032C23.536 131.075 23.8613 131.176 24.16 131.336C24.4693 131.485 24.7307 131.683 24.944 131.928C25.1573 132.163 25.3227 132.44 25.44 132.76C25.568 133.069 25.632 133.405 25.632 133.768C25.632 134.387 25.5093 134.904 25.264 135.32C25.0187 135.725 24.6933 136.056 24.288 136.312C23.8933 136.557 23.4347 136.733 22.912 136.84C22.4 136.947 21.8773 137 21.344 137H17.264V125.672ZM19.28 130.28H21.12C21.792 130.28 22.2933 130.152 22.624 129.896C22.9653 129.629 23.136 129.283 23.136 128.856C23.136 128.365 22.96 128.003 22.608 127.768C22.2667 127.523 21.712 127.4 20.944 127.4H19.28V130.28ZM19.28 135.272H21.136C21.392 135.272 21.664 135.256 21.952 135.224C22.2507 135.192 22.5227 135.117 22.768 135C23.0133 134.883 23.216 134.717 23.376 134.504C23.536 134.28 23.616 133.981 23.616 133.608C23.616 133.011 23.4187 132.595 23.024 132.36C22.64 132.125 22.0373 132.008 21.216 132.008H19.28V135.272ZM34.471 137H32.647V135.768H32.615C32.4337 136.152 32.1563 136.488 31.783 136.776C31.4097 137.053 30.903 137.192 30.263 137.192C29.751 137.192 29.3137 137.112 28.951 136.952C28.599 136.781 28.311 136.557 28.087 136.28C27.863 135.992 27.703 135.667 27.607 135.304C27.511 134.941 27.463 134.563 27.463 134.168V129.32H29.383V133.208C29.383 133.421 29.3937 133.661 29.415 133.928C29.4363 134.184 29.4897 134.429 29.575 134.664C29.671 134.888 29.8097 135.08 29.991 135.24C30.183 135.389 30.4497 135.464 30.791 135.464C31.111 135.464 31.3777 135.411 31.591 135.304C31.815 135.197 31.9963 135.053 32.135 134.872C32.2843 134.691 32.391 134.483 32.455 134.248C32.519 134.013 32.551 133.768 32.551 133.512V129.32H34.471V137ZM36.6825 124.904H38.6025V137H36.6825V124.904ZM40.8544 124.904H42.7744V137H40.8544V124.904ZM46.5146 133.832C46.5786 134.408 46.8026 134.856 47.1866 135.176C47.5706 135.496 48.0346 135.656 48.5786 135.656C49.0586 135.656 49.4586 135.56 49.7786 135.368C50.1093 135.165 50.3973 134.915 50.6426 134.616L52.0186 135.656C51.5706 136.211 51.0693 136.605 50.5146 136.84C49.96 137.075 49.3786 137.192 48.7706 137.192C48.1946 137.192 47.6506 137.096 47.1386 136.904C46.6266 136.712 46.184 136.44 45.8106 136.088C45.4373 135.736 45.1386 135.315 44.9146 134.824C44.7013 134.323 44.5946 133.768 44.5946 133.16C44.5946 132.552 44.7013 132.003 44.9146 131.512C45.1386 131.011 45.4373 130.584 45.8106 130.232C46.184 129.88 46.6266 129.608 47.1386 129.416C47.6506 129.224 48.1946 129.128 48.7706 129.128C49.304 129.128 49.7893 129.224 50.2266 129.416C50.6746 129.597 51.0533 129.864 51.3626 130.216C51.6826 130.568 51.928 131.005 52.0986 131.528C52.28 132.04 52.3706 132.632 52.3706 133.304V133.832H46.5146ZM50.4506 132.392C50.44 131.827 50.264 131.384 49.9226 131.064C49.5813 130.733 49.1066 130.568 48.4986 130.568C47.9226 130.568 47.464 130.733 47.1226 131.064C46.792 131.395 46.5893 131.837 46.5146 132.392H50.4506ZM53.2701 130.952V129.32H54.8541V127.096H56.7741V129.32H58.8861V130.952H56.7741V134.312C56.7741 134.696 56.8435 135 56.9821 135.224C57.1315 135.448 57.4195 135.56 57.8461 135.56C58.0168 135.56 58.2035 135.544 58.4061 135.512C58.6088 135.469 58.7688 135.405 58.8861 135.32V136.936C58.6835 137.032 58.4328 137.096 58.1341 137.128C57.8461 137.171 57.5901 137.192 57.3661 137.192C56.8541 137.192 56.4328 137.133 56.1021 137.016C55.7821 136.909 55.5261 136.744 55.3341 136.52C55.1528 136.285 55.0248 135.997 54.9501 135.656C54.8861 135.315 54.8541 134.92 54.8541 134.472V130.952H53.2701ZM60.4325 129.32H62.3525V137H60.4325V129.32ZM60.1605 126.712C60.1605 126.403 60.2725 126.136 60.4965 125.912C60.7312 125.677 61.0245 125.56 61.3765 125.56C61.7285 125.56 62.0218 125.672 62.2565 125.896C62.5018 126.109 62.6245 126.381 62.6245 126.712C62.6245 127.043 62.5018 127.32 62.2565 127.544C62.0218 127.757 61.7285 127.864 61.3765 127.864C61.0245 127.864 60.7312 127.752 60.4965 127.528C60.2725 127.293 60.1605 127.021 60.1605 126.712ZM64.5568 129.32H66.3808V130.552H66.4128C66.5941 130.168 66.8714 129.837 67.2448 129.56C67.6181 129.272 68.1248 129.128 68.7648 129.128C69.2768 129.128 69.7088 129.213 70.0608 129.384C70.4234 129.555 70.7168 129.779 70.9408 130.056C71.1648 130.333 71.3248 130.653 71.4208 131.016C71.5168 131.379 71.5648 131.757 71.5648 132.152V137H69.6448V133.112C69.6448 132.899 69.6341 132.664 69.6128 132.408C69.5914 132.141 69.5328 131.896 69.4368 131.672C69.3514 131.437 69.2128 131.245 69.0208 131.096C68.8288 130.936 68.5674 130.856 68.2368 130.856C67.9168 130.856 67.6448 130.909 67.4208 131.016C67.2074 131.123 67.0261 131.267 66.8768 131.448C66.7381 131.629 66.6368 131.837 66.5728 132.072C66.5088 132.307 66.4768 132.552 66.4768 132.808V137H64.5568V129.32ZM84.5586 135.848H84.5266C84.2493 136.317 83.876 136.659 83.4066 136.872C82.9373 137.085 82.4306 137.192 81.8866 137.192C81.2893 137.192 80.756 137.091 80.2866 136.888C79.828 136.675 79.4333 136.387 79.1026 136.024C78.772 135.661 78.5213 135.235 78.3506 134.744C78.18 134.253 78.0946 133.725 78.0946 133.16C78.0946 132.595 78.1853 132.067 78.3666 131.576C78.548 131.085 78.7986 130.659 79.1186 130.296C79.4493 129.933 79.844 129.651 80.3026 129.448C80.7613 129.235 81.2626 129.128 81.8066 129.128C82.1693 129.128 82.4893 129.165 82.7666 129.24C83.044 129.315 83.2893 129.411 83.5026 129.528C83.716 129.645 83.8973 129.773 84.0466 129.912C84.196 130.04 84.3186 130.168 84.4146 130.296H84.4626V124.904H86.3826V137H84.5586V135.848ZM80.0146 133.16C80.0146 133.459 80.0626 133.747 80.1586 134.024C80.2653 134.301 80.4146 134.547 80.6066 134.76C80.8093 134.973 81.0493 135.144 81.3266 135.272C81.604 135.4 81.9186 135.464 82.2706 135.464C82.6226 135.464 82.9373 135.4 83.2146 135.272C83.492 135.144 83.7266 134.973 83.9186 134.76C84.1213 134.547 84.2706 134.301 84.3666 134.024C84.4733 133.747 84.5266 133.459 84.5266 133.16C84.5266 132.861 84.4733 132.573 84.3666 132.296C84.2706 132.019 84.1213 131.773 83.9186 131.56C83.7266 131.347 83.492 131.176 83.2146 131.048C82.9373 130.92 82.6226 130.856 82.2706 130.856C81.9186 130.856 81.604 130.92 81.3266 131.048C81.0493 131.176 80.8093 131.347 80.6066 131.56C80.4146 131.773 80.2653 132.019 80.1586 132.296C80.0626 132.573 80.0146 132.861 80.0146 133.16ZM90.0928 133.832C90.1568 134.408 90.3808 134.856 90.7648 135.176C91.1488 135.496 91.6128 135.656 92.1568 135.656C92.6368 135.656 93.0368 135.56 93.3568 135.368C93.6874 135.165 93.9754 134.915 94.2208 134.616L95.5968 135.656C95.1488 136.211 94.6474 136.605 94.0928 136.84C93.5381 137.075 92.9568 137.192 92.3488 137.192C91.7728 137.192 91.2288 137.096 90.7168 136.904C90.2048 136.712 89.7621 136.44 89.3888 136.088C89.0154 135.736 88.7168 135.315 88.4928 134.824C88.2794 134.323 88.1728 133.768 88.1728 133.16C88.1728 132.552 88.2794 132.003 88.4928 131.512C88.7168 131.011 89.0154 130.584 89.3888 130.232C89.7621 129.88 90.2048 129.608 90.7168 129.416C91.2288 129.224 91.7728 129.128 92.3488 129.128C92.8821 129.128 93.3674 129.224 93.8048 129.416C94.2528 129.597 94.6314 129.864 94.9408 130.216C95.2608 130.568 95.5061 131.005 95.6768 131.528C95.8581 132.04 95.9488 132.632 95.9488 133.304V133.832H90.0928ZM94.0288 132.392C94.0181 131.827 93.8421 131.384 93.5008 131.064C93.1594 130.733 92.6848 130.568 92.0768 130.568C91.5008 130.568 91.0421 130.733 90.7008 131.064C90.3701 131.395 90.1674 131.837 90.0928 132.392H94.0288ZM102.479 129.32H104.399V130.536H104.431C104.644 130.088 104.948 129.741 105.343 129.496C105.737 129.251 106.191 129.128 106.703 129.128C106.82 129.128 106.932 129.139 107.039 129.16C107.156 129.181 107.273 129.208 107.391 129.24V131.096C107.231 131.053 107.071 131.021 106.911 131C106.761 130.968 106.612 130.952 106.463 130.952C106.015 130.952 105.652 131.037 105.375 131.208C105.108 131.368 104.9 131.555 104.751 131.768C104.612 131.981 104.516 132.195 104.463 132.408C104.42 132.621 104.399 132.781 104.399 132.888V137H102.479V129.32ZM109.952 133.832C110.016 134.408 110.24 134.856 110.624 135.176C111.008 135.496 111.472 135.656 112.016 135.656C112.496 135.656 112.896 135.56 113.216 135.368C113.547 135.165 113.835 134.915 114.08 134.616L115.456 135.656C115.008 136.211 114.507 136.605 113.952 136.84C113.397 137.075 112.816 137.192 112.208 137.192C111.632 137.192 111.088 137.096 110.576 136.904C110.064 136.712 109.621 136.44 109.248 136.088C108.875 135.736 108.576 135.315 108.352 134.824C108.139 134.323 108.032 133.768 108.032 133.16C108.032 132.552 108.139 132.003 108.352 131.512C108.576 131.011 108.875 130.584 109.248 130.232C109.621 129.88 110.064 129.608 110.576 129.416C111.088 129.224 111.632 129.128 112.208 129.128C112.741 129.128 113.227 129.224 113.664 129.416C114.112 129.597 114.491 129.864 114.8 130.216C115.12 130.568 115.365 131.005 115.536 131.528C115.717 132.04 115.808 132.632 115.808 133.304V133.832H109.952ZM113.888 132.392C113.877 131.827 113.701 131.384 113.36 131.064C113.019 130.733 112.544 130.568 111.936 130.568C111.36 130.568 110.901 130.733 110.56 131.064C110.229 131.395 110.027 131.837 109.952 132.392H113.888ZM116.708 130.952V129.32H118.292V127.096H120.212V129.32H122.324V130.952H120.212V134.312C120.212 134.696 120.281 135 120.42 135.224C120.569 135.448 120.857 135.56 121.284 135.56C121.454 135.56 121.641 135.544 121.844 135.512C122.046 135.469 122.206 135.405 122.324 135.32V136.936C122.121 137.032 121.87 137.096 121.572 137.128C121.284 137.171 121.028 137.192 120.804 137.192C120.292 137.192 119.87 137.133 119.54 137.016C119.22 136.909 118.964 136.744 118.772 136.52C118.59 136.285 118.462 135.997 118.388 135.656C118.324 135.315 118.292 134.92 118.292 134.472V130.952H116.708ZM128.622 135.944H128.574C128.297 136.381 127.945 136.701 127.518 136.904C127.092 137.096 126.622 137.192 126.11 137.192C125.758 137.192 125.412 137.144 125.07 137.048C124.74 136.952 124.441 136.808 124.174 136.616C123.918 136.424 123.71 136.184 123.55 135.896C123.39 135.608 123.31 135.272 123.31 134.888C123.31 134.472 123.385 134.12 123.534 133.832C123.684 133.533 123.881 133.288 124.126 133.096C124.382 132.893 124.676 132.733 125.006 132.616C125.337 132.499 125.678 132.413 126.03 132.36C126.393 132.296 126.756 132.259 127.118 132.248C127.481 132.227 127.822 132.216 128.142 132.216H128.622V132.008C128.622 131.528 128.457 131.171 128.126 130.936C127.796 130.691 127.374 130.568 126.862 130.568C126.457 130.568 126.078 130.643 125.726 130.792C125.374 130.931 125.07 131.123 124.814 131.368L123.806 130.36C124.233 129.923 124.729 129.608 125.294 129.416C125.87 129.224 126.462 129.128 127.07 129.128C127.614 129.128 128.073 129.192 128.446 129.32C128.82 129.437 129.129 129.592 129.374 129.784C129.62 129.976 129.806 130.2 129.934 130.456C130.073 130.701 130.169 130.952 130.222 131.208C130.286 131.464 130.324 131.715 130.334 131.96C130.345 132.195 130.35 132.403 130.35 132.584V137H128.622V135.944ZM128.51 133.56H128.11C127.844 133.56 127.545 133.571 127.214 133.592C126.884 133.613 126.569 133.667 126.27 133.752C125.982 133.827 125.737 133.944 125.534 134.104C125.332 134.253 125.23 134.467 125.23 134.744C125.23 134.925 125.268 135.08 125.342 135.208C125.428 135.325 125.534 135.427 125.662 135.512C125.79 135.597 125.934 135.661 126.094 135.704C126.254 135.736 126.414 135.752 126.574 135.752C127.236 135.752 127.721 135.597 128.03 135.288C128.35 134.968 128.51 134.536 128.51 133.992V133.56ZM132.416 129.32H134.336V130.536H134.368C134.581 130.088 134.885 129.741 135.28 129.496C135.675 129.251 136.128 129.128 136.64 129.128C136.757 129.128 136.869 129.139 136.976 129.16C137.093 129.181 137.211 129.208 137.328 129.24V131.096C137.168 131.053 137.008 131.021 136.848 131C136.699 130.968 136.549 130.952 136.4 130.952C135.952 130.952 135.589 131.037 135.312 131.208C135.045 131.368 134.837 131.555 134.688 131.768C134.549 131.981 134.453 132.195 134.4 132.408C134.357 132.621 134.336 132.781 134.336 132.888V137H132.416V129.32ZM144.434 135.848H144.402C144.124 136.317 143.751 136.659 143.282 136.872C142.812 137.085 142.306 137.192 141.762 137.192C141.164 137.192 140.631 137.091 140.162 136.888C139.703 136.675 139.308 136.387 138.978 136.024C138.647 135.661 138.396 135.235 138.226 134.744C138.055 134.253 137.97 133.725 137.97 133.16C137.97 132.595 138.06 132.067 138.242 131.576C138.423 131.085 138.674 130.659 138.994 130.296C139.324 129.933 139.719 129.651 140.178 129.448C140.636 129.235 141.138 129.128 141.682 129.128C142.044 129.128 142.364 129.165 142.642 129.24C142.919 129.315 143.164 129.411 143.378 129.528C143.591 129.645 143.772 129.773 143.922 129.912C144.071 130.04 144.194 130.168 144.29 130.296H144.338V124.904H146.258V137H144.434V135.848ZM139.89 133.16C139.89 133.459 139.938 133.747 140.034 134.024C140.14 134.301 140.29 134.547 140.482 134.76C140.684 134.973 140.924 135.144 141.202 135.272C141.479 135.4 141.794 135.464 142.146 135.464C142.498 135.464 142.812 135.4 143.09 135.272C143.367 135.144 143.602 134.973 143.794 134.76C143.996 134.547 144.146 134.301 144.242 134.024C144.348 133.747 144.402 133.459 144.402 133.16C144.402 132.861 144.348 132.573 144.242 132.296C144.146 132.019 143.996 131.773 143.794 131.56C143.602 131.347 143.367 131.176 143.09 131.048C142.812 130.92 142.498 130.856 142.146 130.856C141.794 130.856 141.479 130.92 141.202 131.048C140.924 131.176 140.684 131.347 140.482 131.56C140.29 131.773 140.14 132.019 140.034 132.296C139.938 132.573 139.89 132.861 139.89 133.16Z" fill="#F3F3F4"/>
<path d="M296.794 126.666C296.366 127.062 296.366 127.738 296.794 128.134L300.973 132L296.794 135.866C296.366 136.262 296.366 136.938 296.794 137.334L296.834 137.372C297.218 137.726 297.809 137.726 298.193 137.372L303.206 132.734C303.634 132.338 303.634 131.662 303.206 131.266L298.193 126.628C297.809 126.274 297.218 126.274 296.834 126.628L296.794 126.666Z" fill="#8DE8FE"/>
<rect y="168" width="328" height="56" rx="14" fill="#242B35"/>
<path d="M25.04 192.328C24.624 191.88 24.2187 191.581 23.824 191.432C23.44 191.283 23.0507 191.208 22.656 191.208C22.0693 191.208 21.536 191.315 21.056 191.528C20.5867 191.731 20.1813 192.019 19.84 192.392C19.4987 192.755 19.232 193.181 19.04 193.672C18.8587 194.163 18.768 194.691 18.768 195.256C18.768 195.864 18.8587 196.424 19.04 196.936C19.232 197.448 19.4987 197.891 19.84 198.264C20.1813 198.637 20.5867 198.931 21.056 199.144C21.536 199.357 22.0693 199.464 22.656 199.464C23.1147 199.464 23.5573 199.357 23.984 199.144C24.4213 198.92 24.8267 198.568 25.2 198.088L26.864 199.272C26.352 199.976 25.728 200.488 24.992 200.808C24.256 201.128 23.472 201.288 22.64 201.288C21.7653 201.288 20.96 201.149 20.224 200.872C19.4987 200.584 18.8693 200.184 18.336 199.672C17.8133 199.149 17.4027 198.525 17.104 197.8C16.8053 197.075 16.656 196.269 16.656 195.384C16.656 194.477 16.8053 193.656 17.104 192.92C17.4027 192.173 17.8133 191.539 18.336 191.016C18.8693 190.493 19.4987 190.093 20.224 189.816C20.96 189.528 21.7653 189.384 22.64 189.384C23.408 189.384 24.1173 189.523 24.768 189.8C25.4293 190.067 26.0427 190.525 26.608 191.176L25.04 192.328ZM27.6571 197.16C27.6571 196.552 27.7638 196.003 27.9771 195.512C28.2011 195.011 28.4998 194.584 28.8731 194.232C29.2465 193.88 29.6891 193.608 30.2011 193.416C30.7131 193.224 31.2571 193.128 31.8331 193.128C32.4091 193.128 32.9531 193.224 33.4651 193.416C33.9771 193.608 34.4198 193.88 34.7931 194.232C35.1665 194.584 35.4598 195.011 35.6731 195.512C35.8971 196.003 36.0091 196.552 36.0091 197.16C36.0091 197.768 35.8971 198.323 35.6731 198.824C35.4598 199.315 35.1665 199.736 34.7931 200.088C34.4198 200.44 33.9771 200.712 33.4651 200.904C32.9531 201.096 32.4091 201.192 31.8331 201.192C31.2571 201.192 30.7131 201.096 30.2011 200.904C29.6891 200.712 29.2465 200.44 28.8731 200.088C28.4998 199.736 28.2011 199.315 27.9771 198.824C27.7638 198.323 27.6571 197.768 27.6571 197.16ZM29.5771 197.16C29.5771 197.459 29.6251 197.747 29.7211 198.024C29.8278 198.301 29.9771 198.547 30.1691 198.76C30.3718 198.973 30.6118 199.144 30.8891 199.272C31.1665 199.4 31.4811 199.464 31.8331 199.464C32.1851 199.464 32.4998 199.4 32.7771 199.272C33.0545 199.144 33.2891 198.973 33.4811 198.76C33.6838 198.547 33.8331 198.301 33.9291 198.024C34.0358 197.747 34.0891 197.459 34.0891 197.16C34.0891 196.861 34.0358 196.573 33.9291 196.296C33.8331 196.019 33.6838 195.773 33.4811 195.56C33.2891 195.347 33.0545 195.176 32.7771 195.048C32.4998 194.92 32.1851 194.856 31.8331 194.856C31.4811 194.856 31.1665 194.92 30.8891 195.048C30.6118 195.176 30.3718 195.347 30.1691 195.56C29.9771 195.773 29.8278 196.019 29.7211 196.296C29.6251 196.573 29.5771 196.861 29.5771 197.16ZM37.8068 193.32H39.6308V194.552H39.6628C39.8441 194.168 40.1214 193.837 40.4948 193.56C40.8681 193.272 41.3748 193.128 42.0148 193.128C42.5268 193.128 42.9588 193.213 43.3108 193.384C43.6734 193.555 43.9668 193.779 44.1908 194.056C44.4148 194.333 44.5748 194.653 44.6708 195.016C44.7668 195.379 44.8148 195.757 44.8148 196.152V201H42.8948V197.112C42.8948 196.899 42.8841 196.664 42.8628 196.408C42.8414 196.141 42.7828 195.896 42.6868 195.672C42.6014 195.437 42.4628 195.245 42.2708 195.096C42.0788 194.936 41.8174 194.856 41.4868 194.856C41.1668 194.856 40.8948 194.909 40.6708 195.016C40.4574 195.123 40.2761 195.267 40.1268 195.448C39.9881 195.629 39.8868 195.837 39.8228 196.072C39.7588 196.307 39.7268 196.552 39.7268 196.808V201H37.8068V193.32ZM46.0983 194.952V193.32H47.6823V191.096H49.6023V193.32H51.7143V194.952H49.6023V198.312C49.6023 198.696 49.6716 199 49.8103 199.224C49.9596 199.448 50.2476 199.56 50.6743 199.56C50.8449 199.56 51.0316 199.544 51.2343 199.512C51.4369 199.469 51.5969 199.405 51.7143 199.32V200.936C51.5116 201.032 51.2609 201.096 50.9623 201.128C50.6743 201.171 50.4183 201.192 50.1943 201.192C49.6823 201.192 49.2609 201.133 48.9303 201.016C48.6103 200.909 48.3543 200.744 48.1623 200.52C47.9809 200.285 47.8529 199.997 47.7783 199.656C47.7143 199.315 47.6823 198.92 47.6823 198.472V194.952H46.0983ZM58.013 199.944H57.965C57.6877 200.381 57.3357 200.701 56.909 200.904C56.4823 201.096 56.013 201.192 55.501 201.192C55.149 201.192 54.8023 201.144 54.461 201.048C54.1303 200.952 53.8317 200.808 53.565 200.616C53.309 200.424 53.101 200.184 52.941 199.896C52.781 199.608 52.701 199.272 52.701 198.888C52.701 198.472 52.7757 198.12 52.925 197.832C53.0743 197.533 53.2717 197.288 53.517 197.096C53.773 196.893 54.0663 196.733 54.397 196.616C54.7277 196.499 55.069 196.413 55.421 196.36C55.7837 196.296 56.1463 196.259 56.509 196.248C56.8717 196.227 57.213 196.216 57.533 196.216H58.013V196.008C58.013 195.528 57.8477 195.171 57.517 194.936C57.1863 194.691 56.765 194.568 56.253 194.568C55.8477 194.568 55.469 194.643 55.117 194.792C54.765 194.931 54.461 195.123 54.205 195.368L53.197 194.36C53.6237 193.923 54.1197 193.608 54.685 193.416C55.261 193.224 55.853 193.128 56.461 193.128C57.005 193.128 57.4637 193.192 57.837 193.32C58.2103 193.437 58.5197 193.592 58.765 193.784C59.0103 193.976 59.197 194.2 59.325 194.456C59.4637 194.701 59.5597 194.952 59.613 195.208C59.677 195.464 59.7143 195.715 59.725 195.96C59.7357 196.195 59.741 196.403 59.741 196.584V201H58.013V199.944ZM57.901 197.56H57.501C57.2343 197.56 56.9357 197.571 56.605 197.592C56.2743 197.613 55.9597 197.667 55.661 197.752C55.373 197.827 55.1277 197.944 54.925 198.104C54.7223 198.253 54.621 198.467 54.621 198.744C54.621 198.925 54.6583 199.08 54.733 199.208C54.8183 199.325 54.925 199.427 55.053 199.512C55.181 199.597 55.325 199.661 55.485 199.704C55.645 199.736 55.805 199.752 55.965 199.752C56.6263 199.752 57.1117 199.597 57.421 199.288C57.741 198.968 57.901 198.536 57.901 197.992V197.56ZM67.0548 195.624C66.8308 195.389 66.5961 195.203 66.3508 195.064C66.1054 194.925 65.8548 194.856 65.5988 194.856C65.2468 194.856 64.9321 194.92 64.6548 195.048C64.3774 195.176 64.1374 195.347 63.9348 195.56C63.7428 195.773 63.5934 196.019 63.4868 196.296C63.3908 196.573 63.3428 196.861 63.3428 197.16C63.3428 197.459 63.3908 197.747 63.4868 198.024C63.5934 198.301 63.7428 198.547 63.9348 198.76C64.1374 198.973 64.3774 199.144 64.6548 199.272C64.9321 199.4 65.2468 199.464 65.5988 199.464C65.8974 199.464 66.1748 199.405 66.4308 199.288C66.6868 199.16 66.9054 198.979 67.0868 198.744L68.3668 200.12C68.1748 200.312 67.9508 200.477 67.6948 200.616C67.4494 200.755 67.1988 200.867 66.9428 200.952C66.6868 201.037 66.4414 201.096 66.2068 201.128C65.9721 201.171 65.7694 201.192 65.5988 201.192C65.0228 201.192 64.4788 201.096 63.9668 200.904C63.4548 200.712 63.0121 200.44 62.6388 200.088C62.2654 199.736 61.9668 199.315 61.7428 198.824C61.5294 198.323 61.4228 197.768 61.4228 197.16C61.4228 196.552 61.5294 196.003 61.7428 195.512C61.9668 195.011 62.2654 194.584 62.6388 194.232C63.0121 193.88 63.4548 193.608 63.9668 193.416C64.4788 193.224 65.0228 193.128 65.5988 193.128C66.0894 193.128 66.5801 193.224 67.0708 193.416C67.5721 193.597 68.0094 193.891 68.3828 194.296L67.0548 195.624ZM68.6295 194.952V193.32H70.2135V191.096H72.1335V193.32H74.2455V194.952H72.1335V198.312C72.1335 198.696 72.2028 199 72.3415 199.224C72.4908 199.448 72.7788 199.56 73.2055 199.56C73.3762 199.56 73.5628 199.544 73.7655 199.512C73.9682 199.469 74.1282 199.405 74.2455 199.32V200.936C74.0428 201.032 73.7922 201.096 73.4935 201.128C73.2055 201.171 72.9495 201.192 72.7255 201.192C72.2135 201.192 71.7922 201.133 71.4615 201.016C71.1415 200.909 70.8855 200.744 70.6935 200.52C70.5122 200.285 70.3842 199.997 70.3095 199.656C70.2455 199.315 70.2135 198.92 70.2135 198.472V194.952H68.6295Z" fill="#F3F3F4"/>
<path d="M296.794 190.666C296.366 191.062 296.366 191.738 296.794 192.134L300.973 196L296.794 199.866C296.366 200.262 296.366 200.938 296.794 201.334L296.834 201.372C297.218 201.726 297.809 201.726 298.193 201.372L303.206 196.734C303.634 196.338 303.634 195.662 303.206 195.266L298.193 190.628C297.809 190.274 297.218 190.274 296.834 190.628L296.794 190.666Z" fill="#8DE8FE"/>
<rect y="232" width="328" height="72" rx="14" fill="#242B35"/>
<path d="M17.312 252.672H20.384L23.408 260.608L26.464 252.672H29.504V264H27.584V254.592H27.552L24.112 264H22.704L19.264 254.592H19.232V264H17.312V252.672ZM33.4365 260.832C33.5005 261.408 33.7245 261.856 34.1085 262.176C34.4925 262.496 34.9565 262.656 35.5005 262.656C35.9805 262.656 36.3805 262.56 36.7005 262.368C37.0312 262.165 37.3192 261.915 37.5645 261.616L38.9405 262.656C38.4925 263.211 37.9912 263.605 37.4365 263.84C36.8818 264.075 36.3005 264.192 35.6925 264.192C35.1165 264.192 34.5725 264.096 34.0605 263.904C33.5485 263.712 33.1058 263.44 32.7325 263.088C32.3592 262.736 32.0605 262.315 31.8365 261.824C31.6232 261.323 31.5165 260.768 31.5165 260.16C31.5165 259.552 31.6232 259.003 31.8365 258.512C32.0605 258.011 32.3592 257.584 32.7325 257.232C33.1058 256.88 33.5485 256.608 34.0605 256.416C34.5725 256.224 35.1165 256.128 35.6925 256.128C36.2258 256.128 36.7112 256.224 37.1485 256.416C37.5965 256.597 37.9752 256.864 38.2845 257.216C38.6045 257.568 38.8498 258.005 39.0205 258.528C39.2018 259.04 39.2925 259.632 39.2925 260.304V260.832H33.4365ZM37.3725 259.392C37.3618 258.827 37.1858 258.384 36.8445 258.064C36.5032 257.733 36.0285 257.568 35.4205 257.568C34.8445 257.568 34.3858 257.733 34.0445 258.064C33.7138 258.395 33.5112 258.837 33.4365 259.392H37.3725ZM45.184 258.448C44.8107 257.925 44.3093 257.664 43.68 257.664C43.424 257.664 43.1733 257.728 42.928 257.856C42.6827 257.984 42.56 258.192 42.56 258.48C42.56 258.715 42.6613 258.885 42.864 258.992C43.0667 259.099 43.3227 259.189 43.632 259.264C43.9413 259.339 44.272 259.419 44.624 259.504C44.9867 259.579 45.3227 259.701 45.632 259.872C45.9413 260.032 46.1973 260.256 46.4 260.544C46.6027 260.832 46.704 261.227 46.704 261.728C46.704 262.187 46.6027 262.576 46.4 262.896C46.208 263.205 45.952 263.456 45.632 263.648C45.3227 263.84 44.9707 263.979 44.576 264.064C44.1813 264.149 43.7867 264.192 43.392 264.192C42.7947 264.192 42.2453 264.107 41.744 263.936C41.2427 263.765 40.7947 263.456 40.4 263.008L41.68 261.808C41.9253 262.085 42.1867 262.315 42.464 262.496C42.752 262.667 43.0987 262.752 43.504 262.752C43.6427 262.752 43.7867 262.736 43.936 262.704C44.0853 262.672 44.224 262.619 44.352 262.544C44.48 262.469 44.5813 262.379 44.656 262.272C44.7413 262.155 44.784 262.021 44.784 261.872C44.784 261.605 44.6827 261.408 44.48 261.28C44.2773 261.152 44.0213 261.051 43.712 260.976C43.4027 260.891 43.0667 260.816 42.704 260.752C42.352 260.677 42.0213 260.565 41.712 260.416C41.4027 260.256 41.1467 260.037 40.944 259.76C40.7413 259.483 40.64 259.099 40.64 258.608C40.64 258.181 40.7253 257.813 40.896 257.504C41.0773 257.184 41.312 256.923 41.6 256.72C41.888 256.517 42.2187 256.368 42.592 256.272C42.9653 256.176 43.344 256.128 43.728 256.128C44.24 256.128 44.7467 256.219 45.248 256.4C45.7493 256.571 46.1547 256.869 46.464 257.296L45.184 258.448ZM52.2934 258.448C51.92 257.925 51.4187 257.664 50.7894 257.664C50.5334 257.664 50.2827 257.728 50.0374 257.856C49.792 257.984 49.6694 258.192 49.6694 258.48C49.6694 258.715 49.7707 258.885 49.9734 258.992C50.176 259.099 50.432 259.189 50.7414 259.264C51.0507 259.339 51.3814 259.419 51.7334 259.504C52.096 259.579 52.432 259.701 52.7414 259.872C53.0507 260.032 53.3067 260.256 53.5094 260.544C53.712 260.832 53.8134 261.227 53.8134 261.728C53.8134 262.187 53.712 262.576 53.5094 262.896C53.3174 263.205 53.0614 263.456 52.7414 263.648C52.432 263.84 52.08 263.979 51.6854 264.064C51.2907 264.149 50.896 264.192 50.5014 264.192C49.904 264.192 49.3547 264.107 48.8534 263.936C48.352 263.765 47.904 263.456 47.5094 263.008L48.7894 261.808C49.0347 262.085 49.296 262.315 49.5734 262.496C49.8614 262.667 50.208 262.752 50.6134 262.752C50.752 262.752 50.896 262.736 51.0454 262.704C51.1947 262.672 51.3334 262.619 51.4614 262.544C51.5894 262.469 51.6907 262.379 51.7654 262.272C51.8507 262.155 51.8934 262.021 51.8934 261.872C51.8934 261.605 51.792 261.408 51.5894 261.28C51.3867 261.152 51.1307 261.051 50.8214 260.976C50.512 260.891 50.176 260.816 49.8134 260.752C49.4614 260.677 49.1307 260.565 48.8214 260.416C48.512 260.256 48.256 260.037 48.0534 259.76C47.8507 259.483 47.7494 259.099 47.7494 258.608C47.7494 258.181 47.8347 257.813 48.0054 257.504C48.1867 257.184 48.4214 256.923 48.7094 256.72C48.9974 256.517 49.328 256.368 49.7014 256.272C50.0747 256.176 50.4534 256.128 50.8374 256.128C51.3494 256.128 51.856 256.219 52.3574 256.4C52.8587 256.571 53.264 256.869 53.5734 257.296L52.2934 258.448ZM60.1068 262.944H60.0588C59.7814 263.381 59.4294 263.701 59.0028 263.904C58.5761 264.096 58.1068 264.192 57.5948 264.192C57.2428 264.192 56.8961 264.144 56.5548 264.048C56.2241 263.952 55.9254 263.808 55.6588 263.616C55.4028 263.424 55.1948 263.184 55.0348 262.896C54.8748 262.608 54.7948 262.272 54.7948 261.888C54.7948 261.472 54.8694 261.12 55.0188 260.832C55.1681 260.533 55.3654 260.288 55.6108 260.096C55.8668 259.893 56.1601 259.733 56.4908 259.616C56.8214 259.499 57.1628 259.413 57.5148 259.36C57.8774 259.296 58.2401 259.259 58.6028 259.248C58.9654 259.227 59.3068 259.216 59.6268 259.216H60.1068V259.008C60.1068 258.528 59.9414 258.171 59.6108 257.936C59.2801 257.691 58.8588 257.568 58.3468 257.568C57.9414 257.568 57.5628 257.643 57.2108 257.792C56.8588 257.931 56.5548 258.123 56.2988 258.368L55.2908 257.36C55.7174 256.923 56.2134 256.608 56.7788 256.416C57.3548 256.224 57.9468 256.128 58.5548 256.128C59.0988 256.128 59.5574 256.192 59.9308 256.32C60.3041 256.437 60.6134 256.592 60.8588 256.784C61.1041 256.976 61.2908 257.2 61.4188 257.456C61.5574 257.701 61.6534 257.952 61.7068 258.208C61.7708 258.464 61.8081 258.715 61.8188 258.96C61.8294 259.195 61.8348 259.403 61.8348 259.584V264H60.1068V262.944ZM59.9948 260.56H59.5948C59.3281 260.56 59.0294 260.571 58.6988 260.592C58.3681 260.613 58.0534 260.667 57.7548 260.752C57.4668 260.827 57.2214 260.944 57.0188 261.104C56.8161 261.253 56.7148 261.467 56.7148 261.744C56.7148 261.925 56.7521 262.08 56.8268 262.208C56.9121 262.325 57.0188 262.427 57.1468 262.512C57.2748 262.597 57.4188 262.661 57.5788 262.704C57.7388 262.736 57.8988 262.752 58.0588 262.752C58.7201 262.752 59.2054 262.597 59.5148 262.288C59.8348 261.968 59.9948 261.536 59.9948 260.992V260.56ZM71.8045 256.32V263.312C71.8045 264.005 71.7192 264.629 71.5485 265.184C71.3778 265.749 71.1112 266.224 70.7485 266.608C70.3965 267.003 69.9485 267.307 69.4045 267.52C68.8605 267.733 68.2152 267.84 67.4685 267.84C66.7538 267.84 66.0765 267.749 65.4365 267.568C64.7965 267.387 64.2045 267.056 63.6605 266.576L64.8125 265.008C65.1965 265.36 65.5965 265.632 66.0125 265.824C66.4285 266.016 66.9085 266.112 67.4525 266.112C67.9112 266.112 68.2952 266.048 68.6045 265.92C68.9245 265.792 69.1752 265.616 69.3565 265.392C69.5485 265.168 69.6818 264.896 69.7565 264.576C69.8418 264.267 69.8845 263.92 69.8845 263.536V262.976H69.8525C69.5752 263.349 69.2072 263.632 68.7485 263.824C68.2898 264.005 67.8205 264.096 67.3405 264.096C66.7645 264.096 66.2418 263.995 65.7725 263.792C65.3032 263.579 64.8978 263.296 64.5565 262.944C64.2258 262.592 63.9698 262.176 63.7885 261.696C63.6072 261.216 63.5165 260.704 63.5165 260.16C63.5165 259.595 63.6018 259.067 63.7725 258.576C63.9432 258.085 64.1938 257.659 64.5245 257.296C64.8552 256.933 65.2498 256.651 65.7085 256.448C66.1778 256.235 66.7112 256.128 67.3085 256.128C67.8525 256.128 68.3592 256.235 68.8285 256.448C69.2978 256.661 69.6712 257.003 69.9485 257.472H69.9805V256.32H71.8045ZM67.7085 257.856C67.3672 257.856 67.0578 257.915 66.7805 258.032C66.5032 258.139 66.2632 258.293 66.0605 258.496C65.8685 258.688 65.7138 258.928 65.5965 259.216C65.4898 259.493 65.4365 259.803 65.4365 260.144C65.4365 260.453 65.4898 260.741 65.5965 261.008C65.7138 261.275 65.8738 261.509 66.0765 261.712C66.2792 261.915 66.5192 262.075 66.7965 262.192C67.0738 262.309 67.3725 262.368 67.6925 262.368C68.0445 262.368 68.3592 262.309 68.6365 262.192C68.9245 262.075 69.1645 261.92 69.3565 261.728C69.5592 261.525 69.7138 261.285 69.8205 261.008C69.9272 260.731 69.9805 260.432 69.9805 260.112C69.9805 259.44 69.7778 258.896 69.3725 258.48C68.9672 258.064 68.4125 257.856 67.7085 257.856ZM75.5146 260.832C75.5786 261.408 75.8026 261.856 76.1866 262.176C76.5706 262.496 77.0346 262.656 77.5786 262.656C78.0586 262.656 78.4586 262.56 78.7786 262.368C79.1093 262.165 79.3973 261.915 79.6426 261.616L81.0186 262.656C80.5706 263.211 80.0693 263.605 79.5146 263.84C78.96 264.075 78.3786 264.192 77.7706 264.192C77.1946 264.192 76.6506 264.096 76.1386 263.904C75.6266 263.712 75.184 263.44 74.8106 263.088C74.4373 262.736 74.1386 262.315 73.9146 261.824C73.7013 261.323 73.5946 260.768 73.5946 260.16C73.5946 259.552 73.7013 259.003 73.9146 258.512C74.1386 258.011 74.4373 257.584 74.8106 257.232C75.184 256.88 75.6266 256.608 76.1386 256.416C76.6506 256.224 77.1946 256.128 77.7706 256.128C78.304 256.128 78.7893 256.224 79.2266 256.416C79.6746 256.597 80.0533 256.864 80.3626 257.216C80.6826 257.568 80.928 258.005 81.0986 258.528C81.28 259.04 81.3706 259.632 81.3706 260.304V260.832H75.5146ZM79.4506 259.392C79.44 258.827 79.264 258.384 78.9226 258.064C78.5813 257.733 78.1066 257.568 77.4986 257.568C76.9226 257.568 76.464 257.733 76.1226 258.064C75.792 258.395 75.5893 258.837 75.5146 259.392H79.4506ZM83.1661 256.32H85.0861V257.536H85.1181C85.3315 257.088 85.6355 256.741 86.0301 256.496C86.4248 256.251 86.8781 256.128 87.3901 256.128C87.5075 256.128 87.6195 256.139 87.7261 256.16C87.8435 256.181 87.9608 256.208 88.0781 256.24V258.096C87.9181 258.053 87.7581 258.021 87.5981 258C87.4488 257.968 87.2995 257.952 87.1501 257.952C86.7021 257.952 86.3395 258.037 86.0621 258.208C85.7955 258.368 85.5875 258.555 85.4381 258.768C85.2995 258.981 85.2035 259.195 85.1501 259.408C85.1075 259.621 85.0861 259.781 85.0861 259.888V264H83.1661V256.32ZM89.4169 256.32H91.3369V264H89.4169V256.32ZM89.1449 253.712C89.1449 253.403 89.2569 253.136 89.4809 252.912C89.7155 252.677 90.0089 252.56 90.3609 252.56C90.7129 252.56 91.0062 252.672 91.2409 252.896C91.4862 253.109 91.6089 253.381 91.6089 253.712C91.6089 254.043 91.4862 254.32 91.2409 254.544C91.0062 254.757 90.7129 254.864 90.3609 254.864C90.0089 254.864 89.7155 254.752 89.4809 254.528C89.2569 254.293 89.1449 254.021 89.1449 253.712ZM95.0771 260.832C95.1411 261.408 95.3651 261.856 95.7491 262.176C96.1331 262.496 96.5971 262.656 97.1411 262.656C97.6211 262.656 98.0211 262.56 98.3411 262.368C98.6718 262.165 98.9598 261.915 99.2051 261.616L100.581 262.656C100.133 263.211 99.6318 263.605 99.0771 263.84C98.5225 264.075 97.9411 264.192 97.3331 264.192C96.7571 264.192 96.2131 264.096 95.7011 263.904C95.1891 263.712 94.7465 263.44 94.3731 263.088C93.9998 262.736 93.7011 262.315 93.4771 261.824C93.2638 261.323 93.1571 260.768 93.1571 260.16C93.1571 259.552 93.2638 259.003 93.4771 258.512C93.7011 258.011 93.9998 257.584 94.3731 257.232C94.7465 256.88 95.1891 256.608 95.7011 256.416C96.2131 256.224 96.7571 256.128 97.3331 256.128C97.8665 256.128 98.3518 256.224 98.7891 256.416C99.2371 256.597 99.6158 256.864 99.9251 257.216C100.245 257.568 100.49 258.005 100.661 258.528C100.842 259.04 100.933 259.632 100.933 260.304V260.832H95.0771ZM99.0131 259.392C99.0025 258.827 98.8265 258.384 98.4851 258.064C98.1438 257.733 97.6691 257.568 97.0611 257.568C96.4851 257.568 96.0265 257.733 95.6851 258.064C95.3545 258.395 95.1518 258.837 95.0771 259.392H99.0131Z" fill="#F3F3F4"/>
<path d="M19.107 274.966H16.143V273.796H23.319V274.966H20.355V283H19.107V274.966ZM23.8506 279.919C23.8506 280.231 23.8982 280.521 23.9936 280.79C24.0889 281.05 24.2232 281.275 24.3966 281.466C24.5699 281.648 24.7822 281.795 25.0336 281.908C25.2849 282.012 25.5666 282.064 25.8786 282.064C26.1906 282.064 26.4722 282.012 26.7236 281.908C26.9749 281.795 27.1872 281.648 27.3606 281.466C27.5339 281.275 27.6682 281.05 27.7636 280.79C27.8589 280.521 27.9066 280.231 27.9066 279.919C27.9066 279.607 27.8589 279.321 27.7636 279.061C27.6682 278.792 27.5339 278.567 27.3606 278.385C27.1872 278.194 26.9749 278.047 26.7236 277.943C26.4722 277.83 26.1906 277.774 25.8786 277.774C25.5666 277.774 25.2849 277.83 25.0336 277.943C24.7822 278.047 24.5699 278.194 24.3966 278.385C24.2232 278.567 24.0889 278.792 23.9936 279.061C23.8982 279.321 23.8506 279.607 23.8506 279.919ZM22.6026 279.919C22.6026 279.468 22.6849 279.048 22.8496 278.658C23.0229 278.268 23.2569 277.926 23.5516 277.631C23.8462 277.336 24.1929 277.107 24.5916 276.942C24.9902 276.769 25.4192 276.682 25.8786 276.682C26.3379 276.682 26.7669 276.769 27.1656 276.942C27.5642 277.107 27.9109 277.336 28.2056 277.631C28.5002 277.926 28.7299 278.268 28.8946 278.658C29.0679 279.048 29.1546 279.468 29.1546 279.919C29.1546 280.37 29.0679 280.794 28.8946 281.193C28.7299 281.583 28.5002 281.925 28.2056 282.22C27.9109 282.506 27.5642 282.736 27.1656 282.909C26.7669 283.074 26.3379 283.156 25.8786 283.156C25.4192 283.156 24.9902 283.074 24.5916 282.909C24.1929 282.736 23.8462 282.506 23.5516 282.22C23.2569 281.925 23.0229 281.583 22.8496 281.193C22.6849 280.794 22.6026 280.37 22.6026 279.919ZM36.0803 283H34.9103V282.051H34.8843C34.737 282.38 34.4813 282.649 34.1173 282.857C33.7533 283.056 33.333 283.156 32.8563 283.156C32.553 283.156 32.267 283.108 31.9983 283.013C31.7297 282.926 31.4913 282.788 31.2833 282.597C31.084 282.406 30.9237 282.164 30.8023 281.869C30.681 281.566 30.6203 281.21 30.6203 280.803V276.838H31.7903V280.478C31.7903 280.764 31.8293 281.011 31.9073 281.219C31.9853 281.418 32.0893 281.583 32.2193 281.713C32.3493 281.834 32.4967 281.925 32.6613 281.986C32.8347 282.038 33.0123 282.064 33.1943 282.064C33.437 282.064 33.6623 282.025 33.8703 281.947C34.0783 281.869 34.2603 281.748 34.4163 281.583C34.5723 281.41 34.6937 281.193 34.7803 280.933C34.867 280.673 34.9103 280.365 34.9103 280.01V276.838H36.0803V283ZM41.12 278.385C40.9813 278.212 40.808 278.069 40.6 277.956C40.4006 277.835 40.1536 277.774 39.859 277.774C39.5816 277.774 39.339 277.835 39.131 277.956C38.9316 278.069 38.832 278.238 38.832 278.463C38.832 278.645 38.8883 278.792 39.001 278.905C39.1223 279.018 39.261 279.109 39.417 279.178C39.5816 279.247 39.755 279.299 39.937 279.334C40.119 279.369 40.275 279.399 40.405 279.425C40.6563 279.486 40.8903 279.559 41.107 279.646C41.3323 279.733 41.523 279.845 41.679 279.984C41.8436 280.123 41.9693 280.292 42.056 280.491C42.1513 280.69 42.199 280.933 42.199 281.219C42.199 281.566 42.1253 281.865 41.978 282.116C41.8306 282.359 41.64 282.558 41.406 282.714C41.172 282.87 40.9033 282.983 40.6 283.052C40.3053 283.121 40.0063 283.156 39.703 283.156C39.1916 283.156 38.741 283.078 38.351 282.922C37.9696 282.766 37.6273 282.48 37.324 282.064L38.208 281.336C38.3986 281.527 38.611 281.696 38.845 281.843C39.079 281.99 39.365 282.064 39.703 282.064C39.8503 282.064 39.9976 282.051 40.145 282.025C40.301 281.99 40.4353 281.943 40.548 281.882C40.6693 281.813 40.7646 281.73 40.834 281.635C40.912 281.531 40.951 281.414 40.951 281.284C40.951 281.111 40.8946 280.968 40.782 280.855C40.678 280.742 40.548 280.656 40.392 280.595C40.2446 280.526 40.0843 280.474 39.911 280.439C39.7463 280.396 39.599 280.361 39.469 280.335C39.2176 280.274 38.9793 280.205 38.754 280.127C38.5286 280.049 38.3293 279.945 38.156 279.815C37.9826 279.685 37.844 279.52 37.74 279.321C37.636 279.122 37.584 278.875 37.584 278.58C37.584 278.259 37.649 277.982 37.779 277.748C37.9176 277.505 38.0953 277.306 38.312 277.15C38.5373 276.994 38.7886 276.877 39.066 276.799C39.352 276.721 39.638 276.682 39.924 276.682C40.34 276.682 40.7386 276.76 41.12 276.916C41.5013 277.072 41.8046 277.332 42.03 277.696L41.12 278.385ZM46.4975 276.838H47.8495L49.6955 281.557L51.4635 276.838H52.7115L50.2935 283H49.0065L46.4975 276.838ZM54.6875 279.919C54.6875 280.231 54.7352 280.521 54.8305 280.79C54.9258 281.05 55.0602 281.275 55.2335 281.466C55.4068 281.648 55.6192 281.795 55.8705 281.908C56.1218 282.012 56.4035 282.064 56.7155 282.064C57.0275 282.064 57.3092 282.012 57.5605 281.908C57.8118 281.795 58.0242 281.648 58.1975 281.466C58.3708 281.275 58.5052 281.05 58.6005 280.79C58.6958 280.521 58.7435 280.231 58.7435 279.919C58.7435 279.607 58.6958 279.321 58.6005 279.061C58.5052 278.792 58.3708 278.567 58.1975 278.385C58.0242 278.194 57.8118 278.047 57.5605 277.943C57.3092 277.83 57.0275 277.774 56.7155 277.774C56.4035 277.774 56.1218 277.83 55.8705 277.943C55.6192 278.047 55.4068 278.194 55.2335 278.385C55.0602 278.567 54.9258 278.792 54.8305 279.061C54.7352 279.321 54.6875 279.607 54.6875 279.919ZM53.4395 279.919C53.4395 279.468 53.5218 279.048 53.6865 278.658C53.8598 278.268 54.0938 277.926 54.3885 277.631C54.6832 277.336 55.0298 277.107 55.4285 276.942C55.8272 276.769 56.2562 276.682 56.7155 276.682C57.1748 276.682 57.6038 276.769 58.0025 276.942C58.4012 277.107 58.7478 277.336 59.0425 277.631C59.3372 277.926 59.5668 278.268 59.7315 278.658C59.9048 279.048 59.9915 279.468 59.9915 279.919C59.9915 280.37 59.9048 280.794 59.7315 281.193C59.5668 281.583 59.3372 281.925 59.0425 282.22C58.7478 282.506 58.4012 282.736 58.0025 282.909C57.6038 283.074 57.1748 283.156 56.7155 283.156C56.2562 283.156 55.8272 283.074 55.4285 282.909C55.0298 282.736 54.6832 282.506 54.3885 282.22C54.0938 281.925 53.8598 281.583 53.6865 281.193C53.5218 280.794 53.4395 280.37 53.4395 279.919ZM64.7332 278.385C64.5946 278.212 64.4212 278.069 64.2132 277.956C64.0139 277.835 63.7669 277.774 63.4722 277.774C63.1949 277.774 62.9522 277.835 62.7442 277.956C62.5449 278.069 62.4452 278.238 62.4452 278.463C62.4452 278.645 62.5016 278.792 62.6142 278.905C62.7356 279.018 62.8742 279.109 63.0302 279.178C63.1949 279.247 63.3682 279.299 63.5502 279.334C63.7322 279.369 63.8882 279.399 64.0182 279.425C64.2696 279.486 64.5036 279.559 64.7202 279.646C64.9456 279.733 65.1362 279.845 65.2922 279.984C65.4569 280.123 65.5826 280.292 65.6692 280.491C65.7646 280.69 65.8122 280.933 65.8122 281.219C65.8122 281.566 65.7386 281.865 65.5912 282.116C65.4439 282.359 65.2532 282.558 65.0192 282.714C64.7852 282.87 64.5166 282.983 64.2132 283.052C63.9186 283.121 63.6196 283.156 63.3162 283.156C62.8049 283.156 62.3542 283.078 61.9642 282.922C61.5829 282.766 61.2406 282.48 60.9372 282.064L61.8212 281.336C62.0119 281.527 62.2242 281.696 62.4582 281.843C62.6922 281.99 62.9782 282.064 63.3162 282.064C63.4636 282.064 63.6109 282.051 63.7582 282.025C63.9142 281.99 64.0486 281.943 64.1612 281.882C64.2826 281.813 64.3779 281.73 64.4472 281.635C64.5252 281.531 64.5642 281.414 64.5642 281.284C64.5642 281.111 64.5079 280.968 64.3952 280.855C64.2912 280.742 64.1612 280.656 64.0052 280.595C63.8579 280.526 63.6976 280.474 63.5242 280.439C63.3596 280.396 63.2122 280.361 63.0822 280.335C62.8309 280.274 62.5926 280.205 62.3672 280.127C62.1419 280.049 61.9426 279.945 61.7692 279.815C61.5959 279.685 61.4572 279.52 61.3532 279.321C61.2492 279.122 61.1972 278.875 61.1972 278.58C61.1972 278.259 61.2622 277.982 61.3922 277.748C61.5309 277.505 61.7086 277.306 61.9252 277.15C62.1506 276.994 62.4019 276.877 62.6792 276.799C62.9652 276.721 63.2512 276.682 63.5372 276.682C63.9532 276.682 64.3519 276.76 64.7332 276.916C65.1146 277.072 65.4179 277.332 65.6432 277.696L64.7332 278.385ZM71.7358 280.348C71.7358 280.617 71.7921 280.864 71.9048 281.089C72.0261 281.306 72.1821 281.492 72.3728 281.648C72.5634 281.804 72.7844 281.925 73.0358 282.012C73.2871 282.099 73.5471 282.142 73.8158 282.142C74.1798 282.142 74.4961 282.06 74.7648 281.895C75.0334 281.722 75.2804 281.496 75.5058 281.219L76.3898 281.895C75.7398 282.736 74.8298 283.156 73.6598 283.156C73.1744 283.156 72.7324 283.074 72.3338 282.909C71.9438 282.744 71.6101 282.519 71.3328 282.233C71.0641 281.938 70.8561 281.596 70.7088 281.206C70.5614 280.807 70.4878 280.378 70.4878 279.919C70.4878 279.46 70.5658 279.035 70.7218 278.645C70.8864 278.246 71.1074 277.904 71.3848 277.618C71.6708 277.323 72.0088 277.094 72.3988 276.929C72.7888 276.764 73.2134 276.682 73.6728 276.682C74.2188 276.682 74.6781 276.777 75.0508 276.968C75.4321 277.159 75.7441 277.41 75.9868 277.722C76.2294 278.025 76.4028 278.372 76.5068 278.762C76.6194 279.143 76.6758 279.533 76.6758 279.932V280.348H71.7358ZM75.4278 279.412C75.4191 279.152 75.3758 278.914 75.2978 278.697C75.2284 278.48 75.1201 278.294 74.9728 278.138C74.8254 277.973 74.6391 277.848 74.4138 277.761C74.1971 277.666 73.9414 277.618 73.6468 277.618C73.3608 277.618 73.0964 277.674 72.8538 277.787C72.6198 277.891 72.4204 278.03 72.2558 278.203C72.0911 278.376 71.9611 278.571 71.8658 278.788C71.7791 278.996 71.7358 279.204 71.7358 279.412H75.4278ZM74.0758 273.796H75.7398L73.8028 275.668H72.7238L74.0758 273.796ZM82.4824 278.476C82.2657 278.251 82.0361 278.082 81.7934 277.969C81.5594 277.848 81.2777 277.787 80.9484 277.787C80.6277 277.787 80.3461 277.848 80.1034 277.969C79.8694 278.082 79.6701 278.242 79.5054 278.45C79.3494 278.649 79.2281 278.883 79.1414 279.152C79.0634 279.412 79.0244 279.685 79.0244 279.971C79.0244 280.257 79.0721 280.53 79.1674 280.79C79.2627 281.041 79.3971 281.262 79.5704 281.453C79.7437 281.644 79.9517 281.795 80.1944 281.908C80.4371 282.012 80.7101 282.064 81.0134 282.064C81.3427 282.064 81.6244 282.008 81.8584 281.895C82.0924 281.774 82.3091 281.6 82.5084 281.375L83.3404 282.207C83.0371 282.545 82.6817 282.788 82.2744 282.935C81.8757 283.082 81.4511 283.156 81.0004 283.156C80.5237 283.156 80.0861 283.078 79.6874 282.922C79.2974 282.766 78.9594 282.549 78.6734 282.272C78.3874 281.986 78.1664 281.648 78.0104 281.258C77.8544 280.859 77.7764 280.422 77.7764 279.945C77.7764 279.468 77.8544 279.031 78.0104 278.632C78.1664 278.233 78.3831 277.891 78.6604 277.605C78.9464 277.319 79.2844 277.098 79.6744 276.942C80.0731 276.777 80.5151 276.695 81.0004 276.695C81.4511 276.695 81.8801 276.777 82.2874 276.942C82.7034 277.098 83.0631 277.341 83.3664 277.67L82.4824 278.476ZM84.3469 273.172H85.5169V277.787H85.5429C85.6902 277.458 85.9459 277.193 86.3099 276.994C86.6739 276.786 87.0942 276.682 87.5709 276.682C87.8656 276.682 88.1472 276.73 88.4159 276.825C88.6932 276.912 88.9316 277.05 89.1309 277.241C89.3389 277.432 89.5036 277.679 89.6249 277.982C89.7462 278.277 89.8069 278.628 89.8069 279.035V283H88.6369V279.36C88.6369 279.074 88.5979 278.831 88.5199 278.632C88.4419 278.424 88.3379 278.259 88.2079 278.138C88.0779 278.008 87.9262 277.917 87.7529 277.865C87.5882 277.804 87.4149 277.774 87.2329 277.774C86.9902 277.774 86.7649 277.813 86.5569 277.891C86.3489 277.969 86.1669 278.095 86.0109 278.268C85.8549 278.433 85.7336 278.645 85.6469 278.905C85.5602 279.165 85.5169 279.473 85.5169 279.828V283H84.3469V273.172ZM91.5965 277.592C91.9259 277.289 92.3072 277.063 92.7405 276.916C93.1739 276.76 93.6072 276.682 94.0405 276.682C94.4912 276.682 94.8769 276.738 95.1975 276.851C95.5269 276.964 95.7955 277.115 96.0035 277.306C96.2115 277.497 96.3632 277.718 96.4585 277.969C96.5625 278.212 96.6145 278.467 96.6145 278.736V281.882C96.6145 282.099 96.6189 282.298 96.6275 282.48C96.6362 282.662 96.6492 282.835 96.6665 283H95.6265C95.6005 282.688 95.5875 282.376 95.5875 282.064H95.5615C95.3015 282.463 94.9939 282.744 94.6385 282.909C94.2832 283.074 93.8715 283.156 93.4035 283.156C93.1175 283.156 92.8445 283.117 92.5845 283.039C92.3245 282.961 92.0949 282.844 91.8955 282.688C91.7049 282.532 91.5532 282.341 91.4405 282.116C91.3279 281.882 91.2715 281.613 91.2715 281.31C91.2715 280.911 91.3582 280.578 91.5315 280.309C91.7135 280.04 91.9562 279.824 92.2595 279.659C92.5715 279.486 92.9312 279.364 93.3385 279.295C93.7545 279.217 94.1965 279.178 94.6645 279.178H95.5225V278.918C95.5225 278.762 95.4922 278.606 95.4315 278.45C95.3709 278.294 95.2799 278.155 95.1585 278.034C95.0372 277.904 94.8855 277.804 94.7035 277.735C94.5215 277.657 94.3049 277.618 94.0535 277.618C93.8282 277.618 93.6289 277.64 93.4555 277.683C93.2909 277.726 93.1392 277.783 93.0005 277.852C92.8619 277.913 92.7362 277.986 92.6235 278.073C92.5109 278.16 92.4025 278.242 92.2985 278.32L91.5965 277.592ZM94.8985 280.036C94.6212 280.036 94.3352 280.053 94.0405 280.088C93.7545 280.114 93.4902 280.17 93.2475 280.257C93.0135 280.344 92.8185 280.465 92.6625 280.621C92.5152 280.777 92.4415 280.976 92.4415 281.219C92.4415 281.574 92.5585 281.83 92.7925 281.986C93.0352 282.142 93.3602 282.22 93.7675 282.22C94.0882 282.22 94.3612 282.168 94.5865 282.064C94.8119 281.951 94.9939 281.808 95.1325 281.635C95.2712 281.462 95.3709 281.271 95.4315 281.063C95.4922 280.846 95.5225 280.634 95.5225 280.426V280.036H94.8985ZM98.3117 276.838H99.4817V277.787H99.5077C99.6551 277.458 99.9107 277.193 100.275 276.994C100.639 276.786 101.059 276.682 101.536 276.682C101.83 276.682 102.112 276.73 102.381 276.825C102.658 276.912 102.896 277.05 103.096 277.241C103.304 277.432 103.468 277.679 103.59 277.982C103.711 278.277 103.772 278.628 103.772 279.035V283H102.602V279.36C102.602 279.074 102.563 278.831 102.485 278.632C102.407 278.424 102.303 278.259 102.173 278.138C102.043 278.008 101.891 277.917 101.718 277.865C101.553 277.804 101.38 277.774 101.198 277.774C100.955 277.774 100.73 277.813 100.522 277.891C100.314 277.969 100.132 278.095 99.9757 278.268C99.8197 278.433 99.6984 278.645 99.6117 278.905C99.5251 279.165 99.4817 279.473 99.4817 279.828V283H98.3117V276.838ZM111.71 282.948C111.71 283.416 111.628 283.841 111.463 284.222C111.307 284.612 111.082 284.946 110.787 285.223C110.493 285.509 110.137 285.73 109.721 285.886C109.305 286.042 108.846 286.12 108.343 286.12C107.754 286.12 107.212 286.038 106.718 285.873C106.233 285.708 105.769 285.422 105.327 285.015L106.12 284.027C106.424 284.356 106.753 284.603 107.108 284.768C107.464 284.941 107.867 285.028 108.317 285.028C108.751 285.028 109.11 284.963 109.396 284.833C109.682 284.712 109.908 284.551 110.072 284.352C110.246 284.153 110.367 283.923 110.436 283.663C110.506 283.412 110.54 283.156 110.54 282.896V281.986H110.501C110.276 282.359 109.968 282.636 109.578 282.818C109.197 282.991 108.794 283.078 108.369 283.078C107.919 283.078 107.498 283 107.108 282.844C106.727 282.679 106.398 282.458 106.12 282.181C105.843 281.895 105.626 281.561 105.47 281.18C105.314 280.79 105.236 280.37 105.236 279.919C105.236 279.468 105.31 279.048 105.457 278.658C105.605 278.259 105.813 277.913 106.081 277.618C106.359 277.323 106.688 277.094 107.069 276.929C107.459 276.764 107.893 276.682 108.369 276.682C108.785 276.682 109.188 276.773 109.578 276.955C109.977 277.137 110.289 277.393 110.514 277.722H110.54V276.838H111.71V282.948ZM108.512 277.774C108.2 277.774 107.919 277.83 107.667 277.943C107.416 278.047 107.204 278.194 107.03 278.385C106.857 278.567 106.723 278.792 106.627 279.061C106.532 279.321 106.484 279.607 106.484 279.919C106.484 280.543 106.666 281.046 107.03 281.427C107.394 281.8 107.888 281.986 108.512 281.986C109.136 281.986 109.63 281.8 109.994 281.427C110.358 281.046 110.54 280.543 110.54 279.919C110.54 279.607 110.493 279.321 110.397 279.061C110.302 278.792 110.168 278.567 109.994 278.385C109.821 278.194 109.609 278.047 109.357 277.943C109.106 277.83 108.824 277.774 108.512 277.774ZM114.367 280.348C114.367 280.617 114.423 280.864 114.536 281.089C114.657 281.306 114.813 281.492 115.004 281.648C115.194 281.804 115.415 281.925 115.667 282.012C115.918 282.099 116.178 282.142 116.447 282.142C116.811 282.142 117.127 282.06 117.396 281.895C117.664 281.722 117.911 281.496 118.137 281.219L119.021 281.895C118.371 282.736 117.461 283.156 116.291 283.156C115.805 283.156 115.363 283.074 114.965 282.909C114.575 282.744 114.241 282.519 113.964 282.233C113.695 281.938 113.487 281.596 113.34 281.206C113.192 280.807 113.119 280.378 113.119 279.919C113.119 279.46 113.197 279.035 113.353 278.645C113.517 278.246 113.738 277.904 114.016 277.618C114.302 277.323 114.64 277.094 115.03 276.929C115.42 276.764 115.844 276.682 116.304 276.682C116.85 276.682 117.309 276.777 117.682 276.968C118.063 277.159 118.375 277.41 118.618 277.722C118.86 278.025 119.034 278.372 119.138 278.762C119.25 279.143 119.307 279.533 119.307 279.932V280.348H114.367ZM118.059 279.412C118.05 279.152 118.007 278.914 117.929 278.697C117.859 278.48 117.751 278.294 117.604 278.138C117.456 277.973 117.27 277.848 117.045 277.761C116.828 277.666 116.572 277.618 116.278 277.618C115.992 277.618 115.727 277.674 115.485 277.787C115.251 277.891 115.051 278.03 114.887 278.203C114.722 278.376 114.592 278.571 114.497 278.788C114.41 278.996 114.367 279.204 114.367 279.412H118.059ZM123.982 278.385C123.844 278.212 123.67 278.069 123.462 277.956C123.263 277.835 123.016 277.774 122.721 277.774C122.444 277.774 122.201 277.835 121.993 277.956C121.794 278.069 121.694 278.238 121.694 278.463C121.694 278.645 121.751 278.792 121.863 278.905C121.985 279.018 122.123 279.109 122.279 279.178C122.444 279.247 122.617 279.299 122.799 279.334C122.981 279.369 123.137 279.399 123.267 279.425C123.519 279.486 123.753 279.559 123.969 279.646C124.195 279.733 124.385 279.845 124.541 279.984C124.706 280.123 124.832 280.292 124.918 280.491C125.014 280.69 125.061 280.933 125.061 281.219C125.061 281.566 124.988 281.865 124.84 282.116C124.693 282.359 124.502 282.558 124.268 282.714C124.034 282.87 123.766 282.983 123.462 283.052C123.168 283.121 122.869 283.156 122.565 283.156C122.054 283.156 121.603 283.078 121.213 282.922C120.832 282.766 120.49 282.48 120.186 282.064L121.07 281.336C121.261 281.527 121.473 281.696 121.707 281.843C121.941 281.99 122.227 282.064 122.565 282.064C122.713 282.064 122.86 282.051 123.007 282.025C123.163 281.99 123.298 281.943 123.41 281.882C123.532 281.813 123.627 281.73 123.696 281.635C123.774 281.531 123.813 281.414 123.813 281.284C123.813 281.111 123.757 280.968 123.644 280.855C123.54 280.742 123.41 280.656 123.254 280.595C123.107 280.526 122.947 280.474 122.773 280.439C122.609 280.396 122.461 280.361 122.331 280.335C122.08 280.274 121.842 280.205 121.616 280.127C121.391 280.049 121.192 279.945 121.018 279.815C120.845 279.685 120.706 279.52 120.602 279.321C120.498 279.122 120.446 278.875 120.446 278.58C120.446 278.259 120.511 277.982 120.641 277.748C120.78 277.505 120.958 277.306 121.174 277.15C121.4 276.994 121.651 276.877 121.928 276.799C122.214 276.721 122.5 276.682 122.786 276.682C123.202 276.682 123.601 276.76 123.982 276.916C124.364 277.072 124.667 277.332 124.892 277.696L123.982 278.385ZM130.127 277.592C130.456 277.289 130.837 277.063 131.271 276.916C131.704 276.76 132.137 276.682 132.571 276.682C133.021 276.682 133.407 276.738 133.728 276.851C134.057 276.964 134.326 277.115 134.534 277.306C134.742 277.497 134.893 277.718 134.989 277.969C135.093 278.212 135.145 278.467 135.145 278.736V281.882C135.145 282.099 135.149 282.298 135.158 282.48C135.166 282.662 135.179 282.835 135.197 283H134.157C134.131 282.688 134.118 282.376 134.118 282.064H134.092C133.832 282.463 133.524 282.744 133.169 282.909C132.813 283.074 132.402 283.156 131.934 283.156C131.648 283.156 131.375 283.117 131.115 283.039C130.855 282.961 130.625 282.844 130.426 282.688C130.235 282.532 130.083 282.341 129.971 282.116C129.858 281.882 129.802 281.613 129.802 281.31C129.802 280.911 129.888 280.578 130.062 280.309C130.244 280.04 130.486 279.824 130.79 279.659C131.102 279.486 131.461 279.364 131.869 279.295C132.285 279.217 132.727 279.178 133.195 279.178H134.053V278.918C134.053 278.762 134.022 278.606 133.962 278.45C133.901 278.294 133.81 278.155 133.689 278.034C133.567 277.904 133.416 277.804 133.234 277.735C133.052 277.657 132.835 277.618 132.584 277.618C132.358 277.618 132.159 277.64 131.986 277.683C131.821 277.726 131.669 277.783 131.531 277.852C131.392 277.913 131.266 277.986 131.154 278.073C131.041 278.16 130.933 278.242 130.829 278.32L130.127 277.592ZM133.429 280.036C133.151 280.036 132.865 280.053 132.571 280.088C132.285 280.114 132.02 280.17 131.778 280.257C131.544 280.344 131.349 280.465 131.193 280.621C131.045 280.777 130.972 280.976 130.972 281.219C130.972 281.574 131.089 281.83 131.323 281.986C131.565 282.142 131.89 282.22 132.298 282.22C132.618 282.22 132.891 282.168 133.117 282.064C133.342 281.951 133.524 281.808 133.663 281.635C133.801 281.462 133.901 281.271 133.962 281.063C134.022 280.846 134.053 280.634 134.053 280.426V280.036H133.429ZM136.101 276.838H137.453L139.299 281.557L141.067 276.838H142.315L139.897 283H138.61L136.101 276.838ZM144.226 280.348C144.226 280.617 144.282 280.864 144.395 281.089C144.516 281.306 144.672 281.492 144.863 281.648C145.054 281.804 145.275 281.925 145.526 282.012C145.777 282.099 146.037 282.142 146.306 282.142C146.67 282.142 146.986 282.06 147.255 281.895C147.524 281.722 147.771 281.496 147.996 281.219L148.88 281.895C148.23 282.736 147.32 283.156 146.15 283.156C145.665 283.156 145.223 283.074 144.824 282.909C144.434 282.744 144.1 282.519 143.823 282.233C143.554 281.938 143.346 281.596 143.199 281.206C143.052 280.807 142.978 280.378 142.978 279.919C142.978 279.46 143.056 279.035 143.212 278.645C143.377 278.246 143.598 277.904 143.875 277.618C144.161 277.323 144.499 277.094 144.889 276.929C145.279 276.764 145.704 276.682 146.163 276.682C146.709 276.682 147.168 276.777 147.541 276.968C147.922 277.159 148.234 277.41 148.477 277.722C148.72 278.025 148.893 278.372 148.997 278.762C149.11 279.143 149.166 279.533 149.166 279.932V280.348H144.226ZM147.918 279.412C147.909 279.152 147.866 278.914 147.788 278.697C147.719 278.48 147.61 278.294 147.463 278.138C147.316 277.973 147.129 277.848 146.904 277.761C146.687 277.666 146.432 277.618 146.137 277.618C145.851 277.618 145.587 277.674 145.344 277.787C145.11 277.891 144.911 278.03 144.746 278.203C144.581 278.376 144.451 278.571 144.356 278.788C144.269 278.996 144.226 279.204 144.226 279.412H147.918ZM154.973 278.476C154.756 278.251 154.526 278.082 154.284 277.969C154.05 277.848 153.768 277.787 153.439 277.787C153.118 277.787 152.836 277.848 152.594 277.969C152.36 278.082 152.16 278.242 151.996 278.45C151.84 278.649 151.718 278.883 151.632 279.152C151.554 279.412 151.515 279.685 151.515 279.971C151.515 280.257 151.562 280.53 151.658 280.79C151.753 281.041 151.887 281.262 152.061 281.453C152.234 281.644 152.442 281.795 152.685 281.908C152.927 282.012 153.2 282.064 153.504 282.064C153.833 282.064 154.115 282.008 154.349 281.895C154.583 281.774 154.799 281.6 154.999 281.375L155.831 282.207C155.527 282.545 155.172 282.788 154.765 282.935C154.366 283.082 153.941 283.156 153.491 283.156C153.014 283.156 152.576 283.078 152.178 282.922C151.788 282.766 151.45 282.549 151.164 282.272C150.878 281.986 150.657 281.648 150.501 281.258C150.345 280.859 150.267 280.422 150.267 279.945C150.267 279.468 150.345 279.031 150.501 278.632C150.657 278.233 150.873 277.891 151.151 277.605C151.437 277.319 151.775 277.098 152.165 276.942C152.563 276.777 153.005 276.695 153.491 276.695C153.941 276.695 154.37 276.777 154.778 276.942C155.194 277.098 155.553 277.341 155.857 277.67L154.973 278.476ZM165.915 283H164.745V282.051H164.719C164.572 282.38 164.316 282.649 163.952 282.857C163.588 283.056 163.168 283.156 162.691 283.156C162.388 283.156 162.102 283.108 161.833 283.013C161.565 282.926 161.326 282.788 161.118 282.597C160.919 282.406 160.759 282.164 160.637 281.869C160.516 281.566 160.455 281.21 160.455 280.803V276.838H161.625V280.478C161.625 280.764 161.664 281.011 161.742 281.219C161.82 281.418 161.924 281.583 162.054 281.713C162.184 281.834 162.332 281.925 162.496 281.986C162.67 282.038 162.847 282.064 163.029 282.064C163.272 282.064 163.497 282.025 163.705 281.947C163.913 281.869 164.095 281.748 164.251 281.583C164.407 281.41 164.529 281.193 164.615 280.933C164.702 280.673 164.745 280.365 164.745 280.01V276.838H165.915V283ZM167.679 276.838H168.849V277.787H168.875C169.022 277.458 169.278 277.193 169.642 276.994C170.006 276.786 170.426 276.682 170.903 276.682C171.198 276.682 171.479 276.73 171.748 276.825C172.025 276.912 172.264 277.05 172.463 277.241C172.671 277.432 172.836 277.679 172.957 277.982C173.078 278.277 173.139 278.628 173.139 279.035V283H171.969V279.36C171.969 279.074 171.93 278.831 171.852 278.632C171.774 278.424 171.67 278.259 171.54 278.138C171.41 278.008 171.258 277.917 171.085 277.865C170.92 277.804 170.747 277.774 170.565 277.774C170.322 277.774 170.097 277.813 169.889 277.891C169.681 277.969 169.499 278.095 169.343 278.268C169.187 278.433 169.066 278.645 168.979 278.905C168.892 279.165 168.849 279.473 168.849 279.828V283H167.679V276.838ZM182.928 278.476C182.711 278.251 182.481 278.082 182.239 277.969C182.005 277.848 181.723 277.787 181.394 277.787C181.073 277.787 180.791 277.848 180.549 277.969C180.315 278.082 180.115 278.242 179.951 278.45C179.795 278.649 179.673 278.883 179.587 279.152C179.509 279.412 179.47 279.685 179.47 279.971C179.47 280.257 179.517 280.53 179.613 280.79C179.708 281.041 179.842 281.262 180.016 281.453C180.189 281.644 180.397 281.795 180.64 281.908C180.882 282.012 181.155 282.064 181.459 282.064C181.788 282.064 182.07 282.008 182.304 281.895C182.538 281.774 182.754 281.6 182.954 281.375L183.786 282.207C183.482 282.545 183.127 282.788 182.72 282.935C182.321 283.082 181.896 283.156 181.446 283.156C180.969 283.156 180.531 283.078 180.133 282.922C179.743 282.766 179.405 282.549 179.119 282.272C178.833 281.986 178.612 281.648 178.456 281.258C178.3 280.859 178.222 280.422 178.222 279.945C178.222 279.468 178.3 279.031 178.456 278.632C178.612 278.233 178.828 277.891 179.106 277.605C179.392 277.319 179.73 277.098 180.12 276.942C180.518 276.777 180.96 276.695 181.446 276.695C181.896 276.695 182.325 276.777 182.733 276.942C183.149 277.098 183.508 277.341 183.812 277.67L182.928 278.476ZM185.741 279.919C185.741 280.231 185.789 280.521 185.884 280.79C185.98 281.05 186.114 281.275 186.287 281.466C186.461 281.648 186.673 281.795 186.924 281.908C187.176 282.012 187.457 282.064 187.769 282.064C188.081 282.064 188.363 282.012 188.614 281.908C188.866 281.795 189.078 281.648 189.251 281.466C189.425 281.275 189.559 281.05 189.654 280.79C189.75 280.521 189.797 280.231 189.797 279.919C189.797 279.607 189.75 279.321 189.654 279.061C189.559 278.792 189.425 278.567 189.251 278.385C189.078 278.194 188.866 278.047 188.614 277.943C188.363 277.83 188.081 277.774 187.769 277.774C187.457 277.774 187.176 277.83 186.924 277.943C186.673 278.047 186.461 278.194 186.287 278.385C186.114 278.567 185.98 278.792 185.884 279.061C185.789 279.321 185.741 279.607 185.741 279.919ZM184.493 279.919C184.493 279.468 184.576 279.048 184.74 278.658C184.914 278.268 185.148 277.926 185.442 277.631C185.737 277.336 186.084 277.107 186.482 276.942C186.881 276.769 187.31 276.682 187.769 276.682C188.229 276.682 188.658 276.769 189.056 276.942C189.455 277.107 189.802 277.336 190.096 277.631C190.391 277.926 190.621 278.268 190.785 278.658C190.959 279.048 191.045 279.468 191.045 279.919C191.045 280.37 190.959 280.794 190.785 281.193C190.621 281.583 190.391 281.925 190.096 282.22C189.802 282.506 189.455 282.736 189.056 282.909C188.658 283.074 188.229 283.156 187.769 283.156C187.31 283.156 186.881 283.074 186.482 282.909C186.084 282.736 185.737 282.506 185.442 282.22C185.148 281.925 184.914 281.583 184.74 281.193C184.576 280.794 184.493 280.37 184.493 279.919ZM192.511 276.838H193.681V277.787H193.707C193.854 277.458 194.11 277.193 194.474 276.994C194.838 276.786 195.258 276.682 195.735 276.682C196.03 276.682 196.311 276.73 196.58 276.825C196.857 276.912 197.096 277.05 197.295 277.241C197.503 277.432 197.668 277.679 197.789 277.982C197.91 278.277 197.971 278.628 197.971 279.035V283H196.801V279.36C196.801 279.074 196.762 278.831 196.684 278.632C196.606 278.424 196.502 278.259 196.372 278.138C196.242 278.008 196.09 277.917 195.917 277.865C195.752 277.804 195.579 277.774 195.397 277.774C195.154 277.774 194.929 277.813 194.721 277.891C194.513 277.969 194.331 278.095 194.175 278.268C194.019 278.433 193.898 278.645 193.811 278.905C193.724 279.165 193.681 279.473 193.681 279.828V283H192.511V276.838ZM203.011 278.385C202.872 278.212 202.699 278.069 202.491 277.956C202.291 277.835 202.044 277.774 201.75 277.774C201.472 277.774 201.23 277.835 201.022 277.956C200.822 278.069 200.723 278.238 200.723 278.463C200.723 278.645 200.779 278.792 200.892 278.905C201.013 279.018 201.152 279.109 201.308 279.178C201.472 279.247 201.646 279.299 201.828 279.334C202.01 279.369 202.166 279.399 202.296 279.425C202.547 279.486 202.781 279.559 202.998 279.646C203.223 279.733 203.414 279.845 203.57 279.984C203.734 280.123 203.86 280.292 203.947 280.491C204.042 280.69 204.09 280.933 204.09 281.219C204.09 281.566 204.016 281.865 203.869 282.116C203.721 282.359 203.531 282.558 203.297 282.714C203.063 282.87 202.794 282.983 202.491 283.052C202.196 283.121 201.897 283.156 201.594 283.156C201.082 283.156 200.632 283.078 200.242 282.922C199.86 282.766 199.518 282.48 199.215 282.064L200.099 281.336C200.289 281.527 200.502 281.696 200.736 281.843C200.97 281.99 201.256 282.064 201.594 282.064C201.741 282.064 201.888 282.051 202.036 282.025C202.192 281.99 202.326 281.943 202.439 281.882C202.56 281.813 202.655 281.73 202.725 281.635C202.803 281.531 202.842 281.414 202.842 281.284C202.842 281.111 202.785 280.968 202.673 280.855C202.569 280.742 202.439 280.656 202.283 280.595C202.135 280.526 201.975 280.474 201.802 280.439C201.637 280.396 201.49 280.361 201.36 280.335C201.108 280.274 200.87 280.205 200.645 280.127C200.419 280.049 200.22 279.945 200.047 279.815C199.873 279.685 199.735 279.52 199.631 279.321C199.527 279.122 199.475 278.875 199.475 278.58C199.475 278.259 199.54 277.982 199.67 277.748C199.808 277.505 199.986 277.306 200.203 277.15C200.428 276.994 200.679 276.877 200.957 276.799C201.243 276.721 201.529 276.682 201.815 276.682C202.231 276.682 202.629 276.76 203.011 276.916C203.392 277.072 203.695 277.332 203.921 277.696L203.011 278.385ZM206.395 280.348C206.395 280.617 206.451 280.864 206.564 281.089C206.685 281.306 206.841 281.492 207.032 281.648C207.223 281.804 207.444 281.925 207.695 282.012C207.946 282.099 208.206 282.142 208.475 282.142C208.839 282.142 209.155 282.06 209.424 281.895C209.693 281.722 209.94 281.496 210.165 281.219L211.049 281.895C210.399 282.736 209.489 283.156 208.319 283.156C207.834 283.156 207.392 283.074 206.993 282.909C206.603 282.744 206.269 282.519 205.992 282.233C205.723 281.938 205.515 281.596 205.368 281.206C205.221 280.807 205.147 280.378 205.147 279.919C205.147 279.46 205.225 279.035 205.381 278.645C205.546 278.246 205.767 277.904 206.044 277.618C206.33 277.323 206.668 277.094 207.058 276.929C207.448 276.764 207.873 276.682 208.332 276.682C208.878 276.682 209.337 276.777 209.71 276.968C210.091 277.159 210.403 277.41 210.646 277.722C210.889 278.025 211.062 278.372 211.166 278.762C211.279 279.143 211.335 279.533 211.335 279.932V280.348H206.395ZM210.087 279.412C210.078 279.152 210.035 278.914 209.957 278.697C209.888 278.48 209.779 278.294 209.632 278.138C209.485 277.973 209.298 277.848 209.073 277.761C208.856 277.666 208.601 277.618 208.306 277.618C208.02 277.618 207.756 277.674 207.513 277.787C207.279 277.891 207.08 278.03 206.915 278.203C206.75 278.376 206.62 278.571 206.525 278.788C206.438 278.996 206.395 279.204 206.395 279.412H210.087ZM212.826 276.838H213.996V283H212.826V276.838ZM212.553 274.628C212.553 274.394 212.635 274.195 212.8 274.03C212.973 273.857 213.177 273.77 213.411 273.77C213.645 273.77 213.844 273.857 214.009 274.03C214.182 274.195 214.269 274.394 214.269 274.628C214.269 274.862 214.182 275.066 214.009 275.239C213.844 275.404 213.645 275.486 213.411 275.486C213.177 275.486 212.973 275.404 212.8 275.239C212.635 275.066 212.553 274.862 212.553 274.628ZM215.949 273.172H217.119V283H215.949V273.172ZM219.072 273.172H220.242V283H219.072V273.172ZM222.988 280.348C222.988 280.617 223.044 280.864 223.157 281.089C223.278 281.306 223.434 281.492 223.625 281.648C223.815 281.804 224.036 281.925 224.288 282.012C224.539 282.099 224.799 282.142 225.068 282.142C225.432 282.142 225.748 282.06 226.017 281.895C226.285 281.722 226.532 281.496 226.758 281.219L227.642 281.895C226.992 282.736 226.082 283.156 224.912 283.156C224.426 283.156 223.984 283.074 223.586 282.909C223.196 282.744 222.862 282.519 222.585 282.233C222.316 281.938 222.108 281.596 221.961 281.206C221.813 280.807 221.74 280.378 221.74 279.919C221.74 279.46 221.818 279.035 221.974 278.645C222.138 278.246 222.359 277.904 222.637 277.618C222.923 277.323 223.261 277.094 223.651 276.929C224.041 276.764 224.465 276.682 224.925 276.682C225.471 276.682 225.93 276.777 226.303 276.968C226.684 277.159 226.996 277.41 227.239 277.722C227.481 278.025 227.655 278.372 227.759 278.762C227.871 279.143 227.928 279.533 227.928 279.932V280.348H222.988ZM226.68 279.412C226.671 279.152 226.628 278.914 226.55 278.697C226.48 278.48 226.372 278.294 226.225 278.138C226.077 277.973 225.891 277.848 225.666 277.761C225.449 277.666 225.193 277.618 224.899 277.618C224.613 277.618 224.348 277.674 224.106 277.787C223.872 277.891 223.672 278.03 223.508 278.203C223.343 278.376 223.213 278.571 223.118 278.788C223.031 278.996 222.988 279.204 222.988 279.412H226.68ZM229.327 276.838H230.497V277.787H230.523C230.601 277.622 230.705 277.475 230.835 277.345C230.965 277.206 231.108 277.089 231.264 276.994C231.429 276.899 231.607 276.825 231.797 276.773C231.988 276.712 232.179 276.682 232.369 276.682C232.56 276.682 232.733 276.708 232.889 276.76L232.837 278.021C232.742 277.995 232.647 277.973 232.551 277.956C232.456 277.939 232.361 277.93 232.265 277.93C231.693 277.93 231.256 278.09 230.952 278.411C230.649 278.732 230.497 279.23 230.497 279.906V283H229.327V276.838Z" fill="#9DA0A5"/>
<path d="M296.794 262.666C296.366 263.062 296.366 263.738 296.794 264.134L300.973 268L296.794 271.866C296.366 272.262 296.366 272.938 296.794 273.334L296.834 273.372C297.218 273.726 297.809 273.726 298.193 273.372L303.206 268.734C303.634 268.338 303.634 267.662 303.206 267.266L298.193 262.628C297.809 262.274 297.218 262.274 296.834 262.628L296.794 262.666Z" fill="#8DE8FE"/>
</svg>
