<svg width="328" height="160" viewBox="0 0 328 160" fill="none" xmlns="http://www.w3.org/2000/svg">
<path d="M10.17 8.244C9.702 7.74 9.246 7.404 8.802 7.236C8.37 7.068 7.932 6.984 7.488 6.984C6.828 6.984 6.228 7.104 5.688 7.344C5.16 7.572 4.704 7.896 4.32 8.316C3.936 8.724 3.636 9.204 3.42 9.756C3.216 10.308 3.114 10.902 3.114 11.538C3.114 12.222 3.216 12.852 3.42 13.428C3.636 14.004 3.936 14.502 4.32 14.922C4.704 15.342 5.16 15.672 5.688 15.912C6.228 16.152 6.828 16.272 7.488 16.272C8.004 16.272 8.502 16.152 8.982 15.912C9.474 15.66 9.93 15.264 10.35 14.724L12.222 16.056C11.646 16.848 10.944 17.424 10.116 17.784C9.288 18.144 8.406 18.324 7.47 18.324C6.486 18.324 5.58 18.168 4.752 17.856C3.936 17.532 3.228 17.082 2.628 16.506C2.04 15.918 1.578 15.216 1.242 14.4C0.906 13.584 0.738 12.678 0.738 11.682C0.738 10.662 0.906 9.738 1.242 8.91C1.578 8.07 2.04 7.356 2.628 6.768C3.228 6.18 3.936 5.73 4.752 5.418C5.58 5.094 6.486 4.932 7.47 4.932C8.334 4.932 9.132 5.088 9.864 5.4C10.608 5.7 11.298 6.216 11.934 6.948L10.17 8.244ZM18.9463 16.812H18.8923C18.5803 17.304 18.1843 17.664 17.7043 17.892C17.2243 18.108 16.6963 18.216 16.1203 18.216C15.7243 18.216 15.3343 18.162 14.9503 18.054C14.5783 17.946 14.2423 17.784 13.9423 17.568C13.6543 17.352 13.4203 17.082 13.2403 16.758C13.0603 16.434 12.9703 16.056 12.9703 15.624C12.9703 15.156 13.0543 14.76 13.2223 14.436C13.3903 14.1 13.6123 13.824 13.8883 13.608C14.1763 13.38 14.5063 13.2 14.8783 13.068C15.2503 12.936 15.6343 12.84 16.0303 12.78C16.4383 12.708 16.8463 12.666 17.2543 12.654C17.6623 12.63 18.0463 12.618 18.4063 12.618H18.9463V12.384C18.9463 11.844 18.7603 11.442 18.3883 11.178C18.0163 10.902 17.5423 10.764 16.9663 10.764C16.5103 10.764 16.0843 10.848 15.6883 11.016C15.2923 11.172 14.9503 11.388 14.6623 11.664L13.5283 10.53C14.0083 10.038 14.5663 9.684 15.2023 9.468C15.8503 9.252 16.5163 9.144 17.2003 9.144C17.8123 9.144 18.3283 9.216 18.7483 9.36C19.1683 9.492 19.5163 9.666 19.7923 9.882C20.0683 10.098 20.2783 10.35 20.4223 10.638C20.5783 10.914 20.6863 11.196 20.7463 11.484C20.8183 11.772 20.8603 12.054 20.8723 12.33C20.8843 12.594 20.8903 12.828 20.8903 13.032V18H18.9463V16.812ZM18.8203 14.13H18.3703C18.0703 14.13 17.7343 14.142 17.3623 14.166C16.9903 14.19 16.6363 14.25 16.3003 14.346C15.9763 14.43 15.7003 14.562 15.4723 14.742C15.2443 14.91 15.1303 15.15 15.1303 15.462C15.1303 15.666 15.1723 15.84 15.2563 15.984C15.3523 16.116 15.4723 16.23 15.6163 16.326C15.7603 16.422 15.9223 16.494 16.1023 16.542C16.2823 16.578 16.4623 16.596 16.6423 16.596C17.3863 16.596 17.9323 16.422 18.2803 16.074C18.6403 15.714 18.8203 15.228 18.8203 14.616V14.13ZM23.2142 9.36H25.3742V10.728H25.4102C25.6502 10.224 25.9922 9.834 26.4362 9.558C26.8802 9.282 27.3902 9.144 27.9662 9.144C28.0982 9.144 28.2242 9.156 28.3442 9.18C28.4762 9.204 28.6082 9.234 28.7402 9.27V11.358C28.5602 11.31 28.3802 11.274 28.2002 11.25C28.0322 11.214 27.8642 11.196 27.6962 11.196C27.1922 11.196 26.7842 11.292 26.4722 11.484C26.1722 11.664 25.9382 11.874 25.7702 12.114C25.6142 12.354 25.5062 12.594 25.4462 12.834C25.3982 13.074 25.3742 13.254 25.3742 13.374V18H23.2142V9.36ZM29.2023 11.196V9.36H30.9843V6.858H33.1443V9.36H35.5203V11.196H33.1443V14.976C33.1443 15.408 33.2223 15.75 33.3783 16.002C33.5463 16.254 33.8703 16.38 34.3503 16.38C34.5423 16.38 34.7523 16.362 34.9803 16.326C35.2083 16.278 35.3883 16.206 35.5203 16.11V17.928C35.2923 18.036 35.0103 18.108 34.6743 18.144C34.3503 18.192 34.0623 18.216 33.8103 18.216C33.2343 18.216 32.7603 18.15 32.3883 18.018C32.0283 17.898 31.7403 17.712 31.5243 17.46C31.3203 17.196 31.1763 16.872 31.0923 16.488C31.0203 16.104 30.9843 15.66 30.9843 15.156V11.196H29.2023ZM38.9344 14.436C39.0064 15.084 39.2584 15.588 39.6904 15.948C40.1224 16.308 40.6444 16.488 41.2564 16.488C41.7964 16.488 42.2464 16.38 42.6064 16.164C42.9784 15.936 43.3024 15.654 43.5784 15.318L45.1264 16.488C44.6224 17.112 44.0584 17.556 43.4344 17.82C42.8104 18.084 42.1564 18.216 41.4724 18.216C40.8244 18.216 40.2124 18.108 39.6364 17.892C39.0604 17.676 38.5624 17.37 38.1424 16.974C37.7224 16.578 37.3864 16.104 37.1344 15.552C36.8944 14.988 36.7744 14.364 36.7744 13.68C36.7744 12.996 36.8944 12.378 37.1344 11.826C37.3864 11.262 37.7224 10.782 38.1424 10.386C38.5624 9.99 39.0604 9.684 39.6364 9.468C40.2124 9.252 40.8244 9.144 41.4724 9.144C42.0724 9.144 42.6184 9.252 43.1104 9.468C43.6144 9.672 44.0404 9.972 44.3884 10.368C44.7484 10.764 45.0244 11.256 45.2164 11.844C45.4204 12.42 45.5224 13.086 45.5224 13.842V14.436H38.9344ZM43.3624 12.816C43.3504 12.18 43.1524 11.682 42.7684 11.322C42.3844 10.95 41.8504 10.764 41.1664 10.764C40.5184 10.764 40.0024 10.95 39.6184 11.322C39.2464 11.694 39.0184 12.192 38.9344 12.816H43.3624ZM52.1504 11.754C51.7304 11.166 51.1664 10.872 50.4584 10.872C50.1704 10.872 49.8884 10.944 49.6124 11.088C49.3364 11.232 49.1984 11.466 49.1984 11.79C49.1984 12.054 49.3124 12.246 49.5404 12.366C49.7684 12.486 50.0564 12.588 50.4044 12.672C50.7524 12.756 51.1244 12.846 51.5204 12.942C51.9284 13.026 52.3064 13.164 52.6544 13.356C53.0024 13.536 53.2904 13.788 53.5184 14.112C53.7464 14.436 53.8604 14.88 53.8604 15.444C53.8604 15.96 53.7464 16.398 53.5184 16.758C53.3024 17.106 53.0144 17.388 52.6544 17.604C52.3064 17.82 51.9104 17.976 51.4664 18.072C51.0224 18.168 50.5784 18.216 50.1344 18.216C49.4624 18.216 48.8444 18.12 48.2804 17.928C47.7164 17.736 47.2124 17.388 46.7684 16.884L48.2084 15.534C48.4844 15.846 48.7784 16.104 49.0904 16.308C49.4144 16.5 49.8044 16.596 50.2604 16.596C50.4164 16.596 50.5784 16.578 50.7464 16.542C50.9144 16.506 51.0704 16.446 51.2144 16.362C51.3584 16.278 51.4724 16.176 51.5564 16.056C51.6524 15.924 51.7004 15.774 51.7004 15.606C51.7004 15.306 51.5864 15.084 51.3584 14.94C51.1304 14.796 50.8424 14.682 50.4944 14.598C50.1464 14.502 49.7684 14.418 49.3604 14.346C48.9644 14.262 48.5924 14.136 48.2444 13.968C47.8964 13.788 47.6084 13.542 47.3804 13.23C47.1524 12.918 47.0384 12.486 47.0384 11.934C47.0384 11.454 47.1344 11.04 47.3264 10.692C47.5304 10.332 47.7944 10.038 48.1184 9.81C48.4424 9.582 48.8144 9.414 49.2344 9.306C49.6544 9.198 50.0804 9.144 50.5124 9.144C51.0884 9.144 51.6584 9.246 52.2224 9.45C52.7864 9.642 53.2424 9.978 53.5904 10.458L52.1504 11.754Z" fill="#F3F3F8"/>
<rect y="40" width="328" height="56" rx="14" fill="#242B35"/>
<path d="M18 61.6489V59.9946C18.0005 59.5892 18.1618 59.2005 18.4485 58.9139C18.7352 58.6272 19.1239 58.4659 19.5293 58.4653H20.8545C20.9871 58.4653 21.1143 58.518 21.208 58.6118C21.3018 58.7055 21.3545 58.8327 21.3545 58.9653C21.3545 59.0979 21.3018 59.2251 21.208 59.3189C21.1143 59.4127 20.9871 59.4653 20.8545 59.4653H19.5293C19.389 59.4654 19.2544 59.5212 19.1552 59.6205C19.0559 59.7197 19.0001 59.8543 19 59.9946V61.6489C19 61.7815 18.9473 61.9087 18.8536 62.0025C18.7598 62.0963 18.6326 62.1489 18.5 62.1489C18.3674 62.1489 18.2402 62.0963 18.1464 62.0025C18.0527 61.9087 18 61.7815 18 61.6489ZM36.4707 58.4653H35.1455C35.0129 58.4653 34.8857 58.518 34.792 58.6118C34.6982 58.7055 34.6455 58.8327 34.6455 58.9653C34.6455 59.0979 34.6982 59.2251 34.792 59.3189C34.8857 59.4127 35.0129 59.4653 35.1455 59.4653H36.4707C36.611 59.4654 36.7456 59.5212 36.8448 59.6205C36.9441 59.7197 36.9999 59.8543 37 59.9946V61.6489C37 61.7815 37.0527 61.9087 37.1464 62.0025C37.2402 62.0963 37.3674 62.1489 37.5 62.1489C37.6326 62.1489 37.7598 62.0963 37.8536 62.0025C37.9473 61.9087 38 61.7815 38 61.6489V59.9946C37.9995 59.5892 37.8382 59.2005 37.5515 58.9139C37.2648 58.6272 36.8761 58.4659 36.4707 58.4653ZM20.8545 76.5347H19.5293C19.389 76.5346 19.2544 76.4788 19.1552 76.3795C19.0559 76.2803 19.0001 76.1457 19 76.0054V74.352C19 74.2194 18.9473 74.0922 18.8536 73.9984C18.7598 73.9047 18.6326 73.852 18.5 73.852C18.3674 73.852 18.2402 73.9047 18.1464 73.9984C18.0527 74.0922 18 74.2194 18 74.352V76.0053C18.0005 76.4108 18.1618 76.7994 18.4485 77.0861C18.7352 77.3728 19.1239 77.5341 19.5293 77.5346H20.8545C20.9871 77.5346 21.1143 77.4819 21.208 77.3882C21.3018 77.2944 21.3545 77.1672 21.3545 77.0346C21.3545 76.902 21.3018 76.7748 21.208 76.6811C21.1143 76.5873 20.9871 76.5346 20.8545 76.5346V76.5347ZM37.5 73.852C37.4343 73.852 37.3693 73.8649 37.3086 73.89C37.2479 73.9151 37.1928 73.9519 37.1464 73.9984C37.0999 74.0448 37.0631 74.0999 37.038 74.1606C37.0129 74.2213 37 74.2863 37 74.352V76.0053C36.9999 76.1457 36.9441 76.2802 36.8448 76.3795C36.7456 76.4787 36.611 76.5345 36.4707 76.5346H35.1455C35.0129 76.5346 34.8857 76.5873 34.792 76.6811C34.6982 76.7748 34.6455 76.902 34.6455 77.0346C34.6455 77.1672 34.6982 77.2944 34.792 77.3882C34.8857 77.4819 35.0129 77.5346 35.1455 77.5346H36.4707C36.8761 77.5341 37.2648 77.3728 37.5515 77.0861C37.8381 76.7994 37.9994 76.4108 38 76.0054V74.352C38 74.2863 37.9871 74.2213 37.962 74.1606C37.9369 74.0999 37.9001 74.0448 37.8536 73.9984C37.8072 73.9519 37.7521 73.9151 37.6914 73.89C37.6307 73.8649 37.5657 73.852 37.5 73.852V73.852ZM34.8584 67.268H28.7114V61.1216H34.8584V67.268ZM33.8584 62.1215H29.7114V66.268H33.8584V62.1215ZM32.75 63.229H30.8193V65.1597H32.75V63.229ZM21.1001 68.7319H27.2471V74.8794H21.1001V68.7319ZM22.1001 73.8794H26.2471V69.7319H22.1001V73.8794ZM23.2085 72.771H25.1392V70.8403H23.2085V72.771ZM28.9209 70.7261H30.8994V68.7476H28.9209V70.7261ZM30.9062 72.7114H32.8848V70.7329H30.9062V72.7114ZM34.8994 68.7183H32.9209V70.6968H34.8994V68.7183ZM28.8345 74.7837H30.813V72.8052H28.8345V74.7837ZM21.2115 67.2007H23.1899V65.2222H21.2114L21.2115 67.2007ZM27.1734 61.2388H25.1948V63.2173H27.1733L27.1734 61.2388ZM25.1758 63.2368H23.1973V65.2144H25.1758V63.2368ZM21.1826 63.2007H23.1611V61.2222H21.1826V63.2007ZM25.269 67.2866H27.2475V65.3081H25.269V67.2866Z" fill="#F3F3F4"/>
<path d="M47.952 60.672H50.272L53.36 69.232L56.544 60.672H58.72L54.144 72H52.4L47.952 60.672ZM58.5009 68.16C58.5009 67.552 58.6075 67.0027 58.8209 66.512C59.0449 66.0107 59.3435 65.584 59.7169 65.232C60.0902 64.88 60.5329 64.608 61.0449 64.416C61.5569 64.224 62.1009 64.128 62.6769 64.128C63.2529 64.128 63.7969 64.224 64.3089 64.416C64.8209 64.608 65.2635 64.88 65.6369 65.232C66.0102 65.584 66.3035 66.0107 66.5169 66.512C66.7409 67.0027 66.8529 67.552 66.8529 68.16C66.8529 68.768 66.7409 69.3227 66.5169 69.824C66.3035 70.3147 66.0102 70.736 65.6369 71.088C65.2635 71.44 64.8209 71.712 64.3089 71.904C63.7969 72.096 63.2529 72.192 62.6769 72.192C62.1009 72.192 61.5569 72.096 61.0449 71.904C60.5329 71.712 60.0902 71.44 59.7169 71.088C59.3435 70.736 59.0449 70.3147 58.8209 69.824C58.6075 69.3227 58.5009 68.768 58.5009 68.16ZM60.4209 68.16C60.4209 68.4587 60.4689 68.7467 60.5649 69.024C60.6715 69.3013 60.8209 69.5467 61.0129 69.76C61.2155 69.9733 61.4555 70.144 61.7329 70.272C62.0102 70.4 62.3249 70.464 62.6769 70.464C63.0289 70.464 63.3435 70.4 63.6209 70.272C63.8982 70.144 64.1329 69.9733 64.3249 69.76C64.5275 69.5467 64.6769 69.3013 64.7729 69.024C64.8795 68.7467 64.9329 68.4587 64.9329 68.16C64.9329 67.8613 64.8795 67.5733 64.7729 67.296C64.6769 67.0187 64.5275 66.7733 64.3249 66.56C64.1329 66.3467 63.8982 66.176 63.6209 66.048C63.3435 65.92 63.0289 65.856 62.6769 65.856C62.3249 65.856 62.0102 65.92 61.7329 66.048C61.4555 66.176 61.2155 66.3467 61.0129 66.56C60.8209 66.7733 60.6715 67.0187 60.5649 67.296C60.4689 67.5733 60.4209 67.8613 60.4209 68.16ZM67.7545 65.952V64.32H69.3385V62.096H71.2585V64.32H73.3705V65.952H71.2585V69.312C71.2585 69.696 71.3278 70 71.4665 70.224C71.6158 70.448 71.9038 70.56 72.3305 70.56C72.5012 70.56 72.6878 70.544 72.8905 70.512C73.0932 70.4693 73.2532 70.4053 73.3705 70.32V71.936C73.1678 72.032 72.9172 72.096 72.6185 72.128C72.3305 72.1707 72.0745 72.192 71.8505 72.192C71.3385 72.192 70.9172 72.1333 70.5865 72.016C70.2665 71.9093 70.0105 71.744 69.8185 71.52C69.6372 71.2853 69.5092 70.9973 69.4345 70.656C69.3705 70.3147 69.3385 69.92 69.3385 69.472V65.952H67.7545ZM74.8693 64.32H76.7893V65.536H76.8213C77.0346 65.088 77.3386 64.7413 77.7333 64.496C78.1279 64.2507 78.5813 64.128 79.0933 64.128C79.2106 64.128 79.3226 64.1387 79.4293 64.16C79.5466 64.1813 79.6639 64.208 79.7813 64.24V66.096C79.6213 66.0533 79.4613 66.0213 79.3013 66C79.1519 65.968 79.0026 65.952 78.8533 65.952C78.4053 65.952 78.0426 66.0373 77.7653 66.208C77.4986 66.368 77.2906 66.5547 77.1413 66.768C77.0026 66.9813 76.9066 67.1947 76.8533 67.408C76.8106 67.6213 76.7893 67.7813 76.7893 67.888V72H74.8693V64.32ZM82.3428 68.832C82.4068 69.408 82.6308 69.856 83.0148 70.176C83.3988 70.496 83.8628 70.656 84.4068 70.656C84.8868 70.656 85.2868 70.56 85.6068 70.368C85.9374 70.1653 86.2254 69.9147 86.4708 69.616L87.8468 70.656C87.3988 71.2107 86.8974 71.6053 86.3428 71.84C85.7881 72.0747 85.2068 72.192 84.5988 72.192C84.0228 72.192 83.4788 72.096 82.9668 71.904C82.4548 71.712 82.0121 71.44 81.6388 71.088C81.2654 70.736 80.9668 70.3147 80.7428 69.824C80.5294 69.3227 80.4228 68.768 80.4228 68.16C80.4228 67.552 80.5294 67.0027 80.7428 66.512C80.9668 66.0107 81.2654 65.584 81.6388 65.232C82.0121 64.88 82.4548 64.608 82.9668 64.416C83.4788 64.224 84.0228 64.128 84.5988 64.128C85.1321 64.128 85.6174 64.224 86.0548 64.416C86.5028 64.5973 86.8814 64.864 87.1908 65.216C87.5108 65.568 87.7561 66.0053 87.9268 66.528C88.1081 67.04 88.1988 67.632 88.1988 68.304V68.832H82.3428ZM86.2788 67.392C86.2681 66.8267 86.0921 66.384 85.7508 66.064C85.4094 65.7333 84.9348 65.568 84.3268 65.568C83.7508 65.568 83.2921 65.7333 82.9508 66.064C82.6201 66.3947 82.4174 66.8373 82.3428 67.392H86.2788ZM107.065 72H100.473C99.5873 72 98.766 71.8667 98.0086 71.6C97.262 71.3227 96.6113 70.9333 96.0566 70.432C95.5126 69.92 95.0806 69.3013 94.7606 68.576C94.4513 67.84 94.2966 67.0133 94.2966 66.096C94.2966 65.264 94.4513 64.5013 94.7606 63.808C95.0806 63.104 95.5126 62.5013 96.0566 62C96.6006 61.488 97.23 61.0933 97.9446 60.816C98.67 60.528 99.438 60.384 100.249 60.384C101.059 60.384 101.822 60.528 102.537 60.816C103.262 61.0933 103.897 61.488 104.441 62C104.985 62.5013 105.411 63.104 105.721 63.808C106.041 64.5013 106.201 65.264 106.201 66.096C106.201 66.6933 106.126 67.2213 105.977 67.68C105.838 68.128 105.651 68.528 105.417 68.88C105.182 69.2213 104.921 69.5093 104.633 69.744C104.355 69.9787 104.083 70.176 103.817 70.336V70.368H107.065V72ZM100.201 62.208C99.6566 62.208 99.15 62.3093 98.6806 62.512C98.222 62.704 97.822 62.976 97.4806 63.328C97.15 63.68 96.8886 64.096 96.6966 64.576C96.5046 65.056 96.4086 65.5787 96.4086 66.144C96.4086 66.72 96.5046 67.2587 96.6966 67.76C96.8886 68.2507 97.1553 68.6773 97.4966 69.04C97.838 69.392 98.238 69.6693 98.6966 69.872C99.166 70.0747 99.678 70.176 100.233 70.176C100.787 70.176 101.299 70.0747 101.769 69.872C102.249 69.6693 102.659 69.392 103.001 69.04C103.342 68.6773 103.609 68.2507 103.801 67.76C103.993 67.2587 104.089 66.72 104.089 66.144C104.089 65.5787 103.993 65.056 103.801 64.576C103.609 64.096 103.342 63.68 103.001 63.328C102.659 62.976 102.249 62.704 101.769 62.512C101.299 62.3093 100.777 62.208 100.201 62.208ZM108.53 60.672H112.466C113.01 60.672 113.532 60.7253 114.034 60.832C114.546 60.928 114.999 61.0987 115.394 61.344C115.788 61.5893 116.103 61.92 116.338 62.336C116.572 62.752 116.69 63.28 116.69 63.92C116.69 64.7413 116.46 65.4293 116.002 65.984C115.554 66.5387 114.908 66.8747 114.066 66.992L117.074 72H114.642L112.018 67.2H110.546V72H108.53V60.672ZM112.114 65.472C112.402 65.472 112.69 65.4613 112.978 65.44C113.266 65.408 113.527 65.344 113.762 65.248C114.007 65.1413 114.204 64.9867 114.354 64.784C114.503 64.5707 114.578 64.2773 114.578 63.904C114.578 63.5733 114.508 63.3067 114.37 63.104C114.231 62.9013 114.05 62.752 113.826 62.656C113.602 62.5493 113.351 62.48 113.074 62.448C112.807 62.416 112.546 62.4 112.29 62.4H110.546V65.472H112.114ZM128.414 66.624C128.19 66.3893 127.955 66.2027 127.71 66.064C127.465 65.9253 127.214 65.856 126.958 65.856C126.606 65.856 126.291 65.92 126.014 66.048C125.737 66.176 125.497 66.3467 125.294 66.56C125.102 66.7733 124.953 67.0187 124.846 67.296C124.75 67.5733 124.702 67.8613 124.702 68.16C124.702 68.4587 124.75 68.7467 124.846 69.024C124.953 69.3013 125.102 69.5467 125.294 69.76C125.497 69.9733 125.737 70.144 126.014 70.272C126.291 70.4 126.606 70.464 126.958 70.464C127.257 70.464 127.534 70.4053 127.79 70.288C128.046 70.16 128.265 69.9787 128.446 69.744L129.726 71.12C129.534 71.312 129.31 71.4773 129.054 71.616C128.809 71.7547 128.558 71.8667 128.302 71.952C128.046 72.0373 127.801 72.096 127.566 72.128C127.331 72.1707 127.129 72.192 126.958 72.192C126.382 72.192 125.838 72.096 125.326 71.904C124.814 71.712 124.371 71.44 123.998 71.088C123.625 70.736 123.326 70.3147 123.102 69.824C122.889 69.3227 122.782 68.768 122.782 68.16C122.782 67.552 122.889 67.0027 123.102 66.512C123.326 66.0107 123.625 65.584 123.998 65.232C124.371 64.88 124.814 64.608 125.326 64.416C125.838 64.224 126.382 64.128 126.958 64.128C127.449 64.128 127.939 64.224 128.43 64.416C128.931 64.5973 129.369 64.8907 129.742 65.296L128.414 66.624ZM130.501 68.16C130.501 67.552 130.608 67.0027 130.821 66.512C131.045 66.0107 131.344 65.584 131.717 65.232C132.09 64.88 132.533 64.608 133.045 64.416C133.557 64.224 134.101 64.128 134.677 64.128C135.253 64.128 135.797 64.224 136.309 64.416C136.821 64.608 137.264 64.88 137.637 65.232C138.01 65.584 138.304 66.0107 138.517 66.512C138.741 67.0027 138.853 67.552 138.853 68.16C138.853 68.768 138.741 69.3227 138.517 69.824C138.304 70.3147 138.01 70.736 137.637 71.088C137.264 71.44 136.821 71.712 136.309 71.904C135.797 72.096 135.253 72.192 134.677 72.192C134.101 72.192 133.557 72.096 133.045 71.904C132.533 71.712 132.09 71.44 131.717 71.088C131.344 70.736 131.045 70.3147 130.821 69.824C130.608 69.3227 130.501 68.768 130.501 68.16ZM132.421 68.16C132.421 68.4587 132.469 68.7467 132.565 69.024C132.672 69.3013 132.821 69.5467 133.013 69.76C133.216 69.9733 133.456 70.144 133.733 70.272C134.01 70.4 134.325 70.464 134.677 70.464C135.029 70.464 135.344 70.4 135.621 70.272C135.898 70.144 136.133 69.9733 136.325 69.76C136.528 69.5467 136.677 69.3013 136.773 69.024C136.88 68.7467 136.933 68.4587 136.933 68.16C136.933 67.8613 136.88 67.5733 136.773 67.296C136.677 67.0187 136.528 66.7733 136.325 66.56C136.133 66.3467 135.898 66.176 135.621 66.048C135.344 65.92 135.029 65.856 134.677 65.856C134.325 65.856 134.01 65.92 133.733 66.048C133.456 66.176 133.216 66.3467 133.013 66.56C132.821 66.7733 132.672 67.0187 132.565 67.296C132.469 67.5733 132.421 67.8613 132.421 68.16ZM146.731 70.848H146.699C146.421 71.3173 146.048 71.6587 145.579 71.872C145.109 72.0853 144.603 72.192 144.059 72.192C143.461 72.192 142.928 72.0907 142.459 71.888C142 71.6747 141.605 71.3867 141.275 71.024C140.944 70.6613 140.693 70.2347 140.523 69.744C140.352 69.2533 140.267 68.7253 140.267 68.16C140.267 67.5947 140.357 67.0667 140.539 66.576C140.72 66.0853 140.971 65.6587 141.291 65.296C141.621 64.9333 142.016 64.6507 142.475 64.448C142.933 64.2347 143.435 64.128 143.979 64.128C144.341 64.128 144.661 64.1653 144.939 64.24C145.216 64.3147 145.461 64.4107 145.675 64.528C145.888 64.6453 146.069 64.7733 146.219 64.912C146.368 65.04 146.491 65.168 146.587 65.296H146.635V59.904H148.555V72H146.731V70.848ZM142.187 68.16C142.187 68.4587 142.235 68.7467 142.331 69.024C142.437 69.3013 142.587 69.5467 142.779 69.76C142.981 69.9733 143.221 70.144 143.499 70.272C143.776 70.4 144.091 70.464 144.443 70.464C144.795 70.464 145.109 70.4 145.387 70.272C145.664 70.144 145.899 69.9733 146.091 69.76C146.293 69.5467 146.443 69.3013 146.539 69.024C146.645 68.7467 146.699 68.4587 146.699 68.16C146.699 67.8613 146.645 67.5733 146.539 67.296C146.443 67.0187 146.293 66.7733 146.091 66.56C145.899 66.3467 145.664 66.176 145.387 66.048C145.109 65.92 144.795 65.856 144.443 65.856C144.091 65.856 143.776 65.92 143.499 66.048C143.221 66.176 142.981 66.3467 142.779 66.56C142.587 66.7733 142.437 67.0187 142.331 67.296C142.235 67.5733 142.187 67.8613 142.187 68.16ZM152.265 68.832C152.329 69.408 152.553 69.856 152.937 70.176C153.321 70.496 153.785 70.656 154.329 70.656C154.809 70.656 155.209 70.56 155.529 70.368C155.859 70.1653 156.147 69.9147 156.393 69.616L157.769 70.656C157.321 71.2107 156.819 71.6053 156.265 71.84C155.71 72.0747 155.129 72.192 154.521 72.192C153.945 72.192 153.401 72.096 152.889 71.904C152.377 71.712 151.934 71.44 151.561 71.088C151.187 70.736 150.889 70.3147 150.665 69.824C150.451 69.3227 150.345 68.768 150.345 68.16C150.345 67.552 150.451 67.0027 150.665 66.512C150.889 66.0107 151.187 65.584 151.561 65.232C151.934 64.88 152.377 64.608 152.889 64.416C153.401 64.224 153.945 64.128 154.521 64.128C155.054 64.128 155.539 64.224 155.977 64.416C156.425 64.5973 156.803 64.864 157.113 65.216C157.433 65.568 157.678 66.0053 157.849 66.528C158.03 67.04 158.121 67.632 158.121 68.304V68.832H152.265ZM156.201 67.392C156.19 66.8267 156.014 66.384 155.673 66.064C155.331 65.7333 154.857 65.568 154.249 65.568C153.673 65.568 153.214 65.7333 152.873 66.064C152.542 66.3947 152.339 66.8373 152.265 67.392H156.201Z" fill="#F3F3F4"/>
<path d="M296.794 62.6659C296.366 63.0617 296.366 63.7383 296.794 64.1341L300.973 68L296.794 71.8659C296.366 72.2617 296.366 72.9383 296.794 73.3341L296.834 73.3719C297.218 73.7264 297.809 73.7264 298.193 73.3719L303.206 68.7341C303.634 68.3383 303.634 67.6617 303.206 67.2659L298.193 62.6281C297.809 62.2736 297.218 62.2736 296.834 62.6281L296.794 62.6659Z" fill="#8DE8FE"/>
<rect y="104" width="328" height="56" rx="14" fill="#242B35"/>
<path d="M25.04 128.328C24.624 127.88 24.2187 127.581 23.824 127.432C23.44 127.283 23.0507 127.208 22.656 127.208C22.0693 127.208 21.536 127.315 21.056 127.528C20.5867 127.731 20.1813 128.019 19.84 128.392C19.4987 128.755 19.232 129.181 19.04 129.672C18.8587 130.163 18.768 130.691 18.768 131.256C18.768 131.864 18.8587 132.424 19.04 132.936C19.232 133.448 19.4987 133.891 19.84 134.264C20.1813 134.637 20.5867 134.931 21.056 135.144C21.536 135.357 22.0693 135.464 22.656 135.464C23.1147 135.464 23.5573 135.357 23.984 135.144C24.4213 134.92 24.8267 134.568 25.2 134.088L26.864 135.272C26.352 135.976 25.728 136.488 24.992 136.808C24.256 137.128 23.472 137.288 22.64 137.288C21.7653 137.288 20.96 137.149 20.224 136.872C19.4987 136.584 18.8693 136.184 18.336 135.672C17.8133 135.149 17.4027 134.525 17.104 133.8C16.8053 133.075 16.656 132.269 16.656 131.384C16.656 130.477 16.8053 129.656 17.104 128.92C17.4027 128.173 17.8133 127.539 18.336 127.016C18.8693 126.493 19.4987 126.093 20.224 125.816C20.96 125.528 21.7653 125.384 22.64 125.384C23.408 125.384 24.1173 125.523 24.768 125.8C25.4293 126.067 26.0427 126.525 26.608 127.176L25.04 128.328ZM32.8411 135.944H32.7931C32.5158 136.381 32.1638 136.701 31.7371 136.904C31.3105 137.096 30.8411 137.192 30.3291 137.192C29.9771 137.192 29.6305 137.144 29.2891 137.048C28.9585 136.952 28.6598 136.808 28.3931 136.616C28.1371 136.424 27.9291 136.184 27.7691 135.896C27.6091 135.608 27.5291 135.272 27.5291 134.888C27.5291 134.472 27.6038 134.12 27.7531 133.832C27.9025 133.533 28.0998 133.288 28.3451 133.096C28.6011 132.893 28.8945 132.733 29.2251 132.616C29.5558 132.499 29.8971 132.413 30.2491 132.36C30.6118 132.296 30.9745 132.259 31.3371 132.248C31.6998 132.227 32.0411 132.216 32.3611 132.216H32.8411V132.008C32.8411 131.528 32.6758 131.171 32.3451 130.936C32.0145 130.691 31.5931 130.568 31.0811 130.568C30.6758 130.568 30.2971 130.643 29.9451 130.792C29.5931 130.931 29.2891 131.123 29.0331 131.368L28.0251 130.36C28.4518 129.923 28.9478 129.608 29.5131 129.416C30.0891 129.224 30.6811 129.128 31.2891 129.128C31.8331 129.128 32.2918 129.192 32.6651 129.32C33.0385 129.437 33.3478 129.592 33.5931 129.784C33.8385 129.976 34.0251 130.2 34.1531 130.456C34.2918 130.701 34.3878 130.952 34.4411 131.208C34.5051 131.464 34.5425 131.715 34.5531 131.96C34.5638 132.195 34.5691 132.403 34.5691 132.584V137H32.8411V135.944ZM32.7291 133.56H32.3291C32.0625 133.56 31.7638 133.571 31.4331 133.592C31.1025 133.613 30.7878 133.667 30.4891 133.752C30.2011 133.827 29.9558 133.944 29.7531 134.104C29.5505 134.253 29.4491 134.467 29.4491 134.744C29.4491 134.925 29.4865 135.08 29.5611 135.208C29.6465 135.325 29.7531 135.427 29.8811 135.512C30.0091 135.597 30.1531 135.661 30.3131 135.704C30.4731 135.736 30.6331 135.752 30.7931 135.752C31.4545 135.752 31.9398 135.597 32.2491 135.288C32.5691 134.968 32.7291 134.536 32.7291 133.992V133.56ZM36.6349 129.32H38.5549V130.536H38.5869C38.8002 130.088 39.1042 129.741 39.4989 129.496C39.8935 129.251 40.3469 129.128 40.8589 129.128C40.9762 129.128 41.0882 129.139 41.1949 129.16C41.3122 129.181 41.4295 129.208 41.5469 129.24V131.096C41.3869 131.053 41.2269 131.021 41.0669 131C40.9175 130.968 40.7682 130.952 40.6189 130.952C40.1709 130.952 39.8082 131.037 39.5309 131.208C39.2642 131.368 39.0562 131.555 38.9069 131.768C38.7682 131.981 38.6722 132.195 38.6189 132.408C38.5762 132.621 38.5549 132.781 38.5549 132.888V137H36.6349V129.32ZM41.9576 130.952V129.32H43.5416V127.096H45.4616V129.32H47.5736V130.952H45.4616V134.312C45.4616 134.696 45.531 135 45.6696 135.224C45.819 135.448 46.107 135.56 46.5336 135.56C46.7043 135.56 46.891 135.544 47.0936 135.512C47.2963 135.469 47.4563 135.405 47.5736 135.32V136.936C47.371 137.032 47.1203 137.096 46.8216 137.128C46.5336 137.171 46.2776 137.192 46.0536 137.192C45.5416 137.192 45.1203 137.133 44.7896 137.016C44.4696 136.909 44.2136 136.744 44.0216 136.52C43.8403 136.285 43.7123 135.997 43.6376 135.656C43.5736 135.315 43.5416 134.92 43.5416 134.472V130.952H41.9576ZM50.6084 133.832C50.6724 134.408 50.8964 134.856 51.2804 135.176C51.6644 135.496 52.1284 135.656 52.6724 135.656C53.1524 135.656 53.5524 135.56 53.8724 135.368C54.203 135.165 54.491 134.915 54.7364 134.616L56.1124 135.656C55.6644 136.211 55.163 136.605 54.6084 136.84C54.0537 137.075 53.4724 137.192 52.8644 137.192C52.2884 137.192 51.7444 137.096 51.2324 136.904C50.7204 136.712 50.2777 136.44 49.9044 136.088C49.531 135.736 49.2324 135.315 49.0084 134.824C48.795 134.323 48.6884 133.768 48.6884 133.16C48.6884 132.552 48.795 132.003 49.0084 131.512C49.2324 131.011 49.531 130.584 49.9044 130.232C50.2777 129.88 50.7204 129.608 51.2324 129.416C51.7444 129.224 52.2884 129.128 52.8644 129.128C53.3977 129.128 53.883 129.224 54.3204 129.416C54.7684 129.597 55.147 129.864 55.4564 130.216C55.7764 130.568 56.0217 131.005 56.1924 131.528C56.3737 132.04 56.4644 132.632 56.4644 133.304V133.832H50.6084ZM54.5444 132.392C54.5337 131.827 54.3577 131.384 54.0164 131.064C53.675 130.733 53.2004 130.568 52.5924 130.568C52.0164 130.568 51.5577 130.733 51.2164 131.064C50.8857 131.395 50.683 131.837 50.6084 132.392H54.5444ZM62.3559 131.448C61.9825 130.925 61.4812 130.664 60.8519 130.664C60.5959 130.664 60.3452 130.728 60.0999 130.856C59.8545 130.984 59.7319 131.192 59.7319 131.48C59.7319 131.715 59.8332 131.885 60.0359 131.992C60.2385 132.099 60.4945 132.189 60.8039 132.264C61.1132 132.339 61.4439 132.419 61.7959 132.504C62.1585 132.579 62.4945 132.701 62.8039 132.872C63.1132 133.032 63.3692 133.256 63.5719 133.544C63.7745 133.832 63.8759 134.227 63.8759 134.728C63.8759 135.187 63.7745 135.576 63.5719 135.896C63.3799 136.205 63.1239 136.456 62.8039 136.648C62.4945 136.84 62.1425 136.979 61.7479 137.064C61.3532 137.149 60.9585 137.192 60.5639 137.192C59.9665 137.192 59.4172 137.107 58.9159 136.936C58.4145 136.765 57.9665 136.456 57.5719 136.008L58.8519 134.808C59.0972 135.085 59.3585 135.315 59.6359 135.496C59.9239 135.667 60.2705 135.752 60.6759 135.752C60.8145 135.752 60.9585 135.736 61.1079 135.704C61.2572 135.672 61.3959 135.619 61.5239 135.544C61.6519 135.469 61.7532 135.379 61.8279 135.272C61.9132 135.155 61.9559 135.021 61.9559 134.872C61.9559 134.605 61.8545 134.408 61.6519 134.28C61.4492 134.152 61.1932 134.051 60.8839 133.976C60.5745 133.891 60.2385 133.816 59.8759 133.752C59.5239 133.677 59.1932 133.565 58.8839 133.416C58.5745 133.256 58.3185 133.037 58.1159 132.76C57.9132 132.483 57.8119 132.099 57.8119 131.608C57.8119 131.181 57.8972 130.813 58.0679 130.504C58.2492 130.184 58.4839 129.923 58.7719 129.72C59.0599 129.517 59.3905 129.368 59.7639 129.272C60.1372 129.176 60.5159 129.128 60.8999 129.128C61.4119 129.128 61.9185 129.219 62.4199 129.4C62.9212 129.571 63.3265 129.869 63.6359 130.296L62.3559 131.448ZM71.6396 133.832C71.7036 134.408 71.9276 134.856 72.3116 135.176C72.6956 135.496 73.1596 135.656 73.7036 135.656C74.1836 135.656 74.5836 135.56 74.9036 135.368C75.2343 135.165 75.5223 134.915 75.7676 134.616L77.1436 135.656C76.6956 136.211 76.1943 136.605 75.6396 136.84C75.085 137.075 74.5036 137.192 73.8956 137.192C73.3196 137.192 72.7756 137.096 72.2636 136.904C71.7516 136.712 71.309 136.44 70.9356 136.088C70.5623 135.736 70.2636 135.315 70.0396 134.824C69.8263 134.323 69.7196 133.768 69.7196 133.16C69.7196 132.552 69.8263 132.003 70.0396 131.512C70.2636 131.011 70.5623 130.584 70.9356 130.232C71.309 129.88 71.7516 129.608 72.2636 129.416C72.7756 129.224 73.3196 129.128 73.8956 129.128C74.429 129.128 74.9143 129.224 75.3516 129.416C75.7996 129.597 76.1783 129.864 76.4876 130.216C76.8076 130.568 77.053 131.005 77.2236 131.528C77.405 132.04 77.4956 132.632 77.4956 133.304V133.832H71.6396ZM75.5756 132.392C75.565 131.827 75.389 131.384 75.0476 131.064C74.7063 130.733 74.2316 130.568 73.6236 130.568C73.0476 130.568 72.589 130.733 72.2476 131.064C71.917 131.395 71.7143 131.837 71.6396 132.392H75.5756ZM78.3951 130.952V129.32H79.9791V127.096H81.8991V129.32H84.0111V130.952H81.8991V134.312C81.8991 134.696 81.9685 135 82.1071 135.224C82.2565 135.448 82.5445 135.56 82.9711 135.56C83.1418 135.56 83.3285 135.544 83.5311 135.512C83.7338 135.469 83.8938 135.405 84.0111 135.32V136.936C83.8085 137.032 83.5578 137.096 83.2591 137.128C82.9711 137.171 82.7151 137.192 82.4911 137.192C81.9791 137.192 81.5578 137.133 81.2271 137.016C80.9071 136.909 80.6511 136.744 80.4591 136.52C80.2778 136.285 80.1498 135.997 80.0751 135.656C80.0111 135.315 79.9791 134.92 79.9791 134.472V130.952H78.3951ZM90.2443 129.32H92.0683V130.472H92.1003C92.3776 130.003 92.7509 129.661 93.2203 129.448C93.6896 129.235 94.1963 129.128 94.7403 129.128C95.3269 129.128 95.8549 129.235 96.3243 129.448C96.7936 129.651 97.1936 129.933 97.5243 130.296C97.8549 130.659 98.1056 131.085 98.2763 131.576C98.4469 132.067 98.5323 132.595 98.5323 133.16C98.5323 133.725 98.4416 134.253 98.2603 134.744C98.0789 135.235 97.8229 135.661 97.4923 136.024C97.1723 136.387 96.7829 136.675 96.3243 136.888C95.8656 137.091 95.3643 137.192 94.8203 137.192C94.4576 137.192 94.1376 137.155 93.8602 137.08C93.5829 137.005 93.3376 136.909 93.1243 136.792C92.9109 136.675 92.7296 136.552 92.5803 136.424C92.4309 136.285 92.3083 136.152 92.2123 136.024H92.1643V140.648H90.2443V129.32ZM96.6123 133.16C96.6123 132.861 96.5589 132.573 96.4523 132.296C96.3563 132.019 96.2069 131.773 96.0043 131.56C95.8123 131.347 95.5776 131.176 95.3003 131.048C95.0229 130.92 94.7083 130.856 94.3563 130.856C94.0043 130.856 93.6896 130.92 93.4123 131.048C93.1349 131.176 92.8949 131.347 92.6923 131.56C92.5003 131.773 92.3509 132.019 92.2443 132.296C92.1483 132.573 92.1003 132.861 92.1003 133.16C92.1003 133.459 92.1483 133.747 92.2443 134.024C92.3509 134.301 92.5003 134.547 92.6923 134.76C92.8949 134.973 93.1349 135.144 93.4123 135.272C93.6896 135.4 94.0043 135.464 94.3563 135.464C94.7083 135.464 95.0229 135.4 95.3003 135.272C95.5776 135.144 95.8123 134.973 96.0043 134.76C96.2069 134.547 96.3563 134.301 96.4523 134.024C96.5589 133.747 96.6123 133.459 96.6123 133.16ZM100.322 129.32H102.242V130.536H102.274C102.488 130.088 102.792 129.741 103.186 129.496C103.581 129.251 104.034 129.128 104.546 129.128C104.664 129.128 104.776 129.139 104.882 129.16C105 129.181 105.117 129.208 105.234 129.24V131.096C105.074 131.053 104.914 131.021 104.754 131C104.605 130.968 104.456 130.952 104.306 130.952C103.858 130.952 103.496 131.037 103.218 131.208C102.952 131.368 102.744 131.555 102.594 131.768C102.456 131.981 102.36 132.195 102.306 132.408C102.264 132.621 102.242 132.781 102.242 132.888V137H100.322V129.32ZM105.876 133.16C105.876 132.552 105.983 132.003 106.196 131.512C106.42 131.011 106.719 130.584 107.092 130.232C107.465 129.88 107.908 129.608 108.42 129.416C108.932 129.224 109.476 129.128 110.052 129.128C110.628 129.128 111.172 129.224 111.684 129.416C112.196 129.608 112.639 129.88 113.012 130.232C113.385 130.584 113.679 131.011 113.892 131.512C114.116 132.003 114.228 132.552 114.228 133.16C114.228 133.768 114.116 134.323 113.892 134.824C113.679 135.315 113.385 135.736 113.012 136.088C112.639 136.44 112.196 136.712 111.684 136.904C111.172 137.096 110.628 137.192 110.052 137.192C109.476 137.192 108.932 137.096 108.42 136.904C107.908 136.712 107.465 136.44 107.092 136.088C106.719 135.736 106.42 135.315 106.196 134.824C105.983 134.323 105.876 133.768 105.876 133.16ZM107.796 133.16C107.796 133.459 107.844 133.747 107.94 134.024C108.047 134.301 108.196 134.547 108.388 134.76C108.591 134.973 108.831 135.144 109.108 135.272C109.385 135.4 109.7 135.464 110.052 135.464C110.404 135.464 110.719 135.4 110.996 135.272C111.273 135.144 111.508 134.973 111.7 134.76C111.903 134.547 112.052 134.301 112.148 134.024C112.255 133.747 112.308 133.459 112.308 133.16C112.308 132.861 112.255 132.573 112.148 132.296C112.052 132.019 111.903 131.773 111.7 131.56C111.508 131.347 111.273 131.176 110.996 131.048C110.719 130.92 110.404 130.856 110.052 130.856C109.7 130.856 109.385 130.92 109.108 131.048C108.831 131.176 108.591 131.347 108.388 131.56C108.196 131.773 108.047 132.019 107.94 132.296C107.844 132.573 107.796 132.861 107.796 133.16ZM123.93 129.32V136.312C123.93 137.005 123.844 137.629 123.674 138.184C123.503 138.749 123.236 139.224 122.874 139.608C122.522 140.003 122.074 140.307 121.53 140.52C120.986 140.733 120.34 140.84 119.594 140.84C118.879 140.84 118.202 140.749 117.562 140.568C116.922 140.387 116.33 140.056 115.786 139.576L116.938 138.008C117.322 138.36 117.722 138.632 118.138 138.824C118.554 139.016 119.034 139.112 119.578 139.112C120.036 139.112 120.42 139.048 120.73 138.92C121.05 138.792 121.3 138.616 121.482 138.392C121.674 138.168 121.807 137.896 121.882 137.576C121.967 137.267 122.01 136.92 122.01 136.536V135.976H121.978C121.7 136.349 121.332 136.632 120.874 136.824C120.415 137.005 119.946 137.096 119.466 137.096C118.89 137.096 118.367 136.995 117.898 136.792C117.428 136.579 117.023 136.296 116.682 135.944C116.351 135.592 116.095 135.176 115.914 134.696C115.732 134.216 115.642 133.704 115.642 133.16C115.642 132.595 115.727 132.067 115.898 131.576C116.068 131.085 116.319 130.659 116.65 130.296C116.98 129.933 117.375 129.651 117.834 129.448C118.303 129.235 118.836 129.128 119.434 129.128C119.978 129.128 120.484 129.235 120.954 129.448C121.423 129.661 121.796 130.003 122.074 130.472H122.106V129.32H123.93ZM119.834 130.856C119.492 130.856 119.183 130.915 118.906 131.032C118.628 131.139 118.388 131.293 118.186 131.496C117.994 131.688 117.839 131.928 117.722 132.216C117.615 132.493 117.562 132.803 117.562 133.144C117.562 133.453 117.615 133.741 117.722 134.008C117.839 134.275 117.999 134.509 118.202 134.712C118.404 134.915 118.644 135.075 118.922 135.192C119.199 135.309 119.498 135.368 119.818 135.368C120.17 135.368 120.484 135.309 120.762 135.192C121.05 135.075 121.29 134.92 121.482 134.728C121.684 134.525 121.839 134.285 121.946 134.008C122.052 133.731 122.106 133.432 122.106 133.112C122.106 132.44 121.903 131.896 121.498 131.48C121.092 131.064 120.538 130.856 119.834 130.856ZM126.104 129.32H128.024V130.536H128.056C128.269 130.088 128.573 129.741 128.968 129.496C129.362 129.251 129.816 129.128 130.328 129.128C130.445 129.128 130.557 129.139 130.664 129.16C130.781 129.181 130.898 129.208 131.016 129.24V131.096C130.856 131.053 130.696 131.021 130.536 131C130.386 130.968 130.237 130.952 130.088 130.952C129.64 130.952 129.277 131.037 129 131.208C128.733 131.368 128.525 131.555 128.376 131.768C128.237 131.981 128.141 132.195 128.088 132.408C128.045 132.621 128.024 132.781 128.024 132.888V137H126.104V129.32ZM137.122 135.944H137.074C136.797 136.381 136.445 136.701 136.018 136.904C135.592 137.096 135.122 137.192 134.61 137.192C134.258 137.192 133.912 137.144 133.57 137.048C133.24 136.952 132.941 136.808 132.674 136.616C132.418 136.424 132.21 136.184 132.05 135.896C131.89 135.608 131.81 135.272 131.81 134.888C131.81 134.472 131.885 134.12 132.034 133.832C132.184 133.533 132.381 133.288 132.626 133.096C132.882 132.893 133.176 132.733 133.506 132.616C133.837 132.499 134.178 132.413 134.53 132.36C134.893 132.296 135.256 132.259 135.618 132.248C135.981 132.227 136.322 132.216 136.642 132.216H137.122V132.008C137.122 131.528 136.957 131.171 136.626 130.936C136.296 130.691 135.874 130.568 135.362 130.568C134.957 130.568 134.578 130.643 134.226 130.792C133.874 130.931 133.57 131.123 133.314 131.368L132.306 130.36C132.733 129.923 133.229 129.608 133.794 129.416C134.37 129.224 134.962 129.128 135.57 129.128C136.114 129.128 136.573 129.192 136.946 129.32C137.32 129.437 137.629 129.592 137.874 129.784C138.12 129.976 138.306 130.2 138.434 130.456C138.573 130.701 138.669 130.952 138.722 131.208C138.786 131.464 138.824 131.715 138.834 131.96C138.845 132.195 138.85 132.403 138.85 132.584V137H137.122V135.944ZM137.01 133.56H136.61C136.344 133.56 136.045 133.571 135.714 133.592C135.384 133.613 135.069 133.667 134.77 133.752C134.482 133.827 134.237 133.944 134.034 134.104C133.832 134.253 133.73 134.467 133.73 134.744C133.73 134.925 133.768 135.08 133.842 135.208C133.928 135.325 134.034 135.427 134.162 135.512C134.29 135.597 134.434 135.661 134.594 135.704C134.754 135.736 134.914 135.752 135.074 135.752C135.736 135.752 136.221 135.597 136.53 135.288C136.85 134.968 137.01 134.536 137.01 133.992V133.56ZM140.836 129.32H142.66V130.52H142.692C142.863 130.157 143.135 129.837 143.508 129.56C143.892 129.272 144.404 129.128 145.044 129.128C146.249 129.128 147.049 129.603 147.444 130.552C147.721 130.061 148.068 129.704 148.484 129.48C148.9 129.245 149.396 129.128 149.972 129.128C150.484 129.128 150.916 129.213 151.268 129.384C151.62 129.555 151.903 129.789 152.116 130.088C152.34 130.387 152.5 130.739 152.596 131.144C152.692 131.539 152.74 131.965 152.74 132.424V137H150.82V132.648C150.82 132.413 150.799 132.189 150.756 131.976C150.713 131.752 150.639 131.56 150.532 131.4C150.425 131.229 150.281 131.096 150.1 131C149.919 130.904 149.684 130.856 149.396 130.856C149.097 130.856 148.841 130.915 148.628 131.032C148.425 131.139 148.255 131.288 148.116 131.48C147.988 131.661 147.892 131.875 147.828 132.12C147.775 132.355 147.748 132.595 147.748 132.84V137H145.828V132.424C145.828 131.944 145.727 131.565 145.524 131.288C145.321 131 144.985 130.856 144.516 130.856C144.196 130.856 143.924 130.909 143.7 131.016C143.487 131.123 143.305 131.267 143.156 131.448C143.017 131.629 142.916 131.837 142.852 132.072C142.788 132.307 142.756 132.552 142.756 132.808V137H140.836V129.32ZM154.758 129.32H156.582V130.52H156.614C156.785 130.157 157.057 129.837 157.43 129.56C157.814 129.272 158.326 129.128 158.966 129.128C160.171 129.128 160.971 129.603 161.366 130.552C161.643 130.061 161.99 129.704 162.406 129.48C162.822 129.245 163.318 129.128 163.894 129.128C164.406 129.128 164.838 129.213 165.19 129.384C165.542 129.555 165.825 129.789 166.038 130.088C166.262 130.387 166.422 130.739 166.518 131.144C166.614 131.539 166.662 131.965 166.662 132.424V137H164.742V132.648C164.742 132.413 164.721 132.189 164.678 131.976C164.635 131.752 164.561 131.56 164.454 131.4C164.347 131.229 164.203 131.096 164.022 131C163.841 130.904 163.606 130.856 163.318 130.856C163.019 130.856 162.763 130.915 162.55 131.032C162.347 131.139 162.177 131.288 162.038 131.48C161.91 131.661 161.814 131.875 161.75 132.12C161.697 132.355 161.67 132.595 161.67 132.84V137H159.75V132.424C159.75 131.944 159.649 131.565 159.446 131.288C159.243 131 158.907 130.856 158.438 130.856C158.118 130.856 157.846 130.909 157.622 131.016C157.409 131.123 157.227 131.267 157.078 131.448C156.939 131.629 156.838 131.837 156.774 132.072C156.71 132.307 156.678 132.552 156.678 132.808V137H154.758V129.32ZM170.296 133.832C170.36 134.408 170.584 134.856 170.968 135.176C171.352 135.496 171.816 135.656 172.36 135.656C172.84 135.656 173.24 135.56 173.56 135.368C173.891 135.165 174.179 134.915 174.424 134.616L175.8 135.656C175.352 136.211 174.851 136.605 174.296 136.84C173.741 137.075 173.16 137.192 172.552 137.192C171.976 137.192 171.432 137.096 170.92 136.904C170.408 136.712 169.965 136.44 169.592 136.088C169.219 135.736 168.92 135.315 168.696 134.824C168.483 134.323 168.376 133.768 168.376 133.16C168.376 132.552 168.483 132.003 168.696 131.512C168.92 131.011 169.219 130.584 169.592 130.232C169.965 129.88 170.408 129.608 170.92 129.416C171.432 129.224 171.976 129.128 172.552 129.128C173.085 129.128 173.571 129.224 174.008 129.416C174.456 129.597 174.835 129.864 175.144 130.216C175.464 130.568 175.709 131.005 175.88 131.528C176.061 132.04 176.152 132.632 176.152 133.304V133.832H170.296ZM174.232 132.392C174.221 131.827 174.045 131.384 173.704 131.064C173.363 130.733 172.888 130.568 172.28 130.568C171.704 130.568 171.245 130.733 170.904 131.064C170.573 131.395 170.371 131.837 170.296 132.392H174.232ZM182.043 131.448C181.67 130.925 181.169 130.664 180.539 130.664C180.283 130.664 180.033 130.728 179.787 130.856C179.542 130.984 179.419 131.192 179.419 131.48C179.419 131.715 179.521 131.885 179.723 131.992C179.926 132.099 180.182 132.189 180.491 132.264C180.801 132.339 181.131 132.419 181.483 132.504C181.846 132.579 182.182 132.701 182.491 132.872C182.801 133.032 183.057 133.256 183.259 133.544C183.462 133.832 183.563 134.227 183.563 134.728C183.563 135.187 183.462 135.576 183.259 135.896C183.067 136.205 182.811 136.456 182.491 136.648C182.182 136.84 181.83 136.979 181.435 137.064C181.041 137.149 180.646 137.192 180.251 137.192C179.654 137.192 179.105 137.107 178.603 136.936C178.102 136.765 177.654 136.456 177.259 136.008L178.539 134.808C178.785 135.085 179.046 135.315 179.323 135.496C179.611 135.667 179.958 135.752 180.363 135.752C180.502 135.752 180.646 135.736 180.795 135.704C180.945 135.672 181.083 135.619 181.211 135.544C181.339 135.469 181.441 135.379 181.515 135.272C181.601 135.155 181.643 135.021 181.643 134.872C181.643 134.605 181.542 134.408 181.339 134.28C181.137 134.152 180.881 134.051 180.571 133.976C180.262 133.891 179.926 133.816 179.563 133.752C179.211 133.677 178.881 133.565 178.571 133.416C178.262 133.256 178.006 133.037 177.803 132.76C177.601 132.483 177.499 132.099 177.499 131.608C177.499 131.181 177.585 130.813 177.755 130.504C177.937 130.184 178.171 129.923 178.459 129.72C178.747 129.517 179.078 129.368 179.451 129.272C179.825 129.176 180.203 129.128 180.587 129.128C181.099 129.128 181.606 129.219 182.107 129.4C182.609 129.571 183.014 129.869 183.323 130.296L182.043 131.448ZM195.871 135.848H195.839C195.562 136.317 195.188 136.659 194.719 136.872C194.25 137.085 193.743 137.192 193.199 137.192C192.602 137.192 192.068 137.091 191.599 136.888C191.14 136.675 190.746 136.387 190.415 136.024C190.084 135.661 189.834 135.235 189.663 134.744C189.492 134.253 189.407 133.725 189.407 133.16C189.407 132.595 189.498 132.067 189.679 131.576C189.86 131.085 190.111 130.659 190.431 130.296C190.762 129.933 191.156 129.651 191.615 129.448C192.074 129.235 192.575 129.128 193.119 129.128C193.482 129.128 193.802 129.165 194.079 129.24C194.356 129.315 194.602 129.411 194.815 129.528C195.028 129.645 195.21 129.773 195.359 129.912C195.508 130.04 195.631 130.168 195.727 130.296H195.775V124.904H197.695V137H195.871V135.848ZM191.327 133.16C191.327 133.459 191.375 133.747 191.471 134.024C191.578 134.301 191.727 134.547 191.919 134.76C192.122 134.973 192.362 135.144 192.639 135.272C192.916 135.4 193.231 135.464 193.583 135.464C193.935 135.464 194.25 135.4 194.527 135.272C194.804 135.144 195.039 134.973 195.231 134.76C195.434 134.547 195.583 134.301 195.679 134.024C195.786 133.747 195.839 133.459 195.839 133.16C195.839 132.861 195.786 132.573 195.679 132.296C195.583 132.019 195.434 131.773 195.231 131.56C195.039 131.347 194.804 131.176 194.527 131.048C194.25 130.92 193.935 130.856 193.583 130.856C193.231 130.856 192.916 130.92 192.639 131.048C192.362 131.176 192.122 131.347 191.919 131.56C191.727 131.773 191.578 132.019 191.471 132.296C191.375 132.573 191.327 132.861 191.327 133.16ZM201.405 133.832C201.469 134.408 201.693 134.856 202.077 135.176C202.461 135.496 202.925 135.656 203.469 135.656C203.949 135.656 204.349 135.56 204.669 135.368C205 135.165 205.288 134.915 205.533 134.616L206.909 135.656C206.461 136.211 205.96 136.605 205.405 136.84C204.851 137.075 204.269 137.192 203.661 137.192C203.085 137.192 202.541 137.096 202.029 136.904C201.517 136.712 201.075 136.44 200.701 136.088C200.328 135.736 200.029 135.315 199.805 134.824C199.592 134.323 199.485 133.768 199.485 133.16C199.485 132.552 199.592 132.003 199.805 131.512C200.029 131.011 200.328 130.584 200.701 130.232C201.075 129.88 201.517 129.608 202.029 129.416C202.541 129.224 203.085 129.128 203.661 129.128C204.195 129.128 204.68 129.224 205.117 129.416C205.565 129.597 205.944 129.864 206.253 130.216C206.573 130.568 206.819 131.005 206.989 131.528C207.171 132.04 207.261 132.632 207.261 133.304V133.832H201.405ZM205.341 132.392C205.331 131.827 205.155 131.384 204.813 131.064C204.472 130.733 203.997 130.568 203.389 130.568C202.813 130.568 202.355 130.733 202.013 131.064C201.683 131.395 201.48 131.837 201.405 132.392H205.341ZM214.479 130.952H212.895V129.32H214.479V128.232C214.479 127.699 214.516 127.219 214.591 126.792C214.666 126.355 214.804 125.981 215.007 125.672C215.22 125.363 215.514 125.128 215.887 124.968C216.26 124.797 216.746 124.712 217.343 124.712C217.78 124.712 218.186 124.749 218.559 124.824L218.431 126.456C218.292 126.424 218.159 126.397 218.031 126.376C217.903 126.355 217.77 126.344 217.631 126.344C217.364 126.344 217.151 126.387 216.991 126.472C216.831 126.557 216.703 126.675 216.607 126.824C216.522 126.963 216.463 127.128 216.431 127.32C216.41 127.512 216.399 127.715 216.399 127.928V129.32H218.175V130.952H216.399V137H214.479V130.952ZM219.423 129.32H221.343V137H219.423V129.32ZM219.167 126.712C219.167 126.403 219.279 126.136 219.503 125.912C219.738 125.677 220.031 125.56 220.383 125.56C220.735 125.56 221.028 125.672 221.263 125.896C221.508 126.109 221.631 126.381 221.631 126.712C221.631 127.043 221.508 127.32 221.263 127.544C221.028 127.757 220.735 127.864 220.383 127.864C220.031 127.864 219.738 127.752 219.503 127.528C219.279 127.293 219.167 127.021 219.167 126.712ZM229.356 135.848H229.324C229.046 136.317 228.673 136.659 228.204 136.872C227.734 137.085 227.228 137.192 226.684 137.192C226.086 137.192 225.553 137.091 225.084 136.888C224.625 136.675 224.23 136.387 223.9 136.024C223.569 135.661 223.318 135.235 223.148 134.744C222.977 134.253 222.892 133.725 222.892 133.16C222.892 132.595 222.982 132.067 223.164 131.576C223.345 131.085 223.596 130.659 223.916 130.296C224.246 129.933 224.641 129.651 225.1 129.448C225.558 129.235 226.06 129.128 226.604 129.128C226.966 129.128 227.286 129.165 227.564 129.24C227.841 129.315 228.086 129.411 228.3 129.528C228.513 129.645 228.694 129.773 228.844 129.912C228.993 130.04 229.116 130.168 229.212 130.296H229.26V124.904H231.18V137H229.356V135.848ZM224.812 133.16C224.812 133.459 224.86 133.747 224.956 134.024C225.062 134.301 225.212 134.547 225.404 134.76C225.606 134.973 225.846 135.144 226.124 135.272C226.401 135.4 226.716 135.464 227.068 135.464C227.42 135.464 227.734 135.4 228.012 135.272C228.289 135.144 228.524 134.973 228.716 134.76C228.918 134.547 229.068 134.301 229.164 134.024C229.27 133.747 229.324 133.459 229.324 133.16C229.324 132.861 229.27 132.573 229.164 132.296C229.068 132.019 228.918 131.773 228.716 131.56C228.524 131.347 228.289 131.176 228.012 131.048C227.734 130.92 227.42 130.856 227.068 130.856C226.716 130.856 226.401 130.92 226.124 131.048C225.846 131.176 225.606 131.347 225.404 131.56C225.212 131.773 225.062 132.019 224.956 132.296C224.86 132.573 224.812 132.861 224.812 133.16ZM234.89 133.832C234.954 134.408 235.178 134.856 235.562 135.176C235.946 135.496 236.41 135.656 236.954 135.656C237.434 135.656 237.834 135.56 238.154 135.368C238.484 135.165 238.772 134.915 239.018 134.616L240.394 135.656C239.946 136.211 239.444 136.605 238.89 136.84C238.335 137.075 237.754 137.192 237.146 137.192C236.57 137.192 236.026 137.096 235.514 136.904C235.002 136.712 234.559 136.44 234.186 136.088C233.812 135.736 233.514 135.315 233.29 134.824C233.076 134.323 232.97 133.768 232.97 133.16C232.97 132.552 233.076 132.003 233.29 131.512C233.514 131.011 233.812 130.584 234.186 130.232C234.559 129.88 235.002 129.608 235.514 129.416C236.026 129.224 236.57 129.128 237.146 129.128C237.679 129.128 238.164 129.224 238.602 129.416C239.05 129.597 239.428 129.864 239.738 130.216C240.058 130.568 240.303 131.005 240.474 131.528C240.655 132.04 240.746 132.632 240.746 133.304V133.832H234.89ZM238.826 132.392C238.815 131.827 238.639 131.384 238.298 131.064C237.956 130.733 237.482 130.568 236.874 130.568C236.298 130.568 235.839 130.733 235.498 131.064C235.167 131.395 234.964 131.837 234.89 132.392H238.826ZM237.69 125.672H239.866L237.61 127.976H236.106L237.69 125.672ZM242.573 124.904H244.493V137H242.573V124.904ZM246.745 129.32H248.665V137H246.745V129.32ZM246.473 126.712C246.473 126.403 246.585 126.136 246.809 125.912C247.044 125.677 247.337 125.56 247.689 125.56C248.041 125.56 248.334 125.672 248.569 125.896C248.814 126.109 248.937 126.381 248.937 126.712C248.937 127.043 248.814 127.32 248.569 127.544C248.334 127.757 248.041 127.864 247.689 127.864C247.337 127.864 247.044 127.752 246.809 127.528C246.585 127.293 246.473 127.021 246.473 126.712ZM249.973 130.952V129.32H251.557V127.096H253.477V129.32H255.589V130.952H253.477V134.312C253.477 134.696 253.547 135 253.685 135.224C253.835 135.448 254.123 135.56 254.549 135.56C254.72 135.56 254.907 135.544 255.109 135.512C255.312 135.469 255.472 135.405 255.589 135.32V136.936C255.387 137.032 255.136 137.096 254.837 137.128C254.549 137.171 254.293 137.192 254.069 137.192C253.557 137.192 253.136 137.133 252.805 137.016C252.485 136.909 252.229 136.744 252.037 136.52C251.856 136.285 251.728 135.997 251.653 135.656C251.589 135.315 251.557 134.92 251.557 134.472V130.952H249.973ZM258.624 133.832C258.688 134.408 258.912 134.856 259.296 135.176C259.68 135.496 260.144 135.656 260.688 135.656C261.168 135.656 261.568 135.56 261.888 135.368C262.219 135.165 262.507 134.915 262.752 134.616L264.128 135.656C263.68 136.211 263.179 136.605 262.624 136.84C262.069 137.075 261.488 137.192 260.88 137.192C260.304 137.192 259.76 137.096 259.248 136.904C258.736 136.712 258.293 136.44 257.92 136.088C257.547 135.736 257.248 135.315 257.024 134.824C256.811 134.323 256.704 133.768 256.704 133.16C256.704 132.552 256.811 132.003 257.024 131.512C257.248 131.011 257.547 130.584 257.92 130.232C258.293 129.88 258.736 129.608 259.248 129.416C259.76 129.224 260.304 129.128 260.88 129.128C261.413 129.128 261.899 129.224 262.336 129.416C262.784 129.597 263.163 129.864 263.472 130.216C263.792 130.568 264.037 131.005 264.208 131.528C264.389 132.04 264.48 132.632 264.48 133.304V133.832H258.624ZM262.56 132.392C262.549 131.827 262.373 131.384 262.032 131.064C261.691 130.733 261.216 130.568 260.608 130.568C260.032 130.568 259.573 130.733 259.232 131.064C258.901 131.395 258.699 131.837 258.624 132.392H262.56ZM261.424 125.672H263.6L261.344 127.976H259.84L261.424 125.672Z" fill="#F3F3F4"/>
<path d="M296.794 126.666C296.366 127.062 296.366 127.738 296.794 128.134L300.973 132L296.794 135.866C296.366 136.262 296.366 136.938 296.794 137.334L296.834 137.372C297.218 137.726 297.809 137.726 298.193 137.372L303.206 132.734C303.634 132.338 303.634 131.662 303.206 131.266L298.193 126.628C297.809 126.274 297.218 126.274 296.834 126.628L296.794 126.666Z" fill="#8DE8FE"/>
</svg>
