<svg width="328" height="192" viewBox="0 0 328 192" fill="none" xmlns="http://www.w3.org/2000/svg">
<path d="M1.422 5.256H5.706C6.318 5.256 6.906 5.316 7.47 5.436C8.046 5.556 8.55 5.76 8.982 6.048C9.414 6.324 9.756 6.702 10.008 7.182C10.272 7.65 10.404 8.238 10.404 8.946C10.404 9.75 10.266 10.398 9.99 10.89C9.714 11.382 9.342 11.766 8.874 12.042C8.406 12.306 7.86 12.486 7.236 12.582C6.624 12.678 5.982 12.726 5.31 12.726H3.69V18H1.422V5.256ZM5.058 10.782C5.382 10.782 5.718 10.77 6.066 10.746C6.414 10.722 6.732 10.65 7.02 10.53C7.32 10.41 7.56 10.23 7.74 9.99C7.932 9.75 8.028 9.414 8.028 8.982C8.028 8.586 7.944 8.274 7.776 8.046C7.608 7.806 7.392 7.626 7.128 7.506C6.864 7.374 6.57 7.29 6.246 7.254C5.922 7.218 5.61 7.2 5.31 7.2H3.69V10.782H5.058ZM17.6279 16.812H17.5739C17.2619 17.304 16.8659 17.664 16.3859 17.892C15.9059 18.108 15.3779 18.216 14.8019 18.216C14.4059 18.216 14.0159 18.162 13.6319 18.054C13.2599 17.946 12.9239 17.784 12.6239 17.568C12.3359 17.352 12.1019 17.082 11.9219 16.758C11.7419 16.434 11.6519 16.056 11.6519 15.624C11.6519 15.156 11.7359 14.76 11.9039 14.436C12.0719 14.1 12.2939 13.824 12.5699 13.608C12.8579 13.38 13.1879 13.2 13.5599 13.068C13.9319 12.936 14.3159 12.84 14.7119 12.78C15.1199 12.708 15.5279 12.666 15.9359 12.654C16.3439 12.63 16.7279 12.618 17.0879 12.618H17.6279V12.384C17.6279 11.844 17.4419 11.442 17.0699 11.178C16.6979 10.902 16.2239 10.764 15.6479 10.764C15.1919 10.764 14.7659 10.848 14.3699 11.016C13.9739 11.172 13.6319 11.388 13.3439 11.664L12.2099 10.53C12.6899 10.038 13.2479 9.684 13.8839 9.468C14.5319 9.252 15.1979 9.144 15.8819 9.144C16.4939 9.144 17.0099 9.216 17.4299 9.36C17.8499 9.492 18.1979 9.666 18.4739 9.882C18.7499 10.098 18.9599 10.35 19.1039 10.638C19.2599 10.914 19.3679 11.196 19.4279 11.484C19.4999 11.772 19.5419 12.054 19.5539 12.33C19.5659 12.594 19.5719 12.828 19.5719 13.032V18H17.6279V16.812ZM17.5019 14.13H17.0519C16.7519 14.13 16.4159 14.142 16.0439 14.166C15.6719 14.19 15.3179 14.25 14.9819 14.346C14.6579 14.43 14.3819 14.562 14.1539 14.742C13.9259 14.91 13.8119 15.15 13.8119 15.462C13.8119 15.666 13.8539 15.84 13.9379 15.984C14.0339 16.116 14.1539 16.23 14.2979 16.326C14.4419 16.422 14.6039 16.494 14.7839 16.542C14.9639 16.578 15.1439 16.596 15.3239 16.596C16.0679 16.596 16.6139 16.422 16.9619 16.074C17.3219 15.714 17.5019 15.228 17.5019 14.616V14.13ZM21.8959 9.36H24.0559V10.728H24.0919C24.3319 10.224 24.6739 9.834 25.1179 9.558C25.5619 9.282 26.0719 9.144 26.6479 9.144C26.7799 9.144 26.9059 9.156 27.0259 9.18C27.1579 9.204 27.2899 9.234 27.4219 9.27V11.358C27.2419 11.31 27.0619 11.274 26.8819 11.25C26.7139 11.214 26.5459 11.196 26.3779 11.196C25.8739 11.196 25.4659 11.292 25.1539 11.484C24.8539 11.664 24.6199 11.874 24.4519 12.114C24.2959 12.354 24.1879 12.594 24.1279 12.834C24.0799 13.074 24.0559 13.254 24.0559 13.374V18H21.8959V9.36ZM34.292 16.812H34.238C33.926 17.304 33.53 17.664 33.05 17.892C32.57 18.108 32.042 18.216 31.466 18.216C31.07 18.216 30.68 18.162 30.296 18.054C29.924 17.946 29.588 17.784 29.288 17.568C29 17.352 28.766 17.082 28.586 16.758C28.406 16.434 28.316 16.056 28.316 15.624C28.316 15.156 28.4 14.76 28.568 14.436C28.736 14.1 28.958 13.824 29.234 13.608C29.522 13.38 29.852 13.2 30.224 13.068C30.596 12.936 30.98 12.84 31.376 12.78C31.784 12.708 32.192 12.666 32.6 12.654C33.008 12.63 33.392 12.618 33.752 12.618H34.292V12.384C34.292 11.844 34.106 11.442 33.734 11.178C33.362 10.902 32.888 10.764 32.312 10.764C31.856 10.764 31.43 10.848 31.034 11.016C30.638 11.172 30.296 11.388 30.008 11.664L28.874 10.53C29.354 10.038 29.912 9.684 30.548 9.468C31.196 9.252 31.862 9.144 32.546 9.144C33.158 9.144 33.674 9.216 34.094 9.36C34.514 9.492 34.862 9.666 35.138 9.882C35.414 10.098 35.624 10.35 35.768 10.638C35.924 10.914 36.032 11.196 36.092 11.484C36.164 11.772 36.206 12.054 36.218 12.33C36.23 12.594 36.236 12.828 36.236 13.032V18H34.292V16.812ZM34.166 14.13H33.716C33.416 14.13 33.08 14.142 32.708 14.166C32.336 14.19 31.982 14.25 31.646 14.346C31.322 14.43 31.046 14.562 30.818 14.742C30.59 14.91 30.476 15.15 30.476 15.462C30.476 15.666 30.518 15.84 30.602 15.984C30.698 16.116 30.818 16.23 30.962 16.326C31.106 16.422 31.268 16.494 31.448 16.542C31.628 16.578 31.808 16.596 31.988 16.596C32.732 16.596 33.278 16.422 33.626 16.074C33.986 15.714 34.166 15.228 34.166 14.616V14.13ZM38.4699 9.36H40.5219V10.71H40.5579C40.7499 10.302 41.0559 9.942 41.4759 9.63C41.9079 9.306 42.4839 9.144 43.2039 9.144C44.5599 9.144 45.4599 9.678 45.9039 10.746C46.2159 10.194 46.6059 9.792 47.0739 9.54C47.5419 9.276 48.0999 9.144 48.7479 9.144C49.3239 9.144 49.8099 9.24 50.2059 9.432C50.6019 9.624 50.9199 9.888 51.1599 10.224C51.4119 10.56 51.5919 10.956 51.6999 11.412C51.8079 11.856 51.8619 12.336 51.8619 12.852V18H49.7019V13.104C49.7019 12.84 49.6779 12.588 49.6299 12.348C49.5819 12.096 49.4979 11.88 49.3779 11.7C49.2579 11.508 49.0959 11.358 48.8919 11.25C48.6879 11.142 48.4239 11.088 48.0999 11.088C47.7639 11.088 47.4759 11.154 47.2359 11.286C47.0079 11.406 46.8159 11.574 46.6599 11.79C46.5159 11.994 46.4079 12.234 46.3359 12.51C46.2759 12.774 46.2459 13.044 46.2459 13.32V18H44.0859V12.852C44.0859 12.312 43.9719 11.886 43.7439 11.574C43.5159 11.25 43.1379 11.088 42.6099 11.088C42.2499 11.088 41.9439 11.148 41.6919 11.268C41.4519 11.388 41.2479 11.55 41.0799 11.754C40.9239 11.958 40.8099 12.192 40.7379 12.456C40.6659 12.72 40.6299 12.996 40.6299 13.284V18H38.4699V9.36ZM55.95 14.436C56.022 15.084 56.274 15.588 56.706 15.948C57.138 16.308 57.66 16.488 58.272 16.488C58.812 16.488 59.262 16.38 59.622 16.164C59.994 15.936 60.318 15.654 60.594 15.318L62.142 16.488C61.638 17.112 61.074 17.556 60.45 17.82C59.826 18.084 59.172 18.216 58.488 18.216C57.84 18.216 57.228 18.108 56.652 17.892C56.076 17.676 55.578 17.37 55.158 16.974C54.738 16.578 54.402 16.104 54.15 15.552C53.91 14.988 53.79 14.364 53.79 13.68C53.79 12.996 53.91 12.378 54.15 11.826C54.402 11.262 54.738 10.782 55.158 10.386C55.578 9.99 56.076 9.684 56.652 9.468C57.228 9.252 57.84 9.144 58.488 9.144C59.088 9.144 59.634 9.252 60.126 9.468C60.63 9.672 61.056 9.972 61.404 10.368C61.764 10.764 62.04 11.256 62.232 11.844C62.436 12.42 62.538 13.086 62.538 13.842V14.436H55.95ZM60.378 12.816C60.366 12.18 60.168 11.682 59.784 11.322C59.4 10.95 58.866 10.764 58.182 10.764C57.534 10.764 57.018 10.95 56.634 11.322C56.262 11.694 56.034 12.192 55.95 12.816H60.378ZM59.01 7.848H57.318L54.78 5.256H57.228L59.01 7.848ZM63.55 11.196V9.36H65.332V6.858H67.492V9.36H69.868V11.196H67.492V14.976C67.492 15.408 67.57 15.75 67.726 16.002C67.894 16.254 68.218 16.38 68.698 16.38C68.89 16.38 69.1 16.362 69.328 16.326C69.556 16.278 69.736 16.206 69.868 16.11V17.928C69.64 18.036 69.358 18.108 69.022 18.144C68.698 18.192 68.41 18.216 68.158 18.216C67.582 18.216 67.108 18.15 66.736 18.018C66.376 17.898 66.088 17.712 65.872 17.46C65.668 17.196 65.524 16.872 65.44 16.488C65.368 16.104 65.332 15.66 65.332 15.156V11.196H63.55ZM71.5541 9.36H73.7141V10.728H73.7501C73.9901 10.224 74.3321 9.834 74.7761 9.558C75.2201 9.282 75.7301 9.144 76.3061 9.144C76.4381 9.144 76.5641 9.156 76.6841 9.18C76.8161 9.204 76.9481 9.234 77.0801 9.27V11.358C76.9001 11.31 76.7201 11.274 76.5401 11.25C76.3721 11.214 76.2041 11.196 76.0361 11.196C75.5321 11.196 75.1241 11.292 74.8121 11.484C74.5121 11.664 74.2781 11.874 74.1101 12.114C73.9541 12.354 73.8461 12.594 73.7861 12.834C73.7381 13.074 73.7141 13.254 73.7141 13.374V18H71.5541V9.36ZM79.9618 14.436C80.0338 15.084 80.2858 15.588 80.7178 15.948C81.1498 16.308 81.6718 16.488 82.2838 16.488C82.8238 16.488 83.2738 16.38 83.6338 16.164C84.0058 15.936 84.3298 15.654 84.6058 15.318L86.1538 16.488C85.6498 17.112 85.0858 17.556 84.4618 17.82C83.8378 18.084 83.1838 18.216 82.4998 18.216C81.8518 18.216 81.2398 18.108 80.6638 17.892C80.0878 17.676 79.5898 17.37 79.1698 16.974C78.7498 16.578 78.4138 16.104 78.1618 15.552C77.9218 14.988 77.8018 14.364 77.8018 13.68C77.8018 12.996 77.9218 12.378 78.1618 11.826C78.4138 11.262 78.7498 10.782 79.1698 10.386C79.5898 9.99 80.0878 9.684 80.6638 9.468C81.2398 9.252 81.8518 9.144 82.4998 9.144C83.0998 9.144 83.6458 9.252 84.1378 9.468C84.6418 9.672 85.0678 9.972 85.4158 10.368C85.7758 10.764 86.0518 11.256 86.2438 11.844C86.4478 12.42 86.5498 13.086 86.5498 13.842V14.436H79.9618ZM84.3898 12.816C84.3778 12.18 84.1798 11.682 83.7958 11.322C83.4118 10.95 82.8778 10.764 82.1938 10.764C81.5458 10.764 81.0298 10.95 80.6458 11.322C80.2738 11.694 80.0458 12.192 79.9618 12.816H84.3898ZM93.1777 11.754C92.7577 11.166 92.1937 10.872 91.4857 10.872C91.1977 10.872 90.9157 10.944 90.6397 11.088C90.3637 11.232 90.2257 11.466 90.2257 11.79C90.2257 12.054 90.3397 12.246 90.5677 12.366C90.7957 12.486 91.0837 12.588 91.4317 12.672C91.7797 12.756 92.1517 12.846 92.5477 12.942C92.9557 13.026 93.3337 13.164 93.6817 13.356C94.0297 13.536 94.3177 13.788 94.5457 14.112C94.7737 14.436 94.8877 14.88 94.8877 15.444C94.8877 15.96 94.7737 16.398 94.5457 16.758C94.3297 17.106 94.0417 17.388 93.6817 17.604C93.3337 17.82 92.9377 17.976 92.4937 18.072C92.0497 18.168 91.6057 18.216 91.1617 18.216C90.4897 18.216 89.8717 18.12 89.3077 17.928C88.7437 17.736 88.2397 17.388 87.7957 16.884L89.2357 15.534C89.5117 15.846 89.8057 16.104 90.1177 16.308C90.4417 16.5 90.8317 16.596 91.2877 16.596C91.4437 16.596 91.6057 16.578 91.7737 16.542C91.9417 16.506 92.0977 16.446 92.2417 16.362C92.3857 16.278 92.4997 16.176 92.5837 16.056C92.6797 15.924 92.7277 15.774 92.7277 15.606C92.7277 15.306 92.6137 15.084 92.3857 14.94C92.1577 14.796 91.8697 14.682 91.5217 14.598C91.1737 14.502 90.7957 14.418 90.3877 14.346C89.9917 14.262 89.6197 14.136 89.2717 13.968C88.9237 13.788 88.6357 13.542 88.4077 13.23C88.1797 12.918 88.0657 12.486 88.0657 11.934C88.0657 11.454 88.1617 11.04 88.3537 10.692C88.5577 10.332 88.8217 10.038 89.1457 9.81C89.4697 9.582 89.8417 9.414 90.2617 9.306C90.6817 9.198 91.1077 9.144 91.5397 9.144C92.1157 9.144 92.6857 9.246 93.2497 9.45C93.8137 9.642 94.2697 9.978 94.6177 10.458L93.1777 11.754Z" fill="#F3F3F8"/>
<rect y="120" width="328" height="72" rx="14" fill="#242B35"/>
<path d="M20.928 140.672H22.672L27.552 152H25.248L24.192 149.408H19.28L18.256 152H16L20.928 140.672ZM23.488 147.68L21.744 143.072L19.968 147.68H23.488ZM29.3229 145.952H27.7389V144.32H29.3229V143.232C29.3229 142.699 29.3602 142.219 29.4349 141.792C29.5095 141.355 29.6482 140.981 29.8509 140.672C30.0642 140.363 30.3575 140.128 30.7309 139.968C31.1042 139.797 31.5895 139.712 32.1869 139.712C32.6242 139.712 33.0295 139.749 33.4029 139.824L33.2749 141.456C33.1362 141.424 33.0029 141.397 32.8749 141.376C32.7469 141.355 32.6135 141.344 32.4749 141.344C32.2082 141.344 31.9949 141.387 31.8349 141.472C31.6749 141.557 31.5469 141.675 31.4509 141.824C31.3655 141.963 31.3069 142.128 31.2749 142.32C31.2535 142.512 31.2429 142.715 31.2429 142.928V144.32H33.0189V145.952H31.2429V152H29.3229V145.952ZM34.6666 145.952H33.0826V144.32H34.6666V143.232C34.6666 142.699 34.704 142.219 34.7786 141.792C34.8533 141.355 34.992 140.981 35.1946 140.672C35.408 140.363 35.7013 140.128 36.0746 139.968C36.448 139.797 36.9333 139.712 37.5306 139.712C37.968 139.712 38.3733 139.749 38.7466 139.824L38.6186 141.456C38.48 141.424 38.3466 141.397 38.2186 141.376C38.0906 141.355 37.9573 141.344 37.8186 141.344C37.552 141.344 37.3386 141.387 37.1786 141.472C37.0186 141.557 36.8906 141.675 36.7946 141.824C36.7093 141.963 36.6506 142.128 36.6186 142.32C36.5973 142.512 36.5866 142.715 36.5866 142.928V144.32H38.3626V145.952H36.5866V152H34.6666V145.952ZM39.6106 144.32H41.5306V152H39.6106V144.32ZM39.3546 141.712C39.3546 141.403 39.4666 141.136 39.6906 140.912C39.9253 140.677 40.2186 140.56 40.5706 140.56C40.9226 140.56 41.216 140.672 41.4506 140.896C41.696 141.109 41.8186 141.381 41.8186 141.712C41.8186 142.043 41.696 142.32 41.4506 142.544C41.216 142.757 40.9226 142.864 40.5706 142.864C40.2186 142.864 39.9253 142.752 39.6906 142.528C39.4666 142.293 39.3546 142.021 39.3546 141.712ZM48.711 146.624C48.487 146.389 48.2523 146.203 48.007 146.064C47.7617 145.925 47.511 145.856 47.255 145.856C46.903 145.856 46.5883 145.92 46.311 146.048C46.0337 146.176 45.7937 146.347 45.591 146.56C45.399 146.773 45.2497 147.019 45.143 147.296C45.047 147.573 44.999 147.861 44.999 148.16C44.999 148.459 45.047 148.747 45.143 149.024C45.2497 149.301 45.399 149.547 45.591 149.76C45.7937 149.973 46.0337 150.144 46.311 150.272C46.5883 150.4 46.903 150.464 47.255 150.464C47.5537 150.464 47.831 150.405 48.087 150.288C48.343 150.16 48.5617 149.979 48.743 149.744L50.023 151.12C49.831 151.312 49.607 151.477 49.351 151.616C49.1057 151.755 48.855 151.867 48.599 151.952C48.343 152.037 48.0977 152.096 47.863 152.128C47.6283 152.171 47.4257 152.192 47.255 152.192C46.679 152.192 46.135 152.096 45.623 151.904C45.111 151.712 44.6683 151.44 44.295 151.088C43.9217 150.736 43.623 150.315 43.399 149.824C43.1857 149.323 43.079 148.768 43.079 148.16C43.079 147.552 43.1857 147.003 43.399 146.512C43.623 146.011 43.9217 145.584 44.295 145.232C44.6683 144.88 45.111 144.608 45.623 144.416C46.135 144.224 46.679 144.128 47.255 144.128C47.7457 144.128 48.2363 144.224 48.727 144.416C49.2283 144.597 49.6657 144.891 50.039 145.296L48.711 146.624ZM53.1018 145.392H53.1338C53.2831 145.072 53.5444 144.784 53.9178 144.528C54.3018 144.261 54.7924 144.128 55.3898 144.128C55.9018 144.128 56.3338 144.213 56.6858 144.384C57.0484 144.555 57.3418 144.779 57.5658 145.056C57.7898 145.333 57.9498 145.653 58.0458 146.016C58.1418 146.379 58.1898 146.757 58.1898 147.152V152H56.2698V148.112C56.2698 147.899 56.2591 147.664 56.2378 147.408C56.2164 147.141 56.1578 146.896 56.0618 146.672C55.9764 146.437 55.8378 146.245 55.6458 146.096C55.4538 145.936 55.1924 145.856 54.8618 145.856C54.5418 145.856 54.2698 145.909 54.0458 146.016C53.8324 146.123 53.6511 146.267 53.5018 146.448C53.3631 146.629 53.2618 146.837 53.1978 147.072C53.1338 147.307 53.1018 147.552 53.1018 147.808V152H51.1818V139.904H53.1018V145.392ZM65.1693 150.944H65.1213C64.8439 151.381 64.4919 151.701 64.0653 151.904C63.6386 152.096 63.1693 152.192 62.6573 152.192C62.3053 152.192 61.9586 152.144 61.6173 152.048C61.2866 151.952 60.9879 151.808 60.7213 151.616C60.4653 151.424 60.2573 151.184 60.0973 150.896C59.9373 150.608 59.8573 150.272 59.8573 149.888C59.8573 149.472 59.9319 149.12 60.0813 148.832C60.2306 148.533 60.4279 148.288 60.6733 148.096C60.9293 147.893 61.2226 147.733 61.5533 147.616C61.8839 147.499 62.2253 147.413 62.5773 147.36C62.9399 147.296 63.3026 147.259 63.6653 147.248C64.0279 147.227 64.3693 147.216 64.6893 147.216H65.1693V147.008C65.1693 146.528 65.0039 146.171 64.6733 145.936C64.3426 145.691 63.9213 145.568 63.4093 145.568C63.0039 145.568 62.6253 145.643 62.2733 145.792C61.9213 145.931 61.6173 146.123 61.3613 146.368L60.3533 145.36C60.7799 144.923 61.2759 144.608 61.8413 144.416C62.4173 144.224 63.0093 144.128 63.6173 144.128C64.1613 144.128 64.6199 144.192 64.9933 144.32C65.3666 144.437 65.6759 144.592 65.9213 144.784C66.1666 144.976 66.3533 145.2 66.4813 145.456C66.6199 145.701 66.7159 145.952 66.7693 146.208C66.8333 146.464 66.8706 146.715 66.8813 146.96C66.8919 147.195 66.8973 147.403 66.8973 147.584V152H65.1693V150.944ZM65.0573 148.56H64.6573C64.3906 148.56 64.0919 148.571 63.7613 148.592C63.4306 148.613 63.1159 148.667 62.8173 148.752C62.5293 148.827 62.2839 148.944 62.0813 149.104C61.8786 149.253 61.7773 149.467 61.7773 149.744C61.7773 149.925 61.8146 150.08 61.8893 150.208C61.9746 150.325 62.0813 150.427 62.2093 150.512C62.3373 150.597 62.4813 150.661 62.6413 150.704C62.8013 150.736 62.9613 150.752 63.1213 150.752C63.7826 150.752 64.2679 150.597 64.5773 150.288C64.8973 149.968 65.0573 149.536 65.0573 148.992V148.56ZM76.867 144.32V151.312C76.867 152.005 76.7817 152.629 76.611 153.184C76.4403 153.749 76.1737 154.224 75.811 154.608C75.459 155.003 75.011 155.307 74.467 155.52C73.923 155.733 73.2777 155.84 72.531 155.84C71.8163 155.84 71.139 155.749 70.499 155.568C69.859 155.387 69.267 155.056 68.723 154.576L69.875 153.008C70.259 153.36 70.659 153.632 71.075 153.824C71.491 154.016 71.971 154.112 72.515 154.112C72.9737 154.112 73.3577 154.048 73.667 153.92C73.987 153.792 74.2377 153.616 74.419 153.392C74.611 153.168 74.7443 152.896 74.819 152.576C74.9043 152.267 74.947 151.92 74.947 151.536V150.976H74.915C74.6377 151.349 74.2697 151.632 73.811 151.824C73.3523 152.005 72.883 152.096 72.403 152.096C71.827 152.096 71.3043 151.995 70.835 151.792C70.3657 151.579 69.9603 151.296 69.619 150.944C69.2883 150.592 69.0323 150.176 68.851 149.696C68.6697 149.216 68.579 148.704 68.579 148.16C68.579 147.595 68.6643 147.067 68.835 146.576C69.0057 146.085 69.2563 145.659 69.587 145.296C69.9177 144.933 70.3123 144.651 70.771 144.448C71.2403 144.235 71.7737 144.128 72.371 144.128C72.915 144.128 73.4217 144.235 73.891 144.448C74.3603 144.661 74.7337 145.003 75.011 145.472H75.043V144.32H76.867ZM72.771 145.856C72.4297 145.856 72.1203 145.915 71.843 146.032C71.5657 146.139 71.3257 146.293 71.123 146.496C70.931 146.688 70.7763 146.928 70.659 147.216C70.5523 147.493 70.499 147.803 70.499 148.144C70.499 148.453 70.5523 148.741 70.659 149.008C70.7763 149.275 70.9363 149.509 71.139 149.712C71.3417 149.915 71.5817 150.075 71.859 150.192C72.1363 150.309 72.435 150.368 72.755 150.368C73.107 150.368 73.4217 150.309 73.699 150.192C73.987 150.075 74.227 149.92 74.419 149.728C74.6217 149.525 74.7763 149.285 74.883 149.008C74.9897 148.731 75.043 148.432 75.043 148.112C75.043 147.44 74.8403 146.896 74.435 146.48C74.0297 146.064 73.475 145.856 72.771 145.856ZM80.5771 148.832C80.6411 149.408 80.8651 149.856 81.2491 150.176C81.6331 150.496 82.0971 150.656 82.6411 150.656C83.1211 150.656 83.5211 150.56 83.8411 150.368C84.1718 150.165 84.4598 149.915 84.7051 149.616L86.0811 150.656C85.6331 151.211 85.1318 151.605 84.5771 151.84C84.0225 152.075 83.4411 152.192 82.8331 152.192C82.2571 152.192 81.7131 152.096 81.2011 151.904C80.6891 151.712 80.2465 151.44 79.8731 151.088C79.4998 150.736 79.2011 150.315 78.9771 149.824C78.7638 149.323 78.6571 148.768 78.6571 148.16C78.6571 147.552 78.7638 147.003 78.9771 146.512C79.2011 146.011 79.4998 145.584 79.8731 145.232C80.2465 144.88 80.6891 144.608 81.2011 144.416C81.7131 144.224 82.2571 144.128 82.8331 144.128C83.3665 144.128 83.8518 144.224 84.2891 144.416C84.7371 144.597 85.1158 144.864 85.4251 145.216C85.7451 145.568 85.9905 146.005 86.1611 146.528C86.3425 147.04 86.4331 147.632 86.4331 148.304V148.832H80.5771ZM84.5131 147.392C84.5025 146.827 84.3265 146.384 83.9851 146.064C83.6438 145.733 83.1691 145.568 82.5611 145.568C81.9851 145.568 81.5265 145.733 81.1851 146.064C80.8545 146.395 80.6518 146.837 80.5771 147.392H84.5131Z" fill="#F3F3F4"/>
<path d="M17.092 161.796H18.951L21.876 168.764H21.928L24.827 161.796H26.686V171H25.438V163.434H25.412L22.305 171H21.473L18.366 163.434H18.34V171H17.092V161.796ZM29.6143 167.919C29.6143 168.231 29.6619 168.521 29.7573 168.79C29.8526 169.05 29.9869 169.275 30.1603 169.466C30.3336 169.648 30.5459 169.795 30.7973 169.908C31.0486 170.012 31.3303 170.064 31.6423 170.064C31.9543 170.064 32.2359 170.012 32.4873 169.908C32.7386 169.795 32.9509 169.648 33.1243 169.466C33.2976 169.275 33.4319 169.05 33.5273 168.79C33.6226 168.521 33.6703 168.231 33.6703 167.919C33.6703 167.607 33.6226 167.321 33.5273 167.061C33.4319 166.792 33.2976 166.567 33.1243 166.385C32.9509 166.194 32.7386 166.047 32.4873 165.943C32.2359 165.83 31.9543 165.774 31.6423 165.774C31.3303 165.774 31.0486 165.83 30.7973 165.943C30.5459 166.047 30.3336 166.194 30.1603 166.385C29.9869 166.567 29.8526 166.792 29.7573 167.061C29.6619 167.321 29.6143 167.607 29.6143 167.919ZM28.3663 167.919C28.3663 167.468 28.4486 167.048 28.6133 166.658C28.7866 166.268 29.0206 165.926 29.3153 165.631C29.6099 165.336 29.9566 165.107 30.3553 164.942C30.7539 164.769 31.1829 164.682 31.6423 164.682C32.1016 164.682 32.5306 164.769 32.9293 164.942C33.3279 165.107 33.6746 165.336 33.9693 165.631C34.2639 165.926 34.4936 166.268 34.6583 166.658C34.8316 167.048 34.9183 167.468 34.9183 167.919C34.9183 168.37 34.8316 168.794 34.6583 169.193C34.4936 169.583 34.2639 169.925 33.9693 170.22C33.6746 170.506 33.3279 170.736 32.9293 170.909C32.5306 171.074 32.1016 171.156 31.6423 171.156C31.1829 171.156 30.7539 171.074 30.3553 170.909C29.9566 170.736 29.6099 170.506 29.3153 170.22C29.0206 169.925 28.7866 169.583 28.6133 169.193C28.4486 168.794 28.3663 168.37 28.3663 167.919ZM42.559 171H41.389V170.116H41.363C41.1377 170.445 40.8257 170.701 40.427 170.883C40.037 171.065 39.634 171.156 39.218 171.156C38.7413 171.156 38.308 171.074 37.918 170.909C37.5367 170.744 37.2073 170.515 36.93 170.22C36.6613 169.925 36.4533 169.583 36.306 169.193C36.1587 168.803 36.085 168.378 36.085 167.919C36.085 167.46 36.1587 167.035 36.306 166.645C36.4533 166.246 36.6613 165.904 36.93 165.618C37.2073 165.323 37.5367 165.094 37.918 164.929C38.308 164.764 38.7413 164.682 39.218 164.682C39.66 164.682 40.076 164.777 40.466 164.968C40.856 165.15 41.155 165.401 41.363 165.722H41.389V161.172H42.559V171ZM39.361 170.064C39.673 170.064 39.9547 170.012 40.206 169.908C40.4573 169.795 40.6697 169.648 40.843 169.466C41.0163 169.275 41.1507 169.05 41.246 168.79C41.3413 168.521 41.389 168.231 41.389 167.919C41.389 167.607 41.3413 167.321 41.246 167.061C41.1507 166.792 41.0163 166.567 40.843 166.385C40.6697 166.194 40.4573 166.047 40.206 165.943C39.9547 165.83 39.673 165.774 39.361 165.774C39.049 165.774 38.7673 165.83 38.516 165.943C38.2647 166.047 38.0523 166.194 37.879 166.385C37.7057 166.567 37.5713 166.792 37.476 167.061C37.3807 167.321 37.333 167.607 37.333 167.919C37.333 168.231 37.3807 168.521 37.476 168.79C37.5713 169.05 37.7057 169.275 37.879 169.466C38.0523 169.648 38.2647 169.795 38.516 169.908C38.7673 170.012 39.049 170.064 39.361 170.064ZM45.2153 168.348C45.2153 168.617 45.2716 168.864 45.3843 169.089C45.5056 169.306 45.6616 169.492 45.8523 169.648C46.0429 169.804 46.2639 169.925 46.5153 170.012C46.7666 170.099 47.0266 170.142 47.2953 170.142C47.6593 170.142 47.9756 170.06 48.2443 169.895C48.5129 169.722 48.7599 169.496 48.9853 169.219L49.8693 169.895C49.2193 170.736 48.3093 171.156 47.1393 171.156C46.6539 171.156 46.2119 171.074 45.8133 170.909C45.4233 170.744 45.0896 170.519 44.8123 170.233C44.5436 169.938 44.3356 169.596 44.1883 169.206C44.0409 168.807 43.9673 168.378 43.9673 167.919C43.9673 167.46 44.0453 167.035 44.2013 166.645C44.3659 166.246 44.5869 165.904 44.8643 165.618C45.1503 165.323 45.4883 165.094 45.8783 164.929C46.2683 164.764 46.6929 164.682 47.1523 164.682C47.6983 164.682 48.1576 164.777 48.5303 164.968C48.9116 165.159 49.2236 165.41 49.4663 165.722C49.7089 166.025 49.8823 166.372 49.9863 166.762C50.0989 167.143 50.1553 167.533 50.1553 167.932V168.348H45.2153ZM48.9073 167.412C48.8986 167.152 48.8553 166.914 48.7773 166.697C48.7079 166.48 48.5996 166.294 48.4523 166.138C48.3049 165.973 48.1186 165.848 47.8933 165.761C47.6766 165.666 47.4209 165.618 47.1263 165.618C46.8403 165.618 46.5759 165.674 46.3333 165.787C46.0993 165.891 45.8999 166.03 45.7353 166.203C45.5706 166.376 45.4406 166.571 45.3453 166.788C45.2586 166.996 45.2153 167.204 45.2153 167.412H48.9073ZM55.1731 164.838H56.3431V165.722H56.3691C56.5944 165.393 56.9021 165.137 57.2921 164.955C57.6907 164.773 58.0981 164.682 58.5141 164.682C58.9907 164.682 59.4197 164.764 59.8011 164.929C60.1911 165.094 60.5204 165.323 60.7891 165.618C61.0664 165.913 61.2787 166.259 61.4261 166.658C61.5734 167.048 61.6471 167.468 61.6471 167.919C61.6471 168.378 61.5734 168.807 61.4261 169.206C61.2787 169.596 61.0664 169.938 60.7891 170.233C60.5204 170.519 60.1911 170.744 59.8011 170.909C59.4197 171.074 58.9907 171.156 58.5141 171.156C58.0721 171.156 57.6561 171.065 57.2661 170.883C56.8761 170.692 56.5771 170.437 56.3691 170.116H56.3431V174.666H55.1731V164.838ZM58.3711 165.774C58.0591 165.774 57.7774 165.83 57.5261 165.943C57.2747 166.047 57.0624 166.194 56.8891 166.385C56.7157 166.567 56.5814 166.792 56.4861 167.061C56.3907 167.321 56.3431 167.607 56.3431 167.919C56.3431 168.231 56.3907 168.521 56.4861 168.79C56.5814 169.05 56.7157 169.275 56.8891 169.466C57.0624 169.648 57.2747 169.795 57.5261 169.908C57.7774 170.012 58.0591 170.064 58.3711 170.064C58.6831 170.064 58.9647 170.012 59.2161 169.908C59.4674 169.795 59.6797 169.648 59.8531 169.466C60.0264 169.275 60.1607 169.05 60.2561 168.79C60.3514 168.521 60.3991 168.231 60.3991 167.919C60.3991 167.607 60.3514 167.321 60.2561 167.061C60.1607 166.792 60.0264 166.567 59.8531 166.385C59.6797 166.194 59.4674 166.047 59.2161 165.943C58.9647 165.83 58.6831 165.774 58.3711 165.774ZM63.1463 165.592C63.4757 165.289 63.857 165.063 64.2903 164.916C64.7237 164.76 65.157 164.682 65.5903 164.682C66.041 164.682 66.4267 164.738 66.7473 164.851C67.0767 164.964 67.3453 165.115 67.5533 165.306C67.7613 165.497 67.913 165.718 68.0083 165.969C68.1123 166.212 68.1643 166.467 68.1643 166.736V169.882C68.1643 170.099 68.1687 170.298 68.1773 170.48C68.186 170.662 68.199 170.835 68.2163 171H67.1763C67.1503 170.688 67.1373 170.376 67.1373 170.064H67.1113C66.8513 170.463 66.5437 170.744 66.1883 170.909C65.833 171.074 65.4213 171.156 64.9533 171.156C64.6673 171.156 64.3943 171.117 64.1343 171.039C63.8743 170.961 63.6447 170.844 63.4453 170.688C63.2547 170.532 63.103 170.341 62.9903 170.116C62.8777 169.882 62.8213 169.613 62.8213 169.31C62.8213 168.911 62.908 168.578 63.0813 168.309C63.2633 168.04 63.506 167.824 63.8093 167.659C64.1213 167.486 64.481 167.364 64.8883 167.295C65.3043 167.217 65.7463 167.178 66.2143 167.178H67.0723V166.918C67.0723 166.762 67.042 166.606 66.9813 166.45C66.9207 166.294 66.8297 166.155 66.7083 166.034C66.587 165.904 66.4353 165.804 66.2533 165.735C66.0713 165.657 65.8547 165.618 65.6033 165.618C65.378 165.618 65.1787 165.64 65.0053 165.683C64.8407 165.726 64.689 165.783 64.5503 165.852C64.4117 165.913 64.286 165.986 64.1733 166.073C64.0607 166.16 63.9523 166.242 63.8483 166.32L63.1463 165.592ZM66.4483 168.036C66.171 168.036 65.885 168.053 65.5903 168.088C65.3043 168.114 65.04 168.17 64.7973 168.257C64.5633 168.344 64.3683 168.465 64.2123 168.621C64.065 168.777 63.9913 168.976 63.9913 169.219C63.9913 169.574 64.1083 169.83 64.3423 169.986C64.585 170.142 64.91 170.22 65.3173 170.22C65.638 170.22 65.911 170.168 66.1363 170.064C66.3617 169.951 66.5437 169.808 66.6823 169.635C66.821 169.462 66.9207 169.271 66.9813 169.063C67.042 168.846 67.0723 168.634 67.0723 168.426V168.036H66.4483ZM69.1205 164.838H70.4725L72.3055 169.648H72.3315L74.0735 164.838H75.3345L72.4095 172.326C72.3055 172.595 72.1972 172.837 72.0845 173.054C71.9719 173.279 71.8375 173.47 71.6815 173.626C71.5255 173.782 71.3349 173.903 71.1095 173.99C70.8929 174.077 70.6242 174.12 70.3035 174.12C70.1302 174.12 69.9525 174.107 69.7705 174.081C69.5972 174.064 69.4282 174.02 69.2635 173.951L69.4065 172.885C69.6405 172.98 69.8745 173.028 70.1085 173.028C70.2905 173.028 70.4422 173.002 70.5635 172.95C70.6935 172.907 70.8019 172.837 70.8885 172.742C70.9839 172.655 71.0619 172.551 71.1225 172.43C71.1832 172.309 71.2439 172.17 71.3045 172.014L71.6815 171.039L69.1205 164.838ZM79.6375 166.385C79.4989 166.212 79.3255 166.069 79.1175 165.956C78.9182 165.835 78.6712 165.774 78.3765 165.774C78.0992 165.774 77.8565 165.835 77.6485 165.956C77.4492 166.069 77.3495 166.238 77.3495 166.463C77.3495 166.645 77.4059 166.792 77.5185 166.905C77.6399 167.018 77.7785 167.109 77.9345 167.178C78.0992 167.247 78.2725 167.299 78.4545 167.334C78.6365 167.369 78.7925 167.399 78.9225 167.425C79.1739 167.486 79.4079 167.559 79.6245 167.646C79.8499 167.733 80.0405 167.845 80.1965 167.984C80.3612 168.123 80.4869 168.292 80.5735 168.491C80.6689 168.69 80.7165 168.933 80.7165 169.219C80.7165 169.566 80.6429 169.865 80.4955 170.116C80.3482 170.359 80.1575 170.558 79.9235 170.714C79.6895 170.87 79.4209 170.983 79.1175 171.052C78.8229 171.121 78.5239 171.156 78.2205 171.156C77.7092 171.156 77.2585 171.078 76.8685 170.922C76.4872 170.766 76.1449 170.48 75.8415 170.064L76.7255 169.336C76.9162 169.527 77.1285 169.696 77.3625 169.843C77.5965 169.99 77.8825 170.064 78.2205 170.064C78.3679 170.064 78.5152 170.051 78.6625 170.025C78.8185 169.99 78.9529 169.943 79.0655 169.882C79.1869 169.813 79.2822 169.73 79.3515 169.635C79.4295 169.531 79.4685 169.414 79.4685 169.284C79.4685 169.111 79.4122 168.968 79.2995 168.855C79.1955 168.742 79.0655 168.656 78.9095 168.595C78.7622 168.526 78.6019 168.474 78.4285 168.439C78.2639 168.396 78.1165 168.361 77.9865 168.335C77.7352 168.274 77.4969 168.205 77.2715 168.127C77.0462 168.049 76.8469 167.945 76.6735 167.815C76.5002 167.685 76.3615 167.52 76.2575 167.321C76.1535 167.122 76.1015 166.875 76.1015 166.58C76.1015 166.259 76.1665 165.982 76.2965 165.748C76.4352 165.505 76.6129 165.306 76.8295 165.15C77.0549 164.994 77.3062 164.877 77.5835 164.799C77.8695 164.721 78.1555 164.682 78.4415 164.682C78.8575 164.682 79.2562 164.76 79.6375 164.916C80.0189 165.072 80.3222 165.332 80.5475 165.696L79.6375 166.385ZM82.1639 165.592C82.4932 165.289 82.8746 165.063 83.3079 164.916C83.7412 164.76 84.1746 164.682 84.6079 164.682C85.0586 164.682 85.4442 164.738 85.7649 164.851C86.0942 164.964 86.3629 165.115 86.5709 165.306C86.7789 165.497 86.9306 165.718 87.0259 165.969C87.1299 166.212 87.1819 166.467 87.1819 166.736V169.882C87.1819 170.099 87.1862 170.298 87.1949 170.48C87.2036 170.662 87.2166 170.835 87.2339 171H86.1939C86.1679 170.688 86.1549 170.376 86.1549 170.064H86.1289C85.8689 170.463 85.5612 170.744 85.2059 170.909C84.8506 171.074 84.4389 171.156 83.9709 171.156C83.6849 171.156 83.4119 171.117 83.1519 171.039C82.8919 170.961 82.6622 170.844 82.4629 170.688C82.2722 170.532 82.1206 170.341 82.0079 170.116C81.8952 169.882 81.8389 169.613 81.8389 169.31C81.8389 168.911 81.9256 168.578 82.0989 168.309C82.2809 168.04 82.5236 167.824 82.8269 167.659C83.1389 167.486 83.4986 167.364 83.9059 167.295C84.3219 167.217 84.7639 167.178 85.2319 167.178H86.0899V166.918C86.0899 166.762 86.0596 166.606 85.9989 166.45C85.9382 166.294 85.8472 166.155 85.7259 166.034C85.6046 165.904 85.4529 165.804 85.2709 165.735C85.0889 165.657 84.8722 165.618 84.6209 165.618C84.3956 165.618 84.1962 165.64 84.0229 165.683C83.8582 165.726 83.7066 165.783 83.5679 165.852C83.4292 165.913 83.3036 165.986 83.1909 166.073C83.0782 166.16 82.9699 166.242 82.8659 166.32L82.1639 165.592ZM85.4659 168.036C85.1886 168.036 84.9026 168.053 84.6079 168.088C84.3219 168.114 84.0576 168.17 83.8149 168.257C83.5809 168.344 83.3859 168.465 83.2299 168.621C83.0826 168.777 83.0089 168.976 83.0089 169.219C83.0089 169.574 83.1259 169.83 83.3599 169.986C83.6026 170.142 83.9276 170.22 84.3349 170.22C84.6556 170.22 84.9286 170.168 85.1539 170.064C85.3792 169.951 85.5612 169.808 85.6999 169.635C85.8386 169.462 85.9382 169.271 85.9989 169.063C86.0596 168.846 86.0899 168.634 86.0899 168.426V168.036H85.4659ZM95.0541 170.948C95.0541 171.416 94.9718 171.841 94.8071 172.222C94.6511 172.612 94.4258 172.946 94.1311 173.223C93.8365 173.509 93.4811 173.73 93.0651 173.886C92.6491 174.042 92.1898 174.12 91.6871 174.12C91.0978 174.12 90.5561 174.038 90.0621 173.873C89.5768 173.708 89.1131 173.422 88.6711 173.015L89.4641 172.027C89.7675 172.356 90.0968 172.603 90.4521 172.768C90.8075 172.941 91.2105 173.028 91.6611 173.028C92.0945 173.028 92.4541 172.963 92.7401 172.833C93.0261 172.712 93.2515 172.551 93.4161 172.352C93.5895 172.153 93.7108 171.923 93.7801 171.663C93.8495 171.412 93.8841 171.156 93.8841 170.896V169.986H93.8451C93.6198 170.359 93.3121 170.636 92.9221 170.818C92.5408 170.991 92.1378 171.078 91.7131 171.078C91.2625 171.078 90.8421 171 90.4521 170.844C90.0708 170.679 89.7415 170.458 89.4641 170.181C89.1868 169.895 88.9701 169.561 88.8141 169.18C88.6581 168.79 88.5801 168.37 88.5801 167.919C88.5801 167.468 88.6538 167.048 88.8011 166.658C88.9485 166.259 89.1565 165.913 89.4251 165.618C89.7025 165.323 90.0318 165.094 90.4131 164.929C90.8031 164.764 91.2365 164.682 91.7131 164.682C92.1291 164.682 92.5321 164.773 92.9221 164.955C93.3208 165.137 93.6328 165.393 93.8581 165.722H93.8841V164.838H95.0541V170.948ZM91.8561 165.774C91.5441 165.774 91.2625 165.83 91.0111 165.943C90.7598 166.047 90.5475 166.194 90.3741 166.385C90.2008 166.567 90.0665 166.792 89.9711 167.061C89.8758 167.321 89.8281 167.607 89.8281 167.919C89.8281 168.543 90.0101 169.046 90.3741 169.427C90.7381 169.8 91.2321 169.986 91.8561 169.986C92.4801 169.986 92.9741 169.8 93.3381 169.427C93.7021 169.046 93.8841 168.543 93.8841 167.919C93.8841 167.607 93.8365 167.321 93.7411 167.061C93.6458 166.792 93.5115 166.567 93.3381 166.385C93.1648 166.194 92.9525 166.047 92.7011 165.943C92.4498 165.83 92.1681 165.774 91.8561 165.774ZM97.7104 168.348C97.7104 168.617 97.7667 168.864 97.8794 169.089C98.0007 169.306 98.1567 169.492 98.3474 169.648C98.538 169.804 98.759 169.925 99.0104 170.012C99.2617 170.099 99.5217 170.142 99.7904 170.142C100.154 170.142 100.471 170.06 100.739 169.895C101.008 169.722 101.255 169.496 101.48 169.219L102.364 169.895C101.714 170.736 100.804 171.156 99.6344 171.156C99.149 171.156 98.707 171.074 98.3084 170.909C97.9184 170.744 97.5847 170.519 97.3074 170.233C97.0387 169.938 96.8307 169.596 96.6834 169.206C96.536 168.807 96.4624 168.378 96.4624 167.919C96.4624 167.46 96.5404 167.035 96.6964 166.645C96.861 166.246 97.082 165.904 97.3594 165.618C97.6454 165.323 97.9834 165.094 98.3734 164.929C98.7634 164.764 99.188 164.682 99.6474 164.682C100.193 164.682 100.653 164.777 101.025 164.968C101.407 165.159 101.719 165.41 101.961 165.722C102.204 166.025 102.377 166.372 102.481 166.762C102.594 167.143 102.65 167.533 102.65 167.932V168.348H97.7104ZM101.402 167.412C101.394 167.152 101.35 166.914 101.272 166.697C101.203 166.48 101.095 166.294 100.947 166.138C100.8 165.973 100.614 165.848 100.388 165.761C100.172 165.666 99.916 165.618 99.6214 165.618C99.3354 165.618 99.071 165.674 98.8284 165.787C98.5944 165.891 98.395 166.03 98.2304 166.203C98.0657 166.376 97.9357 166.571 97.8404 166.788C97.7537 166.996 97.7104 167.204 97.7104 167.412H101.402ZM104.856 172.716H103.79L104.687 169.518H105.948L104.856 172.716ZM114.588 165.852H112.911V168.647C112.911 168.82 112.916 168.994 112.924 169.167C112.933 169.332 112.963 169.483 113.015 169.622C113.076 169.752 113.163 169.86 113.275 169.947C113.397 170.025 113.57 170.064 113.795 170.064C113.934 170.064 114.077 170.051 114.224 170.025C114.372 169.999 114.506 169.951 114.627 169.882V170.948C114.489 171.026 114.307 171.078 114.081 171.104C113.865 171.139 113.696 171.156 113.574 171.156C113.124 171.156 112.773 171.095 112.521 170.974C112.279 170.844 112.097 170.679 111.975 170.48C111.863 170.281 111.793 170.06 111.767 169.817C111.75 169.566 111.741 169.314 111.741 169.063V165.852H110.389V164.838H111.741V163.109H112.911V164.838H114.588V165.852ZM116.098 161.172H117.268V165.787H117.294C117.441 165.458 117.697 165.193 118.061 164.994C118.425 164.786 118.845 164.682 119.322 164.682C119.617 164.682 119.898 164.73 120.167 164.825C120.444 164.912 120.683 165.05 120.882 165.241C121.09 165.432 121.255 165.679 121.376 165.982C121.497 166.277 121.558 166.628 121.558 167.035V171H120.388V167.36C120.388 167.074 120.349 166.831 120.271 166.632C120.193 166.424 120.089 166.259 119.959 166.138C119.829 166.008 119.677 165.917 119.504 165.865C119.339 165.804 119.166 165.774 118.984 165.774C118.741 165.774 118.516 165.813 118.308 165.891C118.1 165.969 117.918 166.095 117.762 166.268C117.606 166.433 117.485 166.645 117.398 166.905C117.311 167.165 117.268 167.473 117.268 167.828V171H116.098V161.172ZM124.206 168.348C124.206 168.617 124.262 168.864 124.375 169.089C124.496 169.306 124.652 169.492 124.843 169.648C125.033 169.804 125.254 169.925 125.506 170.012C125.757 170.099 126.017 170.142 126.286 170.142C126.65 170.142 126.966 170.06 127.235 169.895C127.503 169.722 127.75 169.496 127.976 169.219L128.86 169.895C128.21 170.736 127.3 171.156 126.13 171.156C125.644 171.156 125.202 171.074 124.804 170.909C124.414 170.744 124.08 170.519 123.803 170.233C123.534 169.938 123.326 169.596 123.179 169.206C123.031 168.807 122.958 168.378 122.958 167.919C122.958 167.46 123.036 167.035 123.192 166.645C123.356 166.246 123.577 165.904 123.855 165.618C124.141 165.323 124.479 165.094 124.869 164.929C125.259 164.764 125.683 164.682 126.143 164.682C126.689 164.682 127.148 164.777 127.521 164.968C127.902 165.159 128.214 165.41 128.457 165.722C128.699 166.025 128.873 166.372 128.977 166.762C129.089 167.143 129.146 167.533 129.146 167.932V168.348H124.206ZM127.898 167.412C127.889 167.152 127.846 166.914 127.768 166.697C127.698 166.48 127.59 166.294 127.443 166.138C127.295 165.973 127.109 165.848 126.884 165.761C126.667 165.666 126.411 165.618 126.117 165.618C125.831 165.618 125.566 165.674 125.324 165.787C125.09 165.891 124.89 166.03 124.726 166.203C124.561 166.376 124.431 166.571 124.336 166.788C124.249 166.996 124.206 167.204 124.206 167.412H127.898ZM126.91 163.668H125.831L123.894 161.796H125.558L126.91 163.668ZM130.545 164.838H131.637V165.8H131.663C131.689 165.713 131.754 165.605 131.858 165.475C131.971 165.345 132.109 165.224 132.274 165.111C132.447 164.99 132.647 164.89 132.872 164.812C133.106 164.725 133.362 164.682 133.639 164.682C134.098 164.682 134.484 164.777 134.796 164.968C135.108 165.159 135.364 165.445 135.563 165.826C135.762 165.445 136.044 165.159 136.408 164.968C136.772 164.777 137.14 164.682 137.513 164.682C137.99 164.682 138.38 164.76 138.683 164.916C138.986 165.072 139.225 165.28 139.398 165.54C139.571 165.791 139.688 166.082 139.749 166.411C139.818 166.732 139.853 167.065 139.853 167.412V171H138.683V167.568C138.683 167.334 138.666 167.109 138.631 166.892C138.605 166.675 138.544 166.485 138.449 166.32C138.354 166.155 138.219 166.025 138.046 165.93C137.873 165.826 137.643 165.774 137.357 165.774C136.794 165.774 136.391 165.947 136.148 166.294C135.905 166.641 135.784 167.087 135.784 167.633V171H134.614V167.776C134.614 167.481 134.597 167.213 134.562 166.97C134.536 166.727 134.475 166.519 134.38 166.346C134.293 166.164 134.163 166.025 133.99 165.93C133.825 165.826 133.6 165.774 133.314 165.774C133.106 165.774 132.902 165.817 132.703 165.904C132.512 165.982 132.343 166.103 132.196 166.268C132.049 166.433 131.932 166.645 131.845 166.905C131.758 167.156 131.715 167.455 131.715 167.802V171H130.545V164.838ZM142.499 168.348C142.499 168.617 142.556 168.864 142.668 169.089C142.79 169.306 142.946 169.492 143.136 169.648C143.327 169.804 143.548 169.925 143.799 170.012C144.051 170.099 144.311 170.142 144.579 170.142C144.943 170.142 145.26 170.06 145.528 169.895C145.797 169.722 146.044 169.496 146.269 169.219L147.153 169.895C146.503 170.736 145.593 171.156 144.423 171.156C143.938 171.156 143.496 171.074 143.097 170.909C142.707 170.744 142.374 170.519 142.096 170.233C141.828 169.938 141.62 169.596 141.472 169.206C141.325 168.807 141.251 168.378 141.251 167.919C141.251 167.46 141.329 167.035 141.485 166.645C141.65 166.246 141.871 165.904 142.148 165.618C142.434 165.323 142.772 165.094 143.162 164.929C143.552 164.764 143.977 164.682 144.436 164.682C144.982 164.682 145.442 164.777 145.814 164.968C146.196 165.159 146.508 165.41 146.75 165.722C146.993 166.025 147.166 166.372 147.27 166.762C147.383 167.143 147.439 167.533 147.439 167.932V168.348H142.499ZM146.191 167.412C146.183 167.152 146.139 166.914 146.061 166.697C145.992 166.48 145.884 166.294 145.736 166.138C145.589 165.973 145.403 165.848 145.177 165.761C144.961 165.666 144.705 165.618 144.41 165.618C144.124 165.618 143.86 165.674 143.617 165.787C143.383 165.891 143.184 166.03 143.019 166.203C142.855 166.376 142.725 166.571 142.629 166.788C142.543 166.996 142.499 167.204 142.499 167.412H146.191Z" fill="#9DA0A5"/>
<path d="M296.794 150.666C296.366 151.062 296.366 151.738 296.794 152.134L300.973 156L296.794 159.866C296.366 160.262 296.366 160.938 296.794 161.334L296.834 161.372C297.218 161.726 297.809 161.726 298.193 161.372L303.206 156.734C303.634 156.338 303.634 155.662 303.206 155.266L298.193 150.628C297.809 150.274 297.218 150.274 296.834 150.628L296.794 150.666Z" fill="#8DE8FE"/>
<rect y="40" width="328" height="72" rx="14" fill="#242B35"/>
<path d="M27.328 71.168C25.9307 71.9147 24.368 72.288 22.64 72.288C21.7653 72.288 20.96 72.1493 20.224 71.872C19.4987 71.584 18.8693 71.184 18.336 70.672C17.8133 70.1493 17.4027 69.5253 17.104 68.8C16.8053 68.0747 16.656 67.2693 16.656 66.384C16.656 65.4773 16.8053 64.656 17.104 63.92C17.4027 63.1733 17.8133 62.5387 18.336 62.016C18.8693 61.4933 19.4987 61.0933 20.224 60.816C20.96 60.528 21.7653 60.384 22.64 60.384C23.504 60.384 24.3147 60.4907 25.072 60.704C25.8293 60.9067 26.5067 61.2747 27.104 61.808L25.616 63.312C25.2533 62.96 24.8107 62.688 24.288 62.496C23.776 62.304 23.232 62.208 22.656 62.208C22.0693 62.208 21.536 62.3147 21.056 62.528C20.5867 62.7307 20.1813 63.0187 19.84 63.392C19.4987 63.7547 19.232 64.1813 19.04 64.672C18.8587 65.1627 18.768 65.6907 18.768 66.256C18.768 66.864 18.8587 67.424 19.04 67.936C19.232 68.448 19.4987 68.8907 19.84 69.264C20.1813 69.6373 20.5867 69.9307 21.056 70.144C21.536 70.3573 22.0693 70.464 22.656 70.464C23.168 70.464 23.648 70.416 24.096 70.32C24.5547 70.224 24.96 70.0747 25.312 69.872V67.2H22.992V65.376H27.328V71.168ZM31.0771 68.832C31.1411 69.408 31.3651 69.856 31.7491 70.176C32.1331 70.496 32.5971 70.656 33.1411 70.656C33.6211 70.656 34.0211 70.56 34.3411 70.368C34.6718 70.1653 34.9598 69.9147 35.2051 69.616L36.5811 70.656C36.1331 71.2107 35.6318 71.6053 35.0771 71.84C34.5225 72.0747 33.9411 72.192 33.3331 72.192C32.7571 72.192 32.2131 72.096 31.7011 71.904C31.1891 71.712 30.7465 71.44 30.3731 71.088C29.9998 70.736 29.7011 70.3147 29.4771 69.824C29.2638 69.3227 29.1571 68.768 29.1571 68.16C29.1571 67.552 29.2638 67.0027 29.4771 66.512C29.7011 66.0107 29.9998 65.584 30.3731 65.232C30.7465 64.88 31.1891 64.608 31.7011 64.416C32.2131 64.224 32.7571 64.128 33.3331 64.128C33.8665 64.128 34.3518 64.224 34.7891 64.416C35.2371 64.5973 35.6158 64.864 35.9251 65.216C36.2451 65.568 36.4905 66.0053 36.6611 66.528C36.8425 67.04 36.9331 67.632 36.9331 68.304V68.832H31.0771ZM35.0131 67.392C35.0025 66.8267 34.8265 66.384 34.4851 66.064C34.1438 65.7333 33.6691 65.568 33.0611 65.568C32.4851 65.568 32.0265 65.7333 31.6851 66.064C31.3545 66.3947 31.1518 66.8373 31.0771 67.392H35.0131ZM42.8246 66.448C42.4513 65.9253 41.95 65.664 41.3206 65.664C41.0646 65.664 40.814 65.728 40.5686 65.856C40.3233 65.984 40.2006 66.192 40.2006 66.48C40.2006 66.7147 40.302 66.8853 40.5046 66.992C40.7073 67.0987 40.9633 67.1893 41.2726 67.264C41.582 67.3387 41.9126 67.4187 42.2646 67.504C42.6273 67.5787 42.9633 67.7013 43.2726 67.872C43.582 68.032 43.838 68.256 44.0406 68.544C44.2433 68.832 44.3446 69.2267 44.3446 69.728C44.3446 70.1867 44.2433 70.576 44.0406 70.896C43.8486 71.2053 43.5926 71.456 43.2726 71.648C42.9633 71.84 42.6113 71.9787 42.2166 72.064C41.822 72.1493 41.4273 72.192 41.0326 72.192C40.4353 72.192 39.886 72.1067 39.3846 71.936C38.8833 71.7653 38.4353 71.456 38.0406 71.008L39.3206 69.808C39.566 70.0853 39.8273 70.3147 40.1046 70.496C40.3926 70.6667 40.7393 70.752 41.1446 70.752C41.2833 70.752 41.4273 70.736 41.5766 70.704C41.726 70.672 41.8646 70.6187 41.9926 70.544C42.1206 70.4693 42.222 70.3787 42.2966 70.272C42.382 70.1547 42.4246 70.0213 42.4246 69.872C42.4246 69.6053 42.3233 69.408 42.1206 69.28C41.918 69.152 41.662 69.0507 41.3526 68.976C41.0433 68.8907 40.7073 68.816 40.3446 68.752C39.9926 68.6773 39.662 68.5653 39.3526 68.416C39.0433 68.256 38.7873 68.0373 38.5846 67.76C38.382 67.4827 38.2806 67.0987 38.2806 66.608C38.2806 66.1813 38.366 65.8133 38.5366 65.504C38.718 65.184 38.9526 64.9227 39.2406 64.72C39.5286 64.5173 39.8593 64.368 40.2326 64.272C40.606 64.176 40.9846 64.128 41.3686 64.128C41.8806 64.128 42.3873 64.2187 42.8886 64.4C43.39 64.5707 43.7953 64.8693 44.1046 65.296L42.8246 66.448ZM44.942 65.952V64.32H46.526V62.096H48.446V64.32H50.558V65.952H48.446V69.312C48.446 69.696 48.5153 70 48.654 70.224C48.8033 70.448 49.0913 70.56 49.518 70.56C49.6887 70.56 49.8753 70.544 50.078 70.512C50.2807 70.4693 50.4407 70.4053 50.558 70.32V71.936C50.3553 72.032 50.1047 72.096 49.806 72.128C49.518 72.1707 49.262 72.192 49.038 72.192C48.526 72.192 48.1047 72.1333 47.774 72.016C47.454 71.9093 47.198 71.744 47.006 71.52C46.8247 71.2853 46.6967 70.9973 46.622 70.656C46.558 70.3147 46.526 69.92 46.526 69.472V65.952H44.942ZM52.1044 64.32H54.0244V72H52.1044V64.32ZM51.8324 61.712C51.8324 61.4027 51.9444 61.136 52.1684 60.912C52.403 60.6773 52.6964 60.56 53.0484 60.56C53.4004 60.56 53.6937 60.672 53.9284 60.896C54.1737 61.1093 54.2964 61.3813 54.2964 61.712C54.2964 62.0427 54.1737 62.32 53.9284 62.544C53.6937 62.7573 53.4004 62.864 53.0484 62.864C52.6964 62.864 52.403 62.752 52.1684 62.528C51.9444 62.2933 51.8324 62.0213 51.8324 61.712ZM55.8446 68.16C55.8446 67.552 55.9513 67.0027 56.1646 66.512C56.3886 66.0107 56.6873 65.584 57.0606 65.232C57.434 64.88 57.8766 64.608 58.3886 64.416C58.9006 64.224 59.4446 64.128 60.0206 64.128C60.5966 64.128 61.1406 64.224 61.6526 64.416C62.1646 64.608 62.6073 64.88 62.9806 65.232C63.354 65.584 63.6473 66.0107 63.8606 66.512C64.0846 67.0027 64.1966 67.552 64.1966 68.16C64.1966 68.768 64.0846 69.3227 63.8606 69.824C63.6473 70.3147 63.354 70.736 62.9806 71.088C62.6073 71.44 62.1646 71.712 61.6526 71.904C61.1406 72.096 60.5966 72.192 60.0206 72.192C59.4446 72.192 58.9006 72.096 58.3886 71.904C57.8766 71.712 57.434 71.44 57.0606 71.088C56.6873 70.736 56.3886 70.3147 56.1646 69.824C55.9513 69.3227 55.8446 68.768 55.8446 68.16ZM57.7646 68.16C57.7646 68.4587 57.8126 68.7467 57.9086 69.024C58.0153 69.3013 58.1646 69.5467 58.3566 69.76C58.5593 69.9733 58.7993 70.144 59.0766 70.272C59.354 70.4 59.6686 70.464 60.0206 70.464C60.3726 70.464 60.6873 70.4 60.9646 70.272C61.242 70.144 61.4766 69.9733 61.6686 69.76C61.8713 69.5467 62.0206 69.3013 62.1166 69.024C62.2233 68.7467 62.2766 68.4587 62.2766 68.16C62.2766 67.8613 62.2233 67.5733 62.1166 67.296C62.0206 67.0187 61.8713 66.7733 61.6686 66.56C61.4766 66.3467 61.242 66.176 60.9646 66.048C60.6873 65.92 60.3726 65.856 60.0206 65.856C59.6686 65.856 59.354 65.92 59.0766 66.048C58.7993 66.176 58.5593 66.3467 58.3566 66.56C58.1646 66.7733 58.0153 67.0187 57.9086 67.296C57.8126 67.5733 57.7646 67.8613 57.7646 68.16ZM65.9943 64.32H67.8183V65.552H67.8503C68.0316 65.168 68.3089 64.8373 68.6823 64.56C69.0556 64.272 69.5623 64.128 70.2023 64.128C70.7143 64.128 71.1463 64.2133 71.4983 64.384C71.8609 64.5547 72.1543 64.7787 72.3783 65.056C72.6023 65.3333 72.7623 65.6533 72.8583 66.016C72.9543 66.3787 73.0023 66.7573 73.0023 67.152V72H71.0823V68.112C71.0823 67.8987 71.0716 67.664 71.0503 67.408C71.0289 67.1413 70.9703 66.896 70.8743 66.672C70.7889 66.4373 70.6503 66.2453 70.4583 66.096C70.2663 65.936 70.0049 65.856 69.6743 65.856C69.3543 65.856 69.0823 65.9093 68.8583 66.016C68.6449 66.1227 68.4636 66.2667 68.3143 66.448C68.1756 66.6293 68.0743 66.8373 68.0103 67.072C67.9463 67.3067 67.9143 67.552 67.9143 67.808V72H65.9943V64.32ZM85.9961 70.848H85.9641C85.6868 71.3173 85.3135 71.6587 84.8441 71.872C84.3748 72.0853 83.8681 72.192 83.3241 72.192C82.7268 72.192 82.1935 72.0907 81.7241 71.888C81.2655 71.6747 80.8708 71.3867 80.5401 71.024C80.2095 70.6613 79.9588 70.2347 79.7881 69.744C79.6175 69.2533 79.5321 68.7253 79.5321 68.16C79.5321 67.5947 79.6228 67.0667 79.8041 66.576C79.9855 66.0853 80.2361 65.6587 80.5561 65.296C80.8868 64.9333 81.2815 64.6507 81.7401 64.448C82.1988 64.2347 82.7001 64.128 83.2441 64.128C83.6068 64.128 83.9268 64.1653 84.2041 64.24C84.4815 64.3147 84.7268 64.4107 84.9401 64.528C85.1535 64.6453 85.3348 64.7733 85.4841 64.912C85.6335 65.04 85.7561 65.168 85.8521 65.296H85.9001V59.904H87.8201V72H85.9961V70.848ZM81.4521 68.16C81.4521 68.4587 81.5001 68.7467 81.5961 69.024C81.7028 69.3013 81.8521 69.5467 82.0441 69.76C82.2468 69.9733 82.4868 70.144 82.7641 70.272C83.0415 70.4 83.3561 70.464 83.7081 70.464C84.0601 70.464 84.3748 70.4 84.6521 70.272C84.9295 70.144 85.1641 69.9733 85.3561 69.76C85.5588 69.5467 85.7081 69.3013 85.8041 69.024C85.9108 68.7467 85.9641 68.4587 85.9641 68.16C85.9641 67.8613 85.9108 67.5733 85.8041 67.296C85.7081 67.0187 85.5588 66.7733 85.3561 66.56C85.1641 66.3467 84.9295 66.176 84.6521 66.048C84.3748 65.92 84.0601 65.856 83.7081 65.856C83.3561 65.856 83.0415 65.92 82.7641 66.048C82.4868 66.176 82.2468 66.3467 82.0441 66.56C81.8521 66.7733 81.7028 67.0187 81.5961 67.296C81.5001 67.5733 81.4521 67.8613 81.4521 68.16ZM91.5303 68.832C91.5943 69.408 91.8183 69.856 92.2023 70.176C92.5863 70.496 93.0503 70.656 93.5943 70.656C94.0743 70.656 94.4743 70.56 94.7943 70.368C95.1249 70.1653 95.4129 69.9147 95.6583 69.616L97.0343 70.656C96.5863 71.2107 96.0849 71.6053 95.5303 71.84C94.9756 72.0747 94.3943 72.192 93.7863 72.192C93.2103 72.192 92.6663 72.096 92.1543 71.904C91.6423 71.712 91.1996 71.44 90.8263 71.088C90.4529 70.736 90.1543 70.3147 89.9303 69.824C89.7169 69.3227 89.6103 68.768 89.6103 68.16C89.6103 67.552 89.7169 67.0027 89.9303 66.512C90.1543 66.0107 90.4529 65.584 90.8263 65.232C91.1996 64.88 91.6423 64.608 92.1543 64.416C92.6663 64.224 93.2103 64.128 93.7863 64.128C94.3196 64.128 94.8049 64.224 95.2423 64.416C95.6903 64.5973 96.0689 64.864 96.3783 65.216C96.6983 65.568 96.9436 66.0053 97.1143 66.528C97.2956 67.04 97.3863 67.632 97.3863 68.304V68.832H91.5303ZM95.4663 67.392C95.4556 66.8267 95.2796 66.384 94.9383 66.064C94.5969 65.7333 94.1223 65.568 93.5143 65.568C92.9383 65.568 92.4796 65.7333 92.1383 66.064C91.8076 66.3947 91.6049 66.8373 91.5303 67.392H95.4663ZM103.278 66.448C102.904 65.9253 102.403 65.664 101.774 65.664C101.518 65.664 101.267 65.728 101.022 65.856C100.776 65.984 100.654 66.192 100.654 66.48C100.654 66.7147 100.755 66.8853 100.958 66.992C101.16 67.0987 101.416 67.1893 101.726 67.264C102.035 67.3387 102.366 67.4187 102.718 67.504C103.08 67.5787 103.416 67.7013 103.726 67.872C104.035 68.032 104.291 68.256 104.494 68.544C104.696 68.832 104.798 69.2267 104.798 69.728C104.798 70.1867 104.696 70.576 104.494 70.896C104.302 71.2053 104.046 71.456 103.726 71.648C103.416 71.84 103.064 71.9787 102.67 72.064C102.275 72.1493 101.88 72.192 101.486 72.192C100.888 72.192 100.339 72.1067 99.8378 71.936C99.3364 71.7653 98.8884 71.456 98.4938 71.008L99.7738 69.808C100.019 70.0853 100.28 70.3147 100.558 70.496C100.846 70.6667 101.192 70.752 101.598 70.752C101.736 70.752 101.88 70.736 102.03 70.704C102.179 70.672 102.318 70.6187 102.446 70.544C102.574 70.4693 102.675 70.3787 102.75 70.272C102.835 70.1547 102.878 70.0213 102.878 69.872C102.878 69.6053 102.776 69.408 102.574 69.28C102.371 69.152 102.115 69.0507 101.806 68.976C101.496 68.8907 101.16 68.816 100.798 68.752C100.446 68.6773 100.115 68.5653 99.8058 68.416C99.4964 68.256 99.2404 68.0373 99.0378 67.76C98.8351 67.4827 98.7338 67.0987 98.7338 66.608C98.7338 66.1813 98.8191 65.8133 98.9898 65.504C99.1711 65.184 99.4058 64.9227 99.6938 64.72C99.9818 64.5173 100.312 64.368 100.686 64.272C101.059 64.176 101.438 64.128 101.822 64.128C102.334 64.128 102.84 64.2187 103.342 64.4C103.843 64.5707 104.248 64.8693 104.558 65.296L103.278 66.448ZM116.274 66.624C116.05 66.3893 115.815 66.2027 115.57 66.064C115.324 65.9253 115.074 65.856 114.818 65.856C114.466 65.856 114.151 65.92 113.874 66.048C113.596 66.176 113.356 66.3467 113.154 66.56C112.962 66.7733 112.812 67.0187 112.706 67.296C112.61 67.5733 112.562 67.8613 112.562 68.16C112.562 68.4587 112.61 68.7467 112.706 69.024C112.812 69.3013 112.962 69.5467 113.154 69.76C113.356 69.9733 113.596 70.144 113.874 70.272C114.151 70.4 114.466 70.464 114.818 70.464C115.116 70.464 115.394 70.4053 115.65 70.288C115.906 70.16 116.124 69.9787 116.306 69.744L117.586 71.12C117.394 71.312 117.17 71.4773 116.914 71.616C116.668 71.7547 116.418 71.8667 116.162 71.952C115.906 72.0373 115.66 72.096 115.426 72.128C115.191 72.1707 114.988 72.192 114.818 72.192C114.242 72.192 113.698 72.096 113.186 71.904C112.674 71.712 112.231 71.44 111.858 71.088C111.484 70.736 111.186 70.3147 110.962 69.824C110.748 69.3227 110.642 68.768 110.642 68.16C110.642 67.552 110.748 67.0027 110.962 66.512C111.186 66.0107 111.484 65.584 111.858 65.232C112.231 64.88 112.674 64.608 113.186 64.416C113.698 64.224 114.242 64.128 114.818 64.128C115.308 64.128 115.799 64.224 116.29 64.416C116.791 64.5973 117.228 64.8907 117.602 65.296L116.274 66.624ZM118.36 68.16C118.36 67.552 118.467 67.0027 118.68 66.512C118.904 66.0107 119.203 65.584 119.576 65.232C119.95 64.88 120.392 64.608 120.904 64.416C121.416 64.224 121.96 64.128 122.536 64.128C123.112 64.128 123.656 64.224 124.168 64.416C124.68 64.608 125.123 64.88 125.496 65.232C125.87 65.584 126.163 66.0107 126.376 66.512C126.6 67.0027 126.712 67.552 126.712 68.16C126.712 68.768 126.6 69.3227 126.376 69.824C126.163 70.3147 125.87 70.736 125.496 71.088C125.123 71.44 124.68 71.712 124.168 71.904C123.656 72.096 123.112 72.192 122.536 72.192C121.96 72.192 121.416 72.096 120.904 71.904C120.392 71.712 119.95 71.44 119.576 71.088C119.203 70.736 118.904 70.3147 118.68 69.824C118.467 69.3227 118.36 68.768 118.36 68.16ZM120.28 68.16C120.28 68.4587 120.328 68.7467 120.424 69.024C120.531 69.3013 120.68 69.5467 120.872 69.76C121.075 69.9733 121.315 70.144 121.592 70.272C121.87 70.4 122.184 70.464 122.536 70.464C122.888 70.464 123.203 70.4 123.48 70.272C123.758 70.144 123.992 69.9733 124.184 69.76C124.387 69.5467 124.536 69.3013 124.632 69.024C124.739 68.7467 124.792 68.4587 124.792 68.16C124.792 67.8613 124.739 67.5733 124.632 67.296C124.536 67.0187 124.387 66.7733 124.184 66.56C123.992 66.3467 123.758 66.176 123.48 66.048C123.203 65.92 122.888 65.856 122.536 65.856C122.184 65.856 121.87 65.92 121.592 66.048C121.315 66.176 121.075 66.3467 120.872 66.56C120.68 66.7733 120.531 67.0187 120.424 67.296C120.328 67.5733 120.28 67.8613 120.28 68.16ZM128.51 64.32H130.334V65.552H130.366C130.547 65.168 130.825 64.8373 131.198 64.56C131.571 64.272 132.078 64.128 132.718 64.128C133.23 64.128 133.662 64.2133 134.014 64.384C134.377 64.5547 134.67 64.7787 134.894 65.056C135.118 65.3333 135.278 65.6533 135.374 66.016C135.47 66.3787 135.518 66.7573 135.518 67.152V72H133.598V68.112C133.598 67.8987 133.587 67.664 133.566 67.408C133.545 67.1413 133.486 66.896 133.39 66.672C133.305 66.4373 133.166 66.2453 132.974 66.096C132.782 65.936 132.521 65.856 132.19 65.856C131.87 65.856 131.598 65.9093 131.374 66.016C131.161 66.1227 130.979 66.2667 130.83 66.448C130.691 66.6293 130.59 66.8373 130.526 67.072C130.462 67.3067 130.43 67.552 130.43 67.808V72H128.51V64.32ZM141.793 66.448C141.42 65.9253 140.919 65.664 140.289 65.664C140.033 65.664 139.783 65.728 139.537 65.856C139.292 65.984 139.169 66.192 139.169 66.48C139.169 66.7147 139.271 66.8853 139.473 66.992C139.676 67.0987 139.932 67.1893 140.241 67.264C140.551 67.3387 140.881 67.4187 141.233 67.504C141.596 67.5787 141.932 67.7013 142.241 67.872C142.551 68.032 142.807 68.256 143.009 68.544C143.212 68.832 143.313 69.2267 143.313 69.728C143.313 70.1867 143.212 70.576 143.009 70.896C142.817 71.2053 142.561 71.456 142.241 71.648C141.932 71.84 141.58 71.9787 141.185 72.064C140.791 72.1493 140.396 72.192 140.001 72.192C139.404 72.192 138.855 72.1067 138.353 71.936C137.852 71.7653 137.404 71.456 137.009 71.008L138.289 69.808C138.535 70.0853 138.796 70.3147 139.073 70.496C139.361 70.6667 139.708 70.752 140.113 70.752C140.252 70.752 140.396 70.736 140.545 70.704C140.695 70.672 140.833 70.6187 140.961 70.544C141.089 70.4693 141.191 70.3787 141.265 70.272C141.351 70.1547 141.393 70.0213 141.393 69.872C141.393 69.6053 141.292 69.408 141.089 69.28C140.887 69.152 140.631 69.0507 140.321 68.976C140.012 68.8907 139.676 68.816 139.313 68.752C138.961 68.6773 138.631 68.5653 138.321 68.416C138.012 68.256 137.756 68.0373 137.553 67.76C137.351 67.4827 137.249 67.0987 137.249 66.608C137.249 66.1813 137.335 65.8133 137.505 65.504C137.687 65.184 137.921 64.9227 138.209 64.72C138.497 64.5173 138.828 64.368 139.201 64.272C139.575 64.176 139.953 64.128 140.337 64.128C140.849 64.128 141.356 64.2187 141.857 64.4C142.359 64.5707 142.764 64.8693 143.073 65.296L141.793 66.448ZM146.343 68.832C146.407 69.408 146.631 69.856 147.015 70.176C147.399 70.496 147.863 70.656 148.407 70.656C148.887 70.656 149.287 70.56 149.607 70.368C149.937 70.1653 150.225 69.9147 150.471 69.616L151.847 70.656C151.399 71.2107 150.897 71.6053 150.343 71.84C149.788 72.0747 149.207 72.192 148.599 72.192C148.023 72.192 147.479 72.096 146.967 71.904C146.455 71.712 146.012 71.44 145.639 71.088C145.265 70.736 144.967 70.3147 144.743 69.824C144.529 69.3227 144.423 68.768 144.423 68.16C144.423 67.552 144.529 67.0027 144.743 66.512C144.967 66.0107 145.265 65.584 145.639 65.232C146.012 64.88 146.455 64.608 146.967 64.416C147.479 64.224 148.023 64.128 148.599 64.128C149.132 64.128 149.617 64.224 150.055 64.416C150.503 64.5973 150.881 64.864 151.191 65.216C151.511 65.568 151.756 66.0053 151.927 66.528C152.108 67.04 152.199 67.632 152.199 68.304V68.832H146.343ZM150.279 67.392C150.268 66.8267 150.092 66.384 149.751 66.064C149.409 65.7333 148.935 65.568 148.327 65.568C147.751 65.568 147.292 65.7333 146.951 66.064C146.62 66.3947 146.417 66.8373 146.343 67.392H150.279ZM153.994 64.32H155.818V65.552H155.85C156.032 65.168 156.309 64.8373 156.682 64.56C157.056 64.272 157.562 64.128 158.202 64.128C158.714 64.128 159.146 64.2133 159.498 64.384C159.861 64.5547 160.154 64.7787 160.378 65.056C160.602 65.3333 160.762 65.6533 160.858 66.016C160.954 66.3787 161.002 66.7573 161.002 67.152V72H159.082V68.112C159.082 67.8987 159.072 67.664 159.05 67.408C159.029 67.1413 158.97 66.896 158.874 66.672C158.789 66.4373 158.65 66.2453 158.458 66.096C158.266 65.936 158.005 65.856 157.674 65.856C157.354 65.856 157.082 65.9093 156.858 66.016C156.645 66.1227 156.464 66.2667 156.314 66.448C156.176 66.6293 156.074 66.8373 156.01 67.072C155.946 67.3067 155.914 67.552 155.914 67.808V72H153.994V64.32ZM162.286 65.952V64.32H163.87V62.096H165.79V64.32H167.902V65.952H165.79V69.312C165.79 69.696 165.859 70 165.998 70.224C166.147 70.448 166.435 70.56 166.862 70.56C167.032 70.56 167.219 70.544 167.422 70.512C167.624 70.4693 167.784 70.4053 167.902 70.32V71.936C167.699 72.032 167.448 72.096 167.15 72.128C166.862 72.1707 166.606 72.192 166.382 72.192C165.87 72.192 165.448 72.1333 165.118 72.016C164.798 71.9093 164.542 71.744 164.35 71.52C164.168 71.2853 164.04 70.9973 163.966 70.656C163.902 70.3147 163.87 69.92 163.87 69.472V65.952H162.286ZM170.937 68.832C171.001 69.408 171.225 69.856 171.609 70.176C171.993 70.496 172.457 70.656 173.001 70.656C173.481 70.656 173.881 70.56 174.201 70.368C174.531 70.1653 174.819 69.9147 175.065 69.616L176.441 70.656C175.993 71.2107 175.491 71.6053 174.937 71.84C174.382 72.0747 173.801 72.192 173.193 72.192C172.617 72.192 172.073 72.096 171.561 71.904C171.049 71.712 170.606 71.44 170.233 71.088C169.859 70.736 169.561 70.3147 169.337 69.824C169.123 69.3227 169.017 68.768 169.017 68.16C169.017 67.552 169.123 67.0027 169.337 66.512C169.561 66.0107 169.859 65.584 170.233 65.232C170.606 64.88 171.049 64.608 171.561 64.416C172.073 64.224 172.617 64.128 173.193 64.128C173.726 64.128 174.211 64.224 174.649 64.416C175.097 64.5973 175.475 64.864 175.785 65.216C176.105 65.568 176.35 66.0053 176.521 66.528C176.702 67.04 176.793 67.632 176.793 68.304V68.832H170.937ZM174.873 67.392C174.862 66.8267 174.686 66.384 174.345 66.064C174.003 65.7333 173.529 65.568 172.921 65.568C172.345 65.568 171.886 65.7333 171.545 66.064C171.214 66.3947 171.011 66.8373 170.937 67.392H174.873ZM178.508 64.32H180.332V65.52H180.364C180.535 65.1573 180.807 64.8373 181.18 64.56C181.564 64.272 182.076 64.128 182.716 64.128C183.921 64.128 184.721 64.6027 185.116 65.552C185.393 65.0613 185.74 64.704 186.156 64.48C186.572 64.2453 187.068 64.128 187.644 64.128C188.156 64.128 188.588 64.2133 188.94 64.384C189.292 64.5547 189.575 64.7893 189.788 65.088C190.012 65.3867 190.172 65.7387 190.268 66.144C190.364 66.5387 190.412 66.9653 190.412 67.424V72H188.492V67.648C188.492 67.4133 188.471 67.1893 188.428 66.976C188.385 66.752 188.311 66.56 188.204 66.4C188.097 66.2293 187.953 66.096 187.772 66C187.591 65.904 187.356 65.856 187.068 65.856C186.769 65.856 186.513 65.9147 186.3 66.032C186.097 66.1387 185.927 66.288 185.788 66.48C185.66 66.6613 185.564 66.8747 185.5 67.12C185.447 67.3547 185.42 67.5947 185.42 67.84V72H183.5V67.424C183.5 66.944 183.399 66.5653 183.196 66.288C182.993 66 182.657 65.856 182.188 65.856C181.868 65.856 181.596 65.9093 181.372 66.016C181.159 66.1227 180.977 66.2667 180.828 66.448C180.689 66.6293 180.588 66.8373 180.524 67.072C180.46 67.3067 180.428 67.552 180.428 67.808V72H178.508V64.32ZM194.046 68.832C194.11 69.408 194.334 69.856 194.718 70.176C195.102 70.496 195.566 70.656 196.11 70.656C196.59 70.656 196.99 70.56 197.31 70.368C197.641 70.1653 197.929 69.9147 198.174 69.616L199.55 70.656C199.102 71.2107 198.601 71.6053 198.046 71.84C197.491 72.0747 196.91 72.192 196.302 72.192C195.726 72.192 195.182 72.096 194.67 71.904C194.158 71.712 193.715 71.44 193.342 71.088C192.969 70.736 192.67 70.3147 192.446 69.824C192.233 69.3227 192.126 68.768 192.126 68.16C192.126 67.552 192.233 67.0027 192.446 66.512C192.67 66.0107 192.969 65.584 193.342 65.232C193.715 64.88 194.158 64.608 194.67 64.416C195.182 64.224 195.726 64.128 196.302 64.128C196.835 64.128 197.321 64.224 197.758 64.416C198.206 64.5973 198.585 64.864 198.894 65.216C199.214 65.568 199.459 66.0053 199.63 66.528C199.811 67.04 199.902 67.632 199.902 68.304V68.832H194.046ZM197.982 67.392C197.971 66.8267 197.795 66.384 197.454 66.064C197.113 65.7333 196.638 65.568 196.03 65.568C195.454 65.568 194.995 65.7333 194.654 66.064C194.323 66.3947 194.121 66.8373 194.046 67.392H197.982ZM201.697 64.32H203.521V65.552H203.553C203.735 65.168 204.012 64.8373 204.385 64.56C204.759 64.272 205.265 64.128 205.905 64.128C206.417 64.128 206.849 64.2133 207.201 64.384C207.564 64.5547 207.857 64.7787 208.081 65.056C208.305 65.3333 208.465 65.6533 208.561 66.016C208.657 66.3787 208.705 66.7573 208.705 67.152V72H206.785V68.112C206.785 67.8987 206.775 67.664 206.753 67.408C206.732 67.1413 206.673 66.896 206.577 66.672C206.492 66.4373 206.353 66.2453 206.161 66.096C205.969 65.936 205.708 65.856 205.377 65.856C205.057 65.856 204.785 65.9093 204.561 66.016C204.348 66.1227 204.167 66.2667 204.017 66.448C203.879 66.6293 203.777 66.8373 203.713 67.072C203.649 67.3067 203.617 67.552 203.617 67.808V72H201.697V64.32ZM209.989 65.952V64.32H211.573V62.096H213.493V64.32H215.605V65.952H213.493V69.312C213.493 69.696 213.562 70 213.701 70.224C213.85 70.448 214.138 70.56 214.565 70.56C214.736 70.56 214.922 70.544 215.125 70.512C215.328 70.4693 215.488 70.4053 215.605 70.32V71.936C215.402 72.032 215.152 72.096 214.853 72.128C214.565 72.1707 214.309 72.192 214.085 72.192C213.573 72.192 213.152 72.1333 212.821 72.016C212.501 71.9093 212.245 71.744 212.053 71.52C211.872 71.2853 211.744 70.9973 211.669 70.656C211.605 70.3147 211.573 69.92 211.573 69.472V65.952H209.989ZM221.2 66.448C220.826 65.9253 220.325 65.664 219.696 65.664C219.44 65.664 219.189 65.728 218.944 65.856C218.698 65.984 218.576 66.192 218.576 66.48C218.576 66.7147 218.677 66.8853 218.88 66.992C219.082 67.0987 219.338 67.1893 219.648 67.264C219.957 67.3387 220.288 67.4187 220.64 67.504C221.002 67.5787 221.338 67.7013 221.648 67.872C221.957 68.032 222.213 68.256 222.416 68.544C222.618 68.832 222.72 69.2267 222.72 69.728C222.72 70.1867 222.618 70.576 222.416 70.896C222.224 71.2053 221.968 71.456 221.648 71.648C221.338 71.84 220.986 71.9787 220.592 72.064C220.197 72.1493 219.802 72.192 219.408 72.192C218.81 72.192 218.261 72.1067 217.76 71.936C217.258 71.7653 216.81 71.456 216.416 71.008L217.696 69.808C217.941 70.0853 218.202 70.3147 218.48 70.496C218.768 70.6667 219.114 70.752 219.52 70.752C219.658 70.752 219.802 70.736 219.952 70.704C220.101 70.672 220.24 70.6187 220.368 70.544C220.496 70.4693 220.597 70.3787 220.672 70.272C220.757 70.1547 220.8 70.0213 220.8 69.872C220.8 69.6053 220.698 69.408 220.496 69.28C220.293 69.152 220.037 69.0507 219.728 68.976C219.418 68.8907 219.082 68.816 218.72 68.752C218.368 68.6773 218.037 68.5653 217.728 68.416C217.418 68.256 217.162 68.0373 216.96 67.76C216.757 67.4827 216.656 67.0987 216.656 66.608C216.656 66.1813 216.741 65.8133 216.912 65.504C217.093 65.184 217.328 64.9227 217.616 64.72C217.904 64.5173 218.234 64.368 218.608 64.272C218.981 64.176 219.36 64.128 219.744 64.128C220.256 64.128 220.762 64.2187 221.264 64.4C221.765 64.5707 222.17 64.8693 222.48 65.296L221.2 66.448Z" fill="#F3F3F4"/>
<path d="M17.183 81.796H18.821L23.891 89.362H23.917V81.796H25.165V91H23.579L18.457 83.434H18.431V91H17.183V81.796ZM28.1797 87.919C28.1797 88.231 28.2273 88.5213 28.3227 88.79C28.418 89.05 28.5523 89.2753 28.7257 89.466C28.899 89.648 29.1113 89.7953 29.3627 89.908C29.614 90.012 29.8957 90.064 30.2077 90.064C30.5197 90.064 30.8013 90.012 31.0527 89.908C31.304 89.7953 31.5163 89.648 31.6897 89.466C31.863 89.2753 31.9973 89.05 32.0927 88.79C32.188 88.5213 32.2357 88.231 32.2357 87.919C32.2357 87.607 32.188 87.321 32.0927 87.061C31.9973 86.7923 31.863 86.567 31.6897 86.385C31.5163 86.1943 31.304 86.047 31.0527 85.943C30.8013 85.8303 30.5197 85.774 30.2077 85.774C29.8957 85.774 29.614 85.8303 29.3627 85.943C29.1113 86.047 28.899 86.1943 28.7257 86.385C28.5523 86.567 28.418 86.7923 28.3227 87.061C28.2273 87.321 28.1797 87.607 28.1797 87.919ZM26.9317 87.919C26.9317 87.4683 27.014 87.048 27.1787 86.658C27.352 86.268 27.586 85.9257 27.8807 85.631C28.1753 85.3363 28.522 85.1067 28.9207 84.942C29.3193 84.7687 29.7483 84.682 30.2077 84.682C30.667 84.682 31.096 84.7687 31.4947 84.942C31.8933 85.1067 32.24 85.3363 32.5347 85.631C32.8293 85.9257 33.059 86.268 33.2237 86.658C33.397 87.048 33.4837 87.4683 33.4837 87.919C33.4837 88.3697 33.397 88.7943 33.2237 89.193C33.059 89.583 32.8293 89.9253 32.5347 90.22C32.24 90.506 31.8933 90.7357 31.4947 90.909C31.096 91.0737 30.667 91.156 30.2077 91.156C29.7483 91.156 29.3193 91.0737 28.9207 90.909C28.522 90.7357 28.1753 90.506 27.8807 90.22C27.586 89.9253 27.352 89.583 27.1787 89.193C27.014 88.7943 26.9317 88.3697 26.9317 87.919ZM38.2514 85.852H36.5744V88.647C36.5744 88.8203 36.5788 88.9937 36.5874 89.167C36.5961 89.3317 36.6264 89.4833 36.6784 89.622C36.7391 89.752 36.8258 89.8603 36.9384 89.947C37.0598 90.025 37.2331 90.064 37.4584 90.064C37.5971 90.064 37.7401 90.051 37.8874 90.025C38.0348 89.999 38.1691 89.9513 38.2904 89.882V90.948C38.1518 91.026 37.9698 91.078 37.7444 91.104C37.5278 91.1387 37.3588 91.156 37.2374 91.156C36.7868 91.156 36.4358 91.0953 36.1844 90.974C35.9418 90.844 35.7598 90.6793 35.6384 90.48C35.5258 90.2807 35.4564 90.0597 35.4304 89.817C35.4131 89.5657 35.4044 89.3143 35.4044 89.063V85.852H34.0524V84.838H35.4044V83.109H36.5744V84.838H38.2514V85.852ZM39.852 84.838H41.022V91H39.852V84.838ZM39.579 82.628C39.579 82.394 39.6613 82.1947 39.826 82.03C39.9993 81.8567 40.203 81.77 40.437 81.77C40.671 81.77 40.8703 81.8567 41.035 82.03C41.2083 82.1947 41.295 82.394 41.295 82.628C41.295 82.862 41.2083 83.0657 41.035 83.239C40.8703 83.4037 40.671 83.486 40.437 83.486C40.203 83.486 39.9993 83.4037 39.826 83.239C39.6613 83.0657 39.579 82.862 39.579 82.628ZM43.339 85.852H42.013V84.838H43.339V83.46C43.339 82.6367 43.495 82.0257 43.807 81.627C44.1277 81.2197 44.6737 81.016 45.445 81.016C45.575 81.016 45.7093 81.0203 45.848 81.029C45.9953 81.0377 46.1513 81.0637 46.316 81.107L46.186 82.147C46.0733 82.1037 45.965 82.0733 45.861 82.056C45.757 82.0387 45.6443 82.03 45.523 82.03C45.3063 82.03 45.133 82.0647 45.003 82.134C44.873 82.1947 44.769 82.2857 44.691 82.407C44.6217 82.5283 44.574 82.6757 44.548 82.849C44.5307 83.0137 44.522 83.2043 44.522 83.421V84.838H45.913V85.852H44.509V91H43.339V85.852ZM47.3041 84.838H48.4741V91H47.3041V84.838ZM47.0311 82.628C47.0311 82.394 47.1134 82.1947 47.2781 82.03C47.4514 81.8567 47.6551 81.77 47.8891 81.77C48.1231 81.77 48.3224 81.8567 48.4871 82.03C48.6604 82.1947 48.7471 82.394 48.7471 82.628C48.7471 82.862 48.6604 83.0657 48.4871 83.239C48.3224 83.4037 48.1231 83.486 47.8891 83.486C47.6551 83.486 47.4514 83.4037 47.2781 83.239C47.1134 83.0657 47.0311 82.862 47.0311 82.628ZM54.7431 86.476C54.5265 86.2507 54.2968 86.0817 54.0541 85.969C53.8201 85.8477 53.5385 85.787 53.2091 85.787C52.8885 85.787 52.6068 85.8477 52.3641 85.969C52.1301 86.0817 51.9308 86.242 51.7661 86.45C51.6101 86.6493 51.4888 86.8833 51.4021 87.152C51.3241 87.412 51.2851 87.685 51.2851 87.971C51.2851 88.257 51.3328 88.53 51.4281 88.79C51.5235 89.0413 51.6578 89.2623 51.8311 89.453C52.0045 89.6437 52.2125 89.7953 52.4551 89.908C52.6978 90.012 52.9708 90.064 53.2741 90.064C53.6035 90.064 53.8851 90.0077 54.1191 89.895C54.3531 89.7737 54.5698 89.6003 54.7691 89.375L55.6011 90.207C55.2978 90.545 54.9425 90.7877 54.5351 90.935C54.1365 91.0823 53.7118 91.156 53.2611 91.156C52.7845 91.156 52.3468 91.078 51.9481 90.922C51.5581 90.766 51.2201 90.5493 50.9341 90.272C50.6481 89.986 50.4271 89.648 50.2711 89.258C50.1151 88.8593 50.0371 88.4217 50.0371 87.945C50.0371 87.4683 50.1151 87.0307 50.2711 86.632C50.4271 86.2333 50.6438 85.891 50.9211 85.605C51.2071 85.319 51.5451 85.098 51.9351 84.942C52.3338 84.7773 52.7758 84.695 53.2611 84.695C53.7118 84.695 54.1408 84.7773 54.5481 84.942C54.9641 85.098 55.3238 85.3407 55.6271 85.67L54.7431 86.476ZM56.6336 85.592C56.963 85.2887 57.3443 85.0633 57.7776 84.916C58.211 84.76 58.6443 84.682 59.0776 84.682C59.5283 84.682 59.914 84.7383 60.2346 84.851C60.564 84.9637 60.8326 85.1153 61.0406 85.306C61.2486 85.4967 61.4003 85.7177 61.4956 85.969C61.5996 86.2117 61.6516 86.4673 61.6516 86.736V89.882C61.6516 90.0987 61.656 90.298 61.6646 90.48C61.6733 90.662 61.6863 90.8353 61.7036 91H60.6636C60.6376 90.688 60.6246 90.376 60.6246 90.064H60.5986C60.3386 90.4627 60.031 90.7443 59.6756 90.909C59.3203 91.0737 58.9086 91.156 58.4406 91.156C58.1546 91.156 57.8816 91.117 57.6216 91.039C57.3616 90.961 57.132 90.844 56.9326 90.688C56.742 90.532 56.5903 90.3413 56.4776 90.116C56.365 89.882 56.3086 89.6133 56.3086 89.31C56.3086 88.9113 56.3953 88.5777 56.5686 88.309C56.7506 88.0403 56.9933 87.8237 57.2966 87.659C57.6086 87.4857 57.9683 87.3643 58.3756 87.295C58.7916 87.217 59.2336 87.178 59.7016 87.178H60.5596V86.918C60.5596 86.762 60.5293 86.606 60.4686 86.45C60.408 86.294 60.317 86.1553 60.1956 86.034C60.0743 85.904 59.9226 85.8043 59.7406 85.735C59.5586 85.657 59.342 85.618 59.0906 85.618C58.8653 85.618 58.666 85.6397 58.4926 85.683C58.328 85.7263 58.1763 85.7827 58.0376 85.852C57.899 85.9127 57.7733 85.9863 57.6606 86.073C57.548 86.1597 57.4396 86.242 57.3356 86.32L56.6336 85.592ZM59.9356 88.036C59.6583 88.036 59.3723 88.0533 59.0776 88.088C58.7916 88.114 58.5273 88.1703 58.2846 88.257C58.0506 88.3437 57.8556 88.465 57.6996 88.621C57.5523 88.777 57.4786 88.9763 57.4786 89.219C57.4786 89.5743 57.5956 89.83 57.8296 89.986C58.0723 90.142 58.3973 90.22 58.8046 90.22C59.1253 90.22 59.3983 90.168 59.6236 90.064C59.849 89.9513 60.031 89.8083 60.1696 89.635C60.3083 89.4617 60.408 89.271 60.4686 89.063C60.5293 88.8463 60.5596 88.634 60.5596 88.426V88.036H59.9356ZM66.6508 85.852H64.9738V88.647C64.9738 88.8203 64.9782 88.9937 64.9868 89.167C64.9955 89.3317 65.0258 89.4833 65.0778 89.622C65.1385 89.752 65.2252 89.8603 65.3378 89.947C65.4592 90.025 65.6325 90.064 65.8578 90.064C65.9965 90.064 66.1395 90.051 66.2868 90.025C66.4342 89.999 66.5685 89.9513 66.6898 89.882V90.948C66.5512 91.026 66.3692 91.078 66.1438 91.104C65.9272 91.1387 65.7582 91.156 65.6368 91.156C65.1862 91.156 64.8352 91.0953 64.5838 90.974C64.3412 90.844 64.1592 90.6793 64.0378 90.48C63.9252 90.2807 63.8558 90.0597 63.8298 89.817C63.8125 89.5657 63.8038 89.3143 63.8038 89.063V85.852H62.4518V84.838H63.8038V83.109H64.9738V84.838H66.6508V85.852ZM68.2514 84.838H69.4214V91H68.2514V84.838ZM67.9784 82.628C67.9784 82.394 68.0607 82.1947 68.2254 82.03C68.3987 81.8567 68.6024 81.77 68.8364 81.77C69.0704 81.77 69.2697 81.8567 69.4344 82.03C69.6077 82.1947 69.6944 82.394 69.6944 82.628C69.6944 82.862 69.6077 83.0657 69.4344 83.239C69.2697 83.4037 69.0704 83.486 68.8364 83.486C68.6024 83.486 68.3987 83.4037 68.2254 83.239C68.0607 83.0657 67.9784 82.862 67.9784 82.628ZM72.2324 87.919C72.2324 88.231 72.2801 88.5213 72.3754 88.79C72.4707 89.05 72.6051 89.2753 72.7784 89.466C72.9517 89.648 73.1641 89.7953 73.4154 89.908C73.6667 90.012 73.9484 90.064 74.2604 90.064C74.5724 90.064 74.8541 90.012 75.1054 89.908C75.3567 89.7953 75.5691 89.648 75.7424 89.466C75.9157 89.2753 76.0501 89.05 76.1454 88.79C76.2407 88.5213 76.2884 88.231 76.2884 87.919C76.2884 87.607 76.2407 87.321 76.1454 87.061C76.0501 86.7923 75.9157 86.567 75.7424 86.385C75.5691 86.1943 75.3567 86.047 75.1054 85.943C74.8541 85.8303 74.5724 85.774 74.2604 85.774C73.9484 85.774 73.6667 85.8303 73.4154 85.943C73.1641 86.047 72.9517 86.1943 72.7784 86.385C72.6051 86.567 72.4707 86.7923 72.3754 87.061C72.2801 87.321 72.2324 87.607 72.2324 87.919ZM70.9844 87.919C70.9844 87.4683 71.0667 87.048 71.2314 86.658C71.4047 86.268 71.6387 85.9257 71.9334 85.631C72.2281 85.3363 72.5747 85.1067 72.9734 84.942C73.3721 84.7687 73.8011 84.682 74.2604 84.682C74.7197 84.682 75.1487 84.7687 75.5474 84.942C75.9461 85.1067 76.2927 85.3363 76.5874 85.631C76.8821 85.9257 77.1117 86.268 77.2764 86.658C77.4497 87.048 77.5364 87.4683 77.5364 87.919C77.5364 88.3697 77.4497 88.7943 77.2764 89.193C77.1117 89.583 76.8821 89.9253 76.5874 90.22C76.2927 90.506 75.9461 90.7357 75.5474 90.909C75.1487 91.0737 74.7197 91.156 74.2604 91.156C73.8011 91.156 73.3721 91.0737 72.9734 90.909C72.5747 90.7357 72.2281 90.506 71.9334 90.22C71.6387 89.9253 71.4047 89.583 71.2314 89.193C71.0667 88.7943 70.9844 88.3697 70.9844 87.919ZM79.0022 84.838H80.1722V85.787H80.1982C80.3455 85.4577 80.6012 85.1933 80.9652 84.994C81.3292 84.786 81.7495 84.682 82.2262 84.682C82.5208 84.682 82.8025 84.7297 83.0712 84.825C83.3485 84.9117 83.5868 85.0503 83.7862 85.241C83.9942 85.4317 84.1588 85.6787 84.2802 85.982C84.4015 86.2767 84.4622 86.6277 84.4622 87.035V91H83.2922V87.36C83.2922 87.074 83.2532 86.8313 83.1752 86.632C83.0972 86.424 82.9932 86.2593 82.8632 86.138C82.7332 86.008 82.5815 85.917 82.4082 85.865C82.2435 85.8043 82.0702 85.774 81.8882 85.774C81.6455 85.774 81.4202 85.813 81.2122 85.891C81.0042 85.969 80.8222 86.0947 80.6662 86.268C80.5102 86.4327 80.3888 86.645 80.3022 86.905C80.2155 87.165 80.1722 87.4727 80.1722 87.828V91H79.0022V84.838ZM89.5018 86.385C89.3631 86.2117 89.1898 86.0687 88.9818 85.956C88.7825 85.8347 88.5355 85.774 88.2408 85.774C87.9635 85.774 87.7208 85.8347 87.5128 85.956C87.3135 86.0687 87.2138 86.2377 87.2138 86.463C87.2138 86.645 87.2701 86.7923 87.3828 86.905C87.5041 87.0177 87.6428 87.1087 87.7988 87.178C87.9635 87.2473 88.1368 87.2993 88.3188 87.334C88.5008 87.3687 88.6568 87.399 88.7868 87.425C89.0381 87.4857 89.2721 87.5593 89.4888 87.646C89.7141 87.7327 89.9048 87.8453 90.0608 87.984C90.2255 88.1227 90.3511 88.2917 90.4378 88.491C90.5331 88.6903 90.5808 88.933 90.5808 89.219C90.5808 89.5657 90.5071 89.8647 90.3598 90.116C90.2125 90.3587 90.0218 90.558 89.7878 90.714C89.5538 90.87 89.2851 90.9827 88.9818 91.052C88.6871 91.1213 88.3881 91.156 88.0848 91.156C87.5735 91.156 87.1228 91.078 86.7328 90.922C86.3515 90.766 86.0091 90.48 85.7058 90.064L86.5898 89.336C86.7805 89.5267 86.9928 89.6957 87.2268 89.843C87.4608 89.9903 87.7468 90.064 88.0848 90.064C88.2321 90.064 88.3795 90.051 88.5268 90.025C88.6828 89.9903 88.8171 89.9427 88.9298 89.882C89.0511 89.8127 89.1465 89.7303 89.2158 89.635C89.2938 89.531 89.3328 89.414 89.3328 89.284C89.3328 89.1107 89.2765 88.9677 89.1638 88.855C89.0598 88.7423 88.9298 88.6557 88.7738 88.595C88.6265 88.5257 88.4661 88.4737 88.2928 88.439C88.1281 88.3957 87.9808 88.361 87.8508 88.335C87.5995 88.2743 87.3611 88.205 87.1358 88.127C86.9105 88.049 86.7111 87.945 86.5378 87.815C86.3645 87.685 86.2258 87.5203 86.1218 87.321C86.0178 87.1217 85.9658 86.8747 85.9658 86.58C85.9658 86.2593 86.0308 85.982 86.1608 85.748C86.2995 85.5053 86.4771 85.306 86.6938 85.15C86.9191 84.994 87.1705 84.877 87.4478 84.799C87.7338 84.721 88.0198 84.682 88.3058 84.682C88.7218 84.682 89.1205 84.76 89.5018 84.916C89.8831 85.072 90.1865 85.332 90.4118 85.696L89.5018 86.385ZM92.8082 92.716H91.7422L92.6392 89.518H93.9002L92.8082 92.716ZM100.122 88.348C100.122 88.6167 100.179 88.8637 100.291 89.089C100.413 89.3057 100.569 89.492 100.759 89.648C100.95 89.804 101.171 89.9253 101.422 90.012C101.674 90.0987 101.934 90.142 102.202 90.142C102.566 90.142 102.883 90.0597 103.151 89.895C103.42 89.7217 103.667 89.4963 103.892 89.219L104.776 89.895C104.126 90.7357 103.216 91.156 102.046 91.156C101.561 91.156 101.119 91.0737 100.72 90.909C100.33 90.7443 99.9968 90.519 99.7195 90.233C99.4508 89.9383 99.2428 89.596 99.0955 89.206C98.9482 88.8073 98.8745 88.3783 98.8745 87.919C98.8745 87.4597 98.9525 87.035 99.1085 86.645C99.2732 86.2463 99.4942 85.904 99.7715 85.618C100.057 85.3233 100.395 85.0937 100.785 84.929C101.175 84.7643 101.6 84.682 102.059 84.682C102.605 84.682 103.065 84.7773 103.437 84.968C103.819 85.1587 104.131 85.41 104.373 85.722C104.616 86.0253 104.789 86.372 104.893 86.762C105.006 87.1433 105.062 87.5333 105.062 87.932V88.348H100.122ZM103.814 87.412C103.806 87.152 103.762 86.9137 103.684 86.697C103.615 86.4803 103.507 86.294 103.359 86.138C103.212 85.9733 103.026 85.8477 102.8 85.761C102.584 85.6657 102.328 85.618 102.033 85.618C101.747 85.618 101.483 85.6743 101.24 85.787C101.006 85.891 100.807 86.0297 100.642 86.203C100.478 86.3763 100.348 86.5713 100.252 86.788C100.166 86.996 100.122 87.204 100.122 87.412H103.814ZM109.231 88.4H106.033V87.308H109.231V88.4ZM110.575 84.838H111.667V85.8H111.693C111.719 85.7133 111.784 85.605 111.888 85.475C112.001 85.345 112.14 85.2237 112.304 85.111C112.478 84.9897 112.677 84.89 112.902 84.812C113.136 84.7253 113.392 84.682 113.669 84.682C114.129 84.682 114.514 84.7773 114.826 84.968C115.138 85.1587 115.394 85.4447 115.593 85.826C115.793 85.4447 116.074 85.1587 116.438 84.968C116.802 84.7773 117.171 84.682 117.543 84.682C118.02 84.682 118.41 84.76 118.713 84.916C119.017 85.072 119.255 85.28 119.428 85.54C119.602 85.7913 119.719 86.0817 119.779 86.411C119.849 86.7317 119.883 87.0653 119.883 87.412V91H118.713V87.568C118.713 87.334 118.696 87.1087 118.661 86.892C118.635 86.6753 118.575 86.4847 118.479 86.32C118.384 86.1553 118.25 86.0253 118.076 85.93C117.903 85.826 117.673 85.774 117.387 85.774C116.824 85.774 116.421 85.9473 116.178 86.294C115.936 86.6407 115.814 87.087 115.814 87.633V91H114.644V87.776C114.644 87.4813 114.627 87.2127 114.592 86.97C114.566 86.7273 114.506 86.5193 114.41 86.346C114.324 86.164 114.194 86.0253 114.02 85.93C113.856 85.826 113.63 85.774 113.344 85.774C113.136 85.774 112.933 85.8173 112.733 85.904C112.543 85.982 112.374 86.1033 112.226 86.268C112.079 86.4327 111.962 86.645 111.875 86.905C111.789 87.1563 111.745 87.4553 111.745 87.802V91H110.575V84.838ZM121.672 85.592C122.001 85.2887 122.382 85.0633 122.816 84.916C123.249 84.76 123.682 84.682 124.116 84.682C124.566 84.682 124.952 84.7383 125.273 84.851C125.602 84.9637 125.871 85.1153 126.079 85.306C126.287 85.4967 126.438 85.7177 126.534 85.969C126.638 86.2117 126.69 86.4673 126.69 86.736V89.882C126.69 90.0987 126.694 90.298 126.703 90.48C126.711 90.662 126.724 90.8353 126.742 91H125.702C125.676 90.688 125.663 90.376 125.663 90.064H125.637C125.377 90.4627 125.069 90.7443 124.714 90.909C124.358 91.0737 123.947 91.156 123.479 91.156C123.193 91.156 122.92 91.117 122.66 91.039C122.4 90.961 122.17 90.844 121.971 90.688C121.78 90.532 121.628 90.3413 121.516 90.116C121.403 89.882 121.347 89.6133 121.347 89.31C121.347 88.9113 121.433 88.5777 121.607 88.309C121.789 88.0403 122.031 87.8237 122.335 87.659C122.647 87.4857 123.006 87.3643 123.414 87.295C123.83 87.217 124.272 87.178 124.74 87.178H125.598V86.918C125.598 86.762 125.567 86.606 125.507 86.45C125.446 86.294 125.355 86.1553 125.234 86.034C125.112 85.904 124.961 85.8043 124.779 85.735C124.597 85.657 124.38 85.618 124.129 85.618C123.903 85.618 123.704 85.6397 123.531 85.683C123.366 85.7263 123.214 85.7827 123.076 85.852C122.937 85.9127 122.811 85.9863 122.699 86.073C122.586 86.1597 122.478 86.242 122.374 86.32L121.672 85.592ZM124.974 88.036C124.696 88.036 124.41 88.0533 124.116 88.088C123.83 88.114 123.565 88.1703 123.323 88.257C123.089 88.3437 122.894 88.465 122.738 88.621C122.59 88.777 122.517 88.9763 122.517 89.219C122.517 89.5743 122.634 89.83 122.868 89.986C123.11 90.142 123.435 90.22 123.843 90.22C124.163 90.22 124.436 90.168 124.662 90.064C124.887 89.9513 125.069 89.8083 125.208 89.635C125.346 89.4617 125.446 89.271 125.507 89.063C125.567 88.8463 125.598 88.634 125.598 88.426V88.036H124.974ZM128.478 84.838H129.648V91H128.478V84.838ZM128.205 82.628C128.205 82.394 128.287 82.1947 128.452 82.03C128.625 81.8567 128.829 81.77 129.063 81.77C129.297 81.77 129.496 81.8567 129.661 82.03C129.834 82.1947 129.921 82.394 129.921 82.628C129.921 82.862 129.834 83.0657 129.661 83.239C129.496 83.4037 129.297 83.486 129.063 83.486C128.829 83.486 128.625 83.4037 128.452 83.239C128.287 83.0657 128.205 82.862 128.205 82.628ZM131.601 81.172H132.771V91H131.601V81.172ZM137.909 86.385C137.77 86.2117 137.597 86.0687 137.389 85.956C137.19 85.8347 136.943 85.774 136.648 85.774C136.371 85.774 136.128 85.8347 135.92 85.956C135.721 86.0687 135.621 86.2377 135.621 86.463C135.621 86.645 135.677 86.7923 135.79 86.905C135.911 87.0177 136.05 87.1087 136.206 87.178C136.371 87.2473 136.544 87.2993 136.726 87.334C136.908 87.3687 137.064 87.399 137.194 87.425C137.445 87.4857 137.679 87.5593 137.896 87.646C138.121 87.7327 138.312 87.8453 138.468 87.984C138.633 88.1227 138.758 88.2917 138.845 88.491C138.94 88.6903 138.988 88.933 138.988 89.219C138.988 89.5657 138.914 89.8647 138.767 90.116C138.62 90.3587 138.429 90.558 138.195 90.714C137.961 90.87 137.692 90.9827 137.389 91.052C137.094 91.1213 136.795 91.156 136.492 91.156C135.981 91.156 135.53 91.078 135.14 90.922C134.759 90.766 134.416 90.48 134.113 90.064L134.997 89.336C135.188 89.5267 135.4 89.6957 135.634 89.843C135.868 89.9903 136.154 90.064 136.492 90.064C136.639 90.064 136.787 90.051 136.934 90.025C137.09 89.9903 137.224 89.9427 137.337 89.882C137.458 89.8127 137.554 89.7303 137.623 89.635C137.701 89.531 137.74 89.414 137.74 89.284C137.74 89.1107 137.684 88.9677 137.571 88.855C137.467 88.7423 137.337 88.6557 137.181 88.595C137.034 88.5257 136.873 88.4737 136.7 88.439C136.535 88.3957 136.388 88.361 136.258 88.335C136.007 88.2743 135.768 88.205 135.543 88.127C135.318 88.049 135.118 87.945 134.945 87.815C134.772 87.685 134.633 87.5203 134.529 87.321C134.425 87.1217 134.373 86.8747 134.373 86.58C134.373 86.2593 134.438 85.982 134.568 85.748C134.707 85.5053 134.884 85.306 135.101 85.15C135.326 84.994 135.578 84.877 135.855 84.799C136.141 84.721 136.427 84.682 136.713 84.682C137.129 84.682 137.528 84.76 137.909 84.916C138.29 85.072 138.594 85.332 138.819 85.696L137.909 86.385ZM141.215 92.716H140.149L141.046 89.518H142.307L141.215 92.716ZM152.053 86.476C151.836 86.2507 151.606 86.0817 151.364 85.969C151.13 85.8477 150.848 85.787 150.519 85.787C150.198 85.787 149.916 85.8477 149.674 85.969C149.44 86.0817 149.24 86.242 149.076 86.45C148.92 86.6493 148.798 86.8833 148.712 87.152C148.634 87.412 148.595 87.685 148.595 87.971C148.595 88.257 148.642 88.53 148.738 88.79C148.833 89.0413 148.967 89.2623 149.141 89.453C149.314 89.6437 149.522 89.7953 149.765 89.908C150.007 90.012 150.28 90.064 150.584 90.064C150.913 90.064 151.195 90.0077 151.429 89.895C151.663 89.7737 151.879 89.6003 152.079 89.375L152.911 90.207C152.607 90.545 152.252 90.7877 151.845 90.935C151.446 91.0823 151.021 91.156 150.571 91.156C150.094 91.156 149.656 91.078 149.258 90.922C148.868 90.766 148.53 90.5493 148.244 90.272C147.958 89.986 147.737 89.648 147.581 89.258C147.425 88.8593 147.347 88.4217 147.347 87.945C147.347 87.4683 147.425 87.0307 147.581 86.632C147.737 86.2333 147.953 85.891 148.231 85.605C148.517 85.319 148.855 85.098 149.245 84.942C149.643 84.7773 150.085 84.695 150.571 84.695C151.021 84.695 151.45 84.7773 151.858 84.942C152.274 85.098 152.633 85.3407 152.937 85.67L152.053 86.476ZM154.866 87.919C154.866 88.231 154.914 88.5213 155.009 88.79C155.105 89.05 155.239 89.2753 155.412 89.466C155.586 89.648 155.798 89.7953 156.049 89.908C156.301 90.012 156.582 90.064 156.894 90.064C157.206 90.064 157.488 90.012 157.739 89.908C157.991 89.7953 158.203 89.648 158.376 89.466C158.55 89.2753 158.684 89.05 158.779 88.79C158.875 88.5213 158.922 88.231 158.922 87.919C158.922 87.607 158.875 87.321 158.779 87.061C158.684 86.7923 158.55 86.567 158.376 86.385C158.203 86.1943 157.991 86.047 157.739 85.943C157.488 85.8303 157.206 85.774 156.894 85.774C156.582 85.774 156.301 85.8303 156.049 85.943C155.798 86.047 155.586 86.1943 155.412 86.385C155.239 86.567 155.105 86.7923 155.009 87.061C154.914 87.321 154.866 87.607 154.866 87.919ZM153.618 87.919C153.618 87.4683 153.701 87.048 153.865 86.658C154.039 86.268 154.273 85.9257 154.567 85.631C154.862 85.3363 155.209 85.1067 155.607 84.942C156.006 84.7687 156.435 84.682 156.894 84.682C157.354 84.682 157.783 84.7687 158.181 84.942C158.58 85.1067 158.927 85.3363 159.221 85.631C159.516 85.9257 159.746 86.268 159.91 86.658C160.084 87.048 160.17 87.4683 160.17 87.919C160.17 88.3697 160.084 88.7943 159.91 89.193C159.746 89.583 159.516 89.9253 159.221 90.22C158.927 90.506 158.58 90.7357 158.181 90.909C157.783 91.0737 157.354 91.156 156.894 91.156C156.435 91.156 156.006 91.0737 155.607 90.909C155.209 90.7357 154.862 90.506 154.567 90.22C154.273 89.9253 154.039 89.583 153.865 89.193C153.701 88.7943 153.618 88.3697 153.618 87.919ZM161.636 84.838H162.806V85.787H162.832C162.979 85.4577 163.235 85.1933 163.599 84.994C163.963 84.786 164.383 84.682 164.86 84.682C165.155 84.682 165.436 84.7297 165.705 84.825C165.982 84.9117 166.221 85.0503 166.42 85.241C166.628 85.4317 166.793 85.6787 166.914 85.982C167.035 86.2767 167.096 86.6277 167.096 87.035V91H165.926V87.36C165.926 87.074 165.887 86.8313 165.809 86.632C165.731 86.424 165.627 86.2593 165.497 86.138C165.367 86.008 165.215 85.917 165.042 85.865C164.877 85.8043 164.704 85.774 164.522 85.774C164.279 85.774 164.054 85.813 163.846 85.891C163.638 85.969 163.456 86.0947 163.3 86.268C163.144 86.4327 163.023 86.645 162.936 86.905C162.849 87.165 162.806 87.4727 162.806 87.828V91H161.636V84.838ZM169.315 85.852H167.989V84.838H169.315V83.46C169.315 82.6367 169.471 82.0257 169.783 81.627C170.103 81.2197 170.649 81.016 171.421 81.016C171.551 81.016 171.685 81.0203 171.824 81.029C171.971 81.0377 172.127 81.0637 172.292 81.107L172.162 82.147C172.049 82.1037 171.941 82.0733 171.837 82.056C171.733 82.0387 171.62 82.03 171.499 82.03C171.282 82.03 171.109 82.0647 170.979 82.134C170.849 82.1947 170.745 82.2857 170.667 82.407C170.597 82.5283 170.55 82.6757 170.524 82.849C170.506 83.0137 170.498 83.2043 170.498 83.421V84.838H171.889V85.852H170.485V91H169.315V85.852ZM173.28 84.838H174.45V91H173.28V84.838ZM173.007 82.628C173.007 82.394 173.089 82.1947 173.254 82.03C173.427 81.8567 173.631 81.77 173.865 81.77C174.099 81.77 174.298 81.8567 174.463 82.03C174.636 82.1947 174.723 82.394 174.723 82.628C174.723 82.862 174.636 83.0657 174.463 83.239C174.298 83.4037 174.099 83.486 173.865 83.486C173.631 83.486 173.427 83.4037 173.254 83.239C173.089 83.0657 173.007 82.862 173.007 82.628ZM182.487 91H181.317V90.116H181.291C181.065 90.4453 180.753 90.701 180.355 90.883C179.965 91.065 179.562 91.156 179.146 91.156C178.669 91.156 178.236 91.0737 177.846 90.909C177.464 90.7443 177.135 90.5147 176.858 90.22C176.589 89.9253 176.381 89.583 176.234 89.193C176.086 88.803 176.013 88.3783 176.013 87.919C176.013 87.4597 176.086 87.035 176.234 86.645C176.381 86.2463 176.589 85.904 176.858 85.618C177.135 85.3233 177.464 85.0937 177.846 84.929C178.236 84.7643 178.669 84.682 179.146 84.682C179.588 84.682 180.004 84.7773 180.394 84.968C180.784 85.15 181.083 85.4013 181.291 85.722H181.317V81.172H182.487V91ZM179.289 90.064C179.601 90.064 179.882 90.012 180.134 89.908C180.385 89.7953 180.597 89.648 180.771 89.466C180.944 89.2753 181.078 89.05 181.174 88.79C181.269 88.5213 181.317 88.231 181.317 87.919C181.317 87.607 181.269 87.321 181.174 87.061C181.078 86.7923 180.944 86.567 180.771 86.385C180.597 86.1943 180.385 86.047 180.134 85.943C179.882 85.8303 179.601 85.774 179.289 85.774C178.977 85.774 178.695 85.8303 178.444 85.943C178.192 86.047 177.98 86.1943 177.807 86.385C177.633 86.567 177.499 86.7923 177.404 87.061C177.308 87.321 177.261 87.607 177.261 87.919C177.261 88.231 177.308 88.5213 177.404 88.79C177.499 89.05 177.633 89.2753 177.807 89.466C177.98 89.648 178.192 89.7953 178.444 89.908C178.695 90.012 178.977 90.064 179.289 90.064ZM185.143 88.348C185.143 88.6167 185.199 88.8637 185.312 89.089C185.433 89.3057 185.589 89.492 185.78 89.648C185.971 89.804 186.192 89.9253 186.443 90.012C186.694 90.0987 186.954 90.142 187.223 90.142C187.587 90.142 187.903 90.0597 188.172 89.895C188.441 89.7217 188.688 89.4963 188.913 89.219L189.797 89.895C189.147 90.7357 188.237 91.156 187.067 91.156C186.582 91.156 186.14 91.0737 185.741 90.909C185.351 90.7443 185.017 90.519 184.74 90.233C184.471 89.9383 184.263 89.596 184.116 89.206C183.969 88.8073 183.895 88.3783 183.895 87.919C183.895 87.4597 183.973 87.035 184.129 86.645C184.294 86.2463 184.515 85.904 184.792 85.618C185.078 85.3233 185.416 85.0937 185.806 84.929C186.196 84.7643 186.621 84.682 187.08 84.682C187.626 84.682 188.085 84.7773 188.458 84.968C188.839 85.1587 189.151 85.41 189.394 85.722C189.637 86.0253 189.81 86.372 189.914 86.762C190.027 87.1433 190.083 87.5333 190.083 87.932V88.348H185.143ZM188.835 87.412C188.826 87.152 188.783 86.9137 188.705 86.697C188.636 86.4803 188.527 86.294 188.38 86.138C188.233 85.9733 188.046 85.8477 187.821 85.761C187.604 85.6657 187.349 85.618 187.054 85.618C186.768 85.618 186.504 85.6743 186.261 85.787C186.027 85.891 185.828 86.0297 185.663 86.203C185.498 86.3763 185.368 86.5713 185.273 86.788C185.186 86.996 185.143 87.204 185.143 87.412H188.835ZM191.483 84.838H192.653V85.787H192.679C192.826 85.4577 193.082 85.1933 193.446 84.994C193.81 84.786 194.23 84.682 194.707 84.682C195.001 84.682 195.283 84.7297 195.552 84.825C195.829 84.9117 196.067 85.0503 196.267 85.241C196.475 85.4317 196.639 85.6787 196.761 85.982C196.882 86.2767 196.943 86.6277 196.943 87.035V91H195.773V87.36C195.773 87.074 195.734 86.8313 195.656 86.632C195.578 86.424 195.474 86.2593 195.344 86.138C195.214 86.008 195.062 85.917 194.889 85.865C194.724 85.8043 194.551 85.774 194.369 85.774C194.126 85.774 193.901 85.813 193.693 85.891C193.485 85.969 193.303 86.0947 193.147 86.268C192.991 86.4327 192.869 86.645 192.783 86.905C192.696 87.165 192.653 87.4727 192.653 87.828V91H191.483V84.838ZM202.008 85.852H200.331V88.647C200.331 88.8203 200.336 88.9937 200.344 89.167C200.353 89.3317 200.383 89.4833 200.435 89.622C200.496 89.752 200.583 89.8603 200.695 89.947C200.817 90.025 200.99 90.064 201.215 90.064C201.354 90.064 201.497 90.051 201.644 90.025C201.792 89.999 201.926 89.9513 202.047 89.882V90.948C201.909 91.026 201.727 91.078 201.501 91.104C201.285 91.1387 201.116 91.156 200.994 91.156C200.544 91.156 200.193 91.0953 199.941 90.974C199.699 90.844 199.517 90.6793 199.395 90.48C199.283 90.2807 199.213 90.0597 199.187 89.817C199.17 89.5657 199.161 89.3143 199.161 89.063V85.852H197.809V84.838H199.161V83.109H200.331V84.838H202.008V85.852ZM203.609 84.838H204.779V91H203.609V84.838ZM203.336 82.628C203.336 82.394 203.418 82.1947 203.583 82.03C203.756 81.8567 203.96 81.77 204.194 81.77C204.428 81.77 204.627 81.8567 204.792 82.03C204.965 82.1947 205.052 82.394 205.052 82.628C205.052 82.862 204.965 83.0657 204.792 83.239C204.627 83.4037 204.428 83.486 204.194 83.486C203.96 83.486 203.756 83.4037 203.583 83.239C203.418 83.0657 203.336 82.862 203.336 82.628ZM206.667 85.592C206.996 85.2887 207.378 85.0633 207.811 84.916C208.244 84.76 208.678 84.682 209.111 84.682C209.562 84.682 209.947 84.7383 210.268 84.851C210.597 84.9637 210.866 85.1153 211.074 85.306C211.282 85.4967 211.434 85.7177 211.529 85.969C211.633 86.2117 211.685 86.4673 211.685 86.736V89.882C211.685 90.0987 211.689 90.298 211.698 90.48C211.707 90.662 211.72 90.8353 211.737 91H210.697C210.671 90.688 210.658 90.376 210.658 90.064H210.632C210.372 90.4627 210.064 90.7443 209.709 90.909C209.354 91.0737 208.942 91.156 208.474 91.156C208.188 91.156 207.915 91.117 207.655 91.039C207.395 90.961 207.165 90.844 206.966 90.688C206.775 90.532 206.624 90.3413 206.511 90.116C206.398 89.882 206.342 89.6133 206.342 89.31C206.342 88.9113 206.429 88.5777 206.602 88.309C206.784 88.0403 207.027 87.8237 207.33 87.659C207.642 87.4857 208.002 87.3643 208.409 87.295C208.825 87.217 209.267 87.178 209.735 87.178H210.593V86.918C210.593 86.762 210.563 86.606 210.502 86.45C210.441 86.294 210.35 86.1553 210.229 86.034C210.108 85.904 209.956 85.8043 209.774 85.735C209.592 85.657 209.375 85.618 209.124 85.618C208.899 85.618 208.699 85.6397 208.526 85.683C208.361 85.7263 208.21 85.7827 208.071 85.852C207.932 85.9127 207.807 85.9863 207.694 86.073C207.581 86.1597 207.473 86.242 207.369 86.32L206.667 85.592ZM209.969 88.036C209.692 88.036 209.406 88.0533 209.111 88.088C208.825 88.114 208.561 88.1703 208.318 88.257C208.084 88.3437 207.889 88.465 207.733 88.621C207.586 88.777 207.512 88.9763 207.512 89.219C207.512 89.5743 207.629 89.83 207.863 89.986C208.106 90.142 208.431 90.22 208.838 90.22C209.159 90.22 209.432 90.168 209.657 90.064C209.882 89.9513 210.064 89.8083 210.203 89.635C210.342 89.4617 210.441 89.271 210.502 89.063C210.563 88.8463 210.593 88.634 210.593 88.426V88.036H209.969ZM213.473 81.172H214.643V91H213.473V81.172ZM216.596 84.838H217.766V91H216.596V84.838ZM216.323 82.628C216.323 82.394 216.405 82.1947 216.57 82.03C216.743 81.8567 216.947 81.77 217.181 81.77C217.415 81.77 217.614 81.8567 217.779 82.03C217.952 82.1947 218.039 82.394 218.039 82.628C218.039 82.862 217.952 83.0657 217.779 83.239C217.614 83.4037 217.415 83.486 217.181 83.486C216.947 83.486 216.743 83.4037 216.57 83.239C216.405 83.0657 216.323 82.862 216.323 82.628ZM222.93 85.852H221.253V88.647C221.253 88.8203 221.257 88.9937 221.266 89.167C221.275 89.3317 221.305 89.4833 221.357 89.622C221.418 89.752 221.504 89.8603 221.617 89.947C221.738 90.025 221.912 90.064 222.137 90.064C222.276 90.064 222.419 90.051 222.566 90.025C222.713 89.999 222.848 89.9513 222.969 89.882V90.948C222.83 91.026 222.648 91.078 222.423 91.104C222.206 91.1387 222.037 91.156 221.916 91.156C221.465 91.156 221.114 91.0953 220.863 90.974C220.62 90.844 220.438 90.6793 220.317 90.48C220.204 90.2807 220.135 90.0597 220.109 89.817C220.092 89.5657 220.083 89.3143 220.083 89.063V85.852H218.731V84.838H220.083V83.109H221.253V84.838H222.93V85.852ZM225.324 88.348C225.324 88.6167 225.38 88.8637 225.493 89.089C225.614 89.3057 225.77 89.492 225.961 89.648C226.151 89.804 226.372 89.9253 226.624 90.012C226.875 90.0987 227.135 90.142 227.404 90.142C227.768 90.142 228.084 90.0597 228.353 89.895C228.621 89.7217 228.868 89.4963 229.094 89.219L229.978 89.895C229.328 90.7357 228.418 91.156 227.248 91.156C226.762 91.156 226.32 91.0737 225.922 90.909C225.532 90.7443 225.198 90.519 224.921 90.233C224.652 89.9383 224.444 89.596 224.297 89.206C224.149 88.8073 224.076 88.3783 224.076 87.919C224.076 87.4597 224.154 87.035 224.31 86.645C224.474 86.2463 224.695 85.904 224.973 85.618C225.259 85.3233 225.597 85.0937 225.987 84.929C226.377 84.7643 226.801 84.682 227.261 84.682C227.807 84.682 228.266 84.7773 228.639 84.968C229.02 85.1587 229.332 85.41 229.575 85.722C229.817 86.0253 229.991 86.372 230.095 86.762C230.207 87.1433 230.264 87.5333 230.264 87.932V88.348H225.324ZM229.016 87.412C229.007 87.152 228.964 86.9137 228.886 86.697C228.816 86.4803 228.708 86.294 228.561 86.138C228.413 85.9733 228.227 85.8477 228.002 85.761C227.785 85.6657 227.529 85.618 227.235 85.618C226.949 85.618 226.684 85.6743 226.442 85.787C226.208 85.891 226.008 86.0297 225.844 86.203C225.679 86.3763 225.549 86.5713 225.454 86.788C225.367 86.996 225.324 87.204 225.324 87.412H229.016ZM227.664 81.796H229.328L227.391 83.668H226.312L227.664 81.796Z" fill="#9DA0A5"/>
<path d="M296.794 70.6659C296.366 71.0617 296.366 71.7383 296.794 72.1341L300.973 76L296.794 79.8659C296.366 80.2617 296.366 80.9383 296.794 81.3341L296.834 81.3719C297.218 81.7264 297.809 81.7264 298.193 81.3719L303.206 76.7341C303.634 76.3383 303.634 75.6617 303.206 75.2659L298.193 70.6281C297.809 70.2736 297.218 70.2736 296.834 70.6281L296.794 70.6659Z" fill="#8DE8FE"/>
</svg>
