<svg width="328" height="96" viewBox="0 0 328 96" fill="none" xmlns="http://www.w3.org/2000/svg">
<path d="M1.422 5.256H5.706C6.318 5.256 6.906 5.316 7.47 5.436C8.046 5.556 8.55 5.76 8.982 6.048C9.414 6.324 9.756 6.702 10.008 7.182C10.272 7.65 10.404 8.238 10.404 8.946C10.404 9.75 10.266 10.398 9.99 10.89C9.714 11.382 9.342 11.766 8.874 12.042C8.406 12.306 7.86 12.486 7.236 12.582C6.624 12.678 5.982 12.726 5.31 12.726H3.69V18H1.422V5.256ZM5.058 10.782C5.382 10.782 5.718 10.77 6.066 10.746C6.414 10.722 6.732 10.65 7.02 10.53C7.32 10.41 7.56 10.23 7.74 9.99C7.932 9.75 8.028 9.414 8.028 8.982C8.028 8.586 7.944 8.274 7.776 8.046C7.608 7.806 7.392 7.626 7.128 7.506C6.864 7.374 6.57 7.29 6.246 7.254C5.922 7.218 5.61 7.2 5.31 7.2H3.69V10.782H5.058ZM12.2279 9.36H14.3879V10.728H14.4239C14.6639 10.224 15.0059 9.834 15.4499 9.558C15.8939 9.282 16.4039 9.144 16.9799 9.144C17.1119 9.144 17.2379 9.156 17.3579 9.18C17.4899 9.204 17.6219 9.234 17.7539 9.27V11.358C17.5739 11.31 17.3939 11.274 17.2139 11.25C17.0459 11.214 16.8779 11.196 16.7099 11.196C16.2059 11.196 15.7979 11.292 15.4859 11.484C15.1859 11.664 14.9519 11.874 14.7839 12.114C14.6279 12.354 14.5199 12.594 14.4599 12.834C14.4119 13.074 14.3879 13.254 14.3879 13.374V18H12.2279V9.36ZM20.6356 14.436C20.7076 15.084 20.9596 15.588 21.3916 15.948C21.8236 16.308 22.3456 16.488 22.9576 16.488C23.4976 16.488 23.9476 16.38 24.3076 16.164C24.6796 15.936 25.0036 15.654 25.2796 15.318L26.8276 16.488C26.3236 17.112 25.7596 17.556 25.1356 17.82C24.5116 18.084 23.8576 18.216 23.1736 18.216C22.5256 18.216 21.9136 18.108 21.3376 17.892C20.7616 17.676 20.2636 17.37 19.8436 16.974C19.4236 16.578 19.0876 16.104 18.8356 15.552C18.5956 14.988 18.4756 14.364 18.4756 13.68C18.4756 12.996 18.5956 12.378 18.8356 11.826C19.0876 11.262 19.4236 10.782 19.8436 10.386C20.2636 9.99 20.7616 9.684 21.3376 9.468C21.9136 9.252 22.5256 9.144 23.1736 9.144C23.7736 9.144 24.3196 9.252 24.8116 9.468C25.3156 9.672 25.7416 9.972 26.0896 10.368C26.4496 10.764 26.7256 11.256 26.9176 11.844C27.1216 12.42 27.2236 13.086 27.2236 13.842V14.436H20.6356ZM25.0636 12.816C25.0516 12.18 24.8536 11.682 24.4696 11.322C24.0856 10.95 23.5516 10.764 22.8676 10.764C22.2196 10.764 21.7036 10.95 21.3196 11.322C20.9476 11.694 20.7196 12.192 20.6356 12.816H25.0636ZM23.7856 5.256H26.2336L23.6956 7.848H22.0036L23.7856 5.256ZM30.0175 11.196H28.2355V9.36H30.0175V8.136C30.0175 7.536 30.0595 6.996 30.1435 6.516C30.2275 6.024 30.3835 5.604 30.6115 5.256C30.8515 4.908 31.1815 4.644 31.6015 4.464C32.0215 4.272 32.5675 4.176 33.2395 4.176C33.7315 4.176 34.1875 4.218 34.6075 4.302L34.4635 6.138C34.3075 6.102 34.1575 6.072 34.0135 6.048C33.8695 6.024 33.7195 6.012 33.5635 6.012C33.2635 6.012 33.0235 6.06 32.8435 6.156C32.6635 6.252 32.5195 6.384 32.4115 6.552C32.3155 6.708 32.2495 6.894 32.2135 7.11C32.1895 7.326 32.1775 7.554 32.1775 7.794V9.36H34.1755V11.196H32.1775V18H30.0175V11.196ZM37.2997 14.436C37.3717 15.084 37.6237 15.588 38.0557 15.948C38.4877 16.308 39.0097 16.488 39.6217 16.488C40.1617 16.488 40.6117 16.38 40.9717 16.164C41.3437 15.936 41.6677 15.654 41.9437 15.318L43.4917 16.488C42.9877 17.112 42.4237 17.556 41.7997 17.82C41.1757 18.084 40.5217 18.216 39.8377 18.216C39.1897 18.216 38.5777 18.108 38.0017 17.892C37.4257 17.676 36.9277 17.37 36.5077 16.974C36.0877 16.578 35.7517 16.104 35.4997 15.552C35.2597 14.988 35.1397 14.364 35.1397 13.68C35.1397 12.996 35.2597 12.378 35.4997 11.826C35.7517 11.262 36.0877 10.782 36.5077 10.386C36.9277 9.99 37.4257 9.684 38.0017 9.468C38.5777 9.252 39.1897 9.144 39.8377 9.144C40.4377 9.144 40.9837 9.252 41.4757 9.468C41.9797 9.672 42.4057 9.972 42.7537 10.368C43.1137 10.764 43.3897 11.256 43.5817 11.844C43.7857 12.42 43.8877 13.086 43.8877 13.842V14.436H37.2997ZM41.7277 12.816C41.7157 12.18 41.5177 11.682 41.1337 11.322C40.7497 10.95 40.2157 10.764 39.5317 10.764C38.8837 10.764 38.3677 10.95 37.9837 11.322C37.6117 11.694 37.3837 12.192 37.2997 12.816H41.7277ZM40.4497 5.256H42.8977L40.3597 7.848H38.6677L40.4497 5.256ZM45.9076 9.36H48.0676V10.728H48.1036C48.3436 10.224 48.6856 9.834 49.1296 9.558C49.5736 9.282 50.0836 9.144 50.6596 9.144C50.7916 9.144 50.9176 9.156 51.0376 9.18C51.1696 9.204 51.3016 9.234 51.4336 9.27V11.358C51.2536 11.31 51.0736 11.274 50.8936 11.25C50.7256 11.214 50.5576 11.196 50.3896 11.196C49.8856 11.196 49.4776 11.292 49.1656 11.484C48.8656 11.664 48.6316 11.874 48.4636 12.114C48.3076 12.354 48.1996 12.594 48.1396 12.834C48.0916 13.074 48.0676 13.254 48.0676 13.374V18H45.9076V9.36ZM54.3153 14.436C54.3873 15.084 54.6393 15.588 55.0713 15.948C55.5033 16.308 56.0253 16.488 56.6373 16.488C57.1773 16.488 57.6273 16.38 57.9873 16.164C58.3593 15.936 58.6833 15.654 58.9593 15.318L60.5073 16.488C60.0033 17.112 59.4393 17.556 58.8153 17.82C58.1913 18.084 57.5373 18.216 56.8533 18.216C56.2053 18.216 55.5933 18.108 55.0173 17.892C54.4413 17.676 53.9433 17.37 53.5233 16.974C53.1033 16.578 52.7673 16.104 52.5153 15.552C52.2753 14.988 52.1553 14.364 52.1553 13.68C52.1553 12.996 52.2753 12.378 52.5153 11.826C52.7673 11.262 53.1033 10.782 53.5233 10.386C53.9433 9.99 54.4413 9.684 55.0173 9.468C55.5933 9.252 56.2053 9.144 56.8533 9.144C57.4533 9.144 57.9993 9.252 58.4913 9.468C58.9953 9.672 59.4213 9.972 59.7693 10.368C60.1293 10.764 60.4053 11.256 60.5973 11.844C60.8013 12.42 60.9033 13.086 60.9033 13.842V14.436H54.3153ZM58.7433 12.816C58.7313 12.18 58.5333 11.682 58.1493 11.322C57.7653 10.95 57.2313 10.764 56.5473 10.764C55.8993 10.764 55.3833 10.95 54.9993 11.322C54.6273 11.694 54.3993 12.192 54.3153 12.816H58.7433ZM62.9232 9.36H64.9752V10.746H65.0112C65.2152 10.314 65.5272 9.942 65.9472 9.63C66.3672 9.306 66.9372 9.144 67.6572 9.144C68.2332 9.144 68.7192 9.24 69.1152 9.432C69.5232 9.624 69.8532 9.876 70.1052 10.188C70.3572 10.5 70.5372 10.86 70.6452 11.268C70.7532 11.676 70.8072 12.102 70.8072 12.546V18H68.6472V13.626C68.6472 13.386 68.6352 13.122 68.6112 12.834C68.5872 12.534 68.5212 12.258 68.4132 12.006C68.3172 11.742 68.1612 11.526 67.9452 11.358C67.7292 11.178 67.4352 11.088 67.0632 11.088C66.7032 11.088 66.3972 11.148 66.1452 11.268C65.9052 11.388 65.7012 11.55 65.5332 11.754C65.3772 11.958 65.2632 12.192 65.1912 12.456C65.1192 12.72 65.0832 12.996 65.0832 13.284V18H62.9232V9.36ZM79.1632 11.952C78.9112 11.688 78.6472 11.478 78.3712 11.322C78.0952 11.166 77.8132 11.088 77.5252 11.088C77.1292 11.088 76.7752 11.16 76.4632 11.304C76.1512 11.448 75.8812 11.64 75.6532 11.88C75.4372 12.12 75.2692 12.396 75.1492 12.708C75.0412 13.02 74.9872 13.344 74.9872 13.68C74.9872 14.016 75.0412 14.34 75.1492 14.652C75.2692 14.964 75.4372 15.24 75.6532 15.48C75.8812 15.72 76.1512 15.912 76.4632 16.056C76.7752 16.2 77.1292 16.272 77.5252 16.272C77.8612 16.272 78.1732 16.206 78.4612 16.074C78.7492 15.93 78.9952 15.726 79.1992 15.462L80.6392 17.01C80.4232 17.226 80.1712 17.412 79.8832 17.568C79.6072 17.724 79.3252 17.85 79.0372 17.946C78.7492 18.042 78.4732 18.108 78.2092 18.144C77.9452 18.192 77.7172 18.216 77.5252 18.216C76.8772 18.216 76.2652 18.108 75.6892 17.892C75.1132 17.676 74.6152 17.37 74.1952 16.974C73.7752 16.578 73.4392 16.104 73.1872 15.552C72.9472 14.988 72.8272 14.364 72.8272 13.68C72.8272 12.996 72.9472 12.378 73.1872 11.826C73.4392 11.262 73.7752 10.782 74.1952 10.386C74.6152 9.99 75.1132 9.684 75.6892 9.468C76.2652 9.252 76.8772 9.144 77.5252 9.144C78.0772 9.144 78.6292 9.252 79.1812 9.468C79.7452 9.672 80.2372 10.002 80.6572 10.458L79.1632 11.952ZM83.6708 14.436C83.7428 15.084 83.9948 15.588 84.4268 15.948C84.8588 16.308 85.3808 16.488 85.9928 16.488C86.5328 16.488 86.9828 16.38 87.3428 16.164C87.7148 15.936 88.0388 15.654 88.3148 15.318L89.8628 16.488C89.3588 17.112 88.7948 17.556 88.1708 17.82C87.5468 18.084 86.8928 18.216 86.2088 18.216C85.5608 18.216 84.9488 18.108 84.3728 17.892C83.7968 17.676 83.2988 17.37 82.8788 16.974C82.4588 16.578 82.1228 16.104 81.8708 15.552C81.6308 14.988 81.5108 14.364 81.5108 13.68C81.5108 12.996 81.6308 12.378 81.8708 11.826C82.1228 11.262 82.4588 10.782 82.8788 10.386C83.2988 9.99 83.7968 9.684 84.3728 9.468C84.9488 9.252 85.5608 9.144 86.2088 9.144C86.8088 9.144 87.3548 9.252 87.8468 9.468C88.3508 9.672 88.7768 9.972 89.1248 10.368C89.4848 10.764 89.7608 11.256 89.9528 11.844C90.1568 12.42 90.2588 13.086 90.2588 13.842V14.436H83.6708ZM88.0988 12.816C88.0868 12.18 87.8888 11.682 87.5048 11.322C87.1208 10.95 86.5868 10.764 85.9028 10.764C85.2548 10.764 84.7388 10.95 84.3548 11.322C83.9828 11.694 83.7548 12.192 83.6708 12.816H88.0988ZM96.8867 11.754C96.4667 11.166 95.9027 10.872 95.1947 10.872C94.9067 10.872 94.6247 10.944 94.3487 11.088C94.0727 11.232 93.9347 11.466 93.9347 11.79C93.9347 12.054 94.0487 12.246 94.2767 12.366C94.5047 12.486 94.7927 12.588 95.1407 12.672C95.4887 12.756 95.8607 12.846 96.2567 12.942C96.6647 13.026 97.0427 13.164 97.3907 13.356C97.7387 13.536 98.0267 13.788 98.2547 14.112C98.4827 14.436 98.5967 14.88 98.5967 15.444C98.5967 15.96 98.4827 16.398 98.2547 16.758C98.0387 17.106 97.7507 17.388 97.3907 17.604C97.0427 17.82 96.6467 17.976 96.2027 18.072C95.7587 18.168 95.3147 18.216 94.8707 18.216C94.1987 18.216 93.5807 18.12 93.0167 17.928C92.4527 17.736 91.9487 17.388 91.5047 16.884L92.9447 15.534C93.2207 15.846 93.5147 16.104 93.8267 16.308C94.1507 16.5 94.5407 16.596 94.9967 16.596C95.1527 16.596 95.3147 16.578 95.4827 16.542C95.6507 16.506 95.8067 16.446 95.9507 16.362C96.0947 16.278 96.2087 16.176 96.2927 16.056C96.3887 15.924 96.4367 15.774 96.4367 15.606C96.4367 15.306 96.3227 15.084 96.0947 14.94C95.8667 14.796 95.5787 14.682 95.2307 14.598C94.8827 14.502 94.5047 14.418 94.0967 14.346C93.7007 14.262 93.3287 14.136 92.9807 13.968C92.6327 13.788 92.3447 13.542 92.1167 13.23C91.8887 12.918 91.7747 12.486 91.7747 11.934C91.7747 11.454 91.8707 11.04 92.0627 10.692C92.2667 10.332 92.5307 10.038 92.8547 9.81C93.1787 9.582 93.5507 9.414 93.9707 9.306C94.3907 9.198 94.8167 9.144 95.2487 9.144C95.8247 9.144 96.3947 9.246 96.9587 9.45C97.5227 9.642 97.9787 9.978 98.3267 10.458L96.8867 11.754ZM112.443 16.704H112.407C112.095 17.232 111.675 17.616 111.147 17.856C110.619 18.096 110.049 18.216 109.437 18.216C108.765 18.216 108.165 18.102 107.637 17.874C107.121 17.634 106.677 17.31 106.305 16.902C105.933 16.494 105.651 16.014 105.459 15.462C105.267 14.91 105.171 14.316 105.171 13.68C105.171 13.044 105.273 12.45 105.477 11.898C105.681 11.346 105.963 10.866 106.323 10.458C106.695 10.05 107.139 9.732 107.655 9.504C108.171 9.264 108.735 9.144 109.347 9.144C109.755 9.144 110.115 9.186 110.427 9.27C110.739 9.354 111.015 9.462 111.255 9.594C111.495 9.726 111.699 9.87 111.867 10.026C112.035 10.17 112.173 10.314 112.281 10.458H112.335V4.392H114.495V18H112.443V16.704ZM107.331 13.68C107.331 14.016 107.385 14.34 107.493 14.652C107.613 14.964 107.781 15.24 107.997 15.48C108.225 15.72 108.495 15.912 108.807 16.056C109.119 16.2 109.473 16.272 109.869 16.272C110.265 16.272 110.619 16.2 110.931 16.056C111.243 15.912 111.507 15.72 111.723 15.48C111.951 15.24 112.119 14.964 112.227 14.652C112.347 14.34 112.407 14.016 112.407 13.68C112.407 13.344 112.347 13.02 112.227 12.708C112.119 12.396 111.951 12.12 111.723 11.88C111.507 11.64 111.243 11.448 110.931 11.304C110.619 11.16 110.265 11.088 109.869 11.088C109.473 11.088 109.119 11.16 108.807 11.304C108.495 11.448 108.225 11.64 107.997 11.88C107.781 12.12 107.613 12.396 107.493 12.708C107.385 13.02 107.331 13.344 107.331 13.68ZM118.669 14.436C118.741 15.084 118.993 15.588 119.425 15.948C119.857 16.308 120.379 16.488 120.991 16.488C121.531 16.488 121.981 16.38 122.341 16.164C122.713 15.936 123.037 15.654 123.313 15.318L124.861 16.488C124.357 17.112 123.793 17.556 123.169 17.82C122.545 18.084 121.891 18.216 121.207 18.216C120.559 18.216 119.947 18.108 119.371 17.892C118.795 17.676 118.297 17.37 117.877 16.974C117.457 16.578 117.121 16.104 116.869 15.552C116.629 14.988 116.509 14.364 116.509 13.68C116.509 12.996 116.629 12.378 116.869 11.826C117.121 11.262 117.457 10.782 117.877 10.386C118.297 9.99 118.795 9.684 119.371 9.468C119.947 9.252 120.559 9.144 121.207 9.144C121.807 9.144 122.353 9.252 122.845 9.468C123.349 9.672 123.775 9.972 124.123 10.368C124.483 10.764 124.759 11.256 124.951 11.844C125.155 12.42 125.257 13.086 125.257 13.842V14.436H118.669ZM123.097 12.816C123.085 12.18 122.887 11.682 122.503 11.322C122.119 10.95 121.585 10.764 120.901 10.764C120.253 10.764 119.737 10.95 119.353 11.322C118.981 11.694 118.753 12.192 118.669 12.816H123.097ZM131.433 9.36H133.791L136.095 15.408H136.131L138.453 9.36H140.667L137.265 18H134.961L131.433 9.36ZM141.505 13.68C141.505 12.996 141.625 12.378 141.865 11.826C142.117 11.262 142.453 10.782 142.873 10.386C143.293 9.99 143.791 9.684 144.367 9.468C144.943 9.252 145.555 9.144 146.203 9.144C146.851 9.144 147.463 9.252 148.039 9.468C148.615 9.684 149.113 9.99 149.533 10.386C149.953 10.782 150.283 11.262 150.523 11.826C150.775 12.378 150.901 12.996 150.901 13.68C150.901 14.364 150.775 14.988 150.523 15.552C150.283 16.104 149.953 16.578 149.533 16.974C149.113 17.37 148.615 17.676 148.039 17.892C147.463 18.108 146.851 18.216 146.203 18.216C145.555 18.216 144.943 18.108 144.367 17.892C143.791 17.676 143.293 17.37 142.873 16.974C142.453 16.578 142.117 16.104 141.865 15.552C141.625 14.988 141.505 14.364 141.505 13.68ZM143.665 13.68C143.665 14.016 143.719 14.34 143.827 14.652C143.947 14.964 144.115 15.24 144.331 15.48C144.559 15.72 144.829 15.912 145.141 16.056C145.453 16.2 145.807 16.272 146.203 16.272C146.599 16.272 146.953 16.2 147.265 16.056C147.577 15.912 147.841 15.72 148.057 15.48C148.285 15.24 148.453 14.964 148.561 14.652C148.681 14.34 148.741 14.016 148.741 13.68C148.741 13.344 148.681 13.02 148.561 12.708C148.453 12.396 148.285 12.12 148.057 11.88C147.841 11.64 147.577 11.448 147.265 11.304C146.953 11.16 146.599 11.088 146.203 11.088C145.807 11.088 145.453 11.16 145.141 11.304C144.829 11.448 144.559 11.64 144.331 11.88C144.115 12.12 143.947 12.396 143.827 12.708C143.719 13.02 143.665 13.344 143.665 13.68ZM151.753 9.36H154.129L156.541 15.354H156.577L158.737 9.36H160.987L156.901 19.854C156.745 20.262 156.571 20.616 156.379 20.916C156.199 21.228 155.983 21.486 155.731 21.69C155.479 21.906 155.179 22.062 154.831 22.158C154.495 22.266 154.087 22.32 153.607 22.32C153.043 22.32 152.491 22.248 151.951 22.104L152.221 20.16C152.389 20.22 152.563 20.268 152.743 20.304C152.935 20.352 153.127 20.376 153.319 20.376C153.583 20.376 153.805 20.352 153.985 20.304C154.165 20.256 154.315 20.178 154.435 20.07C154.567 19.974 154.675 19.842 154.759 19.674C154.843 19.518 154.933 19.326 155.029 19.098L155.443 18.072L151.753 9.36ZM167.657 16.812H167.603C167.291 17.304 166.895 17.664 166.415 17.892C165.935 18.108 165.407 18.216 164.831 18.216C164.435 18.216 164.045 18.162 163.661 18.054C163.289 17.946 162.953 17.784 162.653 17.568C162.365 17.352 162.131 17.082 161.951 16.758C161.771 16.434 161.681 16.056 161.681 15.624C161.681 15.156 161.765 14.76 161.933 14.436C162.101 14.1 162.323 13.824 162.599 13.608C162.887 13.38 163.217 13.2 163.589 13.068C163.961 12.936 164.345 12.84 164.741 12.78C165.149 12.708 165.557 12.666 165.965 12.654C166.373 12.63 166.757 12.618 167.117 12.618H167.657V12.384C167.657 11.844 167.471 11.442 167.099 11.178C166.727 10.902 166.253 10.764 165.677 10.764C165.221 10.764 164.795 10.848 164.399 11.016C164.003 11.172 163.661 11.388 163.373 11.664L162.239 10.53C162.719 10.038 163.277 9.684 163.913 9.468C164.561 9.252 165.227 9.144 165.911 9.144C166.523 9.144 167.039 9.216 167.459 9.36C167.879 9.492 168.227 9.666 168.503 9.882C168.779 10.098 168.989 10.35 169.133 10.638C169.289 10.914 169.397 11.196 169.457 11.484C169.529 11.772 169.571 12.054 169.583 12.33C169.595 12.594 169.601 12.828 169.601 13.032V18H167.657V16.812ZM167.531 14.13H167.081C166.781 14.13 166.445 14.142 166.073 14.166C165.701 14.19 165.347 14.25 165.011 14.346C164.687 14.43 164.411 14.562 164.183 14.742C163.955 14.91 163.841 15.15 163.841 15.462C163.841 15.666 163.883 15.84 163.967 15.984C164.063 16.116 164.183 16.23 164.327 16.326C164.471 16.422 164.633 16.494 164.813 16.542C164.993 16.578 165.173 16.596 165.353 16.596C166.097 16.596 166.643 16.422 166.991 16.074C167.351 15.714 167.531 15.228 167.531 14.616V14.13ZM180.817 9.36V17.226C180.817 18.006 180.721 18.708 180.529 19.332C180.337 19.968 180.037 20.502 179.629 20.934C179.233 21.378 178.729 21.72 178.117 21.96C177.505 22.2 176.779 22.32 175.939 22.32C175.135 22.32 174.373 22.218 173.653 22.014C172.933 21.81 172.267 21.438 171.655 20.898L172.951 19.134C173.383 19.53 173.833 19.836 174.301 20.052C174.769 20.268 175.309 20.376 175.921 20.376C176.437 20.376 176.869 20.304 177.217 20.16C177.577 20.016 177.859 19.818 178.063 19.566C178.279 19.314 178.429 19.008 178.513 18.648C178.609 18.3 178.657 17.91 178.657 17.478V16.848H178.621C178.309 17.268 177.895 17.586 177.379 17.802C176.863 18.006 176.335 18.108 175.795 18.108C175.147 18.108 174.559 17.994 174.031 17.766C173.503 17.526 173.047 17.208 172.663 16.812C172.291 16.416 172.003 15.948 171.799 15.408C171.595 14.868 171.493 14.292 171.493 13.68C171.493 13.044 171.589 12.45 171.781 11.898C171.973 11.346 172.255 10.866 172.627 10.458C172.999 10.05 173.443 9.732 173.959 9.504C174.487 9.264 175.087 9.144 175.759 9.144C176.371 9.144 176.941 9.264 177.469 9.504C177.997 9.744 178.417 10.128 178.729 10.656H178.765V9.36H180.817ZM176.209 11.088C175.825 11.088 175.477 11.154 175.165 11.286C174.853 11.406 174.583 11.58 174.355 11.808C174.139 12.024 173.965 12.294 173.833 12.618C173.713 12.93 173.653 13.278 173.653 13.662C173.653 14.01 173.713 14.334 173.833 14.634C173.965 14.934 174.145 15.198 174.373 15.426C174.601 15.654 174.871 15.834 175.183 15.966C175.495 16.098 175.831 16.164 176.191 16.164C176.587 16.164 176.941 16.098 177.253 15.966C177.577 15.834 177.847 15.66 178.063 15.444C178.291 15.216 178.465 14.946 178.585 14.634C178.705 14.322 178.765 13.986 178.765 13.626C178.765 12.87 178.537 12.258 178.081 11.79C177.625 11.322 177.001 11.088 176.209 11.088ZM184.991 14.436C185.063 15.084 185.315 15.588 185.747 15.948C186.179 16.308 186.701 16.488 187.313 16.488C187.853 16.488 188.303 16.38 188.663 16.164C189.035 15.936 189.359 15.654 189.635 15.318L191.183 16.488C190.679 17.112 190.115 17.556 189.491 17.82C188.867 18.084 188.213 18.216 187.529 18.216C186.881 18.216 186.269 18.108 185.693 17.892C185.117 17.676 184.619 17.37 184.199 16.974C183.779 16.578 183.443 16.104 183.191 15.552C182.951 14.988 182.831 14.364 182.831 13.68C182.831 12.996 182.951 12.378 183.191 11.826C183.443 11.262 183.779 10.782 184.199 10.386C184.619 9.99 185.117 9.684 185.693 9.468C186.269 9.252 186.881 9.144 187.529 9.144C188.129 9.144 188.675 9.252 189.167 9.468C189.671 9.672 190.097 9.972 190.445 10.368C190.805 10.764 191.081 11.256 191.273 11.844C191.477 12.42 191.579 13.086 191.579 13.842V14.436H184.991ZM189.419 12.816C189.407 12.18 189.209 11.682 188.825 11.322C188.441 10.95 187.907 10.764 187.223 10.764C186.575 10.764 186.059 10.95 185.675 11.322C185.303 11.694 185.075 12.192 184.991 12.816H189.419Z" fill="#F3F3F8"/>
<rect y="40" width="328" height="56" rx="14" fill="#242B35"/>
<path d="M15.952 61.672H18.272L21.36 70.232L24.544 61.672H26.72L22.144 73H20.4L15.952 61.672ZM26.5009 69.16C26.5009 68.552 26.6075 68.0027 26.8209 67.512C27.0449 67.0107 27.3435 66.584 27.7169 66.232C28.0902 65.88 28.5329 65.608 29.0449 65.416C29.5569 65.224 30.1009 65.128 30.6769 65.128C31.2529 65.128 31.7969 65.224 32.3089 65.416C32.8209 65.608 33.2635 65.88 33.6369 66.232C34.0102 66.584 34.3035 67.0107 34.5169 67.512C34.7409 68.0027 34.8529 68.552 34.8529 69.16C34.8529 69.768 34.7409 70.3227 34.5169 70.824C34.3035 71.3147 34.0102 71.736 33.6369 72.088C33.2635 72.44 32.8209 72.712 32.3089 72.904C31.7969 73.096 31.2529 73.192 30.6769 73.192C30.1009 73.192 29.5569 73.096 29.0449 72.904C28.5329 72.712 28.0902 72.44 27.7169 72.088C27.3435 71.736 27.0449 71.3147 26.8209 70.824C26.6075 70.3227 26.5009 69.768 26.5009 69.16ZM28.4209 69.16C28.4209 69.4587 28.4689 69.7467 28.5649 70.024C28.6715 70.3013 28.8209 70.5467 29.0129 70.76C29.2155 70.9733 29.4555 71.144 29.7329 71.272C30.0102 71.4 30.3249 71.464 30.6769 71.464C31.0289 71.464 31.3435 71.4 31.6209 71.272C31.8982 71.144 32.1329 70.9733 32.3249 70.76C32.5275 70.5467 32.6769 70.3013 32.7729 70.024C32.8795 69.7467 32.9329 69.4587 32.9329 69.16C32.9329 68.8613 32.8795 68.5733 32.7729 68.296C32.6769 68.0187 32.5275 67.7733 32.3249 67.56C32.1329 67.3467 31.8982 67.176 31.6209 67.048C31.3435 66.92 31.0289 66.856 30.6769 66.856C30.3249 66.856 30.0102 66.92 29.7329 67.048C29.4555 67.176 29.2155 67.3467 29.0129 67.56C28.8209 67.7733 28.6715 68.0187 28.5649 68.296C28.4689 68.5733 28.4209 68.8613 28.4209 69.16ZM40.7465 67.448C40.3732 66.9253 39.8718 66.664 39.2425 66.664C38.9865 66.664 38.7358 66.728 38.4905 66.856C38.2452 66.984 38.1225 67.192 38.1225 67.48C38.1225 67.7147 38.2238 67.8853 38.4265 67.992C38.6292 68.0987 38.8852 68.1893 39.1945 68.264C39.5038 68.3387 39.8345 68.4187 40.1865 68.504C40.5492 68.5787 40.8852 68.7013 41.1945 68.872C41.5038 69.032 41.7598 69.256 41.9625 69.544C42.1652 69.832 42.2665 70.2267 42.2665 70.728C42.2665 71.1867 42.1652 71.576 41.9625 71.896C41.7705 72.2053 41.5145 72.456 41.1945 72.648C40.8852 72.84 40.5332 72.9787 40.1385 73.064C39.7438 73.1493 39.3492 73.192 38.9545 73.192C38.3572 73.192 37.8078 73.1067 37.3065 72.936C36.8052 72.7653 36.3572 72.456 35.9625 72.008L37.2425 70.808C37.4878 71.0853 37.7492 71.3147 38.0265 71.496C38.3145 71.6667 38.6612 71.752 39.0665 71.752C39.2052 71.752 39.3492 71.736 39.4985 71.704C39.6478 71.672 39.7865 71.6187 39.9145 71.544C40.0425 71.4693 40.1438 71.3787 40.2185 71.272C40.3038 71.1547 40.3465 71.0213 40.3465 70.872C40.3465 70.6053 40.2452 70.408 40.0425 70.28C39.8398 70.152 39.5838 70.0507 39.2745 69.976C38.9652 69.8907 38.6292 69.816 38.2665 69.752C37.9145 69.6773 37.5838 69.5653 37.2745 69.416C36.9652 69.256 36.7092 69.0373 36.5065 68.76C36.3038 68.4827 36.2025 68.0987 36.2025 67.608C36.2025 67.1813 36.2878 66.8133 36.4585 66.504C36.6398 66.184 36.8745 65.9227 37.1625 65.72C37.4505 65.5173 37.7812 65.368 38.1545 65.272C38.5278 65.176 38.9065 65.128 39.2905 65.128C39.8025 65.128 40.3092 65.2187 40.8105 65.4C41.3118 65.5707 41.7172 65.8693 42.0265 66.296L40.7465 67.448ZM53.7423 67.624C53.5183 67.3893 53.2836 67.2027 53.0383 67.064C52.7929 66.9253 52.5423 66.856 52.2863 66.856C51.9343 66.856 51.6196 66.92 51.3423 67.048C51.0649 67.176 50.8249 67.3467 50.6223 67.56C50.4303 67.7733 50.2809 68.0187 50.1743 68.296C50.0783 68.5733 50.0303 68.8613 50.0303 69.16C50.0303 69.4587 50.0783 69.7467 50.1743 70.024C50.2809 70.3013 50.4303 70.5467 50.6223 70.76C50.8249 70.9733 51.0649 71.144 51.3423 71.272C51.6196 71.4 51.9343 71.464 52.2863 71.464C52.5849 71.464 52.8623 71.4053 53.1183 71.288C53.3743 71.16 53.5929 70.9787 53.7743 70.744L55.0543 72.12C54.8623 72.312 54.6383 72.4773 54.3823 72.616C54.1369 72.7547 53.8863 72.8667 53.6303 72.952C53.3743 73.0373 53.1289 73.096 52.8943 73.128C52.6596 73.1707 52.4569 73.192 52.2863 73.192C51.7103 73.192 51.1663 73.096 50.6543 72.904C50.1423 72.712 49.6996 72.44 49.3263 72.088C48.9529 71.736 48.6543 71.3147 48.4303 70.824C48.2169 70.3227 48.1103 69.768 48.1103 69.16C48.1103 68.552 48.2169 68.0027 48.4303 67.512C48.6543 67.0107 48.9529 66.584 49.3263 66.232C49.6996 65.88 50.1423 65.608 50.6543 65.416C51.1663 65.224 51.7103 65.128 52.2863 65.128C52.7769 65.128 53.2676 65.224 53.7583 65.416C54.2596 65.5973 54.6969 65.8907 55.0703 66.296L53.7423 67.624ZM55.829 69.16C55.829 68.552 55.9357 68.0027 56.149 67.512C56.373 67.0107 56.6717 66.584 57.045 66.232C57.4183 65.88 57.861 65.608 58.373 65.416C58.885 65.224 59.429 65.128 60.005 65.128C60.581 65.128 61.125 65.224 61.637 65.416C62.149 65.608 62.5917 65.88 62.965 66.232C63.3383 66.584 63.6317 67.0107 63.845 67.512C64.069 68.0027 64.181 68.552 64.181 69.16C64.181 69.768 64.069 70.3227 63.845 70.824C63.6317 71.3147 63.3383 71.736 62.965 72.088C62.5917 72.44 62.149 72.712 61.637 72.904C61.125 73.096 60.581 73.192 60.005 73.192C59.429 73.192 58.885 73.096 58.373 72.904C57.861 72.712 57.4183 72.44 57.045 72.088C56.6717 71.736 56.373 71.3147 56.149 70.824C55.9357 70.3227 55.829 69.768 55.829 69.16ZM57.749 69.16C57.749 69.4587 57.797 69.7467 57.893 70.024C57.9997 70.3013 58.149 70.5467 58.341 70.76C58.5437 70.9733 58.7837 71.144 59.061 71.272C59.3383 71.4 59.653 71.464 60.005 71.464C60.357 71.464 60.6717 71.4 60.949 71.272C61.2263 71.144 61.461 70.9733 61.653 70.76C61.8557 70.5467 62.005 70.3013 62.101 70.024C62.2077 69.7467 62.261 69.4587 62.261 69.16C62.261 68.8613 62.2077 68.5733 62.101 68.296C62.005 68.0187 61.8557 67.7733 61.653 67.56C61.461 67.3467 61.2263 67.176 60.949 67.048C60.6717 66.92 60.357 66.856 60.005 66.856C59.653 66.856 59.3383 66.92 59.061 67.048C58.7837 67.176 58.5437 67.3467 58.341 67.56C58.149 67.7733 57.9997 68.0187 57.893 68.296C57.797 68.5733 57.749 68.8613 57.749 69.16ZM65.8986 65.32H67.7226V66.52H67.7546C67.9253 66.1573 68.1973 65.8373 68.5706 65.56C68.9546 65.272 69.4666 65.128 70.1066 65.128C71.312 65.128 72.112 65.6027 72.5066 66.552C72.784 66.0613 73.1306 65.704 73.5466 65.48C73.9626 65.2453 74.4586 65.128 75.0346 65.128C75.5466 65.128 75.9786 65.2133 76.3306 65.384C76.6826 65.5547 76.9653 65.7893 77.1786 66.088C77.4026 66.3867 77.5626 66.7387 77.6586 67.144C77.7546 67.5387 77.8026 67.9653 77.8026 68.424V73H75.8826V68.648C75.8826 68.4133 75.8613 68.1893 75.8186 67.976C75.776 67.752 75.7013 67.56 75.5946 67.4C75.488 67.2293 75.344 67.096 75.1626 67C74.9813 66.904 74.7466 66.856 74.4586 66.856C74.16 66.856 73.904 66.9147 73.6906 67.032C73.488 67.1387 73.3173 67.288 73.1786 67.48C73.0506 67.6613 72.9546 67.8747 72.8906 68.12C72.8373 68.3547 72.8106 68.5947 72.8106 68.84V73H70.8906V68.424C70.8906 67.944 70.7893 67.5653 70.5866 67.288C70.384 67 70.048 66.856 69.5786 66.856C69.2586 66.856 68.9866 66.9093 68.7626 67.016C68.5493 67.1227 68.368 67.2667 68.2186 67.448C68.08 67.6293 67.9786 67.8373 67.9146 68.072C67.8506 68.3067 67.8186 68.552 67.8186 68.808V73H65.8986V65.32ZM79.9005 65.32H81.7245V66.472H81.7565C82.0338 66.0027 82.4072 65.6613 82.8765 65.448C83.3458 65.2347 83.8525 65.128 84.3965 65.128C84.9832 65.128 85.5112 65.2347 85.9805 65.448C86.4498 65.6507 86.8498 65.9333 87.1805 66.296C87.5112 66.6587 87.7618 67.0853 87.9325 67.576C88.1032 68.0667 88.1885 68.5947 88.1885 69.16C88.1885 69.7253 88.0978 70.2533 87.9165 70.744C87.7352 71.2347 87.4792 71.6613 87.1485 72.024C86.8285 72.3867 86.4392 72.6747 85.9805 72.888C85.5218 73.0907 85.0205 73.192 84.4765 73.192C84.1138 73.192 83.7938 73.1547 83.5165 73.08C83.2392 73.0053 82.9938 72.9093 82.7805 72.792C82.5672 72.6747 82.3858 72.552 82.2365 72.424C82.0872 72.2853 81.9645 72.152 81.8685 72.024H81.8205V76.648H79.9005V65.32ZM86.2685 69.16C86.2685 68.8613 86.2152 68.5733 86.1085 68.296C86.0125 68.0187 85.8632 67.7733 85.6605 67.56C85.4685 67.3467 85.2338 67.176 84.9565 67.048C84.6792 66.92 84.3645 66.856 84.0125 66.856C83.6605 66.856 83.3458 66.92 83.0685 67.048C82.7912 67.176 82.5512 67.3467 82.3485 67.56C82.1565 67.7733 82.0072 68.0187 81.9005 68.296C81.8045 68.5733 81.7565 68.8613 81.7565 69.16C81.7565 69.4587 81.8045 69.7467 81.9005 70.024C82.0072 70.3013 82.1565 70.5467 82.3485 70.76C82.5512 70.9733 82.7912 71.144 83.0685 71.272C83.3458 71.4 83.6605 71.464 84.0125 71.464C84.3645 71.464 84.6792 71.4 84.9565 71.272C85.2338 71.144 85.4685 70.9733 85.6605 70.76C85.8632 70.5467 86.0125 70.3013 86.1085 70.024C86.2152 69.7467 86.2685 69.4587 86.2685 69.16ZM94.7786 71.944H94.7306C94.4533 72.3813 94.1013 72.7013 93.6746 72.904C93.248 73.096 92.7786 73.192 92.2666 73.192C91.9146 73.192 91.568 73.144 91.2266 73.048C90.896 72.952 90.5973 72.808 90.3306 72.616C90.0746 72.424 89.8666 72.184 89.7066 71.896C89.5466 71.608 89.4666 71.272 89.4666 70.888C89.4666 70.472 89.5413 70.12 89.6906 69.832C89.84 69.5333 90.0373 69.288 90.2826 69.096C90.5386 68.8933 90.832 68.7333 91.1626 68.616C91.4933 68.4987 91.8346 68.4133 92.1866 68.36C92.5493 68.296 92.912 68.2587 93.2746 68.248C93.6373 68.2267 93.9786 68.216 94.2986 68.216H94.7786V68.008C94.7786 67.528 94.6133 67.1707 94.2826 66.936C93.952 66.6907 93.5306 66.568 93.0186 66.568C92.6133 66.568 92.2346 66.6427 91.8826 66.792C91.5306 66.9307 91.2266 67.1227 90.9706 67.368L89.9626 66.36C90.3893 65.9227 90.8853 65.608 91.4506 65.416C92.0266 65.224 92.6186 65.128 93.2266 65.128C93.7706 65.128 94.2293 65.192 94.6026 65.32C94.976 65.4373 95.2853 65.592 95.5306 65.784C95.776 65.976 95.9626 66.2 96.0906 66.456C96.2293 66.7013 96.3253 66.952 96.3786 67.208C96.4426 67.464 96.48 67.7147 96.4906 67.96C96.5013 68.1947 96.5066 68.4027 96.5066 68.584V73H94.7786V71.944ZM94.6666 69.56H94.2666C94 69.56 93.7013 69.5707 93.3706 69.592C93.04 69.6133 92.7253 69.6667 92.4266 69.752C92.1386 69.8267 91.8933 69.944 91.6906 70.104C91.488 70.2533 91.3866 70.4667 91.3866 70.744C91.3866 70.9253 91.424 71.08 91.4986 71.208C91.584 71.3253 91.6906 71.4267 91.8186 71.512C91.9466 71.5973 92.0906 71.6613 92.2506 71.704C92.4106 71.736 92.5706 71.752 92.7306 71.752C93.392 71.752 93.8773 71.5973 94.1866 71.288C94.5066 70.968 94.6666 70.536 94.6666 69.992V69.56ZM106.476 65.32V72.312C106.476 73.0053 106.391 73.6293 106.22 74.184C106.05 74.7493 105.783 75.224 105.42 75.608C105.068 76.0027 104.62 76.3067 104.076 76.52C103.532 76.7333 102.887 76.84 102.14 76.84C101.426 76.84 100.748 76.7493 100.108 76.568C99.4684 76.3867 98.8764 76.056 98.3324 75.576L99.4844 74.008C99.8684 74.36 100.268 74.632 100.684 74.824C101.1 75.016 101.58 75.112 102.124 75.112C102.583 75.112 102.967 75.048 103.276 74.92C103.596 74.792 103.847 74.616 104.028 74.392C104.22 74.168 104.354 73.896 104.428 73.576C104.514 73.2667 104.556 72.92 104.556 72.536V71.976H104.524C104.247 72.3493 103.879 72.632 103.42 72.824C102.962 73.0053 102.492 73.096 102.012 73.096C101.436 73.096 100.914 72.9947 100.444 72.792C99.975 72.5787 99.5697 72.296 99.2284 71.944C98.8977 71.592 98.6417 71.176 98.4604 70.696C98.279 70.216 98.1884 69.704 98.1884 69.16C98.1884 68.5947 98.2737 68.0667 98.4444 67.576C98.615 67.0853 98.8657 66.6587 99.1964 66.296C99.527 65.9333 99.9217 65.6507 100.38 65.448C100.85 65.2347 101.383 65.128 101.98 65.128C102.524 65.128 103.031 65.2347 103.5 65.448C103.97 65.6613 104.343 66.0027 104.62 66.472H104.652V65.32H106.476ZM102.38 66.856C102.039 66.856 101.73 66.9147 101.452 67.032C101.175 67.1387 100.935 67.2933 100.732 67.496C100.54 67.688 100.386 67.928 100.268 68.216C100.162 68.4933 100.108 68.8027 100.108 69.144C100.108 69.4533 100.162 69.7413 100.268 70.008C100.386 70.2747 100.546 70.5093 100.748 70.712C100.951 70.9147 101.191 71.0747 101.468 71.192C101.746 71.3093 102.044 71.368 102.364 71.368C102.716 71.368 103.031 71.3093 103.308 71.192C103.596 71.0747 103.836 70.92 104.028 70.728C104.231 70.5253 104.386 70.2853 104.492 70.008C104.599 69.7307 104.652 69.432 104.652 69.112C104.652 68.44 104.45 67.896 104.044 67.48C103.639 67.064 103.084 66.856 102.38 66.856ZM108.651 65.32H110.475V66.552H110.507C110.688 66.168 110.965 65.8373 111.339 65.56C111.712 65.272 112.219 65.128 112.859 65.128C113.371 65.128 113.803 65.2133 114.155 65.384C114.517 65.5547 114.811 65.7787 115.035 66.056C115.259 66.3333 115.419 66.6533 115.515 67.016C115.611 67.3787 115.659 67.7573 115.659 68.152V73H113.739V69.112C113.739 68.8987 113.728 68.664 113.707 68.408C113.685 68.1413 113.627 67.896 113.531 67.672C113.445 67.4373 113.307 67.2453 113.115 67.096C112.923 66.936 112.661 66.856 112.331 66.856C112.011 66.856 111.739 66.9093 111.515 67.016C111.301 67.1227 111.12 67.2667 110.971 67.448C110.832 67.6293 110.731 67.8373 110.667 68.072C110.603 68.3067 110.571 68.552 110.571 68.808V73H108.651V65.32ZM117.454 69.16C117.454 68.552 117.561 68.0027 117.774 67.512C117.998 67.0107 118.297 66.584 118.67 66.232C119.043 65.88 119.486 65.608 119.998 65.416C120.51 65.224 121.054 65.128 121.63 65.128C122.206 65.128 122.75 65.224 123.262 65.416C123.774 65.608 124.217 65.88 124.59 66.232C124.963 66.584 125.257 67.0107 125.47 67.512C125.694 68.0027 125.806 68.552 125.806 69.16C125.806 69.768 125.694 70.3227 125.47 70.824C125.257 71.3147 124.963 71.736 124.59 72.088C124.217 72.44 123.774 72.712 123.262 72.904C122.75 73.096 122.206 73.192 121.63 73.192C121.054 73.192 120.51 73.096 119.998 72.904C119.486 72.712 119.043 72.44 118.67 72.088C118.297 71.736 117.998 71.3147 117.774 70.824C117.561 70.3227 117.454 69.768 117.454 69.16ZM119.374 69.16C119.374 69.4587 119.422 69.7467 119.518 70.024C119.625 70.3013 119.774 70.5467 119.966 70.76C120.169 70.9733 120.409 71.144 120.686 71.272C120.963 71.4 121.278 71.464 121.63 71.464C121.982 71.464 122.297 71.4 122.574 71.272C122.851 71.144 123.086 70.9733 123.278 70.76C123.481 70.5467 123.63 70.3013 123.726 70.024C123.833 69.7467 123.886 69.4587 123.886 69.16C123.886 68.8613 123.833 68.5733 123.726 68.296C123.63 68.0187 123.481 67.7733 123.278 67.56C123.086 67.3467 122.851 67.176 122.574 67.048C122.297 66.92 121.982 66.856 121.63 66.856C121.278 66.856 120.963 66.92 120.686 67.048C120.409 67.176 120.169 67.3467 119.966 67.56C119.774 67.7733 119.625 68.0187 119.518 68.296C119.422 68.5733 119.374 68.8613 119.374 69.16ZM127.604 65.32H129.428V66.552H129.46C129.641 66.168 129.918 65.8373 130.292 65.56C130.665 65.272 131.172 65.128 131.812 65.128C132.324 65.128 132.756 65.2133 133.108 65.384C133.47 65.5547 133.764 65.7787 133.988 66.056C134.212 66.3333 134.372 66.6533 134.468 67.016C134.564 67.3787 134.612 67.7573 134.612 68.152V73H132.692V69.112C132.692 68.8987 132.681 68.664 132.66 68.408C132.638 68.1413 132.58 67.896 132.484 67.672C132.398 67.4373 132.26 67.2453 132.068 67.096C131.876 66.936 131.614 66.856 131.284 66.856C130.964 66.856 130.692 66.9093 130.468 67.016C130.254 67.1227 130.073 67.2667 129.924 67.448C129.785 67.6293 129.684 67.8373 129.62 68.072C129.556 68.3067 129.524 68.552 129.524 68.808V73H127.604V65.32ZM140.887 67.448C140.514 66.9253 140.012 66.664 139.383 66.664C139.127 66.664 138.876 66.728 138.631 66.856C138.386 66.984 138.263 67.192 138.263 67.48C138.263 67.7147 138.364 67.8853 138.567 67.992C138.77 68.0987 139.026 68.1893 139.335 68.264C139.644 68.3387 139.975 68.4187 140.327 68.504C140.69 68.5787 141.026 68.7013 141.335 68.872C141.644 69.032 141.9 69.256 142.103 69.544C142.306 69.832 142.407 70.2267 142.407 70.728C142.407 71.1867 142.306 71.576 142.103 71.896C141.911 72.2053 141.655 72.456 141.335 72.648C141.026 72.84 140.674 72.9787 140.279 73.064C139.884 73.1493 139.49 73.192 139.095 73.192C138.498 73.192 137.948 73.1067 137.447 72.936C136.946 72.7653 136.498 72.456 136.103 72.008L137.383 70.808C137.628 71.0853 137.89 71.3147 138.167 71.496C138.455 71.6667 138.802 71.752 139.207 71.752C139.346 71.752 139.49 71.736 139.639 71.704C139.788 71.672 139.927 71.6187 140.055 71.544C140.183 71.4693 140.284 71.3787 140.359 71.272C140.444 71.1547 140.487 71.0213 140.487 70.872C140.487 70.6053 140.386 70.408 140.183 70.28C139.98 70.152 139.724 70.0507 139.415 69.976C139.106 69.8907 138.77 69.816 138.407 69.752C138.055 69.6773 137.724 69.5653 137.415 69.416C137.106 69.256 136.85 69.0373 136.647 68.76C136.444 68.4827 136.343 68.0987 136.343 67.608C136.343 67.1813 136.428 66.8133 136.599 66.504C136.78 66.184 137.015 65.9227 137.303 65.72C137.591 65.5173 137.922 65.368 138.295 65.272C138.668 65.176 139.047 65.128 139.431 65.128C139.943 65.128 140.45 65.2187 140.951 65.4C141.452 65.5707 141.858 65.8693 142.167 66.296L140.887 67.448Z" fill="#F3F3F4"/>
<path d="M296.794 62.6659C296.366 63.0617 296.366 63.7383 296.794 64.1341L300.973 68L296.794 71.8659C296.366 72.2617 296.366 72.9383 296.794 73.3341L296.834 73.3719C297.218 73.7264 297.809 73.7264 298.193 73.3719L303.206 68.7341C303.634 68.3383 303.634 67.6617 303.206 67.2659L298.193 62.6281C297.809 62.2736 297.218 62.2736 296.834 62.6281L296.794 62.6659Z" fill="#8DE8FE"/>
</svg>
