<svg width="328" height="96" viewBox="0 0 328 96" fill="none" xmlns="http://www.w3.org/2000/svg">
<path d="M1.422 5.256H9.864V7.308H3.69V10.44H9.54V12.492H3.69V15.948H10.188V18H1.422V5.256ZM16.8359 11.754C16.4159 11.166 15.8519 10.872 15.1439 10.872C14.8559 10.872 14.5739 10.944 14.2979 11.088C14.0219 11.232 13.8839 11.466 13.8839 11.79C13.8839 12.054 13.9979 12.246 14.2259 12.366C14.4539 12.486 14.7419 12.588 15.0899 12.672C15.4379 12.756 15.8099 12.846 16.2059 12.942C16.6139 13.026 16.9919 13.164 17.3399 13.356C17.6879 13.536 17.9759 13.788 18.2039 14.112C18.4319 14.436 18.5459 14.88 18.5459 15.444C18.5459 15.96 18.4319 16.398 18.2039 16.758C17.9879 17.106 17.6999 17.388 17.3399 17.604C16.9919 17.82 16.5959 17.976 16.1519 18.072C15.7079 18.168 15.2639 18.216 14.8199 18.216C14.1479 18.216 13.5299 18.12 12.9659 17.928C12.4019 17.736 11.8979 17.388 11.4539 16.884L12.8939 15.534C13.1699 15.846 13.4639 16.104 13.7759 16.308C14.0999 16.5 14.4899 16.596 14.9459 16.596C15.1019 16.596 15.2639 16.578 15.4319 16.542C15.5999 16.506 15.7559 16.446 15.8999 16.362C16.0439 16.278 16.1579 16.176 16.2419 16.056C16.3379 15.924 16.3859 15.774 16.3859 15.606C16.3859 15.306 16.2719 15.084 16.0439 14.94C15.8159 14.796 15.5279 14.682 15.1799 14.598C14.8319 14.502 14.4539 14.418 14.0459 14.346C13.6499 14.262 13.2779 14.136 12.9299 13.968C12.5819 13.788 12.2939 13.542 12.0659 13.23C11.8379 12.918 11.7239 12.486 11.7239 11.934C11.7239 11.454 11.8199 11.04 12.0119 10.692C12.2159 10.332 12.4799 10.038 12.8039 9.81C13.1279 9.582 13.4999 9.414 13.9199 9.306C14.3399 9.198 14.7659 9.144 15.1979 9.144C15.7739 9.144 16.3439 9.246 16.9079 9.45C17.4719 9.642 17.9279 9.978 18.2759 10.458L16.8359 11.754ZM20.226 9.36H22.278V10.656H22.314C22.626 10.128 23.046 9.744 23.574 9.504C24.102 9.264 24.672 9.144 25.284 9.144C25.944 9.144 26.538 9.264 27.066 9.504C27.594 9.732 28.044 10.05 28.416 10.458C28.788 10.866 29.07 11.346 29.262 11.898C29.454 12.45 29.55 13.044 29.55 13.68C29.55 14.316 29.448 14.91 29.244 15.462C29.04 16.014 28.752 16.494 28.38 16.902C28.02 17.31 27.582 17.634 27.066 17.874C26.55 18.102 25.986 18.216 25.374 18.216C24.966 18.216 24.606 18.174 24.294 18.09C23.982 18.006 23.706 17.898 23.466 17.766C23.226 17.634 23.022 17.496 22.854 17.352C22.686 17.196 22.548 17.046 22.44 16.902H22.386V22.104H20.226V9.36ZM27.39 13.68C27.39 13.344 27.33 13.02 27.21 12.708C27.102 12.396 26.934 12.12 26.706 11.88C26.49 11.64 26.226 11.448 25.914 11.304C25.602 11.16 25.248 11.088 24.852 11.088C24.456 11.088 24.102 11.16 23.79 11.304C23.478 11.448 23.208 11.64 22.98 11.88C22.764 12.12 22.596 12.396 22.476 12.708C22.368 13.02 22.314 13.344 22.314 13.68C22.314 14.016 22.368 14.34 22.476 14.652C22.596 14.964 22.764 15.24 22.98 15.48C23.208 15.72 23.478 15.912 23.79 16.056C24.102 16.2 24.456 16.272 24.852 16.272C25.248 16.272 25.602 16.2 25.914 16.056C26.226 15.912 26.49 15.72 26.706 15.48C26.934 15.24 27.102 14.964 27.21 14.652C27.33 14.34 27.39 14.016 27.39 13.68ZM36.9638 16.812H36.9098C36.5978 17.304 36.2018 17.664 35.7218 17.892C35.2418 18.108 34.7138 18.216 34.1378 18.216C33.7418 18.216 33.3518 18.162 32.9678 18.054C32.5958 17.946 32.2598 17.784 31.9598 17.568C31.6718 17.352 31.4378 17.082 31.2578 16.758C31.0778 16.434 30.9878 16.056 30.9878 15.624C30.9878 15.156 31.0718 14.76 31.2398 14.436C31.4078 14.1 31.6298 13.824 31.9058 13.608C32.1938 13.38 32.5238 13.2 32.8958 13.068C33.2678 12.936 33.6518 12.84 34.0478 12.78C34.4558 12.708 34.8638 12.666 35.2718 12.654C35.6798 12.63 36.0638 12.618 36.4238 12.618H36.9638V12.384C36.9638 11.844 36.7778 11.442 36.4058 11.178C36.0338 10.902 35.5598 10.764 34.9838 10.764C34.5278 10.764 34.1018 10.848 33.7058 11.016C33.3098 11.172 32.9678 11.388 32.6798 11.664L31.5458 10.53C32.0258 10.038 32.5838 9.684 33.2198 9.468C33.8678 9.252 34.5338 9.144 35.2178 9.144C35.8298 9.144 36.3458 9.216 36.7658 9.36C37.1858 9.492 37.5338 9.666 37.8098 9.882C38.0858 10.098 38.2958 10.35 38.4398 10.638C38.5958 10.914 38.7038 11.196 38.7638 11.484C38.8358 11.772 38.8778 12.054 38.8898 12.33C38.9018 12.594 38.9078 12.828 38.9078 13.032V18H36.9638V16.812ZM36.8378 14.13H36.3878C36.0878 14.13 35.7518 14.142 35.3798 14.166C35.0078 14.19 34.6538 14.25 34.3178 14.346C33.9938 14.43 33.7178 14.562 33.4898 14.742C33.2618 14.91 33.1478 15.15 33.1478 15.462C33.1478 15.666 33.1898 15.84 33.2738 15.984C33.3698 16.116 33.4898 16.23 33.6338 16.326C33.7778 16.422 33.9398 16.494 34.1198 16.542C34.2998 16.578 34.4798 16.596 34.6598 16.596C35.4038 16.596 35.9498 16.422 36.2978 16.074C36.6578 15.714 36.8378 15.228 36.8378 14.616V14.13ZM47.1358 11.952C46.8838 11.688 46.6198 11.478 46.3438 11.322C46.0678 11.166 45.7858 11.088 45.4978 11.088C45.1018 11.088 44.7478 11.16 44.4358 11.304C44.1238 11.448 43.8538 11.64 43.6258 11.88C43.4098 12.12 43.2418 12.396 43.1218 12.708C43.0138 13.02 42.9598 13.344 42.9598 13.68C42.9598 14.016 43.0138 14.34 43.1218 14.652C43.2418 14.964 43.4098 15.24 43.6258 15.48C43.8538 15.72 44.1238 15.912 44.4358 16.056C44.7478 16.2 45.1018 16.272 45.4978 16.272C45.8338 16.272 46.1458 16.206 46.4338 16.074C46.7218 15.93 46.9678 15.726 47.1718 15.462L48.6118 17.01C48.3958 17.226 48.1438 17.412 47.8558 17.568C47.5798 17.724 47.2978 17.85 47.0098 17.946C46.7218 18.042 46.4458 18.108 46.1818 18.144C45.9178 18.192 45.6898 18.216 45.4978 18.216C44.8498 18.216 44.2378 18.108 43.6618 17.892C43.0858 17.676 42.5878 17.37 42.1678 16.974C41.7478 16.578 41.4118 16.104 41.1598 15.552C40.9198 14.988 40.7998 14.364 40.7998 13.68C40.7998 12.996 40.9198 12.378 41.1598 11.826C41.4118 11.262 41.7478 10.782 42.1678 10.386C42.5878 9.99 43.0858 9.684 43.6618 9.468C44.2378 9.252 44.8498 9.144 45.4978 9.144C46.0498 9.144 46.6018 9.252 47.1538 9.468C47.7178 9.672 48.2098 10.002 48.6298 10.458L47.1358 11.952ZM51.6434 14.436C51.7154 15.084 51.9674 15.588 52.3994 15.948C52.8314 16.308 53.3534 16.488 53.9654 16.488C54.5054 16.488 54.9554 16.38 55.3154 16.164C55.6874 15.936 56.0114 15.654 56.2874 15.318L57.8354 16.488C57.3314 17.112 56.7674 17.556 56.1434 17.82C55.5194 18.084 54.8654 18.216 54.1814 18.216C53.5334 18.216 52.9214 18.108 52.3454 17.892C51.7694 17.676 51.2714 17.37 50.8514 16.974C50.4314 16.578 50.0954 16.104 49.8434 15.552C49.6034 14.988 49.4834 14.364 49.4834 13.68C49.4834 12.996 49.6034 12.378 49.8434 11.826C50.0954 11.262 50.4314 10.782 50.8514 10.386C51.2714 9.99 51.7694 9.684 52.3454 9.468C52.9214 9.252 53.5334 9.144 54.1814 9.144C54.7814 9.144 55.3274 9.252 55.8194 9.468C56.3234 9.672 56.7494 9.972 57.0974 10.368C57.4574 10.764 57.7334 11.256 57.9254 11.844C58.1294 12.42 58.2314 13.086 58.2314 13.842V14.436H51.6434ZM56.0714 12.816C56.0594 12.18 55.8614 11.682 55.4774 11.322C55.0934 10.95 54.5594 10.764 53.8754 10.764C53.2274 10.764 52.7114 10.95 52.3274 11.322C51.9554 11.694 51.7274 12.192 51.6434 12.816H56.0714ZM70.9775 16.812H70.9235C70.6115 17.304 70.2155 17.664 69.7355 17.892C69.2555 18.108 68.7275 18.216 68.1515 18.216C67.7555 18.216 67.3655 18.162 66.9815 18.054C66.6095 17.946 66.2735 17.784 65.9735 17.568C65.6855 17.352 65.4515 17.082 65.2715 16.758C65.0915 16.434 65.0015 16.056 65.0015 15.624C65.0015 15.156 65.0855 14.76 65.2535 14.436C65.4215 14.1 65.6435 13.824 65.9195 13.608C66.2075 13.38 66.5375 13.2 66.9095 13.068C67.2815 12.936 67.6655 12.84 68.0615 12.78C68.4695 12.708 68.8775 12.666 69.2855 12.654C69.6935 12.63 70.0775 12.618 70.4375 12.618H70.9775V12.384C70.9775 11.844 70.7915 11.442 70.4195 11.178C70.0475 10.902 69.5735 10.764 68.9975 10.764C68.5415 10.764 68.1155 10.848 67.7195 11.016C67.3235 11.172 66.9815 11.388 66.6935 11.664L65.5595 10.53C66.0395 10.038 66.5975 9.684 67.2335 9.468C67.8815 9.252 68.5475 9.144 69.2315 9.144C69.8435 9.144 70.3595 9.216 70.7795 9.36C71.1995 9.492 71.5475 9.666 71.8235 9.882C72.0995 10.098 72.3095 10.35 72.4535 10.638C72.6095 10.914 72.7175 11.196 72.7775 11.484C72.8495 11.772 72.8915 12.054 72.9035 12.33C72.9155 12.594 72.9215 12.828 72.9215 13.032V18H70.9775V16.812ZM70.8515 14.13H70.4015C70.1015 14.13 69.7655 14.142 69.3935 14.166C69.0215 14.19 68.6675 14.25 68.3315 14.346C68.0075 14.43 67.7315 14.562 67.5035 14.742C67.2755 14.91 67.1615 15.15 67.1615 15.462C67.1615 15.666 67.2035 15.84 67.2875 15.984C67.3835 16.116 67.5035 16.23 67.6475 16.326C67.7915 16.422 67.9535 16.494 68.1335 16.542C68.3135 16.578 68.4935 16.596 68.6735 16.596C69.4175 16.596 69.9635 16.422 70.3115 16.074C70.6715 15.714 70.8515 15.228 70.8515 14.616V14.13ZM75.2455 9.36H77.2975V10.746H77.3335C77.5375 10.314 77.8495 9.942 78.2695 9.63C78.6895 9.306 79.2595 9.144 79.9795 9.144C80.5555 9.144 81.0415 9.24 81.4375 9.432C81.8455 9.624 82.1755 9.876 82.4275 10.188C82.6795 10.5 82.8595 10.86 82.9675 11.268C83.0755 11.676 83.1295 12.102 83.1295 12.546V18H80.9695V13.626C80.9695 13.386 80.9575 13.122 80.9335 12.834C80.9095 12.534 80.8435 12.258 80.7355 12.006C80.6395 11.742 80.4835 11.526 80.2675 11.358C80.0515 11.178 79.7575 11.088 79.3855 11.088C79.0255 11.088 78.7195 11.148 78.4675 11.268C78.2275 11.388 78.0235 11.55 77.8555 11.754C77.6995 11.958 77.5855 12.192 77.5135 12.456C77.4415 12.72 77.4055 12.996 77.4055 13.284V18H75.2455V9.36ZM85.5814 9.36H87.6334V10.746H87.6694C87.8734 10.314 88.1854 9.942 88.6054 9.63C89.0254 9.306 89.5954 9.144 90.3154 9.144C90.8914 9.144 91.3774 9.24 91.7734 9.432C92.1814 9.624 92.5114 9.876 92.7634 10.188C93.0154 10.5 93.1954 10.86 93.3034 11.268C93.4114 11.676 93.4654 12.102 93.4654 12.546V18H91.3054V13.626C91.3054 13.386 91.2934 13.122 91.2694 12.834C91.2454 12.534 91.1794 12.258 91.0714 12.006C90.9754 11.742 90.8194 11.526 90.6034 11.358C90.3874 11.178 90.0934 11.088 89.7214 11.088C89.3614 11.088 89.0554 11.148 88.8034 11.268C88.5634 11.388 88.3594 11.55 88.1914 11.754C88.0354 11.958 87.9214 12.192 87.8494 12.456C87.7774 12.72 87.7414 12.996 87.7414 13.284V18H85.5814V9.36ZM97.6454 14.436C97.7174 15.084 97.9694 15.588 98.4014 15.948C98.8334 16.308 99.3554 16.488 99.9674 16.488C100.507 16.488 100.957 16.38 101.317 16.164C101.689 15.936 102.013 15.654 102.289 15.318L103.837 16.488C103.333 17.112 102.769 17.556 102.145 17.82C101.521 18.084 100.867 18.216 100.183 18.216C99.5354 18.216 98.9234 18.108 98.3474 17.892C97.7714 17.676 97.2734 17.37 96.8534 16.974C96.4334 16.578 96.0974 16.104 95.8454 15.552C95.6054 14.988 95.4854 14.364 95.4854 13.68C95.4854 12.996 95.6054 12.378 95.8454 11.826C96.0974 11.262 96.4334 10.782 96.8534 10.386C97.2734 9.99 97.7714 9.684 98.3474 9.468C98.9234 9.252 99.5354 9.144 100.183 9.144C100.783 9.144 101.329 9.252 101.821 9.468C102.325 9.672 102.751 9.972 103.099 10.368C103.459 10.764 103.735 11.256 103.927 11.844C104.131 12.42 104.233 13.086 104.233 13.842V14.436H97.6454ZM102.073 12.816C102.061 12.18 101.863 11.682 101.479 11.322C101.095 10.95 100.561 10.764 99.8774 10.764C99.2294 10.764 98.7134 10.95 98.3294 11.322C97.9574 11.694 97.7294 12.192 97.6454 12.816H102.073ZM108.485 13.356L105.497 9.36H108.125L109.853 11.952L111.725 9.36H114.191L111.239 13.356L114.713 18H112.085L109.835 14.904L107.567 18H105.011L108.485 13.356ZM117.649 14.436C117.721 15.084 117.973 15.588 118.405 15.948C118.837 16.308 119.359 16.488 119.971 16.488C120.511 16.488 120.961 16.38 121.321 16.164C121.693 15.936 122.017 15.654 122.293 15.318L123.841 16.488C123.337 17.112 122.773 17.556 122.149 17.82C121.525 18.084 120.871 18.216 120.187 18.216C119.539 18.216 118.927 18.108 118.351 17.892C117.775 17.676 117.277 17.37 116.857 16.974C116.437 16.578 116.101 16.104 115.849 15.552C115.609 14.988 115.489 14.364 115.489 13.68C115.489 12.996 115.609 12.378 115.849 11.826C116.101 11.262 116.437 10.782 116.857 10.386C117.277 9.99 117.775 9.684 118.351 9.468C118.927 9.252 119.539 9.144 120.187 9.144C120.787 9.144 121.333 9.252 121.825 9.468C122.329 9.672 122.755 9.972 123.103 10.368C123.463 10.764 123.739 11.256 123.931 11.844C124.135 12.42 124.237 13.086 124.237 13.842V14.436H117.649ZM122.077 12.816C122.065 12.18 121.867 11.682 121.483 11.322C121.099 10.95 120.565 10.764 119.881 10.764C119.233 10.764 118.717 10.95 118.333 11.322C117.961 11.694 117.733 12.192 117.649 12.816H122.077Z" fill="#F3F3F8"/>
<rect y="40" width="328" height="56" rx="14" fill="#242B35"/>
<path d="M20.928 61.672H22.672L27.552 73H25.248L24.192 70.408H19.28L18.256 73H16L20.928 61.672ZM23.488 68.68L21.744 64.072L19.968 68.68H23.488ZM36.5389 65.32V72.312C36.5389 73.0053 36.4535 73.6293 36.2829 74.184C36.1122 74.7493 35.8455 75.224 35.4829 75.608C35.1309 76.0027 34.6829 76.3067 34.1389 76.52C33.5949 76.7333 32.9495 76.84 32.2029 76.84C31.4882 76.84 30.8109 76.7493 30.1709 76.568C29.5309 76.3867 28.9389 76.056 28.3949 75.576L29.5469 74.008C29.9309 74.36 30.3309 74.632 30.7469 74.824C31.1629 75.016 31.6429 75.112 32.1869 75.112C32.6455 75.112 33.0295 75.048 33.3389 74.92C33.6589 74.792 33.9095 74.616 34.0909 74.392C34.2829 74.168 34.4162 73.896 34.4909 73.576C34.5762 73.2667 34.6189 72.92 34.6189 72.536V71.976H34.5869C34.3095 72.3493 33.9415 72.632 33.4829 72.824C33.0242 73.0053 32.5549 73.096 32.0749 73.096C31.4989 73.096 30.9762 72.9947 30.5069 72.792C30.0375 72.5787 29.6322 72.296 29.2909 71.944C28.9602 71.592 28.7042 71.176 28.5229 70.696C28.3415 70.216 28.2509 69.704 28.2509 69.16C28.2509 68.5947 28.3362 68.0667 28.5069 67.576C28.6775 67.0853 28.9282 66.6587 29.2589 66.296C29.5895 65.9333 29.9842 65.6507 30.4429 65.448C30.9122 65.2347 31.4455 65.128 32.0429 65.128C32.5869 65.128 33.0935 65.2347 33.5629 65.448C34.0322 65.6613 34.4055 66.0027 34.6829 66.472H34.7149V65.32H36.5389ZM32.4429 66.856C32.1015 66.856 31.7922 66.9147 31.5149 67.032C31.2375 67.1387 30.9975 67.2933 30.7949 67.496C30.6029 67.688 30.4482 67.928 30.3309 68.216C30.2242 68.4933 30.1709 68.8027 30.1709 69.144C30.1709 69.4533 30.2242 69.7413 30.3309 70.008C30.4482 70.2747 30.6082 70.5093 30.8109 70.712C31.0135 70.9147 31.2535 71.0747 31.5309 71.192C31.8082 71.3093 32.1069 71.368 32.4269 71.368C32.7789 71.368 33.0935 71.3093 33.3709 71.192C33.6589 71.0747 33.8989 70.92 34.0909 70.728C34.2935 70.5253 34.4482 70.2853 34.5549 70.008C34.6615 69.7307 34.7149 69.432 34.7149 69.112C34.7149 68.44 34.5122 67.896 34.1069 67.48C33.7015 67.064 33.1469 66.856 32.4429 66.856ZM40.249 69.832C40.313 70.408 40.537 70.856 40.921 71.176C41.305 71.496 41.769 71.656 42.313 71.656C42.793 71.656 43.193 71.56 43.513 71.368C43.8437 71.1653 44.1317 70.9147 44.377 70.616L45.753 71.656C45.305 72.2107 44.8037 72.6053 44.249 72.84C43.6943 73.0747 43.113 73.192 42.505 73.192C41.929 73.192 41.385 73.096 40.873 72.904C40.361 72.712 39.9183 72.44 39.545 72.088C39.1717 71.736 38.873 71.3147 38.649 70.824C38.4357 70.3227 38.329 69.768 38.329 69.16C38.329 68.552 38.4357 68.0027 38.649 67.512C38.873 67.0107 39.1717 66.584 39.545 66.232C39.9183 65.88 40.361 65.608 40.873 65.416C41.385 65.224 41.929 65.128 42.505 65.128C43.0383 65.128 43.5237 65.224 43.961 65.416C44.409 65.5973 44.7877 65.864 45.097 66.216C45.417 66.568 45.6623 67.0053 45.833 67.528C46.0143 68.04 46.105 68.632 46.105 69.304V69.832H40.249ZM44.185 68.392C44.1743 67.8267 43.9983 67.384 43.657 67.064C43.3157 66.7333 42.841 66.568 42.233 66.568C41.657 66.568 41.1983 66.7333 40.857 67.064C40.5263 67.3947 40.3237 67.8373 40.249 68.392H44.185ZM47.9005 65.32H49.7245V66.552H49.7565C49.9378 66.168 50.2152 65.8373 50.5885 65.56C50.9618 65.272 51.4685 65.128 52.1085 65.128C52.6205 65.128 53.0525 65.2133 53.4045 65.384C53.7672 65.5547 54.0605 65.7787 54.2845 66.056C54.5085 66.3333 54.6685 66.6533 54.7645 67.016C54.8605 67.3787 54.9085 67.7573 54.9085 68.152V73H52.9885V69.112C52.9885 68.8987 52.9778 68.664 52.9565 68.408C52.9352 68.1413 52.8765 67.896 52.7805 67.672C52.6952 67.4373 52.5565 67.2453 52.3645 67.096C52.1725 66.936 51.9112 66.856 51.5805 66.856C51.2605 66.856 50.9885 66.9093 50.7645 67.016C50.5512 67.1227 50.3698 67.2667 50.2205 67.448C50.0818 67.6293 49.9805 67.8373 49.9165 68.072C49.8525 68.3067 49.8205 68.552 49.8205 68.808V73H47.9005V65.32ZM56.192 66.952V65.32H57.776V63.096H59.696V65.32H61.808V66.952H59.696V70.312C59.696 70.696 59.7653 71 59.904 71.224C60.0533 71.448 60.3413 71.56 60.768 71.56C60.9387 71.56 61.1253 71.544 61.328 71.512C61.5307 71.4693 61.6907 71.4053 61.808 71.32V72.936C61.6053 73.032 61.3547 73.096 61.056 73.128C60.768 73.1707 60.512 73.192 60.288 73.192C59.776 73.192 59.3547 73.1333 59.024 73.016C58.704 72.9093 58.448 72.744 58.256 72.52C58.0747 72.2853 57.9467 71.9973 57.872 71.656C57.808 71.3147 57.776 70.92 57.776 70.472V66.952H56.192ZM73.7691 64.104C73.5558 63.7947 73.2678 63.5707 72.9051 63.432C72.5531 63.2827 72.1798 63.208 71.7851 63.208C71.5505 63.208 71.3211 63.2347 71.0971 63.288C70.8838 63.3413 70.6865 63.4267 70.5051 63.544C70.3345 63.6613 70.1958 63.816 70.0891 64.008C69.9825 64.1893 69.9291 64.408 69.9291 64.664C69.9291 65.048 70.0625 65.3413 70.3291 65.544C70.5958 65.7467 70.9265 65.9227 71.3211 66.072C71.7158 66.2213 72.1478 66.3653 72.6171 66.504C73.0865 66.6427 73.5185 66.8347 73.9131 67.08C74.3078 67.3253 74.6385 67.6507 74.9051 68.056C75.1718 68.4613 75.3051 69 75.3051 69.672C75.3051 70.28 75.1931 70.8133 74.9691 71.272C74.7451 71.72 74.4411 72.0933 74.0571 72.392C73.6838 72.6907 73.2465 72.9147 72.7451 73.064C72.2438 73.2133 71.7158 73.288 71.1611 73.288C70.4571 73.288 69.7798 73.1707 69.1291 72.936C68.4785 72.7013 67.9185 72.3067 67.4491 71.752L68.9691 70.28C69.2145 70.6533 69.5345 70.9467 69.9291 71.16C70.3345 71.3627 70.7611 71.464 71.2091 71.464C71.4438 71.464 71.6785 71.432 71.9131 71.368C72.1478 71.304 72.3611 71.208 72.5531 71.08C72.7451 70.952 72.8998 70.792 73.0171 70.6C73.1345 70.3973 73.1931 70.168 73.1931 69.912C73.1931 69.496 73.0598 69.176 72.7931 68.952C72.5265 68.728 72.1958 68.5413 71.8011 68.392C71.4065 68.232 70.9745 68.0827 70.5051 67.944C70.0358 67.8053 69.6038 67.6187 69.2091 67.384C68.8145 67.1387 68.4838 66.8187 68.2171 66.424C67.9505 66.0187 67.8171 65.48 67.8171 64.808C67.8171 64.2213 67.9345 63.7147 68.1691 63.288C68.4145 62.8613 68.7291 62.5093 69.1131 62.232C69.5078 61.944 69.9558 61.7307 70.4571 61.592C70.9585 61.4533 71.4705 61.384 71.9931 61.384C72.5905 61.384 73.1665 61.4747 73.7211 61.656C74.2865 61.8373 74.7931 62.136 75.2411 62.552L73.7691 64.104ZM77.4046 61.672H80.0766L85.5646 70.088H85.5966V61.672H87.6126V73H85.0526L79.4526 64.312H79.4206V73H77.4046V61.672ZM97.915 64.328C97.499 63.88 97.0937 63.5813 96.699 63.432C96.315 63.2827 95.9257 63.208 95.531 63.208C94.9443 63.208 94.411 63.3147 93.931 63.528C93.4617 63.7307 93.0563 64.0187 92.715 64.392C92.3737 64.7547 92.107 65.1813 91.915 65.672C91.7337 66.1627 91.643 66.6907 91.643 67.256C91.643 67.864 91.7337 68.424 91.915 68.936C92.107 69.448 92.3737 69.8907 92.715 70.264C93.0563 70.6373 93.4617 70.9307 93.931 71.144C94.411 71.3573 94.9443 71.464 95.531 71.464C95.9897 71.464 96.4323 71.3573 96.859 71.144C97.2963 70.92 97.7017 70.568 98.075 70.088L99.739 71.272C99.227 71.976 98.603 72.488 97.867 72.808C97.131 73.128 96.347 73.288 95.515 73.288C94.6403 73.288 93.835 73.1493 93.099 72.872C92.3737 72.584 91.7443 72.184 91.211 71.672C90.6883 71.1493 90.2777 70.5253 89.979 69.8C89.6803 69.0747 89.531 68.2693 89.531 67.384C89.531 66.4773 89.6803 65.656 89.979 64.92C90.2777 64.1733 90.6883 63.5387 91.211 63.016C91.7443 62.4933 92.3737 62.0933 93.099 61.816C93.835 61.528 94.6403 61.384 95.515 61.384C96.283 61.384 96.9923 61.5227 97.643 61.8C98.3043 62.0667 98.9177 62.5253 99.483 63.176L97.915 64.328ZM101.092 61.672H108.404V63.496H103.108V66.472H108.1V68.296H103.108V73H101.092V61.672ZM108.681 70.792H110.633L109.273 75.016H107.561L108.681 70.792ZM117.51 65.32H119.43V66.536H119.462C119.675 66.088 119.979 65.7413 120.374 65.496C120.769 65.2507 121.222 65.128 121.734 65.128C121.851 65.128 121.963 65.1387 122.07 65.16C122.187 65.1813 122.305 65.208 122.422 65.24V67.096C122.262 67.0533 122.102 67.0213 121.942 67C121.793 66.968 121.643 66.952 121.494 66.952C121.046 66.952 120.683 67.0373 120.406 67.208C120.139 67.368 119.931 67.5547 119.782 67.768C119.643 67.9813 119.547 68.1947 119.494 68.408C119.451 68.6213 119.43 68.7813 119.43 68.888V73H117.51V65.32ZM124.983 69.832C125.047 70.408 125.271 70.856 125.655 71.176C126.039 71.496 126.503 71.656 127.047 71.656C127.527 71.656 127.927 71.56 128.247 71.368C128.578 71.1653 128.866 70.9147 129.111 70.616L130.487 71.656C130.039 72.2107 129.538 72.6053 128.983 72.84C128.429 73.0747 127.847 73.192 127.239 73.192C126.663 73.192 126.119 73.096 125.607 72.904C125.095 72.712 124.653 72.44 124.279 72.088C123.906 71.736 123.607 71.3147 123.383 70.824C123.17 70.3227 123.063 69.768 123.063 69.16C123.063 68.552 123.17 68.0027 123.383 67.512C123.607 67.0107 123.906 66.584 124.279 66.232C124.653 65.88 125.095 65.608 125.607 65.416C126.119 65.224 126.663 65.128 127.239 65.128C127.773 65.128 128.258 65.224 128.695 65.416C129.143 65.5973 129.522 65.864 129.831 66.216C130.151 66.568 130.397 67.0053 130.567 67.528C130.749 68.04 130.839 68.632 130.839 69.304V69.832H124.983ZM128.919 68.392C128.909 67.8267 128.733 67.384 128.391 67.064C128.05 66.7333 127.575 66.568 126.967 66.568C126.391 66.568 125.933 66.7333 125.591 67.064C125.261 67.3947 125.058 67.8373 124.983 68.392H128.919ZM131.739 66.952V65.32H133.323V63.096H135.243V65.32H137.355V66.952H135.243V70.312C135.243 70.696 135.312 71 135.451 71.224C135.6 71.448 135.888 71.56 136.315 71.56C136.486 71.56 136.672 71.544 136.875 71.512C137.078 71.4693 137.238 71.4053 137.355 71.32V72.936C137.152 73.032 136.902 73.096 136.603 73.128C136.315 73.1707 136.059 73.192 135.835 73.192C135.323 73.192 134.902 73.1333 134.571 73.016C134.251 72.9093 133.995 72.744 133.803 72.52C133.622 72.2853 133.494 71.9973 133.419 71.656C133.355 71.3147 133.323 70.92 133.323 70.472V66.952H131.739ZM138.854 65.32H140.774V66.536H140.806C141.019 66.088 141.323 65.7413 141.718 65.496C142.112 65.2507 142.566 65.128 143.078 65.128C143.195 65.128 143.307 65.1387 143.414 65.16C143.531 65.1813 143.648 65.208 143.766 65.24V67.096C143.606 67.0533 143.446 67.0213 143.286 67C143.136 66.968 142.987 66.952 142.838 66.952C142.39 66.952 142.027 67.0373 141.75 67.208C141.483 67.368 141.275 67.5547 141.126 67.768C140.987 67.9813 140.891 68.1947 140.838 68.408C140.795 68.6213 140.774 68.7813 140.774 68.888V73H138.854V65.32ZM149.872 71.944H149.824C149.547 72.3813 149.195 72.7013 148.768 72.904C148.342 73.096 147.872 73.192 147.36 73.192C147.008 73.192 146.662 73.144 146.32 73.048C145.99 72.952 145.691 72.808 145.424 72.616C145.168 72.424 144.96 72.184 144.8 71.896C144.64 71.608 144.56 71.272 144.56 70.888C144.56 70.472 144.635 70.12 144.784 69.832C144.934 69.5333 145.131 69.288 145.376 69.096C145.632 68.8933 145.926 68.7333 146.256 68.616C146.587 68.4987 146.928 68.4133 147.28 68.36C147.643 68.296 148.006 68.2587 148.368 68.248C148.731 68.2267 149.072 68.216 149.392 68.216H149.872V68.008C149.872 67.528 149.707 67.1707 149.376 66.936C149.046 66.6907 148.624 66.568 148.112 66.568C147.707 66.568 147.328 66.6427 146.976 66.792C146.624 66.9307 146.32 67.1227 146.064 67.368L145.056 66.36C145.483 65.9227 145.979 65.608 146.544 65.416C147.12 65.224 147.712 65.128 148.32 65.128C148.864 65.128 149.323 65.192 149.696 65.32C150.07 65.4373 150.379 65.592 150.624 65.784C150.87 65.976 151.056 66.2 151.184 66.456C151.323 66.7013 151.419 66.952 151.472 67.208C151.536 67.464 151.574 67.7147 151.584 67.96C151.595 68.1947 151.6 68.4027 151.6 68.584V73H149.872V71.944ZM149.76 69.56H149.36C149.094 69.56 148.795 69.5707 148.464 69.592C148.134 69.6133 147.819 69.6667 147.52 69.752C147.232 69.8267 146.987 69.944 146.784 70.104C146.582 70.2533 146.48 70.4667 146.48 70.744C146.48 70.9253 146.518 71.08 146.592 71.208C146.678 71.3253 146.784 71.4267 146.912 71.512C147.04 71.5973 147.184 71.6613 147.344 71.704C147.504 71.736 147.664 71.752 147.824 71.752C148.486 71.752 148.971 71.5973 149.28 71.288C149.6 70.968 149.76 70.536 149.76 69.992V69.56ZM153.698 65.32H155.618V73H153.698V65.32ZM153.426 62.712C153.426 62.4027 153.538 62.136 153.762 61.912C153.997 61.6773 154.29 61.56 154.642 61.56C154.994 61.56 155.287 61.672 155.522 61.896C155.767 62.1093 155.89 62.3813 155.89 62.712C155.89 63.0427 155.767 63.32 155.522 63.544C155.287 63.7573 154.994 63.864 154.642 63.864C154.29 63.864 153.997 63.752 153.762 63.528C153.538 63.2933 153.426 63.0213 153.426 62.712ZM156.926 66.952V65.32H158.51V63.096H160.43V65.32H162.542V66.952H160.43V70.312C160.43 70.696 160.5 71 160.638 71.224C160.788 71.448 161.076 71.56 161.502 71.56C161.673 71.56 161.86 71.544 162.062 71.512C162.265 71.4693 162.425 71.4053 162.542 71.32V72.936C162.34 73.032 162.089 73.096 161.79 73.128C161.502 73.1707 161.246 73.192 161.022 73.192C160.51 73.192 160.089 73.1333 159.758 73.016C159.438 72.9093 159.182 72.744 158.99 72.52C158.809 72.2853 158.681 71.9973 158.606 71.656C158.542 71.3147 158.51 70.92 158.51 70.472V66.952H156.926ZM165.577 69.832C165.641 70.408 165.865 70.856 166.249 71.176C166.633 71.496 167.097 71.656 167.641 71.656C168.121 71.656 168.521 71.56 168.841 71.368C169.172 71.1653 169.46 70.9147 169.705 70.616L171.081 71.656C170.633 72.2107 170.132 72.6053 169.577 72.84C169.022 73.0747 168.441 73.192 167.833 73.192C167.257 73.192 166.713 73.096 166.201 72.904C165.689 72.712 165.246 72.44 164.873 72.088C164.5 71.736 164.201 71.3147 163.977 70.824C163.764 70.3227 163.657 69.768 163.657 69.16C163.657 68.552 163.764 68.0027 163.977 67.512C164.201 67.0107 164.5 66.584 164.873 66.232C165.246 65.88 165.689 65.608 166.201 65.416C166.713 65.224 167.257 65.128 167.833 65.128C168.366 65.128 168.852 65.224 169.289 65.416C169.737 65.5973 170.116 65.864 170.425 66.216C170.745 66.568 170.99 67.0053 171.161 67.528C171.342 68.04 171.433 68.632 171.433 69.304V69.832H165.577ZM169.513 68.392C169.502 67.8267 169.326 67.384 168.985 67.064C168.644 66.7333 168.169 66.568 167.561 66.568C166.985 66.568 166.526 66.7333 166.185 67.064C165.854 67.3947 165.652 67.8373 165.577 68.392H169.513ZM168.377 61.672H170.553L168.297 63.976H166.793L168.377 61.672ZM173.869 70.792H175.821L174.461 75.016H172.749L173.869 70.792ZM187.497 71.944H187.449C187.172 72.3813 186.82 72.7013 186.393 72.904C185.967 73.096 185.497 73.192 184.985 73.192C184.633 73.192 184.287 73.144 183.945 73.048C183.615 72.952 183.316 72.808 183.049 72.616C182.793 72.424 182.585 72.184 182.425 71.896C182.265 71.608 182.185 71.272 182.185 70.888C182.185 70.472 182.26 70.12 182.409 69.832C182.559 69.5333 182.756 69.288 183.001 69.096C183.257 68.8933 183.551 68.7333 183.881 68.616C184.212 68.4987 184.553 68.4133 184.905 68.36C185.268 68.296 185.631 68.2587 185.993 68.248C186.356 68.2267 186.697 68.216 187.017 68.216H187.497V68.008C187.497 67.528 187.332 67.1707 187.001 66.936C186.671 66.6907 186.249 66.568 185.737 66.568C185.332 66.568 184.953 66.6427 184.601 66.792C184.249 66.9307 183.945 67.1227 183.689 67.368L182.681 66.36C183.108 65.9227 183.604 65.608 184.169 65.416C184.745 65.224 185.337 65.128 185.945 65.128C186.489 65.128 186.948 65.192 187.321 65.32C187.695 65.4373 188.004 65.592 188.249 65.784C188.495 65.976 188.681 66.2 188.809 66.456C188.948 66.7013 189.044 66.952 189.097 67.208C189.161 67.464 189.199 67.7147 189.209 67.96C189.22 68.1947 189.225 68.4027 189.225 68.584V73H187.497V71.944ZM187.385 69.56H186.985C186.719 69.56 186.42 69.5707 186.089 69.592C185.759 69.6133 185.444 69.6667 185.145 69.752C184.857 69.8267 184.612 69.944 184.409 70.104C184.207 70.2533 184.105 70.4667 184.105 70.744C184.105 70.9253 184.143 71.08 184.217 71.208C184.303 71.3253 184.409 71.4267 184.537 71.512C184.665 71.5973 184.809 71.6613 184.969 71.704C185.129 71.736 185.289 71.752 185.449 71.752C186.111 71.752 186.596 71.5973 186.905 71.288C187.225 70.968 187.385 70.536 187.385 69.992V69.56ZM190.251 65.32H192.363L194.507 70.648H194.539L196.459 65.32H198.459L194.827 74.648C194.688 75.0107 194.534 75.3253 194.363 75.592C194.203 75.8693 194.011 76.0987 193.787 76.28C193.563 76.472 193.296 76.6107 192.987 76.696C192.688 76.792 192.326 76.84 191.899 76.84C191.398 76.84 190.907 76.776 190.427 76.648L190.667 74.92C190.816 74.9733 190.971 75.016 191.131 75.048C191.302 75.0907 191.472 75.112 191.643 75.112C191.878 75.112 192.075 75.0907 192.235 75.048C192.395 75.0053 192.528 74.936 192.635 74.84C192.752 74.7547 192.848 74.6373 192.923 74.488C192.998 74.3493 193.078 74.1787 193.163 73.976L193.531 73.064L190.251 65.32ZM204.388 71.944H204.34C204.063 72.3813 203.711 72.7013 203.284 72.904C202.857 73.096 202.388 73.192 201.876 73.192C201.524 73.192 201.177 73.144 200.836 73.048C200.505 72.952 200.207 72.808 199.94 72.616C199.684 72.424 199.476 72.184 199.316 71.896C199.156 71.608 199.076 71.272 199.076 70.888C199.076 70.472 199.151 70.12 199.3 69.832C199.449 69.5333 199.647 69.288 199.892 69.096C200.148 68.8933 200.441 68.7333 200.772 68.616C201.103 68.4987 201.444 68.4133 201.796 68.36C202.159 68.296 202.521 68.2587 202.884 68.248C203.247 68.2267 203.588 68.216 203.908 68.216H204.388V68.008C204.388 67.528 204.223 67.1707 203.892 66.936C203.561 66.6907 203.14 66.568 202.628 66.568C202.223 66.568 201.844 66.6427 201.492 66.792C201.14 66.9307 200.836 67.1227 200.58 67.368L199.572 66.36C199.999 65.9227 200.495 65.608 201.06 65.416C201.636 65.224 202.228 65.128 202.836 65.128C203.38 65.128 203.839 65.192 204.212 65.32C204.585 65.4373 204.895 65.592 205.14 65.784C205.385 65.976 205.572 66.2 205.7 66.456C205.839 66.7013 205.935 66.952 205.988 67.208C206.052 67.464 206.089 67.7147 206.1 67.96C206.111 68.1947 206.116 68.4027 206.116 68.584V73H204.388V71.944ZM204.276 69.56H203.876C203.609 69.56 203.311 69.5707 202.98 69.592C202.649 69.6133 202.335 69.6667 202.036 69.752C201.748 69.8267 201.503 69.944 201.3 70.104C201.097 70.2533 200.996 70.4667 200.996 70.744C200.996 70.9253 201.033 71.08 201.108 71.208C201.193 71.3253 201.3 71.4267 201.428 71.512C201.556 71.5973 201.7 71.6613 201.86 71.704C202.02 71.736 202.18 71.752 202.34 71.752C203.001 71.752 203.487 71.5973 203.796 71.288C204.116 70.968 204.276 70.536 204.276 69.992V69.56ZM208.182 65.32H210.006V66.552H210.038C210.219 66.168 210.496 65.8373 210.87 65.56C211.243 65.272 211.75 65.128 212.39 65.128C212.902 65.128 213.334 65.2133 213.686 65.384C214.048 65.5547 214.342 65.7787 214.566 66.056C214.79 66.3333 214.95 66.6533 215.046 67.016C215.142 67.3787 215.19 67.7573 215.19 68.152V73H213.27V69.112C213.27 68.8987 213.259 68.664 213.238 68.408C213.216 68.1413 213.158 67.896 213.062 67.672C212.976 67.4373 212.838 67.2453 212.646 67.096C212.454 66.936 212.192 66.856 211.862 66.856C211.542 66.856 211.27 66.9093 211.046 67.016C210.832 67.1227 210.651 67.2667 210.502 67.448C210.363 67.6293 210.262 67.8373 210.198 68.072C210.134 68.3067 210.102 68.552 210.102 68.808V73H208.182V65.32ZM216.473 66.952V65.32H218.057V63.096H219.977V65.32H222.089V66.952H219.977V70.312C219.977 70.696 220.047 71 220.185 71.224C220.335 71.448 220.623 71.56 221.049 71.56C221.22 71.56 221.407 71.544 221.609 71.512C221.812 71.4693 221.972 71.4053 222.089 71.32V72.936C221.887 73.032 221.636 73.096 221.337 73.128C221.049 73.1707 220.793 73.192 220.569 73.192C220.057 73.192 219.636 73.1333 219.305 73.016C218.985 72.9093 218.729 72.744 218.537 72.52C218.356 72.2853 218.228 71.9973 218.153 71.656C218.089 71.3147 218.057 70.92 218.057 70.472V66.952H216.473ZM226.996 69.88H223.044V68.248H226.996V69.88ZM234.715 71.848H234.683C234.406 72.3173 234.032 72.6587 233.563 72.872C233.094 73.0853 232.587 73.192 232.043 73.192C231.446 73.192 230.912 73.0907 230.443 72.888C229.984 72.6747 229.59 72.3867 229.259 72.024C228.928 71.6613 228.678 71.2347 228.507 70.744C228.336 70.2533 228.251 69.7253 228.251 69.16C228.251 68.5947 228.342 68.0667 228.523 67.576C228.704 67.0853 228.955 66.6587 229.275 66.296C229.606 65.9333 230 65.6507 230.459 65.448C230.918 65.2347 231.419 65.128 231.963 65.128C232.326 65.128 232.646 65.1653 232.923 65.24C233.2 65.3147 233.446 65.4107 233.659 65.528C233.872 65.6453 234.054 65.7733 234.203 65.912C234.352 66.04 234.475 66.168 234.571 66.296H234.619V60.904H236.539V73H234.715V71.848ZM230.171 69.16C230.171 69.4587 230.219 69.7467 230.315 70.024C230.422 70.3013 230.571 70.5467 230.763 70.76C230.966 70.9733 231.206 71.144 231.483 71.272C231.76 71.4 232.075 71.464 232.427 71.464C232.779 71.464 233.094 71.4 233.371 71.272C233.648 71.144 233.883 70.9733 234.075 70.76C234.278 70.5467 234.427 70.3013 234.523 70.024C234.63 69.7467 234.683 69.4587 234.683 69.16C234.683 68.8613 234.63 68.5733 234.523 68.296C234.427 68.0187 234.278 67.7733 234.075 67.56C233.883 67.3467 233.648 67.176 233.371 67.048C233.094 66.92 232.779 66.856 232.427 66.856C232.075 66.856 231.76 66.92 231.483 67.048C231.206 67.176 230.966 67.3467 230.763 67.56C230.571 67.7733 230.422 68.0187 230.315 68.296C230.219 68.5733 230.171 68.8613 230.171 69.16ZM238.713 65.32H240.633V66.536H240.665C240.878 66.088 241.182 65.7413 241.577 65.496C241.972 65.2507 242.425 65.128 242.937 65.128C243.054 65.128 243.166 65.1387 243.273 65.16C243.39 65.1813 243.508 65.208 243.625 65.24V67.096C243.465 67.0533 243.305 67.0213 243.145 67C242.996 66.968 242.846 66.952 242.697 66.952C242.249 66.952 241.886 67.0373 241.609 67.208C241.342 67.368 241.134 67.5547 240.985 67.768C240.846 67.9813 240.75 68.1947 240.697 68.408C240.654 68.6213 240.633 68.7813 240.633 68.888V73H238.713V65.32ZM244.267 69.16C244.267 68.552 244.373 68.0027 244.587 67.512C244.811 67.0107 245.109 66.584 245.483 66.232C245.856 65.88 246.299 65.608 246.811 65.416C247.323 65.224 247.867 65.128 248.443 65.128C249.019 65.128 249.563 65.224 250.075 65.416C250.587 65.608 251.029 65.88 251.403 66.232C251.776 66.584 252.069 67.0107 252.283 67.512C252.507 68.0027 252.619 68.552 252.619 69.16C252.619 69.768 252.507 70.3227 252.283 70.824C252.069 71.3147 251.776 71.736 251.403 72.088C251.029 72.44 250.587 72.712 250.075 72.904C249.563 73.096 249.019 73.192 248.443 73.192C247.867 73.192 247.323 73.096 246.811 72.904C246.299 72.712 245.856 72.44 245.483 72.088C245.109 71.736 244.811 71.3147 244.587 70.824C244.373 70.3227 244.267 69.768 244.267 69.16ZM246.187 69.16C246.187 69.4587 246.235 69.7467 246.331 70.024C246.437 70.3013 246.587 70.5467 246.779 70.76C246.981 70.9733 247.221 71.144 247.499 71.272C247.776 71.4 248.091 71.464 248.443 71.464C248.795 71.464 249.109 71.4 249.387 71.272C249.664 71.144 249.899 70.9733 250.091 70.76C250.293 70.5467 250.443 70.3013 250.539 70.024C250.645 69.7467 250.699 69.4587 250.699 69.16C250.699 68.8613 250.645 68.5733 250.539 68.296C250.443 68.0187 250.293 67.7733 250.091 67.56C249.899 67.3467 249.664 67.176 249.387 67.048C249.109 66.92 248.795 66.856 248.443 66.856C248.091 66.856 247.776 66.92 247.499 67.048C247.221 67.176 246.981 67.3467 246.779 67.56C246.587 67.7733 246.437 68.0187 246.331 68.296C246.235 68.5733 246.187 68.8613 246.187 69.16ZM254.448 65.32H256.368V73H254.448V65.32ZM254.176 62.712C254.176 62.4027 254.288 62.136 254.512 61.912C254.747 61.6773 255.04 61.56 255.392 61.56C255.744 61.56 256.037 61.672 256.272 61.896C256.517 62.1093 256.64 62.3813 256.64 62.712C256.64 63.0427 256.517 63.32 256.272 63.544C256.037 63.7573 255.744 63.864 255.392 63.864C255.04 63.864 254.747 63.752 254.512 63.528C254.288 63.2933 254.176 63.0213 254.176 62.712ZM257.676 66.952V65.32H259.26V63.096H261.18V65.32H263.292V66.952H261.18V70.312C261.18 70.696 261.25 71 261.388 71.224C261.538 71.448 261.826 71.56 262.252 71.56C262.423 71.56 262.61 71.544 262.812 71.512C263.015 71.4693 263.175 71.4053 263.292 71.32V72.936C263.09 73.032 262.839 73.096 262.54 73.128C262.252 73.1707 261.996 73.192 261.772 73.192C261.26 73.192 260.839 73.1333 260.508 73.016C260.188 72.9093 259.932 72.744 259.74 72.52C259.559 72.2853 259.431 71.9973 259.356 71.656C259.292 71.3147 259.26 70.92 259.26 70.472V66.952H257.676Z" fill="#F3F3F4"/>
<path d="M296.794 62.6659C296.366 63.0617 296.366 63.7383 296.794 64.1341L300.973 68L296.794 71.8659C296.366 72.2617 296.366 72.9383 296.794 73.3341L296.834 73.3719C297.218 73.7264 297.809 73.7264 298.193 73.3719L303.206 68.7341C303.634 68.3383 303.634 67.6617 303.206 67.2659L298.193 62.6281C297.809 62.2736 297.218 62.2736 296.834 62.6281L296.794 62.6659Z" fill="#8DE8FE"/>
</svg>
