<svg width="328" height="94" viewBox="0 0 328 94" fill="none" xmlns="http://www.w3.org/2000/svg">
<path d="M0 14C0 6.26801 6.26801 0 14 0H314C321.732 0 328 6.26801 328 14V80C328 87.732 321.732 94 314 94H14C6.26802 94 0 87.732 0 80V14Z" fill="#1468CB"/>
<path fill-rule="evenodd" clip-rule="evenodd" d="M296.794 41.6659C296.366 42.0617 296.366 42.7383 296.794 43.1341L300.973 47L296.794 50.8659C296.366 51.2617 296.366 51.9383 296.794 52.3341L296.834 52.3719C297.218 52.7264 297.809 52.7264 298.193 52.3719L303.206 47.7341C303.634 47.3383 303.634 46.6617 303.206 46.2659L298.193 41.6281C297.809 41.2736 297.218 41.2736 296.834 41.6281L296.794 41.6659Z" fill="white"/>
<g clip-path="url(#clip0_110_34643)">
<path d="M-34.9621 63.9999C-34.9621 63.9999 -19.1224 75.9277 -2 79.9999C25.3318 86.5002 23.6948 62.4214 23.6948 59.219C23.6948 56.7125 23.6034 55.8329 23.1332 51.9182C22.7399 48.6444 20.8754 41.7044 19.6095 38.8395C18.3437 35.9746 14.7065 33.6523 18.0295 32.817C21.3525 31.9817 26.041 38.5418 27.7385 41.2473C29.4361 43.9527 30.2009 43.3174 32.3869 40.8045C34.5729 38.2917 41.3478 25.9733 42.0929 24.9091C42.9258 23.7193 44.1884 21.3079 46.4777 22.7602C48.7431 24.1974 41.3044 34.0607 40.4134 36.0952C39.5225 38.1297 39.9104 38.6277 41.0507 38.4866C42.3096 38.3308 50.6925 29.9462 51.9934 28.7992C53.2942 27.6523 56.5844 24.1186 58.4626 27.0763C60.0356 29.5533 51.9771 35.0193 46.5753 40.6018C46.0711 41.1228 43.5697 43.3507 44.8455 44.4947C46.4403 45.9248 50.1922 42.3435 53.5789 39.9948C59.0345 36.2114 61.465 35.4354 62.5136 37.0868C63.5623 38.7381 59.0311 41.7055 57.9751 42.3503C56.9191 42.9952 48.2783 48.4803 48.7708 50.0626C49.2632 51.645 56.0438 50.4931 59.1379 49.7815C61.6132 49.2123 62.4666 50.2248 62.5839 50.8022C62.7548 51.5232 62.3135 53.078 59.1811 53.5293C55.2657 54.0933 50.4348 55.1524 46.6845 57.1061C42.9342 59.0598 39.6125 60.6817 36.8994 63.2098C32.373 67.6468 19.801 73.2182 5.72339 60.0075C-11.8736 43.4941 -28.4101 43.9342 -34.9621 43.9342" stroke="white" stroke-width="2"/>
<path d="M71.6025 55.2061C71.1684 57.2389 68.7032 61.5431 66.5 62.8116" stroke="white" stroke-width="2" stroke-linecap="round"/>
<path d="M77.2881 51.2031C76.9467 53.7066 72.8824 63.7109 68.4501 67.0926" stroke="white" stroke-width="2" stroke-linecap="round"/>
<path d="M10.9367 37.8138C9.95885 32.5869 10.8075 28.0838 12.2188 24.6284" stroke="white" stroke-width="2" stroke-linecap="round"/>
<path d="M6.92087 30.3663C7.2828 23.1327 10.5615 16.8003 11.6001 15.5786" stroke="white" stroke-width="2" stroke-linecap="round"/>
</g>
<path d="M99.584 22.496H96.112V20.672H105.072V22.496H101.6V32H99.584V22.496ZM111.815 32H109.991V30.768H109.959C109.777 31.152 109.5 31.488 109.127 31.776C108.753 32.0533 108.247 32.192 107.607 32.192C107.095 32.192 106.657 32.112 106.295 31.952C105.943 31.7813 105.655 31.5573 105.431 31.28C105.207 30.992 105.047 30.6667 104.951 30.304C104.855 29.9413 104.807 29.5627 104.807 29.168V24.32H106.727V28.208C106.727 28.4213 106.737 28.6613 106.759 28.928C106.78 29.184 106.833 29.4293 106.919 29.664C107.015 29.888 107.153 30.08 107.335 30.24C107.527 30.3893 107.793 30.464 108.135 30.464C108.455 30.464 108.721 30.4107 108.935 30.304C109.159 30.1973 109.34 30.0533 109.479 29.872C109.628 29.6907 109.735 29.4827 109.799 29.248C109.863 29.0133 109.895 28.768 109.895 28.512V24.32H111.815V32ZM113.098 25.952V24.32H114.682V22.096H116.602V24.32H118.714V25.952H116.602V29.312C116.602 29.696 116.672 30 116.81 30.224C116.96 30.448 117.248 30.56 117.674 30.56C117.845 30.56 118.032 30.544 118.234 30.512C118.437 30.4693 118.597 30.4053 118.714 30.32V31.936C118.512 32.032 118.261 32.096 117.962 32.128C117.674 32.1707 117.418 32.192 117.194 32.192C116.682 32.192 116.261 32.1333 115.93 32.016C115.61 31.9093 115.354 31.744 115.162 31.52C114.981 31.2853 114.853 30.9973 114.778 30.656C114.714 30.3147 114.682 29.92 114.682 29.472V25.952H113.098ZM119.829 28.16C119.829 27.552 119.936 27.0027 120.149 26.512C120.373 26.0107 120.672 25.584 121.045 25.232C121.418 24.88 121.861 24.608 122.373 24.416C122.885 24.224 123.429 24.128 124.005 24.128C124.581 24.128 125.125 24.224 125.637 24.416C126.149 24.608 126.592 24.88 126.965 25.232C127.338 25.584 127.632 26.0107 127.845 26.512C128.069 27.0027 128.181 27.552 128.181 28.16C128.181 28.768 128.069 29.3227 127.845 29.824C127.632 30.3147 127.338 30.736 126.965 31.088C126.592 31.44 126.149 31.712 125.637 31.904C125.125 32.096 124.581 32.192 124.005 32.192C123.429 32.192 122.885 32.096 122.373 31.904C121.861 31.712 121.418 31.44 121.045 31.088C120.672 30.736 120.373 30.3147 120.149 29.824C119.936 29.3227 119.829 28.768 119.829 28.16ZM121.749 28.16C121.749 28.4587 121.797 28.7467 121.893 29.024C122 29.3013 122.149 29.5467 122.341 29.76C122.544 29.9733 122.784 30.144 123.061 30.272C123.338 30.4 123.653 30.464 124.005 30.464C124.357 30.464 124.672 30.4 124.949 30.272C125.226 30.144 125.461 29.9733 125.653 29.76C125.856 29.5467 126.005 29.3013 126.101 29.024C126.208 28.7467 126.261 28.4587 126.261 28.16C126.261 27.8613 126.208 27.5733 126.101 27.296C126.005 27.0187 125.856 26.7733 125.653 26.56C125.461 26.3467 125.226 26.176 124.949 26.048C124.672 25.92 124.357 25.856 124.005 25.856C123.653 25.856 123.338 25.92 123.061 26.048C122.784 26.176 122.544 26.3467 122.341 26.56C122.149 26.7733 122 27.0187 121.893 27.296C121.797 27.5733 121.749 27.8613 121.749 28.16ZM129.979 24.32H131.899V25.536H131.931C132.144 25.088 132.448 24.7413 132.843 24.496C133.237 24.2507 133.691 24.128 134.203 24.128C134.32 24.128 134.432 24.1387 134.539 24.16C134.656 24.1813 134.773 24.208 134.891 24.24V26.096C134.731 26.0533 134.571 26.0213 134.411 26C134.261 25.968 134.112 25.952 133.963 25.952C133.515 25.952 133.152 26.0373 132.875 26.208C132.608 26.368 132.4 26.5547 132.251 26.768C132.112 26.9813 132.016 27.1947 131.963 27.408C131.92 27.6213 131.899 27.7813 131.899 27.888V32H129.979V24.32ZM136.229 24.32H138.149V32H136.229V24.32ZM135.957 21.712C135.957 21.4027 136.069 21.136 136.293 20.912C136.528 20.6773 136.821 20.56 137.173 20.56C137.525 20.56 137.819 20.672 138.053 20.896C138.299 21.1093 138.421 21.3813 138.421 21.712C138.421 22.0427 138.299 22.32 138.053 22.544C137.819 22.7573 137.525 22.864 137.173 22.864C136.821 22.864 136.528 22.752 136.293 22.528C136.069 22.2933 135.957 22.0213 135.957 21.712ZM141.89 28.832C141.954 29.408 142.178 29.856 142.562 30.176C142.946 30.496 143.41 30.656 143.954 30.656C144.434 30.656 144.834 30.56 145.154 30.368C145.484 30.1653 145.772 29.9147 146.018 29.616L147.394 30.656C146.946 31.2107 146.444 31.6053 145.89 31.84C145.335 32.0747 144.754 32.192 144.146 32.192C143.57 32.192 143.026 32.096 142.514 31.904C142.002 31.712 141.559 31.44 141.186 31.088C140.812 30.736 140.514 30.3147 140.29 29.824C140.076 29.3227 139.97 28.768 139.97 28.16C139.97 27.552 140.076 27.0027 140.29 26.512C140.514 26.0107 140.812 25.584 141.186 25.232C141.559 24.88 142.002 24.608 142.514 24.416C143.026 24.224 143.57 24.128 144.146 24.128C144.679 24.128 145.164 24.224 145.602 24.416C146.05 24.5973 146.428 24.864 146.738 25.216C147.058 25.568 147.303 26.0053 147.474 26.528C147.655 27.04 147.746 27.632 147.746 28.304V28.832H141.89ZM145.826 27.392C145.815 26.8267 145.639 26.384 145.298 26.064C144.956 25.7333 144.482 25.568 143.874 25.568C143.298 25.568 142.839 25.7333 142.498 26.064C142.167 26.3947 141.964 26.8373 141.89 27.392H145.826ZM149.573 19.904H151.493V32H149.573V19.904ZM157.793 26.448C157.42 25.9253 156.919 25.664 156.289 25.664C156.033 25.664 155.783 25.728 155.537 25.856C155.292 25.984 155.169 26.192 155.169 26.48C155.169 26.7147 155.271 26.8853 155.473 26.992C155.676 27.0987 155.932 27.1893 156.241 27.264C156.551 27.3387 156.881 27.4187 157.233 27.504C157.596 27.5787 157.932 27.7013 158.241 27.872C158.551 28.032 158.807 28.256 159.009 28.544C159.212 28.832 159.313 29.2267 159.313 29.728C159.313 30.1867 159.212 30.576 159.009 30.896C158.817 31.2053 158.561 31.456 158.241 31.648C157.932 31.84 157.58 31.9787 157.185 32.064C156.791 32.1493 156.396 32.192 156.001 32.192C155.404 32.192 154.855 32.1067 154.353 31.936C153.852 31.7653 153.404 31.456 153.009 31.008L154.289 29.808C154.535 30.0853 154.796 30.3147 155.073 30.496C155.361 30.6667 155.708 30.752 156.113 30.752C156.252 30.752 156.396 30.736 156.545 30.704C156.695 30.672 156.833 30.6187 156.961 30.544C157.089 30.4693 157.191 30.3787 157.265 30.272C157.351 30.1547 157.393 30.0213 157.393 29.872C157.393 29.6053 157.292 29.408 157.089 29.28C156.887 29.152 156.631 29.0507 156.321 28.976C156.012 28.8907 155.676 28.816 155.313 28.752C154.961 28.6773 154.631 28.5653 154.321 28.416C154.012 28.256 153.756 28.0373 153.553 27.76C153.351 27.4827 153.249 27.0987 153.249 26.608C153.249 26.1813 153.335 25.8133 153.505 25.504C153.687 25.184 153.921 24.9227 154.209 24.72C154.497 24.5173 154.828 24.368 155.201 24.272C155.575 24.176 155.953 24.128 156.337 24.128C156.849 24.128 157.356 24.2187 157.857 24.4C158.359 24.5707 158.764 24.8693 159.073 25.296L157.793 26.448Z" fill="#F3F3F4"/>
<path d="M100.368 52.972H96.442V51.698L100.108 45.796H101.616V51.88H102.916V52.972H101.616V55H100.368V52.972ZM100.368 47.278H100.342L97.534 51.88H100.368V47.278ZM107.726 48.838H108.896V49.787H108.922C109.069 49.4577 109.325 49.1933 109.689 48.994C110.053 48.786 110.473 48.682 110.95 48.682C111.244 48.682 111.526 48.7297 111.795 48.825C112.072 48.9117 112.31 49.0503 112.51 49.241C112.718 49.4317 112.882 49.6787 113.004 49.982C113.125 50.2767 113.186 50.6277 113.186 51.035V55H112.016V51.36C112.016 51.074 111.977 50.8313 111.899 50.632C111.821 50.424 111.717 50.2593 111.587 50.138C111.457 50.008 111.305 49.917 111.132 49.865C110.967 49.8043 110.794 49.774 110.612 49.774C110.369 49.774 110.144 49.813 109.936 49.891C109.728 49.969 109.546 50.0947 109.39 50.268C109.234 50.4327 109.112 50.645 109.026 50.905C108.939 51.165 108.896 51.4727 108.896 51.828V55H107.726V48.838ZM115.898 51.919C115.898 52.231 115.946 52.5213 116.041 52.79C116.137 53.05 116.271 53.2753 116.444 53.466C116.618 53.648 116.83 53.7953 117.081 53.908C117.333 54.012 117.614 54.064 117.926 54.064C118.238 54.064 118.52 54.012 118.771 53.908C119.023 53.7953 119.235 53.648 119.408 53.466C119.582 53.2753 119.716 53.05 119.811 52.79C119.907 52.5213 119.954 52.231 119.954 51.919C119.954 51.607 119.907 51.321 119.811 51.061C119.716 50.7923 119.582 50.567 119.408 50.385C119.235 50.1943 119.023 50.047 118.771 49.943C118.52 49.8303 118.238 49.774 117.926 49.774C117.614 49.774 117.333 49.8303 117.081 49.943C116.83 50.047 116.618 50.1943 116.444 50.385C116.271 50.567 116.137 50.7923 116.041 51.061C115.946 51.321 115.898 51.607 115.898 51.919ZM114.65 51.919C114.65 51.4683 114.733 51.048 114.897 50.658C115.071 50.268 115.305 49.9257 115.599 49.631C115.894 49.3363 116.241 49.1067 116.639 48.942C117.038 48.7687 117.467 48.682 117.926 48.682C118.386 48.682 118.815 48.7687 119.213 48.942C119.612 49.1067 119.959 49.3363 120.253 49.631C120.548 49.9257 120.778 50.268 120.942 50.658C121.116 51.048 121.202 51.4683 121.202 51.919C121.202 52.3697 121.116 52.7943 120.942 53.193C120.778 53.583 120.548 53.9253 120.253 54.22C119.959 54.506 119.612 54.7357 119.213 54.909C118.815 55.0737 118.386 55.156 117.926 55.156C117.467 55.156 117.038 55.0737 116.639 54.909C116.241 54.7357 115.894 54.506 115.599 54.22C115.305 53.9253 115.071 53.583 114.897 53.193C114.733 52.7943 114.65 52.3697 114.65 51.919ZM128.128 55H126.958V54.051H126.932C126.785 54.3803 126.529 54.649 126.165 54.857C125.801 55.0563 125.381 55.156 124.904 55.156C124.601 55.156 124.315 55.1083 124.046 55.013C123.778 54.9263 123.539 54.7877 123.331 54.597C123.132 54.4063 122.972 54.1637 122.85 53.869C122.729 53.5657 122.668 53.2103 122.668 52.803V48.838H123.838V52.478C123.838 52.764 123.877 53.011 123.955 53.219C124.033 53.4183 124.137 53.583 124.267 53.713C124.397 53.8343 124.545 53.9253 124.709 53.986C124.883 54.038 125.06 54.064 125.242 54.064C125.485 54.064 125.71 54.025 125.918 53.947C126.126 53.869 126.308 53.7477 126.464 53.583C126.62 53.4097 126.742 53.193 126.828 52.933C126.915 52.673 126.958 52.3653 126.958 52.01V48.838H128.128V55ZM129.151 48.838H130.503L132.349 53.557L134.117 48.838H135.365L132.947 55H131.66L129.151 48.838ZM137.276 52.348C137.276 52.6167 137.332 52.8637 137.445 53.089C137.566 53.3057 137.722 53.492 137.913 53.648C138.103 53.804 138.324 53.9253 138.576 54.012C138.827 54.0987 139.087 54.142 139.356 54.142C139.72 54.142 140.036 54.0597 140.305 53.895C140.573 53.7217 140.82 53.4963 141.046 53.219L141.93 53.895C141.28 54.7357 140.37 55.156 139.2 55.156C138.714 55.156 138.272 55.0737 137.874 54.909C137.484 54.7443 137.15 54.519 136.873 54.233C136.604 53.9383 136.396 53.596 136.249 53.206C136.101 52.8073 136.028 52.3783 136.028 51.919C136.028 51.4597 136.106 51.035 136.262 50.645C136.426 50.2463 136.647 49.904 136.925 49.618C137.211 49.3233 137.549 49.0937 137.939 48.929C138.329 48.7643 138.753 48.682 139.213 48.682C139.759 48.682 140.218 48.7773 140.591 48.968C140.972 49.1587 141.284 49.41 141.527 49.722C141.769 50.0253 141.943 50.372 142.047 50.762C142.159 51.1433 142.216 51.5333 142.216 51.932V52.348H137.276ZM140.968 51.412C140.959 51.152 140.916 50.9137 140.838 50.697C140.768 50.4803 140.66 50.294 140.513 50.138C140.365 49.9733 140.179 49.8477 139.954 49.761C139.737 49.6657 139.481 49.618 139.187 49.618C138.901 49.618 138.636 49.6743 138.394 49.787C138.16 49.891 137.96 50.0297 137.796 50.203C137.631 50.3763 137.501 50.5713 137.406 50.788C137.319 50.996 137.276 51.204 137.276 51.412H140.968ZM143.641 49.592C143.971 49.2887 144.352 49.0633 144.785 48.916C145.219 48.76 145.652 48.682 146.085 48.682C146.536 48.682 146.922 48.7383 147.242 48.851C147.572 48.9637 147.84 49.1153 148.048 49.306C148.256 49.4967 148.408 49.7177 148.503 49.969C148.607 50.2117 148.659 50.4673 148.659 50.736V53.882C148.659 54.0987 148.664 54.298 148.672 54.48C148.681 54.662 148.694 54.8353 148.711 55H147.671C147.645 54.688 147.632 54.376 147.632 54.064H147.606C147.346 54.4627 147.039 54.7443 146.683 54.909C146.328 55.0737 145.916 55.156 145.448 55.156C145.162 55.156 144.889 55.117 144.629 55.039C144.369 54.961 144.14 54.844 143.94 54.688C143.75 54.532 143.598 54.3413 143.485 54.116C143.373 53.882 143.316 53.6133 143.316 53.31C143.316 52.9113 143.403 52.5777 143.576 52.309C143.758 52.0403 144.001 51.8237 144.304 51.659C144.616 51.4857 144.976 51.3643 145.383 51.295C145.799 51.217 146.241 51.178 146.709 51.178H147.567V50.918C147.567 50.762 147.537 50.606 147.476 50.45C147.416 50.294 147.325 50.1553 147.203 50.034C147.082 49.904 146.93 49.8043 146.748 49.735C146.566 49.657 146.35 49.618 146.098 49.618C145.873 49.618 145.674 49.6397 145.5 49.683C145.336 49.7263 145.184 49.7827 145.045 49.852C144.907 49.9127 144.781 49.9863 144.668 50.073C144.556 50.1597 144.447 50.242 144.343 50.32L143.641 49.592ZM146.943 52.036C146.666 52.036 146.38 52.0533 146.085 52.088C145.799 52.114 145.535 52.1703 145.292 52.257C145.058 52.3437 144.863 52.465 144.707 52.621C144.56 52.777 144.486 52.9763 144.486 53.219C144.486 53.5743 144.603 53.83 144.837 53.986C145.08 54.142 145.405 54.22 145.812 54.22C146.133 54.22 146.406 54.168 146.631 54.064C146.857 53.9513 147.039 53.8083 147.177 53.635C147.316 53.4617 147.416 53.271 147.476 53.063C147.537 52.8463 147.567 52.634 147.567 52.426V52.036H146.943ZM155.817 55H154.647V54.051H154.621C154.473 54.3803 154.218 54.649 153.854 54.857C153.49 55.0563 153.069 55.156 152.593 55.156C152.289 55.156 152.003 55.1083 151.735 55.013C151.466 54.9263 151.228 54.7877 151.02 54.597C150.82 54.4063 150.66 54.1637 150.539 53.869C150.417 53.5657 150.357 53.2103 150.357 52.803V48.838H151.527V52.478C151.527 52.764 151.566 53.011 151.644 53.219C151.722 53.4183 151.826 53.583 151.956 53.713C152.086 53.8343 152.233 53.9253 152.398 53.986C152.571 54.038 152.749 54.064 152.931 54.064C153.173 54.064 153.399 54.025 153.607 53.947C153.815 53.869 153.997 53.7477 154.153 53.583C154.309 53.4097 154.43 53.193 154.517 52.933C154.603 52.673 154.647 52.3653 154.647 52.01V48.838H155.817V55ZM159.27 51.711L157.086 48.838H158.594L160.089 51.022L161.558 48.838H162.975L160.869 51.711L163.365 55H161.857L160.037 52.413L158.217 55H156.774L159.27 51.711ZM174.115 55H172.945V54.116H172.919C172.693 54.4453 172.381 54.701 171.983 54.883C171.593 55.065 171.19 55.156 170.774 55.156C170.297 55.156 169.864 55.0737 169.474 54.909C169.092 54.7443 168.763 54.5147 168.486 54.22C168.217 53.9253 168.009 53.583 167.862 53.193C167.714 52.803 167.641 52.3783 167.641 51.919C167.641 51.4597 167.714 51.035 167.862 50.645C168.009 50.2463 168.217 49.904 168.486 49.618C168.763 49.3233 169.092 49.0937 169.474 48.929C169.864 48.7643 170.297 48.682 170.774 48.682C171.216 48.682 171.632 48.7773 172.022 48.968C172.412 49.15 172.711 49.4013 172.919 49.722H172.945V45.172H174.115V55ZM170.917 54.064C171.229 54.064 171.51 54.012 171.762 53.908C172.013 53.7953 172.225 53.648 172.399 53.466C172.572 53.2753 172.706 53.05 172.802 52.79C172.897 52.5213 172.945 52.231 172.945 51.919C172.945 51.607 172.897 51.321 172.802 51.061C172.706 50.7923 172.572 50.567 172.399 50.385C172.225 50.1943 172.013 50.047 171.762 49.943C171.51 49.8303 171.229 49.774 170.917 49.774C170.605 49.774 170.323 49.8303 170.072 49.943C169.82 50.047 169.608 50.1943 169.435 50.385C169.261 50.567 169.127 50.7923 169.032 51.061C168.936 51.321 168.889 51.607 168.889 51.919C168.889 52.231 168.936 52.5213 169.032 52.79C169.127 53.05 169.261 53.2753 169.435 53.466C169.608 53.648 169.82 53.7953 170.072 53.908C170.323 54.012 170.605 54.064 170.917 54.064ZM176.771 52.348C176.771 52.6167 176.827 52.8637 176.94 53.089C177.061 53.3057 177.217 53.492 177.408 53.648C177.599 53.804 177.82 53.9253 178.071 54.012C178.322 54.0987 178.582 54.142 178.851 54.142C179.215 54.142 179.531 54.0597 179.8 53.895C180.069 53.7217 180.316 53.4963 180.541 53.219L181.425 53.895C180.775 54.7357 179.865 55.156 178.695 55.156C178.21 55.156 177.768 55.0737 177.369 54.909C176.979 54.7443 176.645 54.519 176.368 54.233C176.099 53.9383 175.891 53.596 175.744 53.206C175.597 52.8073 175.523 52.3783 175.523 51.919C175.523 51.4597 175.601 51.035 175.757 50.645C175.922 50.2463 176.143 49.904 176.42 49.618C176.706 49.3233 177.044 49.0937 177.434 48.929C177.824 48.7643 178.249 48.682 178.708 48.682C179.254 48.682 179.713 48.7773 180.086 48.968C180.467 49.1587 180.779 49.41 181.022 49.722C181.265 50.0253 181.438 50.372 181.542 50.762C181.655 51.1433 181.711 51.5333 181.711 51.932V52.348H176.771ZM180.463 51.412C180.454 51.152 180.411 50.9137 180.333 50.697C180.264 50.4803 180.155 50.294 180.008 50.138C179.861 49.9733 179.674 49.8477 179.449 49.761C179.232 49.6657 178.977 49.618 178.682 49.618C178.396 49.618 178.132 49.6743 177.889 49.787C177.655 49.891 177.456 50.0297 177.291 50.203C177.126 50.3763 176.996 50.5713 176.901 50.788C176.814 50.996 176.771 51.204 176.771 51.412H180.463ZM186.729 48.838H187.899V49.722H187.925C188.15 49.3927 188.458 49.137 188.848 48.955C189.246 48.773 189.654 48.682 190.07 48.682C190.546 48.682 190.975 48.7643 191.357 48.929C191.747 49.0937 192.076 49.3233 192.345 49.618C192.622 49.9127 192.834 50.2593 192.982 50.658C193.129 51.048 193.203 51.4683 193.203 51.919C193.203 52.3783 193.129 52.8073 192.982 53.206C192.834 53.596 192.622 53.9383 192.345 54.233C192.076 54.519 191.747 54.7443 191.357 54.909C190.975 55.0737 190.546 55.156 190.07 55.156C189.628 55.156 189.212 55.065 188.822 54.883C188.432 54.6923 188.133 54.4367 187.925 54.116H187.899V58.666H186.729V48.838ZM189.927 49.774C189.615 49.774 189.333 49.8303 189.082 49.943C188.83 50.047 188.618 50.1943 188.445 50.385C188.271 50.567 188.137 50.7923 188.042 51.061C187.946 51.321 187.899 51.607 187.899 51.919C187.899 52.231 187.946 52.5213 188.042 52.79C188.137 53.05 188.271 53.2753 188.445 53.466C188.618 53.648 188.83 53.7953 189.082 53.908C189.333 54.012 189.615 54.064 189.927 54.064C190.239 54.064 190.52 54.012 190.772 53.908C191.023 53.7953 191.235 53.648 191.409 53.466C191.582 53.2753 191.716 53.05 191.812 52.79C191.907 52.5213 191.955 52.231 191.955 51.919C191.955 51.607 191.907 51.321 191.812 51.061C191.716 50.7923 191.582 50.567 191.409 50.385C191.235 50.1943 191.023 50.047 190.772 49.943C190.52 49.8303 190.239 49.774 189.927 49.774ZM194.767 45.172H195.937V55H194.767V45.172ZM203.259 55H202.089V54.051H202.063C201.916 54.3803 201.66 54.649 201.296 54.857C200.932 55.0563 200.512 55.156 200.035 55.156C199.732 55.156 199.446 55.1083 199.177 55.013C198.908 54.9263 198.67 54.7877 198.462 54.597C198.263 54.4063 198.102 54.1637 197.981 53.869C197.86 53.5657 197.799 53.2103 197.799 52.803V48.838H198.969V52.478C198.969 52.764 199.008 53.011 199.086 53.219C199.164 53.4183 199.268 53.583 199.398 53.713C199.528 53.8343 199.675 53.9253 199.84 53.986C200.013 54.038 200.191 54.064 200.373 54.064C200.616 54.064 200.841 54.025 201.049 53.947C201.257 53.869 201.439 53.7477 201.595 53.583C201.751 53.4097 201.872 53.193 201.959 52.933C202.046 52.673 202.089 52.3653 202.089 52.01V48.838H203.259V55ZM208.299 50.385C208.16 50.2117 207.987 50.0687 207.779 49.956C207.579 49.8347 207.332 49.774 207.038 49.774C206.76 49.774 206.518 49.8347 206.31 49.956C206.11 50.0687 206.011 50.2377 206.011 50.463C206.011 50.645 206.067 50.7923 206.18 50.905C206.301 51.0177 206.44 51.1087 206.596 51.178C206.76 51.2473 206.934 51.2993 207.116 51.334C207.298 51.3687 207.454 51.399 207.584 51.425C207.835 51.4857 208.069 51.5593 208.286 51.646C208.511 51.7327 208.702 51.8453 208.858 51.984C209.022 52.1227 209.148 52.2917 209.235 52.491C209.33 52.6903 209.378 52.933 209.378 53.219C209.378 53.5657 209.304 53.8647 209.157 54.116C209.009 54.3587 208.819 54.558 208.585 54.714C208.351 54.87 208.082 54.9827 207.779 55.052C207.484 55.1213 207.185 55.156 206.882 55.156C206.37 55.156 205.92 55.078 205.53 54.922C205.148 54.766 204.806 54.48 204.503 54.064L205.387 53.336C205.577 53.5267 205.79 53.6957 206.024 53.843C206.258 53.9903 206.544 54.064 206.882 54.064C207.029 54.064 207.176 54.051 207.324 54.025C207.48 53.9903 207.614 53.9427 207.727 53.882C207.848 53.8127 207.943 53.7303 208.013 53.635C208.091 53.531 208.13 53.414 208.13 53.284C208.13 53.1107 208.073 52.9677 207.961 52.855C207.857 52.7423 207.727 52.6557 207.571 52.595C207.423 52.5257 207.263 52.4737 207.09 52.439C206.925 52.3957 206.778 52.361 206.648 52.335C206.396 52.2743 206.158 52.205 205.933 52.127C205.707 52.049 205.508 51.945 205.335 51.815C205.161 51.685 205.023 51.5203 204.919 51.321C204.815 51.1217 204.763 50.8747 204.763 50.58C204.763 50.2593 204.828 49.982 204.958 49.748C205.096 49.5053 205.274 49.306 205.491 49.15C205.716 48.994 205.967 48.877 206.245 48.799C206.531 48.721 206.817 48.682 207.103 48.682C207.519 48.682 207.917 48.76 208.299 48.916C208.68 49.072 208.983 49.332 209.209 49.696L208.299 50.385ZM214.443 49.592C214.773 49.2887 215.154 49.0633 215.587 48.916C216.021 48.76 216.454 48.682 216.887 48.682C217.338 48.682 217.724 48.7383 218.044 48.851C218.374 48.9637 218.642 49.1153 218.85 49.306C219.058 49.4967 219.21 49.7177 219.305 49.969C219.409 50.2117 219.461 50.4673 219.461 50.736V53.882C219.461 54.0987 219.466 54.298 219.474 54.48C219.483 54.662 219.496 54.8353 219.513 55H218.473C218.447 54.688 218.434 54.376 218.434 54.064H218.408C218.148 54.4627 217.841 54.7443 217.485 54.909C217.13 55.0737 216.718 55.156 216.25 55.156C215.964 55.156 215.691 55.117 215.431 55.039C215.171 54.961 214.942 54.844 214.742 54.688C214.552 54.532 214.4 54.3413 214.287 54.116C214.175 53.882 214.118 53.6133 214.118 53.31C214.118 52.9113 214.205 52.5777 214.378 52.309C214.56 52.0403 214.803 51.8237 215.106 51.659C215.418 51.4857 215.778 51.3643 216.185 51.295C216.601 51.217 217.043 51.178 217.511 51.178H218.369V50.918C218.369 50.762 218.339 50.606 218.278 50.45C218.218 50.294 218.127 50.1553 218.005 50.034C217.884 49.904 217.732 49.8043 217.55 49.735C217.368 49.657 217.152 49.618 216.9 49.618C216.675 49.618 216.476 49.6397 216.302 49.683C216.138 49.7263 215.986 49.7827 215.847 49.852C215.709 49.9127 215.583 49.9863 215.47 50.073C215.358 50.1597 215.249 50.242 215.145 50.32L214.443 49.592ZM217.745 52.036C217.468 52.036 217.182 52.0533 216.887 52.088C216.601 52.114 216.337 52.1703 216.094 52.257C215.86 52.3437 215.665 52.465 215.509 52.621C215.362 52.777 215.288 52.9763 215.288 53.219C215.288 53.5743 215.405 53.83 215.639 53.986C215.882 54.142 216.207 54.22 216.614 54.22C216.935 54.22 217.208 54.168 217.433 54.064C217.659 53.9513 217.841 53.8083 217.979 53.635C218.118 53.4617 218.218 53.271 218.278 53.063C218.339 52.8463 218.369 52.634 218.369 52.426V52.036H217.745ZM217.771 47.668H216.692L214.755 45.796H216.419L217.771 47.668ZM103.059 73H101.889V72.116H101.863C101.638 72.4453 101.326 72.701 100.927 72.883C100.537 73.065 100.134 73.156 99.718 73.156C99.2413 73.156 98.808 73.0737 98.418 72.909C98.0367 72.7443 97.7073 72.5147 97.43 72.22C97.1613 71.9253 96.9533 71.583 96.806 71.193C96.6587 70.803 96.585 70.3783 96.585 69.919C96.585 69.4597 96.6587 69.035 96.806 68.645C96.9533 68.2463 97.1613 67.904 97.43 67.618C97.7073 67.3233 98.0367 67.0937 98.418 66.929C98.808 66.7643 99.2413 66.682 99.718 66.682C100.16 66.682 100.576 66.7773 100.966 66.968C101.356 67.15 101.655 67.4013 101.863 67.722H101.889V63.172H103.059V73ZM99.861 72.064C100.173 72.064 100.455 72.012 100.706 71.908C100.957 71.7953 101.17 71.648 101.343 71.466C101.516 71.2753 101.651 71.05 101.746 70.79C101.841 70.5213 101.889 70.231 101.889 69.919C101.889 69.607 101.841 69.321 101.746 69.061C101.651 68.7923 101.516 68.567 101.343 68.385C101.17 68.1943 100.957 68.047 100.706 67.943C100.455 67.8303 100.173 67.774 99.861 67.774C99.549 67.774 99.2673 67.8303 99.016 67.943C98.7647 68.047 98.5523 68.1943 98.379 68.385C98.2057 68.567 98.0713 68.7923 97.976 69.061C97.8807 69.321 97.833 69.607 97.833 69.919C97.833 70.231 97.8807 70.5213 97.976 70.79C98.0713 71.05 98.2057 71.2753 98.379 71.466C98.5523 71.648 98.7647 71.7953 99.016 71.908C99.2673 72.012 99.549 72.064 99.861 72.064ZM105.715 70.348C105.715 70.6167 105.772 70.8637 105.884 71.089C106.006 71.3057 106.162 71.492 106.352 71.648C106.543 71.804 106.764 71.9253 107.015 72.012C107.267 72.0987 107.527 72.142 107.795 72.142C108.159 72.142 108.476 72.0597 108.744 71.895C109.013 71.7217 109.26 71.4963 109.485 71.219L110.369 71.895C109.719 72.7357 108.809 73.156 107.639 73.156C107.154 73.156 106.712 73.0737 106.313 72.909C105.923 72.7443 105.59 72.519 105.312 72.233C105.044 71.9383 104.836 71.596 104.688 71.206C104.541 70.8073 104.467 70.3783 104.467 69.919C104.467 69.4597 104.545 69.035 104.701 68.645C104.866 68.2463 105.087 67.904 105.364 67.618C105.65 67.3233 105.988 67.0937 106.378 66.929C106.768 66.7643 107.193 66.682 107.652 66.682C108.198 66.682 108.658 66.7773 109.03 66.968C109.412 67.1587 109.724 67.41 109.966 67.722C110.209 68.0253 110.382 68.372 110.486 68.762C110.599 69.1433 110.655 69.5333 110.655 69.932V70.348H105.715ZM109.407 69.412C109.399 69.152 109.355 68.9137 109.277 68.697C109.208 68.4803 109.1 68.294 108.952 68.138C108.805 67.9733 108.619 67.8477 108.393 67.761C108.177 67.6657 107.921 67.618 107.626 67.618C107.34 67.618 107.076 67.6743 106.833 67.787C106.599 67.891 106.4 68.0297 106.235 68.203C106.071 68.3763 105.941 68.5713 105.845 68.788C105.759 68.996 105.715 69.204 105.715 69.412H109.407ZM108.055 63.796H109.719L107.782 65.668H106.703L108.055 63.796ZM116.462 68.476C116.245 68.2507 116.016 68.0817 115.773 67.969C115.539 67.8477 115.257 67.787 114.928 67.787C114.607 67.787 114.326 67.8477 114.083 67.969C113.849 68.0817 113.65 68.242 113.485 68.45C113.329 68.6493 113.208 68.8833 113.121 69.152C113.043 69.412 113.004 69.685 113.004 69.971C113.004 70.257 113.052 70.53 113.147 70.79C113.242 71.0413 113.377 71.2623 113.55 71.453C113.723 71.6437 113.931 71.7953 114.174 71.908C114.417 72.012 114.69 72.064 114.993 72.064C115.322 72.064 115.604 72.0077 115.838 71.895C116.072 71.7737 116.289 71.6003 116.488 71.375L117.32 72.207C117.017 72.545 116.661 72.7877 116.254 72.935C115.855 73.0823 115.431 73.156 114.98 73.156C114.503 73.156 114.066 73.078 113.667 72.922C113.277 72.766 112.939 72.5493 112.653 72.272C112.367 71.986 112.146 71.648 111.99 71.258C111.834 70.8593 111.756 70.4217 111.756 69.945C111.756 69.4683 111.834 69.0307 111.99 68.632C112.146 68.2333 112.363 67.891 112.64 67.605C112.926 67.319 113.264 67.098 113.654 66.942C114.053 66.7773 114.495 66.695 114.98 66.695C115.431 66.695 115.86 66.7773 116.267 66.942C116.683 67.098 117.043 67.3407 117.346 67.67L116.462 68.476ZM119.275 69.919C119.275 70.231 119.323 70.5213 119.418 70.79C119.514 71.05 119.648 71.2753 119.821 71.466C119.995 71.648 120.207 71.7953 120.458 71.908C120.71 72.012 120.991 72.064 121.303 72.064C121.615 72.064 121.897 72.012 122.148 71.908C122.4 71.7953 122.612 71.648 122.785 71.466C122.959 71.2753 123.093 71.05 123.188 70.79C123.284 70.5213 123.331 70.231 123.331 69.919C123.331 69.607 123.284 69.321 123.188 69.061C123.093 68.7923 122.959 68.567 122.785 68.385C122.612 68.1943 122.4 68.047 122.148 67.943C121.897 67.8303 121.615 67.774 121.303 67.774C120.991 67.774 120.71 67.8303 120.458 67.943C120.207 68.047 119.995 68.1943 119.821 68.385C119.648 68.567 119.514 68.7923 119.418 69.061C119.323 69.321 119.275 69.607 119.275 69.919ZM118.027 69.919C118.027 69.4683 118.11 69.048 118.274 68.658C118.448 68.268 118.682 67.9257 118.976 67.631C119.271 67.3363 119.618 67.1067 120.016 66.942C120.415 66.7687 120.844 66.682 121.303 66.682C121.763 66.682 122.192 66.7687 122.59 66.942C122.989 67.1067 123.336 67.3363 123.63 67.631C123.925 67.9257 124.155 68.268 124.319 68.658C124.493 69.048 124.579 69.4683 124.579 69.919C124.579 70.3697 124.493 70.7943 124.319 71.193C124.155 71.583 123.925 71.9253 123.63 72.22C123.336 72.506 122.989 72.7357 122.59 72.909C122.192 73.0737 121.763 73.156 121.303 73.156C120.844 73.156 120.415 73.0737 120.016 72.909C119.618 72.7357 119.271 72.506 118.976 72.22C118.682 71.9253 118.448 71.583 118.274 71.193C118.11 70.7943 118.027 70.3697 118.027 69.919ZM131.505 73H130.335V72.051H130.309C130.162 72.3803 129.906 72.649 129.542 72.857C129.178 73.0563 128.758 73.156 128.281 73.156C127.978 73.156 127.692 73.1083 127.423 73.013C127.154 72.9263 126.916 72.7877 126.708 72.597C126.509 72.4063 126.348 72.1637 126.227 71.869C126.106 71.5657 126.045 71.2103 126.045 70.803V66.838H127.215V70.478C127.215 70.764 127.254 71.011 127.332 71.219C127.41 71.4183 127.514 71.583 127.644 71.713C127.774 71.8343 127.921 71.9253 128.086 71.986C128.259 72.038 128.437 72.064 128.619 72.064C128.862 72.064 129.087 72.025 129.295 71.947C129.503 71.869 129.685 71.7477 129.841 71.583C129.997 71.4097 130.118 71.193 130.205 70.933C130.292 70.673 130.335 70.3653 130.335 70.01V66.838H131.505V73ZM132.528 66.838H133.88L135.726 71.557L137.494 66.838H138.742L136.324 73H135.037L132.528 66.838ZM139.769 66.838H140.939V67.787H140.965C141.043 67.6223 141.147 67.475 141.277 67.345C141.407 67.2063 141.55 67.0893 141.706 66.994C141.87 66.8987 142.048 66.825 142.239 66.773C142.429 66.7123 142.62 66.682 142.811 66.682C143.001 66.682 143.175 66.708 143.331 66.76L143.279 68.021C143.183 67.995 143.088 67.9733 142.993 67.956C142.897 67.9387 142.802 67.93 142.707 67.93C142.135 67.93 141.697 68.0903 141.394 68.411C141.09 68.7317 140.939 69.23 140.939 69.906V73H139.769V66.838ZM144.671 66.838H145.841V73H144.671V66.838ZM144.398 64.628C144.398 64.394 144.481 64.1947 144.645 64.03C144.819 63.8567 145.022 63.77 145.256 63.77C145.49 63.77 145.69 63.8567 145.854 64.03C146.028 64.1947 146.114 64.394 146.114 64.628C146.114 64.862 146.028 65.0657 145.854 65.239C145.69 65.4037 145.49 65.486 145.256 65.486C145.022 65.486 144.819 65.4037 144.645 65.239C144.481 65.0657 144.398 64.862 144.398 64.628ZM147.703 66.838H148.873V67.787H148.899C148.977 67.6223 149.081 67.475 149.211 67.345C149.341 67.2063 149.484 67.0893 149.64 66.994C149.805 66.8987 149.983 66.825 150.173 66.773C150.364 66.7123 150.555 66.682 150.745 66.682C150.936 66.682 151.109 66.708 151.265 66.76L151.213 68.021C151.118 67.995 151.023 67.9733 150.927 67.956C150.832 67.9387 150.737 67.93 150.641 67.93C150.069 67.93 149.632 68.0903 149.328 68.411C149.025 68.7317 148.873 69.23 148.873 69.906V73H147.703V66.838ZM157.654 70.348H156.406V63.796H157.654V70.348ZM156.198 72.22C156.198 71.986 156.28 71.7867 156.445 71.622C156.618 71.4487 156.822 71.362 157.056 71.362C157.29 71.362 157.489 71.4487 157.654 71.622C157.827 71.7867 157.914 71.986 157.914 72.22C157.914 72.454 157.827 72.6577 157.654 72.831C157.489 72.9957 157.29 73.078 157.056 73.078C156.822 73.078 156.618 72.9957 156.445 72.831C156.28 72.6577 156.198 72.454 156.198 72.22Z" fill="white"/>
<defs>
<clipPath id="clip0_110_34643">
<rect width="80" height="80" fill="white" transform="translate(0 8)"/>
</clipPath>
</defs>
</svg>
