<svg width="360" height="120" viewBox="0 0 360 120" fill="none" xmlns="http://www.w3.org/2000/svg">
<g clip-path="url(#clip0_211_45710)">
<g clip-path="url(#clip1_211_45710)">
<path d="M397.607 104.827C361.287 87.8307 304.281 98.7115 291.471 102.785C263.43 111.692 244.441 89.6192 239.368 70.8115C239.338 70.7076 239.307 70.6038 239.277 70.4999C241.226 72.1038 249.364 79.1884 252.007 78.8653C254.649 78.5422 251.454 71.8268 252.559 68.7922C253.664 65.7576 259.241 70.073 263.561 70.8691C267.881 71.6653 263.983 65.9076 263.008 64.7884C262.034 63.6692 263.701 62.7115 266.354 61.4307C268.996 60.1499 275.687 54.5538 276.521 52.9499C277.355 51.3461 265.379 50.873 262.315 49.3268C259.251 47.7807 260.788 42.7153 264.957 42.0807C269.137 41.4461 270.523 38.2384 270.805 36.1615C271.086 34.0845 265.098 34.5576 264.957 30.5653C264.817 26.5615 270.393 23.8499 269.83 21.6115C269.267 19.373 264.395 21.2884 261.059 23.2153C257.713 25.1307 258.688 23.2153 256.327 20.9768C253.966 18.7384 248.802 30.8884 245.185 28.6499C241.568 26.4115 245.466 14.7345 245.185 12.9807C244.904 11.2268 243.376 15.8653 238.222 14.5845C233.068 13.3038 234.736 2.11146 232.787 1.46531C230.838 0.819154 230.275 5.61915 229.863 8.82685C229.451 12.0345 227.633 14.9076 222.901 12.9807C218.169 11.0653 218.581 14.2615 219.977 17.7807C221.374 21.2999 221.926 32.6538 219.424 36.0115C216.913 39.3692 213.155 30.5768 210.372 27.8538C207.589 25.1307 210.653 31.373 206.755 30.5768C202.857 29.7807 204.525 22.2576 199.23 20.6653C193.935 19.073 202.716 44.8845 202.716 44.8845C202.716 44.8845 199.23 45.7845 196.588 46.9038C193.945 48.023 193.664 50.7461 198.959 52.1768C204.254 53.6192 202.998 56.8153 202.164 60.173C201.33 63.5307 209.96 59.6884 213.447 60.173C216.933 60.6576 209.267 64.4884 205.65 66.5653C202.033 68.6422 193.252 69.7615 202.445 73.2807C211.638 76.7999 218.46 70.5576 220.69 71.9999C222.921 73.4422 220.69 78.5538 223.061 76.9615C225.433 75.3576 226.407 75.5192 226.266 78.7153C226.126 81.9115 226.769 83.573 229.753 82.8692C232.455 82.2345 234.636 73.9038 236.776 70.7422C236.776 70.7422 242.934 90.3922 251.002 97.9038C252.318 99.1384 254.117 99.4038 255.704 98.723C256.618 98.3307 257.904 97.973 259.612 97.9038M91.9387 93.5192C90.1705 92.0999 96.5905 82.4307 97.6554 78.773C98.7204 75.1153 104.377 73.2807 110.576 71.4576C116.775 69.623 115.358 65.9653 126.5 60.6807C137.642 55.3961 149.327 62.9192 144.555 57.6345C139.782 52.3499 129.153 52.9615 123.978 53.3653C118.804 53.7692 117.649 52.7538 110.927 53.3653C104.206 53.9768 104.558 61.0845 99.4237 64.5461C94.2897 67.9961 96.5905 70.6384 94.2897 76.9153C91.989 83.1922 90.0399 80.8038 90.924 89.9538C91.8081 99.1038 100.659 97.2692 114.112 94.6268C127.565 91.9845 127.214 85.4768 123.978 79.9961C120.753 74.5038 118.885 77.5615 116.584 79.9961C114.283 82.4307 120.12 91.9845 120.12 91.9845C121.939 98.6884 122.11 104.169 121.889 107.804C121.738 110.308 123.526 112.385 125.696 112.211C125.696 112.211 130.74 112.985 144.092 107.861C187.566 91.1999 247.576 84.2307 259.582 97.9038M145.65 59.8615C145.65 59.8615 142.133 80.2961 129.233 87.023C127.404 87.9691 126.139 90.3922 126.882 92.5384C130.408 102.669 138.024 116.642 118.171 116.642C118.171 116.642 63.6767 120.565 32.0187 95.5153C-11.5549 61.0384 -22.7472 85.0153 -35.5972 85.0153M239.287 70.4999C239.287 70.4999 230.376 47.5268 231.34 35.8499" stroke="#ED8744" stroke-width="2" stroke-miterlimit="10" stroke-linecap="round" stroke-linejoin="round"/>
</g>
</g>
<defs>
<clipPath id="clip0_211_45710">
<rect width="360" height="120" fill="white"/>
</clipPath>
<clipPath id="clip1_211_45710">
<rect width="428" height="120" fill="white" transform="translate(-34)"/>
</clipPath>
</defs>
</svg>
