<svg width="328" height="26" viewBox="0 0 328 26" fill="none" xmlns="http://www.w3.org/2000/svg">
<path d="M1.58 4.84H10.96V7.12H4.1V10.6H10.6V12.88H4.1V16.72H11.32V19H1.58V4.84ZM13.5866 9.4H15.8666V10.94H15.9066C16.1332 10.46 16.4799 10.0467 16.9466 9.7C17.4132 9.34 18.0466 9.16 18.8466 9.16C19.4866 9.16 20.0266 9.26667 20.4666 9.48C20.9199 9.69333 21.2866 9.97333 21.5666 10.32C21.8466 10.6667 22.0466 11.0667 22.1666 11.52C22.2866 11.9733 22.3466 12.4467 22.3466 12.94V19H19.9466V14.14C19.9466 13.8733 19.9332 13.58 19.9066 13.26C19.8799 12.9267 19.8066 12.62 19.6866 12.34C19.5799 12.0467 19.4066 11.8067 19.1666 11.62C18.9266 11.42 18.5999 11.32 18.1866 11.32C17.7866 11.32 17.4466 11.3867 17.1666 11.52C16.8999 11.6533 16.6732 11.8333 16.4866 12.06C16.3132 12.2867 16.1866 12.5467 16.1066 12.84C16.0266 13.1333 15.9866 13.44 15.9866 13.76V19H13.5866V9.4ZM30.9889 9.4H33.3889V10.92H33.4289C33.6956 10.36 34.0756 9.92667 34.5689 9.62C35.0622 9.31333 35.6289 9.16 36.2689 9.16C36.4156 9.16 36.5556 9.17333 36.6889 9.2C36.8356 9.22667 36.9822 9.26 37.1289 9.3V11.62C36.9289 11.5667 36.7289 11.5267 36.5289 11.5C36.3422 11.46 36.1556 11.44 35.9689 11.44C35.4089 11.44 34.9556 11.5467 34.6089 11.76C34.2756 11.96 34.0156 12.1933 33.8289 12.46C33.6556 12.7267 33.5356 12.9933 33.4689 13.26C33.4156 13.5267 33.3889 13.7267 33.3889 13.86V19H30.9889V9.4ZM37.9308 14.2C37.9308 13.44 38.0641 12.7533 38.3308 12.14C38.6108 11.5133 38.9841 10.98 39.4508 10.54C39.9174 10.1 40.4708 9.76 41.1108 9.52C41.7508 9.28 42.4308 9.16 43.1508 9.16C43.8708 9.16 44.5508 9.28 45.1908 9.52C45.8308 9.76 46.3841 10.1 46.8508 10.54C47.3174 10.98 47.6841 11.5133 47.9508 12.14C48.2308 12.7533 48.3708 13.44 48.3708 14.2C48.3708 14.96 48.2308 15.6533 47.9508 16.28C47.6841 16.8933 47.3174 17.42 46.8508 17.86C46.3841 18.3 45.8308 18.64 45.1908 18.88C44.5508 19.12 43.8708 19.24 43.1508 19.24C42.4308 19.24 41.7508 19.12 41.1108 18.88C40.4708 18.64 39.9174 18.3 39.4508 17.86C38.9841 17.42 38.6108 16.8933 38.3308 16.28C38.0641 15.6533 37.9308 14.96 37.9308 14.2ZM40.3308 14.2C40.3308 14.5733 40.3908 14.9333 40.5108 15.28C40.6441 15.6267 40.8308 15.9333 41.0708 16.2C41.3241 16.4667 41.6241 16.68 41.9708 16.84C42.3174 17 42.7108 17.08 43.1508 17.08C43.5908 17.08 43.9841 17 44.3308 16.84C44.6774 16.68 44.9708 16.4667 45.2108 16.2C45.4641 15.9333 45.6508 15.6267 45.7708 15.28C45.9041 14.9333 45.9708 14.5733 45.9708 14.2C45.9708 13.8267 45.9041 13.4667 45.7708 13.12C45.6508 12.7733 45.4641 12.4667 45.2108 12.2C44.9708 11.9333 44.6774 11.72 44.3308 11.56C43.9841 11.4 43.5908 11.32 43.1508 11.32C42.7108 11.32 42.3174 11.4 41.9708 11.56C41.6241 11.72 41.3241 11.9333 41.0708 12.2C40.8308 12.4667 40.6441 12.7733 40.5108 13.12C40.3908 13.4667 40.3308 13.8267 40.3308 14.2ZM59.3778 19H57.0978V17.46H57.0578C56.8311 17.94 56.4845 18.36 56.0178 18.72C55.5511 19.0667 54.9178 19.24 54.1178 19.24C53.4778 19.24 52.9311 19.14 52.4778 18.94C52.0378 18.7267 51.6778 18.4467 51.3978 18.1C51.1178 17.74 50.9178 17.3333 50.7978 16.88C50.6778 16.4267 50.6178 15.9533 50.6178 15.46V9.4H53.0178V14.26C53.0178 14.5267 53.0311 14.8267 53.0578 15.16C53.0845 15.48 53.1511 15.7867 53.2578 16.08C53.3778 16.36 53.5511 16.6 53.7778 16.8C54.0178 16.9867 54.3511 17.08 54.7778 17.08C55.1778 17.08 55.5111 17.0133 55.7778 16.88C56.0578 16.7467 56.2845 16.5667 56.4578 16.34C56.6445 16.1133 56.7778 15.8533 56.8578 15.56C56.9378 15.2667 56.9778 14.96 56.9778 14.64V9.4H59.3778V19ZM60.9822 11.44V9.4H62.9622V6.62H65.3622V9.4H68.0022V11.44H65.3622V15.64C65.3622 16.12 65.4489 16.5 65.6222 16.78C65.8089 17.06 66.1689 17.2 66.7022 17.2C66.9155 17.2 67.1489 17.18 67.4022 17.14C67.6555 17.0867 67.8555 17.0067 68.0022 16.9V18.92C67.7489 19.04 67.4355 19.12 67.0622 19.16C66.7022 19.2133 66.3822 19.24 66.1022 19.24C65.4622 19.24 64.9355 19.1667 64.5222 19.02C64.1222 18.8867 63.8022 18.68 63.5622 18.4C63.3355 18.1067 63.1755 17.7467 63.0822 17.32C63.0022 16.8933 62.9622 16.4 62.9622 15.84V11.44H60.9822ZM71.7956 15.04C71.8756 15.76 72.1556 16.32 72.6356 16.72C73.1156 17.12 73.6956 17.32 74.3756 17.32C74.9756 17.32 75.4756 17.2 75.8756 16.96C76.289 16.7067 76.649 16.3933 76.9556 16.02L78.6756 17.32C78.1156 18.0133 77.489 18.5067 76.7956 18.8C76.1023 19.0933 75.3756 19.24 74.6156 19.24C73.8956 19.24 73.2156 19.12 72.5756 18.88C71.9356 18.64 71.3823 18.3 70.9156 17.86C70.449 17.42 70.0756 16.8933 69.7956 16.28C69.529 15.6533 69.3956 14.96 69.3956 14.2C69.3956 13.44 69.529 12.7533 69.7956 12.14C70.0756 11.5133 70.449 10.98 70.9156 10.54C71.3823 10.1 71.9356 9.76 72.5756 9.52C73.2156 9.28 73.8956 9.16 74.6156 9.16C75.2823 9.16 75.889 9.28 76.4356 9.52C76.9956 9.74667 77.469 10.08 77.8556 10.52C78.2556 10.96 78.5623 11.5067 78.7756 12.16C79.0023 12.8 79.1156 13.54 79.1156 14.38V15.04H71.7956ZM76.7156 13.24C76.7023 12.5333 76.4823 11.98 76.0556 11.58C75.629 11.1667 75.0356 10.96 74.2756 10.96C73.5556 10.96 72.9823 11.1667 72.5556 11.58C72.1423 11.9933 71.889 12.5467 71.7956 13.24H76.7156Z" fill="#F3F3F4"/>
</svg>
