<svg width="328" height="186" viewBox="0 0 328 186" fill="none" xmlns="http://www.w3.org/2000/svg">
<g clip-path="url(#clip0_211_53748)">
<path d="M0 14C0 6.26801 6.26801 0 14 0H314C321.732 0 328 6.26801 328 14V172C328 179.732 321.732 186 314 186H14C6.26802 186 0 179.732 0 172V14Z" fill="#242B35"/>
<path d="M294.666 31.2064C295.062 31.6343 295.738 31.6343 296.134 31.2064L300 27.027L303.9 31.2432C304.277 31.6513 304.923 31.6513 305.3 31.2432L305.372 31.1655C305.726 30.7822 305.726 30.1907 305.372 29.8074L300.734 24.7936C300.338 24.3657 299.662 24.3657 299.266 24.7936L294.628 29.8074C294.274 30.1907 294.274 30.7822 294.628 31.1655L294.666 31.2064Z" fill="#8DE8FE"/>
<rect y="64" width="328" height="2" fill="#0C131F"/>
<g clip-path="url(#clip1_211_53748)">
<g clip-path="url(#clip2_211_53748)">
<rect opacity="0.2" x="8" y="8" width="48" height="48" rx="8" fill="#F3BB67"/>
<g clip-path="url(#clip3_211_53748)">
<path d="M22.4234 29.2603L28.5456 28.3279C28.6034 28.3178 28.6579 28.2935 28.7042 28.2574C28.7506 28.2212 28.7873 28.1743 28.8113 28.1206L31.5495 22.3079C31.5948 22.2284 31.6603 22.1622 31.7395 22.1162C31.8186 22.0701 31.9085 22.0459 32.0001 22.0459C32.0916 22.0459 32.1816 22.0701 32.2607 22.1162C32.3399 22.1622 32.4054 22.2284 32.4507 22.3079L35.1889 28.1201C35.2127 28.1738 35.2494 28.2209 35.2956 28.2571C35.3418 28.2933 35.3963 28.3176 35.4541 28.3279L41.5768 29.2603C41.6674 29.2741 41.7524 29.3126 41.8226 29.3717C41.8927 29.4307 41.9452 29.5079 41.9743 29.5948C42.0033 29.6817 42.0079 29.775 41.9874 29.8643C41.9669 29.9537 41.9221 30.0356 41.8581 30.1012L37.4274 34.6258C37.3823 34.6731 37.349 34.7304 37.3301 34.7929C37.3112 34.8554 37.3072 34.9215 37.3184 34.9859L38.3646 41.3747C38.3797 41.467 38.3686 41.5617 38.3324 41.6479C38.2963 41.7341 38.2366 41.8084 38.1602 41.8624C38.0838 41.9163 37.9938 41.9476 37.9004 41.9527C37.807 41.9579 37.7141 41.9367 37.6322 41.8915L32.1563 38.8754C32.1086 38.8489 32.055 38.835 32.0005 38.8348C31.9459 38.8346 31.8922 38.8483 31.8444 38.8744L26.3679 41.8915C26.2944 41.9325 26.2117 41.9539 26.1275 41.9538C26.0553 41.9537 25.9839 41.938 25.9183 41.9076C25.8527 41.8773 25.7945 41.833 25.7477 41.7779C25.7009 41.7229 25.6666 41.6583 25.6473 41.5886C25.6279 41.519 25.6239 41.446 25.6355 41.3747L26.6818 34.9858C26.693 34.9215 26.689 34.8554 26.67 34.7929C26.6511 34.7303 26.6178 34.6731 26.5728 34.6257L22.1421 30.1011C22.078 30.0356 22.0333 29.9536 22.0128 29.8643C21.9923 29.775 21.9968 29.6817 22.0259 29.5948C22.055 29.5079 22.1074 29.4306 22.1776 29.3716C22.2477 29.3126 22.3327 29.2741 22.4234 29.2603L22.4234 29.2603Z" fill="#F3BB67"/>
</g>
</g>
<path d="M63.952 16.672H66.272L69.36 25.232L72.544 16.672H74.72L70.144 28H68.4L63.952 16.672ZM74.5009 24.16C74.5009 23.552 74.6075 23.0027 74.8209 22.512C75.0449 22.0107 75.3435 21.584 75.7169 21.232C76.0902 20.88 76.5329 20.608 77.0449 20.416C77.5569 20.224 78.1009 20.128 78.6769 20.128C79.2529 20.128 79.7969 20.224 80.3089 20.416C80.8209 20.608 81.2635 20.88 81.6369 21.232C82.0102 21.584 82.3035 22.0107 82.5169 22.512C82.7409 23.0027 82.8529 23.552 82.8529 24.16C82.8529 24.768 82.7409 25.3227 82.5169 25.824C82.3035 26.3147 82.0102 26.736 81.6369 27.088C81.2635 27.44 80.8209 27.712 80.3089 27.904C79.7969 28.096 79.2529 28.192 78.6769 28.192C78.1009 28.192 77.5569 28.096 77.0449 27.904C76.5329 27.712 76.0902 27.44 75.7169 27.088C75.3435 26.736 75.0449 26.3147 74.8209 25.824C74.6075 25.3227 74.5009 24.768 74.5009 24.16ZM76.4209 24.16C76.4209 24.4587 76.4689 24.7467 76.5649 25.024C76.6715 25.3013 76.8209 25.5467 77.0129 25.76C77.2155 25.9733 77.4555 26.144 77.7329 26.272C78.0102 26.4 78.3249 26.464 78.6769 26.464C79.0289 26.464 79.3435 26.4 79.6209 26.272C79.8982 26.144 80.1329 25.9733 80.3249 25.76C80.5275 25.5467 80.6769 25.3013 80.7729 25.024C80.8795 24.7467 80.9329 24.4587 80.9329 24.16C80.9329 23.8613 80.8795 23.5733 80.7729 23.296C80.6769 23.0187 80.5275 22.7733 80.3249 22.56C80.1329 22.3467 79.8982 22.176 79.6209 22.048C79.3435 21.92 79.0289 21.856 78.6769 21.856C78.3249 21.856 78.0102 21.92 77.7329 22.048C77.4555 22.176 77.2155 22.3467 77.0129 22.56C76.8209 22.7733 76.6715 23.0187 76.5649 23.296C76.4689 23.5733 76.4209 23.8613 76.4209 24.16ZM88.7465 22.448C88.3732 21.9253 87.8718 21.664 87.2425 21.664C86.9865 21.664 86.7358 21.728 86.4905 21.856C86.2452 21.984 86.1225 22.192 86.1225 22.48C86.1225 22.7147 86.2238 22.8853 86.4265 22.992C86.6292 23.0987 86.8852 23.1893 87.1945 23.264C87.5038 23.3387 87.8345 23.4187 88.1865 23.504C88.5492 23.5787 88.8852 23.7013 89.1945 23.872C89.5038 24.032 89.7598 24.256 89.9625 24.544C90.1652 24.832 90.2665 25.2267 90.2665 25.728C90.2665 26.1867 90.1652 26.576 89.9625 26.896C89.7705 27.2053 89.5145 27.456 89.1945 27.648C88.8852 27.84 88.5332 27.9787 88.1385 28.064C87.7438 28.1493 87.3492 28.192 86.9545 28.192C86.3572 28.192 85.8078 28.1067 85.3065 27.936C84.8052 27.7653 84.3572 27.456 83.9625 27.008L85.2425 25.808C85.4878 26.0853 85.7492 26.3147 86.0265 26.496C86.3145 26.6667 86.6612 26.752 87.0665 26.752C87.2052 26.752 87.3492 26.736 87.4985 26.704C87.6478 26.672 87.7865 26.6187 87.9145 26.544C88.0425 26.4693 88.1438 26.3787 88.2185 26.272C88.3038 26.1547 88.3465 26.0213 88.3465 25.872C88.3465 25.6053 88.2452 25.408 88.0425 25.28C87.8398 25.152 87.5838 25.0507 87.2745 24.976C86.9652 24.8907 86.6292 24.816 86.2665 24.752C85.9145 24.6773 85.5838 24.5653 85.2745 24.416C84.9652 24.256 84.7092 24.0373 84.5065 23.76C84.3038 23.4827 84.2025 23.0987 84.2025 22.608C84.2025 22.1813 84.2878 21.8133 84.4585 21.504C84.6398 21.184 84.8745 20.9227 85.1625 20.72C85.4505 20.5173 85.7812 20.368 86.1545 20.272C86.5278 20.176 86.9065 20.128 87.2905 20.128C87.8025 20.128 88.3092 20.2187 88.8105 20.4C89.3118 20.5707 89.7172 20.8693 90.0265 21.296L88.7465 22.448ZM97.1823 21.952H95.5983V20.32H97.1823V19.232C97.1823 18.6987 97.2196 18.2187 97.2943 17.792C97.3689 17.3547 97.5076 16.9813 97.7103 16.672C97.9236 16.3627 98.2169 16.128 98.5903 15.968C98.9636 15.7973 99.4489 15.712 100.046 15.712C100.484 15.712 100.889 15.7493 101.262 15.824L101.134 17.456C100.996 17.424 100.862 17.3973 100.734 17.376C100.606 17.3547 100.473 17.344 100.334 17.344C100.068 17.344 99.8543 17.3867 99.6943 17.472C99.5343 17.5573 99.4063 17.6747 99.3103 17.824C99.2249 17.9627 99.1663 18.128 99.1343 18.32C99.1129 18.512 99.1023 18.7147 99.1023 18.928V20.32H100.878V21.952H99.1023V28H97.1823V21.952ZM106.919 26.944H106.871C106.594 27.3813 106.242 27.7013 105.815 27.904C105.389 28.096 104.919 28.192 104.407 28.192C104.055 28.192 103.709 28.144 103.367 28.048C103.037 27.952 102.738 27.808 102.471 27.616C102.215 27.424 102.007 27.184 101.847 26.896C101.687 26.608 101.607 26.272 101.607 25.888C101.607 25.472 101.682 25.12 101.831 24.832C101.981 24.5333 102.178 24.288 102.423 24.096C102.679 23.8933 102.973 23.7333 103.303 23.616C103.634 23.4987 103.975 23.4133 104.327 23.36C104.69 23.296 105.053 23.2587 105.415 23.248C105.778 23.2267 106.119 23.216 106.439 23.216H106.919V23.008C106.919 22.528 106.754 22.1707 106.423 21.936C106.093 21.6907 105.671 21.568 105.159 21.568C104.754 21.568 104.375 21.6427 104.023 21.792C103.671 21.9307 103.367 22.1227 103.111 22.368L102.103 21.36C102.53 20.9227 103.026 20.608 103.591 20.416C104.167 20.224 104.759 20.128 105.367 20.128C105.911 20.128 106.37 20.192 106.743 20.32C107.117 20.4373 107.426 20.592 107.671 20.784C107.917 20.976 108.103 21.2 108.231 21.456C108.37 21.7013 108.466 21.952 108.519 22.208C108.583 22.464 108.621 22.7147 108.631 22.96C108.642 23.1947 108.647 23.4027 108.647 23.584V28H106.919V26.944ZM106.807 24.56H106.407C106.141 24.56 105.842 24.5707 105.511 24.592C105.181 24.6133 104.866 24.6667 104.567 24.752C104.279 24.8267 104.034 24.944 103.831 25.104C103.629 25.2533 103.527 25.4667 103.527 25.744C103.527 25.9253 103.565 26.08 103.639 26.208C103.725 26.3253 103.831 26.4267 103.959 26.512C104.087 26.5973 104.231 26.6613 104.391 26.704C104.551 26.736 104.711 26.752 104.871 26.752C105.533 26.752 106.018 26.5973 106.327 26.288C106.647 25.968 106.807 25.536 106.807 24.992V24.56ZM109.673 20.32H111.769L113.817 25.696H113.849L115.913 20.32H117.881L114.857 28H112.809L109.673 20.32ZM118.626 24.16C118.626 23.552 118.733 23.0027 118.946 22.512C119.17 22.0107 119.469 21.584 119.842 21.232C120.215 20.88 120.658 20.608 121.17 20.416C121.682 20.224 122.226 20.128 122.802 20.128C123.378 20.128 123.922 20.224 124.434 20.416C124.946 20.608 125.389 20.88 125.762 21.232C126.135 21.584 126.429 22.0107 126.642 22.512C126.866 23.0027 126.978 23.552 126.978 24.16C126.978 24.768 126.866 25.3227 126.642 25.824C126.429 26.3147 126.135 26.736 125.762 27.088C125.389 27.44 124.946 27.712 124.434 27.904C123.922 28.096 123.378 28.192 122.802 28.192C122.226 28.192 121.682 28.096 121.17 27.904C120.658 27.712 120.215 27.44 119.842 27.088C119.469 26.736 119.17 26.3147 118.946 25.824C118.733 25.3227 118.626 24.768 118.626 24.16ZM120.546 24.16C120.546 24.4587 120.594 24.7467 120.69 25.024C120.797 25.3013 120.946 25.5467 121.138 25.76C121.341 25.9733 121.581 26.144 121.858 26.272C122.135 26.4 122.45 26.464 122.802 26.464C123.154 26.464 123.469 26.4 123.746 26.272C124.023 26.144 124.258 25.9733 124.45 25.76C124.653 25.5467 124.802 25.3013 124.898 25.024C125.005 24.7467 125.058 24.4587 125.058 24.16C125.058 23.8613 125.005 23.5733 124.898 23.296C124.802 23.0187 124.653 22.7733 124.45 22.56C124.258 22.3467 124.023 22.176 123.746 22.048C123.469 21.92 123.154 21.856 122.802 21.856C122.45 21.856 122.135 21.92 121.858 22.048C121.581 22.176 121.341 22.3467 121.138 22.56C120.946 22.7733 120.797 23.0187 120.69 23.296C120.594 23.5733 120.546 23.8613 120.546 24.16ZM128.776 20.32H130.696V21.536H130.728C130.941 21.088 131.245 20.7413 131.64 20.496C132.034 20.2507 132.488 20.128 133 20.128C133.117 20.128 133.229 20.1387 133.336 20.16C133.453 20.1813 133.57 20.208 133.688 20.24V22.096C133.528 22.0533 133.368 22.0213 133.208 22C133.058 21.968 132.909 21.952 132.76 21.952C132.312 21.952 131.949 22.0373 131.672 22.208C131.405 22.368 131.197 22.5547 131.048 22.768C130.909 22.9813 130.813 23.1947 130.76 23.408C130.717 23.6213 130.696 23.7813 130.696 23.888V28H128.776V20.32ZM135.026 20.32H136.946V28H135.026V20.32ZM134.754 17.712C134.754 17.4027 134.866 17.136 135.09 16.912C135.325 16.6773 135.618 16.56 135.97 16.56C136.322 16.56 136.616 16.672 136.85 16.896C137.096 17.1093 137.218 17.3813 137.218 17.712C137.218 18.0427 137.096 18.32 136.85 18.544C136.616 18.7573 136.322 18.864 135.97 18.864C135.618 18.864 135.325 18.752 135.09 18.528C134.866 18.2933 134.754 18.0213 134.754 17.712ZM143.247 22.448C142.873 21.9253 142.372 21.664 141.743 21.664C141.487 21.664 141.236 21.728 140.991 21.856C140.745 21.984 140.623 22.192 140.623 22.48C140.623 22.7147 140.724 22.8853 140.927 22.992C141.129 23.0987 141.385 23.1893 141.695 23.264C142.004 23.3387 142.335 23.4187 142.687 23.504C143.049 23.5787 143.385 23.7013 143.695 23.872C144.004 24.032 144.26 24.256 144.463 24.544C144.665 24.832 144.767 25.2267 144.767 25.728C144.767 26.1867 144.665 26.576 144.463 26.896C144.271 27.2053 144.015 27.456 143.695 27.648C143.385 27.84 143.033 27.9787 142.639 28.064C142.244 28.1493 141.849 28.192 141.455 28.192C140.857 28.192 140.308 28.1067 139.807 27.936C139.305 27.7653 138.857 27.456 138.463 27.008L139.743 25.808C139.988 26.0853 140.249 26.3147 140.527 26.496C140.815 26.6667 141.161 26.752 141.567 26.752C141.705 26.752 141.849 26.736 141.999 26.704C142.148 26.672 142.287 26.6187 142.415 26.544C142.543 26.4693 142.644 26.3787 142.719 26.272C142.804 26.1547 142.847 26.0213 142.847 25.872C142.847 25.6053 142.745 25.408 142.543 25.28C142.34 25.152 142.084 25.0507 141.775 24.976C141.465 24.8907 141.129 24.816 140.767 24.752C140.415 24.6773 140.084 24.5653 139.775 24.416C139.465 24.256 139.209 24.0373 139.007 23.76C138.804 23.4827 138.703 23.0987 138.703 22.608C138.703 22.1813 138.788 21.8133 138.959 21.504C139.14 21.184 139.375 20.9227 139.663 20.72C139.951 20.5173 140.281 20.368 140.655 20.272C141.028 20.176 141.407 20.128 141.791 20.128C142.303 20.128 142.809 20.2187 143.311 20.4C143.812 20.5707 144.217 20.8693 144.527 21.296L143.247 22.448Z" fill="#F3F3F4"/>
<path d="M65.183 37.796H66.431V47H65.183V37.796ZM71.8042 41.852H70.1272V44.647C70.1272 44.8203 70.1315 44.9937 70.1402 45.167C70.1488 45.3317 70.1792 45.4833 70.2312 45.622C70.2918 45.752 70.3785 45.8603 70.4912 45.947C70.6125 46.025 70.7858 46.064 71.0112 46.064C71.1498 46.064 71.2928 46.051 71.4402 46.025C71.5875 45.999 71.7218 45.9513 71.8432 45.882V46.948C71.7045 47.026 71.5225 47.078 71.2972 47.104C71.0805 47.1387 70.9115 47.156 70.7902 47.156C70.3395 47.156 69.9885 47.0953 69.7372 46.974C69.4945 46.844 69.3125 46.6793 69.1912 46.48C69.0785 46.2807 69.0092 46.0597 68.9832 45.817C68.9658 45.5657 68.9572 45.3143 68.9572 45.063V41.852H67.6052V40.838H68.9572V39.109H70.1272V40.838H71.8042V41.852ZM73.4047 40.838H74.5747V47H73.4047V40.838ZM73.1317 38.628C73.1317 38.394 73.214 38.1947 73.3787 38.03C73.552 37.8567 73.7557 37.77 73.9897 37.77C74.2237 37.77 74.423 37.8567 74.5877 38.03C74.761 38.1947 74.8477 38.394 74.8477 38.628C74.8477 38.862 74.761 39.0657 74.5877 39.239C74.423 39.4037 74.2237 39.486 73.9897 39.486C73.7557 39.486 73.552 39.4037 73.3787 39.239C73.214 39.0657 73.1317 38.862 73.1317 38.628ZM76.4367 40.838H77.6067V41.787H77.6327C77.7801 41.4577 78.0357 41.1933 78.3997 40.994C78.7637 40.786 79.1841 40.682 79.6607 40.682C79.9554 40.682 80.2371 40.7297 80.5057 40.825C80.7831 40.9117 81.0214 41.0503 81.2207 41.241C81.4287 41.4317 81.5934 41.6787 81.7147 41.982C81.8361 42.2767 81.8967 42.6277 81.8967 43.035V47H80.7267V43.36C80.7267 43.074 80.6877 42.8313 80.6097 42.632C80.5317 42.424 80.4277 42.2593 80.2977 42.138C80.1677 42.008 80.0161 41.917 79.8427 41.865C79.6781 41.8043 79.5047 41.774 79.3227 41.774C79.0801 41.774 78.8547 41.813 78.6467 41.891C78.4387 41.969 78.2567 42.0947 78.1007 42.268C77.9447 42.4327 77.8234 42.645 77.7367 42.905C77.6501 43.165 77.6067 43.4727 77.6067 43.828V47H76.4367V40.838ZM84.5444 44.348C84.5444 44.6167 84.6007 44.8637 84.7134 45.089C84.8347 45.3057 84.9907 45.492 85.1814 45.648C85.372 45.804 85.593 45.9253 85.8444 46.012C86.0957 46.0987 86.3557 46.142 86.6244 46.142C86.9884 46.142 87.3047 46.0597 87.5734 45.895C87.842 45.7217 88.089 45.4963 88.3144 45.219L89.1984 45.895C88.5484 46.7357 87.6384 47.156 86.4684 47.156C85.983 47.156 85.541 47.0737 85.1424 46.909C84.7524 46.7443 84.4187 46.519 84.1414 46.233C83.8727 45.9383 83.6647 45.596 83.5174 45.206C83.37 44.8073 83.2964 44.3783 83.2964 43.919C83.2964 43.4597 83.3744 43.035 83.5304 42.645C83.695 42.2463 83.916 41.904 84.1934 41.618C84.4794 41.3233 84.8174 41.0937 85.2074 40.929C85.5974 40.7643 86.022 40.682 86.4814 40.682C87.0274 40.682 87.4867 40.7773 87.8594 40.968C88.2407 41.1587 88.5527 41.41 88.7954 41.722C89.038 42.0253 89.2114 42.372 89.3154 42.762C89.428 43.1433 89.4844 43.5333 89.4844 43.932V44.348H84.5444ZM88.2364 43.412C88.2277 43.152 88.1844 42.9137 88.1064 42.697C88.037 42.4803 87.9287 42.294 87.7814 42.138C87.634 41.9733 87.4477 41.8477 87.2224 41.761C87.0057 41.6657 86.75 41.618 86.4554 41.618C86.1694 41.618 85.905 41.6743 85.6624 41.787C85.4284 41.891 85.229 42.0297 85.0644 42.203C84.8997 42.3763 84.7697 42.5713 84.6744 42.788C84.5877 42.996 84.5444 43.204 84.5444 43.412H88.2364ZM86.8844 37.796H88.5484L86.6114 39.668H85.5324L86.8844 37.796ZM90.884 40.838H92.054V41.787H92.08C92.158 41.6223 92.262 41.475 92.392 41.345C92.522 41.2063 92.665 41.0893 92.821 40.994C92.9857 40.8987 93.1633 40.825 93.354 40.773C93.5447 40.7123 93.7353 40.682 93.926 40.682C94.1167 40.682 94.29 40.708 94.446 40.76L94.394 42.021C94.2987 41.995 94.2033 41.9733 94.108 41.956C94.0127 41.9387 93.9173 41.93 93.822 41.93C93.25 41.93 92.8123 42.0903 92.509 42.411C92.2057 42.7317 92.054 43.23 92.054 43.906V47H90.884V40.838ZM95.7215 41.592C96.0509 41.2887 96.4322 41.0633 96.8655 40.916C97.2989 40.76 97.7322 40.682 98.1655 40.682C98.6162 40.682 99.0019 40.7383 99.3225 40.851C99.6519 40.9637 99.9205 41.1153 100.129 41.306C100.337 41.4967 100.488 41.7177 100.584 41.969C100.688 42.2117 100.74 42.4673 100.74 42.736V45.882C100.74 46.0987 100.744 46.298 100.753 46.48C100.761 46.662 100.774 46.8353 100.792 47H99.7515C99.7255 46.688 99.7125 46.376 99.7125 46.064H99.6865C99.4265 46.4627 99.1189 46.7443 98.7635 46.909C98.4082 47.0737 97.9965 47.156 97.5285 47.156C97.2425 47.156 96.9695 47.117 96.7095 47.039C96.4495 46.961 96.2199 46.844 96.0205 46.688C95.8299 46.532 95.6782 46.3413 95.5655 46.116C95.4529 45.882 95.3965 45.6133 95.3965 45.31C95.3965 44.9113 95.4832 44.5777 95.6565 44.309C95.8385 44.0403 96.0812 43.8237 96.3845 43.659C96.6965 43.4857 97.0562 43.3643 97.4635 43.295C97.8795 43.217 98.3215 43.178 98.7895 43.178H99.6475V42.918C99.6475 42.762 99.6172 42.606 99.5565 42.45C99.4959 42.294 99.4049 42.1553 99.2835 42.034C99.1622 41.904 99.0105 41.8043 98.8285 41.735C98.6465 41.657 98.4299 41.618 98.1785 41.618C97.9532 41.618 97.7539 41.6397 97.5805 41.683C97.4159 41.7263 97.2642 41.7827 97.1255 41.852C96.9869 41.9127 96.8612 41.9863 96.7485 42.073C96.6359 42.1597 96.5275 42.242 96.4235 42.32L95.7215 41.592ZM99.0235 44.036C98.7462 44.036 98.4602 44.0533 98.1655 44.088C97.8795 44.114 97.6152 44.1703 97.3725 44.257C97.1385 44.3437 96.9435 44.465 96.7875 44.621C96.6402 44.777 96.5665 44.9763 96.5665 45.219C96.5665 45.5743 96.6835 45.83 96.9175 45.986C97.1602 46.142 97.4852 46.22 97.8925 46.22C98.2132 46.22 98.4862 46.168 98.7115 46.064C98.9369 45.9513 99.1189 45.8083 99.2575 45.635C99.3962 45.4617 99.4959 45.271 99.5565 45.063C99.6172 44.8463 99.6475 44.634 99.6475 44.426V44.036H99.0235ZM102.528 40.838H103.698V47H102.528V40.838ZM102.255 38.628C102.255 38.394 102.337 38.1947 102.502 38.03C102.675 37.8567 102.879 37.77 103.113 37.77C103.347 37.77 103.546 37.8567 103.711 38.03C103.884 38.1947 103.971 38.394 103.971 38.628C103.971 38.862 103.884 39.0657 103.711 39.239C103.546 39.4037 103.347 39.486 103.113 39.486C102.879 39.486 102.675 39.4037 102.502 39.239C102.337 39.0657 102.255 38.862 102.255 38.628ZM105.56 40.838H106.73V41.787H106.756C106.834 41.6223 106.938 41.475 107.068 41.345C107.198 41.2063 107.341 41.0893 107.497 40.994C107.661 40.8987 107.839 40.825 108.03 40.773C108.22 40.7123 108.411 40.682 108.602 40.682C108.792 40.682 108.966 40.708 109.122 40.76L109.07 42.021C108.974 41.995 108.879 41.9733 108.784 41.956C108.688 41.9387 108.593 41.93 108.498 41.93C107.926 41.93 107.488 42.0903 107.185 42.411C106.881 42.7317 106.73 43.23 106.73 43.906V47H105.56V40.838ZM111.027 44.348C111.027 44.6167 111.083 44.8637 111.196 45.089C111.317 45.3057 111.473 45.492 111.664 45.648C111.854 45.804 112.075 45.9253 112.327 46.012C112.578 46.0987 112.838 46.142 113.107 46.142C113.471 46.142 113.787 46.0597 114.056 45.895C114.324 45.7217 114.571 45.4963 114.797 45.219L115.681 45.895C115.031 46.7357 114.121 47.156 112.951 47.156C112.465 47.156 112.023 47.0737 111.625 46.909C111.235 46.7443 110.901 46.519 110.624 46.233C110.355 45.9383 110.147 45.596 110 45.206C109.852 44.8073 109.779 44.3783 109.779 43.919C109.779 43.4597 109.857 43.035 110.013 42.645C110.177 42.2463 110.398 41.904 110.676 41.618C110.962 41.3233 111.3 41.0937 111.69 40.929C112.08 40.7643 112.504 40.682 112.964 40.682C113.51 40.682 113.969 40.7773 114.342 40.968C114.723 41.1587 115.035 41.41 115.278 41.722C115.52 42.0253 115.694 42.372 115.798 42.762C115.91 43.1433 115.967 43.5333 115.967 43.932V44.348H111.027ZM114.719 43.412C114.71 43.152 114.667 42.9137 114.589 42.697C114.519 42.4803 114.411 42.294 114.264 42.138C114.116 41.9733 113.93 41.8477 113.705 41.761C113.488 41.6657 113.232 41.618 112.938 41.618C112.652 41.618 112.387 41.6743 112.145 41.787C111.911 41.891 111.711 42.0297 111.547 42.203C111.382 42.3763 111.252 42.5713 111.157 42.788C111.07 42.996 111.027 43.204 111.027 43.412H114.719ZM120.642 42.385C120.504 42.2117 120.33 42.0687 120.122 41.956C119.923 41.8347 119.676 41.774 119.381 41.774C119.104 41.774 118.861 41.8347 118.653 41.956C118.454 42.0687 118.354 42.2377 118.354 42.463C118.354 42.645 118.411 42.7923 118.523 42.905C118.645 43.0177 118.783 43.1087 118.939 43.178C119.104 43.2473 119.277 43.2993 119.459 43.334C119.641 43.3687 119.797 43.399 119.927 43.425C120.179 43.4857 120.413 43.5593 120.629 43.646C120.855 43.7327 121.045 43.8453 121.201 43.984C121.366 44.1227 121.492 44.2917 121.578 44.491C121.674 44.6903 121.721 44.933 121.721 45.219C121.721 45.5657 121.648 45.8647 121.5 46.116C121.353 46.3587 121.162 46.558 120.928 46.714C120.694 46.87 120.426 46.9827 120.122 47.052C119.828 47.1213 119.529 47.156 119.225 47.156C118.714 47.156 118.263 47.078 117.873 46.922C117.492 46.766 117.15 46.48 116.846 46.064L117.73 45.336C117.921 45.5267 118.133 45.6957 118.367 45.843C118.601 45.9903 118.887 46.064 119.225 46.064C119.373 46.064 119.52 46.051 119.667 46.025C119.823 45.9903 119.958 45.9427 120.07 45.882C120.192 45.8127 120.287 45.7303 120.356 45.635C120.434 45.531 120.473 45.414 120.473 45.284C120.473 45.1107 120.417 44.9677 120.304 44.855C120.2 44.7423 120.07 44.6557 119.914 44.595C119.767 44.5257 119.607 44.4737 119.433 44.439C119.269 44.3957 119.121 44.361 118.991 44.335C118.74 44.2743 118.502 44.205 118.276 44.127C118.051 44.049 117.852 43.945 117.678 43.815C117.505 43.685 117.366 43.5203 117.262 43.321C117.158 43.1217 117.106 42.8747 117.106 42.58C117.106 42.2593 117.171 41.982 117.301 41.748C117.44 41.5053 117.618 41.306 117.834 41.15C118.06 40.994 118.311 40.877 118.588 40.799C118.874 40.721 119.16 40.682 119.446 40.682C119.862 40.682 120.261 40.76 120.642 40.916C121.024 41.072 121.327 41.332 121.552 41.696L120.642 42.385ZM123.949 48.716H122.883L123.78 45.518H125.041L123.949 48.716ZM130.405 41.592C130.734 41.2887 131.116 41.0633 131.549 40.916C131.982 40.76 132.416 40.682 132.849 40.682C133.3 40.682 133.685 40.7383 134.006 40.851C134.335 40.9637 134.604 41.1153 134.812 41.306C135.02 41.4967 135.172 41.7177 135.267 41.969C135.371 42.2117 135.423 42.4673 135.423 42.736V45.882C135.423 46.0987 135.427 46.298 135.436 46.48C135.445 46.662 135.458 46.8353 135.475 47H134.435C134.409 46.688 134.396 46.376 134.396 46.064H134.37C134.11 46.4627 133.802 46.7443 133.447 46.909C133.092 47.0737 132.68 47.156 132.212 47.156C131.926 47.156 131.653 47.117 131.393 47.039C131.133 46.961 130.903 46.844 130.704 46.688C130.513 46.532 130.362 46.3413 130.249 46.116C130.136 45.882 130.08 45.6133 130.08 45.31C130.08 44.9113 130.167 44.5777 130.34 44.309C130.522 44.0403 130.765 43.8237 131.068 43.659C131.38 43.4857 131.74 43.3643 132.147 43.295C132.563 43.217 133.005 43.178 133.473 43.178H134.331V42.918C134.331 42.762 134.301 42.606 134.24 42.45C134.179 42.294 134.088 42.1553 133.967 42.034C133.846 41.904 133.694 41.8043 133.512 41.735C133.33 41.657 133.113 41.618 132.862 41.618C132.637 41.618 132.437 41.6397 132.264 41.683C132.099 41.7263 131.948 41.7827 131.809 41.852C131.67 41.9127 131.545 41.9863 131.432 42.073C131.319 42.1597 131.211 42.242 131.107 42.32L130.405 41.592ZM133.707 44.036C133.43 44.036 133.144 44.0533 132.849 44.088C132.563 44.114 132.299 44.1703 132.056 44.257C131.822 44.3437 131.627 44.465 131.471 44.621C131.324 44.777 131.25 44.9763 131.25 45.219C131.25 45.5743 131.367 45.83 131.601 45.986C131.844 46.142 132.169 46.22 132.576 46.22C132.897 46.22 133.17 46.168 133.395 46.064C133.62 45.9513 133.802 45.8083 133.941 45.635C134.08 45.4617 134.179 45.271 134.24 45.063C134.301 44.8463 134.331 44.634 134.331 44.426V44.036H133.707ZM143.295 47H142.125V46.116H142.099C141.874 46.4453 141.562 46.701 141.163 46.883C140.773 47.065 140.37 47.156 139.954 47.156C139.478 47.156 139.044 47.0737 138.654 46.909C138.273 46.7443 137.944 46.5147 137.666 46.22C137.398 45.9253 137.19 45.583 137.042 45.193C136.895 44.803 136.821 44.3783 136.821 43.919C136.821 43.4597 136.895 43.035 137.042 42.645C137.19 42.2463 137.398 41.904 137.666 41.618C137.944 41.3233 138.273 41.0937 138.654 40.929C139.044 40.7643 139.478 40.682 139.954 40.682C140.396 40.682 140.812 40.7773 141.202 40.968C141.592 41.15 141.891 41.4013 142.099 41.722H142.125V37.172H143.295V47ZM140.097 46.064C140.409 46.064 140.691 46.012 140.942 45.908C141.194 45.7953 141.406 45.648 141.579 45.466C141.753 45.2753 141.887 45.05 141.982 44.79C142.078 44.5213 142.125 44.231 142.125 43.919C142.125 43.607 142.078 43.321 141.982 43.061C141.887 42.7923 141.753 42.567 141.579 42.385C141.406 42.1943 141.194 42.047 140.942 41.943C140.691 41.8303 140.409 41.774 140.097 41.774C139.785 41.774 139.504 41.8303 139.252 41.943C139.001 42.047 138.789 42.1943 138.615 42.385C138.442 42.567 138.308 42.7923 138.212 43.061C138.117 43.321 138.069 43.607 138.069 43.919C138.069 44.231 138.117 44.5213 138.212 44.79C138.308 45.05 138.442 45.2753 138.615 45.466C138.789 45.648 139.001 45.7953 139.252 45.908C139.504 46.012 139.785 46.064 140.097 46.064ZM145.068 40.838H146.238V41.787H146.264C146.342 41.6223 146.446 41.475 146.576 41.345C146.706 41.2063 146.849 41.0893 147.005 40.994C147.169 40.8987 147.347 40.825 147.538 40.773C147.728 40.7123 147.919 40.682 148.11 40.682C148.3 40.682 148.474 40.708 148.63 40.76L148.578 42.021C148.482 41.995 148.387 41.9733 148.292 41.956C148.196 41.9387 148.101 41.93 148.006 41.93C147.434 41.93 146.996 42.0903 146.693 42.411C146.389 42.7317 146.238 43.23 146.238 43.906V47H145.068V40.838ZM150.535 44.348C150.535 44.6167 150.591 44.8637 150.704 45.089C150.825 45.3057 150.981 45.492 151.172 45.648C151.362 45.804 151.583 45.9253 151.835 46.012C152.086 46.0987 152.346 46.142 152.615 46.142C152.979 46.142 153.295 46.0597 153.564 45.895C153.832 45.7217 154.079 45.4963 154.305 45.219L155.189 45.895C154.539 46.7357 153.629 47.156 152.459 47.156C151.973 47.156 151.531 47.0737 151.133 46.909C150.743 46.7443 150.409 46.519 150.132 46.233C149.863 45.9383 149.655 45.596 149.508 45.206C149.36 44.8073 149.287 44.3783 149.287 43.919C149.287 43.4597 149.365 43.035 149.521 42.645C149.685 42.2463 149.906 41.904 150.184 41.618C150.47 41.3233 150.808 41.0937 151.198 40.929C151.588 40.7643 152.012 40.682 152.472 40.682C153.018 40.682 153.477 40.7773 153.85 40.968C154.231 41.1587 154.543 41.41 154.786 41.722C155.028 42.0253 155.202 42.372 155.306 42.762C155.418 43.1433 155.475 43.5333 155.475 43.932V44.348H150.535ZM154.227 43.412C154.218 43.152 154.175 42.9137 154.097 42.697C154.027 42.4803 153.919 42.294 153.772 42.138C153.624 41.9733 153.438 41.8477 153.213 41.761C152.996 41.6657 152.74 41.618 152.446 41.618C152.16 41.618 151.895 41.6743 151.653 41.787C151.419 41.891 151.219 42.0297 151.055 42.203C150.89 42.3763 150.76 42.5713 150.665 42.788C150.578 42.996 150.535 43.204 150.535 43.412H154.227ZM160.15 42.385C160.012 42.2117 159.838 42.0687 159.63 41.956C159.431 41.8347 159.184 41.774 158.889 41.774C158.612 41.774 158.369 41.8347 158.161 41.956C157.962 42.0687 157.862 42.2377 157.862 42.463C157.862 42.645 157.919 42.7923 158.031 42.905C158.153 43.0177 158.291 43.1087 158.447 43.178C158.612 43.2473 158.785 43.2993 158.967 43.334C159.149 43.3687 159.305 43.399 159.435 43.425C159.687 43.4857 159.921 43.5593 160.137 43.646C160.363 43.7327 160.553 43.8453 160.709 43.984C160.874 44.1227 161 44.2917 161.086 44.491C161.182 44.6903 161.229 44.933 161.229 45.219C161.229 45.5657 161.156 45.8647 161.008 46.116C160.861 46.3587 160.67 46.558 160.436 46.714C160.202 46.87 159.934 46.9827 159.63 47.052C159.336 47.1213 159.037 47.156 158.733 47.156C158.222 47.156 157.771 47.078 157.381 46.922C157 46.766 156.658 46.48 156.354 46.064L157.238 45.336C157.429 45.5267 157.641 45.6957 157.875 45.843C158.109 45.9903 158.395 46.064 158.733 46.064C158.881 46.064 159.028 46.051 159.175 46.025C159.331 45.9903 159.466 45.9427 159.578 45.882C159.7 45.8127 159.795 45.7303 159.864 45.635C159.942 45.531 159.981 45.414 159.981 45.284C159.981 45.1107 159.925 44.9677 159.812 44.855C159.708 44.7423 159.578 44.6557 159.422 44.595C159.275 44.5257 159.115 44.4737 158.941 44.439C158.777 44.3957 158.629 44.361 158.499 44.335C158.248 44.2743 158.01 44.205 157.784 44.127C157.559 44.049 157.36 43.945 157.186 43.815C157.013 43.685 156.874 43.5203 156.77 43.321C156.666 43.1217 156.614 42.8747 156.614 42.58C156.614 42.2593 156.679 41.982 156.809 41.748C156.948 41.5053 157.126 41.306 157.342 41.15C157.568 40.994 157.819 40.877 158.096 40.799C158.382 40.721 158.668 40.682 158.954 40.682C159.37 40.682 159.769 40.76 160.15 40.916C160.532 41.072 160.835 41.332 161.06 41.696L160.15 42.385ZM165.927 42.385C165.788 42.2117 165.615 42.0687 165.407 41.956C165.207 41.8347 164.96 41.774 164.666 41.774C164.388 41.774 164.146 41.8347 163.938 41.956C163.738 42.0687 163.639 42.2377 163.639 42.463C163.639 42.645 163.695 42.7923 163.808 42.905C163.929 43.0177 164.068 43.1087 164.224 43.178C164.388 43.2473 164.562 43.2993 164.744 43.334C164.926 43.3687 165.082 43.399 165.212 43.425C165.463 43.4857 165.697 43.5593 165.914 43.646C166.139 43.7327 166.33 43.8453 166.486 43.984C166.65 44.1227 166.776 44.2917 166.863 44.491C166.958 44.6903 167.006 44.933 167.006 45.219C167.006 45.5657 166.932 45.8647 166.785 46.116C166.637 46.3587 166.447 46.558 166.213 46.714C165.979 46.87 165.71 46.9827 165.407 47.052C165.112 47.1213 164.813 47.156 164.51 47.156C163.998 47.156 163.548 47.078 163.158 46.922C162.776 46.766 162.434 46.48 162.131 46.064L163.015 45.336C163.205 45.5267 163.418 45.6957 163.652 45.843C163.886 45.9903 164.172 46.064 164.51 46.064C164.657 46.064 164.804 46.051 164.952 46.025C165.108 45.9903 165.242 45.9427 165.355 45.882C165.476 45.8127 165.571 45.7303 165.641 45.635C165.719 45.531 165.758 45.414 165.758 45.284C165.758 45.1107 165.701 44.9677 165.589 44.855C165.485 44.7423 165.355 44.6557 165.199 44.595C165.051 44.5257 164.891 44.4737 164.718 44.439C164.553 44.3957 164.406 44.361 164.276 44.335C164.024 44.2743 163.786 44.205 163.561 44.127C163.335 44.049 163.136 43.945 162.963 43.815C162.789 43.685 162.651 43.5203 162.547 43.321C162.443 43.1217 162.391 42.8747 162.391 42.58C162.391 42.2593 162.456 41.982 162.586 41.748C162.724 41.5053 162.902 41.306 163.119 41.15C163.344 40.994 163.595 40.877 163.873 40.799C164.159 40.721 164.445 40.682 164.731 40.682C165.147 40.682 165.545 40.76 165.927 40.916C166.308 41.072 166.611 41.332 166.837 41.696L165.927 42.385ZM169.311 44.348C169.311 44.6167 169.367 44.8637 169.48 45.089C169.601 45.3057 169.757 45.492 169.948 45.648C170.139 45.804 170.36 45.9253 170.611 46.012C170.862 46.0987 171.122 46.142 171.391 46.142C171.755 46.142 172.071 46.0597 172.34 45.895C172.609 45.7217 172.856 45.4963 173.081 45.219L173.965 45.895C173.315 46.7357 172.405 47.156 171.235 47.156C170.75 47.156 170.308 47.0737 169.909 46.909C169.519 46.7443 169.185 46.519 168.908 46.233C168.639 45.9383 168.431 45.596 168.284 45.206C168.137 44.8073 168.063 44.3783 168.063 43.919C168.063 43.4597 168.141 43.035 168.297 42.645C168.462 42.2463 168.683 41.904 168.96 41.618C169.246 41.3233 169.584 41.0937 169.974 40.929C170.364 40.7643 170.789 40.682 171.248 40.682C171.794 40.682 172.253 40.7773 172.626 40.968C173.007 41.1587 173.319 41.41 173.562 41.722C173.805 42.0253 173.978 42.372 174.082 42.762C174.195 43.1433 174.251 43.5333 174.251 43.932V44.348H169.311ZM173.003 43.412C172.994 43.152 172.951 42.9137 172.873 42.697C172.804 42.4803 172.695 42.294 172.548 42.138C172.401 41.9733 172.214 41.8477 171.989 41.761C171.772 41.6657 171.517 41.618 171.222 41.618C170.936 41.618 170.672 41.6743 170.429 41.787C170.195 41.891 169.996 42.0297 169.831 42.203C169.666 42.3763 169.536 42.5713 169.441 42.788C169.354 42.996 169.311 43.204 169.311 43.412H173.003ZM178.927 42.385C178.788 42.2117 178.615 42.0687 178.407 41.956C178.207 41.8347 177.96 41.774 177.666 41.774C177.388 41.774 177.146 41.8347 176.938 41.956C176.738 42.0687 176.639 42.2377 176.639 42.463C176.639 42.645 176.695 42.7923 176.808 42.905C176.929 43.0177 177.068 43.1087 177.224 43.178C177.388 43.2473 177.562 43.2993 177.744 43.334C177.926 43.3687 178.082 43.399 178.212 43.425C178.463 43.4857 178.697 43.5593 178.914 43.646C179.139 43.7327 179.33 43.8453 179.486 43.984C179.65 44.1227 179.776 44.2917 179.863 44.491C179.958 44.6903 180.006 44.933 180.006 45.219C180.006 45.5657 179.932 45.8647 179.785 46.116C179.637 46.3587 179.447 46.558 179.213 46.714C178.979 46.87 178.71 46.9827 178.407 47.052C178.112 47.1213 177.813 47.156 177.51 47.156C176.998 47.156 176.548 47.078 176.158 46.922C175.776 46.766 175.434 46.48 175.131 46.064L176.015 45.336C176.205 45.5267 176.418 45.6957 176.652 45.843C176.886 45.9903 177.172 46.064 177.51 46.064C177.657 46.064 177.804 46.051 177.952 46.025C178.108 45.9903 178.242 45.9427 178.355 45.882C178.476 45.8127 178.571 45.7303 178.641 45.635C178.719 45.531 178.758 45.414 178.758 45.284C178.758 45.1107 178.701 44.9677 178.589 44.855C178.485 44.7423 178.355 44.6557 178.199 44.595C178.051 44.5257 177.891 44.4737 177.718 44.439C177.553 44.3957 177.406 44.361 177.276 44.335C177.024 44.2743 176.786 44.205 176.561 44.127C176.335 44.049 176.136 43.945 175.963 43.815C175.789 43.685 175.651 43.5203 175.547 43.321C175.443 43.1217 175.391 42.8747 175.391 42.58C175.391 42.2593 175.456 41.982 175.586 41.748C175.724 41.5053 175.902 41.306 176.119 41.15C176.344 40.994 176.595 40.877 176.873 40.799C177.159 40.721 177.445 40.682 177.731 40.682C178.147 40.682 178.545 40.76 178.927 40.916C179.308 41.072 179.611 41.332 179.837 41.696L178.927 42.385ZM182.35 47.078C182.116 47.078 181.912 46.9957 181.739 46.831C181.574 46.6577 181.492 46.454 181.492 46.22C181.492 45.986 181.574 45.7867 181.739 45.622C181.912 45.4487 182.116 45.362 182.35 45.362C182.584 45.362 182.783 45.4487 182.948 45.622C183.121 45.7867 183.208 45.986 183.208 46.22C183.208 46.454 183.121 46.6577 182.948 46.831C182.783 46.9957 182.584 47.078 182.35 47.078ZM185.968 47.078C185.734 47.078 185.53 46.9957 185.357 46.831C185.192 46.6577 185.11 46.454 185.11 46.22C185.11 45.986 185.192 45.7867 185.357 45.622C185.53 45.4487 185.734 45.362 185.968 45.362C186.202 45.362 186.401 45.4487 186.566 45.622C186.739 45.7867 186.826 45.986 186.826 46.22C186.826 46.454 186.739 46.6577 186.566 46.831C186.401 46.9957 186.202 47.078 185.968 47.078ZM189.586 47.078C189.352 47.078 189.149 46.9957 188.975 46.831C188.811 46.6577 188.728 46.454 188.728 46.22C188.728 45.986 188.811 45.7867 188.975 45.622C189.149 45.4487 189.352 45.362 189.586 45.362C189.82 45.362 190.02 45.4487 190.184 45.622C190.358 45.7867 190.444 45.986 190.444 46.22C190.444 46.454 190.358 46.6577 190.184 46.831C190.02 46.9957 189.82 47.078 189.586 47.078Z" fill="#9DA0A5"/>
</g>
<rect x="8" y="74" width="312" height="48" rx="14" fill="#0C131F"/>
<path d="M25.183 92.796H31.124V93.966H26.431V96.709H30.799V97.879H26.431V100.83H31.358V102H25.183V92.796ZM32.8313 95.838H34.0013V96.787H34.0273C34.1746 96.4577 34.4303 96.1933 34.7943 95.994C35.1583 95.786 35.5786 95.682 36.0553 95.682C36.3499 95.682 36.6316 95.7297 36.9003 95.825C37.1776 95.9117 37.4159 96.0503 37.6153 96.241C37.8233 96.4317 37.9879 96.6787 38.1093 96.982C38.2306 97.2767 38.2913 97.6277 38.2913 98.035V102H37.1213V98.36C37.1213 98.074 37.0823 97.8313 37.0043 97.632C36.9263 97.424 36.8223 97.2593 36.6923 97.138C36.5623 97.008 36.4106 96.917 36.2373 96.865C36.0726 96.8043 35.8993 96.774 35.7173 96.774C35.4746 96.774 35.2493 96.813 35.0413 96.891C34.8333 96.969 34.6513 97.0947 34.4953 97.268C34.3393 97.4327 34.2179 97.645 34.1313 97.905C34.0446 98.165 34.0013 98.4727 34.0013 98.828V102H32.8313V95.838ZM40.0549 95.838H41.2249V96.787H41.2509C41.3289 96.6223 41.4329 96.475 41.5629 96.345C41.6929 96.2063 41.8359 96.0893 41.9919 95.994C42.1566 95.8987 42.3342 95.825 42.5249 95.773C42.7156 95.7123 42.9062 95.682 43.0969 95.682C43.2876 95.682 43.4609 95.708 43.6169 95.76L43.5649 97.021C43.4696 96.995 43.3742 96.9733 43.2789 96.956C43.1836 96.9387 43.0882 96.93 42.9929 96.93C42.4209 96.93 41.9832 97.0903 41.6799 97.411C41.3766 97.7317 41.2249 98.23 41.2249 98.906V102H40.0549V95.838ZM45.5219 99.348C45.5219 99.6167 45.5782 99.8637 45.6909 100.089C45.8122 100.306 45.9682 100.492 46.1589 100.648C46.3496 100.804 46.5706 100.925 46.8219 101.012C47.0732 101.099 47.3332 101.142 47.6019 101.142C47.9659 101.142 48.2822 101.06 48.5509 100.895C48.8196 100.722 49.0666 100.496 49.2919 100.219L50.1759 100.895C49.5259 101.736 48.6159 102.156 47.4459 102.156C46.9606 102.156 46.5186 102.074 46.1199 101.909C45.7299 101.744 45.3962 101.519 45.1189 101.233C44.8502 100.938 44.6422 100.596 44.4949 100.206C44.3476 99.8073 44.2739 99.3783 44.2739 98.919C44.2739 98.4597 44.3519 98.035 44.5079 97.645C44.6726 97.2463 44.8936 96.904 45.1709 96.618C45.4569 96.3233 45.7949 96.0937 46.1849 95.929C46.5749 95.7643 46.9996 95.682 47.4589 95.682C48.0049 95.682 48.4642 95.7773 48.8369 95.968C49.2182 96.1587 49.5302 96.41 49.7729 96.722C50.0156 97.0253 50.1889 97.372 50.2929 97.762C50.4056 98.1433 50.4619 98.5333 50.4619 98.932V99.348H45.5219ZM49.2139 98.412C49.2052 98.152 49.1619 97.9137 49.0839 97.697C49.0146 97.4803 48.9062 97.294 48.7589 97.138C48.6116 96.9733 48.4252 96.8477 48.1999 96.761C47.9832 96.6657 47.7276 96.618 47.4329 96.618C47.1469 96.618 46.8826 96.6743 46.6399 96.787C46.4059 96.891 46.2066 97.0297 46.0419 97.203C45.8772 97.3763 45.7472 97.5713 45.6519 97.788C45.5652 97.996 45.5219 98.204 45.5219 98.412H49.2139ZM58.0365 101.948C58.0365 102.416 57.9542 102.841 57.7895 103.222C57.6335 103.612 57.4082 103.946 57.1135 104.223C56.8189 104.509 56.4635 104.73 56.0475 104.886C55.6315 105.042 55.1722 105.12 54.6695 105.12C54.0802 105.12 53.5385 105.038 53.0445 104.873C52.5592 104.708 52.0955 104.422 51.6535 104.015L52.4465 103.027C52.7499 103.356 53.0792 103.603 53.4345 103.768C53.7899 103.941 54.1929 104.028 54.6435 104.028C55.0769 104.028 55.4365 103.963 55.7225 103.833C56.0085 103.712 56.2339 103.551 56.3985 103.352C56.5719 103.153 56.6932 102.923 56.7625 102.663C56.8319 102.412 56.8665 102.156 56.8665 101.896V100.986H56.8275C56.6022 101.359 56.2945 101.636 55.9045 101.818C55.5232 101.991 55.1202 102.078 54.6955 102.078C54.2449 102.078 53.8245 102 53.4345 101.844C53.0532 101.679 52.7239 101.458 52.4465 101.181C52.1692 100.895 51.9525 100.561 51.7965 100.18C51.6405 99.79 51.5625 99.3697 51.5625 98.919C51.5625 98.4683 51.6362 98.048 51.7835 97.658C51.9309 97.2593 52.1389 96.9127 52.4075 96.618C52.6849 96.3233 53.0142 96.0937 53.3955 95.929C53.7855 95.7643 54.2189 95.682 54.6955 95.682C55.1115 95.682 55.5145 95.773 55.9045 95.955C56.3032 96.137 56.6152 96.3927 56.8405 96.722H56.8665V95.838H58.0365V101.948ZM54.8385 96.774C54.5265 96.774 54.2449 96.8303 53.9935 96.943C53.7422 97.047 53.5299 97.1943 53.3565 97.385C53.1832 97.567 53.0489 97.7923 52.9535 98.061C52.8582 98.321 52.8105 98.607 52.8105 98.919C52.8105 99.543 52.9925 100.046 53.3565 100.427C53.7205 100.8 54.2145 100.986 54.8385 100.986C55.4625 100.986 55.9565 100.8 56.3205 100.427C56.6845 100.046 56.8665 99.543 56.8665 98.919C56.8665 98.607 56.8189 98.321 56.7235 98.061C56.6282 97.7923 56.4939 97.567 56.3205 97.385C56.1472 97.1943 55.9349 97.047 55.6835 96.943C55.4322 96.8303 55.1505 96.774 54.8385 96.774ZM59.8998 95.838H61.0698V102H59.8998V95.838ZM59.6268 93.628C59.6268 93.394 59.7091 93.1947 59.8738 93.03C60.0471 92.8567 60.2508 92.77 60.4848 92.77C60.7188 92.77 60.9181 92.8567 61.0828 93.03C61.2561 93.1947 61.3428 93.394 61.3428 93.628C61.3428 93.862 61.2561 94.0657 61.0828 94.239C60.9181 94.4037 60.7188 94.486 60.4848 94.486C60.2508 94.486 60.0471 94.4037 59.8738 94.239C59.7091 94.0657 59.6268 93.862 59.6268 93.628ZM66.2079 97.385C66.0692 97.2117 65.8959 97.0687 65.6879 96.956C65.4885 96.8347 65.2415 96.774 64.9469 96.774C64.6695 96.774 64.4269 96.8347 64.2189 96.956C64.0195 97.0687 63.9199 97.2377 63.9199 97.463C63.9199 97.645 63.9762 97.7923 64.0889 97.905C64.2102 98.0177 64.3489 98.1087 64.5049 98.178C64.6695 98.2473 64.8429 98.2993 65.0249 98.334C65.2069 98.3687 65.3629 98.399 65.4929 98.425C65.7442 98.4857 65.9782 98.5593 66.1949 98.646C66.4202 98.7327 66.6109 98.8453 66.7669 98.984C66.9315 99.1227 67.0572 99.2917 67.1439 99.491C67.2392 99.6903 67.2869 99.933 67.2869 100.219C67.2869 100.566 67.2132 100.865 67.0659 101.116C66.9185 101.359 66.7279 101.558 66.4939 101.714C66.2599 101.87 65.9912 101.983 65.6879 102.052C65.3932 102.121 65.0942 102.156 64.7909 102.156C64.2795 102.156 63.8289 102.078 63.4389 101.922C63.0575 101.766 62.7152 101.48 62.4119 101.064L63.2959 100.336C63.4865 100.527 63.6989 100.696 63.9329 100.843C64.1669 100.99 64.4529 101.064 64.7909 101.064C64.9382 101.064 65.0855 101.051 65.2329 101.025C65.3889 100.99 65.5232 100.943 65.6359 100.882C65.7572 100.813 65.8525 100.73 65.9219 100.635C65.9999 100.531 66.0389 100.414 66.0389 100.284C66.0389 100.111 65.9825 99.9677 65.8699 99.855C65.7659 99.7423 65.6359 99.6557 65.4799 99.595C65.3325 99.5257 65.1722 99.4737 64.9989 99.439C64.8342 99.3957 64.6869 99.361 64.5569 99.335C64.3055 99.2743 64.0672 99.205 63.8419 99.127C63.6165 99.049 63.4172 98.945 63.2439 98.815C63.0705 98.685 62.9319 98.5203 62.8279 98.321C62.7239 98.1217 62.6719 97.8747 62.6719 97.58C62.6719 97.2593 62.7369 96.982 62.8669 96.748C63.0055 96.5053 63.1832 96.306 63.3999 96.15C63.6252 95.994 63.8765 95.877 64.1539 95.799C64.4399 95.721 64.7259 95.682 65.0119 95.682C65.4279 95.682 65.8265 95.76 66.2079 95.916C66.5892 96.072 66.8925 96.332 67.1179 96.696L66.2079 97.385ZM72.0102 96.852H70.3332V99.647C70.3332 99.8203 70.3376 99.9937 70.3462 100.167C70.3549 100.332 70.3852 100.483 70.4372 100.622C70.4979 100.752 70.5846 100.86 70.6972 100.947C70.8186 101.025 70.9919 101.064 71.2172 101.064C71.3559 101.064 71.4989 101.051 71.6462 101.025C71.7936 100.999 71.9279 100.951 72.0492 100.882V101.948C71.9106 102.026 71.7286 102.078 71.5032 102.104C71.2866 102.139 71.1176 102.156 70.9962 102.156C70.5456 102.156 70.1946 102.095 69.9432 101.974C69.7006 101.844 69.5186 101.679 69.3972 101.48C69.2846 101.281 69.2152 101.06 69.1892 100.817C69.1719 100.566 69.1632 100.314 69.1632 100.063V96.852H67.8112V95.838H69.1632V94.109H70.3332V95.838H72.0102V96.852ZM73.5197 95.838H74.6897V96.787H74.7157C74.7937 96.6223 74.8977 96.475 75.0277 96.345C75.1577 96.2063 75.3007 96.0893 75.4567 95.994C75.6214 95.8987 75.7991 95.825 75.9897 95.773C76.1804 95.7123 76.3711 95.682 76.5617 95.682C76.7524 95.682 76.9257 95.708 77.0817 95.76L77.0297 97.021C76.9344 96.995 76.8391 96.9733 76.7437 96.956C76.6484 96.9387 76.5531 96.93 76.4577 96.93C75.8857 96.93 75.4481 97.0903 75.1447 97.411C74.8414 97.7317 74.6897 98.23 74.6897 98.906V102H73.5197V95.838ZM78.9868 99.348C78.9868 99.6167 79.0431 99.8637 79.1558 100.089C79.2771 100.306 79.4331 100.492 79.6238 100.648C79.8144 100.804 80.0354 100.925 80.2868 101.012C80.5381 101.099 80.7981 101.142 81.0668 101.142C81.4308 101.142 81.7471 101.06 82.0158 100.895C82.2844 100.722 82.5314 100.496 82.7568 100.219L83.6408 100.895C82.9908 101.736 82.0808 102.156 80.9108 102.156C80.4254 102.156 79.9834 102.074 79.5848 101.909C79.1948 101.744 78.8611 101.519 78.5838 101.233C78.3151 100.938 78.1071 100.596 77.9598 100.206C77.8124 99.8073 77.7388 99.3783 77.7388 98.919C77.7388 98.4597 77.8168 98.035 77.9728 97.645C78.1374 97.2463 78.3584 96.904 78.6358 96.618C78.9218 96.3233 79.2598 96.0937 79.6498 95.929C80.0398 95.7643 80.4644 95.682 80.9238 95.682C81.4698 95.682 81.9291 95.7773 82.3018 95.968C82.6831 96.1587 82.9951 96.41 83.2378 96.722C83.4804 97.0253 83.6538 97.372 83.7578 97.762C83.8704 98.1433 83.9268 98.5333 83.9268 98.932V99.348H78.9868ZM82.6788 98.412C82.6701 98.152 82.6268 97.9137 82.5488 97.697C82.4794 97.4803 82.3711 97.294 82.2238 97.138C82.0764 96.9733 81.8901 96.8477 81.6648 96.761C81.4481 96.6657 81.1924 96.618 80.8978 96.618C80.6118 96.618 80.3474 96.6743 80.1048 96.787C79.8708 96.891 79.6714 97.0297 79.5068 97.203C79.3421 97.3763 79.2121 97.5713 79.1168 97.788C79.0301 97.996 78.9868 98.204 78.9868 98.412H82.6788ZM85.3264 95.838H86.4964V96.787H86.5224C86.6004 96.6223 86.7044 96.475 86.8344 96.345C86.9644 96.2063 87.1074 96.0893 87.2634 95.994C87.428 95.8987 87.6057 95.825 87.7964 95.773C87.987 95.7123 88.1777 95.682 88.3684 95.682C88.559 95.682 88.7324 95.708 88.8884 95.76L88.8364 97.021C88.741 96.995 88.6457 96.9733 88.5504 96.956C88.455 96.9387 88.3597 96.93 88.2644 96.93C87.6924 96.93 87.2547 97.0903 86.9514 97.411C86.648 97.7317 86.4964 98.23 86.4964 98.906V102H85.3264V95.838ZM99.2161 102H98.0461V101.051H98.0201C97.8727 101.38 97.6171 101.649 97.2531 101.857C96.8891 102.056 96.4687 102.156 95.9921 102.156C95.6887 102.156 95.4027 102.108 95.1341 102.013C94.8654 101.926 94.6271 101.788 94.4191 101.597C94.2197 101.406 94.0594 101.164 93.9381 100.869C93.8167 100.566 93.7561 100.21 93.7561 99.803V95.838H94.9261V99.478C94.9261 99.764 94.9651 100.011 95.0431 100.219C95.1211 100.418 95.2251 100.583 95.3551 100.713C95.4851 100.834 95.6324 100.925 95.7971 100.986C95.9704 101.038 96.1481 101.064 96.3301 101.064C96.5727 101.064 96.7981 101.025 97.0061 100.947C97.2141 100.869 97.3961 100.748 97.5521 100.583C97.7081 100.41 97.8294 100.193 97.9161 99.933C98.0027 99.673 98.0461 99.3653 98.0461 99.01V95.838H99.2161V102ZM100.98 95.838H102.15V96.787H102.176C102.323 96.4577 102.579 96.1933 102.943 95.994C103.307 95.786 103.727 95.682 104.204 95.682C104.498 95.682 104.78 95.7297 105.049 95.825C105.326 95.9117 105.564 96.0503 105.764 96.241C105.972 96.4317 106.136 96.6787 106.258 96.982C106.379 97.2767 106.44 97.6277 106.44 98.035V102H105.27V98.36C105.27 98.074 105.231 97.8313 105.153 97.632C105.075 97.424 104.971 97.2593 104.841 97.138C104.711 97.008 104.559 96.917 104.386 96.865C104.221 96.8043 104.048 96.774 103.866 96.774C103.623 96.774 103.398 96.813 103.19 96.891C102.982 96.969 102.8 97.0947 102.644 97.268C102.488 97.4327 102.366 97.645 102.28 97.905C102.193 98.165 102.15 98.4727 102.15 98.828V102H100.98V95.838ZM111.913 95.838H113.083V102H111.913V95.838ZM111.64 93.628C111.64 93.394 111.722 93.1947 111.887 93.03C112.06 92.8567 112.264 92.77 112.498 92.77C112.732 92.77 112.931 92.8567 113.096 93.03C113.269 93.1947 113.356 93.394 113.356 93.628C113.356 93.862 113.269 94.0657 113.096 94.239C112.931 94.4037 112.732 94.486 112.498 94.486C112.264 94.486 112.06 94.4037 111.887 94.239C111.722 94.0657 111.64 93.862 111.64 93.628ZM118.247 96.852H116.57V99.647C116.57 99.8203 116.574 99.9937 116.583 100.167C116.591 100.332 116.622 100.483 116.674 100.622C116.734 100.752 116.821 100.86 116.934 100.947C117.055 101.025 117.228 101.064 117.454 101.064C117.592 101.064 117.735 101.051 117.883 101.025C118.03 100.999 118.164 100.951 118.286 100.882V101.948C118.147 102.026 117.965 102.078 117.74 102.104C117.523 102.139 117.354 102.156 117.233 102.156C116.782 102.156 116.431 102.095 116.18 101.974C115.937 101.844 115.755 101.679 115.634 101.48C115.521 101.281 115.452 101.06 115.426 100.817C115.408 100.566 115.4 100.314 115.4 100.063V96.852H114.048V95.838H115.4V94.109H116.57V95.838H118.247V96.852ZM119.847 95.838H121.017V102H119.847V95.838ZM119.574 93.628C119.574 93.394 119.656 93.1947 119.821 93.03C119.994 92.8567 120.198 92.77 120.432 92.77C120.666 92.77 120.865 92.8567 121.03 93.03C121.203 93.1947 121.29 93.394 121.29 93.628C121.29 93.862 121.203 94.0657 121.03 94.239C120.865 94.4037 120.666 94.486 120.432 94.486C120.198 94.486 119.994 94.4037 119.821 94.239C119.656 94.0657 119.574 93.862 119.574 93.628ZM122.879 95.838H124.049V96.787H124.075C124.222 96.4577 124.478 96.1933 124.842 95.994C125.206 95.786 125.626 95.682 126.103 95.682C126.398 95.682 126.679 95.7297 126.948 95.825C127.225 95.9117 127.464 96.0503 127.663 96.241C127.871 96.4317 128.036 96.6787 128.157 96.982C128.278 97.2767 128.339 97.6277 128.339 98.035V102H127.169V98.36C127.169 98.074 127.13 97.8313 127.052 97.632C126.974 97.424 126.87 97.2593 126.74 97.138C126.61 97.008 126.458 96.917 126.285 96.865C126.12 96.8043 125.947 96.774 125.765 96.774C125.522 96.774 125.297 96.813 125.089 96.891C124.881 96.969 124.699 97.0947 124.543 97.268C124.387 97.4327 124.266 97.645 124.179 97.905C124.092 98.165 124.049 98.4727 124.049 98.828V102H122.879V95.838ZM130.987 99.348C130.987 99.6167 131.043 99.8637 131.156 100.089C131.277 100.306 131.433 100.492 131.624 100.648C131.814 100.804 132.035 100.925 132.287 101.012C132.538 101.099 132.798 101.142 133.067 101.142C133.431 101.142 133.747 101.06 134.016 100.895C134.284 100.722 134.531 100.496 134.757 100.219L135.641 100.895C134.991 101.736 134.081 102.156 132.911 102.156C132.425 102.156 131.983 102.074 131.585 101.909C131.195 101.744 130.861 101.519 130.584 101.233C130.315 100.938 130.107 100.596 129.96 100.206C129.812 99.8073 129.739 99.3783 129.739 98.919C129.739 98.4597 129.817 98.035 129.973 97.645C130.137 97.2463 130.358 96.904 130.636 96.618C130.922 96.3233 131.26 96.0937 131.65 95.929C132.04 95.7643 132.464 95.682 132.924 95.682C133.47 95.682 133.929 95.7773 134.302 95.968C134.683 96.1587 134.995 96.41 135.238 96.722C135.48 97.0253 135.654 97.372 135.758 97.762C135.87 98.1433 135.927 98.5333 135.927 98.932V99.348H130.987ZM134.679 98.412C134.67 98.152 134.627 97.9137 134.549 97.697C134.479 97.4803 134.371 97.294 134.224 97.138C134.076 96.9733 133.89 96.8477 133.665 96.761C133.448 96.6657 133.192 96.618 132.898 96.618C132.612 96.618 132.347 96.6743 132.105 96.787C131.871 96.891 131.671 97.0297 131.507 97.203C131.342 97.3763 131.212 97.5713 131.117 97.788C131.03 97.996 130.987 98.204 130.987 98.412H134.679ZM133.327 92.796H134.991L133.054 94.668H131.975L133.327 92.796ZM137.326 95.838H138.496V96.787H138.522C138.6 96.6223 138.704 96.475 138.834 96.345C138.964 96.2063 139.107 96.0893 139.263 95.994C139.428 95.8987 139.606 95.825 139.796 95.773C139.987 95.7123 140.178 95.682 140.368 95.682C140.559 95.682 140.732 95.708 140.888 95.76L140.836 97.021C140.741 96.995 140.646 96.9733 140.55 96.956C140.455 96.9387 140.36 96.93 140.264 96.93C139.692 96.93 139.255 97.0903 138.951 97.411C138.648 97.7317 138.496 98.23 138.496 98.906V102H137.326V95.838ZM142.164 96.592C142.493 96.2887 142.875 96.0633 143.308 95.916C143.741 95.76 144.175 95.682 144.608 95.682C145.059 95.682 145.444 95.7383 145.765 95.851C146.094 95.9637 146.363 96.1153 146.571 96.306C146.779 96.4967 146.931 96.7177 147.026 96.969C147.13 97.2117 147.182 97.4673 147.182 97.736V100.882C147.182 101.099 147.186 101.298 147.195 101.48C147.204 101.662 147.217 101.835 147.234 102H146.194C146.168 101.688 146.155 101.376 146.155 101.064H146.129C145.869 101.463 145.561 101.744 145.206 101.909C144.851 102.074 144.439 102.156 143.971 102.156C143.685 102.156 143.412 102.117 143.152 102.039C142.892 101.961 142.662 101.844 142.463 101.688C142.272 101.532 142.121 101.341 142.008 101.116C141.895 100.882 141.839 100.613 141.839 100.31C141.839 99.9113 141.926 99.5777 142.099 99.309C142.281 99.0403 142.524 98.8237 142.827 98.659C143.139 98.4857 143.499 98.3643 143.906 98.295C144.322 98.217 144.764 98.178 145.232 98.178H146.09V97.918C146.09 97.762 146.06 97.606 145.999 97.45C145.938 97.294 145.847 97.1553 145.726 97.034C145.605 96.904 145.453 96.8043 145.271 96.735C145.089 96.657 144.872 96.618 144.621 96.618C144.396 96.618 144.196 96.6397 144.023 96.683C143.858 96.7263 143.707 96.7827 143.568 96.852C143.429 96.9127 143.304 96.9863 143.191 97.073C143.078 97.1597 142.97 97.242 142.866 97.32L142.164 96.592ZM145.466 99.036C145.189 99.036 144.903 99.0533 144.608 99.088C144.322 99.114 144.058 99.1703 143.815 99.257C143.581 99.3437 143.386 99.465 143.23 99.621C143.083 99.777 143.009 99.9763 143.009 100.219C143.009 100.574 143.126 100.83 143.36 100.986C143.603 101.142 143.928 101.22 144.335 101.22C144.656 101.22 144.929 101.168 145.154 101.064C145.379 100.951 145.561 100.808 145.7 100.635C145.839 100.462 145.938 100.271 145.999 100.063C146.06 99.8463 146.09 99.634 146.09 99.426V99.036H145.466ZM148.97 95.838H150.14V102H148.97V95.838ZM148.697 93.628C148.697 93.394 148.779 93.1947 148.944 93.03C149.117 92.8567 149.321 92.77 149.555 92.77C149.789 92.77 149.988 92.8567 150.153 93.03C150.326 93.1947 150.413 93.394 150.413 93.628C150.413 93.862 150.326 94.0657 150.153 94.239C149.988 94.4037 149.789 94.486 149.555 94.486C149.321 94.486 149.117 94.4037 148.944 94.239C148.779 94.0657 148.697 93.862 148.697 93.628ZM152.002 95.838H153.172V96.787H153.198C153.276 96.6223 153.38 96.475 153.51 96.345C153.64 96.2063 153.783 96.0893 153.939 95.994C154.104 95.8987 154.281 95.825 154.472 95.773C154.663 95.7123 154.853 95.682 155.044 95.682C155.235 95.682 155.408 95.708 155.564 95.76L155.512 97.021C155.417 96.995 155.321 96.9733 155.226 96.956C155.131 96.9387 155.035 96.93 154.94 96.93C154.368 96.93 153.93 97.0903 153.627 97.411C153.324 97.7317 153.172 98.23 153.172 98.906V102H152.002V95.838ZM157.469 99.348C157.469 99.6167 157.526 99.8637 157.638 100.089C157.76 100.306 157.916 100.492 158.106 100.648C158.297 100.804 158.518 100.925 158.769 101.012C159.021 101.099 159.281 101.142 159.549 101.142C159.913 101.142 160.23 101.06 160.498 100.895C160.767 100.722 161.014 100.496 161.239 100.219L162.123 100.895C161.473 101.736 160.563 102.156 159.393 102.156C158.908 102.156 158.466 102.074 158.067 101.909C157.677 101.744 157.344 101.519 157.066 101.233C156.798 100.938 156.59 100.596 156.442 100.206C156.295 99.8073 156.221 99.3783 156.221 98.919C156.221 98.4597 156.299 98.035 156.455 97.645C156.62 97.2463 156.841 96.904 157.118 96.618C157.404 96.3233 157.742 96.0937 158.132 95.929C158.522 95.7643 158.947 95.682 159.406 95.682C159.952 95.682 160.412 95.7773 160.784 95.968C161.166 96.1587 161.478 96.41 161.72 96.722C161.963 97.0253 162.136 97.372 162.24 97.762C162.353 98.1433 162.409 98.5333 162.409 98.932V99.348H157.469ZM161.161 98.412C161.153 98.152 161.109 97.9137 161.031 97.697C160.962 97.4803 160.854 97.294 160.706 97.138C160.559 96.9733 160.373 96.8477 160.147 96.761C159.931 96.6657 159.675 96.618 159.38 96.618C159.094 96.618 158.83 96.6743 158.587 96.787C158.353 96.891 158.154 97.0297 157.989 97.203C157.825 97.3763 157.695 97.5713 157.599 97.788C157.513 97.996 157.469 98.204 157.469 98.412H161.161Z" fill="#F3F3F4"/>
<path d="M288 84.6665C285.363 84.6665 282.785 85.4485 280.592 86.9136C278.4 88.3787 276.691 90.461 275.682 92.8974C274.672 95.3337 274.408 98.0146 274.923 100.601C275.437 103.187 276.707 105.563 278.572 107.428C280.437 109.293 282.812 110.563 285.399 111.077C287.985 111.591 290.666 111.327 293.102 110.318C295.539 109.309 297.621 107.6 299.086 105.407C300.551 103.215 301.333 100.637 301.333 97.9998C301.333 96.2489 300.988 94.5151 300.318 92.8974C299.648 91.2797 298.666 89.8098 297.428 88.5717C296.19 87.3336 294.72 86.3515 293.102 85.6814C291.485 85.0114 289.751 84.6665 288 84.6665ZM294.1 99.0549H288.867V104.289C288.867 104.519 288.775 104.74 288.613 104.902C288.45 105.065 288.23 105.156 288 105.156C287.77 105.156 287.55 105.065 287.387 104.902C287.225 104.74 287.133 104.519 287.133 104.289V99.0549H281.899C281.669 99.0549 281.449 98.9636 281.286 98.8011C281.124 98.6386 281.033 98.4182 281.033 98.1884C281.033 97.9586 281.124 97.7382 281.286 97.5757C281.449 97.4132 281.669 97.3219 281.899 97.3219H287.133V92.0881C287.133 91.8583 287.225 91.6379 287.387 91.4754C287.55 91.3129 287.77 91.2216 288 91.2216C288.23 91.2216 288.45 91.3129 288.613 91.4754C288.775 91.6379 288.867 91.8583 288.867 92.0881V97.3219H294.1C294.33 97.3219 294.55 97.4132 294.713 97.5757C294.876 97.7382 294.967 97.9586 294.967 98.1884C294.967 98.4182 294.876 98.6386 294.713 98.8011C294.55 98.9636 294.33 99.0549 294.1 99.0549Z" fill="#8DE8FE"/>
<rect x="8" y="130" width="312" height="48" rx="14" fill="#0C131F"/>
<path d="M25.183 148.796H31.124V149.966H26.431V152.709H30.799V153.879H26.431V156.83H31.358V158H25.183V148.796ZM32.8313 151.838H34.0013V152.787H34.0273C34.1746 152.458 34.4303 152.193 34.7943 151.994C35.1583 151.786 35.5786 151.682 36.0553 151.682C36.3499 151.682 36.6316 151.73 36.9003 151.825C37.1776 151.912 37.4159 152.05 37.6153 152.241C37.8233 152.432 37.9879 152.679 38.1093 152.982C38.2306 153.277 38.2913 153.628 38.2913 154.035V158H37.1213V154.36C37.1213 154.074 37.0823 153.831 37.0043 153.632C36.9263 153.424 36.8223 153.259 36.6923 153.138C36.5623 153.008 36.4106 152.917 36.2373 152.865C36.0726 152.804 35.8993 152.774 35.7173 152.774C35.4746 152.774 35.2493 152.813 35.0413 152.891C34.8333 152.969 34.6513 153.095 34.4953 153.268C34.3393 153.433 34.2179 153.645 34.1313 153.905C34.0446 154.165 34.0013 154.473 34.0013 154.828V158H32.8313V151.838ZM40.0549 151.838H41.2249V152.787H41.2509C41.3289 152.622 41.4329 152.475 41.5629 152.345C41.6929 152.206 41.8359 152.089 41.9919 151.994C42.1566 151.899 42.3342 151.825 42.5249 151.773C42.7156 151.712 42.9062 151.682 43.0969 151.682C43.2876 151.682 43.4609 151.708 43.6169 151.76L43.5649 153.021C43.4696 152.995 43.3742 152.973 43.2789 152.956C43.1836 152.939 43.0882 152.93 42.9929 152.93C42.4209 152.93 41.9832 153.09 41.6799 153.411C41.3766 153.732 41.2249 154.23 41.2249 154.906V158H40.0549V151.838ZM45.5219 155.348C45.5219 155.617 45.5782 155.864 45.6909 156.089C45.8122 156.306 45.9682 156.492 46.1589 156.648C46.3496 156.804 46.5706 156.925 46.8219 157.012C47.0732 157.099 47.3332 157.142 47.6019 157.142C47.9659 157.142 48.2822 157.06 48.5509 156.895C48.8196 156.722 49.0666 156.496 49.2919 156.219L50.1759 156.895C49.5259 157.736 48.6159 158.156 47.4459 158.156C46.9606 158.156 46.5186 158.074 46.1199 157.909C45.7299 157.744 45.3962 157.519 45.1189 157.233C44.8502 156.938 44.6422 156.596 44.4949 156.206C44.3476 155.807 44.2739 155.378 44.2739 154.919C44.2739 154.46 44.3519 154.035 44.5079 153.645C44.6726 153.246 44.8936 152.904 45.1709 152.618C45.4569 152.323 45.7949 152.094 46.1849 151.929C46.5749 151.764 46.9996 151.682 47.4589 151.682C48.0049 151.682 48.4642 151.777 48.8369 151.968C49.2182 152.159 49.5302 152.41 49.7729 152.722C50.0156 153.025 50.1889 153.372 50.2929 153.762C50.4056 154.143 50.4619 154.533 50.4619 154.932V155.348H45.5219ZM49.2139 154.412C49.2052 154.152 49.1619 153.914 49.0839 153.697C49.0146 153.48 48.9062 153.294 48.7589 153.138C48.6116 152.973 48.4252 152.848 48.1999 152.761C47.9832 152.666 47.7276 152.618 47.4329 152.618C47.1469 152.618 46.8826 152.674 46.6399 152.787C46.4059 152.891 46.2066 153.03 46.0419 153.203C45.8772 153.376 45.7472 153.571 45.6519 153.788C45.5652 153.996 45.5219 154.204 45.5219 154.412H49.2139ZM58.0365 157.948C58.0365 158.416 57.9542 158.841 57.7895 159.222C57.6335 159.612 57.4082 159.946 57.1135 160.223C56.8189 160.509 56.4635 160.73 56.0475 160.886C55.6315 161.042 55.1722 161.12 54.6695 161.12C54.0802 161.12 53.5385 161.038 53.0445 160.873C52.5592 160.708 52.0955 160.422 51.6535 160.015L52.4465 159.027C52.7499 159.356 53.0792 159.603 53.4345 159.768C53.7899 159.941 54.1929 160.028 54.6435 160.028C55.0769 160.028 55.4365 159.963 55.7225 159.833C56.0085 159.712 56.2339 159.551 56.3985 159.352C56.5719 159.153 56.6932 158.923 56.7625 158.663C56.8319 158.412 56.8665 158.156 56.8665 157.896V156.986H56.8275C56.6022 157.359 56.2945 157.636 55.9045 157.818C55.5232 157.991 55.1202 158.078 54.6955 158.078C54.2449 158.078 53.8245 158 53.4345 157.844C53.0532 157.679 52.7239 157.458 52.4465 157.181C52.1692 156.895 51.9525 156.561 51.7965 156.18C51.6405 155.79 51.5625 155.37 51.5625 154.919C51.5625 154.468 51.6362 154.048 51.7835 153.658C51.9309 153.259 52.1389 152.913 52.4075 152.618C52.6849 152.323 53.0142 152.094 53.3955 151.929C53.7855 151.764 54.2189 151.682 54.6955 151.682C55.1115 151.682 55.5145 151.773 55.9045 151.955C56.3032 152.137 56.6152 152.393 56.8405 152.722H56.8665V151.838H58.0365V157.948ZM54.8385 152.774C54.5265 152.774 54.2449 152.83 53.9935 152.943C53.7422 153.047 53.5299 153.194 53.3565 153.385C53.1832 153.567 53.0489 153.792 52.9535 154.061C52.8582 154.321 52.8105 154.607 52.8105 154.919C52.8105 155.543 52.9925 156.046 53.3565 156.427C53.7205 156.8 54.2145 156.986 54.8385 156.986C55.4625 156.986 55.9565 156.8 56.3205 156.427C56.6845 156.046 56.8665 155.543 56.8665 154.919C56.8665 154.607 56.8189 154.321 56.7235 154.061C56.6282 153.792 56.4939 153.567 56.3205 153.385C56.1472 153.194 55.9349 153.047 55.6835 152.943C55.4322 152.83 55.1505 152.774 54.8385 152.774ZM59.8998 151.838H61.0698V158H59.8998V151.838ZM59.6268 149.628C59.6268 149.394 59.7091 149.195 59.8738 149.03C60.0471 148.857 60.2508 148.77 60.4848 148.77C60.7188 148.77 60.9181 148.857 61.0828 149.03C61.2561 149.195 61.3428 149.394 61.3428 149.628C61.3428 149.862 61.2561 150.066 61.0828 150.239C60.9181 150.404 60.7188 150.486 60.4848 150.486C60.2508 150.486 60.0471 150.404 59.8738 150.239C59.7091 150.066 59.6268 149.862 59.6268 149.628ZM66.2079 153.385C66.0692 153.212 65.8959 153.069 65.6879 152.956C65.4885 152.835 65.2415 152.774 64.9469 152.774C64.6695 152.774 64.4269 152.835 64.2189 152.956C64.0195 153.069 63.9199 153.238 63.9199 153.463C63.9199 153.645 63.9762 153.792 64.0889 153.905C64.2102 154.018 64.3489 154.109 64.5049 154.178C64.6695 154.247 64.8429 154.299 65.0249 154.334C65.2069 154.369 65.3629 154.399 65.4929 154.425C65.7442 154.486 65.9782 154.559 66.1949 154.646C66.4202 154.733 66.6109 154.845 66.7669 154.984C66.9315 155.123 67.0572 155.292 67.1439 155.491C67.2392 155.69 67.2869 155.933 67.2869 156.219C67.2869 156.566 67.2132 156.865 67.0659 157.116C66.9185 157.359 66.7279 157.558 66.4939 157.714C66.2599 157.87 65.9912 157.983 65.6879 158.052C65.3932 158.121 65.0942 158.156 64.7909 158.156C64.2795 158.156 63.8289 158.078 63.4389 157.922C63.0575 157.766 62.7152 157.48 62.4119 157.064L63.2959 156.336C63.4865 156.527 63.6989 156.696 63.9329 156.843C64.1669 156.99 64.4529 157.064 64.7909 157.064C64.9382 157.064 65.0855 157.051 65.2329 157.025C65.3889 156.99 65.5232 156.943 65.6359 156.882C65.7572 156.813 65.8525 156.73 65.9219 156.635C65.9999 156.531 66.0389 156.414 66.0389 156.284C66.0389 156.111 65.9825 155.968 65.8699 155.855C65.7659 155.742 65.6359 155.656 65.4799 155.595C65.3325 155.526 65.1722 155.474 64.9989 155.439C64.8342 155.396 64.6869 155.361 64.5569 155.335C64.3055 155.274 64.0672 155.205 63.8419 155.127C63.6165 155.049 63.4172 154.945 63.2439 154.815C63.0705 154.685 62.9319 154.52 62.8279 154.321C62.7239 154.122 62.6719 153.875 62.6719 153.58C62.6719 153.259 62.7369 152.982 62.8669 152.748C63.0055 152.505 63.1832 152.306 63.3999 152.15C63.6252 151.994 63.8765 151.877 64.1539 151.799C64.4399 151.721 64.7259 151.682 65.0119 151.682C65.4279 151.682 65.8265 151.76 66.2079 151.916C66.5892 152.072 66.8925 152.332 67.1179 152.696L66.2079 153.385ZM72.0102 152.852H70.3332V155.647C70.3332 155.82 70.3376 155.994 70.3462 156.167C70.3549 156.332 70.3852 156.483 70.4372 156.622C70.4979 156.752 70.5846 156.86 70.6972 156.947C70.8186 157.025 70.9919 157.064 71.2172 157.064C71.3559 157.064 71.4989 157.051 71.6462 157.025C71.7936 156.999 71.9279 156.951 72.0492 156.882V157.948C71.9106 158.026 71.7286 158.078 71.5032 158.104C71.2866 158.139 71.1176 158.156 70.9962 158.156C70.5456 158.156 70.1946 158.095 69.9432 157.974C69.7006 157.844 69.5186 157.679 69.3972 157.48C69.2846 157.281 69.2152 157.06 69.1892 156.817C69.1719 156.566 69.1632 156.314 69.1632 156.063V152.852H67.8112V151.838H69.1632V150.109H70.3332V151.838H72.0102V152.852ZM73.5197 151.838H74.6897V152.787H74.7157C74.7937 152.622 74.8977 152.475 75.0277 152.345C75.1577 152.206 75.3007 152.089 75.4567 151.994C75.6214 151.899 75.7991 151.825 75.9897 151.773C76.1804 151.712 76.3711 151.682 76.5617 151.682C76.7524 151.682 76.9257 151.708 77.0817 151.76L77.0297 153.021C76.9344 152.995 76.8391 152.973 76.7437 152.956C76.6484 152.939 76.5531 152.93 76.4577 152.93C75.8857 152.93 75.4481 153.09 75.1447 153.411C74.8414 153.732 74.6897 154.23 74.6897 154.906V158H73.5197V151.838ZM78.9868 155.348C78.9868 155.617 79.0431 155.864 79.1558 156.089C79.2771 156.306 79.4331 156.492 79.6238 156.648C79.8144 156.804 80.0354 156.925 80.2868 157.012C80.5381 157.099 80.7981 157.142 81.0668 157.142C81.4308 157.142 81.7471 157.06 82.0158 156.895C82.2844 156.722 82.5314 156.496 82.7568 156.219L83.6408 156.895C82.9908 157.736 82.0808 158.156 80.9108 158.156C80.4254 158.156 79.9834 158.074 79.5848 157.909C79.1948 157.744 78.8611 157.519 78.5838 157.233C78.3151 156.938 78.1071 156.596 77.9598 156.206C77.8124 155.807 77.7388 155.378 77.7388 154.919C77.7388 154.46 77.8168 154.035 77.9728 153.645C78.1374 153.246 78.3584 152.904 78.6358 152.618C78.9218 152.323 79.2598 152.094 79.6498 151.929C80.0398 151.764 80.4644 151.682 80.9238 151.682C81.4698 151.682 81.9291 151.777 82.3018 151.968C82.6831 152.159 82.9951 152.41 83.2378 152.722C83.4804 153.025 83.6538 153.372 83.7578 153.762C83.8704 154.143 83.9268 154.533 83.9268 154.932V155.348H78.9868ZM82.6788 154.412C82.6701 154.152 82.6268 153.914 82.5488 153.697C82.4794 153.48 82.3711 153.294 82.2238 153.138C82.0764 152.973 81.8901 152.848 81.6648 152.761C81.4481 152.666 81.1924 152.618 80.8978 152.618C80.6118 152.618 80.3474 152.674 80.1048 152.787C79.8708 152.891 79.6714 153.03 79.5068 153.203C79.3421 153.376 79.2121 153.571 79.1168 153.788C79.0301 153.996 78.9868 154.204 78.9868 154.412H82.6788ZM85.3264 151.838H86.4964V152.787H86.5224C86.6004 152.622 86.7044 152.475 86.8344 152.345C86.9644 152.206 87.1074 152.089 87.2634 151.994C87.428 151.899 87.6057 151.825 87.7964 151.773C87.987 151.712 88.1777 151.682 88.3684 151.682C88.559 151.682 88.7324 151.708 88.8884 151.76L88.8364 153.021C88.741 152.995 88.6457 152.973 88.5504 152.956C88.455 152.939 88.3597 152.93 88.2644 152.93C87.6924 152.93 87.2547 153.09 86.9514 153.411C86.648 153.732 86.4964 154.23 86.4964 154.906V158H85.3264V151.838ZM99.2161 158H98.0461V157.051H98.0201C97.8727 157.38 97.6171 157.649 97.2531 157.857C96.8891 158.056 96.4687 158.156 95.9921 158.156C95.6887 158.156 95.4027 158.108 95.1341 158.013C94.8654 157.926 94.6271 157.788 94.4191 157.597C94.2197 157.406 94.0594 157.164 93.9381 156.869C93.8167 156.566 93.7561 156.21 93.7561 155.803V151.838H94.9261V155.478C94.9261 155.764 94.9651 156.011 95.0431 156.219C95.1211 156.418 95.2251 156.583 95.3551 156.713C95.4851 156.834 95.6324 156.925 95.7971 156.986C95.9704 157.038 96.1481 157.064 96.3301 157.064C96.5727 157.064 96.7981 157.025 97.0061 156.947C97.2141 156.869 97.3961 156.748 97.5521 156.583C97.7081 156.41 97.8294 156.193 97.9161 155.933C98.0027 155.673 98.0461 155.365 98.0461 155.01V151.838H99.2161V158ZM100.98 151.838H102.15V152.787H102.176C102.323 152.458 102.579 152.193 102.943 151.994C103.307 151.786 103.727 151.682 104.204 151.682C104.498 151.682 104.78 151.73 105.049 151.825C105.326 151.912 105.564 152.05 105.764 152.241C105.972 152.432 106.136 152.679 106.258 152.982C106.379 153.277 106.44 153.628 106.44 154.035V158H105.27V154.36C105.27 154.074 105.231 153.831 105.153 153.632C105.075 153.424 104.971 153.259 104.841 153.138C104.711 153.008 104.559 152.917 104.386 152.865C104.221 152.804 104.048 152.774 103.866 152.774C103.623 152.774 103.398 152.813 103.19 152.891C102.982 152.969 102.8 153.095 102.644 153.268C102.488 153.433 102.366 153.645 102.28 153.905C102.193 154.165 102.15 154.473 102.15 154.828V158H100.98V151.838ZM109.087 155.348C109.087 155.617 109.144 155.864 109.256 156.089C109.378 156.306 109.534 156.492 109.724 156.648C109.915 156.804 110.136 156.925 110.387 157.012C110.639 157.099 110.899 157.142 111.167 157.142C111.531 157.142 111.848 157.06 112.116 156.895C112.385 156.722 112.632 156.496 112.857 156.219L113.741 156.895C113.091 157.736 112.181 158.156 111.011 158.156C110.526 158.156 110.084 158.074 109.685 157.909C109.295 157.744 108.962 157.519 108.684 157.233C108.416 156.938 108.208 156.596 108.06 156.206C107.913 155.807 107.839 155.378 107.839 154.919C107.839 154.46 107.917 154.035 108.073 153.645C108.238 153.246 108.459 152.904 108.736 152.618C109.022 152.323 109.36 152.094 109.75 151.929C110.14 151.764 110.565 151.682 111.024 151.682C111.57 151.682 112.03 151.777 112.402 151.968C112.784 152.159 113.096 152.41 113.338 152.722C113.581 153.025 113.754 153.372 113.858 153.762C113.971 154.143 114.027 154.533 114.027 154.932V155.348H109.087ZM112.779 154.412C112.771 154.152 112.727 153.914 112.649 153.697C112.58 153.48 112.472 153.294 112.324 153.138C112.177 152.973 111.991 152.848 111.765 152.761C111.549 152.666 111.293 152.618 110.998 152.618C110.712 152.618 110.448 152.674 110.205 152.787C109.971 152.891 109.772 153.03 109.607 153.203C109.443 153.376 109.313 153.571 109.217 153.788C109.131 153.996 109.087 154.204 109.087 154.412H112.779ZM119.071 152.592C119.4 152.289 119.782 152.063 120.215 151.916C120.648 151.76 121.082 151.682 121.515 151.682C121.966 151.682 122.351 151.738 122.672 151.851C123.001 151.964 123.27 152.115 123.478 152.306C123.686 152.497 123.838 152.718 123.933 152.969C124.037 153.212 124.089 153.467 124.089 153.736V156.882C124.089 157.099 124.093 157.298 124.102 157.48C124.111 157.662 124.124 157.835 124.141 158H123.101C123.075 157.688 123.062 157.376 123.062 157.064H123.036C122.776 157.463 122.468 157.744 122.113 157.909C121.758 158.074 121.346 158.156 120.878 158.156C120.592 158.156 120.319 158.117 120.059 158.039C119.799 157.961 119.569 157.844 119.37 157.688C119.179 157.532 119.028 157.341 118.915 157.116C118.802 156.882 118.746 156.613 118.746 156.31C118.746 155.911 118.833 155.578 119.006 155.309C119.188 155.04 119.431 154.824 119.734 154.659C120.046 154.486 120.406 154.364 120.813 154.295C121.229 154.217 121.671 154.178 122.139 154.178H122.997V153.918C122.997 153.762 122.967 153.606 122.906 153.45C122.845 153.294 122.754 153.155 122.633 153.034C122.512 152.904 122.36 152.804 122.178 152.735C121.996 152.657 121.779 152.618 121.528 152.618C121.303 152.618 121.103 152.64 120.93 152.683C120.765 152.726 120.614 152.783 120.475 152.852C120.336 152.913 120.211 152.986 120.098 153.073C119.985 153.16 119.877 153.242 119.773 153.32L119.071 152.592ZM122.373 155.036C122.096 155.036 121.81 155.053 121.515 155.088C121.229 155.114 120.965 155.17 120.722 155.257C120.488 155.344 120.293 155.465 120.137 155.621C119.99 155.777 119.916 155.976 119.916 156.219C119.916 156.574 120.033 156.83 120.267 156.986C120.51 157.142 120.835 157.22 121.242 157.22C121.563 157.22 121.836 157.168 122.061 157.064C122.286 156.951 122.468 156.808 122.607 156.635C122.746 156.462 122.845 156.271 122.906 156.063C122.967 155.846 122.997 155.634 122.997 155.426V155.036H122.373ZM131.961 158H130.791V157.116H130.765C130.54 157.445 130.228 157.701 129.829 157.883C129.439 158.065 129.036 158.156 128.62 158.156C128.144 158.156 127.71 158.074 127.32 157.909C126.939 157.744 126.61 157.515 126.332 157.22C126.064 156.925 125.856 156.583 125.708 156.193C125.561 155.803 125.487 155.378 125.487 154.919C125.487 154.46 125.561 154.035 125.708 153.645C125.856 153.246 126.064 152.904 126.332 152.618C126.61 152.323 126.939 152.094 127.32 151.929C127.71 151.764 128.144 151.682 128.62 151.682C129.062 151.682 129.478 151.777 129.868 151.968C130.258 152.15 130.557 152.401 130.765 152.722H130.791V148.172H131.961V158ZM128.763 157.064C129.075 157.064 129.357 157.012 129.608 156.908C129.86 156.795 130.072 156.648 130.245 156.466C130.419 156.275 130.553 156.05 130.648 155.79C130.744 155.521 130.791 155.231 130.791 154.919C130.791 154.607 130.744 154.321 130.648 154.061C130.553 153.792 130.419 153.567 130.245 153.385C130.072 153.194 129.86 153.047 129.608 152.943C129.357 152.83 129.075 152.774 128.763 152.774C128.451 152.774 128.17 152.83 127.918 152.943C127.667 153.047 127.455 153.194 127.281 153.385C127.108 153.567 126.974 153.792 126.878 154.061C126.783 154.321 126.735 154.607 126.735 154.919C126.735 155.231 126.783 155.521 126.878 155.79C126.974 156.05 127.108 156.275 127.281 156.466C127.455 156.648 127.667 156.795 127.918 156.908C128.17 157.012 128.451 157.064 128.763 157.064ZM133.734 151.838H134.904V152.787H134.93C135.008 152.622 135.112 152.475 135.242 152.345C135.372 152.206 135.515 152.089 135.671 151.994C135.835 151.899 136.013 151.825 136.204 151.773C136.394 151.712 136.585 151.682 136.776 151.682C136.966 151.682 137.14 151.708 137.296 151.76L137.244 153.021C137.148 152.995 137.053 152.973 136.958 152.956C136.862 152.939 136.767 152.93 136.672 152.93C136.1 152.93 135.662 153.09 135.359 153.411C135.055 153.732 134.904 154.23 134.904 154.906V158H133.734V151.838ZM139.201 155.348C139.201 155.617 139.257 155.864 139.37 156.089C139.491 156.306 139.647 156.492 139.838 156.648C140.028 156.804 140.249 156.925 140.501 157.012C140.752 157.099 141.012 157.142 141.281 157.142C141.645 157.142 141.961 157.06 142.23 156.895C142.498 156.722 142.745 156.496 142.971 156.219L143.855 156.895C143.205 157.736 142.295 158.156 141.125 158.156C140.639 158.156 140.197 158.074 139.799 157.909C139.409 157.744 139.075 157.519 138.798 157.233C138.529 156.938 138.321 156.596 138.174 156.206C138.026 155.807 137.953 155.378 137.953 154.919C137.953 154.46 138.031 154.035 138.187 153.645C138.351 153.246 138.572 152.904 138.85 152.618C139.136 152.323 139.474 152.094 139.864 151.929C140.254 151.764 140.678 151.682 141.138 151.682C141.684 151.682 142.143 151.777 142.516 151.968C142.897 152.159 143.209 152.41 143.452 152.722C143.694 153.025 143.868 153.372 143.972 153.762C144.084 154.143 144.141 154.533 144.141 154.932V155.348H139.201ZM142.893 154.412C142.884 154.152 142.841 153.914 142.763 153.697C142.693 153.48 142.585 153.294 142.438 153.138C142.29 152.973 142.104 152.848 141.879 152.761C141.662 152.666 141.406 152.618 141.112 152.618C140.826 152.618 140.561 152.674 140.319 152.787C140.085 152.891 139.885 153.03 139.721 153.203C139.556 153.376 139.426 153.571 139.331 153.788C139.244 153.996 139.201 154.204 139.201 154.412H142.893ZM148.816 153.385C148.678 153.212 148.504 153.069 148.296 152.956C148.097 152.835 147.85 152.774 147.555 152.774C147.278 152.774 147.035 152.835 146.827 152.956C146.628 153.069 146.528 153.238 146.528 153.463C146.528 153.645 146.585 153.792 146.697 153.905C146.819 154.018 146.957 154.109 147.113 154.178C147.278 154.247 147.451 154.299 147.633 154.334C147.815 154.369 147.971 154.399 148.101 154.425C148.353 154.486 148.587 154.559 148.803 154.646C149.029 154.733 149.219 154.845 149.375 154.984C149.54 155.123 149.666 155.292 149.752 155.491C149.848 155.69 149.895 155.933 149.895 156.219C149.895 156.566 149.822 156.865 149.674 157.116C149.527 157.359 149.336 157.558 149.102 157.714C148.868 157.87 148.6 157.983 148.296 158.052C148.002 158.121 147.703 158.156 147.399 158.156C146.888 158.156 146.437 158.078 146.047 157.922C145.666 157.766 145.324 157.48 145.02 157.064L145.904 156.336C146.095 156.527 146.307 156.696 146.541 156.843C146.775 156.99 147.061 157.064 147.399 157.064C147.547 157.064 147.694 157.051 147.841 157.025C147.997 156.99 148.132 156.943 148.244 156.882C148.366 156.813 148.461 156.73 148.53 156.635C148.608 156.531 148.647 156.414 148.647 156.284C148.647 156.111 148.591 155.968 148.478 155.855C148.374 155.742 148.244 155.656 148.088 155.595C147.941 155.526 147.781 155.474 147.607 155.439C147.443 155.396 147.295 155.361 147.165 155.335C146.914 155.274 146.676 155.205 146.45 155.127C146.225 155.049 146.026 154.945 145.852 154.815C145.679 154.685 145.54 154.52 145.436 154.321C145.332 154.122 145.28 153.875 145.28 153.58C145.28 153.259 145.345 152.982 145.475 152.748C145.614 152.505 145.792 152.306 146.008 152.15C146.234 151.994 146.485 151.877 146.762 151.799C147.048 151.721 147.334 151.682 147.62 151.682C148.036 151.682 148.435 151.76 148.816 151.916C149.198 152.072 149.501 152.332 149.726 152.696L148.816 153.385ZM154.593 153.385C154.454 153.212 154.281 153.069 154.073 152.956C153.873 152.835 153.626 152.774 153.332 152.774C153.054 152.774 152.812 152.835 152.604 152.956C152.404 153.069 152.305 153.238 152.305 153.463C152.305 153.645 152.361 153.792 152.474 153.905C152.595 154.018 152.734 154.109 152.89 154.178C153.054 154.247 153.228 154.299 153.41 154.334C153.592 154.369 153.748 154.399 153.878 154.425C154.129 154.486 154.363 154.559 154.58 154.646C154.805 154.733 154.996 154.845 155.152 154.984C155.316 155.123 155.442 155.292 155.529 155.491C155.624 155.69 155.672 155.933 155.672 156.219C155.672 156.566 155.598 156.865 155.451 157.116C155.303 157.359 155.113 157.558 154.879 157.714C154.645 157.87 154.376 157.983 154.073 158.052C153.778 158.121 153.479 158.156 153.176 158.156C152.664 158.156 152.214 158.078 151.824 157.922C151.442 157.766 151.1 157.48 150.797 157.064L151.681 156.336C151.871 156.527 152.084 156.696 152.318 156.843C152.552 156.99 152.838 157.064 153.176 157.064C153.323 157.064 153.47 157.051 153.618 157.025C153.774 156.99 153.908 156.943 154.021 156.882C154.142 156.813 154.237 156.73 154.307 156.635C154.385 156.531 154.424 156.414 154.424 156.284C154.424 156.111 154.367 155.968 154.255 155.855C154.151 155.742 154.021 155.656 153.865 155.595C153.717 155.526 153.557 155.474 153.384 155.439C153.219 155.396 153.072 155.361 152.942 155.335C152.69 155.274 152.452 155.205 152.227 155.127C152.001 155.049 151.802 154.945 151.629 154.815C151.455 154.685 151.317 154.52 151.213 154.321C151.109 154.122 151.057 153.875 151.057 153.58C151.057 153.259 151.122 152.982 151.252 152.748C151.39 152.505 151.568 152.306 151.785 152.15C152.01 151.994 152.261 151.877 152.539 151.799C152.825 151.721 153.111 151.682 153.397 151.682C153.813 151.682 154.211 151.76 154.593 151.916C154.974 152.072 155.277 152.332 155.503 152.696L154.593 153.385ZM157.977 155.348C157.977 155.617 158.033 155.864 158.146 156.089C158.267 156.306 158.423 156.492 158.614 156.648C158.805 156.804 159.026 156.925 159.277 157.012C159.528 157.099 159.788 157.142 160.057 157.142C160.421 157.142 160.737 157.06 161.006 156.895C161.275 156.722 161.522 156.496 161.747 156.219L162.631 156.895C161.981 157.736 161.071 158.156 159.901 158.156C159.416 158.156 158.974 158.074 158.575 157.909C158.185 157.744 157.851 157.519 157.574 157.233C157.305 156.938 157.097 156.596 156.95 156.206C156.803 155.807 156.729 155.378 156.729 154.919C156.729 154.46 156.807 154.035 156.963 153.645C157.128 153.246 157.349 152.904 157.626 152.618C157.912 152.323 158.25 152.094 158.64 151.929C159.03 151.764 159.455 151.682 159.914 151.682C160.46 151.682 160.919 151.777 161.292 151.968C161.673 152.159 161.985 152.41 162.228 152.722C162.471 153.025 162.644 153.372 162.748 153.762C162.861 154.143 162.917 154.533 162.917 154.932V155.348H157.977ZM161.669 154.412C161.66 154.152 161.617 153.914 161.539 153.697C161.47 153.48 161.361 153.294 161.214 153.138C161.067 152.973 160.88 152.848 160.655 152.761C160.438 152.666 160.183 152.618 159.888 152.618C159.602 152.618 159.338 152.674 159.095 152.787C158.861 152.891 158.662 153.03 158.497 153.203C158.332 153.376 158.202 153.571 158.107 153.788C158.02 153.996 157.977 154.204 157.977 154.412H161.669Z" fill="#F3F3F4"/>
<path d="M288 140.667C285.363 140.667 282.785 141.448 280.592 142.914C278.4 144.379 276.691 146.461 275.682 148.897C274.672 151.334 274.408 154.015 274.923 156.601C275.437 159.187 276.707 161.563 278.572 163.428C280.437 165.293 282.812 166.563 285.399 167.077C287.985 167.591 290.666 167.327 293.102 166.318C295.539 165.309 297.621 163.6 299.086 161.407C300.551 159.215 301.333 156.637 301.333 154C301.333 152.249 300.988 150.515 300.318 148.897C299.648 147.28 298.666 145.81 297.428 144.572C296.19 143.334 294.72 142.351 293.102 141.681C291.485 141.011 289.751 140.666 288 140.667ZM294.1 155.055H288.867V160.289C288.867 160.519 288.775 160.74 288.613 160.902C288.45 161.065 288.23 161.156 288 161.156C287.77 161.156 287.55 161.065 287.387 160.902C287.225 160.74 287.133 160.519 287.133 160.289V155.055H281.899C281.669 155.055 281.449 154.964 281.286 154.801C281.124 154.639 281.033 154.418 281.033 154.188C281.033 153.959 281.124 153.738 281.286 153.576C281.449 153.413 281.669 153.322 281.899 153.322H287.133V148.088C287.133 147.858 287.225 147.638 287.387 147.475C287.55 147.313 287.77 147.222 288 147.222C288.23 147.222 288.45 147.313 288.613 147.475C288.775 147.638 288.867 147.858 288.867 148.088V153.322H294.1C294.33 153.322 294.55 153.413 294.713 153.576C294.876 153.738 294.967 153.959 294.967 154.188C294.967 154.418 294.876 154.639 294.713 154.801C294.55 154.964 294.33 155.055 294.1 155.055Z" fill="#8DE8FE"/>
</g>
<defs>
<clipPath id="clip0_211_53748">
<rect width="328" height="186" fill="white"/>
</clipPath>
<clipPath id="clip1_211_53748">
<rect width="252" height="48" fill="white" transform="translate(8 8)"/>
</clipPath>
<clipPath id="clip2_211_53748">
<rect width="48" height="48" fill="white" transform="translate(8 8)"/>
</clipPath>
<clipPath id="clip3_211_53748">
<rect width="24" height="24" fill="white" transform="translate(20 20)"/>
</clipPath>
</defs>
</svg>
