<svg width="328" height="64" viewBox="0 0 328 64" fill="none" xmlns="http://www.w3.org/2000/svg">
<path d="M0 14C0 6.26801 6.26801 0 14 0H314C321.732 0 328 6.26801 328 14V50C328 57.732 321.732 64 314 64H14C6.26802 64 0 57.732 0 50V14Z" fill="#242B35"/>
<path d="M296.794 26.6659C296.366 27.0617 296.366 27.7383 296.794 28.1341L300.973 32L296.794 35.8659C296.366 36.2617 296.366 36.9383 296.794 37.3341L296.834 37.3719C297.218 37.7264 297.809 37.7264 298.193 37.3719L303.206 32.7341C303.634 32.3383 303.634 31.6617 303.206 31.2659L298.193 26.6281C297.809 26.2736 297.218 26.2736 296.834 26.6281L296.794 26.6659Z" fill="#8DE8FE"/>
<rect opacity="0.2" x="8" y="8" width="48" height="48" rx="5.33333" fill="#B5B5FF"/>
<path fill-rule="evenodd" clip-rule="evenodd" d="M44.553 42.5634H39.805L34.6668 21.7777C34.4067 20.7521 33.5611 20 32.5205 20H31.4148C30.3742 20 29.4636 20.7521 29.2685 21.7777L24.1303 42.5634H19.3823C18.992 42.5634 18.6668 42.8369 18.6668 43.2472C18.6668 43.6574 18.992 43.9993 19.3823 43.9993H44.6181C45.0083 43.9993 45.3335 43.6574 45.3335 43.2472C45.2685 42.8369 44.9433 42.5634 44.553 42.5634ZM28.5529 31.5523L27.3029 36.8855H36.8862L35.6362 31.5523H28.5529Z" fill="#B5B5FF"/>
<path d="M65.216 16.672H67.232V28H65.216V16.672ZM69.5411 20.32H71.3651V21.552H71.3971C71.5785 21.168 71.8558 20.8373 72.2291 20.56C72.6025 20.272 73.1091 20.128 73.7491 20.128C74.2611 20.128 74.6931 20.2133 75.0451 20.384C75.4078 20.5547 75.7011 20.7787 75.9251 21.056C76.1491 21.3333 76.3091 21.6533 76.4051 22.016C76.5011 22.3787 76.5491 22.7573 76.5491 23.152V28H74.6291V24.112C74.6291 23.8987 74.6185 23.664 74.5971 23.408C74.5758 23.1413 74.5171 22.896 74.4211 22.672C74.3358 22.4373 74.1971 22.2453 74.0051 22.096C73.8131 21.936 73.5518 21.856 73.2211 21.856C72.9011 21.856 72.6291 21.9093 72.4051 22.016C72.1918 22.1227 72.0105 22.2667 71.8611 22.448C71.7225 22.6293 71.6211 22.8373 71.5571 23.072C71.4931 23.3067 71.4611 23.552 71.4611 23.808V28H69.5411V20.32ZM79.4166 21.952H77.8326V20.32H79.4166V19.232C79.4166 18.6987 79.454 18.2187 79.5286 17.792C79.6033 17.3547 79.742 16.9813 79.9446 16.672C80.158 16.3627 80.4513 16.128 80.8246 15.968C81.198 15.7973 81.6833 15.712 82.2806 15.712C82.718 15.712 83.1233 15.7493 83.4966 15.824L83.3686 17.456C83.23 17.424 83.0966 17.3973 82.9686 17.376C82.8406 17.3547 82.7073 17.344 82.5686 17.344C82.302 17.344 82.0886 17.3867 81.9286 17.472C81.7686 17.5573 81.6406 17.6747 81.5446 17.824C81.4593 17.9627 81.4006 18.128 81.3686 18.32C81.3473 18.512 81.3366 18.7147 81.3366 18.928V20.32H83.1126V21.952H81.3366V28H79.4166V21.952ZM83.9696 24.16C83.9696 23.552 84.0763 23.0027 84.2896 22.512C84.5136 22.0107 84.8123 21.584 85.1856 21.232C85.559 20.88 86.0016 20.608 86.5136 20.416C87.0256 20.224 87.5696 20.128 88.1456 20.128C88.7216 20.128 89.2656 20.224 89.7776 20.416C90.2896 20.608 90.7323 20.88 91.1056 21.232C91.479 21.584 91.7723 22.0107 91.9856 22.512C92.2096 23.0027 92.3216 23.552 92.3216 24.16C92.3216 24.768 92.2096 25.3227 91.9856 25.824C91.7723 26.3147 91.479 26.736 91.1056 27.088C90.7323 27.44 90.2896 27.712 89.7776 27.904C89.2656 28.096 88.7216 28.192 88.1456 28.192C87.5696 28.192 87.0256 28.096 86.5136 27.904C86.0016 27.712 85.559 27.44 85.1856 27.088C84.8123 26.736 84.5136 26.3147 84.2896 25.824C84.0763 25.3227 83.9696 24.768 83.9696 24.16ZM85.8896 24.16C85.8896 24.4587 85.9376 24.7467 86.0336 25.024C86.1403 25.3013 86.2896 25.5467 86.4816 25.76C86.6843 25.9733 86.9243 26.144 87.2016 26.272C87.479 26.4 87.7936 26.464 88.1456 26.464C88.4976 26.464 88.8123 26.4 89.0896 26.272C89.367 26.144 89.6016 25.9733 89.7936 25.76C89.9963 25.5467 90.1456 25.3013 90.2416 25.024C90.3483 24.7467 90.4016 24.4587 90.4016 24.16C90.4016 23.8613 90.3483 23.5733 90.2416 23.296C90.1456 23.0187 89.9963 22.7733 89.7936 22.56C89.6016 22.3467 89.367 22.176 89.0896 22.048C88.8123 21.92 88.4976 21.856 88.1456 21.856C87.7936 21.856 87.479 21.92 87.2016 22.048C86.9243 22.176 86.6843 22.3467 86.4816 22.56C86.2896 22.7733 86.1403 23.0187 86.0336 23.296C85.9376 23.5733 85.8896 23.8613 85.8896 24.16ZM98.2153 22.448C97.8419 21.9253 97.3406 21.664 96.7113 21.664C96.4553 21.664 96.2046 21.728 95.9593 21.856C95.7139 21.984 95.5913 22.192 95.5913 22.48C95.5913 22.7147 95.6926 22.8853 95.8953 22.992C96.0979 23.0987 96.3539 23.1893 96.6633 23.264C96.9726 23.3387 97.3033 23.4187 97.6553 23.504C98.0179 23.5787 98.3539 23.7013 98.6633 23.872C98.9726 24.032 99.2286 24.256 99.4313 24.544C99.6339 24.832 99.7353 25.2267 99.7353 25.728C99.7353 26.1867 99.6339 26.576 99.4313 26.896C99.2393 27.2053 98.9833 27.456 98.6633 27.648C98.3539 27.84 98.0019 27.9787 97.6073 28.064C97.2126 28.1493 96.8179 28.192 96.4233 28.192C95.8259 28.192 95.2766 28.1067 94.7753 27.936C94.2739 27.7653 93.8259 27.456 93.4313 27.008L94.7113 25.808C94.9566 26.0853 95.2179 26.3147 95.4953 26.496C95.7833 26.6667 96.1299 26.752 96.5353 26.752C96.6739 26.752 96.8179 26.736 96.9673 26.704C97.1166 26.672 97.2553 26.6187 97.3833 26.544C97.5113 26.4693 97.6126 26.3787 97.6873 26.272C97.7726 26.1547 97.8153 26.0213 97.8153 25.872C97.8153 25.6053 97.7139 25.408 97.5113 25.28C97.3086 25.152 97.0526 25.0507 96.7433 24.976C96.4339 24.8907 96.0979 24.816 95.7353 24.752C95.3833 24.6773 95.0526 24.5653 94.7433 24.416C94.4339 24.256 94.1779 24.0373 93.9753 23.76C93.7726 23.4827 93.6713 23.0987 93.6713 22.608C93.6713 22.1813 93.7566 21.8133 93.9273 21.504C94.1086 21.184 94.3433 20.9227 94.6313 20.72C94.9193 20.5173 95.2499 20.368 95.6233 20.272C95.9966 20.176 96.3753 20.128 96.7593 20.128C97.2713 20.128 97.7779 20.2187 98.2793 20.4C98.7806 20.5707 99.1859 20.8693 99.4953 21.296L98.2153 22.448ZM105.067 21.952V20.32H106.651V18.096H108.571V20.32H110.683V21.952H108.571V25.312C108.571 25.696 108.64 26 108.779 26.224C108.928 26.448 109.216 26.56 109.643 26.56C109.814 26.56 110 26.544 110.203 26.512C110.406 26.4693 110.566 26.4053 110.683 26.32V27.936C110.48 28.032 110.23 28.096 109.931 28.128C109.643 28.1707 109.387 28.192 109.163 28.192C108.651 28.192 108.23 28.1333 107.899 28.016C107.579 27.9093 107.323 27.744 107.131 27.52C106.95 27.2853 106.822 26.9973 106.747 26.656C106.683 26.3147 106.651 25.92 106.651 25.472V21.952H105.067ZM112.182 20.32H114.102V21.536H114.134C114.347 21.088 114.651 20.7413 115.046 20.496C115.44 20.2507 115.894 20.128 116.406 20.128C116.523 20.128 116.635 20.1387 116.742 20.16C116.859 20.1813 116.976 20.208 117.094 20.24V22.096C116.934 22.0533 116.774 22.0213 116.614 22C116.464 21.968 116.315 21.952 116.166 21.952C115.718 21.952 115.355 22.0373 115.078 22.208C114.811 22.368 114.603 22.5547 114.454 22.768C114.315 22.9813 114.219 23.1947 114.166 23.408C114.123 23.6213 114.102 23.7813 114.102 23.888V28H112.182V20.32ZM123.201 26.944H123.153C122.875 27.3813 122.523 27.7013 122.097 27.904C121.67 28.096 121.201 28.192 120.689 28.192C120.337 28.192 119.99 28.144 119.649 28.048C119.318 27.952 119.019 27.808 118.753 27.616C118.497 27.424 118.289 27.184 118.129 26.896C117.969 26.608 117.889 26.272 117.889 25.888C117.889 25.472 117.963 25.12 118.113 24.832C118.262 24.5333 118.459 24.288 118.705 24.096C118.961 23.8933 119.254 23.7333 119.585 23.616C119.915 23.4987 120.257 23.4133 120.609 23.36C120.971 23.296 121.334 23.2587 121.697 23.248C122.059 23.2267 122.401 23.216 122.721 23.216H123.201V23.008C123.201 22.528 123.035 22.1707 122.705 21.936C122.374 21.6907 121.953 21.568 121.441 21.568C121.035 21.568 120.657 21.6427 120.305 21.792C119.953 21.9307 119.649 22.1227 119.393 22.368L118.385 21.36C118.811 20.9227 119.307 20.608 119.873 20.416C120.449 20.224 121.041 20.128 121.649 20.128C122.193 20.128 122.651 20.192 123.025 20.32C123.398 20.4373 123.707 20.592 123.953 20.784C124.198 20.976 124.385 21.2 124.513 21.456C124.651 21.7013 124.747 21.952 124.801 22.208C124.865 22.464 124.902 22.7147 124.913 22.96C124.923 23.1947 124.929 23.4027 124.929 23.584V28H123.201V26.944ZM123.089 24.56H122.689C122.422 24.56 122.123 24.5707 121.793 24.592C121.462 24.6133 121.147 24.6667 120.849 24.752C120.561 24.8267 120.315 24.944 120.113 25.104C119.91 25.2533 119.809 25.4667 119.809 25.744C119.809 25.9253 119.846 26.08 119.921 26.208C120.006 26.3253 120.113 26.4267 120.241 26.512C120.369 26.5973 120.513 26.6613 120.673 26.704C120.833 26.736 120.993 26.752 121.153 26.752C121.814 26.752 122.299 26.5973 122.609 26.288C122.929 25.968 123.089 25.536 123.089 24.992V24.56ZM127.682 21.952H126.098V20.32H127.682V19.232C127.682 18.6987 127.72 18.2187 127.794 17.792C127.869 17.3547 128.008 16.9813 128.21 16.672C128.424 16.3627 128.717 16.128 129.09 15.968C129.464 15.7973 129.949 15.712 130.546 15.712C130.984 15.712 131.389 15.7493 131.762 15.824L131.634 17.456C131.496 17.424 131.362 17.3973 131.234 17.376C131.106 17.3547 130.973 17.344 130.834 17.344C130.568 17.344 130.354 17.3867 130.194 17.472C130.034 17.5573 129.906 17.6747 129.81 17.824C129.725 17.9627 129.666 18.128 129.634 18.32C129.613 18.512 129.602 18.7147 129.602 18.928V20.32H131.378V21.952H129.602V28H127.682V21.952ZM132.626 20.32H134.546V28H132.626V20.32ZM132.37 17.712C132.37 17.4027 132.482 17.136 132.706 16.912C132.941 16.6773 133.234 16.56 133.586 16.56C133.938 16.56 134.232 16.672 134.466 16.896C134.712 17.1093 134.834 17.3813 134.834 17.712C134.834 18.0427 134.712 18.32 134.466 18.544C134.232 18.7573 133.938 18.864 133.586 18.864C133.234 18.864 132.941 18.752 132.706 18.528C132.482 18.2933 132.37 18.0213 132.37 17.712ZM141.727 22.624C141.503 22.3893 141.268 22.2027 141.023 22.064C140.777 21.9253 140.527 21.856 140.271 21.856C139.919 21.856 139.604 21.92 139.327 22.048C139.049 22.176 138.809 22.3467 138.607 22.56C138.415 22.7733 138.265 23.0187 138.159 23.296C138.063 23.5733 138.015 23.8613 138.015 24.16C138.015 24.4587 138.063 24.7467 138.159 25.024C138.265 25.3013 138.415 25.5467 138.607 25.76C138.809 25.9733 139.049 26.144 139.327 26.272C139.604 26.4 139.919 26.464 140.271 26.464C140.569 26.464 140.847 26.4053 141.103 26.288C141.359 26.16 141.577 25.9787 141.759 25.744L143.039 27.12C142.847 27.312 142.623 27.4773 142.367 27.616C142.121 27.7547 141.871 27.8667 141.615 27.952C141.359 28.0373 141.113 28.096 140.879 28.128C140.644 28.1707 140.441 28.192 140.271 28.192C139.695 28.192 139.151 28.096 138.639 27.904C138.127 27.712 137.684 27.44 137.311 27.088C136.937 26.736 136.639 26.3147 136.415 25.824C136.201 25.3227 136.095 24.768 136.095 24.16C136.095 23.552 136.201 23.0027 136.415 22.512C136.639 22.0107 136.937 21.584 137.311 21.232C137.684 20.88 138.127 20.608 138.639 20.416C139.151 20.224 139.695 20.128 140.271 20.128C140.761 20.128 141.252 20.224 141.743 20.416C142.244 20.5973 142.681 20.8907 143.055 21.296L141.727 22.624ZM150.468 24.832C150.532 25.408 150.756 25.856 151.14 26.176C151.524 26.496 151.988 26.656 152.532 26.656C153.012 26.656 153.412 26.56 153.732 26.368C154.062 26.1653 154.35 25.9147 154.596 25.616L155.972 26.656C155.524 27.2107 155.022 27.6053 154.468 27.84C153.913 28.0747 153.332 28.192 152.724 28.192C152.148 28.192 151.604 28.096 151.092 27.904C150.58 27.712 150.137 27.44 149.764 27.088C149.39 26.736 149.092 26.3147 148.868 25.824C148.654 25.3227 148.548 24.768 148.548 24.16C148.548 23.552 148.654 23.0027 148.868 22.512C149.092 22.0107 149.39 21.584 149.764 21.232C150.137 20.88 150.58 20.608 151.092 20.416C151.604 20.224 152.148 20.128 152.724 20.128C153.257 20.128 153.742 20.224 154.18 20.416C154.628 20.5973 155.006 20.864 155.316 21.216C155.636 21.568 155.881 22.0053 156.052 22.528C156.233 23.04 156.324 23.632 156.324 24.304V24.832H150.468ZM154.404 23.392C154.393 22.8267 154.217 22.384 153.876 22.064C153.534 21.7333 153.06 21.568 152.452 21.568C151.876 21.568 151.417 21.7333 151.076 22.064C150.745 22.3947 150.542 22.8373 150.468 23.392H154.404ZM157.223 21.952V20.32H158.807V18.096H160.727V20.32H162.839V21.952H160.727V25.312C160.727 25.696 160.797 26 160.935 26.224C161.085 26.448 161.373 26.56 161.799 26.56C161.97 26.56 162.157 26.544 162.359 26.512C162.562 26.4693 162.722 26.4053 162.839 26.32V27.936C162.637 28.032 162.386 28.096 162.087 28.128C161.799 28.1707 161.543 28.192 161.319 28.192C160.807 28.192 160.386 28.1333 160.055 28.016C159.735 27.9093 159.479 27.744 159.287 27.52C159.106 27.2853 158.978 26.9973 158.903 26.656C158.839 26.3147 158.807 25.92 158.807 25.472V21.952H157.223ZM169.072 20.32H170.992V21.536H171.024C171.238 21.088 171.542 20.7413 171.936 20.496C172.331 20.2507 172.784 20.128 173.296 20.128C173.414 20.128 173.526 20.1387 173.632 20.16C173.75 20.1813 173.867 20.208 173.984 20.24V22.096C173.824 22.0533 173.664 22.0213 173.504 22C173.355 21.968 173.206 21.952 173.056 21.952C172.608 21.952 172.246 22.0373 171.968 22.208C171.702 22.368 171.494 22.5547 171.344 22.768C171.206 22.9813 171.11 23.1947 171.056 23.408C171.014 23.6213 170.992 23.7813 170.992 23.888V28H169.072V20.32ZM176.546 24.832C176.61 25.408 176.834 25.856 177.218 26.176C177.602 26.496 178.066 26.656 178.61 26.656C179.09 26.656 179.49 26.56 179.81 26.368C180.141 26.1653 180.429 25.9147 180.674 25.616L182.05 26.656C181.602 27.2107 181.101 27.6053 180.546 27.84C179.991 28.0747 179.41 28.192 178.802 28.192C178.226 28.192 177.682 28.096 177.17 27.904C176.658 27.712 176.215 27.44 175.842 27.088C175.469 26.736 175.17 26.3147 174.946 25.824C174.733 25.3227 174.626 24.768 174.626 24.16C174.626 23.552 174.733 23.0027 174.946 22.512C175.17 22.0107 175.469 21.584 175.842 21.232C176.215 20.88 176.658 20.608 177.17 20.416C177.682 20.224 178.226 20.128 178.802 20.128C179.335 20.128 179.821 20.224 180.258 20.416C180.706 20.5973 181.085 20.864 181.394 21.216C181.714 21.568 181.959 22.0053 182.13 22.528C182.311 23.04 182.402 23.632 182.402 24.304V24.832H176.546ZM180.482 23.392C180.471 22.8267 180.295 22.384 179.954 22.064C179.613 21.7333 179.138 21.568 178.53 21.568C177.954 21.568 177.495 21.7333 177.154 22.064C176.823 22.3947 176.621 22.8373 176.546 23.392H180.482ZM179.346 16.672H181.522L179.266 18.976H177.762L179.346 16.672ZM188.293 22.448C187.92 21.9253 187.419 21.664 186.789 21.664C186.533 21.664 186.283 21.728 186.037 21.856C185.792 21.984 185.669 22.192 185.669 22.48C185.669 22.7147 185.771 22.8853 185.973 22.992C186.176 23.0987 186.432 23.1893 186.741 23.264C187.051 23.3387 187.381 23.4187 187.733 23.504C188.096 23.5787 188.432 23.7013 188.741 23.872C189.051 24.032 189.307 24.256 189.509 24.544C189.712 24.832 189.813 25.2267 189.813 25.728C189.813 26.1867 189.712 26.576 189.509 26.896C189.317 27.2053 189.061 27.456 188.741 27.648C188.432 27.84 188.08 27.9787 187.685 28.064C187.291 28.1493 186.896 28.192 186.501 28.192C185.904 28.192 185.355 28.1067 184.853 27.936C184.352 27.7653 183.904 27.456 183.509 27.008L184.789 25.808C185.035 26.0853 185.296 26.3147 185.573 26.496C185.861 26.6667 186.208 26.752 186.613 26.752C186.752 26.752 186.896 26.736 187.045 26.704C187.195 26.672 187.333 26.6187 187.461 26.544C187.589 26.4693 187.691 26.3787 187.765 26.272C187.851 26.1547 187.893 26.0213 187.893 25.872C187.893 25.6053 187.792 25.408 187.589 25.28C187.387 25.152 187.131 25.0507 186.821 24.976C186.512 24.8907 186.176 24.816 185.813 24.752C185.461 24.6773 185.131 24.5653 184.821 24.416C184.512 24.256 184.256 24.0373 184.053 23.76C183.851 23.4827 183.749 23.0987 183.749 22.608C183.749 22.1813 183.835 21.8133 184.005 21.504C184.187 21.184 184.421 20.9227 184.709 20.72C184.997 20.5173 185.328 20.368 185.701 20.272C186.075 20.176 186.453 20.128 186.837 20.128C187.349 20.128 187.856 20.2187 188.357 20.4C188.859 20.5707 189.264 20.8693 189.573 21.296L188.293 22.448ZM192.843 24.832C192.907 25.408 193.131 25.856 193.515 26.176C193.899 26.496 194.363 26.656 194.907 26.656C195.387 26.656 195.787 26.56 196.107 26.368C196.437 26.1653 196.725 25.9147 196.971 25.616L198.347 26.656C197.899 27.2107 197.397 27.6053 196.843 27.84C196.288 28.0747 195.707 28.192 195.099 28.192C194.523 28.192 193.979 28.096 193.467 27.904C192.955 27.712 192.512 27.44 192.139 27.088C191.765 26.736 191.467 26.3147 191.243 25.824C191.029 25.3227 190.923 24.768 190.923 24.16C190.923 23.552 191.029 23.0027 191.243 22.512C191.467 22.0107 191.765 21.584 192.139 21.232C192.512 20.88 192.955 20.608 193.467 20.416C193.979 20.224 194.523 20.128 195.099 20.128C195.632 20.128 196.117 20.224 196.555 20.416C197.003 20.5973 197.381 20.864 197.691 21.216C198.011 21.568 198.256 22.0053 198.427 22.528C198.608 23.04 198.699 23.632 198.699 24.304V24.832H192.843ZM196.779 23.392C196.768 22.8267 196.592 22.384 196.251 22.064C195.909 21.7333 195.435 21.568 194.827 21.568C194.251 21.568 193.792 21.7333 193.451 22.064C193.12 22.3947 192.917 22.8373 192.843 23.392H196.779ZM205.294 26.944H205.246C204.969 27.3813 204.617 27.7013 204.19 27.904C203.764 28.096 203.294 28.192 202.782 28.192C202.43 28.192 202.084 28.144 201.742 28.048C201.412 27.952 201.113 27.808 200.846 27.616C200.59 27.424 200.382 27.184 200.222 26.896C200.062 26.608 199.982 26.272 199.982 25.888C199.982 25.472 200.057 25.12 200.206 24.832C200.356 24.5333 200.553 24.288 200.798 24.096C201.054 23.8933 201.348 23.7333 201.678 23.616C202.009 23.4987 202.35 23.4133 202.702 23.36C203.065 23.296 203.428 23.2587 203.79 23.248C204.153 23.2267 204.494 23.216 204.814 23.216H205.294V23.008C205.294 22.528 205.129 22.1707 204.798 21.936C204.468 21.6907 204.046 21.568 203.534 21.568C203.129 21.568 202.75 21.6427 202.398 21.792C202.046 21.9307 201.742 22.1227 201.486 22.368L200.478 21.36C200.905 20.9227 201.401 20.608 201.966 20.416C202.542 20.224 203.134 20.128 203.742 20.128C204.286 20.128 204.745 20.192 205.118 20.32C205.492 20.4373 205.801 20.592 206.046 20.784C206.292 20.976 206.478 21.2 206.606 21.456C206.745 21.7013 206.841 21.952 206.894 22.208C206.958 22.464 206.996 22.7147 207.006 22.96C207.017 23.1947 207.022 23.4027 207.022 23.584V28H205.294V26.944ZM205.182 24.56H204.782C204.516 24.56 204.217 24.5707 203.886 24.592C203.556 24.6133 203.241 24.6667 202.942 24.752C202.654 24.8267 202.409 24.944 202.206 25.104C202.004 25.2533 201.902 25.4667 201.902 25.744C201.902 25.9253 201.94 26.08 202.014 26.208C202.1 26.3253 202.206 26.4267 202.334 26.512C202.462 26.5973 202.606 26.6613 202.766 26.704C202.926 26.736 203.086 26.752 203.246 26.752C203.908 26.752 204.393 26.5973 204.702 26.288C205.022 25.968 205.182 25.536 205.182 24.992V24.56ZM216.096 28H214.272V26.768H214.24C214.059 27.152 213.781 27.488 213.408 27.776C213.035 28.0533 212.528 28.192 211.888 28.192C211.376 28.192 210.939 28.112 210.576 27.952C210.224 27.7813 209.936 27.5573 209.712 27.28C209.488 26.992 209.328 26.6667 209.232 26.304C209.136 25.9413 209.088 25.5627 209.088 25.168V20.32H211.008V24.208C211.008 24.4213 211.019 24.6613 211.04 24.928C211.061 25.184 211.115 25.4293 211.2 25.664C211.296 25.888 211.435 26.08 211.616 26.24C211.808 26.3893 212.075 26.464 212.416 26.464C212.736 26.464 213.003 26.4107 213.216 26.304C213.44 26.1973 213.621 26.0533 213.76 25.872C213.909 25.6907 214.016 25.4827 214.08 25.248C214.144 25.0133 214.176 24.768 214.176 24.512V20.32H216.096V28ZM220.26 23.872L217.604 20.32H219.94L221.476 22.624L223.14 20.32H225.332L222.708 23.872L225.796 28H223.46L221.46 25.248L219.444 28H217.171L220.26 23.872Z" fill="#F3F3F4"/>
<path d="M65.183 37.796H68.42C69.0093 37.796 69.4947 37.8783 69.876 38.043C70.2573 38.199 70.5563 38.4027 70.773 38.654C70.9983 38.8967 71.1543 39.174 71.241 39.486C71.3277 39.7893 71.371 40.084 71.371 40.37C71.371 40.656 71.3277 40.955 71.241 41.267C71.1543 41.5703 70.9983 41.8477 70.773 42.099C70.5563 42.3417 70.2573 42.5453 69.876 42.71C69.4947 42.866 69.0093 42.944 68.42 42.944H66.431V47H65.183V37.796ZM66.431 41.852H68.069C68.3117 41.852 68.55 41.8347 68.784 41.8C69.0267 41.7567 69.239 41.683 69.421 41.579C69.6117 41.475 69.7633 41.3277 69.876 41.137C69.9887 40.9377 70.045 40.682 70.045 40.37C70.045 40.058 69.9887 39.8067 69.876 39.616C69.7633 39.4167 69.6117 39.265 69.421 39.161C69.239 39.057 69.0267 38.9877 68.784 38.953C68.55 38.9097 68.3117 38.888 68.069 38.888H66.431V41.852ZM73.4741 44.348C73.4741 44.6167 73.5304 44.8637 73.6431 45.089C73.7644 45.3057 73.9204 45.492 74.1111 45.648C74.3017 45.804 74.5227 45.9253 74.7741 46.012C75.0254 46.0987 75.2854 46.142 75.5541 46.142C75.9181 46.142 76.2344 46.0597 76.5031 45.895C76.7717 45.7217 77.0187 45.4963 77.2441 45.219L78.1281 45.895C77.4781 46.7357 76.5681 47.156 75.3981 47.156C74.9127 47.156 74.4707 47.0737 74.0721 46.909C73.6821 46.7443 73.3484 46.519 73.0711 46.233C72.8024 45.9383 72.5944 45.596 72.4471 45.206C72.2997 44.8073 72.2261 44.3783 72.2261 43.919C72.2261 43.4597 72.3041 43.035 72.4601 42.645C72.6247 42.2463 72.8457 41.904 73.1231 41.618C73.4091 41.3233 73.7471 41.0937 74.1371 40.929C74.5271 40.7643 74.9517 40.682 75.4111 40.682C75.9571 40.682 76.4164 40.7773 76.7891 40.968C77.1704 41.1587 77.4824 41.41 77.7251 41.722C77.9677 42.0253 78.1411 42.372 78.2451 42.762C78.3577 43.1433 78.4141 43.5333 78.4141 43.932V44.348H73.4741ZM77.1661 43.412C77.1574 43.152 77.1141 42.9137 77.0361 42.697C76.9667 42.4803 76.8584 42.294 76.7111 42.138C76.5637 41.9733 76.3774 41.8477 76.1521 41.761C75.9354 41.6657 75.6797 41.618 75.3851 41.618C75.0991 41.618 74.8347 41.6743 74.5921 41.787C74.3581 41.891 74.1587 42.0297 73.9941 42.203C73.8294 42.3763 73.6994 42.5713 73.6041 42.788C73.5174 42.996 73.4741 43.204 73.4741 43.412H77.1661ZM79.8137 40.838H80.9837V41.787H81.0097C81.0877 41.6223 81.1917 41.475 81.3217 41.345C81.4517 41.2063 81.5947 41.0893 81.7507 40.994C81.9154 40.8987 82.093 40.825 82.2837 40.773C82.4744 40.7123 82.665 40.682 82.8557 40.682C83.0464 40.682 83.2197 40.708 83.3757 40.76L83.3237 42.021C83.2284 41.995 83.133 41.9733 83.0377 41.956C82.9424 41.9387 82.847 41.93 82.7517 41.93C82.1797 41.93 81.742 42.0903 81.4387 42.411C81.1354 42.7317 80.9837 43.23 80.9837 43.906V47H79.8137V40.838ZM87.9272 41.852H86.2502V44.647C86.2502 44.8203 86.2545 44.9937 86.2632 45.167C86.2719 45.3317 86.3022 45.4833 86.3542 45.622C86.4149 45.752 86.5015 45.8603 86.6142 45.947C86.7355 46.025 86.9089 46.064 87.1342 46.064C87.2729 46.064 87.4159 46.051 87.5632 46.025C87.7105 45.999 87.8449 45.9513 87.9662 45.882V46.948C87.8275 47.026 87.6455 47.078 87.4202 47.104C87.2035 47.1387 87.0345 47.156 86.9132 47.156C86.4625 47.156 86.1115 47.0953 85.8602 46.974C85.6175 46.844 85.4355 46.6793 85.3142 46.48C85.2015 46.2807 85.1322 46.0597 85.1062 45.817C85.0889 45.5657 85.0802 45.3143 85.0802 45.063V41.852H83.7282V40.838H85.0802V39.109H86.2502V40.838H87.9272V41.852ZM94.8967 47H93.7267V46.051H93.7007C93.5534 46.3803 93.2977 46.649 92.9337 46.857C92.5697 47.0563 92.1494 47.156 91.6727 47.156C91.3694 47.156 91.0834 47.1083 90.8147 47.013C90.5461 46.9263 90.3077 46.7877 90.0997 46.597C89.9004 46.4063 89.7401 46.1637 89.6187 45.869C89.4974 45.5657 89.4367 45.2103 89.4367 44.803V40.838H90.6067V44.478C90.6067 44.764 90.6457 45.011 90.7237 45.219C90.8017 45.4183 90.9057 45.583 91.0357 45.713C91.1657 45.8343 91.3131 45.9253 91.4777 45.986C91.6511 46.038 91.8287 46.064 92.0107 46.064C92.2534 46.064 92.4787 46.025 92.6867 45.947C92.8947 45.869 93.0767 45.7477 93.2327 45.583C93.3887 45.4097 93.5101 45.193 93.5967 44.933C93.6834 44.673 93.7267 44.3653 93.7267 44.01V40.838H94.8967V47ZM96.6604 40.838H97.8304V41.787H97.8564C97.9344 41.6223 98.0384 41.475 98.1684 41.345C98.2984 41.2063 98.4414 41.0893 98.5974 40.994C98.762 40.8987 98.9397 40.825 99.1304 40.773C99.321 40.7123 99.5117 40.682 99.7024 40.682C99.893 40.682 100.066 40.708 100.222 40.76L100.17 42.021C100.075 41.995 99.9797 41.9733 99.8844 41.956C99.789 41.9387 99.6937 41.93 99.5984 41.93C99.0264 41.93 98.5887 42.0903 98.2854 42.411C97.982 42.7317 97.8304 43.23 97.8304 43.906V47H96.6604V40.838ZM101.472 37.172H102.642V41.722H102.668C102.876 41.4013 103.175 41.15 103.565 40.968C103.955 40.7773 104.371 40.682 104.813 40.682C105.29 40.682 105.719 40.7643 106.1 40.929C106.49 41.0937 106.819 41.3233 107.088 41.618C107.365 41.904 107.578 42.2463 107.725 42.645C107.872 43.035 107.946 43.4597 107.946 43.919C107.946 44.3783 107.872 44.803 107.725 45.193C107.578 45.583 107.365 45.9253 107.088 46.22C106.819 46.5147 106.49 46.7443 106.1 46.909C105.719 47.0737 105.29 47.156 104.813 47.156C104.397 47.156 103.99 47.065 103.591 46.883C103.201 46.701 102.893 46.4453 102.668 46.116H102.642V47H101.472V37.172ZM104.67 46.064C104.982 46.064 105.264 46.012 105.515 45.908C105.766 45.7953 105.979 45.648 106.152 45.466C106.325 45.2753 106.46 45.05 106.555 44.79C106.65 44.5213 106.698 44.231 106.698 43.919C106.698 43.607 106.65 43.321 106.555 43.061C106.46 42.7923 106.325 42.567 106.152 42.385C105.979 42.1943 105.766 42.047 105.515 41.943C105.264 41.8303 104.982 41.774 104.67 41.774C104.358 41.774 104.076 41.8303 103.825 41.943C103.574 42.047 103.361 42.1943 103.188 42.385C103.015 42.567 102.88 42.7923 102.785 43.061C102.69 43.321 102.642 43.607 102.642 43.919C102.642 44.231 102.69 44.5213 102.785 44.79C102.88 45.05 103.015 45.2753 103.188 45.466C103.361 45.648 103.574 45.7953 103.825 45.908C104.076 46.012 104.358 46.064 104.67 46.064ZM109.445 41.592C109.774 41.2887 110.156 41.0633 110.589 40.916C111.022 40.76 111.456 40.682 111.889 40.682C112.34 40.682 112.725 40.7383 113.046 40.851C113.375 40.9637 113.644 41.1153 113.852 41.306C114.06 41.4967 114.212 41.7177 114.307 41.969C114.411 42.2117 114.463 42.4673 114.463 42.736V45.882C114.463 46.0987 114.467 46.298 114.476 46.48C114.485 46.662 114.498 46.8353 114.515 47H113.475C113.449 46.688 113.436 46.376 113.436 46.064H113.41C113.15 46.4627 112.842 46.7443 112.487 46.909C112.132 47.0737 111.72 47.156 111.252 47.156C110.966 47.156 110.693 47.117 110.433 47.039C110.173 46.961 109.943 46.844 109.744 46.688C109.553 46.532 109.402 46.3413 109.289 46.116C109.176 45.882 109.12 45.6133 109.12 45.31C109.12 44.9113 109.207 44.5777 109.38 44.309C109.562 44.0403 109.805 43.8237 110.108 43.659C110.42 43.4857 110.78 43.3643 111.187 43.295C111.603 43.217 112.045 43.178 112.513 43.178H113.371V42.918C113.371 42.762 113.341 42.606 113.28 42.45C113.219 42.294 113.128 42.1553 113.007 42.034C112.886 41.904 112.734 41.8043 112.552 41.735C112.37 41.657 112.153 41.618 111.902 41.618C111.677 41.618 111.477 41.6397 111.304 41.683C111.139 41.7263 110.988 41.7827 110.849 41.852C110.71 41.9127 110.585 41.9863 110.472 42.073C110.359 42.1597 110.251 42.242 110.147 42.32L109.445 41.592ZM112.747 44.036C112.47 44.036 112.184 44.0533 111.889 44.088C111.603 44.114 111.339 44.1703 111.096 44.257C110.862 44.3437 110.667 44.465 110.511 44.621C110.364 44.777 110.29 44.9763 110.29 45.219C110.29 45.5743 110.407 45.83 110.641 45.986C110.884 46.142 111.209 46.22 111.616 46.22C111.937 46.22 112.21 46.168 112.435 46.064C112.66 45.9513 112.842 45.8083 112.981 45.635C113.12 45.4617 113.219 45.271 113.28 45.063C113.341 44.8463 113.371 44.634 113.371 44.426V44.036H112.747ZM119.462 41.852H117.785V44.647C117.785 44.8203 117.79 44.9937 117.798 45.167C117.807 45.3317 117.837 45.4833 117.889 45.622C117.95 45.752 118.037 45.8603 118.149 45.947C118.271 46.025 118.444 46.064 118.669 46.064C118.808 46.064 118.951 46.051 119.098 46.025C119.246 45.999 119.38 45.9513 119.501 45.882V46.948C119.363 47.026 119.181 47.078 118.955 47.104C118.739 47.1387 118.57 47.156 118.448 47.156C117.998 47.156 117.647 47.0953 117.395 46.974C117.153 46.844 116.971 46.6793 116.849 46.48C116.737 46.2807 116.667 46.0597 116.641 45.817C116.624 45.5657 116.615 45.3143 116.615 45.063V41.852H115.263V40.838H116.615V39.109H117.785V40.838H119.462V41.852ZM121.063 40.838H122.233V47H121.063V40.838ZM120.79 38.628C120.79 38.394 120.872 38.1947 121.037 38.03C121.21 37.8567 121.414 37.77 121.648 37.77C121.882 37.77 122.081 37.8567 122.246 38.03C122.419 38.1947 122.506 38.394 122.506 38.628C122.506 38.862 122.419 39.0657 122.246 39.239C122.081 39.4037 121.882 39.486 121.648 39.486C121.414 39.486 121.21 39.4037 121.037 39.239C120.872 39.0657 120.79 38.862 120.79 38.628ZM125.044 43.919C125.044 44.231 125.092 44.5213 125.187 44.79C125.282 45.05 125.417 45.2753 125.59 45.466C125.763 45.648 125.976 45.7953 126.227 45.908C126.478 46.012 126.76 46.064 127.072 46.064C127.384 46.064 127.666 46.012 127.917 45.908C128.168 45.7953 128.381 45.648 128.554 45.466C128.727 45.2753 128.862 45.05 128.957 44.79C129.052 44.5213 129.1 44.231 129.1 43.919C129.1 43.607 129.052 43.321 128.957 43.061C128.862 42.7923 128.727 42.567 128.554 42.385C128.381 42.1943 128.168 42.047 127.917 41.943C127.666 41.8303 127.384 41.774 127.072 41.774C126.76 41.774 126.478 41.8303 126.227 41.943C125.976 42.047 125.763 42.1943 125.59 42.385C125.417 42.567 125.282 42.7923 125.187 43.061C125.092 43.321 125.044 43.607 125.044 43.919ZM123.796 43.919C123.796 43.4683 123.878 43.048 124.043 42.658C124.216 42.268 124.45 41.9257 124.745 41.631C125.04 41.3363 125.386 41.1067 125.785 40.942C126.184 40.7687 126.613 40.682 127.072 40.682C127.531 40.682 127.96 40.7687 128.359 40.942C128.758 41.1067 129.104 41.3363 129.399 41.631C129.694 41.9257 129.923 42.268 130.088 42.658C130.261 43.048 130.348 43.4683 130.348 43.919C130.348 44.3697 130.261 44.7943 130.088 45.193C129.923 45.583 129.694 45.9253 129.399 46.22C129.104 46.506 128.758 46.7357 128.359 46.909C127.96 47.0737 127.531 47.156 127.072 47.156C126.613 47.156 126.184 47.0737 125.785 46.909C125.386 46.7357 125.04 46.506 124.745 46.22C124.45 45.9253 124.216 45.583 124.043 45.193C123.878 44.7943 123.796 44.3697 123.796 43.919ZM131.814 40.838H132.984V41.787H133.01C133.157 41.4577 133.413 41.1933 133.777 40.994C134.141 40.786 134.561 40.682 135.038 40.682C135.332 40.682 135.614 40.7297 135.883 40.825C136.16 40.9117 136.398 41.0503 136.598 41.241C136.806 41.4317 136.97 41.6787 137.092 41.982C137.213 42.2767 137.274 42.6277 137.274 43.035V47H136.104V43.36C136.104 43.074 136.065 42.8313 135.987 42.632C135.909 42.424 135.805 42.2593 135.675 42.138C135.545 42.008 135.393 41.917 135.22 41.865C135.055 41.8043 134.882 41.774 134.7 41.774C134.457 41.774 134.232 41.813 134.024 41.891C133.816 41.969 133.634 42.0947 133.478 42.268C133.322 42.4327 133.2 42.645 133.114 42.905C133.027 43.165 132.984 43.4727 132.984 43.828V47H131.814V40.838ZM142.313 42.385C142.175 42.2117 142.001 42.0687 141.793 41.956C141.594 41.8347 141.347 41.774 141.052 41.774C140.775 41.774 140.532 41.8347 140.324 41.956C140.125 42.0687 140.025 42.2377 140.025 42.463C140.025 42.645 140.082 42.7923 140.194 42.905C140.316 43.0177 140.454 43.1087 140.61 43.178C140.775 43.2473 140.948 43.2993 141.13 43.334C141.312 43.3687 141.468 43.399 141.598 43.425C141.85 43.4857 142.084 43.5593 142.3 43.646C142.526 43.7327 142.716 43.8453 142.872 43.984C143.037 44.1227 143.163 44.2917 143.249 44.491C143.345 44.6903 143.392 44.933 143.392 45.219C143.392 45.5657 143.319 45.8647 143.171 46.116C143.024 46.3587 142.833 46.558 142.599 46.714C142.365 46.87 142.097 46.9827 141.793 47.052C141.499 47.1213 141.2 47.156 140.896 47.156C140.385 47.156 139.934 47.078 139.544 46.922C139.163 46.766 138.821 46.48 138.517 46.064L139.401 45.336C139.592 45.5267 139.804 45.6957 140.038 45.843C140.272 45.9903 140.558 46.064 140.896 46.064C141.044 46.064 141.191 46.051 141.338 46.025C141.494 45.9903 141.629 45.9427 141.741 45.882C141.863 45.8127 141.958 45.7303 142.027 45.635C142.105 45.531 142.144 45.414 142.144 45.284C142.144 45.1107 142.088 44.9677 141.975 44.855C141.871 44.7423 141.741 44.6557 141.585 44.595C141.438 44.5257 141.278 44.4737 141.104 44.439C140.94 44.3957 140.792 44.361 140.662 44.335C140.411 44.2743 140.173 44.205 139.947 44.127C139.722 44.049 139.523 43.945 139.349 43.815C139.176 43.685 139.037 43.5203 138.933 43.321C138.829 43.1217 138.777 42.8747 138.777 42.58C138.777 42.2593 138.842 41.982 138.972 41.748C139.111 41.5053 139.289 41.306 139.505 41.15C139.731 40.994 139.982 40.877 140.259 40.799C140.545 40.721 140.831 40.682 141.117 40.682C141.533 40.682 141.932 40.76 142.313 40.916C142.695 41.072 142.998 41.332 143.223 41.696L142.313 42.385ZM145.62 48.716H144.554L145.451 45.518H146.712L145.62 48.716ZM155.352 41.852H153.675V44.647C153.675 44.8203 153.679 44.9937 153.688 45.167C153.697 45.3317 153.727 45.4833 153.779 45.622C153.84 45.752 153.926 45.8603 154.039 45.947C154.16 46.025 154.334 46.064 154.559 46.064C154.698 46.064 154.841 46.051 154.988 46.025C155.135 45.999 155.27 45.9513 155.391 45.882V46.948C155.252 47.026 155.07 47.078 154.845 47.104C154.628 47.1387 154.459 47.156 154.338 47.156C153.887 47.156 153.536 47.0953 153.285 46.974C153.042 46.844 152.86 46.6793 152.739 46.48C152.626 46.2807 152.557 46.0597 152.531 45.817C152.514 45.5657 152.505 45.3143 152.505 45.063V41.852H151.153V40.838H152.505V39.109H153.675V40.838H155.352V41.852ZM156.862 40.838H158.032V41.787H158.058C158.136 41.6223 158.24 41.475 158.37 41.345C158.5 41.2063 158.643 41.0893 158.799 40.994C158.963 40.8987 159.141 40.825 159.332 40.773C159.522 40.7123 159.713 40.682 159.904 40.682C160.094 40.682 160.268 40.708 160.424 40.76L160.372 42.021C160.276 41.995 160.181 41.9733 160.086 41.956C159.99 41.9387 159.895 41.93 159.8 41.93C159.228 41.93 158.79 42.0903 158.487 42.411C158.183 42.7317 158.032 43.23 158.032 43.906V47H156.862V40.838ZM161.699 41.592C162.028 41.2887 162.41 41.0633 162.843 40.916C163.276 40.76 163.71 40.682 164.143 40.682C164.594 40.682 164.979 40.7383 165.3 40.851C165.629 40.9637 165.898 41.1153 166.106 41.306C166.314 41.4967 166.466 41.7177 166.561 41.969C166.665 42.2117 166.717 42.4673 166.717 42.736V45.882C166.717 46.0987 166.721 46.298 166.73 46.48C166.739 46.662 166.752 46.8353 166.769 47H165.729C165.703 46.688 165.69 46.376 165.69 46.064H165.664C165.404 46.4627 165.096 46.7443 164.741 46.909C164.386 47.0737 163.974 47.156 163.506 47.156C163.22 47.156 162.947 47.117 162.687 47.039C162.427 46.961 162.197 46.844 161.998 46.688C161.807 46.532 161.656 46.3413 161.543 46.116C161.43 45.882 161.374 45.6133 161.374 45.31C161.374 44.9113 161.461 44.5777 161.634 44.309C161.816 44.0403 162.059 43.8237 162.362 43.659C162.674 43.4857 163.034 43.3643 163.441 43.295C163.857 43.217 164.299 43.178 164.767 43.178H165.625V42.918C165.625 42.762 165.595 42.606 165.534 42.45C165.473 42.294 165.382 42.1553 165.261 42.034C165.14 41.904 164.988 41.8043 164.806 41.735C164.624 41.657 164.407 41.618 164.156 41.618C163.931 41.618 163.731 41.6397 163.558 41.683C163.393 41.7263 163.242 41.7827 163.103 41.852C162.964 41.9127 162.839 41.9863 162.726 42.073C162.613 42.1597 162.505 42.242 162.401 42.32L161.699 41.592ZM165.001 44.036C164.724 44.036 164.438 44.0533 164.143 44.088C163.857 44.114 163.593 44.1703 163.35 44.257C163.116 44.3437 162.921 44.465 162.765 44.621C162.618 44.777 162.544 44.9763 162.544 45.219C162.544 45.5743 162.661 45.83 162.895 45.986C163.138 46.142 163.463 46.22 163.87 46.22C164.191 46.22 164.464 46.168 164.689 46.064C164.914 45.9513 165.096 45.8083 165.235 45.635C165.374 45.4617 165.473 45.271 165.534 45.063C165.595 44.8463 165.625 44.634 165.625 44.426V44.036H165.001ZM167.673 40.838H169.025L170.871 45.557L172.639 40.838H173.887L171.469 47H170.182L167.673 40.838ZM174.94 41.592C175.27 41.2887 175.651 41.0633 176.084 40.916C176.518 40.76 176.951 40.682 177.384 40.682C177.835 40.682 178.221 40.7383 178.541 40.851C178.871 40.9637 179.139 41.1153 179.347 41.306C179.555 41.4967 179.707 41.7177 179.802 41.969C179.906 42.2117 179.958 42.4673 179.958 42.736V45.882C179.958 46.0987 179.963 46.298 179.971 46.48C179.98 46.662 179.993 46.8353 180.01 47H178.97C178.944 46.688 178.931 46.376 178.931 46.064H178.905C178.645 46.4627 178.338 46.7443 177.982 46.909C177.627 47.0737 177.215 47.156 176.747 47.156C176.461 47.156 176.188 47.117 175.928 47.039C175.668 46.961 175.439 46.844 175.239 46.688C175.049 46.532 174.897 46.3413 174.784 46.116C174.672 45.882 174.615 45.6133 174.615 45.31C174.615 44.9113 174.702 44.5777 174.875 44.309C175.057 44.0403 175.3 43.8237 175.603 43.659C175.915 43.4857 176.275 43.3643 176.682 43.295C177.098 43.217 177.54 43.178 178.008 43.178H178.866V42.918C178.866 42.762 178.836 42.606 178.775 42.45C178.715 42.294 178.624 42.1553 178.502 42.034C178.381 41.904 178.229 41.8043 178.047 41.735C177.865 41.657 177.649 41.618 177.397 41.618C177.172 41.618 176.973 41.6397 176.799 41.683C176.635 41.7263 176.483 41.7827 176.344 41.852C176.206 41.9127 176.08 41.9863 175.967 42.073C175.855 42.1597 175.746 42.242 175.642 42.32L174.94 41.592ZM178.242 44.036C177.965 44.036 177.679 44.0533 177.384 44.088C177.098 44.114 176.834 44.1703 176.591 44.257C176.357 44.3437 176.162 44.465 176.006 44.621C175.859 44.777 175.785 44.9763 175.785 45.219C175.785 45.5743 175.902 45.83 176.136 45.986C176.379 46.142 176.704 46.22 177.111 46.22C177.432 46.22 177.705 46.168 177.93 46.064C178.156 45.9513 178.338 45.8083 178.476 45.635C178.615 45.4617 178.715 45.271 178.775 45.063C178.836 44.8463 178.866 44.634 178.866 44.426V44.036H178.242ZM187.115 47H185.945V46.051H185.919C185.772 46.3803 185.516 46.649 185.152 46.857C184.788 47.0563 184.368 47.156 183.891 47.156C183.588 47.156 183.302 47.1083 183.033 47.013C182.765 46.9263 182.526 46.7877 182.318 46.597C182.119 46.4063 181.959 46.1637 181.837 45.869C181.716 45.5657 181.655 45.2103 181.655 44.803V40.838H182.825V44.478C182.825 44.764 182.864 45.011 182.942 45.219C183.02 45.4183 183.124 45.583 183.254 45.713C183.384 45.8343 183.532 45.9253 183.696 45.986C183.87 46.038 184.047 46.064 184.229 46.064C184.472 46.064 184.697 46.025 184.905 45.947C185.113 45.869 185.295 45.7477 185.451 45.583C185.607 45.4097 185.729 45.193 185.815 44.933C185.902 44.673 185.945 44.3653 185.945 44.01V40.838H187.115V47ZM190.569 43.711L188.385 40.838H189.893L191.388 43.022L192.857 40.838H194.274L192.168 43.711L194.664 47H193.156L191.336 44.413L189.516 47H188.073L190.569 43.711ZM196.426 48.716H195.36L196.257 45.518H197.518L196.426 48.716ZM202.857 40.838H204.027V41.722H204.053C204.278 41.3927 204.586 41.137 204.976 40.955C205.374 40.773 205.782 40.682 206.198 40.682C206.674 40.682 207.103 40.7643 207.485 40.929C207.875 41.0937 208.204 41.3233 208.473 41.618C208.75 41.9127 208.962 42.2593 209.11 42.658C209.257 43.048 209.331 43.4683 209.331 43.919C209.331 44.3783 209.257 44.8073 209.11 45.206C208.962 45.596 208.75 45.9383 208.473 46.233C208.204 46.519 207.875 46.7443 207.485 46.909C207.103 47.0737 206.674 47.156 206.198 47.156C205.756 47.156 205.34 47.065 204.95 46.883C204.56 46.6923 204.261 46.4367 204.053 46.116H204.027V50.666H202.857V40.838ZM206.055 41.774C205.743 41.774 205.461 41.8303 205.21 41.943C204.958 42.047 204.746 42.1943 204.573 42.385C204.399 42.567 204.265 42.7923 204.17 43.061C204.074 43.321 204.027 43.607 204.027 43.919C204.027 44.231 204.074 44.5213 204.17 44.79C204.265 45.05 204.399 45.2753 204.573 45.466C204.746 45.648 204.958 45.7953 205.21 45.908C205.461 46.012 205.743 46.064 206.055 46.064C206.367 46.064 206.648 46.012 206.9 45.908C207.151 45.7953 207.363 45.648 207.537 45.466C207.71 45.2753 207.844 45.05 207.94 44.79C208.035 44.5213 208.083 44.231 208.083 43.919C208.083 43.607 208.035 43.321 207.94 43.061C207.844 42.7923 207.71 42.567 207.537 42.385C207.363 42.1943 207.151 42.047 206.9 41.943C206.648 41.8303 206.367 41.774 206.055 41.774ZM210.895 37.172H212.065V47H210.895V37.172ZM213.953 41.592C214.282 41.2887 214.664 41.0633 215.097 40.916C215.53 40.76 215.964 40.682 216.397 40.682C216.848 40.682 217.233 40.7383 217.554 40.851C217.883 40.9637 218.152 41.1153 218.36 41.306C218.568 41.4967 218.72 41.7177 218.815 41.969C218.919 42.2117 218.971 42.4673 218.971 42.736V45.882C218.971 46.0987 218.975 46.298 218.984 46.48C218.993 46.662 219.006 46.8353 219.023 47H217.983C217.957 46.688 217.944 46.376 217.944 46.064H217.918C217.658 46.4627 217.35 46.7443 216.995 46.909C216.64 47.0737 216.228 47.156 215.76 47.156C215.474 47.156 215.201 47.117 214.941 47.039C214.681 46.961 214.451 46.844 214.252 46.688C214.061 46.532 213.91 46.3413 213.797 46.116C213.684 45.882 213.628 45.6133 213.628 45.31C213.628 44.9113 213.715 44.5777 213.888 44.309C214.07 44.0403 214.313 43.8237 214.616 43.659C214.928 43.4857 215.288 43.3643 215.695 43.295C216.111 43.217 216.553 43.178 217.021 43.178H217.879V42.918C217.879 42.762 217.849 42.606 217.788 42.45C217.727 42.294 217.636 42.1553 217.515 42.034C217.394 41.904 217.242 41.8043 217.06 41.735C216.878 41.657 216.661 41.618 216.41 41.618C216.185 41.618 215.985 41.6397 215.812 41.683C215.647 41.7263 215.496 41.7827 215.357 41.852C215.218 41.9127 215.093 41.9863 214.98 42.073C214.867 42.1597 214.759 42.242 214.655 42.32L213.953 41.592ZM217.255 44.036C216.978 44.036 216.692 44.0533 216.397 44.088C216.111 44.114 215.847 44.1703 215.604 44.257C215.37 44.3437 215.175 44.465 215.019 44.621C214.872 44.777 214.798 44.9763 214.798 45.219C214.798 45.5743 214.915 45.83 215.149 45.986C215.392 46.142 215.717 46.22 216.124 46.22C216.445 46.22 216.718 46.168 216.943 46.064C217.168 45.9513 217.35 45.8083 217.489 45.635C217.628 45.4617 217.727 45.271 217.788 45.063C217.849 44.8463 217.879 44.634 217.879 44.426V44.036H217.255ZM220.668 40.838H221.838V41.787H221.864C222.012 41.4577 222.267 41.1933 222.631 40.994C222.995 40.786 223.416 40.682 223.892 40.682C224.187 40.682 224.469 40.7297 224.737 40.825C225.015 40.9117 225.253 41.0503 225.452 41.241C225.66 41.4317 225.825 41.6787 225.946 41.982C226.068 42.2767 226.128 42.6277 226.128 43.035V47H224.958V43.36C224.958 43.074 224.919 42.8313 224.841 42.632C224.763 42.424 224.659 42.2593 224.529 42.138C224.399 42.008 224.248 41.917 224.074 41.865C223.91 41.8043 223.736 41.774 223.554 41.774C223.312 41.774 223.086 41.813 222.878 41.891C222.67 41.969 222.488 42.0947 222.332 42.268C222.176 42.4327 222.055 42.645 221.968 42.905C221.882 43.165 221.838 43.4727 221.838 43.828V47H220.668V40.838ZM231.168 42.385C231.029 42.2117 230.856 42.0687 230.648 41.956C230.448 41.8347 230.201 41.774 229.907 41.774C229.629 41.774 229.387 41.8347 229.179 41.956C228.979 42.0687 228.88 42.2377 228.88 42.463C228.88 42.645 228.936 42.7923 229.049 42.905C229.17 43.0177 229.309 43.1087 229.465 43.178C229.629 43.2473 229.803 43.2993 229.985 43.334C230.167 43.3687 230.323 43.399 230.453 43.425C230.704 43.4857 230.938 43.5593 231.155 43.646C231.38 43.7327 231.571 43.8453 231.727 43.984C231.891 44.1227 232.017 44.2917 232.104 44.491C232.199 44.6903 232.247 44.933 232.247 45.219C232.247 45.5657 232.173 45.8647 232.026 46.116C231.878 46.3587 231.688 46.558 231.454 46.714C231.22 46.87 230.951 46.9827 230.648 47.052C230.353 47.1213 230.054 47.156 229.751 47.156C229.239 47.156 228.789 47.078 228.399 46.922C228.017 46.766 227.675 46.48 227.372 46.064L228.256 45.336C228.446 45.5267 228.659 45.6957 228.893 45.843C229.127 45.9903 229.413 46.064 229.751 46.064C229.898 46.064 230.045 46.051 230.193 46.025C230.349 45.9903 230.483 45.9427 230.596 45.882C230.717 45.8127 230.812 45.7303 230.882 45.635C230.96 45.531 230.999 45.414 230.999 45.284C230.999 45.1107 230.942 44.9677 230.83 44.855C230.726 44.7423 230.596 44.6557 230.44 44.595C230.292 44.5257 230.132 44.4737 229.959 44.439C229.794 44.3957 229.647 44.361 229.517 44.335C229.265 44.2743 229.027 44.205 228.802 44.127C228.576 44.049 228.377 43.945 228.204 43.815C228.03 43.685 227.892 43.5203 227.788 43.321C227.684 43.1217 227.632 42.8747 227.632 42.58C227.632 42.2593 227.697 41.982 227.827 41.748C227.965 41.5053 228.143 41.306 228.36 41.15C228.585 40.994 228.836 40.877 229.114 40.799C229.4 40.721 229.686 40.682 229.972 40.682C230.388 40.682 230.786 40.76 231.168 40.916C231.549 41.072 231.852 41.332 232.078 41.696L231.168 42.385ZM234.591 47.078C234.357 47.078 234.154 46.9957 233.98 46.831C233.816 46.6577 233.733 46.454 233.733 46.22C233.733 45.986 233.816 45.7867 233.98 45.622C234.154 45.4487 234.357 45.362 234.591 45.362C234.825 45.362 235.025 45.4487 235.189 45.622C235.363 45.7867 235.449 45.986 235.449 46.22C235.449 46.454 235.363 46.6577 235.189 46.831C235.025 46.9957 234.825 47.078 234.591 47.078ZM238.209 47.078C237.975 47.078 237.772 46.9957 237.598 46.831C237.434 46.6577 237.351 46.454 237.351 46.22C237.351 45.986 237.434 45.7867 237.598 45.622C237.772 45.4487 237.975 45.362 238.209 45.362C238.443 45.362 238.643 45.4487 238.807 45.622C238.981 45.7867 239.067 45.986 239.067 46.22C239.067 46.454 238.981 46.6577 238.807 46.831C238.643 46.9957 238.443 47.078 238.209 47.078ZM241.828 47.078C241.594 47.078 241.39 46.9957 241.217 46.831C241.052 46.6577 240.97 46.454 240.97 46.22C240.97 45.986 241.052 45.7867 241.217 45.622C241.39 45.4487 241.594 45.362 241.828 45.362C242.062 45.362 242.261 45.4487 242.426 45.622C242.599 45.7867 242.686 45.986 242.686 46.22C242.686 46.454 242.599 46.6577 242.426 46.831C242.261 46.9957 242.062 47.078 241.828 47.078Z" fill="#9DA0A5"/>
</svg>
