<svg width="328" height="119" viewBox="0 0 328 119" fill="none" xmlns="http://www.w3.org/2000/svg">
<g clip-path="url(#clip0_211_56320)">
<path d="M0 14C0 6.26801 6.26801 0 14 0H314C321.732 0 328 6.26801 328 14V105C328 112.732 321.732 119 314 119H14C6.26802 119 0 112.732 0 105V14Z" fill="#242B35"/>
<path d="M296.794 77.6659C296.366 78.0617 296.366 78.7383 296.794 79.1341L300.973 83L296.794 86.8659C296.366 87.2617 296.366 87.9383 296.794 88.3341L296.834 88.3719C297.218 88.7264 297.809 88.7264 298.193 88.3719L303.206 83.7341C303.634 83.3383 303.634 82.6617 303.206 82.2659L298.193 77.6281C297.809 77.2736 297.218 77.2736 296.834 77.6281L296.794 77.6659Z" fill="#8DE8FE"/>
<path d="M17.264 67.672H21.68C22.1067 67.672 22.528 67.7253 22.944 67.832C23.36 67.928 23.728 68.0933 24.048 68.328C24.3787 68.552 24.6453 68.8453 24.848 69.208C25.0507 69.5707 25.152 70.008 25.152 70.52C25.152 71.16 24.9707 71.688 24.608 72.104C24.2453 72.52 23.7707 72.8187 23.184 73V73.032C23.536 73.0747 23.8613 73.176 24.16 73.336C24.4693 73.4853 24.7307 73.6827 24.944 73.928C25.1573 74.1627 25.3227 74.44 25.44 74.76C25.568 75.0693 25.632 75.4053 25.632 75.768C25.632 76.3867 25.5093 76.904 25.264 77.32C25.0187 77.7253 24.6933 78.056 24.288 78.312C23.8933 78.5573 23.4347 78.7333 22.912 78.84C22.4 78.9467 21.8773 79 21.344 79H17.264V67.672ZM19.28 72.28H21.12C21.792 72.28 22.2933 72.152 22.624 71.896C22.9653 71.6293 23.136 71.2827 23.136 70.856C23.136 70.3653 22.96 70.0027 22.608 69.768C22.2667 69.5227 21.712 69.4 20.944 69.4H19.28V72.28ZM19.28 77.272H21.136C21.392 77.272 21.664 77.256 21.952 77.224C22.2507 77.192 22.5227 77.1173 22.768 77C23.0133 76.8827 23.216 76.7173 23.376 76.504C23.536 76.28 23.616 75.9813 23.616 75.608C23.616 75.0107 23.4187 74.5947 23.024 74.36C22.64 74.1253 22.0373 74.008 21.216 74.008H19.28V77.272ZM27.495 71.32H29.415V79H27.495V71.32ZM27.223 68.712C27.223 68.4027 27.335 68.136 27.559 67.912C27.7937 67.6773 28.087 67.56 28.439 67.56C28.791 67.56 29.0843 67.672 29.319 67.896C29.5643 68.1093 29.687 68.3813 29.687 68.712C29.687 69.0427 29.5643 69.32 29.319 69.544C29.0843 69.7573 28.791 69.864 28.439 69.864C28.087 69.864 27.7937 69.752 27.559 69.528C27.335 69.2933 27.223 69.0213 27.223 68.712ZM33.1553 75.832C33.2193 76.408 33.4433 76.856 33.8273 77.176C34.2113 77.496 34.6753 77.656 35.2193 77.656C35.6993 77.656 36.0993 77.56 36.4193 77.368C36.7499 77.1653 37.0379 76.9147 37.2833 76.616L38.6593 77.656C38.2113 78.2107 37.7099 78.6053 37.1553 78.84C36.6006 79.0747 36.0193 79.192 35.4113 79.192C34.8353 79.192 34.2913 79.096 33.7793 78.904C33.2673 78.712 32.8246 78.44 32.4513 78.088C32.0779 77.736 31.7793 77.3147 31.5553 76.824C31.3419 76.3227 31.2353 75.768 31.2353 75.16C31.2353 74.552 31.3419 74.0027 31.5553 73.512C31.7793 73.0107 32.0779 72.584 32.4513 72.232C32.8246 71.88 33.2673 71.608 33.7793 71.416C34.2913 71.224 34.8353 71.128 35.4113 71.128C35.9446 71.128 36.4299 71.224 36.8673 71.416C37.3153 71.5973 37.6939 71.864 38.0033 72.216C38.3233 72.568 38.5686 73.0053 38.7393 73.528C38.9206 74.04 39.0113 74.632 39.0113 75.304V75.832H33.1553ZM37.0913 74.392C37.0806 73.8267 36.9046 73.384 36.5633 73.064C36.2219 72.7333 35.7473 72.568 35.1393 72.568C34.5633 72.568 34.1046 72.7333 33.7633 73.064C33.4326 73.3947 33.2299 73.8373 33.1553 74.392H37.0913ZM40.8068 71.32H42.6308V72.552H42.6628C42.8441 72.168 43.1214 71.8373 43.4948 71.56C43.8681 71.272 44.3748 71.128 45.0148 71.128C45.5268 71.128 45.9588 71.2133 46.3108 71.384C46.6734 71.5547 46.9668 71.7787 47.1908 72.056C47.4148 72.3333 47.5748 72.6533 47.6708 73.016C47.7668 73.3787 47.8148 73.7573 47.8148 74.152V79H45.8948V75.112C45.8948 74.8987 45.8841 74.664 45.8628 74.408C45.8414 74.1413 45.7828 73.896 45.6868 73.672C45.6014 73.4373 45.4628 73.2453 45.2708 73.096C45.0788 72.936 44.8174 72.856 44.4868 72.856C44.1668 72.856 43.8948 72.9093 43.6708 73.016C43.4574 73.1227 43.2761 73.2667 43.1268 73.448C42.9881 73.6293 42.8868 73.8373 42.8228 74.072C42.7588 74.3067 42.7268 74.552 42.7268 74.808V79H40.8068V71.32ZM54.7286 71.32H56.5526V72.472H56.5846C56.862 72.0027 57.2353 71.6613 57.7046 71.448C58.174 71.2347 58.6806 71.128 59.2246 71.128C59.8113 71.128 60.3393 71.2347 60.8086 71.448C61.278 71.6507 61.678 71.9333 62.0086 72.296C62.3393 72.6587 62.59 73.0853 62.7606 73.576C62.9313 74.0667 63.0166 74.5947 63.0166 75.16C63.0166 75.7253 62.926 76.2533 62.7446 76.744C62.5633 77.2347 62.3073 77.6613 61.9766 78.024C61.6566 78.3867 61.2673 78.6747 60.8086 78.888C60.35 79.0907 59.8486 79.192 59.3046 79.192C58.942 79.192 58.622 79.1547 58.3446 79.08C58.0673 79.0053 57.822 78.9093 57.6086 78.792C57.3953 78.6747 57.214 78.552 57.0646 78.424C56.9153 78.2853 56.7926 78.152 56.6966 78.024H56.6486V82.648H54.7286V71.32ZM61.0966 75.16C61.0966 74.8613 61.0433 74.5733 60.9366 74.296C60.8406 74.0187 60.6913 73.7733 60.4886 73.56C60.2966 73.3467 60.062 73.176 59.7846 73.048C59.5073 72.92 59.1926 72.856 58.8406 72.856C58.4886 72.856 58.174 72.92 57.8966 73.048C57.6193 73.176 57.3793 73.3467 57.1766 73.56C56.9846 73.7733 56.8353 74.0187 56.7286 74.296C56.6326 74.5733 56.5846 74.8613 56.5846 75.16C56.5846 75.4587 56.6326 75.7467 56.7286 76.024C56.8353 76.3013 56.9846 76.5467 57.1766 76.76C57.3793 76.9733 57.6193 77.144 57.8966 77.272C58.174 77.4 58.4886 77.464 58.8406 77.464C59.1926 77.464 59.5073 77.4 59.7846 77.272C60.062 77.144 60.2966 76.9733 60.4886 76.76C60.6913 76.5467 60.8406 76.3013 60.9366 76.024C61.0433 75.7467 61.0966 75.4587 61.0966 75.16ZM64.8388 66.904H66.7588V79H64.8388V66.904ZM75.971 79H74.147V77.768H74.115C73.9337 78.152 73.6563 78.488 73.283 78.776C72.9097 79.0533 72.403 79.192 71.763 79.192C71.251 79.192 70.8137 79.112 70.451 78.952C70.099 78.7813 69.811 78.5573 69.587 78.28C69.363 77.992 69.203 77.6667 69.107 77.304C69.011 76.9413 68.963 76.5627 68.963 76.168V71.32H70.883V75.208C70.883 75.4213 70.8937 75.6613 70.915 75.928C70.9363 76.184 70.9897 76.4293 71.075 76.664C71.171 76.888 71.3097 77.08 71.491 77.24C71.683 77.3893 71.9497 77.464 72.291 77.464C72.611 77.464 72.8777 77.4107 73.091 77.304C73.315 77.1973 73.4963 77.0533 73.635 76.872C73.7843 76.6907 73.891 76.4827 73.955 76.248C74.019 76.0133 74.051 75.768 74.051 75.512V71.32H75.971V79ZM82.2465 73.448C81.8732 72.9253 81.3718 72.664 80.7425 72.664C80.4865 72.664 80.2358 72.728 79.9905 72.856C79.7452 72.984 79.6225 73.192 79.6225 73.48C79.6225 73.7147 79.7238 73.8853 79.9265 73.992C80.1292 74.0987 80.3852 74.1893 80.6945 74.264C81.0038 74.3387 81.3345 74.4187 81.6865 74.504C82.0492 74.5787 82.3852 74.7013 82.6945 74.872C83.0038 75.032 83.2598 75.256 83.4625 75.544C83.6652 75.832 83.7665 76.2267 83.7665 76.728C83.7665 77.1867 83.6652 77.576 83.4625 77.896C83.2705 78.2053 83.0145 78.456 82.6945 78.648C82.3852 78.84 82.0332 78.9787 81.6385 79.064C81.2438 79.1493 80.8492 79.192 80.4545 79.192C79.8572 79.192 79.3078 79.1067 78.8065 78.936C78.3052 78.7653 77.8572 78.456 77.4625 78.008L78.7425 76.808C78.9878 77.0853 79.2492 77.3147 79.5265 77.496C79.8145 77.6667 80.1612 77.752 80.5665 77.752C80.7052 77.752 80.8492 77.736 80.9985 77.704C81.1478 77.672 81.2865 77.6187 81.4145 77.544C81.5425 77.4693 81.6438 77.3787 81.7185 77.272C81.8038 77.1547 81.8465 77.0213 81.8465 76.872C81.8465 76.6053 81.7452 76.408 81.5425 76.28C81.3398 76.152 81.0838 76.0507 80.7745 75.976C80.4652 75.8907 80.1292 75.816 79.7665 75.752C79.4145 75.6773 79.0838 75.5653 78.7745 75.416C78.4652 75.256 78.2092 75.0373 78.0065 74.76C77.8038 74.4827 77.7025 74.0987 77.7025 73.608C77.7025 73.1813 77.7878 72.8133 77.9585 72.504C78.1398 72.184 78.3745 71.9227 78.6625 71.72C78.9505 71.5173 79.2812 71.368 79.6545 71.272C80.0278 71.176 80.4065 71.128 80.7905 71.128C81.3025 71.128 81.8092 71.2187 82.3105 71.4C82.8118 71.5707 83.2172 71.8693 83.5265 72.296L82.2465 73.448ZM97.8983 82.648H95.9783V78.024H95.9303C95.8343 78.152 95.7116 78.2853 95.5623 78.424C95.4129 78.552 95.2316 78.6747 95.0183 78.792C94.8049 78.9093 94.5596 79.0053 94.2823 79.08C94.0049 79.1547 93.6849 79.192 93.3223 79.192C92.7783 79.192 92.2769 79.0907 91.8183 78.888C91.3596 78.6747 90.9649 78.3867 90.6343 78.024C90.3143 77.6613 90.0636 77.2347 89.8823 76.744C89.7009 76.2533 89.6103 75.7253 89.6103 75.16C89.6103 74.5947 89.6956 74.0667 89.8663 73.576C90.0369 73.0853 90.2876 72.6587 90.6183 72.296C90.9489 71.9333 91.3436 71.6507 91.8023 71.448C92.2716 71.2347 92.8049 71.128 93.4023 71.128C93.9463 71.128 94.4529 71.2347 94.9223 71.448C95.3916 71.6613 95.7649 72.0027 96.0423 72.472H96.0743V71.32H97.8983V82.648ZM91.5303 75.16C91.5303 75.4587 91.5783 75.7467 91.6743 76.024C91.7809 76.3013 91.9303 76.5467 92.1223 76.76C92.3249 76.9733 92.5649 77.144 92.8423 77.272C93.1196 77.4 93.4343 77.464 93.7863 77.464C94.1383 77.464 94.4529 77.4 94.7303 77.272C95.0076 77.144 95.2423 76.9733 95.4343 76.76C95.6369 76.5467 95.7863 76.3013 95.8823 76.024C95.9889 75.7467 96.0423 75.4587 96.0423 75.16C96.0423 74.8613 95.9889 74.5733 95.8823 74.296C95.7863 74.0187 95.6369 73.7733 95.4343 73.56C95.2423 73.3467 95.0076 73.176 94.7303 73.048C94.4529 72.92 94.1383 72.856 93.7863 72.856C93.4343 72.856 93.1196 72.92 92.8423 73.048C92.5649 73.176 92.3249 73.3467 92.1223 73.56C91.9303 73.7733 91.7809 74.0187 91.6743 74.296C91.5783 74.5733 91.5303 74.8613 91.5303 75.16ZM107.08 79H105.256V77.768H105.224C105.043 78.152 104.766 78.488 104.392 78.776C104.019 79.0533 103.512 79.192 102.872 79.192C102.36 79.192 101.923 79.112 101.56 78.952C101.208 78.7813 100.92 78.5573 100.696 78.28C100.472 77.992 100.312 77.6667 100.216 77.304C100.12 76.9413 100.072 76.5627 100.072 76.168V71.32H101.992V75.208C101.992 75.4213 102.003 75.6613 102.024 75.928C102.046 76.184 102.099 76.4293 102.184 76.664C102.28 76.888 102.419 77.08 102.6 77.24C102.792 77.3893 103.059 77.464 103.4 77.464C103.72 77.464 103.987 77.4107 104.2 77.304C104.424 77.1973 104.606 77.0533 104.744 76.872C104.894 76.6907 105 76.4827 105.064 76.248C105.128 76.0133 105.16 75.768 105.16 75.512V71.32H107.08V79ZM110.796 75.832C110.86 76.408 111.084 76.856 111.468 77.176C111.852 77.496 112.316 77.656 112.86 77.656C113.34 77.656 113.74 77.56 114.06 77.368C114.391 77.1653 114.679 76.9147 114.924 76.616L116.3 77.656C115.852 78.2107 115.351 78.6053 114.796 78.84C114.241 79.0747 113.66 79.192 113.052 79.192C112.476 79.192 111.932 79.096 111.42 78.904C110.908 78.712 110.465 78.44 110.092 78.088C109.719 77.736 109.42 77.3147 109.196 76.824C108.983 76.3227 108.876 75.768 108.876 75.16C108.876 74.552 108.983 74.0027 109.196 73.512C109.42 73.0107 109.719 72.584 110.092 72.232C110.465 71.88 110.908 71.608 111.42 71.416C111.932 71.224 112.476 71.128 113.052 71.128C113.585 71.128 114.071 71.224 114.508 71.416C114.956 71.5973 115.335 71.864 115.644 72.216C115.964 72.568 116.209 73.0053 116.38 73.528C116.561 74.04 116.652 74.632 116.652 75.304V75.832H110.796ZM114.732 74.392C114.721 73.8267 114.545 73.384 114.204 73.064C113.863 72.7333 113.388 72.568 112.78 72.568C112.204 72.568 111.745 72.7333 111.404 73.064C111.073 73.3947 110.871 73.8373 110.796 74.392H114.732ZM129.262 77.848H129.23C128.952 78.3173 128.579 78.6587 128.11 78.872C127.64 79.0853 127.134 79.192 126.59 79.192C125.992 79.192 125.459 79.0907 124.99 78.888C124.531 78.6747 124.136 78.3867 123.806 78.024C123.475 77.6613 123.224 77.2347 123.054 76.744C122.883 76.2533 122.798 75.7253 122.798 75.16C122.798 74.5947 122.888 74.0667 123.07 73.576C123.251 73.0853 123.502 72.6587 123.822 72.296C124.152 71.9333 124.547 71.6507 125.006 71.448C125.464 71.2347 125.966 71.128 126.51 71.128C126.872 71.128 127.192 71.1653 127.47 71.24C127.747 71.3147 127.992 71.4107 128.206 71.528C128.419 71.6453 128.6 71.7733 128.75 71.912C128.899 72.04 129.022 72.168 129.118 72.296H129.166V66.904H131.086V79H129.262V77.848ZM124.718 75.16C124.718 75.4587 124.766 75.7467 124.862 76.024C124.968 76.3013 125.118 76.5467 125.31 76.76C125.512 76.9733 125.752 77.144 126.03 77.272C126.307 77.4 126.622 77.464 126.974 77.464C127.326 77.464 127.64 77.4 127.918 77.272C128.195 77.144 128.43 76.9733 128.622 76.76C128.824 76.5467 128.974 76.3013 129.07 76.024C129.176 75.7467 129.23 75.4587 129.23 75.16C129.23 74.8613 129.176 74.5733 129.07 74.296C128.974 74.0187 128.824 73.7733 128.622 73.56C128.43 73.3467 128.195 73.176 127.918 73.048C127.64 72.92 127.326 72.856 126.974 72.856C126.622 72.856 126.307 72.92 126.03 73.048C125.752 73.176 125.512 73.3467 125.31 73.56C125.118 73.7733 124.968 74.0187 124.862 74.296C124.766 74.5733 124.718 74.8613 124.718 75.16ZM140.268 79H138.444V77.768H138.412C138.231 78.152 137.953 78.488 137.58 78.776C137.207 79.0533 136.7 79.192 136.06 79.192C135.548 79.192 135.111 79.112 134.748 78.952C134.396 78.7813 134.108 78.5573 133.884 78.28C133.66 77.992 133.5 77.6667 133.404 77.304C133.308 76.9413 133.26 76.5627 133.26 76.168V71.32H135.18V75.208C135.18 75.4213 135.191 75.6613 135.212 75.928C135.233 76.184 135.287 76.4293 135.372 76.664C135.468 76.888 135.607 77.08 135.788 77.24C135.98 77.3893 136.247 77.464 136.588 77.464C136.908 77.464 137.175 77.4107 137.388 77.304C137.612 77.1973 137.793 77.0533 137.932 76.872C138.081 76.6907 138.188 76.4827 138.252 76.248C138.316 76.0133 138.348 75.768 138.348 75.512V71.32H140.268V79ZM146.286 72.952V71.32H147.87V69.096H149.79V71.32H151.902V72.952H149.79V76.312C149.79 76.696 149.859 77 149.998 77.224C150.147 77.448 150.435 77.56 150.862 77.56C151.032 77.56 151.219 77.544 151.422 77.512C151.624 77.4693 151.784 77.4053 151.902 77.32V78.936C151.699 79.032 151.448 79.096 151.15 79.128C150.862 79.1707 150.606 79.192 150.382 79.192C149.87 79.192 149.448 79.1333 149.118 79.016C148.798 78.9093 148.542 78.744 148.35 78.52C148.168 78.2853 148.04 77.9973 147.966 77.656C147.902 77.3147 147.87 76.92 147.87 76.472V72.952H146.286ZM153.401 71.32H155.321V72.536H155.353C155.566 72.088 155.87 71.7413 156.265 71.496C156.659 71.2507 157.113 71.128 157.625 71.128C157.742 71.128 157.854 71.1387 157.961 71.16C158.078 71.1813 158.195 71.208 158.313 71.24V73.096C158.153 73.0533 157.993 73.0213 157.833 73C157.683 72.968 157.534 72.952 157.385 72.952C156.937 72.952 156.574 73.0373 156.297 73.208C156.03 73.368 155.822 73.5547 155.673 73.768C155.534 73.9813 155.438 74.1947 155.385 74.408C155.342 74.6213 155.321 74.7813 155.321 74.888V79H153.401V71.32ZM164.419 77.944H164.371C164.094 78.3813 163.742 78.7013 163.315 78.904C162.889 79.096 162.419 79.192 161.907 79.192C161.555 79.192 161.209 79.144 160.867 79.048C160.537 78.952 160.238 78.808 159.971 78.616C159.715 78.424 159.507 78.184 159.347 77.896C159.187 77.608 159.107 77.272 159.107 76.888C159.107 76.472 159.182 76.12 159.331 75.832C159.481 75.5333 159.678 75.288 159.923 75.096C160.179 74.8933 160.473 74.7333 160.803 74.616C161.134 74.4987 161.475 74.4133 161.827 74.36C162.19 74.296 162.553 74.2587 162.915 74.248C163.278 74.2267 163.619 74.216 163.939 74.216H164.419V74.008C164.419 73.528 164.254 73.1707 163.923 72.936C163.593 72.6907 163.171 72.568 162.659 72.568C162.254 72.568 161.875 72.6427 161.523 72.792C161.171 72.9307 160.867 73.1227 160.611 73.368L159.603 72.36C160.03 71.9227 160.526 71.608 161.091 71.416C161.667 71.224 162.259 71.128 162.867 71.128C163.411 71.128 163.87 71.192 164.243 71.32C164.617 71.4373 164.926 71.592 165.171 71.784C165.417 71.976 165.603 72.2 165.731 72.456C165.87 72.7013 165.966 72.952 166.019 73.208C166.083 73.464 166.121 73.7147 166.131 73.96C166.142 74.1947 166.147 74.4027 166.147 74.584V79H164.419V77.944ZM164.307 75.56H163.907C163.641 75.56 163.342 75.5707 163.011 75.592C162.681 75.6133 162.366 75.6667 162.067 75.752C161.779 75.8267 161.534 75.944 161.331 76.104C161.129 76.2533 161.027 76.4667 161.027 76.744C161.027 76.9253 161.065 77.08 161.139 77.208C161.225 77.3253 161.331 77.4267 161.459 77.512C161.587 77.5973 161.731 77.6613 161.891 77.704C162.051 77.736 162.211 77.752 162.371 77.752C163.033 77.752 163.518 77.5973 163.827 77.288C164.147 76.968 164.307 76.536 164.307 75.992V75.56ZM168.245 71.32H170.165V79H168.245V71.32ZM167.973 68.712C167.973 68.4027 168.085 68.136 168.309 67.912C168.544 67.6773 168.837 67.56 169.189 67.56C169.541 67.56 169.834 67.672 170.069 67.896C170.314 68.1093 170.437 68.3813 170.437 68.712C170.437 69.0427 170.314 69.32 170.069 69.544C169.834 69.7573 169.541 69.864 169.189 69.864C168.837 69.864 168.544 69.752 168.309 69.528C168.085 69.2933 167.973 69.0213 167.973 68.712ZM172.369 71.32H174.193V72.552H174.225C174.407 72.168 174.684 71.8373 175.057 71.56C175.431 71.272 175.937 71.128 176.577 71.128C177.089 71.128 177.521 71.2133 177.873 71.384C178.236 71.5547 178.529 71.7787 178.753 72.056C178.977 72.3333 179.137 72.6533 179.233 73.016C179.329 73.3787 179.377 73.7573 179.377 74.152V79H177.457V75.112C177.457 74.8987 177.447 74.664 177.425 74.408C177.404 74.1413 177.345 73.896 177.249 73.672C177.164 73.4373 177.025 73.2453 176.833 73.096C176.641 72.936 176.38 72.856 176.049 72.856C175.729 72.856 175.457 72.9093 175.233 73.016C175.02 73.1227 174.839 73.2667 174.689 73.448C174.551 73.6293 174.449 73.8373 174.385 74.072C174.321 74.3067 174.289 74.552 174.289 74.808V79H172.369V71.32ZM188.531 75.448H186.611V67.672H188.531V75.448ZM186.291 77.88C186.291 77.5387 186.414 77.2453 186.659 77C186.915 76.7547 187.219 76.632 187.571 76.632C187.912 76.632 188.211 76.7493 188.467 76.984C188.723 77.2187 188.851 77.5067 188.851 77.848C188.851 78.1893 188.723 78.4827 188.467 78.728C188.222 78.9733 187.923 79.096 187.571 79.096C187.4 79.096 187.235 79.064 187.075 79C186.926 78.936 186.792 78.8507 186.675 78.744C186.558 78.6373 186.462 78.5093 186.387 78.36C186.323 78.2107 186.291 78.0507 186.291 77.88Z" fill="#F3F3F4"/>
<path d="M15.922 88.796H17.365L20.069 96.284H20.095L22.903 88.796H24.268L20.641 98H19.471L15.922 88.796ZM25.3105 94.919C25.3105 95.231 25.3582 95.5213 25.4535 95.79C25.5489 96.05 25.6832 96.2753 25.8565 96.466C26.0299 96.648 26.2422 96.7953 26.4935 96.908C26.7449 97.012 27.0265 97.064 27.3385 97.064C27.6505 97.064 27.9322 97.012 28.1835 96.908C28.4349 96.7953 28.6472 96.648 28.8205 96.466C28.9939 96.2753 29.1282 96.05 29.2235 95.79C29.3189 95.5213 29.3665 95.231 29.3665 94.919C29.3665 94.607 29.3189 94.321 29.2235 94.061C29.1282 93.7923 28.9939 93.567 28.8205 93.385C28.6472 93.1943 28.4349 93.047 28.1835 92.943C27.9322 92.8303 27.6505 92.774 27.3385 92.774C27.0265 92.774 26.7449 92.8303 26.4935 92.943C26.2422 93.047 26.0299 93.1943 25.8565 93.385C25.6832 93.567 25.5489 93.7923 25.4535 94.061C25.3582 94.321 25.3105 94.607 25.3105 94.919ZM24.0625 94.919C24.0625 94.4683 24.1449 94.048 24.3095 93.658C24.4829 93.268 24.7169 92.9257 25.0115 92.631C25.3062 92.3363 25.6529 92.1067 26.0515 91.942C26.4502 91.7687 26.8792 91.682 27.3385 91.682C27.7979 91.682 28.2269 91.7687 28.6255 91.942C29.0242 92.1067 29.3709 92.3363 29.6655 92.631C29.9602 92.9257 30.1899 93.268 30.3545 93.658C30.5279 94.048 30.6145 94.4683 30.6145 94.919C30.6145 95.3697 30.5279 95.7943 30.3545 96.193C30.1899 96.583 29.9602 96.9253 29.6655 97.22C29.3709 97.506 29.0242 97.7357 28.6255 97.909C28.2269 98.0737 27.7979 98.156 27.3385 98.156C26.8792 98.156 26.4502 98.0737 26.0515 97.909C25.6529 97.7357 25.3062 97.506 25.0115 97.22C24.7169 96.9253 24.4829 96.583 24.3095 96.193C24.1449 95.7943 24.0625 95.3697 24.0625 94.919ZM32.1713 91.838H33.3413V98H32.1713V91.838ZM31.8983 89.628C31.8983 89.394 31.9806 89.1947 32.1453 89.03C32.3186 88.8567 32.5223 88.77 32.7563 88.77C32.9903 88.77 33.1896 88.8567 33.3543 89.03C33.5276 89.1947 33.6143 89.394 33.6143 89.628C33.6143 89.862 33.5276 90.0657 33.3543 90.239C33.1896 90.4037 32.9903 90.486 32.7563 90.486C32.5223 90.486 32.3186 90.4037 32.1453 90.239C31.9806 90.0657 31.8983 89.862 31.8983 89.628ZM38.5053 92.852H36.8283V95.647C36.8283 95.8203 36.8327 95.9937 36.8413 96.167C36.85 96.3317 36.8803 96.4833 36.9323 96.622C36.993 96.752 37.0797 96.8603 37.1923 96.947C37.3137 97.025 37.487 97.064 37.7123 97.064C37.851 97.064 37.994 97.051 38.1413 97.025C38.2887 96.999 38.423 96.9513 38.5443 96.882V97.948C38.4057 98.026 38.2237 98.078 37.9983 98.104C37.7817 98.1387 37.6127 98.156 37.4913 98.156C37.0407 98.156 36.6897 98.0953 36.4383 97.974C36.1957 97.844 36.0137 97.6793 35.8923 97.48C35.7797 97.2807 35.7103 97.0597 35.6843 96.817C35.667 96.5657 35.6583 96.3143 35.6583 96.063V92.852H34.3063V91.838H35.6583V90.109H36.8283V91.838H38.5053V92.852ZM45.4749 98H44.3049V97.051H44.2789C44.1315 97.3803 43.8759 97.649 43.5119 97.857C43.1479 98.0563 42.7275 98.156 42.2509 98.156C41.9475 98.156 41.6615 98.1083 41.3929 98.013C41.1242 97.9263 40.8859 97.7877 40.6779 97.597C40.4785 97.4063 40.3182 97.1637 40.1969 96.869C40.0755 96.5657 40.0149 96.2103 40.0149 95.803V91.838H41.1849V95.478C41.1849 95.764 41.2239 96.011 41.3019 96.219C41.3799 96.4183 41.4839 96.583 41.6139 96.713C41.7439 96.8343 41.8912 96.9253 42.0559 96.986C42.2292 97.038 42.4069 97.064 42.5889 97.064C42.8315 97.064 43.0569 97.025 43.2649 96.947C43.4729 96.869 43.6549 96.7477 43.8109 96.583C43.9669 96.4097 44.0882 96.193 44.1749 95.933C44.2615 95.673 44.3049 95.3653 44.3049 95.01V91.838H45.4749V98ZM47.2385 91.838H48.4085V92.787H48.4345C48.5125 92.6223 48.6165 92.475 48.7465 92.345C48.8765 92.2063 49.0195 92.0893 49.1755 91.994C49.3402 91.8987 49.5178 91.825 49.7085 91.773C49.8992 91.7123 50.0898 91.682 50.2805 91.682C50.4712 91.682 50.6445 91.708 50.8005 91.76L50.7485 93.021C50.6532 92.995 50.5578 92.9733 50.4625 92.956C50.3672 92.9387 50.2718 92.93 50.1765 92.93C49.6045 92.93 49.1668 93.0903 48.8635 93.411C48.5602 93.7317 48.4085 94.23 48.4085 94.906V98H47.2385V91.838ZM52.7055 95.348C52.7055 95.6167 52.7618 95.8637 52.8745 96.089C52.9958 96.3057 53.1518 96.492 53.3425 96.648C53.5332 96.804 53.7542 96.9253 54.0055 97.012C54.2568 97.0987 54.5168 97.142 54.7855 97.142C55.1495 97.142 55.4658 97.0597 55.7345 96.895C56.0032 96.7217 56.2502 96.4963 56.4755 96.219L57.3595 96.895C56.7095 97.7357 55.7995 98.156 54.6295 98.156C54.1442 98.156 53.7022 98.0737 53.3035 97.909C52.9135 97.7443 52.5798 97.519 52.3025 97.233C52.0338 96.9383 51.8258 96.596 51.6785 96.206C51.5312 95.8073 51.4575 95.3783 51.4575 94.919C51.4575 94.4597 51.5355 94.035 51.6915 93.645C51.8562 93.2463 52.0772 92.904 52.3545 92.618C52.6405 92.3233 52.9785 92.0937 53.3685 91.929C53.7585 91.7643 54.1832 91.682 54.6425 91.682C55.1885 91.682 55.6478 91.7773 56.0205 91.968C56.4018 92.1587 56.7138 92.41 56.9565 92.722C57.1992 93.0253 57.3725 93.372 57.4765 93.762C57.5892 94.1433 57.6455 94.5333 57.6455 94.932V95.348H52.7055ZM56.3975 94.412C56.3888 94.152 56.3455 93.9137 56.2675 93.697C56.1982 93.4803 56.0898 93.294 55.9425 93.138C55.7952 92.9733 55.6088 92.8477 55.3835 92.761C55.1668 92.6657 54.9112 92.618 54.6165 92.618C54.3305 92.618 54.0662 92.6743 53.8235 92.787C53.5895 92.891 53.3902 93.0297 53.2255 93.203C53.0608 93.3763 52.9308 93.5713 52.8355 93.788C52.7488 93.996 52.7055 94.204 52.7055 94.412H56.3975ZM68.8383 98H67.6683V97.116H67.6423C67.417 97.4453 67.105 97.701 66.7063 97.883C66.3163 98.065 65.9133 98.156 65.4973 98.156C65.0206 98.156 64.5873 98.0737 64.1973 97.909C63.816 97.7443 63.4866 97.5147 63.2093 97.22C62.9406 96.9253 62.7326 96.583 62.5853 96.193C62.438 95.803 62.3643 95.3783 62.3643 94.919C62.3643 94.4597 62.438 94.035 62.5853 93.645C62.7326 93.2463 62.9406 92.904 63.2093 92.618C63.4866 92.3233 63.816 92.0937 64.1973 91.929C64.5873 91.7643 65.0206 91.682 65.4973 91.682C65.9393 91.682 66.3553 91.7773 66.7453 91.968C67.1353 92.15 67.4343 92.4013 67.6423 92.722H67.6683V88.172H68.8383V98ZM65.6403 97.064C65.9523 97.064 66.234 97.012 66.4853 96.908C66.7366 96.7953 66.949 96.648 67.1223 96.466C67.2956 96.2753 67.43 96.05 67.5253 95.79C67.6206 95.5213 67.6683 95.231 67.6683 94.919C67.6683 94.607 67.6206 94.321 67.5253 94.061C67.43 93.7923 67.2956 93.567 67.1223 93.385C66.949 93.1943 66.7366 93.047 66.4853 92.943C66.234 92.8303 65.9523 92.774 65.6403 92.774C65.3283 92.774 65.0466 92.8303 64.7953 92.943C64.544 93.047 64.3316 93.1943 64.1583 93.385C63.985 93.567 63.8506 93.7923 63.7553 94.061C63.66 94.321 63.6123 94.607 63.6123 94.919C63.6123 95.231 63.66 95.5213 63.7553 95.79C63.8506 96.05 63.985 96.2753 64.1583 96.466C64.3316 96.648 64.544 96.7953 64.7953 96.908C65.0466 97.012 65.3283 97.064 65.6403 97.064ZM71.4946 95.348C71.4946 95.6167 71.5509 95.8637 71.6636 96.089C71.7849 96.3057 71.9409 96.492 72.1316 96.648C72.3222 96.804 72.5432 96.9253 72.7946 97.012C73.0459 97.0987 73.3059 97.142 73.5746 97.142C73.9386 97.142 74.2549 97.0597 74.5236 96.895C74.7922 96.7217 75.0392 96.4963 75.2646 96.219L76.1486 96.895C75.4986 97.7357 74.5886 98.156 73.4186 98.156C72.9332 98.156 72.4912 98.0737 72.0926 97.909C71.7026 97.7443 71.3689 97.519 71.0916 97.233C70.8229 96.9383 70.6149 96.596 70.4676 96.206C70.3202 95.8073 70.2466 95.3783 70.2466 94.919C70.2466 94.4597 70.3246 94.035 70.4806 93.645C70.6452 93.2463 70.8662 92.904 71.1436 92.618C71.4296 92.3233 71.7676 92.0937 72.1576 91.929C72.5476 91.7643 72.9722 91.682 73.4316 91.682C73.9776 91.682 74.4369 91.7773 74.8096 91.968C75.1909 92.1587 75.5029 92.41 75.7456 92.722C75.9882 93.0253 76.1616 93.372 76.2656 93.762C76.3782 94.1433 76.4346 94.5333 76.4346 94.932V95.348H71.4946ZM75.1866 94.412C75.1779 94.152 75.1346 93.9137 75.0566 93.697C74.9872 93.4803 74.8789 93.294 74.7316 93.138C74.5842 92.9733 74.3979 92.8477 74.1726 92.761C73.9559 92.6657 73.7002 92.618 73.4056 92.618C73.1196 92.618 72.8552 92.6743 72.6126 92.787C72.3786 92.891 72.1792 93.0297 72.0146 93.203C71.8499 93.3763 71.7199 93.5713 71.6246 93.788C71.5379 93.996 71.4946 94.204 71.4946 94.412H75.1866ZM81.5434 88.172H82.7134V98H81.5434V88.172ZM85.5244 94.919C85.5244 95.231 85.5721 95.5213 85.6674 95.79C85.7627 96.05 85.8971 96.2753 86.0704 96.466C86.2437 96.648 86.4561 96.7953 86.7074 96.908C86.9587 97.012 87.2404 97.064 87.5524 97.064C87.8644 97.064 88.1461 97.012 88.3974 96.908C88.6487 96.7953 88.8611 96.648 89.0344 96.466C89.2077 96.2753 89.3421 96.05 89.4374 95.79C89.5327 95.5213 89.5804 95.231 89.5804 94.919C89.5804 94.607 89.5327 94.321 89.4374 94.061C89.3421 93.7923 89.2077 93.567 89.0344 93.385C88.8611 93.1943 88.6487 93.047 88.3974 92.943C88.1461 92.8303 87.8644 92.774 87.5524 92.774C87.2404 92.774 86.9587 92.8303 86.7074 92.943C86.4561 93.047 86.2437 93.1943 86.0704 93.385C85.8971 93.567 85.7627 93.7923 85.6674 94.061C85.5721 94.321 85.5244 94.607 85.5244 94.919ZM84.2764 94.919C84.2764 94.4683 84.3587 94.048 84.5234 93.658C84.6967 93.268 84.9307 92.9257 85.2254 92.631C85.5201 92.3363 85.8667 92.1067 86.2654 91.942C86.6641 91.7687 87.0931 91.682 87.5524 91.682C88.0117 91.682 88.4407 91.7687 88.8394 91.942C89.2381 92.1067 89.5847 92.3363 89.8794 92.631C90.1741 92.9257 90.4037 93.268 90.5684 93.658C90.7417 94.048 90.8284 94.4683 90.8284 94.919C90.8284 95.3697 90.7417 95.7943 90.5684 96.193C90.4037 96.583 90.1741 96.9253 89.8794 97.22C89.5847 97.506 89.2381 97.7357 88.8394 97.909C88.4407 98.0737 88.0117 98.156 87.5524 98.156C87.0931 98.156 86.6641 98.0737 86.2654 97.909C85.8667 97.7357 85.5201 97.506 85.2254 97.22C84.9307 96.9253 84.6967 96.583 84.5234 96.193C84.3587 95.7943 84.2764 95.3697 84.2764 94.919ZM96.7012 93.476C96.4845 93.2507 96.2548 93.0817 96.0122 92.969C95.7782 92.8477 95.4965 92.787 95.1672 92.787C94.8465 92.787 94.5648 92.8477 94.3222 92.969C94.0882 93.0817 93.8888 93.242 93.7242 93.45C93.5682 93.6493 93.4468 93.8833 93.3602 94.152C93.2822 94.412 93.2432 94.685 93.2432 94.971C93.2432 95.257 93.2908 95.53 93.3862 95.79C93.4815 96.0413 93.6158 96.2623 93.7892 96.453C93.9625 96.6437 94.1705 96.7953 94.4132 96.908C94.6558 97.012 94.9288 97.064 95.2322 97.064C95.5615 97.064 95.8432 97.0077 96.0772 96.895C96.3112 96.7737 96.5278 96.6003 96.7272 96.375L97.5592 97.207C97.2558 97.545 96.9005 97.7877 96.4932 97.935C96.0945 98.0823 95.6698 98.156 95.2192 98.156C94.7425 98.156 94.3048 98.078 93.9062 97.922C93.5162 97.766 93.1782 97.5493 92.8922 97.272C92.6062 96.986 92.3852 96.648 92.2292 96.258C92.0732 95.8593 91.9952 95.4217 91.9952 94.945C91.9952 94.4683 92.0732 94.0307 92.2292 93.632C92.3852 93.2333 92.6018 92.891 92.8792 92.605C93.1652 92.319 93.5032 92.098 93.8932 91.942C94.2918 91.7773 94.7338 91.695 95.2192 91.695C95.6698 91.695 96.0988 91.7773 96.5062 91.942C96.9222 92.098 97.2818 92.3407 97.5852 92.67L96.7012 93.476ZM98.5916 92.592C98.921 92.2887 99.3023 92.0633 99.7356 91.916C100.169 91.76 100.602 91.682 101.036 91.682C101.486 91.682 101.872 91.7383 102.193 91.851C102.522 91.9637 102.791 92.1153 102.999 92.306C103.207 92.4967 103.358 92.7177 103.454 92.969C103.558 93.2117 103.61 93.4673 103.61 93.736V96.882C103.61 97.0987 103.614 97.298 103.623 97.48C103.631 97.662 103.644 97.8353 103.662 98H102.622C102.596 97.688 102.583 97.376 102.583 97.064H102.557C102.297 97.4627 101.989 97.7443 101.634 97.909C101.278 98.0737 100.867 98.156 100.399 98.156C100.113 98.156 99.8396 98.117 99.5796 98.039C99.3196 97.961 99.09 97.844 98.8906 97.688C98.7 97.532 98.5483 97.3413 98.4356 97.116C98.323 96.882 98.2666 96.6133 98.2666 96.31C98.2666 95.9113 98.3533 95.5777 98.5266 95.309C98.7086 95.0403 98.9513 94.8237 99.2546 94.659C99.5666 94.4857 99.9263 94.3643 100.334 94.295C100.75 94.217 101.192 94.178 101.66 94.178H102.518V93.918C102.518 93.762 102.487 93.606 102.427 93.45C102.366 93.294 102.275 93.1553 102.154 93.034C102.032 92.904 101.881 92.8043 101.699 92.735C101.517 92.657 101.3 92.618 101.049 92.618C100.823 92.618 100.624 92.6397 100.451 92.683C100.286 92.7263 100.134 92.7827 99.9956 92.852C99.857 92.9127 99.7313 92.9863 99.6186 93.073C99.506 93.1597 99.3976 93.242 99.2936 93.32L98.5916 92.592ZM101.894 95.036C101.616 95.036 101.33 95.0533 101.036 95.088C100.75 95.114 100.485 95.1703 100.243 95.257C100.009 95.3437 99.8136 95.465 99.6576 95.621C99.5103 95.777 99.4366 95.9763 99.4366 96.219C99.4366 96.5743 99.5536 96.83 99.7876 96.986C100.03 97.142 100.355 97.22 100.763 97.22C101.083 97.22 101.356 97.168 101.582 97.064C101.807 96.9513 101.989 96.8083 102.128 96.635C102.266 96.4617 102.366 96.271 102.427 96.063C102.487 95.8463 102.518 95.634 102.518 95.426V95.036H101.894ZM108.609 92.852H106.932V95.647C106.932 95.8203 106.936 95.9937 106.945 96.167C106.954 96.3317 106.984 96.4833 107.036 96.622C107.097 96.752 107.183 96.8603 107.296 96.947C107.417 97.025 107.591 97.064 107.816 97.064C107.955 97.064 108.098 97.051 108.245 97.025C108.392 96.999 108.527 96.9513 108.648 96.882V97.948C108.509 98.026 108.327 98.078 108.102 98.104C107.885 98.1387 107.716 98.156 107.595 98.156C107.144 98.156 106.793 98.0953 106.542 97.974C106.299 97.844 106.117 97.6793 105.996 97.48C105.883 97.2807 105.814 97.0597 105.788 96.817C105.771 96.5657 105.762 96.3143 105.762 96.063V92.852H104.41V91.838H105.762V90.109H106.932V91.838H108.609V92.852ZM110.209 91.838H111.379V98H110.209V91.838ZM109.936 89.628C109.936 89.394 110.019 89.1947 110.183 89.03C110.357 88.8567 110.56 88.77 110.794 88.77C111.028 88.77 111.228 88.8567 111.392 89.03C111.566 89.1947 111.652 89.394 111.652 89.628C111.652 89.862 111.566 90.0657 111.392 90.239C111.228 90.4037 111.028 90.486 110.794 90.486C110.56 90.486 110.357 90.4037 110.183 90.239C110.019 90.0657 109.936 89.862 109.936 89.628ZM114.19 94.919C114.19 95.231 114.238 95.5213 114.333 95.79C114.429 96.05 114.563 96.2753 114.736 96.466C114.91 96.648 115.122 96.7953 115.373 96.908C115.625 97.012 115.906 97.064 116.218 97.064C116.53 97.064 116.812 97.012 117.063 96.908C117.315 96.7953 117.527 96.648 117.7 96.466C117.874 96.2753 118.008 96.05 118.103 95.79C118.199 95.5213 118.246 95.231 118.246 94.919C118.246 94.607 118.199 94.321 118.103 94.061C118.008 93.7923 117.874 93.567 117.7 93.385C117.527 93.1943 117.315 93.047 117.063 92.943C116.812 92.8303 116.53 92.774 116.218 92.774C115.906 92.774 115.625 92.8303 115.373 92.943C115.122 93.047 114.91 93.1943 114.736 93.385C114.563 93.567 114.429 93.7923 114.333 94.061C114.238 94.321 114.19 94.607 114.19 94.919ZM112.942 94.919C112.942 94.4683 113.025 94.048 113.189 93.658C113.363 93.268 113.597 92.9257 113.891 92.631C114.186 92.3363 114.533 92.1067 114.931 91.942C115.33 91.7687 115.759 91.682 116.218 91.682C116.678 91.682 117.107 91.7687 117.505 91.942C117.904 92.1067 118.251 92.3363 118.545 92.631C118.84 92.9257 119.07 93.268 119.234 93.658C119.408 94.048 119.494 94.4683 119.494 94.919C119.494 95.3697 119.408 95.7943 119.234 96.193C119.07 96.583 118.84 96.9253 118.545 97.22C118.251 97.506 117.904 97.7357 117.505 97.909C117.107 98.0737 116.678 98.156 116.218 98.156C115.759 98.156 115.33 98.0737 114.931 97.909C114.533 97.7357 114.186 97.506 113.891 97.22C113.597 96.9253 113.363 96.583 113.189 96.193C113.025 95.7943 112.942 95.3697 112.942 94.919ZM120.96 91.838H122.13V92.787H122.156C122.304 92.4577 122.559 92.1933 122.923 91.994C123.287 91.786 123.708 91.682 124.184 91.682C124.479 91.682 124.761 91.7297 125.029 91.825C125.307 91.9117 125.545 92.0503 125.744 92.241C125.952 92.4317 126.117 92.6787 126.238 92.982C126.36 93.2767 126.42 93.6277 126.42 94.035V98H125.25V94.36C125.25 94.074 125.211 93.8313 125.133 93.632C125.055 93.424 124.951 93.2593 124.821 93.138C124.691 93.008 124.54 92.917 124.366 92.865C124.202 92.8043 124.028 92.774 123.846 92.774C123.604 92.774 123.378 92.813 123.17 92.891C122.962 92.969 122.78 93.0947 122.624 93.268C122.468 93.4327 122.347 93.645 122.26 93.905C122.174 94.165 122.13 94.4727 122.13 94.828V98H120.96V91.838ZM128.99 99.716H127.924L128.821 96.518H130.082L128.99 99.716ZM138.722 92.852H137.045V95.647C137.045 95.8203 137.049 95.9937 137.058 96.167C137.067 96.3317 137.097 96.4833 137.149 96.622C137.21 96.752 137.296 96.8603 137.409 96.947C137.53 97.025 137.704 97.064 137.929 97.064C138.068 97.064 138.211 97.051 138.358 97.025C138.505 96.999 138.64 96.9513 138.761 96.882V97.948C138.622 98.026 138.44 98.078 138.215 98.104C137.998 98.1387 137.829 98.156 137.708 98.156C137.257 98.156 136.906 98.0953 136.655 97.974C136.412 97.844 136.23 97.6793 136.109 97.48C135.996 97.2807 135.927 97.0597 135.901 96.817C135.884 96.5657 135.875 96.3143 135.875 96.063V92.852H134.523V91.838H135.875V90.109H137.045V91.838H138.722V92.852ZM140.258 92.592C140.587 92.2887 140.968 92.0633 141.402 91.916C141.835 91.76 142.268 91.682 142.702 91.682C143.152 91.682 143.538 91.7383 143.859 91.851C144.188 91.9637 144.457 92.1153 144.665 92.306C144.873 92.4967 145.024 92.7177 145.12 92.969C145.224 93.2117 145.276 93.4673 145.276 93.736V96.882C145.276 97.0987 145.28 97.298 145.289 97.48C145.297 97.662 145.31 97.8353 145.328 98H144.288C144.262 97.688 144.249 97.376 144.249 97.064H144.223C143.963 97.4627 143.655 97.7443 143.3 97.909C142.944 98.0737 142.533 98.156 142.065 98.156C141.779 98.156 141.506 98.117 141.246 98.039C140.986 97.961 140.756 97.844 140.557 97.688C140.366 97.532 140.214 97.3413 140.102 97.116C139.989 96.882 139.933 96.6133 139.933 96.31C139.933 95.9113 140.019 95.5777 140.193 95.309C140.375 95.0403 140.617 94.8237 140.921 94.659C141.233 94.4857 141.592 94.3643 142 94.295C142.416 94.217 142.858 94.178 143.326 94.178H144.184V93.918C144.184 93.762 144.153 93.606 144.093 93.45C144.032 93.294 143.941 93.1553 143.82 93.034C143.698 92.904 143.547 92.8043 143.365 92.735C143.183 92.657 142.966 92.618 142.715 92.618C142.489 92.618 142.29 92.6397 142.117 92.683C141.952 92.7263 141.8 92.7827 141.662 92.852C141.523 92.9127 141.397 92.9863 141.285 93.073C141.172 93.1597 141.064 93.242 140.96 93.32L140.258 92.592ZM143.56 95.036C143.282 95.036 142.996 95.0533 142.702 95.088C142.416 95.114 142.151 95.1703 141.909 95.257C141.675 95.3437 141.48 95.465 141.324 95.621C141.176 95.777 141.103 95.9763 141.103 96.219C141.103 96.5743 141.22 96.83 141.454 96.986C141.696 97.142 142.021 97.22 142.429 97.22C142.749 97.22 143.022 97.168 143.248 97.064C143.473 96.9513 143.655 96.8083 143.794 96.635C143.932 96.4617 144.032 96.271 144.093 96.063C144.153 95.8463 144.184 95.634 144.184 95.426V95.036H143.56ZM148.663 94.711L146.479 91.838H147.987L149.482 94.022L150.951 91.838H152.368L150.262 94.711L152.758 98H151.25L149.43 95.413L147.61 98H146.167L148.663 94.711ZM153.805 91.838H154.975V98H153.805V91.838ZM153.532 89.628C153.532 89.394 153.614 89.1947 153.779 89.03C153.952 88.8567 154.156 88.77 154.39 88.77C154.624 88.77 154.823 88.8567 154.988 89.03C155.161 89.1947 155.248 89.394 155.248 89.628C155.248 89.862 155.161 90.0657 154.988 90.239C154.823 90.4037 154.624 90.486 154.39 90.486C154.156 90.486 153.952 90.4037 153.779 90.239C153.614 90.0657 153.532 89.862 153.532 89.628ZM164.099 98.572L163.189 98.234L167.349 88.224L168.246 88.562L164.099 98.572ZM171.782 88.796H173.225L175.929 96.284H175.955L178.763 88.796H180.128L176.501 98H175.331L171.782 88.796ZM183.156 89.966H180.192V88.796H187.368V89.966H184.404V98H183.156V89.966ZM195.106 90.785C194.846 90.447 194.516 90.187 194.118 90.005C193.719 89.823 193.307 89.732 192.883 89.732C192.363 89.732 191.89 89.8317 191.466 90.031C191.05 90.2217 190.69 90.486 190.387 90.824C190.092 91.162 189.862 91.5607 189.698 92.02C189.533 92.4707 189.451 92.956 189.451 93.476C189.451 93.9613 189.529 94.4207 189.685 94.854C189.841 95.2873 190.066 95.6687 190.361 95.998C190.655 96.3273 191.015 96.5873 191.44 96.778C191.864 96.9687 192.345 97.064 192.883 97.064C193.411 97.064 193.875 96.9557 194.274 96.739C194.672 96.5223 195.01 96.219 195.288 95.829L196.341 96.622C196.271 96.7173 196.15 96.856 195.977 97.038C195.803 97.2113 195.574 97.389 195.288 97.571C195.002 97.7443 194.655 97.896 194.248 98.026C193.849 98.1647 193.385 98.234 192.857 98.234C192.129 98.234 191.47 98.0953 190.881 97.818C190.3 97.5407 189.802 97.1767 189.386 96.726C188.978 96.2753 188.666 95.7683 188.45 95.205C188.233 94.633 188.125 94.0567 188.125 93.476C188.125 92.7653 188.242 92.111 188.476 91.513C188.71 90.9063 189.035 90.3863 189.451 89.953C189.875 89.511 190.382 89.1687 190.972 88.926C191.561 88.6833 192.211 88.562 192.922 88.562C193.528 88.562 194.122 88.679 194.703 88.913C195.292 89.147 195.773 89.5067 196.146 89.992L195.106 90.785ZM198.474 98.078C198.24 98.078 198.036 97.9957 197.863 97.831C197.698 97.6577 197.616 97.454 197.616 97.22C197.616 96.986 197.698 96.7867 197.863 96.622C198.036 96.4487 198.24 96.362 198.474 96.362C198.708 96.362 198.907 96.4487 199.072 96.622C199.245 96.7867 199.332 96.986 199.332 97.22C199.332 97.454 199.245 97.6577 199.072 97.831C198.907 97.9957 198.708 98.078 198.474 98.078ZM202.092 98.078C201.858 98.078 201.654 97.9957 201.481 97.831C201.316 97.6577 201.234 97.454 201.234 97.22C201.234 96.986 201.316 96.7867 201.481 96.622C201.654 96.4487 201.858 96.362 202.092 96.362C202.326 96.362 202.525 96.4487 202.69 96.622C202.863 96.7867 202.95 96.986 202.95 97.22C202.95 97.454 202.863 97.6577 202.69 97.831C202.525 97.9957 202.326 98.078 202.092 98.078ZM205.71 98.078C205.476 98.078 205.273 97.9957 205.099 97.831C204.935 97.6577 204.852 97.454 204.852 97.22C204.852 96.986 204.935 96.7867 205.099 96.622C205.273 96.4487 205.476 96.362 205.71 96.362C205.944 96.362 206.144 96.4487 206.308 96.622C206.482 96.7867 206.568 96.986 206.568 97.22C206.568 97.454 206.482 97.6577 206.308 97.831C206.144 97.9957 205.944 98.078 205.71 98.078Z" fill="#9DA0A5"/>
<path d="M218.98 45.4L219.21 45.38M249.74 38.38C249.74 38.38 249.79 38.38 249.8 38.38M223.29 30.94C223.41 30.84 223.57 30.6 223.78 30.26C223.98 29.92 224.19 29.51 224.43 29.08C224.89 28.23 225.42 27.27 225.96 26.74C227.05 25.66 228.48 25.67 228.71 25.67H240.32C241.16 25.67 242.44 25.87 243.28 26.88C243.28 26.88 243.1 27.03 243.11 27.03C243.11 27.03 243.28 26.88 243.3 26.9L244.88 29.12C245.23 29.61 245.41 30.07 245.35 30.5C245.29 30.94 244.99 31.27 244.56 31.51C244.13 31.75 243.53 31.92 242.81 32.03C242.08 32.14 241.21 32.19 238.38 32.19H225.94C225.04 32.19 224.22 32.17 223.37 32.55C222.86 32.78 222.38 33.05 221.85 33.23C221.67 33.29 221.49 33.34 221.32 33.43C220.98 33.62 220.86 34.04 220.67 34.35C220.4 34.79 220.15 35.25 219.95 35.73C218.71 38.73 218.54 42.78 218.76 45.44C218.76 46.54 219.02 47.19 219.37 47.56C219.72 47.94 220.13 48 220.35 48H222.7C223.41 48 223.86 47.82 224.1 47.43C224.21 47.24 224.27 47.03 224.29 46.81C224.32 46.59 224.32 46.35 224.32 46.09C224.32 45.81 224.48 45.62 224.77 45.49C225.06 45.36 225.44 45.31 225.77 45.31C230.89 45.42 241.57 45.31 243.49 45.31C244.5 45.31 244.94 45.56 245.14 45.78C245.34 46.01 245.34 46.26 245.34 46.43C245.34 47.27 245.57 47.72 245.96 47.91C246.14 48 246.34 48.02 246.5 48.02C246.58 48.02 246.66 48.02 246.73 48.02C246.8 48.02 246.86 48.02 246.9 48.02H249.33C250.09 48.02 250.52 47.4 250.76 46.64C251.01 45.86 251.09 44.84 251.09 43.8C251.09 42.76 251 41.69 250.9 40.81C250.79 39.94 250.66 39.25 250.57 38.97C250.46 38.65 250.36 38.4 250.24 38.23C250.18 38.14 250.1 38.07 250 38.02C249.9 37.97 249.79 37.96 249.68 37.97C249.48 38 249.27 38.11 249.05 38.26C248.82 38.41 248.53 38.62 248.18 38.86C248.03 38.96 247.75 39.05 247.36 39.1C246.98 39.15 246.52 39.15 246.04 39.1C245.16 39.01 244.26 38.74 243.6 38.3L243.24 38.02C243.01 37.81 242.83 37.57 242.74 37.3C242.5 36.58 242.13 36.19 241.7 35.99C241.28 35.8 240.84 35.8 240.48 35.8C238.49 35.8 236.02 35.8 233.88 35.8C231.74 35.8 229.92 35.8 229.24 35.8C228.51 35.8 228.02 36.01 227.71 36.33C227.4 36.65 227.31 37.05 227.31 37.37C227.31 37.46 227.25 37.59 227.07 37.76C226.55 38.24 225.8 38.54 225.21 38.95C224.7 39.3 224.08 39.62 223.44 39.62C223.07 39.62 222.62 39.55 222.17 39.42C221.72 39.29 221.27 39.08 220.93 38.8C220.58 38.52 220.32 38.15 220.32 37.67C220.32 37.21 220.58 36.71 221.12 36.19C221.45 35.87 221.88 35.78 222.33 35.82C222.78 35.86 223.27 36.04 223.75 36.28C224.82 36.82 225.93 37.33 226.37 38.51C226.67 39.33 227.4 39.65 228 40.22C228.22 40.43 228.58 40.59 229.01 40.71C229.45 40.84 229.98 40.95 230.59 41.03C231.8 41.2 233.28 41.28 234.77 41.28C236.26 41.28 237.75 41.2 238.98 41.03C239.59 40.95 240.15 40.84 240.6 40.71C241.04 40.58 241.42 40.42 241.66 40.22C242.31 39.67 242.83 39.13 243.3 38.63L243.84 38.05C244.86 36.97 245.72 36.24 247.31 36.24C248.14 36.24 248.54 36.4 248.81 36.52C248.94 36.58 249.09 36.65 249.25 36.67C249.43 36.69 249.6 36.66 249.8 36.56C249.93 36.49 250.03 36.39 250.09 36.26C250.14 36.13 250.16 36 250.14 35.86C250.12 35.59 250 35.29 249.83 34.98C249.49 34.36 248.9 33.67 248.25 33.16C247.91 32.89 247.56 32.61 247.22 32.34C247.01 32.17 246.72 32 246.6 31.74C246.54 31.62 246.53 31.48 246.5 31.34C246.47 31.2 246.43 31.05 246.44 30.9C246.46 30.54 246.78 30.31 247.07 30.15C247.37 29.99 247.71 29.9 248.05 29.85C248.7 29.76 249.37 29.8 249.97 30.06C250.29 30.2 250.61 30.44 250.68 30.78C250.7 30.88 250.7 30.98 250.67 31.07C250.6 31.27 250.38 31.37 250.18 31.43C249.81 31.54 249.42 31.56 249.04 31.55C248.55 31.55 248.06 31.52 247.57 31.45C247.32 31.42 247.08 31.38 246.83 31.32C246.71 31.29 246.59 31.26 246.47 31.23C246.39 31.21 246.23 31.19 246.18 31.11C246.17 31.09 246.16 31.07 246.16 31.05C246.11 30.86 246.07 30.66 246.08 30.47C246.1 30.13 246.29 29.75 246.49 29.48C246.64 29.27 246.82 29.07 247.01 28.89C247.7 28.24 248.41 27.96 249.12 27.93H249.35C256.84 29.17 258.44 36.13 262.62 40.05C264.37 41.7 266.49 43.06 268.86 43.47C273.78 44.32 278.2 40.4 282.45 38.42C290.29 34.76 296.24 37.3 304.07 39.4C310.54 41.14 316.29 41.39 319.16 34.19C320.16 31.68 321.62 29.51 323.1 27.25C323.9 26.02 324.72 24.77 325.85 23.84C326.98 22.91 328.49 22.33 329.92 22.65M104.27 40.31C104.29 40.45 104.36 40.65 104.5 40.82C104.65 41 104.89 41.13 105.22 41.13C105.55 41.13 105.78 40.99 105.92 40.8C106.05 40.62 106.09 40.41 106.09 40.27V39.71H106.92C107.1 39.71 107.37 39.66 107.61 39.5C107.85 39.33 108.04 39.04 108.04 38.62V38.01C108.01 37.9 108.01 37.72 108.11 37.55C108.2 37.4 108.4 37.23 108.8 37.14L109.26 37.05M104.27 40.29V40.26C104.27 39.99 104.15 39.83 104 39.72C103.84 39.6 103.64 39.55 103.51 39.54H94.94C94.66 39.54 94.5 39.66 94.41 39.79C94.31 39.93 94.28 40.1 94.28 40.18C94.28 40.34 94.23 40.57 94.08 40.76C93.93 40.97 93.68 41.12 93.32 41.12C93.02 41.12 92.8 40.98 92.66 40.8C92.53 40.63 92.47 40.44 92.45 40.3V39.69C91.92 39.63 91.54 39.38 91.3 39.06C91.03 38.7 90.93 38.28 90.91 38V20.95C90.91 20.17 91.28 19.65 91.73 19.32C92.18 18.99 92.7 18.86 93.06 18.83M93.07 18.83H94.95C95.08 18.83 95.13 18.79 95.16 18.75C95.2 18.7 95.21 18.59 95.21 18.59V17.8C95.21 17.12 95.52 16.67 95.91 16.39C96.29 16.12 96.74 16.01 97.04 16H102.96C103.59 16 104.03 16.29 104.3 16.65C104.57 17 104.69 17.42 104.72 17.7V18.26C104.72 18.47 104.66 18.83 104.98 18.83H106.92C107.83 18.83 108.43 19.2 108.79 19.69C109.14 20.16 109.26 20.72 109.26 21.1V40.28C109.26 40.99 108.95 41.45 108.56 41.72C108.18 41.99 107.72 42.08 107.42 42.08H96.53C91.67 42.08 89.01 41.88 87.29 41.54C85.57 41.2 84.81 40.74 83.78 40.24C83.22 39.97 82.74 39.65 82.29 39.35C81.84 39.05 81.42 38.76 80.96 38.52C80.06 38.05 78.98 37.76 77.2 38.01C75.44 38.26 74.2 39.07 72.87 40.11C71.54 41.15 70.1 42.42 67.98 43.5C66.7 44.15 64.79 44.28 63.75 44.28C61.41 44.31 51.03 44.64 38.35 43.78C33.31 43.44 27.91 42.9 22.5 42.08C18.14 41.42 13.75 40.92 9.45 39.94C4.32 38.76 0.43 36.49 -4 33.73M114.34 36.35C114.69 36.28 115.53 36.34 116.05 37.12C116.3 37.49 116.32 37.91 116.24 38.3C116.16 38.69 115.97 39.03 115.82 39.22L115.02 40.46C115.02 40.46 113.63 42.61 113.62 42.62C113.49 42.85 113.37 43.23 113.41 43.65C113.45 44.08 113.66 44.53 114.17 44.89C114.68 45.24 116.66 45.12 116.92 44.98C117.43 44.69 118.45 44.32 119.77 43.93C121.09 43.54 122.7 43.14 124.41 42.78C127.83 42.05 131.59 41.48 134.09 41.48C135.78 41.48 136.78 41.04 137.57 40.54C137.77 40.42 137.95 40.29 138.12 40.17C138.3 40.05 138.46 39.93 138.63 39.83C138.96 39.62 139.29 39.45 139.69 39.35C140.21 39.25 140.56 39.21 140.8 39.23C141.04 39.25 141.18 39.31 141.32 39.43C141.48 39.56 141.62 39.74 141.86 40.01C142.09 40.28 142.38 40.61 142.82 41C143.27 41.41 143.49 41.7 143.81 42.07C144.14 42.43 144.55 42.83 145.36 43.4C145.87 43.76 146.63 44.08 147.65 44.37C148.67 44.65 149.96 44.9 151.53 45.1C154.67 45.5 158.95 45.71 164.49 45.63C175.62 45.46 181.67 43.3 183.27 42.44C183.67 42.23 183.91 42.05 184.06 41.88C184.22 41.7 184.27 41.54 184.3 41.41C184.33 41.28 184.34 41.22 184.4 41.13C184.46 41.04 184.58 40.91 184.87 40.73C185.53 40.32 185.84 39.77 185.79 39.2C185.73 38.64 185.33 38.15 184.72 37.83C183.57 37.23 181.96 36.72 181.47 36.63C181.36 36.61 181.23 36.63 181.13 36.72C181.05 36.8 181.02 36.91 181 36.99C180.97 37.16 180.98 37.38 181 37.6C181.03 38.07 181.09 38.61 181 39.03C180.96 39.19 180.82 39.47 180.37 39.81C179.92 40.14 179.19 40.52 178.02 40.87C175.67 41.58 171.57 42.18 164.54 42.18C150.72 42.18 148.14 40.96 146.61 39.85C146.56 38.56 147.03 34.75 149.14 31.07C151.26 27.38 155.02 23.84 161.57 23.17L162.42 23.11C162.9 23.08 163.38 23.05 163.89 23.05C164.49 23.05 164.92 23 165.23 22.91C165.38 22.87 165.51 22.81 165.61 22.75C165.71 22.69 165.79 22.6 165.84 22.49C165.94 22.24 165.77 22.03 165.62 21.93C165.5 21.85 165.34 21.81 165.17 21.78C165.49 21.68 165.81 21.58 166.08 21.47C166.38 21.35 166.65 21.2 166.85 21.04C167.05 20.87 167.19 20.64 167.15 20.36C167.11 20.1 166.95 19.81 166.74 19.54C166.52 19.26 166.23 18.98 165.91 18.72C165.59 18.46 165.23 18.22 164.88 18.05C164.53 17.88 164.16 17.76 163.82 17.74C163.16 17.72 162.43 18.04 161.84 18.49C161.25 18.94 160.74 19.54 160.53 20.12C160.42 20.43 160.51 20.71 160.71 20.94C160.9 21.16 161.18 21.34 161.51 21.49C161.92 21.68 162.42 21.83 162.93 21.95C162.76 22 162.58 22.06 162.44 22.12C162.25 22.2 162.08 22.28 161.95 22.37C161.86 22.44 161.75 22.56 161.73 22.68C161.68 22.94 161.84 23.24 162.03 23.39C162.17 23.5 162.33 23.6 162.51 23.68C162.82 23.82 163.3 23.89 163.76 23.92C164.22 23.94 164.69 23.92 165.01 23.87C165.2 23.84 165.38 23.76 165.56 23.69C165.74 23.62 165.91 23.54 166.11 23.47C166.5 23.34 166.97 23.26 167.64 23.39C168.41 23.54 170.94 24.21 173.56 25.88C176.18 27.55 178.88 30.22 180.05 34.38C180.2 34.93 180.66 35.33 181.23 35.61C181.81 35.89 182.53 36.06 183.29 36.15C184.8 36.31 186.5 36.11 187.51 35.57C189.73 34.38 192.51 34.21 194.22 34.63C194.64 34.74 194.99 34.88 195.24 35.04C195.49 35.2 195.63 35.38 195.68 35.54C195.72 35.7 195.7 35.89 195.53 36.13C195.36 36.38 195.05 36.66 194.55 36.96C193.26 37.75 192.55 38.56 192.39 39.35C192.23 40.17 192.67 40.87 193.44 41.4C194.21 41.92 195.34 42.3 196.69 42.48C198.04 42.66 199.61 42.66 201.27 42.41L204.19 42L204.61 41.92C207.62 41.56 209.86 39.35 211.97 37.14C213.67 35.36 215.49 33.61 217.91 32.89C218.22 32.8 218.54 32.72 218.86 32.75C219.12 32.77 219.37 32.86 219.62 32.92C220.85 33.22 222.32 32.92 222.94 31.72C222.94 31.71 222.94 31.7 222.94 31.69C223.01 31.47 223.21 31.12 223.2 30.89C223.2 30.77 223.12 30.67 223.03 30.6C222.37 30.05 221.5 29.67 220.62 29.67C220.18 29.67 219.64 29.67 219.21 29.84C218.99 29.93 218.78 30.08 218.64 30.3C218.5 30.52 218.42 30.8 218.42 31.15C218.42 31.62 218.8 31.88 219.21 32C219.63 32.13 220.18 32.16 220.73 32.13C221.29 32.1 221.88 32 222.39 31.87C222.51 31.84 222.64 31.81 222.75 31.76C222.89 31.69 223.01 31.42 223.1 31.29L223.31 30.98M109.28 37.09C110.52 36.89 114.36 36.36 114.36 36.36M104.12 26.7V34.98M95.24 26.7V34.98" stroke="#8DE8FE" stroke-width="2" stroke-linecap="round" stroke-linejoin="round"/>
</g>
<defs>
<clipPath id="clip0_211_56320">
<rect width="328" height="119" fill="white"/>
</clipPath>
</defs>
</svg>
