<svg width="360" height="56" viewBox="0 0 360 56" fill="none" xmlns="http://www.w3.org/2000/svg">
<rect width="360" height="56" fill="#0C131F"/>
<path d="M47.6937 24.884C46.9464 21.1206 44.8717 17.751 41.8477 15.3895C38.8236 13.028 35.0517 11.8319 31.2194 12.0191C27.3871 12.2063 23.7497 13.7644 20.9702 16.4094C18.1907 19.0544 16.4543 22.6101 16.0774 26.4284C15.7005 30.2467 16.7083 34.0733 18.9171 37.2107C21.1258 40.348 24.3884 42.5872 28.1102 43.52C31.8319 44.4528 35.765 44.0171 39.1923 42.2924C42.6197 40.5676 45.3131 37.6687 46.7817 34.124C47.9923 31.2018 48.3097 27.9864 47.6937 24.884ZM38.1497 28.628C37.9875 28.7874 37.7691 28.8766 37.5417 28.876L28.9097 28.876L32.2697 32.156C32.3501 32.2353 32.4128 32.3307 32.4537 32.436C32.5391 32.6463 32.5391 32.8817 32.4537 33.092C32.3572 33.2956 32.1933 33.4595 31.9897 33.556C31.8852 33.5972 31.774 33.6189 31.6617 33.62C31.5485 33.6195 31.4367 33.5949 31.3337 33.548C31.2284 33.5071 31.133 33.4444 31.0537 33.364L25.5977 28.004L30.8937 22.652C30.973 22.5716 31.0684 22.5089 31.1737 22.468C31.384 22.3826 31.6193 22.3826 31.8297 22.468C31.9354 22.5081 32.0315 22.5702 32.1114 22.6502C32.1914 22.7302 32.2535 22.8262 32.2937 22.932C32.3791 23.1423 32.3791 23.3777 32.2937 23.588C32.2528 23.6933 32.1901 23.7887 32.1097 23.868L28.8697 27.148H37.5417C37.7118 27.1469 37.8783 27.1965 38.0201 27.2905C38.1619 27.3845 38.2724 27.5186 38.3377 27.6757C38.4029 27.8327 38.4199 28.0057 38.3864 28.1725C38.3529 28.3392 38.2705 28.4923 38.1497 28.612V28.628Z" fill="#F3F3F8"/>
<path d="M65.422 21.256H67.69V26.332H73.648V21.256H75.916V34H73.648V28.384H67.69V34H65.422V21.256ZM78.1338 29.68C78.1338 28.996 78.2538 28.378 78.4938 27.826C78.7458 27.262 79.0818 26.782 79.5018 26.386C79.9218 25.99 80.4198 25.684 80.9958 25.468C81.5718 25.252 82.1838 25.144 82.8318 25.144C83.4798 25.144 84.0918 25.252 84.6678 25.468C85.2438 25.684 85.7418 25.99 86.1618 26.386C86.5818 26.782 86.9118 27.262 87.1518 27.826C87.4038 28.378 87.5298 28.996 87.5298 29.68C87.5298 30.364 87.4038 30.988 87.1518 31.552C86.9118 32.104 86.5818 32.578 86.1618 32.974C85.7418 33.37 85.2438 33.676 84.6678 33.892C84.0918 34.108 83.4798 34.216 82.8318 34.216C82.1838 34.216 81.5718 34.108 80.9958 33.892C80.4198 33.676 79.9218 33.37 79.5018 32.974C79.0818 32.578 78.7458 32.104 78.4938 31.552C78.2538 30.988 78.1338 30.364 78.1338 29.68ZM80.2938 29.68C80.2938 30.016 80.3478 30.34 80.4558 30.652C80.5758 30.964 80.7438 31.24 80.9598 31.48C81.1878 31.72 81.4578 31.912 81.7698 32.056C82.0818 32.2 82.4358 32.272 82.8318 32.272C83.2278 32.272 83.5818 32.2 83.8938 32.056C84.2058 31.912 84.4698 31.72 84.6858 31.48C84.9138 31.24 85.0818 30.964 85.1898 30.652C85.3098 30.34 85.3698 30.016 85.3698 29.68C85.3698 29.344 85.3098 29.02 85.1898 28.708C85.0818 28.396 84.9138 28.12 84.6858 27.88C84.4698 27.64 84.2058 27.448 83.8938 27.304C83.5818 27.16 83.2278 27.088 82.8318 27.088C82.4358 27.088 82.0818 27.16 81.7698 27.304C81.4578 27.448 81.1878 27.64 80.9598 27.88C80.7438 28.12 80.5758 28.396 80.4558 28.708C80.3478 29.02 80.2938 29.344 80.2938 29.68ZM89.5521 25.36H91.7121V26.728H91.7481C91.9881 26.224 92.3301 25.834 92.7741 25.558C93.2181 25.282 93.7281 25.144 94.3041 25.144C94.4361 25.144 94.5621 25.156 94.6821 25.18C94.8141 25.204 94.9461 25.234 95.0781 25.27V27.358C94.8981 27.31 94.7181 27.274 94.5381 27.25C94.3701 27.214 94.2021 27.196 94.0341 27.196C93.5301 27.196 93.1221 27.292 92.8101 27.484C92.5101 27.664 92.2761 27.874 92.1081 28.114C91.9521 28.354 91.8441 28.594 91.7841 28.834C91.7361 29.074 91.7121 29.254 91.7121 29.374V34H89.5521V25.36ZM101.948 32.812H101.894C101.582 33.304 101.186 33.664 100.706 33.892C100.226 34.108 99.6982 34.216 99.1222 34.216C98.7262 34.216 98.3362 34.162 97.9522 34.054C97.5802 33.946 97.2442 33.784 96.9442 33.568C96.6562 33.352 96.4222 33.082 96.2422 32.758C96.0622 32.434 95.9722 32.056 95.9722 31.624C95.9722 31.156 96.0562 30.76 96.2242 30.436C96.3922 30.1 96.6142 29.824 96.8902 29.608C97.1782 29.38 97.5082 29.2 97.8802 29.068C98.2522 28.936 98.6362 28.84 99.0322 28.78C99.4402 28.708 99.8482 28.666 100.256 28.654C100.664 28.63 101.048 28.618 101.408 28.618H101.948V28.384C101.948 27.844 101.762 27.442 101.39 27.178C101.018 26.902 100.544 26.764 99.9682 26.764C99.5122 26.764 99.0862 26.848 98.6902 27.016C98.2942 27.172 97.9522 27.388 97.6642 27.664L96.5302 26.53C97.0102 26.038 97.5682 25.684 98.2042 25.468C98.8522 25.252 99.5182 25.144 100.202 25.144C100.814 25.144 101.33 25.216 101.75 25.36C102.17 25.492 102.518 25.666 102.794 25.882C103.07 26.098 103.28 26.35 103.424 26.638C103.58 26.914 103.688 27.196 103.748 27.484C103.82 27.772 103.862 28.054 103.874 28.33C103.886 28.594 103.892 28.828 103.892 29.032V34H101.948V32.812ZM101.822 30.13H101.372C101.072 30.13 100.736 30.142 100.364 30.166C99.9922 30.19 99.6382 30.25 99.3022 30.346C98.9782 30.43 98.7022 30.562 98.4742 30.742C98.2462 30.91 98.1322 31.15 98.1322 31.462C98.1322 31.666 98.1742 31.84 98.2582 31.984C98.3542 32.116 98.4742 32.23 98.6182 32.326C98.7622 32.422 98.9242 32.494 99.1042 32.542C99.2842 32.578 99.4642 32.596 99.6442 32.596C100.388 32.596 100.934 32.422 101.282 32.074C101.642 31.714 101.822 31.228 101.822 30.616V30.13ZM106.252 25.36H108.412V34H106.252V25.36ZM105.946 22.426C105.946 22.078 106.072 21.778 106.324 21.526C106.588 21.262 106.918 21.13 107.314 21.13C107.71 21.13 108.04 21.256 108.304 21.508C108.58 21.748 108.718 22.054 108.718 22.426C108.718 22.798 108.58 23.11 108.304 23.362C108.04 23.602 107.71 23.722 107.314 23.722C106.918 23.722 106.588 23.596 106.324 23.344C106.072 23.08 105.946 22.774 105.946 22.426ZM110.892 25.36H113.052V26.728H113.088C113.328 26.224 113.67 25.834 114.114 25.558C114.558 25.282 115.068 25.144 115.644 25.144C115.776 25.144 115.902 25.156 116.022 25.18C116.154 25.204 116.286 25.234 116.418 25.27V27.358C116.238 27.31 116.058 27.274 115.878 27.25C115.71 27.214 115.542 27.196 115.374 27.196C114.87 27.196 114.462 27.292 114.15 27.484C113.85 27.664 113.616 27.874 113.448 28.114C113.292 28.354 113.184 28.594 113.124 28.834C113.076 29.074 113.052 29.254 113.052 29.374V34H110.892V25.36ZM119.3 30.436C119.372 31.084 119.624 31.588 120.056 31.948C120.488 32.308 121.01 32.488 121.622 32.488C122.162 32.488 122.612 32.38 122.972 32.164C123.344 31.936 123.668 31.654 123.944 31.318L125.492 32.488C124.988 33.112 124.424 33.556 123.8 33.82C123.176 34.084 122.522 34.216 121.838 34.216C121.19 34.216 120.578 34.108 120.002 33.892C119.426 33.676 118.928 33.37 118.508 32.974C118.088 32.578 117.752 32.104 117.5 31.552C117.26 30.988 117.14 30.364 117.14 29.68C117.14 28.996 117.26 28.378 117.5 27.826C117.752 27.262 118.088 26.782 118.508 26.386C118.928 25.99 119.426 25.684 120.002 25.468C120.578 25.252 121.19 25.144 121.838 25.144C122.438 25.144 122.984 25.252 123.476 25.468C123.98 25.672 124.406 25.972 124.754 26.368C125.114 26.764 125.39 27.256 125.582 27.844C125.786 28.42 125.888 29.086 125.888 29.842V30.436H119.3ZM123.728 28.816C123.716 28.18 123.518 27.682 123.134 27.322C122.75 26.95 122.216 26.764 121.532 26.764C120.884 26.764 120.368 26.95 119.984 27.322C119.612 27.694 119.384 28.192 119.3 28.816H123.728ZM132.516 27.754C132.096 27.166 131.532 26.872 130.824 26.872C130.536 26.872 130.254 26.944 129.978 27.088C129.702 27.232 129.564 27.466 129.564 27.79C129.564 28.054 129.678 28.246 129.906 28.366C130.134 28.486 130.422 28.588 130.77 28.672C131.118 28.756 131.49 28.846 131.886 28.942C132.294 29.026 132.672 29.164 133.02 29.356C133.368 29.536 133.656 29.788 133.884 30.112C134.112 30.436 134.226 30.88 134.226 31.444C134.226 31.96 134.112 32.398 133.884 32.758C133.668 33.106 133.38 33.388 133.02 33.604C132.672 33.82 132.276 33.976 131.832 34.072C131.388 34.168 130.944 34.216 130.5 34.216C129.828 34.216 129.21 34.12 128.646 33.928C128.082 33.736 127.578 33.388 127.134 32.884L128.574 31.534C128.85 31.846 129.144 32.104 129.456 32.308C129.78 32.5 130.17 32.596 130.626 32.596C130.782 32.596 130.944 32.578 131.112 32.542C131.28 32.506 131.436 32.446 131.58 32.362C131.724 32.278 131.838 32.176 131.922 32.056C132.018 31.924 132.066 31.774 132.066 31.606C132.066 31.306 131.952 31.084 131.724 30.94C131.496 30.796 131.208 30.682 130.86 30.598C130.512 30.502 130.134 30.418 129.726 30.346C129.33 30.262 128.958 30.136 128.61 29.968C128.262 29.788 127.974 29.542 127.746 29.23C127.518 28.918 127.404 28.486 127.404 27.934C127.404 27.454 127.5 27.04 127.692 26.692C127.896 26.332 128.16 26.038 128.484 25.81C128.808 25.582 129.18 25.414 129.6 25.306C130.02 25.198 130.446 25.144 130.878 25.144C131.454 25.144 132.024 25.246 132.588 25.45C133.152 25.642 133.608 25.978 133.956 26.458L132.516 27.754ZM142.96 30.436C143.032 31.084 143.284 31.588 143.716 31.948C144.148 32.308 144.67 32.488 145.282 32.488C145.822 32.488 146.272 32.38 146.632 32.164C147.004 31.936 147.328 31.654 147.604 31.318L149.152 32.488C148.648 33.112 148.084 33.556 147.46 33.82C146.836 34.084 146.182 34.216 145.498 34.216C144.85 34.216 144.238 34.108 143.662 33.892C143.086 33.676 142.588 33.37 142.168 32.974C141.748 32.578 141.412 32.104 141.16 31.552C140.92 30.988 140.8 30.364 140.8 29.68C140.8 28.996 140.92 28.378 141.16 27.826C141.412 27.262 141.748 26.782 142.168 26.386C142.588 25.99 143.086 25.684 143.662 25.468C144.238 25.252 144.85 25.144 145.498 25.144C146.098 25.144 146.644 25.252 147.136 25.468C147.64 25.672 148.066 25.972 148.414 26.368C148.774 26.764 149.05 27.256 149.242 27.844C149.446 28.42 149.548 29.086 149.548 29.842V30.436H142.96ZM147.388 28.816C147.376 28.18 147.178 27.682 146.794 27.322C146.41 26.95 145.876 26.764 145.192 26.764C144.544 26.764 144.028 26.95 143.644 27.322C143.272 27.694 143.044 28.192 142.96 28.816H147.388ZM151.568 25.36H153.62V26.746H153.656C153.86 26.314 154.172 25.942 154.592 25.63C155.012 25.306 155.582 25.144 156.302 25.144C156.878 25.144 157.364 25.24 157.76 25.432C158.168 25.624 158.498 25.876 158.75 26.188C159.002 26.5 159.182 26.86 159.29 27.268C159.398 27.676 159.452 28.102 159.452 28.546V34H157.292V29.626C157.292 29.386 157.28 29.122 157.256 28.834C157.232 28.534 157.166 28.258 157.058 28.006C156.962 27.742 156.806 27.526 156.59 27.358C156.374 27.178 156.08 27.088 155.708 27.088C155.348 27.088 155.042 27.148 154.79 27.268C154.55 27.388 154.346 27.55 154.178 27.754C154.022 27.958 153.908 28.192 153.836 28.456C153.764 28.72 153.728 28.996 153.728 29.284V34H151.568V25.36ZM176.122 25.36V33.226C176.122 34.006 176.026 34.708 175.834 35.332C175.642 35.968 175.342 36.502 174.934 36.934C174.538 37.378 174.034 37.72 173.422 37.96C172.81 38.2 172.084 38.32 171.244 38.32C170.44 38.32 169.678 38.218 168.958 38.014C168.238 37.81 167.572 37.438 166.96 36.898L168.256 35.134C168.688 35.53 169.138 35.836 169.606 36.052C170.074 36.268 170.614 36.376 171.226 36.376C171.742 36.376 172.174 36.304 172.522 36.16C172.882 36.016 173.164 35.818 173.368 35.566C173.584 35.314 173.734 35.008 173.818 34.648C173.914 34.3 173.962 33.91 173.962 33.478V32.848H173.926C173.614 33.268 173.2 33.586 172.684 33.802C172.168 34.006 171.64 34.108 171.1 34.108C170.452 34.108 169.864 33.994 169.336 33.766C168.808 33.526 168.352 33.208 167.968 32.812C167.596 32.416 167.308 31.948 167.104 31.408C166.9 30.868 166.798 30.292 166.798 29.68C166.798 29.044 166.894 28.45 167.086 27.898C167.278 27.346 167.56 26.866 167.932 26.458C168.304 26.05 168.748 25.732 169.264 25.504C169.792 25.264 170.392 25.144 171.064 25.144C171.676 25.144 172.246 25.264 172.774 25.504C173.302 25.744 173.722 26.128 174.034 26.656H174.07V25.36H176.122ZM171.514 27.088C171.13 27.088 170.782 27.154 170.47 27.286C170.158 27.406 169.888 27.58 169.66 27.808C169.444 28.024 169.27 28.294 169.138 28.618C169.018 28.93 168.958 29.278 168.958 29.662C168.958 30.01 169.018 30.334 169.138 30.634C169.27 30.934 169.45 31.198 169.678 31.426C169.906 31.654 170.176 31.834 170.488 31.966C170.8 32.098 171.136 32.164 171.496 32.164C171.892 32.164 172.246 32.098 172.558 31.966C172.882 31.834 173.152 31.66 173.368 31.444C173.596 31.216 173.77 30.946 173.89 30.634C174.01 30.322 174.07 29.986 174.07 29.626C174.07 28.87 173.842 28.258 173.386 27.79C172.93 27.322 172.306 27.088 171.514 27.088ZM183.968 32.812H183.914C183.602 33.304 183.206 33.664 182.726 33.892C182.246 34.108 181.718 34.216 181.142 34.216C180.746 34.216 180.356 34.162 179.972 34.054C179.6 33.946 179.264 33.784 178.964 33.568C178.676 33.352 178.442 33.082 178.262 32.758C178.082 32.434 177.992 32.056 177.992 31.624C177.992 31.156 178.076 30.76 178.244 30.436C178.412 30.1 178.634 29.824 178.91 29.608C179.198 29.38 179.528 29.2 179.9 29.068C180.272 28.936 180.656 28.84 181.052 28.78C181.46 28.708 181.868 28.666 182.276 28.654C182.684 28.63 183.068 28.618 183.428 28.618H183.968V28.384C183.968 27.844 183.782 27.442 183.41 27.178C183.038 26.902 182.564 26.764 181.988 26.764C181.532 26.764 181.106 26.848 180.71 27.016C180.314 27.172 179.972 27.388 179.684 27.664L178.55 26.53C179.03 26.038 179.588 25.684 180.224 25.468C180.872 25.252 181.538 25.144 182.222 25.144C182.834 25.144 183.35 25.216 183.77 25.36C184.19 25.492 184.538 25.666 184.814 25.882C185.09 26.098 185.3 26.35 185.444 26.638C185.6 26.914 185.708 27.196 185.768 27.484C185.84 27.772 185.882 28.054 185.894 28.33C185.906 28.594 185.912 28.828 185.912 29.032V34H183.968V32.812ZM183.842 30.13H183.392C183.092 30.13 182.756 30.142 182.384 30.166C182.012 30.19 181.658 30.25 181.322 30.346C180.998 30.43 180.722 30.562 180.494 30.742C180.266 30.91 180.152 31.15 180.152 31.462C180.152 31.666 180.194 31.84 180.278 31.984C180.374 32.116 180.494 32.23 180.638 32.326C180.782 32.422 180.944 32.494 181.124 32.542C181.304 32.578 181.484 32.596 181.664 32.596C182.408 32.596 182.954 32.422 183.302 32.074C183.662 31.714 183.842 31.228 183.842 30.616V30.13ZM188.236 25.36H190.396V26.728H190.432C190.672 26.224 191.014 25.834 191.458 25.558C191.902 25.282 192.412 25.144 192.988 25.144C193.12 25.144 193.246 25.156 193.366 25.18C193.498 25.204 193.63 25.234 193.762 25.27V27.358C193.582 27.31 193.402 27.274 193.222 27.25C193.054 27.214 192.886 27.196 192.718 27.196C192.214 27.196 191.806 27.292 191.494 27.484C191.194 27.664 190.96 27.874 190.792 28.114C190.636 28.354 190.528 28.594 190.468 28.834C190.42 29.074 190.396 29.254 190.396 29.374V34H188.236V25.36ZM196.643 30.436C196.715 31.084 196.967 31.588 197.399 31.948C197.831 32.308 198.353 32.488 198.965 32.488C199.505 32.488 199.955 32.38 200.315 32.164C200.687 31.936 201.011 31.654 201.287 31.318L202.835 32.488C202.331 33.112 201.767 33.556 201.143 33.82C200.519 34.084 199.865 34.216 199.181 34.216C198.533 34.216 197.921 34.108 197.345 33.892C196.769 33.676 196.271 33.37 195.851 32.974C195.431 32.578 195.095 32.104 194.843 31.552C194.603 30.988 194.483 30.364 194.483 29.68C194.483 28.996 194.603 28.378 194.843 27.826C195.095 27.262 195.431 26.782 195.851 26.386C196.271 25.99 196.769 25.684 197.345 25.468C197.921 25.252 198.533 25.144 199.181 25.144C199.781 25.144 200.327 25.252 200.819 25.468C201.323 25.672 201.749 25.972 202.097 26.368C202.457 26.764 202.733 27.256 202.925 27.844C203.129 28.42 203.231 29.086 203.231 29.842V30.436H196.643ZM201.071 28.816C201.059 28.18 200.861 27.682 200.477 27.322C200.093 26.95 199.559 26.764 198.875 26.764C198.227 26.764 197.711 26.95 197.327 27.322C196.955 27.694 196.727 28.192 196.643 28.816H201.071Z" fill="white"/>
<path d="M303.5 55L359.5 55L359.5 1.00001L303.5 1L303.5 55Z" fill="url(#paint0_linear_396_62651)"/>
<defs>
<linearGradient id="paint0_linear_396_62651" x1="359.5" y1="28.8308" x2="303.554" y2="27.027" gradientUnits="userSpaceOnUse">
<stop stop-color="#0C131F"/>
<stop offset="0.500931" stop-color="#0C131F" stop-opacity="0.95"/>
<stop offset="1" stop-color="#0C131F" stop-opacity="0"/>
</linearGradient>
</defs>
</svg>
