<svg width="329" height="56" viewBox="0 0 329 56" fill="none" xmlns="http://www.w3.org/2000/svg">
<g clip-path="url(#clip0_110_19694)">
<path fill-rule="evenodd" clip-rule="evenodd" d="M0 24C0 10.7452 10.7452 0 24 0H305C318.255 0 329 10.7452 329 24V32C329 45.2548 318.255 56 305 56H24C10.7452 56 0 45.2548 0 32V24Z" fill="#F3F3F4"/>
<path d="M17.183 22.796H20.42C21.0093 22.796 21.4947 22.8783 21.876 23.043C22.2573 23.199 22.5563 23.4027 22.773 23.654C22.9983 23.8967 23.1543 24.174 23.241 24.486C23.3277 24.7893 23.371 25.084 23.371 25.37C23.371 25.6647 23.319 25.9507 23.215 26.228C23.111 26.4967 22.9593 26.7437 22.76 26.969C22.5693 27.1857 22.331 27.372 22.045 27.528C21.7677 27.6753 21.4557 27.7663 21.109 27.801L23.722 32H22.162L19.822 27.944H18.431V32H17.183V22.796ZM18.431 26.852H20.069C20.3117 26.852 20.55 26.8347 20.784 26.8C21.0267 26.7567 21.239 26.683 21.421 26.579C21.6117 26.475 21.7633 26.3277 21.876 26.137C21.9887 25.9377 22.045 25.682 22.045 25.37C22.045 25.058 21.9887 24.8067 21.876 24.616C21.7633 24.4167 21.6117 24.265 21.421 24.161C21.239 24.057 21.0267 23.9877 20.784 23.953C20.55 23.9097 20.3117 23.888 20.069 23.888H18.431V26.852ZM25.7153 29.348C25.7153 29.6167 25.7716 29.8637 25.8843 30.089C26.0056 30.3057 26.1616 30.492 26.3523 30.648C26.5429 30.804 26.7639 30.9253 27.0153 31.012C27.2666 31.0987 27.5266 31.142 27.7953 31.142C28.1593 31.142 28.4756 31.0597 28.7443 30.895C29.0129 30.7217 29.2599 30.4963 29.4853 30.219L30.3693 30.895C29.7193 31.7357 28.8093 32.156 27.6393 32.156C27.1539 32.156 26.7119 32.0737 26.3133 31.909C25.9233 31.7443 25.5896 31.519 25.3123 31.233C25.0436 30.9383 24.8356 30.596 24.6883 30.206C24.5409 29.8073 24.4673 29.3783 24.4673 28.919C24.4673 28.4597 24.5453 28.035 24.7013 27.645C24.8659 27.2463 25.0869 26.904 25.3643 26.618C25.6503 26.3233 25.9883 26.0937 26.3783 25.929C26.7683 25.7643 27.1929 25.682 27.6523 25.682C28.1983 25.682 28.6576 25.7773 29.0303 25.968C29.4116 26.1587 29.7236 26.41 29.9663 26.722C30.2089 27.0253 30.3823 27.372 30.4863 27.762C30.5989 28.1433 30.6553 28.5333 30.6553 28.932V29.348H25.7153ZM29.4073 28.412C29.3986 28.152 29.3553 27.9137 29.2773 27.697C29.2079 27.4803 29.0996 27.294 28.9523 27.138C28.8049 26.9733 28.6186 26.8477 28.3933 26.761C28.1766 26.6657 27.9209 26.618 27.6263 26.618C27.3403 26.618 27.0759 26.6743 26.8333 26.787C26.5993 26.891 26.3999 27.0297 26.2353 27.203C26.0706 27.3763 25.9406 27.5713 25.8453 27.788C25.7586 27.996 25.7153 28.204 25.7153 28.412H29.4073ZM36.4619 27.476C36.2452 27.2507 36.0156 27.0817 35.7729 26.969C35.5389 26.8477 35.2572 26.787 34.9279 26.787C34.6072 26.787 34.3256 26.8477 34.0829 26.969C33.8489 27.0817 33.6496 27.242 33.4849 27.45C33.3289 27.6493 33.2076 27.8833 33.1209 28.152C33.0429 28.412 33.0039 28.685 33.0039 28.971C33.0039 29.257 33.0516 29.53 33.1469 29.79C33.2422 30.0413 33.3766 30.2623 33.5499 30.453C33.7232 30.6437 33.9312 30.7953 34.1739 30.908C34.4166 31.012 34.6896 31.064 34.9929 31.064C35.3222 31.064 35.6039 31.0077 35.8379 30.895C36.0719 30.7737 36.2886 30.6003 36.4879 30.375L37.3199 31.207C37.0166 31.545 36.6612 31.7877 36.2539 31.935C35.8552 32.0823 35.4306 32.156 34.9799 32.156C34.5032 32.156 34.0656 32.078 33.6669 31.922C33.2769 31.766 32.9389 31.5493 32.6529 31.272C32.3669 30.986 32.1459 30.648 31.9899 30.258C31.8339 29.8593 31.7559 29.4217 31.7559 28.945C31.7559 28.4683 31.8339 28.0307 31.9899 27.632C32.1459 27.2333 32.3626 26.891 32.6399 26.605C32.9259 26.319 33.2639 26.098 33.6539 25.942C34.0526 25.7773 34.4946 25.695 34.9799 25.695C35.4306 25.695 35.8596 25.7773 36.2669 25.942C36.6829 26.098 37.0426 26.3407 37.3459 26.67L36.4619 27.476ZM38.3264 22.172H39.4964V26.787H39.5224C39.6697 26.4577 39.9254 26.1933 40.2894 25.994C40.6534 25.786 41.0737 25.682 41.5504 25.682C41.845 25.682 42.1267 25.7297 42.3954 25.825C42.6727 25.9117 42.911 26.0503 43.1104 26.241C43.3184 26.4317 43.483 26.6787 43.6044 26.982C43.7257 27.2767 43.7864 27.6277 43.7864 28.035V32H42.6164V28.36C42.6164 28.074 42.5774 27.8313 42.4994 27.632C42.4214 27.424 42.3174 27.2593 42.1874 27.138C42.0574 27.008 41.9057 26.917 41.7324 26.865C41.5677 26.8043 41.3944 26.774 41.2124 26.774C40.9697 26.774 40.7444 26.813 40.5364 26.891C40.3284 26.969 40.1464 27.0947 39.9904 27.268C39.8344 27.4327 39.713 27.645 39.6264 27.905C39.5397 28.165 39.4964 28.4727 39.4964 28.828V32H38.3264V22.172ZM46.434 29.348C46.434 29.6167 46.4903 29.8637 46.603 30.089C46.7243 30.3057 46.8803 30.492 47.071 30.648C47.2617 30.804 47.4827 30.9253 47.734 31.012C47.9853 31.0987 48.2453 31.142 48.514 31.142C48.878 31.142 49.1943 31.0597 49.463 30.895C49.7317 30.7217 49.9787 30.4963 50.204 30.219L51.088 30.895C50.438 31.7357 49.528 32.156 48.358 32.156C47.8727 32.156 47.4307 32.0737 47.032 31.909C46.642 31.7443 46.3083 31.519 46.031 31.233C45.7623 30.9383 45.5543 30.596 45.407 30.206C45.2597 29.8073 45.186 29.3783 45.186 28.919C45.186 28.4597 45.264 28.035 45.42 27.645C45.5847 27.2463 45.8057 26.904 46.083 26.618C46.369 26.3233 46.707 26.0937 47.097 25.929C47.487 25.7643 47.9117 25.682 48.371 25.682C48.917 25.682 49.3763 25.7773 49.749 25.968C50.1303 26.1587 50.4423 26.41 50.685 26.722C50.9277 27.0253 51.101 27.372 51.205 27.762C51.3177 28.1433 51.374 28.5333 51.374 28.932V29.348H46.434ZM50.126 28.412C50.1173 28.152 50.074 27.9137 49.996 27.697C49.9267 27.4803 49.8183 27.294 49.671 27.138C49.5237 26.9733 49.3373 26.8477 49.112 26.761C48.8953 26.6657 48.6397 26.618 48.345 26.618C48.059 26.618 47.7947 26.6743 47.552 26.787C47.318 26.891 47.1187 27.0297 46.954 27.203C46.7893 27.3763 46.6593 27.5713 46.564 27.788C46.4773 27.996 46.434 28.204 46.434 28.412H50.126ZM52.7736 25.838H53.9436V26.787H53.9696C54.0476 26.6223 54.1516 26.475 54.2816 26.345C54.4116 26.2063 54.5546 26.0893 54.7106 25.994C54.8753 25.8987 55.053 25.825 55.2436 25.773C55.4343 25.7123 55.625 25.682 55.8156 25.682C56.0063 25.682 56.1796 25.708 56.3356 25.76L56.2836 27.021C56.1883 26.995 56.093 26.9733 55.9976 26.956C55.9023 26.9387 55.807 26.93 55.7116 26.93C55.1396 26.93 54.702 27.0903 54.3986 27.411C54.0953 27.7317 53.9436 28.23 53.9436 28.906V32H52.7736V25.838ZM61.7637 27.476C61.547 27.2507 61.3173 27.0817 61.0747 26.969C60.8407 26.8477 60.559 26.787 60.2297 26.787C59.909 26.787 59.6273 26.8477 59.3847 26.969C59.1507 27.0817 58.9513 27.242 58.7867 27.45C58.6307 27.6493 58.5093 27.8833 58.4227 28.152C58.3447 28.412 58.3057 28.685 58.3057 28.971C58.3057 29.257 58.3533 29.53 58.4487 29.79C58.544 30.0413 58.6783 30.2623 58.8517 30.453C59.025 30.6437 59.233 30.7953 59.4757 30.908C59.7183 31.012 59.9913 31.064 60.2947 31.064C60.624 31.064 60.9057 31.0077 61.1397 30.895C61.3737 30.7737 61.5903 30.6003 61.7897 30.375L62.6217 31.207C62.3183 31.545 61.963 31.7877 61.5557 31.935C61.157 32.0823 60.7323 32.156 60.2817 32.156C59.805 32.156 59.3673 32.078 58.9687 31.922C58.5787 31.766 58.2407 31.5493 57.9547 31.272C57.6687 30.986 57.4477 30.648 57.2917 30.258C57.1357 29.8593 57.0577 29.4217 57.0577 28.945C57.0577 28.4683 57.1357 28.0307 57.2917 27.632C57.4477 27.2333 57.6643 26.891 57.9417 26.605C58.2277 26.319 58.5657 26.098 58.9557 25.942C59.3543 25.7773 59.7963 25.695 60.2817 25.695C60.7323 25.695 61.1613 25.7773 61.5687 25.942C61.9847 26.098 62.3443 26.3407 62.6477 26.67L61.7637 27.476ZM63.6281 22.172H64.7981V26.787H64.8241C64.9715 26.4577 65.2271 26.1933 65.5911 25.994C65.9551 25.786 66.3755 25.682 66.8521 25.682C67.1468 25.682 67.4285 25.7297 67.6971 25.825C67.9745 25.9117 68.2128 26.0503 68.4121 26.241C68.6201 26.4317 68.7848 26.6787 68.9061 26.982C69.0275 27.2767 69.0881 27.6277 69.0881 28.035V32H67.9181V28.36C67.9181 28.074 67.8791 27.8313 67.8011 27.632C67.7231 27.424 67.6191 27.2593 67.4891 27.138C67.3591 27.008 67.2075 26.917 67.0341 26.865C66.8695 26.8043 66.6961 26.774 66.5141 26.774C66.2715 26.774 66.0461 26.813 65.8381 26.891C65.6301 26.969 65.4481 27.0947 65.2921 27.268C65.1361 27.4327 65.0148 27.645 64.9281 27.905C64.8415 28.165 64.7981 28.4727 64.7981 28.828V32H63.6281V22.172ZM71.7358 29.348C71.7358 29.6167 71.7921 29.8637 71.9048 30.089C72.0261 30.3057 72.1821 30.492 72.3728 30.648C72.5634 30.804 72.7844 30.9253 73.0358 31.012C73.2871 31.0987 73.5471 31.142 73.8158 31.142C74.1798 31.142 74.4961 31.0597 74.7648 30.895C75.0334 30.7217 75.2804 30.4963 75.5058 30.219L76.3898 30.895C75.7398 31.7357 74.8298 32.156 73.6598 32.156C73.1744 32.156 72.7324 32.0737 72.3338 31.909C71.9438 31.7443 71.6101 31.519 71.3328 31.233C71.0641 30.9383 70.8561 30.596 70.7088 30.206C70.5614 29.8073 70.4878 29.3783 70.4878 28.919C70.4878 28.4597 70.5658 28.035 70.7218 27.645C70.8864 27.2463 71.1074 26.904 71.3848 26.618C71.6708 26.3233 72.0088 26.0937 72.3988 25.929C72.7888 25.7643 73.2134 25.682 73.6728 25.682C74.2188 25.682 74.6781 25.7773 75.0508 25.968C75.4321 26.1587 75.7441 26.41 75.9868 26.722C76.2294 27.0253 76.4028 27.372 76.5068 27.762C76.6194 28.1433 76.6758 28.5333 76.6758 28.932V29.348H71.7358ZM75.4278 28.412C75.4191 28.152 75.3758 27.9137 75.2978 27.697C75.2284 27.4803 75.1201 27.294 74.9728 27.138C74.8254 26.9733 74.6391 26.8477 74.4138 26.761C74.1971 26.6657 73.9414 26.618 73.6468 26.618C73.3608 26.618 73.0964 26.6743 72.8538 26.787C72.6198 26.891 72.4204 27.0297 72.2558 27.203C72.0911 27.3763 71.9611 27.5713 71.8658 27.788C71.7791 27.996 71.7358 28.204 71.7358 28.412H75.4278ZM78.0754 25.838H79.2454V26.787H79.2714C79.3494 26.6223 79.4534 26.475 79.5834 26.345C79.7134 26.2063 79.8564 26.0893 80.0124 25.994C80.1771 25.8987 80.3547 25.825 80.5454 25.773C80.7361 25.7123 80.9267 25.682 81.1174 25.682C81.3081 25.682 81.4814 25.708 81.6374 25.76L81.5854 27.021C81.4901 26.995 81.3947 26.9733 81.2994 26.956C81.2041 26.9387 81.1087 26.93 81.0134 26.93C80.4414 26.93 80.0037 27.0903 79.7004 27.411C79.3971 27.7317 79.2454 28.23 79.2454 28.906V32H78.0754V25.838ZM91.9651 32H90.7951V31.051H90.7691C90.6218 31.3803 90.3661 31.649 90.0021 31.857C89.6381 32.0563 89.2178 32.156 88.7411 32.156C88.4378 32.156 88.1518 32.1083 87.8831 32.013C87.6144 31.9263 87.3761 31.7877 87.1681 31.597C86.9688 31.4063 86.8084 31.1637 86.6871 30.869C86.5658 30.5657 86.5051 30.2103 86.5051 29.803V25.838H87.6751V29.478C87.6751 29.764 87.7141 30.011 87.7921 30.219C87.8701 30.4183 87.9741 30.583 88.1041 30.713C88.2341 30.8343 88.3814 30.9253 88.5461 30.986C88.7194 31.038 88.8971 31.064 89.0791 31.064C89.3218 31.064 89.5471 31.025 89.7551 30.947C89.9631 30.869 90.1451 30.7477 90.3011 30.583C90.4571 30.4097 90.5784 30.193 90.6651 29.933C90.7518 29.673 90.7951 29.3653 90.7951 29.01V25.838H91.9651V32ZM93.7287 25.838H94.8987V26.787H94.9247C95.0721 26.4577 95.3277 26.1933 95.6917 25.994C96.0557 25.786 96.4761 25.682 96.9527 25.682C97.2474 25.682 97.5291 25.7297 97.7977 25.825C98.0751 25.9117 98.3134 26.0503 98.5127 26.241C98.7207 26.4317 98.8854 26.6787 99.0067 26.982C99.1281 27.2767 99.1887 27.6277 99.1887 28.035V32H98.0187V28.36C98.0187 28.074 97.9797 27.8313 97.9017 27.632C97.8237 27.424 97.7197 27.2593 97.5897 27.138C97.4597 27.008 97.3081 26.917 97.1347 26.865C96.9701 26.8043 96.7967 26.774 96.6147 26.774C96.3721 26.774 96.1467 26.813 95.9387 26.891C95.7307 26.969 95.5487 27.0947 95.3927 27.268C95.2367 27.4327 95.1154 27.645 95.0287 27.905C94.9421 28.165 94.8987 28.4727 94.8987 28.828V32H93.7287V25.838ZM101.836 29.348C101.836 29.6167 101.893 29.8637 102.005 30.089C102.127 30.3057 102.283 30.492 102.473 30.648C102.664 30.804 102.885 30.9253 103.136 31.012C103.388 31.0987 103.648 31.142 103.916 31.142C104.28 31.142 104.597 31.0597 104.865 30.895C105.134 30.7217 105.381 30.4963 105.606 30.219L106.49 30.895C105.84 31.7357 104.93 32.156 103.76 32.156C103.275 32.156 102.833 32.0737 102.434 31.909C102.044 31.7443 101.711 31.519 101.433 31.233C101.165 30.9383 100.957 30.596 100.809 30.206C100.662 29.8073 100.588 29.3783 100.588 28.919C100.588 28.4597 100.666 28.035 100.822 27.645C100.987 27.2463 101.208 26.904 101.485 26.618C101.771 26.3233 102.109 26.0937 102.499 25.929C102.889 25.7643 103.314 25.682 103.773 25.682C104.319 25.682 104.779 25.7773 105.151 25.968C105.533 26.1587 105.845 26.41 106.087 26.722C106.33 27.0253 106.503 27.372 106.607 27.762C106.72 28.1433 106.776 28.5333 106.776 28.932V29.348H101.836ZM105.528 28.412C105.52 28.152 105.476 27.9137 105.398 27.697C105.329 27.4803 105.221 27.294 105.073 27.138C104.926 26.9733 104.74 26.8477 104.514 26.761C104.298 26.6657 104.042 26.618 103.747 26.618C103.461 26.618 103.197 26.6743 102.954 26.787C102.72 26.891 102.521 27.0297 102.356 27.203C102.192 27.3763 102.062 27.5713 101.966 27.788C101.88 27.996 101.836 28.204 101.836 28.412H105.528ZM117.969 31.948C117.969 32.416 117.887 32.8407 117.722 33.222C117.566 33.612 117.341 33.9457 117.046 34.223C116.751 34.509 116.396 34.73 115.98 34.886C115.564 35.042 115.105 35.12 114.602 35.12C114.013 35.12 113.471 35.0377 112.977 34.873C112.492 34.7083 112.028 34.4223 111.586 34.015L112.379 33.027C112.682 33.3563 113.012 33.6033 113.367 33.768C113.722 33.9413 114.125 34.028 114.576 34.028C115.009 34.028 115.369 33.963 115.655 33.833C115.941 33.7117 116.166 33.5513 116.331 33.352C116.504 33.1527 116.626 32.923 116.695 32.663C116.764 32.4117 116.799 32.156 116.799 31.896V30.986H116.76C116.535 31.3587 116.227 31.636 115.837 31.818C115.456 31.9913 115.053 32.078 114.628 32.078C114.177 32.078 113.757 32 113.367 31.844C112.986 31.6793 112.656 31.4583 112.379 31.181C112.102 30.895 111.885 30.5613 111.729 30.18C111.573 29.79 111.495 29.3697 111.495 28.919C111.495 28.4683 111.569 28.048 111.716 27.658C111.863 27.2593 112.071 26.9127 112.34 26.618C112.617 26.3233 112.947 26.0937 113.328 25.929C113.718 25.7643 114.151 25.682 114.628 25.682C115.044 25.682 115.447 25.773 115.837 25.955C116.236 26.137 116.548 26.3927 116.773 26.722H116.799V25.838H117.969V31.948ZM114.771 26.774C114.459 26.774 114.177 26.8303 113.926 26.943C113.675 27.047 113.462 27.1943 113.289 27.385C113.116 27.567 112.981 27.7923 112.886 28.061C112.791 28.321 112.743 28.607 112.743 28.919C112.743 29.543 112.925 30.0457 113.289 30.427C113.653 30.7997 114.147 30.986 114.771 30.986C115.395 30.986 115.889 30.7997 116.253 30.427C116.617 30.0457 116.799 29.543 116.799 28.919C116.799 28.607 116.751 28.321 116.656 28.061C116.561 27.7923 116.426 27.567 116.253 27.385C116.08 27.1943 115.867 27.047 115.616 26.943C115.365 26.8303 115.083 26.774 114.771 26.774ZM119.767 26.592C120.097 26.2887 120.478 26.0633 120.911 25.916C121.345 25.76 121.778 25.682 122.211 25.682C122.662 25.682 123.048 25.7383 123.368 25.851C123.698 25.9637 123.966 26.1153 124.174 26.306C124.382 26.4967 124.534 26.7177 124.629 26.969C124.733 27.2117 124.785 27.4673 124.785 27.736V30.882C124.785 31.0987 124.79 31.298 124.798 31.48C124.807 31.662 124.82 31.8353 124.837 32H123.797C123.771 31.688 123.758 31.376 123.758 31.064H123.732C123.472 31.4627 123.165 31.7443 122.809 31.909C122.454 32.0737 122.042 32.156 121.574 32.156C121.288 32.156 121.015 32.117 120.755 32.039C120.495 31.961 120.266 31.844 120.066 31.688C119.876 31.532 119.724 31.3413 119.611 31.116C119.499 30.882 119.442 30.6133 119.442 30.31C119.442 29.9113 119.529 29.5777 119.702 29.309C119.884 29.0403 120.127 28.8237 120.43 28.659C120.742 28.4857 121.102 28.3643 121.509 28.295C121.925 28.217 122.367 28.178 122.835 28.178H123.693V27.918C123.693 27.762 123.663 27.606 123.602 27.45C123.542 27.294 123.451 27.1553 123.329 27.034C123.208 26.904 123.056 26.8043 122.874 26.735C122.692 26.657 122.476 26.618 122.224 26.618C121.999 26.618 121.8 26.6397 121.626 26.683C121.462 26.7263 121.31 26.7827 121.171 26.852C121.033 26.9127 120.907 26.9863 120.794 27.073C120.682 27.1597 120.573 27.242 120.469 27.32L119.767 26.592ZM123.069 29.036C122.792 29.036 122.506 29.0533 122.211 29.088C121.925 29.114 121.661 29.1703 121.418 29.257C121.184 29.3437 120.989 29.465 120.833 29.621C120.686 29.777 120.612 29.9763 120.612 30.219C120.612 30.5743 120.729 30.83 120.963 30.986C121.206 31.142 121.531 31.22 121.938 31.22C122.259 31.22 122.532 31.168 122.757 31.064C122.983 30.9513 123.165 30.8083 123.303 30.635C123.442 30.4617 123.542 30.271 123.602 30.063C123.663 29.8463 123.693 29.634 123.693 29.426V29.036H123.069ZM126.483 25.838H127.653V26.787H127.679C127.757 26.6223 127.861 26.475 127.991 26.345C128.121 26.2063 128.264 26.0893 128.42 25.994C128.584 25.8987 128.762 25.825 128.953 25.773C129.143 25.7123 129.334 25.682 129.525 25.682C129.715 25.682 129.889 25.708 130.045 25.76L129.993 27.021C129.897 26.995 129.802 26.9733 129.707 26.956C129.611 26.9387 129.516 26.93 129.421 26.93C128.849 26.93 128.411 27.0903 128.108 27.411C127.804 27.7317 127.653 28.23 127.653 28.906V32H126.483V25.838ZM131.95 29.348C131.95 29.6167 132.006 29.8637 132.119 30.089C132.24 30.3057 132.396 30.492 132.587 30.648C132.777 30.804 132.998 30.9253 133.25 31.012C133.501 31.0987 133.761 31.142 134.03 31.142C134.394 31.142 134.71 31.0597 134.979 30.895C135.247 30.7217 135.494 30.4963 135.72 30.219L136.604 30.895C135.954 31.7357 135.044 32.156 133.874 32.156C133.388 32.156 132.946 32.0737 132.548 31.909C132.158 31.7443 131.824 31.519 131.547 31.233C131.278 30.9383 131.07 30.596 130.923 30.206C130.775 29.8073 130.702 29.3783 130.702 28.919C130.702 28.4597 130.78 28.035 130.936 27.645C131.1 27.2463 131.321 26.904 131.599 26.618C131.885 26.3233 132.223 26.0937 132.613 25.929C133.003 25.7643 133.427 25.682 133.887 25.682C134.433 25.682 134.892 25.7773 135.265 25.968C135.646 26.1587 135.958 26.41 136.201 26.722C136.443 27.0253 136.617 27.372 136.721 27.762C136.833 28.1433 136.89 28.5333 136.89 28.932V29.348H131.95ZM135.642 28.412C135.633 28.152 135.59 27.9137 135.512 27.697C135.442 27.4803 135.334 27.294 135.187 27.138C135.039 26.9733 134.853 26.8477 134.628 26.761C134.411 26.6657 134.155 26.618 133.861 26.618C133.575 26.618 133.31 26.6743 133.068 26.787C132.834 26.891 132.634 27.0297 132.47 27.203C132.305 27.3763 132.175 27.5713 132.08 27.788C131.993 27.996 131.95 28.204 131.95 28.412H135.642Z" fill="#5E6878"/>
<rect x="273" width="56" height="56" rx="28" fill="#8DE8FE"/>
<path d="M312.55 38.2668L305.9 31.6168C307.3 29.9835 308 27.8835 308 25.6668C308 20.5335 303.8 16.3335 298.667 16.3335C293.533 16.3335 289.333 20.5335 289.333 25.6668C289.333 30.8002 293.533 35.0002 298.667 35.0002C301.117 35.0002 303.333 34.0668 304.967 32.4335L311.617 39.0835C311.733 39.2002 311.85 39.2002 312.083 39.2002C312.317 39.2002 312.433 39.2002 312.55 39.0835C312.783 38.9668 312.783 38.5002 312.55 38.2668ZM298.667 33.8335C294.117 33.8335 290.5 30.2168 290.5 25.6668C290.5 21.1168 294.117 17.5002 298.667 17.5002C303.217 17.5002 306.833 21.1168 306.833 25.6668C306.833 30.2168 303.217 33.8335 298.667 33.8335Z" fill="#0C131F"/>
</g>
<defs>
<clipPath id="clip0_110_19694">
<rect width="329" height="56" rx="28" fill="white"/>
</clipPath>
</defs>
</svg>
